<?xml version="1.0" standalone="no"?>
<!DOCTYPE svg PUBLIC "-//W3C//DTD SVG 1.1//EN" "http://www.w3.org/Graphics/SVG/1.1/DTD/svg11.dtd" >
<svg xmlns="http://www.w3.org/2000/svg" xmlns:xlink="http://www.w3.org/1999/xlink" version="1.1">
<metadata>
Created by FontForge 20201107 at Fri Mar  7 12:35:51 2025
 By 
Copyright (c) 2012 by Glenjan. All rights reserved.
</metadata>
<defs>
<font id="EchoesSans-BlackItalic" horiz-adv-x="1284" >
  <font-face 
    font-family="Echoes Sans"
    font-weight="900"
    font-style="italic"
    font-stretch="normal"
    units-per-em="2048"
    panose-1="2 0 5 6 0 0 0 2 0 4"
    ascent="1536"
    descent="-512"
    x-height="1024"
    cap-height="1229"
    bbox="-434 -627 3582 1825"
    underline-thickness="102"
    underline-position="-204"
    unicode-range="U+0020-FB04"
  />
<missing-glyph horiz-adv-x="944" 
d="M539 457q55 0 85 4.5t74 21.5l25 -63q-54 -21 -90.5 -29t-91.5 -8q-109 0 -168 41q-58 42 -58 106q0 38 19.5 66.5t54.5 40.5v8q-22 9 -34.5 30t-12.5 46q0 60 45 90q50 37 152 37q85 0 170 -35l-27 -61q-67 22 -139 22q-32 0 -52.5 -2.5t-39.5 -15.5t-19 -37
q0 -51 68 -51h151v-72h-166q-79 0 -79 -64q0 -35 26 -51q31 -24 107 -24zM848 616q0 149 -80 236q-81 84 -227 84q-161 0 -236 -84q-80 -80 -80 -236q0 -142 74 -225q86 -92 242 -92q157 0 235 88q72 81 72 229zM147 614q0 181 105 289q104 107 287 107q169 0 276 -99
q113 -107 113 -297q0 -163 -92 -272q-98 -121 -297 -121q-185 0 -285 105q-107 110 -107 288z" />
    <glyph glyph-name="i_j" unicode="ij" horiz-adv-x="1132" 
d="M813 1024h338l-162 -1022q-27 -176 -137 -283q-142 -139 -385 -139q-115 0 -192.5 21t-168.5 71l123 228q73 -32 127.5 -43t126.5 -11q71 0 117 43q38 38 51 113zM1053 1477q86 0 133 -41.5t47 -104.5q0 -79 -65.5 -137.5t-168.5 -58.5q-83 0 -130.5 41t-47.5 104
q0 79 66 138t166 59zM125 807l35 217h448l-162 -1024h-337l124 786zM510 1477q86 0 133 -41.5t47 -104.5q0 -79 -65 -137.5t-168 -58.5q-83 0 -130.5 41t-47.5 104q0 79 65.5 138t165.5 59z" />
    <glyph glyph-name="l_j" unicode="lj" horiz-adv-x="1153" 
d="M672 2l162 1022h337l-161 -1022q-29 -184 -150 -295q-139 -127 -373 -127q-115 0 -191.5 21t-168.5 71l123 228q73 -32 127.5 -43t126.5 -11q71 0 117 43q38 38 51 113zM1073 1477q86 0 133 -41.5t47 -104.5q0 -79 -65 -137.5t-168 -58.5q-83 0 -130.5 41t-47.5 104
q0 79 65.5 138t165.5 59zM176 1120l33 211h448l-211 -1331h-337l174 1094z" />
    <glyph glyph-name="ff" unicode="ff" horiz-adv-x="1669" 
d="M170 993l166 19l6 45q14 96 68 175.5t133 133.5q125 86 307 86q211 0 364 -104q142 104 324 104q229 0 395 -125l-137 -192q-104 59 -237 59q-99 0 -142 -43q-39 -43 -49 -107l-2 -20h328l-39 -236l-330 -14l-123 -774h-340l123 770h-348l-123 -770h-340l123 770h-162z
M1026 1024l4 33q8 40 27 96q-86 41 -187 41q-98 0 -141 -43q-39 -43 -49 -107l-2 -20h348z" />
    <glyph glyph-name="fi" unicode="fi" horiz-adv-x="1382" 
d="M170 993l166 19l6 45q14 96 68 175.5t133 133.5q125 86 307 86q229 0 395 -125l-123 -194q-103 61 -252 61q-98 0 -141 -43q-39 -43 -49 -107l-2 -20h686l-164 -1024h-338l125 786l-53 11l-297 -23l-123 -774h-340l123 770h-162z" />
    <glyph glyph-name="fl" unicode="fl" horiz-adv-x="1382" 
d="M170 993l166 19l6 45q20 142 129 246q72 70 175 109.5t212 39.5q165 0 289.5 -43t255.5 -139l-203 -1270h-338l182 1151q-87 43 -174 43q-98 0 -141 -43q-39 -43 -49 -107l-2 -20h287l-37 -229l-291 -21l-123 -774h-340l123 770h-162z" />
    <glyph glyph-name="ffi" unicode="ffi" horiz-adv-x="2070" 
d="M170 993l166 19l6 45q14 96 68 175.5t133 133.5q125 86 307 86q211 0 364 -104q142 104 324 104q255 0 416 -123l-123 -199q-151 64 -272 64q-99 0 -142 -43q-39 -43 -49 -107l-2 -20h686l-164 -1024h-338l125 786l-37 7l-313 -19l-123 -774h-340l123 770h-348l-123 -770
h-340l123 770h-162zM1026 1024l4 33q10 54 25 96q-89 41 -185 41q-98 0 -141 -43q-39 -43 -49 -107l-2 -20h348z" />
    <glyph glyph-name="ffl" unicode="ffl" horiz-adv-x="2070" 
d="M170 993l166 19l6 45q14 96 68 175.5t133 133.5q125 86 307 86q211 0 364 -104q145 104 332 104q165 0 289.5 -43t255.5 -139l-203 -1270h-338l183 1151q-87 43 -174 43q-99 0 -142 -43q-39 -43 -49 -107l-2 -20h287l-37 -229l-291 -21l-123 -774h-340l123 770h-348
l-123 -770h-340l123 770h-162zM1026 1024l4 33q8 40 25 90q-90 47 -185 47q-98 0 -141 -43q-39 -43 -49 -107l-2 -20h348z" />
    <glyph glyph-name="f_f_j" unicode="ffj" horiz-adv-x="2070" 
d="M186 993l166 19l6 45q17 97 70 176.5t131 132.5q125 86 307 86q212 0 365 -104q142 104 323 104q122 0 222 -28.5t194 -94.5l-127 -199q-122 64 -268 64q-99 0 -139 -43q-42 -42 -52 -107l-2 -20h686l-161 -1022q-30 -182 -150 -293q-138 -129 -375 -129
q-115 0 -191.5 21t-168.5 71l129 222q73 -29 125.5 -38.5t124.5 -9.5q77 0 121 50q38 38 47 106l123 784l-37 7l-314 -19l-120 -774h-340l120 770h-348l-121 -770h-339l120 770h-161zM1042 1024l5 33q9 47 24 90q-90 47 -184 47q-99 0 -139 -43q-42 -42 -52 -107l-2 -20h348
z" />
    <glyph glyph-name="f_j" unicode="fj" horiz-adv-x="1382" 
d="M186 993l166 19l6 45q17 97 70 176.5t131 132.5q125 86 307 86q230 0 396 -125l-123 -197q-117 64 -252 64q-99 0 -139 -43q-42 -42 -52 -107l-2 -20h686l-161 -1022q-30 -182 -150 -293q-138 -129 -375 -129q-115 0 -191.5 21t-168.5 71l125 228q72 -31 126.5 -42.5
t127.5 -11.5q77 0 121 50q38 38 47 106l123 784l-54 11l-297 -23l-121 -774h-339l120 770h-161z" />
    <glyph glyph-name="i_l" unicode="il" horiz-adv-x="1148" 
d="M655 0l211 1331h338l-211 -1331h-338zM109 807l34 217h449l-162 -1024h-338l125 786zM494 1477q86 0 133 -41.5t47 -104.5q0 -79 -65.5 -137.5t-168.5 -58.5q-83 0 -130.5 41t-47.5 104q0 79 66 138t166 59z" />
    <glyph glyph-name="i_l_l" unicode="ill" horiz-adv-x="1679" 
d="M655 0l211 1331h338l-211 -1331h-338zM109 807l34 217h449l-162 -1024h-338l125 786zM494 1477q86 0 133 -41.5t47 -104.5q0 -79 -65.5 -137.5t-168.5 -58.5q-83 0 -130.5 41t-47.5 104q0 79 66 138t166 59zM1219 0l211 1331h337l-211 -1331h-337z" />
    <glyph glyph-name="j_l" unicode="jl" horiz-adv-x="1146" 
d="M662 0l210 1331h338l-211 -1331h-337zM125 807l35 217h448l-162 -1022q-27 -179 -141 -287q-141 -135 -379 -135q-115 0 -191.5 21t-168.5 71l123 228q73 -32 127.5 -43t126.5 -11q74 0 116 45q41 41 50 111l124 784zM510 1477q86 0 133 -41.5t47 -104.5
q0 -79 -65 -137.5t-168 -58.5q-83 0 -130.5 41t-47.5 104q0 79 65.5 138t165.5 59z" />
    <glyph glyph-name="l_l" unicode="ll" horiz-adv-x="1132" 
d="M164 1120l35 211h448l-211 -1331h-338l172 1094zM651 0l211 1331h338l-211 -1331h-338z" />
    <glyph glyph-name="l_i" unicode="li" horiz-adv-x="1134" 
d="M651 0l162 1024h338l-162 -1024h-338zM1053 1477q86 0 133 -41.5t47 -104.5q0 -79 -65.5 -137.5t-168.5 -58.5q-83 0 -130.5 41t-47.5 104q0 79 66 138t166 59zM160 1120l33 211h448l-211 -1331h-338l174 1094z" />
    <glyph glyph-name="l_l_i" unicode="lli" horiz-adv-x="1699" 
d="M1219 0l161 1024h338l-162 -1024h-337zM1620 1477q86 0 133 -41.5t47 -104.5q0 -79 -65 -137.5t-168 -58.5q-83 0 -130.5 41t-47.5 104q0 79 65.5 138t165.5 59zM655 0l211 1331h338l-211 -1331h-338zM160 1120l33 211h448l-211 -1331h-338l174 1094z" />
    <glyph glyph-name="j_i" unicode="ji" horiz-adv-x="1134" 
d="M662 0l161 1024h338l-162 -1024h-337zM1063 1477q86 0 133 -41.5t47 -104.5q0 -79 -65 -137.5t-168 -58.5q-83 0 -131 41.5t-48 103.5q0 79 66 138t166 59zM125 807l35 217h448l-162 -1022q-29 -199 -172 -313q-136 -109 -348 -109q-115 0 -191.5 21t-168.5 71l123 228
q73 -32 127.5 -43t126.5 -11q74 0 116 45q41 41 50 111l124 784zM510 1477q86 0 133 -41.5t47 -104.5q0 -79 -65 -137.5t-168 -58.5q-83 0 -130.5 41t-47.5 104q0 79 65.5 138t165.5 59z" />
    <glyph glyph-name="j_i_l" unicode="jil" horiz-adv-x="1677" 
d="M1210 0l211 1331h338l-211 -1331h-338zM662 0l161 1024h338l-162 -1024h-337zM1063 1477q86 0 133 -41.5t47 -104.5q0 -79 -65 -137.5t-168 -58.5q-83 0 -131 41.5t-48 103.5q0 79 66 138t166 59zM125 807l35 217h448l-162 -1022q-30 -189 -157 -301q-139 -121 -363 -121
q-115 0 -191.5 21t-168.5 71l123 228q73 -32 127.5 -43t126.5 -11q68 0 110 39q44 41 56 117l124 784zM510 1477q86 0 133 -41.5t47 -104.5q0 -79 -65 -137.5t-168 -58.5q-83 0 -130.5 41t-47.5 104q0 79 65.5 138t165.5 59z" />
    <glyph glyph-name="j_i_l_l" unicode="jill" horiz-adv-x="2195" 
d="M1194 0l211 1331h338l-211 -1331h-338zM651 0l162 1024h338l-162 -1024h-338zM1053 1477q86 0 133 -41.5t47 -104.5q0 -79 -65.5 -137.5t-168.5 -58.5q-83 0 -130.5 41t-47.5 104q0 79 66 138t166 59zM1737 0l211 1331h338l-211 -1331h-338zM125 807l35 217h448
l-162 -1022q-30 -202 -176 -317q-135 -105 -344 -105q-115 0 -191.5 21t-168.5 71l123 228q73 -32 127.5 -43t126.5 -11q80 0 123 52q34 40 43 104l124 784zM510 1477q86 0 133 -41.5t47 -104.5q0 -79 -65 -137.5t-168 -58.5q-83 0 -130.5 41t-47.5 104q0 79 65.5 138
t165.5 59z" />
    <glyph glyph-name="i_i" unicode="ii" horiz-adv-x="1134" 
d="M645 0l162 1024h338l-162 -1024h-338zM1047 1477q86 0 133 -41.5t47 -104.5q0 -79 -65.5 -137.5t-168.5 -58.5q-83 0 -130.5 41t-47.5 104q0 79 66 138t166 59zM109 807l34 217h449l-162 -1024h-338l125 786zM494 1477q86 0 133 -41.5t47 -104.5q0 -79 -65.5 -137.5
t-168.5 -58.5q-83 0 -130.5 41t-47.5 104q0 79 66 138t166 59z" />
    <glyph glyph-name="afii10103_afii10104" unicode="&#x456;&#x457;" horiz-adv-x="1134" 
d="M645 0l162 1024h338l-162 -1024h-338zM788 1477q86 0 133.5 -41.5t47.5 -104.5q0 -79 -65.5 -137.5t-168.5 -58.5q-83 0 -130.5 41t-47.5 104q0 79 65.5 138t165.5 59zM109 807l34 217h449l-162 -1024h-338l125 786zM309 1477q86 0 133 -41.5t47 -104.5q0 -79 -65 -137.5
t-168 -58.5q-83 0 -130.5 41t-47.5 104q0 79 65.5 138t165.5 59zM1268 1477q86 0 133 -41.5t47 -104.5q0 -79 -65.5 -137.5t-168.5 -58.5q-83 0 -130.5 41t-47.5 104q0 79 66 138t166 59z" />
    <glyph glyph-name="i_l_l_i" unicode="illi" horiz-adv-x="2179" 
d="M143 1024h449l-162 -1024h-338l125 786l-108 21zM494 1477q69 0 124.5 -38t55.5 -108q0 -85 -71.5 -140.5t-162.5 -55.5q-83 0 -130.5 41t-47.5 104q0 85 71 141t161 56zM973 0h-338l211 1331h338zM1516 0h-338l211 1331h337zM2058 0h-338l162 1024h338zM1890 1280
q0 85 71 141t161 56q70 0 125 -38t55 -108q0 -85 -71.5 -140.5t-162.5 -55.5q-83 0 -130.5 41t-47.5 104z" />
    <glyph glyph-name=".notdef" horiz-adv-x="944" 
d="M539 457q55 0 85 4.5t74 21.5l25 -63q-54 -21 -90.5 -29t-91.5 -8q-109 0 -168 41q-58 42 -58 106q0 38 19.5 66.5t54.5 40.5v8q-22 9 -34.5 30t-12.5 46q0 60 45 90q50 37 152 37q85 0 170 -35l-27 -61q-67 22 -139 22q-32 0 -52.5 -2.5t-39.5 -15.5t-19 -37
q0 -51 68 -51h151v-72h-166q-79 0 -79 -64q0 -35 26 -51q31 -24 107 -24zM848 616q0 149 -80 236q-81 84 -227 84q-161 0 -236 -84q-80 -80 -80 -236q0 -142 74 -225q86 -92 242 -92q157 0 235 88q72 81 72 229zM147 614q0 181 105 289q104 107 287 107q169 0 276 -99
q113 -107 113 -297q0 -163 -92 -272q-98 -121 -297 -121q-185 0 -285 105q-107 110 -107 288z" />
    <glyph glyph-name=".null" horiz-adv-x="0" 
 />
    <glyph glyph-name="nonmarkingreturn" horiz-adv-x="682" 
 />
    <glyph glyph-name="space" unicode=" " horiz-adv-x="475" 
 />
    <glyph glyph-name="exclam" unicode="!" horiz-adv-x="530" 
d="M272 1331h297l-45 -289l-125 -639h-247l75 639zM260 313q72 0 112 -37t40 -96q0 -83 -57.5 -137.5t-145.5 -54.5q-71 0 -110.5 35t-39.5 96q0 80 56.5 137t144.5 57z" />
    <glyph glyph-name="quotedbl" unicode="&#x22;" horiz-adv-x="643" 
d="M162 889l31 340h215l-56 -340h-190zM401 889l56 340h215l-80 -340h-191z" />
    <glyph glyph-name="numbersign" unicode="#" horiz-adv-x="1042" 
d="M211 260l37 152h-144l27 166h160l26 106h-165l26 166h180l50 188l198 -16l-43 -172h90l49 188l199 -16l-43 -172h174l-26 -166h-191l-27 -106h197l-27 -166h-210l-43 -168l-199 16l37 152h-88l-43 -168zM522 684l-26 -106h90l26 106h-90z" />
    <glyph glyph-name="dollar" unicode="$" horiz-adv-x="1357" 
d="M682 -178h-268l18 164q-212 16 -397 88l112 262q125 -35 254 -53.5t217 -18.5q152 0 230 29q43 16 61.5 34.5t18.5 51.5q0 22 -19 41q-25 25 -86 33l-293 39q-200 26 -292 112q-82 75 -82 193q0 102 48.5 193.5t137.5 148.5q126 82 320 104l32 160h269l-19 -156
q197 -11 393 -96l-129 -248q-121 43 -206.5 58.5t-204.5 15.5q-145 0 -215 -25q-60 -21 -60 -65q0 -27 21 -45q33 -26 90 -33l311 -41q212 -27 295 -129q66 -79 66 -186q0 -113 -60 -210.5t-164 -158.5q-140 -82 -366 -100z" />
    <glyph glyph-name="uni0025" unicode="%" horiz-adv-x="1505" 
d="M326 78l819 979l129 -107l-809 -983zM381 438q-131 0 -209 84q-59 65 -59 164q0 155 106 256q105 100 256 100q66 0 122 -23.5t91 -66.5q57 -66 57 -164q0 -74 -34 -145t-95 -123q-97 -82 -235 -82zM489 657q46 43 46 109q0 40 -21 61q-24 27 -68 27q-59 0 -90 -39
q-32 -40 -32 -96q0 -40 16 -62q18 -30 70 -30q49 0 79 30zM1118 -23q-131 0 -209 84q-59 65 -59 164q0 155 106 256t256 101q66 0 122 -23.5t91 -66.5q58 -67 58 -164q0 -74 -34 -145.5t-95 -123.5q-97 -82 -236 -82zM1227 197q45 42 45 108q0 41 -21 62q-23 26 -67 26
q-59 0 -90 -39q-33 -41 -33 -96q0 -39 16 -61q19 -31 70 -31q49 0 80 31z" />
    <glyph glyph-name="ampersand" unicode="&#x26;" horiz-adv-x="1495" 
d="M967 846h528l-31 -201l-131 -18q-15 -67 -43 -154q-28 -78 -65 -137l35 -31q53 -45 131 -61l39 -8l-84 -236h-41q-145 0 -263 80l-32 22q-91 -62 -176 -90q-107 -35 -238 -35q-124 0 -234.5 35t-179.5 105q-88 88 -88 229q0 133 68 246q51 84 139 147q-35 55 -35 129
q0 92 47.5 171.5t132.5 129.5q143 82 351 82q158 0 269.5 -31t213.5 -102l-150 -203q-151 84 -374 84q-83 0 -125 -26q-39 -22 -39 -78q0 -36 31 -61l370 -299q11 16 23 51q9 26 12 59l-90 14zM807 287l-315 254q-25 -22 -41 -62q-17 -46 -17 -84q0 -57 33 -102
q49 -62 149 -62q44 0 93 11q52 10 98 45z" />
    <glyph glyph-name="quotesingle" unicode="'" horiz-adv-x="464" 
d="M182 889l31 340h260l-80 -340h-211z" />
    <glyph glyph-name="parenleft" unicode="(" horiz-adv-x="565" 
d="M674 1225q-250 -424 -250 -867q0 -176 53 -374l-270 -113q-46 88 -70 218.5t-24 270.5q0 257 83.5 511.5t241.5 465.5z" />
    <glyph glyph-name="parenright" unicode=")" horiz-adv-x="565" 
d="M-12 -16q248 428 248 886q0 153 -54 355l269 112q96 -176 96 -471q0 -270 -81.5 -530.5t-246.5 -464.5z" />
    <glyph glyph-name="asterisk" unicode="*" horiz-adv-x="673" 
d="M604 1260l-80 -132l140 17l30 -31l-18 -115l-41 -26l-133 14l43 -131l-21 -43l-114 -35l-37 25l-13 139l-124 -92h-50l-49 92l19 47l139 70l-113 76l2 47l78 88l45 4l88 -100l56 139l43 20l98 -33z" />
    <glyph glyph-name="plus" unicode="+" horiz-adv-x="854" 
d="M133 797h238l39 239h252l-39 -239h241l-39 -252h-241l-39 -240h-252l39 240h-238z" />
    <glyph glyph-name="comma" unicode="," horiz-adv-x="530" 
d="M133 -203l60 195q-40 10 -62 43t-22 80q0 84 55.5 141t146.5 57q70 0 109 -36t39 -95q0 -60 -29 -114l-160 -297z" />
    <glyph glyph-name="hyphen" unicode="-" horiz-adv-x="690" 
d="M123 664h567l-39 -252h-567z" />
    <glyph glyph-name="period" unicode="." horiz-adv-x="530" 
d="M301 313q71 0 110.5 -37t39.5 -96q0 -84 -56 -138t-145 -54q-71 0 -110.5 36t-39.5 97q0 80 56 136t145 56z" />
    <glyph glyph-name="slash" unicode="/" horiz-adv-x="716" 
d="M-55 14l678 1295l247 -88l-682 -1297z" />
    <glyph glyph-name="zero" unicode="0" horiz-adv-x="1329" 
d="M774 995q-159 0 -239 -147q-76 -141 -76 -363q0 -122 39 -180q21 -32 61.5 -52t93.5 -20q82 0 145 43.5t99 120.5q72 148 72 369q0 113 -43 166q-53 63 -152 63zM815 1251q278 0 406 -172q96 -131 96 -325q0 -162 -56 -318t-167 -268q-188 -191 -482 -191
q-276 0 -409 175q-94 125 -94 327q0 163 55.5 316.5t167.5 265.5q187 190 483 190z" />
    <glyph glyph-name="one" unicode="1" horiz-adv-x="888" 
d="M219 836l-39 213l445 200l172 -24l-156 -981l145 -27l-34 -217h-678l35 215l190 27l104 653z" />
    <glyph glyph-name="two" unicode="2" horiz-adv-x="1206" 
d="M45 0l37 229l637 422q70 46 108 92q50 62 50 125q0 46 -37 76q-49 41 -158 41q-105 0 -199.5 -23t-208.5 -83l-92 227q136 77 270 111t291 34q254 0 377 -112q97 -84 97 -213q0 -152 -89 -271q-82 -103 -213 -182l-344 -209h537l-43 -264h-1020z" />
    <glyph glyph-name="three" unicode="3" horiz-adv-x="1241" 
d="M356 786h357q56 0 92 23q45 28 45 94q0 35 -29 60q-37 30 -147 30q-100 0 -190.5 -17t-202.5 -61l-78 211q138 72 259 98.5t271 26.5q254 0 371 -94q92 -75 92 -194q0 -103 -51 -179q-29 -48 -90 -88l-2 -8q78 -40 106 -100q31 -60 31 -123q0 -183 -141 -311
q-94 -85 -232.5 -131t-284.5 -46q-156 0 -274.5 36t-237.5 112l158 229q103 -59 196 -82.5t201 -23.5q120 0 191 49q76 53 76 145q0 36 -21 60q-34 37 -104 37h-402z" />
    <glyph glyph-name="four" unicode="4" horiz-adv-x="1280" 
d="M47 166l37 235l741 828h273l49 -49l-666 -752h326l33 211l280 121h70l-53 -332h106l-41 -262h-106l-27 -166h-330l27 166h-719z" />
    <glyph glyph-name="five" unicode="5" horiz-adv-x="1236" 
d="M287 1229h932l-37 -246h-623l-24 -152q102 21 200 21q249 0 369 -117q86 -83 86 -225q0 -241 -168 -383q-179 -150 -471 -150q-179 0 -290 31t-238 119l155 227q97 -62 186 -85t201 -23q129 0 197 49q84 65 84 158q0 62 -39 98q-54 49 -182 49q-83 0 -144 -11t-143 -36
l-145 80z" />
    <glyph glyph-name="six" unicode="6" horiz-adv-x="1263" 
d="M1268 1149l-146 -225q-132 63 -309 63q-128 0 -203 -55q-66 -49 -98 -131q113 43 244 43q229 0 350 -96q111 -90 111 -248q0 -108 -50.5 -210.5t-140.5 -172.5q-176 -140 -438 -140q-283 0 -402 166q-82 113 -82 297q0 195 74.5 373.5t224.5 294.5q185 143 437 143
q132 0 235 -22.5t193 -79.5zM455 553q-11 -70 -11 -102q0 -67 23 -125q41 -93 162 -93q106 0 170 58q75 71 75 162q0 52 -24 82q-40 53 -156 53q-130 0 -239 -35z" />
    <glyph glyph-name="seven" unicode="7" horiz-adv-x="1200" 
d="M137 791l70 438h1087l-34 -215q-218 -179 -347 -359q-136 -190 -233 -454l-74 -201h-358l117 283q86 212 219 403q92 133 235 279h-362l-82 -174h-238z" />
    <glyph glyph-name="eight" unicode="8" horiz-adv-x="1333" 
d="M336 686q-39 28 -57 68q-23 51 -23 104q0 87 45.5 166t128.5 131q150 96 385 96q222 0 342 -75q109 -71 109 -187q0 -75 -37 -147q-39 -74 -109 -123q94 -48 133 -119q31 -60 31 -123q0 -235 -207 -379q-173 -121 -465 -121q-148 0 -262 31t-172 88q-100 93 -100 226
q0 135 69 225q64 85 189 139zM858 786q31 22 49 56q21 40 21 84q0 32 -27 59q-38 35 -123 35q-68 0 -121 -27q-65 -35 -65 -108q0 -39 22 -58q37 -34 127 -34q49 0 117 -7zM539 557q-56 -27 -84 -68q-39 -51 -39 -118q0 -53 39 -84q35 -31 79.5 -43.5t116.5 -12.5
q76 0 120.5 10t88.5 40q36 24 57 63t21 84q0 55 -43 84q-50 37 -193 37q-106 0 -163 8z" />
    <glyph glyph-name="nine" unicode="9" horiz-adv-x="1263" 
d="M92 80l146 231q141 -69 307 -69q130 0 205 55q62 46 98 131q-113 -43 -244 -43q-229 0 -350 96q-111 90 -111 244q0 209 152 354q87 83 212 127.5t265 44.5q280 0 402 -166q81 -115 81 -321q0 -170 -51.5 -320t-152.5 -256q-198 -211 -531 -211q-131 0 -234 23t-194 80z
M905 676q10 66 10 108q0 101 -45 154q-42 51 -141 51q-117 0 -182 -59q-62 -56 -62 -156q0 -43 25 -74q45 -59 154 -59q129 0 241 35z" />
    <glyph glyph-name="colon" unicode=":" horiz-adv-x="530" 
d="M281 313q71 0 110 -37t39 -96q0 -84 -56 -138t-145 -54q-71 0 -110 36t-39 97q0 80 56 136t145 56zM371 895q71 0 110 -37t39 -96q0 -84 -56 -138.5t-145 -54.5q-71 0 -110 36t-39 97q0 80 56 136.5t145 56.5z" />
    <glyph glyph-name="semicolon" unicode=";" horiz-adv-x="530" 
d="M113 -203l59 195q-40 10 -62 43t-22 80q0 84 56 141t147 57q70 0 108.5 -36t38.5 -95q0 -62 -28 -114l-160 -297zM371 895q71 0 110 -37t39 -96q0 -84 -56 -138.5t-145 -54.5q-71 0 -110 36t-39 97q0 80 56 136.5t145 56.5z" />
    <glyph glyph-name="less" unicode="&#x3c;" horiz-adv-x="749" 
d="M647 1018l103 -166l-283 -223l215 -223l-158 -170l-420 350l13 88z" />
    <glyph glyph-name="equal" unicode="=" horiz-adv-x="741" 
d="M104 602h619l-35 -219h-618zM152 903h618l-33 -219h-618z" />
    <glyph glyph-name="greater" unicode="&#x3e;" horiz-adv-x="749" 
d="M199 236l-103 165l289 238l-219 209l156 170l421 -350l-14 -88z" />
    <glyph glyph-name="question" unicode="?" horiz-adv-x="1273" 
d="M389 365l19 110q22 131 90.5 203.5t203.5 107.5l56 15q5 1 18.5 4t18.5 4.5t16.5 4.5t17 4.5t14.5 4.5t15 6t12.5 7t12.5 8q57 39 57 123q0 43 -29 69q-51 43 -215 43q-219 0 -444 -125l-98 226q159 88 296.5 127t294.5 39q132 0 257 -29.5t204 -97.5q90 -77 90 -209
q0 -162 -94 -273q-104 -119 -311 -172l-111 -28q-75 -19 -84 -86l-14 -86h-293zM532 313q71 0 110.5 -37t39.5 -96q0 -79 -55 -135.5t-146 -56.5q-71 0 -110 36t-39 97q0 80 56.5 136t143.5 56z" />
    <glyph glyph-name="at" unicode="@" horiz-adv-x="1583" 
d="M1227 784l-62 -378q-2 -10 -2 -25q0 -47 58 -47q34 0 55 35q55 89 55 235q0 128 -63 203q-99 119 -344 119q-246 0 -406 -142q-77 -69 -117.5 -171.5t-40.5 -217.5q0 -152 93 -239q115 -105 329 -105q210 0 394 39l12 -186q-119 -37 -216.5 -52.5t-221.5 -15.5
q-346 0 -517 168q-131 128 -131 352q0 184 79.5 349.5t230.5 275.5q227 168 546 168q159 0 287 -48.5t209 -142.5q111 -130 111 -325q0 -213 -113 -348q-53 -62 -120.5 -96.5t-137.5 -34.5q-82 0 -130 17t-81 56q-97 -84 -240 -84q-129 0 -202 76q-74 77 -74 207
q0 92 39 179.5t112 142.5q97 75 234 75q69 0 109.5 -12.5t78.5 -42.5l45 31zM961 612q-38 35 -97 35q-63 0 -96 -29q-32 -27 -47.5 -78t-15.5 -106q0 -49 20 -72q22 -32 90 -32q71 0 117 49q-2 8 -2 24q0 11 4 39z" />
    <glyph glyph-name="A" unicode="A" horiz-adv-x="1562" 
d="M743 1229h369l350 -1229h-368l-39 162h-590l-94 -162h-367zM866 901l-245 -471h362l-94 471h-23z" />
    <glyph glyph-name="B" unicode="B" horiz-adv-x="1370" 
d="M268 1229h672q225 0 328 -92q71 -62 71 -170q0 -95 -43 -174q-42 -80 -122 -125l-3 -13q70 -32 107 -90.5t37 -134.5q0 -91 -48 -177t-128 -144q-145 -109 -367 -109h-698zM510 514l-39 -248h334q74 0 121 41q43 43 43 117q0 50 -30 70t-95 20h-334zM582 963l-31 -199
h301q59 0 90 31q39 36 39 92q0 76 -92 76h-307z" />
    <glyph glyph-name="C" unicode="C" horiz-adv-x="1341" 
d="M1399 1143l-133 -230q-102 39 -181.5 54.5t-169.5 15.5q-85 0 -168.5 -29.5t-136.5 -79.5q-63 -58 -99 -143t-36 -182q0 -102 47 -176q37 -56 112.5 -90.5t164.5 -34.5q101 0 177.5 16.5t197.5 61.5l61 -230q-132 -66 -248 -92.5t-254 -26.5q-322 0 -502 195
q-120 133 -120 332q0 168 73 322.5t209 254.5q231 170 541 170q142 0 247 -22t218 -86z" />
    <glyph glyph-name="D" unicode="D" horiz-adv-x="1400" 
d="M268 1229h531q333 0 469 -148q118 -127 118 -333q0 -400 -243 -598q-93 -77 -214.5 -113.5t-289.5 -36.5h-565zM582 961l-109 -691h217q123 0 201 68q71 61 104 166.5t33 222.5q0 96 -41 154q-60 80 -211 80h-194z" />
    <glyph glyph-name="E" unicode="E" horiz-adv-x="1280" 
d="M74 0l194 1229h1051l-43 -271h-694l-31 -194h614l-43 -264h-614l-35 -230h719l-43 -270h-1075z" />
    <glyph glyph-name="F" unicode="F" horiz-adv-x="1220" 
d="M268 1229h1026l-43 -271h-665l-35 -223h592l-43 -268h-592l-74 -467h-360z" />
    <glyph glyph-name="G" unicode="G" horiz-adv-x="1452" 
d="M750 520l34 223h623l-117 -743h-252l-32 72q-151 -95 -336 -95q-297 0 -447 173q-114 136 -114 339q0 171 74.5 326t213.5 266q217 170 555 170q274 0 480 -123l-129 -225q-195 84 -394 84q-147 0 -260 -80q-84 -59 -130 -159t-46 -213q0 -89 33 -154q68 -133 235 -133
q125 0 250 57l31 189z" />
    <glyph glyph-name="H" unicode="H" horiz-adv-x="1456" 
d="M1124 1229h355l-195 -1229h-354l82 516h-502l-82 -516h-354l194 1229h355l-70 -441h502z" />
    <glyph glyph-name="I" unicode="I" horiz-adv-x="602" 
d="M268 1229h357l-195 -1229h-356z" />
    <glyph glyph-name="J" unicode="J" horiz-adv-x="1138" 
d="M805 1229h356l-114 -725q-42 -263 -230 -402q-168 -125 -438 -125q-212 0 -383 86l100 238q133 -55 303 -55q124 0 203 76q73 73 90 190z" />
    <glyph glyph-name="K" unicode="K" horiz-adv-x="1443" 
d="M268 1229h363l-70 -441h162l381 441h405l-489 -561l323 -668h-397l-227 522h-201l-82 -522h-362z" />
    <glyph glyph-name="L" unicode="L" horiz-adv-x="1234" 
d="M475 264h680l-41 -264h-1040l194 1229h361z" />
    <glyph glyph-name="M" unicode="M" horiz-adv-x="1863" 
d="M268 1229h510l160 -879l424 879h524l-194 -1229h-346l139 819h-21l-403 -819h-369l-155 819h-21l-119 -819h-323z" />
    <glyph glyph-name="N" unicode="N" horiz-adv-x="1462" 
d="M1145 1229h340l-195 -1229h-321l-443 739l-112 -739h-340l194 1229h320l444 -727z" />
    <glyph glyph-name="O" unicode="O" horiz-adv-x="1486" 
d="M1063 899q-75 90 -211 90q-141 0 -238 -90q-72 -64 -106.5 -168.5t-34.5 -222.5q0 -105 39 -166q67 -102 221 -102q157 0 256 106q61 65 92 163t31 204q0 120 -49 186zM109 489q0 166 69 322.5t199 263.5q211 176 518 176q137 0 253.5 -43.5t194.5 -122.5
q130 -133 130 -350q0 -156 -59 -305t-173 -252q-220 -201 -549 -201q-147 0 -266 42.5t-195 123.5q-122 135 -122 346z" />
    <glyph glyph-name="P" unicode="P" horiz-adv-x="1337" 
d="M268 1229h619q107 0 199.5 -31.5t154.5 -91.5q102 -99 102 -254q0 -109 -44 -212.5t-128 -174.5q-180 -154 -450 -154h-240l-49 -311h-358zM584 965l-62 -390h207q104 0 168 52q82 67 82 190q0 55 -31 94q-45 54 -143 54h-221z" />
    <glyph glyph-name="Q" unicode="Q" horiz-adv-x="1497" 
d="M1337 61v-215q-104 -36 -227 -36q-82 0 -145 32q-85 43 -138 125l-12 21q-79 -11 -133 -11q-244 0 -406 134q-73 68 -115 169.5t-42 223.5q0 172 79 331t224 263q105 78 222 115.5t282 37.5q245 0 399 -139q164 -148 164 -393q0 -197 -94 -363q-86 -151 -238 -250l17 -16
q16 -19 40 -27q19 -8 56 -8q26 0 67 6zM991 334q67 63 101 163.5t34 209.5q0 130 -59 200q-66 82 -205 82q-138 0 -239 -94q-70 -68 -106 -170t-36 -215q0 -100 37 -162q73 -108 227 -108q145 0 246 94z" />
    <glyph glyph-name="R" unicode="R" horiz-adv-x="1349" 
d="M268 1229h627q247 0 369 -131q86 -92 86 -236q0 -154 -84 -276q-83 -119 -232 -183l180 -403h-378l-125 342h-224l-53 -342h-360zM586 965l-56 -357h232q89 0 147 49q76 66 76 174q0 68 -39 101q-41 33 -108 33h-252z" />
    <glyph glyph-name="S" unicode="S" horiz-adv-x="1357" 
d="M1337 1155l-123 -252q-221 74 -417 74q-145 0 -215 -25q-34 -12 -48 -28.5t-14 -42.5q0 -34 24.5 -51.5t86.5 -26.5l313 -43q203 -30 287 -129q69 -82 69 -187q0 -108 -59 -204.5t-160 -155.5q-186 -107 -487 -107q-158 0 -278 21.5t-265 79.5l94 270q251 -84 473 -84
q187 0 265 47q51 28 51 74q0 33 -22.5 48.5t-77.5 23.5l-304 39q-189 24 -284 104q-90 77 -90 201q0 213 186 338q173 112 479 112q294 0 516 -96z" />
    <glyph glyph-name="T" unicode="T" horiz-adv-x="1316" 
d="M158 965l43 264h1214l-43 -264h-428l-151 -965h-361l152 965h-426z" />
    <glyph glyph-name="U" unicode="U" horiz-adv-x="1435" 
d="M268 1229h361l-111 -705q-6 -41 -6 -80q0 -88 39 -139q47 -59 156 -59q126 0 196 73q71 77 90 205l111 705h354l-108 -688q-22 -138 -82 -251t-148 -184q-160 -129 -456 -129q-262 0 -400 144q-112 115 -112 313q0 58 8 107z" />
    <glyph glyph-name="V" unicode="V" horiz-adv-x="1503" 
d="M899 0h-410l-292 1229h381l159 -893h23l457 893h380z" />
    <glyph glyph-name="W" unicode="W" horiz-adv-x="2121" 
d="M827 0h-452l-178 1229h374l82 -877h19l348 877h393l80 -877h18l349 877h356l-539 -1229h-469l-57 756h-23z" />
    <glyph glyph-name="X" unicode="X" horiz-adv-x="1488" 
d="M623 1229l202 -402l308 402h405l-506 -619l357 -610h-410l-225 444l-334 -444h-416l547 655l-332 574h404z" />
    <glyph glyph-name="Y" unicode="Y" horiz-adv-x="1503" 
d="M883 0h-359l47 295l-374 934h393l196 -629h13l393 629h405l-667 -930z" />
    <glyph glyph-name="Z" unicode="Z" horiz-adv-x="1234" 
d="M1167 272l-43 -272h-1110l35 236l780 733l-215 -11h-428l43 271h1071l-34 -213l-789 -754l191 10h499z" />
    <glyph glyph-name="bracketleft" unicode="[" horiz-adv-x="598" 
d="M541 1149l-166 -1049h143l-37 -235h-430l240 1519h430l-37 -235h-143z" />
    <glyph glyph-name="backslash" unicode="\" horiz-adv-x="716" 
d="M408 1309l272 -1317l-277 -68l-270 1315z" />
    <glyph glyph-name="bracketright" unicode="]" horiz-adv-x="598" 
d="M154 100l165 1049h-143l37 235h430l-240 -1519h-428l37 235h142z" />
    <glyph glyph-name="asciicircum" unicode="^" horiz-adv-x="831" 
d="M827 862l-155 -117l-174 209l-260 -209l-119 117l381 389h69z" />
    <glyph glyph-name="underscore" unicode="_" horiz-adv-x="710" 
d="M27 -16h669l-34 -226h-668z" />
    <glyph glyph-name="grave" unicode="`" horiz-adv-x="514" 
d="M508 1505l70 -334l-185 -57l-119 322z" />
    <glyph glyph-name="a" unicode="a" horiz-adv-x="1368" 
d="M1348 1024l-115 -725q-10 -72 -10 -117q0 -62 18 -139l-221 -55q-65 35 -92 102q-77 -59 -159 -83.5t-196 -24.5q-262 0 -387 153q-84 104 -84 268q0 141 56 273.5t164 222.5q173 143 430 143q164 0 290 -90l52 72h254zM895 307l68 420q-94 61 -218 61q-109 0 -184 -63
q-55 -45 -85 -117t-30 -153q0 -87 48 -144q55 -67 182 -67q65 0 114.5 14.5t104.5 48.5z" />
    <glyph glyph-name="b" unicode="b" horiz-adv-x="1349" 
d="M281 1331h337l-55 -344q127 55 271 55q272 0 397 -153q84 -104 84 -268q0 -142 -55.5 -274t-163.5 -222q-173 -143 -430 -143q-191 0 -291 90l-56 -72h-249zM522 725l-65 -420q94 -61 217 -61q109 0 184 63q54 45 84.5 118.5t30.5 152.5q0 87 -47 143q-58 67 -183 67
q-65 0 -115 -14.5t-106 -48.5z" />
    <glyph glyph-name="c" unicode="c" horiz-adv-x="1173" 
d="M1202 963l-115 -218q-99 27 -163 36.5t-140 9.5q-145 0 -243 -95q-92 -89 -92 -231q0 -79 38 -131q59 -88 211 -88q147 0 320 49l43 -232q-206 -81 -436 -81q-280 0 -406 135q-117 123 -117 305q0 282 209 459q194 161 482 161q230 0 409 -79z" />
    <glyph glyph-name="d" unicode="d" horiz-adv-x="1349" 
d="M893 82q-76 -56 -152 -78t-176 -22q-250 0 -377 143q-96 110 -96 283q0 134 50.5 262t152.5 219q176 153 446 153q146 0 250 -55l56 344h337l-210 -1331h-242zM885 305l65 420q-80 63 -205 63q-124 0 -200 -67q-52 -44 -80.5 -114.5t-28.5 -151.5q0 -92 47 -148
q57 -63 164 -63q125 0 238 61z" />
    <glyph glyph-name="e" unicode="e" horiz-adv-x="1275" 
d="M1067 279l29 -218q-194 -79 -463 -79q-136 0 -245 36t-169 101q-115 124 -115 305q0 139 59.5 268.5t170.5 214.5q83 65 205 100t252 35q225 0 350 -92q114 -82 114 -233q0 -180 -149 -268q-153 -89 -537 -89q-57 0 -118 7q0 -75 69 -107q57 -29 170 -29q178 0 377 48z
M479 598q213 0 312 12q80 10 108.5 29.5t28.5 50.5q0 40 -33 66q-45 37 -152 37q-106 0 -170 -45q-34 -22 -60.5 -61.5t-33.5 -88.5z" />
    <glyph glyph-name="f" unicode="f" horiz-adv-x="946" 
d="M170 993l166 19l6 45q14 96 68 175.5t133 133.5q125 86 307 86q229 0 395 -125l-143 -186q-71 30 -121.5 41.5t-110.5 11.5q-98 0 -141 -43q-39 -43 -49 -107l-2 -20h328l-39 -236l-330 -14l-123 -774h-340l123 770h-162z" />
    <glyph glyph-name="g" unicode="g" horiz-adv-x="1349" 
d="M1106 1024h237l-145 -907q-46 -282 -225 -418q-158 -119 -424 -119q-145 0 -256.5 27t-229.5 88l115 227q200 -74 389 -74q133 0 205 54q66 48 76 112l4 29q-122 -61 -272 -61q-273 0 -398 153q-84 104 -84 268q0 142 55.5 274t163.5 222q173 143 410 143q199 0 311 -98z
M891 299l65 424q-81 57 -213 57q-113 0 -188 -63q-54 -45 -84.5 -118.5t-30.5 -152.5q0 -87 47 -143q58 -67 183 -67q65 0 115 14.5t106 48.5z" />
    <glyph glyph-name="h" unicode="h" horiz-adv-x="1331" 
d="M281 1331h340l-58 -364q129 75 285 75q114 0 191.5 -25.5t131.5 -80.5q95 -95 95 -254q0 -46 -9 -98l-92 -584h-340l88 563q7 40 7 62q0 67 -33 106q-42 51 -137 51q-120 0 -228 -65l-112 -717h-340z" />
    <glyph glyph-name="i" unicode="i" horiz-adv-x="612" 
d="M164 1024h448l-161 -1024h-338l125 786l-109 21zM514 1477q86 0 133 -41.5t47 -104.5q0 -79 -65 -137.5t-168 -58.5q-83 0 -130.5 41t-47.5 104q0 79 65.5 138t165.5 59z" />
    <glyph glyph-name="j" unicode="j" horiz-adv-x="612" 
d="M125 807l35 217h448l-162 -1022q-36 -209 -163 -313q-133 -109 -357 -109q-115 0 -191.5 21t-168.5 71l123 228q73 -32 127.5 -43t126.5 -11q74 0 116 45q41 41 50 111l124 784zM510 1477q86 0 133 -41.5t47 -104.5q0 -79 -65 -137.5t-168 -58.5q-83 0 -130.5 41
t-47.5 104q0 79 65.5 138t165.5 59z" />
    <glyph glyph-name="k" unicode="k" 
d="M281 1331h337l-104 -657h150l288 350h389l-399 -471l248 -553h-367l-178 420h-172l-65 -420h-338z" />
    <glyph glyph-name="l" unicode="l" horiz-adv-x="612" 
d="M164 1120l35 211h448l-211 -1331h-338l172 1094z" />
    <glyph glyph-name="m" unicode="m" horiz-adv-x="1992" 
d="M244 1024h237l41 -78q129 96 295 96q123 0 191 -24q68 -21 139 -86q80 59 167.5 84.5t207.5 25.5q205 0 309 -98q106 -95 106 -264q0 -45 -10 -117l-90 -563h-338l94 584q4 40 4 55q0 72 -34 109q-38 38 -123 38q-59 0 -103 -15.5t-96 -55.5q2 -23 2 -60q0 -43 -8 -92
l-90 -563h-340l94 584q4 36 4 53q0 60 -22 94q-39 55 -146 55q-105 0 -203 -67l-114 -719h-338z" />
    <glyph glyph-name="n" unicode="n" horiz-adv-x="1331" 
d="M244 1024h237l41 -78q64 42 149 69t173 27q234 0 340 -106q94 -94 94 -256q0 -49 -8 -96l-94 -584h-340l90 563q6 35 6 62q0 71 -33 110q-42 51 -137 51q-119 0 -227 -65l-115 -721h-340z" />
    <glyph glyph-name="o" unicode="o" horiz-adv-x="1280" 
d="M772 1042q238 0 373 -120q131 -115 131 -322q0 -142 -57.5 -265.5t-171.5 -213.5q-86 -67 -201 -103t-242 -36q-228 0 -360 114q-142 119 -142 332q0 136 51.5 251t145.5 198q89 80 211.5 122.5t261.5 42.5zM733 788q-131 0 -207 -86q-80 -92 -80 -256q0 -104 52 -159
q51 -51 147 -51q118 0 186 65q103 95 103 277q0 106 -55 161q-52 49 -146 49z" />
    <glyph glyph-name="p" unicode="p" horiz-adv-x="1339" 
d="M256 1024h242l39 -72q74 49 150.5 69.5t172.5 20.5q237 0 361 -127q108 -108 108 -292q0 -135 -51.5 -266t-153.5 -222q-176 -153 -442 -153q-133 0 -246 55l-53 -344h-338zM545 723l-66 -420q72 -59 205 -59q116 0 188 63q53 45 83 117.5t30 150.5q0 93 -47 146
q-60 67 -168 67q-64 0 -115 -15t-110 -50z" />
    <glyph glyph-name="q" unicode="q" horiz-adv-x="1349" 
d="M1360 1024l-211 -1331h-338l53 344q-124 -55 -268 -55q-272 0 -397 153q-86 106 -86 266q0 140 57 274.5t164 223.5q173 143 430 143q191 0 291 -90l63 72h242zM907 307l68 420q-94 61 -219 61q-107 0 -185 -63q-54 -46 -83 -117.5t-29 -150.5q0 -92 45 -146
q58 -67 182 -67q120 0 221 63z" />
    <glyph glyph-name="r" unicode="r" horiz-adv-x="1175" 
d="M244 1024h237l41 -78q125 96 299 96q123 0 211 -28t185 -103l-187 -227q-129 100 -270 100q-121 0 -228 -67l-114 -717h-338z" />
    <glyph glyph-name="s" unicode="s" horiz-adv-x="1202" 
d="M1190 946l-115 -217q-199 62 -379 62q-123 0 -174 -19q-47 -17 -47 -53q0 -19 12 -31q14 -14 54 -18l272 -21q177 -14 258 -82q78 -65 78 -172q0 -91 -47.5 -175.5t-128.5 -135.5q-161 -102 -463 -102q-253 0 -463 100l113 231q174 -77 370 -77q160 0 224 26
q21 7 39 24.5t18 41.5q0 20 -12 32q-22 19 -82 23l-271 20q-171 12 -249 99q-58 61 -58 155q0 95 54 177.5t145 132.5q138 75 397 75q231 0 455 -96z" />
    <glyph glyph-name="t" unicode="t" horiz-adv-x="1011" 
d="M113 770l34 223l175 23l98 250h272l-37 -242h389l-36 -231l-394 -19l-61 -391q-2 -10 -2 -29q0 -50 32.5 -77t88.5 -27q126 0 272 51l43 -205q-96 -61 -199.5 -87.5t-238.5 -26.5q-213 0 -295 114q-51 66 -51 178q0 49 8 93l63 403h-161z" />
    <glyph glyph-name="u" unicode="u" horiz-adv-x="1329" 
d="M233 1024h340l-88 -563q-6 -38 -6 -66q0 -64 31 -106q45 -51 135 -51q121 0 229 65l113 721h340l-162 -1024h-237l-41 78q-64 -42 -149 -69t-173 -27q-235 0 -338 106q-94 94 -94 254q0 51 8 98z" />
    <glyph glyph-name="v" unicode="v" horiz-adv-x="1351" 
d="M438 0l-266 1024h365l139 -731h20l357 731h368l-592 -1024h-391z" />
    <glyph glyph-name="w" unicode="w" horiz-adv-x="1912" 
d="M303 0l-131 1024h350l62 -705h10l291 705h387l88 -705h10l266 705h346l-454 -1024h-430l-80 641h-8l-265 -641h-442z" />
    <glyph glyph-name="x" unicode="x" horiz-adv-x="1323" 
d="M391 0h-379l422 557l-241 467h385l145 -346h20l238 346h381l-393 -508l262 -516h-387l-162 387h-20z" />
    <glyph glyph-name="y" unicode="y" horiz-adv-x="1331" 
d="M459 0l-297 1024h362l168 -739h15l354 739h375l-645 -1137q-67 -121 -179 -190q-91 -55 -213 -55q-107 0 -192 39l61 213q80 -13 125 -13q42 0 72 23q36 29 53 73l10 23h-69z" />
    <glyph glyph-name="z" unicode="z" horiz-adv-x="1140" 
d="M166 762l43 262h981l-29 -197l-626 -565h534l-41 -262h-997l39 217l610 545h-514z" />
    <glyph glyph-name="braceleft" unicode="{" horiz-adv-x="636" 
d="M778 1384l-35 -221h-90q-58 0 -67 -61l-49 -311q-10 -64 -38 -105t-77 -72v-8q61 -43 61 -133q0 -15 -4 -43l-49 -303q-2 -12 -2 -23q0 -45 49 -45h90l-35 -221h-147q-110 0 -178 59.5t-68 165.5q0 36 4 56l50 313q2 12 2 21q0 49 -45 49h-66l35 221h65q21 0 40.5 16
t23.5 41l51 322q21 133 113.5 207.5t218.5 74.5h147z" />
    <glyph glyph-name="bar" unicode="|" horiz-adv-x="440" 
d="M293 1331h194l-260 -1638h-194z" />
    <glyph glyph-name="braceright" unicode="}" horiz-adv-x="636" 
d="M199 1384h147q110 0 178 -59.5t68 -165.5q0 -35 -4 -55l-49 -311q-2 -12 -2 -21q0 -24 13.5 -37.5t33.5 -13.5h65l-35 -221h-65q-26 0 -43.5 -16t-22.5 -42l-51 -321q-21 -133 -113.5 -208t-218.5 -75h-145l35 221h88q58 0 67 62l50 311q16 111 106 174l2 12
q-55 46 -55 130q0 17 4 45l47 297q4 24 4 28q0 45 -49 45h-90z" />
    <glyph glyph-name="asciitilde" unicode="~" horiz-adv-x="884" 
d="M473 504q-10 4 -28 10.5t-27.5 9.5t-23.5 6.5t-28.5 5t-31.5 1.5q-81 0 -135 -35l-70 178q106 82 223 82q79 0 158 -31q84 -31 156 -31q68 0 133 37l55 -182q-109 -82 -225 -82q-80 0 -156 31z" />
    <glyph glyph-name="exclamdown" unicode="&#xa1;" horiz-adv-x="530" 
d="M326 -102h-297l45 288l125 639h247l-75 -639zM338 915q-71 0 -111.5 37.5t-40.5 96.5q0 83 57.5 137.5t145.5 54.5q71 0 110.5 -35t39.5 -96q0 -80 -56.5 -137.5t-144.5 -57.5z" />
    <glyph glyph-name="cent" unicode="&#xa2;" horiz-adv-x="1173" 
d="M692 1174h254l-16 -140q145 -15 274 -71l-114 -218q-168 46 -306 46q-137 0 -221 -66q-53 -44 -83.5 -113t-30.5 -143q0 -83 38 -135q62 -88 211 -88q147 0 320 49l43 -232q-145 -58 -295 -73l-33 -162h-256l19 164q-187 24 -277 125q-115 124 -115 301q0 270 189 446
q150 138 366 168z" />
    <glyph glyph-name="currency" unicode="&#xa4;" horiz-adv-x="952" 
d="M334 979l76 -88q78 33 163 33q84 0 148 -33l104 86l119 -135l-92 -82q18 -49 18 -107q0 -117 -69 -223l63 -82l-159 -141l-76 90q-78 -33 -160 -33q-85 0 -156 31l-104 -90l-113 143l92 82q-20 47 -20 107q0 118 72 223l-66 80zM537 725q-59 0 -107.5 -39t-48.5 -117
q0 -53 33.5 -80.5t79.5 -27.5q67 0 110 45.5t43 116.5q0 50 -31.5 76t-78.5 26z" />
    <glyph glyph-name="yen" unicode="&#xa5;" horiz-adv-x="1503" 
d="M338 582l115 10l-256 637h393l205 -623h12l399 623h391l-456 -637l121 -10l-27 -164h-924zM301 356h924l-25 -163l-289 -13l-28 -180h-359l29 182l-277 11z" />
    <glyph glyph-name="brokenbar" unicode="&#xa6;" horiz-adv-x="440" 
d="M293 1331h194l-125 -778h-194zM156 471h194l-123 -778h-194z" />
    <glyph glyph-name="section" unicode="&#xa7;" horiz-adv-x="1069" 
d="M1069 1229l-104 -199q-88 28 -145 38.5t-132 10.5q-101 0 -141 -18q-35 -15 -35 -53q0 -31 51 -43l228 -47q130 -27 200 -109q53 -63 53 -145q0 -94 -53 -183q-38 -62 -100 -106q37 -43 37 -121q0 -158 -160 -270q-120 -84 -317 -84q-108 0 -195.5 21t-179.5 75l114 201
q129 -50 299 -50q63 0 99 21q28 20 28 53q0 40 -67 51l-133 23q-180 29 -258 125q-47 60 -47 141q0 111 59 199q40 59 102 92q-41 52 -41 115q0 90 45.5 165t129.5 119q116 62 299 62q221 0 364 -84zM465 733q-15 -15 -27 -33q-20 -40 -20 -73q0 -36 18 -54q18 -20 64 -30
l143 -25q37 -7 57 -16q20 24 29 47q10 30 10 59q0 28 -16 47q-21 27 -84 39l-121 25q-38 9 -53 14z" />
    <glyph glyph-name="dieresis" unicode="&#xa8;" horiz-adv-x="882" 
d="M459 1413q66 0 100.5 -32.5t34.5 -86.5q0 -71 -51 -120.5t-131 -49.5q-61 0 -95 32t-34 83q0 75 49 124.5t127 49.5zM870 1413q66 0 101 -32.5t35 -86.5q0 -71 -51.5 -120.5t-131.5 -49.5q-61 0 -95 32t-34 83q0 75 49 124.5t127 49.5z" />
    <glyph glyph-name="copyright" unicode="&#xa9;" horiz-adv-x="1400" 
d="M1018 840l-80 -150q-83 25 -160 25q-56 0 -90 -27q-49 -40 -49 -119q0 -40 18 -61q28 -31 84 -31q72 0 168 31l31 -156q-69 -32 -118 -42.5t-109 -10.5q-134 0 -211 74q-68 68 -68 170q0 77 33.5 148t95.5 120q102 82 244 82q56 0 101.5 -11t109.5 -42zM1155 676
q0 154 -74 233q-87 90 -270 90q-177 0 -301 -100q-83 -67 -130.5 -167.5t-47.5 -211.5q0 -132 80 -221q97 -111 270 -111q207 0 322 109q72 70 111.5 170t39.5 209zM649 -18q-148 0 -264 54.5t-186 153.5q-93 134 -93 302q0 151 66.5 295.5t185.5 244.5q95 81 220.5 125.5
t265.5 44.5q272 0 422 -162q116 -129 116 -331q0 -165 -68 -319.5t-198 -256.5q-193 -151 -467 -151z" />
    <glyph glyph-name="ordfeminine" unicode="&#xaa;" horiz-adv-x="751" 
d="M621 1247h135l-62 -383q-4 -36 -4 -49q0 -37 17 -78l-125 -59q-32 18 -45 45q-91 -45 -166 -45q-116 0 -176 55q-66 57 -66 164q0 80 29 157t92 130q83 71 221 71q72 0 119 -41zM541 1083q-38 17 -86 17q-38 0 -80 -33q-24 -21 -37.5 -57.5t-13.5 -73.5q0 -42 18 -66
q24 -34 80 -34q45 0 84 20z" />
    <glyph glyph-name="guillemotleft" unicode="&#xab;" horiz-adv-x="870" 
d="M96 584l13 69l340 299l98 -94l-203 -248l127 -221l-127 -94zM666 295l-248 289l12 69l340 299l98 -94l-202 -248l127 -221z" />
    <glyph glyph-name="logicalnot" unicode="&#xac;" horiz-adv-x="792" 
d="M520 414l19 192h-433l39 252h670l-70 -444h-225z" />
    <glyph glyph-name="uni00AD" unicode="&#xad;" horiz-adv-x="710" 
d="M135 664h567l-38 -252h-568z" />
    <glyph glyph-name="registered" unicode="&#xae;" horiz-adv-x="845" 
d="M436 541q-147 0 -233 92q-68 74 -68 192q0 91 38.5 176t109.5 144q114 96 264 96q146 0 229 -92q74 -77 74 -193q0 -84 -34.5 -165t-98.5 -140q-116 -110 -281 -110zM635 729q42 39 66 93.5t24 115.5q0 73 -39 121q-52 65 -158 65q-103 0 -174 -59q-44 -38 -69 -96
t-25 -121q0 -64 33 -115q51 -74 162 -74q103 0 180 70zM387 1063h148q63 0 92 -29q28 -28 28 -73q0 -77 -69 -117l32 -113h-108l-21 86h-45l-12 -86h-96zM469 971l-10 -62h53q18 0 29 11q10 10 10 24q0 16 -8 21q-6 6 -21 6h-53z" />
    <glyph glyph-name="macron" unicode="&#xaf;" horiz-adv-x="833" 
d="M254 1325h670l-29 -186h-670z" />
    <glyph glyph-name="degree" unicode="&#xb0;" horiz-adv-x="735" 
d="M391 614q-118 0 -195 73.5t-77 176.5q0 165 107 264t263 99q119 0 195 -69.5t76 -184.5q0 -165 -105 -262t-264 -97zM420 809q60 0 99.5 35t39.5 102q0 42 -27 66t-75 24q-56 0 -98 -32.5t-42 -96.5q0 -44 27.5 -71t75.5 -27z" />
    <glyph glyph-name="plusminus" unicode="&#xb1;" horiz-adv-x="854" 
d="M113 406h649l-37 -232h-649zM156 934h247l37 240h232l-37 -240h252l-37 -232h-252l-39 -239h-231l39 239h-248z" />
    <glyph glyph-name="twosuperior" unicode="&#xb2;" horiz-adv-x="610" 
d="M391 825h201l-23 -133h-465l21 119l281 176q73 47 73 94q0 23 -20 33q-18 10 -53 10q-59 0 -100 -10t-105 -41l-39 115q131 72 264 72q83 0 143 -29q70 -41 70 -125q0 -64 -39 -119q-38 -56 -123 -108z" />
    <glyph glyph-name="threesuperior" unicode="&#xb3;" horiz-adv-x="614" 
d="M629 1124q0 -66 -47 -104q45 -39 45 -107q0 -46 -22 -89t-60 -74q-82 -68 -215 -68q-74 0 -124 16t-112 64l78 106q46 -28 85.5 -39.5t92.5 -11.5q55 0 88 21q31 21 31 55q0 33 -47 33h-186l18 125h176q18 0 29.5 9.5t11.5 26.5q0 39 -74 39q-88 0 -184 -39l-31 109
q68 37 122 50.5t120 13.5q84 0 144.5 -33t60.5 -103z" />
    <glyph glyph-name="acute" unicode="&#xb4;" horiz-adv-x="514" 
d="M252 1196l168 309l219 -108l-205 -287z" />
    <glyph glyph-name="mu" unicode="&#xb5;" horiz-adv-x="1325" 
d="M1171 0h-235l-41 78q-54 -42 -132.5 -68t-150.5 -26q-78 0 -123 16q-47 15 -75 51l-8 -4v-266l-50 -41h-305l195 1239l51 45h295l-92 -575q-4 -32 -4 -48q0 -72 39 -114q44 -47 127 -47q117 0 223 92l110 692h338z" />
    <glyph glyph-name="paragraph" unicode="&#xb6;" horiz-adv-x="989" 
d="M997 1229l7 -82l-119 -21l-49 -4v-993q0 -181 -25 -303l-6 -29l-64 -20l-26 14v1325h-109v-1061q0 -199 -24 -303l-7 -28l-63 -21l-27 14v813q-151 0 -247 93q-101 98 -101 258q0 149 92 247q98 101 256 101h512z" />
    <glyph glyph-name="periodcentered" unicode="&#xb7;" horiz-adv-x="530" 
d="M352 799q71 0 110.5 -37t39.5 -96q0 -84 -56 -138.5t-145 -54.5q-71 0 -110 36t-39 97q0 80 56 136.5t144 56.5z" />
    <glyph glyph-name="cedilla" unicode="&#xb8;" horiz-adv-x="505" 
d="M197 31h153l-20 -101q62 0 101.5 -30.5t39.5 -89.5q0 -110 -100 -177q-96 -65 -271 -94l-16 113q93 25 143 61q47 32 47 76q0 29 -41 29h-49l-18 18z" />
    <glyph glyph-name="onesuperior" unicode="&#xb9;" horiz-adv-x="458" 
d="M225 817l41 254l-84 -12l-14 112l205 89l80 -15l-68 -428l61 -14l-18 -111h-307l18 111z" />
    <glyph glyph-name="ordmasculine" unicode="&#xba;" horiz-adv-x="589" 
d="M420 1124q-55 0 -92 -43q-47 -55 -47 -161q0 -49 18 -72q21 -31 72 -31q48 0 82 31q59 59 59 180q0 46 -23 72q-21 24 -69 24zM670 1042q0 -97 -40 -184t-120 -135q-66 -41 -160 -41q-92 0 -145 39q-84 63 -84 182q0 97 41 183.5t123 136.5q62 37 155 37q98 0 148 -39
q82 -60 82 -179z" />
    <glyph glyph-name="guillemotright" unicode="&#xbb;" horiz-adv-x="870" 
d="M858 664l-12 -70l-340 -299l-98 94l202 250l-127 219l127 94zM289 952l248 -288l-13 -70l-340 -299l-98 94l203 250l-127 219z" />
    <glyph glyph-name="questiondown" unicode="&#xbf;" horiz-adv-x="1273" 
d="M946 868l-18 -110q-22 -131 -91 -204t-204 -108l-55 -14q-5 -1 -18.5 -4t-18.5 -4.5t-16.5 -4.5t-17 -4.5t-14.5 -4.5t-15 -6t-12.5 -7t-12.5 -8q-58 -39 -58 -123q0 -43 29 -69q51 -43 215 -43q219 0 444 125l99 -226q-159 -88 -297 -127t-295 -39q-132 0 -257 29.5
t-204 97.5q-90 77 -90 209q0 162 94 273q104 119 311 172l111 28q75 19 84 86l14 86h293zM803 920q-71 0 -110.5 37t-39.5 96q0 79 55 135.5t146 56.5q71 0 110.5 -36t39.5 -97q0 -80 -56.5 -136t-144.5 -56z" />
    <glyph glyph-name="Agrave" unicode="&#xc0;" horiz-adv-x="1562" 
d="M743 1229h369l350 -1229h-368l-39 162h-590l-94 -162h-367zM866 901l-245 -471h362l-94 471h-23zM993 1710l84 -346l-209 -61l-120 325z" />
    <glyph glyph-name="Aacute" unicode="&#xc1;" horiz-adv-x="1562" 
d="M743 1229h369l350 -1229h-368l-39 162h-590l-94 -162h-367zM866 901l-245 -471h362l-94 471h-23zM846 1411l178 336l215 -125l-217 -307z" />
    <glyph glyph-name="Acircumflex" unicode="&#xc2;" horiz-adv-x="1562" 
d="M743 1229h369l350 -1229h-368l-39 162h-590l-94 -162h-367zM866 901l-245 -471h362l-94 471h-23zM719 1296l-82 129l317 258h68l238 -258l-125 -129l-181 138z" />
    <glyph glyph-name="Atilde" unicode="&#xc3;" horiz-adv-x="1562" 
d="M743 1229h369l350 -1229h-368l-39 162h-590l-94 -162h-367zM866 901l-245 -471h362l-94 471h-23zM1303 1593l61 -143q-119 -113 -250 -113q-101 0 -188 35q-92 37 -164 37q-89 0 -152 -39l-57 146q139 106 266 106q73 0 158 -29q90 -39 180 -39q72 0 146 39z" />
    <glyph glyph-name="Adieresis" unicode="&#xc4;" horiz-adv-x="1562" 
d="M743 1229h369l350 -1229h-368l-39 162h-590l-94 -162h-367zM866 901l-245 -471h362l-94 471h-23zM768 1659q74 0 114 -36t40 -99q0 -81 -57 -139t-150 -58q-72 0 -111 37.5t-39 97.5q0 85 57.5 141t145.5 56zM1241 1659q74 0 114 -36t40 -99q0 -81 -57 -139t-150 -58
q-72 0 -111 37.5t-39 97.5q0 85 57.5 141t145.5 56z" />
    <glyph glyph-name="Aring" unicode="&#xc5;" horiz-adv-x="1562" 
d="M743 1229h369l350 -1229h-368l-39 162h-590l-94 -162h-367zM866 901l-245 -471h362l-94 471h-23zM932 1317q-115 0 -176 67q-51 54 -51 140q0 65 27.5 127t80.5 104q82 70 199 70q116 0 182 -82q43 -52 43 -133q0 -127 -90 -211q-85 -82 -215 -82zM952 1481q54 0 84 30
q33 33 33 84q0 30 -18 52q-25 22 -68 22q-50 0 -80 -27q-37 -26 -37 -81q0 -35 23 -58q25 -22 63 -22z" />
    <glyph glyph-name="AE" unicode="&#xc6;" horiz-adv-x="2162" 
d="M956 0l39 244h-481l-164 -244h-362l825 1229h1387l-43 -271h-693l-30 -194h614l-43 -264h-614l-35 -230h719l-43 -270h-1076zM965 958l-283 -454h354l72 454h-143z" />
    <glyph glyph-name="Ccedilla" unicode="&#xc7;" horiz-adv-x="1341" 
d="M1399 1143l-133 -230q-102 39 -181.5 54.5t-169.5 15.5q-85 0 -168.5 -29.5t-136.5 -79.5q-63 -58 -99 -143t-36 -182q0 -102 47 -176q37 -56 112.5 -90.5t164.5 -34.5q101 0 177.5 16.5t197.5 61.5l61 -230q-125 -63 -235 -89.5t-240 -29.5l-17 -53q87 0 134 -30
q51 -34 51 -103q0 -129 -133 -209q-120 -73 -310 -94l-16 123q123 25 182 67q51 39 51 86q0 22 -14 29q-13 8 -43 8h-57l-23 23l27 164q-228 36 -361 184q-120 133 -120 332q0 168 73 322.5t209 254.5q231 170 541 170q142 0 247 -22t218 -86z" />
    <glyph glyph-name="Egrave" unicode="&#xc8;" horiz-adv-x="1280" 
d="M74 0l194 1229h1051l-43 -271h-694l-31 -194h614l-43 -264h-614l-35 -230h719l-43 -270h-1075zM856 1710l84 -346l-209 -61l-121 325z" />
    <glyph glyph-name="Eacute" unicode="&#xc9;" horiz-adv-x="1280" 
d="M74 0l194 1229h1051l-43 -271h-694l-31 -194h614l-43 -264h-614l-35 -230h719l-43 -270h-1075zM743 1411l179 336l215 -125l-217 -307z" />
    <glyph glyph-name="Ecircumflex" unicode="&#xca;" horiz-adv-x="1280" 
d="M74 0l194 1229h1051l-43 -271h-694l-31 -194h614l-43 -264h-614l-35 -230h719l-43 -270h-1075zM623 1296l-82 129l317 258h68l237 -258l-125 -129l-180 138z" />
    <glyph glyph-name="Edieresis" unicode="&#xcb;" horiz-adv-x="1280" 
d="M74 0l194 1229h1051l-43 -271h-694l-31 -194h614l-43 -264h-614l-35 -230h719l-43 -270h-1075zM627 1659q74 0 113.5 -36t39.5 -99q0 -81 -57 -139t-150 -58q-71 0 -110 37t-39 98q0 85 57.5 141t145.5 56zM1100 1659q74 0 113.5 -36t39.5 -99q0 -82 -56.5 -139.5
t-149.5 -57.5q-72 0 -111 37.5t-39 97.5q0 85 57.5 141t145.5 56z" />
    <glyph glyph-name="Igrave" unicode="&#xcc;" horiz-adv-x="602" 
d="M268 1229h357l-195 -1229h-356zM543 1710l84 -346l-209 -61l-121 325z" />
    <glyph glyph-name="Iacute" unicode="&#xcd;" horiz-adv-x="602" 
d="M268 1229h357l-195 -1229h-356zM399 1411l179 336l215 -125l-218 -307z" />
    <glyph glyph-name="Icircumflex" unicode="&#xce;" horiz-adv-x="602" 
d="M268 1229h357l-195 -1229h-356zM279 1296l-82 129l317 258h68l237 -258l-125 -129l-180 138z" />
    <glyph glyph-name="Idieresis" unicode="&#xcf;" horiz-adv-x="602" 
d="M268 1229h357l-195 -1229h-356zM307 1659q74 0 114 -36t40 -99q0 -81 -57 -139t-150 -58q-72 0 -111 37.5t-39 97.5q0 85 57.5 141t145.5 56zM780 1659q74 0 114 -36t40 -99q0 -81 -57 -139t-150 -58q-71 0 -110 37t-39 98q0 85 57 141t145 56z" />
    <glyph glyph-name="Eth" unicode="&#xd0;" horiz-adv-x="1400" 
d="M268 1229h531q333 0 469 -148q118 -127 118 -333q0 -400 -243 -598q-93 -77 -214.5 -113.5t-289.5 -36.5h-565l82 520h-113l39 242h113zM582 961l-33 -199h246l-39 -242h-244l-39 -250h217q123 0 201 68q71 61 104 166.5t33 222.5q0 96 -41 154q-60 80 -211 80h-194z" />
    <glyph glyph-name="Ntilde" unicode="&#xd1;" horiz-adv-x="1462" 
d="M1145 1229h340l-195 -1229h-321l-443 739l-112 -739h-340l194 1229h320l444 -727zM1253 1593l62 -143q-119 -113 -250 -113q-101 0 -188 35q-92 37 -164 37q-89 0 -152 -39l-57 146q139 106 266 106q73 0 158 -29q90 -39 180 -39q71 0 145 39z" />
    <glyph glyph-name="Ograve" unicode="&#xd2;" horiz-adv-x="1486" 
d="M1063 899q-75 90 -211 90q-141 0 -238 -90q-72 -64 -106.5 -168.5t-34.5 -222.5q0 -105 39 -166q67 -102 221 -102q157 0 256 106q61 65 92 163t31 204q0 120 -49 186zM109 489q0 166 69 322.5t199 263.5q211 176 518 176q137 0 253.5 -43.5t194.5 -122.5
q130 -133 130 -350q0 -156 -59 -305t-173 -252q-220 -201 -549 -201q-147 0 -266 42.5t-195 123.5q-122 135 -122 346zM918 1710l83 -346l-208 -61l-121 325z" />
    <glyph glyph-name="Oacute" unicode="&#xd3;" horiz-adv-x="1486" 
d="M1063 899q-75 90 -211 90q-141 0 -238 -90q-72 -64 -106.5 -168.5t-34.5 -222.5q0 -105 39 -166q67 -102 221 -102q157 0 256 106q61 65 92 163t31 204q0 120 -49 186zM109 489q0 166 69 322.5t199 263.5q211 176 518 176q137 0 253.5 -43.5t194.5 -122.5
q130 -133 130 -350q0 -156 -59 -305t-173 -252q-220 -201 -549 -201q-147 0 -266 42.5t-195 123.5q-122 135 -122 346zM887 1411l178 336l215 -125l-217 -307z" />
    <glyph glyph-name="Ocircumflex" unicode="&#xd4;" horiz-adv-x="1486" 
d="M1063 899q-75 90 -211 90q-141 0 -238 -90q-72 -64 -106.5 -168.5t-34.5 -222.5q0 -105 39 -166q67 -102 221 -102q157 0 256 106q61 65 92 163t31 204q0 120 -49 186zM109 489q0 166 69 322.5t199 263.5q211 176 518 176q137 0 253.5 -43.5t194.5 -122.5
q130 -133 130 -350q0 -156 -59 -305t-173 -252q-220 -201 -549 -201q-147 0 -266 42.5t-195 123.5q-122 135 -122 346zM717 1296l-82 129l317 258h68l237 -258l-124 -129l-181 138z" />
    <glyph glyph-name="Otilde" unicode="&#xd5;" horiz-adv-x="1486" 
d="M1063 899q-75 90 -211 90q-141 0 -238 -90q-72 -64 -106.5 -168.5t-34.5 -222.5q0 -105 39 -166q67 -102 221 -102q157 0 256 106q61 65 92 163t31 204q0 120 -49 186zM109 489q0 166 69 322.5t199 263.5q211 176 518 176q137 0 253.5 -43.5t194.5 -122.5
q130 -133 130 -350q0 -156 -59 -305t-173 -252q-220 -201 -549 -201q-147 0 -266 42.5t-195 123.5q-122 135 -122 346zM1311 1593l61 -143q-119 -113 -250 -113q-101 0 -188 35q-92 37 -164 37q-89 0 -152 -39l-57 146q139 106 266 106q73 0 158 -29q90 -39 180 -39
q72 0 146 39z" />
    <glyph glyph-name="Odieresis" unicode="&#xd6;" horiz-adv-x="1486" 
d="M1063 899q-75 90 -211 90q-141 0 -238 -90q-72 -64 -106.5 -168.5t-34.5 -222.5q0 -105 39 -166q67 -102 221 -102q157 0 256 106q61 65 92 163t31 204q0 120 -49 186zM109 489q0 166 69 322.5t199 263.5q211 176 518 176q137 0 253.5 -43.5t194.5 -122.5
q130 -133 130 -350q0 -156 -59 -305t-173 -252q-220 -201 -549 -201q-147 0 -266 42.5t-195 123.5q-122 135 -122 346zM760 1659q74 0 113.5 -36t39.5 -99q0 -82 -56.5 -139.5t-149.5 -57.5q-72 0 -111 37.5t-39 97.5q0 85 57.5 141t145.5 56zM1233 1659q74 0 113.5 -36
t39.5 -99q0 -82 -56.5 -139.5t-149.5 -57.5q-72 0 -111 37.5t-39 97.5q0 85 57.5 141t145.5 56z" />
    <glyph glyph-name="multiply" unicode="&#xd7;" horiz-adv-x="880" 
d="M111 426l194 168l-139 170l205 178l141 -170l199 170l151 -178l-200 -170l143 -170l-205 -178l-143 170l-195 -168z" />
    <glyph glyph-name="Oslash" unicode="&#xd8;" horiz-adv-x="1486" 
d="M1178 1309l215 -144l-60 -73q140 -140 140 -363q0 -156 -58 -305t-172 -250q-215 -197 -551 -197q-124 0 -233 31l-64 -78l-213 146l56 67q-127 136 -127 357q0 163 68.5 316t195.5 259q214 176 518 176q114 0 213 -30zM1102 807l-451 -559q33 -8 82 -8q155 0 254 106
q63 67 94 165t31 204q0 44 -10 92zM475 438l440 545q-30 6 -63 6q-141 0 -238 -90q-74 -65 -109.5 -171t-35.5 -222q0 -33 6 -68z" />
    <glyph glyph-name="Ugrave" unicode="&#xd9;" horiz-adv-x="1435" 
d="M268 1229h361l-111 -705q-6 -41 -6 -80q0 -88 39 -139q47 -59 156 -59q126 0 196 73q71 77 90 205l111 705h354l-108 -688q-22 -138 -82 -251t-148 -184q-160 -129 -456 -129q-262 0 -400 144q-112 115 -112 313q0 58 8 107zM932 1710l84 -346l-209 -61l-121 325z" />
    <glyph glyph-name="Uacute" unicode="&#xda;" horiz-adv-x="1435" 
d="M268 1229h361l-111 -705q-6 -41 -6 -80q0 -88 39 -139q47 -59 156 -59q126 0 196 73q71 77 90 205l111 705h354l-108 -688q-22 -138 -82 -251t-148 -184q-160 -129 -456 -129q-262 0 -400 144q-112 115 -112 313q0 58 8 107zM764 1411l178 336l215 -125l-217 -307z" />
    <glyph glyph-name="Ucircumflex" unicode="&#xdb;" horiz-adv-x="1435" 
d="M268 1229h361l-111 -705q-6 -41 -6 -80q0 -88 39 -139q47 -59 156 -59q126 0 196 73q71 77 90 205l111 705h354l-108 -688q-22 -138 -82 -251t-148 -184q-160 -129 -456 -129q-262 0 -400 144q-112 115 -112 313q0 58 8 107zM676 1296l-82 129l317 258h68l238 -258
l-125 -129l-181 138z" />
    <glyph glyph-name="Udieresis" unicode="&#xdc;" horiz-adv-x="1435" 
d="M268 1229h361l-111 -705q-6 -41 -6 -80q0 -88 39 -139q47 -59 156 -59q126 0 196 73q71 77 90 205l111 705h354l-108 -688q-22 -138 -82 -251t-148 -184q-160 -129 -456 -129q-262 0 -400 144q-112 115 -112 313q0 58 8 107zM705 1659q74 0 113.5 -36t39.5 -99
q0 -81 -57 -139t-150 -58q-71 0 -110 37t-39 98q0 85 57.5 141t145.5 56zM1178 1659q74 0 113.5 -36t39.5 -99q0 -81 -57 -139t-150 -58q-71 0 -110 37t-39 98q0 85 57.5 141t145.5 56z" />
    <glyph glyph-name="Yacute" unicode="&#xdd;" horiz-adv-x="1503" 
d="M883 0h-359l47 295l-374 934h393l196 -629h13l393 629h405l-667 -930zM819 1411l178 336l215 -125l-217 -307z" />
    <glyph glyph-name="Thorn" unicode="&#xde;" horiz-adv-x="1280" 
d="M270 1251h357l-21 -135h158q235 0 369 -110q131 -106 131 -293q0 -271 -164 -422q-176 -162 -494 -162h-157l-21 -129h-356zM561 856l-72 -459h166q114 0 185 78q71 84 71 209q0 64 -30 107q-46 65 -154 65h-166z" />
    <glyph glyph-name="germandbls" unicode="&#xdf;" horiz-adv-x="1423" 
d="M66 0l151 952q36 229 186 355q152 127 396 127q213 0 327 -84q97 -75 97 -211q0 -109 -64 -181q-41 -46 -112 -79l-111 -52q-55 -24 -55 -65q0 -17 18 -29q6 -4 13.5 -7t19.5 -6t20 -4.5t27 -5t29 -5.5l84 -17q128 -26 200 -106q62 -72 62 -174t-46 -193.5t-134 -146.5
q-133 -86 -347 -86t-374 102l125 221q85 -38 150 -52.5t140 -14.5q90 0 133 30q48 33 48 94q0 39 -41 60q-39 20 -107 33l-123 24q-130 24 -184 105q-31 48 -31 112q0 106 64 185q44 50 129 94l94 49q34 18 46.5 38t12.5 52q0 31 -22 45q-39 27 -117 27q-102 0 -149 -47
q-46 -46 -60 -144l-158 -995h-337z" />
    <glyph glyph-name="agrave" unicode="&#xe0;" horiz-adv-x="1368" 
d="M1348 1024l-115 -725q-10 -72 -10 -117q0 -62 18 -139l-221 -55q-65 35 -92 102q-77 -59 -159 -83.5t-196 -24.5q-262 0 -387 153q-84 104 -84 268q0 141 56 273.5t164 222.5q173 143 430 143q164 0 290 -90l52 72h254zM895 307l68 420q-94 61 -218 61q-109 0 -184 -63
q-55 -45 -85 -117t-30 -153q0 -87 48 -144q55 -67 182 -67q65 0 114.5 14.5t104.5 48.5zM850 1505l70 -334l-185 -57l-119 322z" />
    <glyph glyph-name="aacute" unicode="&#xe1;" horiz-adv-x="1368" 
d="M1348 1024l-115 -725q-10 -72 -10 -117q0 -62 18 -139l-221 -55q-65 35 -92 102q-77 -59 -159 -83.5t-196 -24.5q-262 0 -387 153q-84 104 -84 268q0 141 56 273.5t164 222.5q173 143 430 143q164 0 290 -90l52 72h254zM895 307l68 420q-94 61 -218 61q-109 0 -184 -63
q-55 -45 -85 -117t-30 -153q0 -87 48 -144q55 -67 182 -67q65 0 114.5 14.5t104.5 48.5zM752 1196l168 309l219 -108l-205 -287z" />
    <glyph glyph-name="acircumflex" unicode="&#xe2;" horiz-adv-x="1368" 
d="M1348 1024l-115 -725q-10 -72 -10 -117q0 -62 18 -139l-221 -55q-65 35 -92 102q-77 -59 -159 -83.5t-196 -24.5q-262 0 -387 153q-84 104 -84 268q0 141 56 273.5t164 222.5q173 143 430 143q164 0 290 -90l52 72h254zM895 307l68 420q-94 61 -218 61q-109 0 -184 -63
q-55 -45 -85 -117t-30 -153q0 -87 48 -144q55 -67 182 -67q65 0 114.5 14.5t104.5 48.5zM1112 1221l-121 -127l-176 120l-227 -120l-82 127l309 243h64z" />
    <glyph glyph-name="atilde" unicode="&#xe3;" horiz-adv-x="1368" 
d="M1348 1024l-115 -725q-10 -72 -10 -117q0 -62 18 -139l-221 -55q-65 35 -92 102q-77 -59 -159 -83.5t-196 -24.5q-262 0 -387 153q-84 104 -84 268q0 141 56 273.5t164 222.5q173 143 430 143q164 0 290 -90l52 72h254zM895 307l68 420q-94 61 -218 61q-109 0 -184 -63
q-55 -45 -85 -117t-30 -153q0 -87 48 -144q55 -67 182 -67q65 0 114.5 14.5t104.5 48.5zM827 1178q-85 32 -149 32q-82 0 -135 -34l-62 141q125 94 242 94q68 0 141 -25q78 -32 166 -32q73 0 129 32l62 -137q-102 -102 -228 -102q-90 0 -166 31z" />
    <glyph glyph-name="adieresis" unicode="&#xe4;" horiz-adv-x="1368" 
d="M1348 1024l-115 -725q-10 -72 -10 -117q0 -62 18 -139l-221 -55q-65 35 -92 102q-77 -59 -159 -83.5t-196 -24.5q-262 0 -387 153q-84 104 -84 268q0 141 56 273.5t164 222.5q173 143 430 143q164 0 290 -90l52 72h254zM895 307l68 420q-94 61 -218 61q-109 0 -184 -63
q-55 -45 -85 -117t-30 -153q0 -87 48 -144q55 -67 182 -67q65 0 114.5 14.5t104.5 48.5zM655 1413q66 0 101 -32.5t35 -86.5q0 -71 -51.5 -120.5t-131.5 -49.5q-61 0 -95 32t-34 83q0 75 49 124.5t127 49.5zM1067 1413q66 0 100.5 -32.5t34.5 -86.5q0 -71 -51 -120.5
t-131 -49.5q-61 0 -95 32t-34 83q0 75 49 124.5t127 49.5z" />
    <glyph glyph-name="aring" unicode="&#xe5;" horiz-adv-x="1368" 
d="M1348 1024l-115 -725q-10 -72 -10 -117q0 -62 18 -139l-221 -55q-65 35 -92 102q-77 -59 -159 -83.5t-196 -24.5q-262 0 -387 153q-84 104 -84 268q0 141 56 273.5t164 222.5q173 143 430 143q164 0 290 -90l52 72h254zM895 307l68 420q-94 61 -218 61q-109 0 -184 -63
q-55 -45 -85 -117t-30 -153q0 -87 48 -144q55 -67 182 -67q65 0 114.5 14.5t104.5 48.5zM821 1116q-109 0 -168 68q-43 49 -43 137q0 109 90 192q80 74 197 74q108 0 168 -80q39 -48 39 -125q0 -129 -105 -211q-73 -55 -178 -55zM844 1268q47 0 77 30q29 29 29 76
q0 34 -22.5 52t-57.5 18q-49 0 -78 -29q-28 -28 -28 -69q0 -37 21 -57.5t59 -20.5z" />
    <glyph glyph-name="ae" unicode="&#xe6;" horiz-adv-x="2009" 
d="M1817 279l28 -218q-194 -79 -463 -79q-136 0 -244.5 36t-168.5 99q-86 -68 -185 -101q-109 -34 -286 -34q-219 0 -326 84q-94 75 -94 208q0 190 145 299q153 113 414 113q119 0 235 -22q2 10 2 34q0 48 -38 68q-43 22 -187 22q-161 0 -340 -43l-22 220q130 44 234 60.5
t247 16.5q131 0 223 -32q79 -29 129 -76q81 53 191.5 80.5t228.5 27.5q225 0 350 -92q115 -83 115 -233q0 -180 -150 -268q-65 -38 -168 -59t-183 -25.5t-185 -4.5q-58 0 -119 7q0 -62 45 -93q59 -43 195 -43q178 0 377 48zM856 438q-116 17 -215 17q-111 0 -166 -37
q-49 -28 -49 -88q0 -33 25 -58q35 -32 133 -32q174 0 284 59q-16 44 -16 100q0 11 4 39zM1229 598q212 0 311 12q80 10 108.5 29.5t28.5 50.5q0 40 -32 66q-45 37 -152 37q-106 0 -170 -45q-34 -22 -60.5 -61.5t-33.5 -88.5z" />
    <glyph glyph-name="ccedilla" unicode="&#xe7;" horiz-adv-x="1173" 
d="M1202 963l-115 -218q-99 27 -163 36.5t-140 9.5q-140 0 -221 -66q-54 -43 -84 -111.5t-30 -148.5q0 -79 38 -131q59 -88 211 -88q147 0 320 49l43 -232q-190 -75 -402 -81l-10 -50q62 0 102 -30.5t40 -89.5q0 -109 -101 -177q-96 -66 -270 -94l-17 113q95 25 144 61
q47 32 47 76q0 29 -41 29h-49l-19 18l23 152q-194 21 -289 127q-117 123 -117 305q0 282 209 459q194 161 482 161q230 0 409 -79z" />
    <glyph glyph-name="egrave" unicode="&#xe8;" 
d="M1067 279l29 -218q-194 -79 -463 -79q-136 0 -245 36t-169 101q-115 124 -115 305q0 139 59.5 268.5t170.5 214.5q83 65 205 100t252 35q225 0 350 -92q114 -82 114 -233q0 -180 -149 -268q-153 -89 -537 -89q-57 0 -118 7q0 -75 69 -107q57 -29 170 -29q178 0 377 48z
M479 598q213 0 312 12q80 10 108.5 29.5t28.5 50.5q0 40 -33 66q-45 37 -152 37q-106 0 -170 -45q-34 -22 -60.5 -61.5t-33.5 -88.5zM825 1505l70 -334l-184 -57l-119 322z" />
    <glyph glyph-name="eacute" unicode="&#xe9;" 
d="M1067 279l29 -218q-194 -79 -463 -79q-136 0 -245 36t-169 101q-115 124 -115 305q0 139 59.5 268.5t170.5 214.5q83 65 205 100t252 35q225 0 350 -92q114 -82 114 -233q0 -180 -149 -268q-153 -89 -537 -89q-57 0 -118 7q0 -75 69 -107q57 -29 170 -29q178 0 377 48z
M479 598q213 0 312 12q80 10 108.5 29.5t28.5 50.5q0 40 -33 66q-45 37 -152 37q-106 0 -170 -45q-34 -22 -60.5 -61.5t-33.5 -88.5zM725 1196l168 309l219 -108l-205 -287z" />
    <glyph glyph-name="ecircumflex" unicode="&#xea;" 
d="M1067 279l29 -218q-194 -79 -463 -79q-136 0 -245 36t-169 101q-115 124 -115 305q0 139 59.5 268.5t170.5 214.5q83 65 205 100t252 35q225 0 350 -92q114 -82 114 -233q0 -180 -149 -268q-153 -89 -537 -89q-57 0 -118 7q0 -75 69 -107q57 -29 170 -29q178 0 377 48z
M479 598q213 0 312 12q80 10 108.5 29.5t28.5 50.5q0 40 -33 66q-45 37 -152 37q-106 0 -170 -45q-34 -22 -60.5 -61.5t-33.5 -88.5zM1116 1221l-121 -127l-176 120l-227 -120l-82 127l309 243h64z" />
    <glyph glyph-name="edieresis" unicode="&#xeb;" 
d="M1067 279l29 -218q-194 -79 -463 -79q-136 0 -245 36t-169 101q-115 124 -115 305q0 139 59.5 268.5t170.5 214.5q83 65 205 100t252 35q225 0 350 -92q114 -82 114 -233q0 -180 -149 -268q-153 -89 -537 -89q-57 0 -118 7q0 -75 69 -107q57 -29 170 -29q178 0 377 48z
M479 598q213 0 312 12q80 10 108.5 29.5t28.5 50.5q0 40 -33 66q-45 37 -152 37q-106 0 -170 -45q-34 -22 -60.5 -61.5t-33.5 -88.5zM659 1413q66 0 101 -32.5t35 -86.5q0 -71 -51.5 -120.5t-131.5 -49.5q-61 0 -95 32t-34 83q0 75 49 124.5t127 49.5zM1071 1413
q66 0 100.5 -32.5t34.5 -86.5q0 -71 -51 -120.5t-131 -49.5q-61 0 -95 32t-34 83q0 75 49 124.5t127 49.5z" />
    <glyph glyph-name="igrave" unicode="&#xec;" horiz-adv-x="612" 
d="M129 807l35 217h448l-161 -1024h-338l125 786zM508 1505l70 -334l-185 -57l-119 322z" />
    <glyph glyph-name="iacute" unicode="&#xed;" horiz-adv-x="612" 
d="M129 807l35 217h448l-161 -1024h-338l125 786zM356 1196l168 309l219 -108l-204 -287z" />
    <glyph glyph-name="icircumflex" unicode="&#xee;" horiz-adv-x="612" 
d="M129 807l35 217h448l-161 -1024h-338l125 786zM780 1221l-121 -127l-176 120l-227 -120l-82 127l309 243h64z" />
    <glyph glyph-name="idieresis" unicode="&#xef;" horiz-adv-x="612" 
d="M285 1413q65 0 100 -31.5t35 -85.5q0 -72 -49 -122t-131 -50q-63 0 -97 33t-34 86q0 72 50 121t126 49zM655 1413q65 0 100.5 -31.5t35.5 -85.5q0 -72 -49.5 -122t-131.5 -50q-63 0 -97 33t-34 86q0 72 50 121t126 49zM129 807l35 217h448l-161 -1024h-338l125 786z" />
    <glyph glyph-name="eth" unicode="&#xf0;" 
d="M807 1591l184 -71l-65 -123q152 -61 239 -180q107 -143 107 -359q0 -200 -61 -392.5t-191 -318.5q-173 -165 -442 -165q-214 0 -351 104q-149 113 -149 324q0 126 48.5 236t135.5 190q174 157 436 157q74 0 131 -14q45 -10 115 -37q-6 80 -45 135q-36 51 -96 88l-66 -125
l-184 72l68 125q-108 29 -248 51l61 209q184 -12 301 -41zM924 700q-107 39 -246 39q-138 0 -209 -104q-53 -77 -53 -191q0 -104 51 -155t149 -51q114 0 187 90q63 74 92 188q17 63 29 184z" />
    <glyph glyph-name="ntilde" unicode="&#xf1;" horiz-adv-x="1327" 
d="M244 1024h237l41 -78q64 42 149 69t173 27q234 0 340 -106q94 -94 94 -256q0 -49 -8 -96l-94 -584h-340l90 563q6 35 6 62q0 71 -33 110q-42 51 -137 51q-119 0 -227 -65l-115 -721h-340zM799 1161q-87 33 -150 33q-81 0 -135 -35l-61 141q127 95 241 95q69 0 142 -25
q81 -33 165 -33q71 0 129 33l62 -137q-103 -103 -227 -103q-90 0 -166 31z" />
    <glyph glyph-name="ograve" unicode="&#xf2;" horiz-adv-x="1280" 
d="M772 1042q238 0 373 -120q131 -115 131 -322q0 -142 -57.5 -265.5t-171.5 -213.5q-86 -67 -201 -103t-242 -36q-228 0 -360 114q-142 119 -142 332q0 136 51.5 251t145.5 198q89 80 211.5 122.5t261.5 42.5zM733 788q-131 0 -207 -86q-80 -92 -80 -256q0 -104 52 -159
q51 -51 147 -51q118 0 186 65q103 95 103 277q0 106 -55 161q-52 49 -146 49zM770 1505l70 -334l-185 -57l-119 322z" />
    <glyph glyph-name="oacute" unicode="&#xf3;" horiz-adv-x="1280" 
d="M772 1042q238 0 373 -120q131 -115 131 -322q0 -142 -57.5 -265.5t-171.5 -213.5q-86 -67 -201 -103t-242 -36q-228 0 -360 114q-142 119 -142 332q0 136 51.5 251t145.5 198q89 80 211.5 122.5t261.5 42.5zM733 788q-131 0 -207 -86q-80 -92 -80 -256q0 -104 52 -159
q51 -51 147 -51q118 0 186 65q103 95 103 277q0 106 -55 161q-52 49 -146 49zM764 1196l168 309l219 -108l-205 -287z" />
    <glyph glyph-name="ocircumflex" unicode="&#xf4;" horiz-adv-x="1280" 
d="M772 1042q238 0 373 -120q131 -115 131 -322q0 -142 -57.5 -265.5t-171.5 -213.5q-86 -67 -201 -103t-242 -36q-228 0 -360 114q-142 119 -142 332q0 136 51.5 251t145.5 198q89 80 211.5 122.5t261.5 42.5zM733 788q-131 0 -207 -86q-80 -92 -80 -256q0 -104 52 -159
q51 -51 147 -51q118 0 186 65q103 95 103 277q0 106 -55 161q-52 49 -146 49zM1114 1221l-121 -127l-176 120l-227 -120l-82 127l309 243h64z" />
    <glyph glyph-name="otilde" unicode="&#xf5;" horiz-adv-x="1280" 
d="M772 1042q238 0 373 -120q131 -115 131 -322q0 -142 -57.5 -265.5t-171.5 -213.5q-86 -67 -201 -103t-242 -36q-228 0 -360 114q-142 119 -142 332q0 136 51.5 251t145.5 198q89 80 211.5 122.5t261.5 42.5zM733 788q-131 0 -207 -86q-80 -92 -80 -256q0 -104 52 -159
q51 -51 147 -51q118 0 186 65q103 95 103 277q0 106 -55 161q-52 49 -146 49zM844 1141q-87 33 -150 33q-81 0 -135 -35l-61 141q125 94 241 94q71 0 142 -24q81 -33 166 -33q71 0 129 33l61 -138q-102 -102 -227 -102q-90 0 -166 31z" />
    <glyph glyph-name="odieresis" unicode="&#xf6;" horiz-adv-x="1280" 
d="M772 1042q238 0 373 -120q131 -115 131 -322q0 -142 -57.5 -265.5t-171.5 -213.5q-86 -67 -201 -103t-242 -36q-228 0 -360 114q-142 119 -142 332q0 136 51.5 251t145.5 198q89 80 211.5 122.5t261.5 42.5zM733 788q-131 0 -207 -86q-80 -92 -80 -256q0 -104 52 -159
q51 -51 147 -51q118 0 186 65q103 95 103 277q0 106 -55 161q-52 49 -146 49zM658 1413q66 0 100.5 -32.5t34.5 -86.5q0 -71 -51 -120.5t-131 -49.5q-61 0 -95 32t-34 83q0 75 49 124.5t127 49.5zM1069 1413q66 0 101 -32.5t35 -86.5q0 -71 -51.5 -120.5t-131.5 -49.5
q-61 0 -95 32t-34 83q0 75 49 124.5t127 49.5z" />
    <glyph glyph-name="divide" unicode="&#xf7;" horiz-adv-x="731" 
d="M129 764h608l-32 -211h-609zM389 498q63 0 98 -32.5t35 -84.5q0 -73 -49 -121.5t-129 -48.5q-63 0 -97 31.5t-34 85.5q0 70 49.5 120t126.5 50zM487 1108q64 0 99 -33t35 -86q0 -72 -50.5 -120t-128.5 -48q-63 0 -97 30.5t-34 84.5q0 72 48.5 122t127.5 50z" />
    <glyph glyph-name="oslash" unicode="&#xf8;" horiz-adv-x="1280" 
d="M1038 1112l170 -115l-61 -77q129 -116 129 -320q0 -142 -57.5 -265.5t-171.5 -213.5q-86 -67 -201 -103t-242 -36q-104 0 -192 24l-72 -90l-168 117l59 73q-129 116 -129 322q0 136 51.5 251t145.5 198q89 80 211.5 122.5t261.5 42.5q102 0 191 -24zM926 645l-328 -407
q14 -2 47 -2q118 0 186 65q103 95 103 277q0 27 -8 67zM453 381l323 403q-28 4 -43 4q-131 0 -207 -86q-80 -92 -80 -256q0 -30 7 -65z" />
    <glyph glyph-name="ugrave" unicode="&#xf9;" horiz-adv-x="1329" 
d="M233 1024h340l-88 -563q-6 -38 -6 -66q0 -64 31 -106q45 -51 135 -51q121 0 229 65l113 721h340l-162 -1024h-237l-41 78q-64 -42 -149 -69t-173 -27q-235 0 -338 106q-94 94 -94 254q0 51 8 98zM848 1505l70 -334l-185 -57l-119 322z" />
    <glyph glyph-name="uacute" unicode="&#xfa;" horiz-adv-x="1329" 
d="M233 1024h340l-88 -563q-6 -38 -6 -66q0 -64 31 -106q45 -51 135 -51q121 0 229 65l113 721h340l-162 -1024h-237l-41 78q-64 -42 -149 -69t-173 -27q-235 0 -338 106q-94 94 -94 254q0 51 8 98zM688 1196l168 309l219 -108l-205 -287z" />
    <glyph glyph-name="ucircumflex" unicode="&#xfb;" horiz-adv-x="1329" 
d="M233 1024h340l-88 -563q-6 -38 -6 -66q0 -64 31 -106q45 -51 135 -51q121 0 229 65l113 721h340l-162 -1024h-237l-41 78q-64 -42 -149 -69t-173 -27q-235 0 -338 106q-94 94 -94 254q0 51 8 98zM1139 1221l-121 -127l-176 120l-227 -120l-82 127l309 243h64z" />
    <glyph glyph-name="udieresis" unicode="&#xfc;" horiz-adv-x="1329" 
d="M233 1024h340l-88 -563q-6 -38 -6 -66q0 -64 31 -106q45 -51 135 -51q121 0 229 65l113 721h340l-162 -1024h-237l-41 78q-64 -42 -149 -69t-173 -27q-235 0 -338 106q-94 94 -94 254q0 51 8 98zM641 1413q66 0 100.5 -32.5t34.5 -86.5q0 -71 -51 -120.5t-131 -49.5
q-61 0 -95 32t-34 83q0 75 49 124.5t127 49.5zM1053 1413q66 0 100.5 -32.5t34.5 -86.5q0 -71 -51 -120.5t-131 -49.5q-61 0 -95 32t-34 83q0 75 49 124.5t127 49.5z" />
    <glyph glyph-name="yacute" unicode="&#xfd;" horiz-adv-x="1331" 
d="M459 0l-297 1024h362l168 -739h15l354 739h375l-645 -1137q-67 -121 -179 -190q-91 -55 -213 -55q-107 0 -192 39l61 213q80 -13 125 -13q42 0 72 23q36 29 53 73l10 23h-69zM680 1196l168 309l219 -108l-205 -287z" />
    <glyph glyph-name="thorn" unicode="&#xfe;" horiz-adv-x="1339" 
d="M293 1331h338l-60 -368q134 79 299 79q98 0 186.5 -32t151.5 -95q109 -109 109 -290q0 -137 -51 -268.5t-154 -221.5q-176 -153 -442 -153q-131 0 -244 55l-55 -344h-338zM532 721l-65 -418q75 -59 207 -59q63 0 105.5 15t80.5 48q54 46 83.5 118.5t29.5 152.5
q0 88 -47 141q-60 67 -166 67q-62 0 -113 -15.5t-115 -49.5z" />
    <glyph glyph-name="ydieresis" unicode="&#xff;" horiz-adv-x="1331" 
d="M459 0l-297 1024h362l168 -739h15l354 739h375l-645 -1137q-67 -121 -179 -190q-91 -55 -213 -55q-107 0 -192 39l61 213q80 -13 125 -13q42 0 72 23q36 29 53 73l10 23h-69zM639 1413q66 0 100.5 -32.5t34.5 -86.5q0 -71 -51 -120.5t-131 -49.5q-61 0 -95 32t-34 83
q0 75 49 124.5t127 49.5zM1051 1413q66 0 100.5 -32.5t34.5 -86.5q0 -71 -51 -120.5t-131 -49.5q-61 0 -95.5 32t-34.5 83q0 75 49.5 124.5t127.5 49.5z" />
    <glyph glyph-name="Amacron" unicode="&#x100;" horiz-adv-x="1562" 
d="M743 1229h369l350 -1229h-368l-39 162h-590l-94 -162h-367zM866 901l-245 -471h362l-94 471h-23zM637 1567h715l-33 -215h-715z" />
    <glyph glyph-name="amacron" unicode="&#x101;" horiz-adv-x="1368" 
d="M1348 1024l-115 -725q-10 -72 -10 -117q0 -62 18 -139l-221 -55q-65 35 -92 102q-77 -59 -159 -83.5t-196 -24.5q-262 0 -387 153q-84 104 -84 268q0 141 56 273.5t164 222.5q173 143 430 143q164 0 290 -90l52 72h254zM895 307l68 420q-94 61 -218 61q-109 0 -184 -63
q-55 -45 -85 -117t-30 -153q0 -87 48 -144q55 -67 182 -67q65 0 114.5 14.5t104.5 48.5zM528 1325h670l-29 -186h-669z" />
    <glyph glyph-name="Abreve" unicode="&#x102;" horiz-adv-x="1562" 
d="M743 1229h369l350 -1229h-368l-39 162h-590l-94 -162h-367zM866 901l-245 -471h362l-94 471h-23zM645 1624l215 21q0 -54 25 -82q28 -25 71 -25q47 0 80 23q43 32 56 84l223 -21q-42 -153 -129 -223q-97 -82 -256 -82q-141 0 -219 94q-63 78 -66 211z" />
    <glyph glyph-name="abreve" unicode="&#x103;" horiz-adv-x="1368" 
d="M1348 1024l-115 -725q-10 -72 -10 -117q0 -62 18 -139l-221 -55q-65 35 -92 102q-77 -59 -159 -83.5t-196 -24.5q-262 0 -387 153q-84 104 -84 268q0 141 56 273.5t164 222.5q173 143 430 143q164 0 290 -90l52 72h254zM895 307l68 420q-94 61 -218 61q-109 0 -184 -63
q-55 -45 -85 -117t-30 -153q0 -87 48 -144q55 -67 182 -67q65 0 114.5 14.5t104.5 48.5zM508 1399l197 18q0 -52 26 -78q21 -24 68 -24q44 0 72 22q40 29 51 80l209 -18q-34 -134 -131 -211q-95 -74 -226 -74q-127 0 -200 76q-66 66 -66 209z" />
    <glyph glyph-name="Aogonek" unicode="&#x104;" horiz-adv-x="1562" 
d="M743 1229h369l350 -1229q-34 -16 -63 -53q-35 -44 -35 -111q0 -38 12 -65q14 -37 56 -76l-97 -86q-79 19 -135 61q-61 48 -61 125q0 97 69 160q27 27 68 45h-182l-39 162h-590l-94 -162h-367zM866 901l-245 -471h362l-94 471h-23z" />
    <glyph glyph-name="aogonek" unicode="&#x105;" horiz-adv-x="1368" 
d="M1348 1024l-115 -725q-10 -72 -10 -117q0 -62 18 -139q-39 -25 -57 -59q-23 -41 -23 -82q0 -34 17 -60q20 -30 57 -49l-70 -88q-102 0 -157 43q-54 44 -54 105q0 75 60 139q-61 31 -86 98q-77 -59 -159 -83.5t-196 -24.5q-262 0 -387 153q-84 104 -84 268q0 141 56 273.5
t164 222.5q173 143 430 143q164 0 290 -90l52 72h254zM895 307l68 420q-94 61 -218 61q-109 0 -184 -63q-55 -45 -85 -117t-30 -153q0 -87 48 -144q55 -67 182 -67q65 0 114.5 14.5t104.5 48.5z" />
    <glyph glyph-name="Cacute" unicode="&#x106;" horiz-adv-x="1341" 
d="M1399 1143l-133 -230q-102 39 -181.5 54.5t-169.5 15.5q-85 0 -168.5 -29.5t-136.5 -79.5q-63 -58 -99 -143t-36 -182q0 -102 47 -176q37 -56 112.5 -90.5t164.5 -34.5q101 0 177.5 16.5t197.5 61.5l61 -230q-132 -66 -248 -92.5t-254 -26.5q-322 0 -502 195
q-120 133 -120 332q0 168 73 322.5t209 254.5q231 170 541 170q142 0 247 -22t218 -86zM860 1411l178 336l215 -125l-217 -307z" />
    <glyph glyph-name="cacute" unicode="&#x107;" horiz-adv-x="1173" 
d="M1202 963l-115 -218q-99 27 -163 36.5t-140 9.5q-145 0 -243 -95q-92 -89 -92 -231q0 -79 38 -131q59 -88 211 -88q147 0 320 49l43 -232q-206 -81 -436 -81q-280 0 -406 135q-117 123 -117 305q0 282 209 459q194 161 482 161q230 0 409 -79zM758 1196l168 309l219 -108
l-205 -287z" />
    <glyph glyph-name="Ccircumflex" unicode="&#x108;" horiz-adv-x="1341" 
d="M1399 1143l-133 -230q-102 39 -181.5 54.5t-169.5 15.5q-85 0 -168.5 -29.5t-136.5 -79.5q-63 -58 -99 -143t-36 -182q0 -102 47 -176q37 -56 112.5 -90.5t164.5 -34.5q101 0 177.5 16.5t197.5 61.5l61 -230q-132 -66 -248 -92.5t-254 -26.5q-322 0 -502 195
q-120 133 -120 332q0 168 73 322.5t209 254.5q231 170 541 170q142 0 247 -22t218 -86zM739 1296l-82 129l318 258h67l238 -258l-125 -129l-180 138z" />
    <glyph glyph-name="ccircumflex" unicode="&#x109;" horiz-adv-x="1173" 
d="M1202 963l-115 -218q-99 27 -163 36.5t-140 9.5q-145 0 -243 -95q-92 -89 -92 -231q0 -79 38 -131q59 -88 211 -88q147 0 320 49l43 -232q-206 -81 -436 -81q-280 0 -406 135q-117 123 -117 305q0 282 209 459q194 161 482 161q230 0 409 -79zM1149 1221l-121 -127
l-176 120l-227 -120l-82 127l309 243h64z" />
    <glyph glyph-name="Cdotaccent" unicode="&#x10a;" horiz-adv-x="1341" 
d="M1399 1143l-133 -230q-102 39 -181.5 54.5t-169.5 15.5q-85 0 -168.5 -29.5t-136.5 -79.5q-63 -58 -99 -143t-36 -182q0 -102 47 -176q37 -56 112.5 -90.5t164.5 -34.5q101 0 177.5 16.5t197.5 61.5l61 -230q-132 -66 -248 -92.5t-254 -26.5q-322 0 -502 195
q-120 133 -120 332q0 168 73 322.5t209 254.5q231 170 541 170q142 0 247 -22t218 -86zM1028 1663q74 0 114 -36t40 -99q0 -82 -56 -139.5t-149 -57.5q-71 0 -111.5 38t-40.5 97q0 85 57.5 141t145.5 56z" />
    <glyph glyph-name="cdotaccent" unicode="&#x10b;" horiz-adv-x="1173" 
d="M1202 963l-115 -218q-99 27 -163 36.5t-140 9.5q-145 0 -243 -95q-92 -89 -92 -231q0 -79 38 -131q59 -88 211 -88q147 0 320 49l43 -232q-206 -81 -436 -81q-280 0 -406 135q-117 123 -117 305q0 282 209 459q194 161 482 161q230 0 409 -79zM895 1409q66 0 100.5 -32
t34.5 -86q0 -71 -51 -120.5t-131 -49.5q-61 0 -95 31.5t-34 82.5q0 75 49 124.5t127 49.5z" />
    <glyph glyph-name="Ccaron" unicode="&#x10c;" horiz-adv-x="1341" 
d="M1399 1143l-133 -230q-102 39 -181.5 54.5t-169.5 15.5q-85 0 -168.5 -29.5t-136.5 -79.5q-63 -58 -99 -143t-36 -182q0 -102 47 -176q37 -56 112.5 -90.5t164.5 -34.5q101 0 177.5 16.5t197.5 61.5l61 -230q-132 -66 -248 -92.5t-254 -26.5q-322 0 -502 195
q-120 133 -120 332q0 168 73 322.5t209 254.5q231 170 541 170q142 0 247 -22t218 -86zM684 1554l123 129l166 -139l246 139l88 -129l-318 -258h-67z" />
    <glyph glyph-name="ccaron" unicode="&#x10d;" horiz-adv-x="1173" 
d="M1202 963l-115 -218q-99 27 -163 36.5t-140 9.5q-145 0 -243 -95q-92 -89 -92 -231q0 -79 38 -131q59 -88 211 -88q147 0 320 49l43 -232q-206 -81 -436 -81q-280 0 -406 135q-117 123 -117 305q0 282 209 459q194 161 482 161q230 0 409 -79zM567 1337l121 127l164 -116
l227 116l82 -127l-303 -243h-63z" />
    <glyph glyph-name="Dcaron" unicode="&#x10e;" horiz-adv-x="1400" 
d="M268 1229h531q333 0 469 -148q118 -127 118 -333q0 -400 -243 -598q-93 -77 -214.5 -113.5t-289.5 -36.5h-565zM582 961l-109 -691h217q123 0 201 68q71 61 104 166.5t33 222.5q0 96 -41 154q-60 80 -211 80h-194zM539 1554l123 129l165 -139l246 139l88 -129l-317 -258
h-68z" />
    <glyph glyph-name="dcaron" unicode="&#x10f;" horiz-adv-x="1558" 
d="M893 82q-76 -56 -152 -78t-176 -22q-250 0 -377 143q-96 110 -96 283q0 134 50.5 262t152.5 219q176 153 446 153q146 0 250 -55l56 344h337l-210 -1331h-242zM885 305l65 420q-80 63 -205 63q-124 0 -200 -67q-52 -44 -80.5 -114.5t-28.5 -151.5q0 -92 47 -148
q57 -63 164 -63q125 0 238 61zM1473 881l55 157q-84 24 -84 115q0 81 52.5 137t141.5 56q69 0 105.5 -35t36.5 -94q0 -52 -29 -105l-158 -270z" />
    <glyph glyph-name="Dcroat" unicode="&#x110;" horiz-adv-x="1400" 
d="M268 1229h531q333 0 469 -148q118 -127 118 -333q0 -400 -243 -598q-93 -77 -214.5 -113.5t-289.5 -36.5h-565l82 520h-113l39 242h113zM582 961l-33 -199h246l-39 -242h-244l-39 -250h217q123 0 201 68q71 61 104 166.5t33 222.5q0 96 -41 154q-60 80 -211 80h-194z" />
    <glyph glyph-name="dcroat" unicode="&#x111;" horiz-adv-x="1349" 
d="M891 72q-76 -50 -152.5 -70t-175.5 -20q-250 0 -377 143q-96 110 -96 283q0 134 50.5 262t152.5 219q176 153 446 153q145 0 252 -55l15 90l-195 21l29 178h196l15 96h338l-17 -106l101 -11l-31 -196h-103l-168 -1059h-241zM883 305l65 420q-80 63 -205 63
q-124 0 -200 -67q-52 -44 -80.5 -114.5t-28.5 -151.5q0 -92 47 -148q57 -63 164 -63q125 0 238 61z" />
    <glyph glyph-name="Emacron" unicode="&#x112;" horiz-adv-x="1280" 
d="M74 0l194 1229h1051l-43 -271h-694l-31 -194h614l-43 -264h-614l-35 -230h719l-43 -270h-1075zM496 1567h714l-32 -215h-715z" />
    <glyph glyph-name="emacron" unicode="&#x113;" 
d="M1067 279l29 -218q-194 -79 -463 -79q-136 0 -245 36t-169 101q-115 124 -115 305q0 139 59.5 268.5t170.5 214.5q83 65 205 100t252 35q225 0 350 -92q114 -82 114 -233q0 -180 -149 -268q-153 -89 -537 -89q-57 0 -118 7q0 -75 69 -107q57 -29 170 -29q178 0 377 48z
M479 598q213 0 312 12q80 10 108.5 29.5t28.5 50.5q0 40 -33 66q-45 37 -152 37q-106 0 -170 -45q-34 -22 -60.5 -61.5t-33.5 -88.5zM479 1325h670l-29 -186h-669z" />
    <glyph glyph-name="Ebreve" unicode="&#x114;" horiz-adv-x="1280" 
d="M74 0l194 1229h1051l-43 -271h-694l-31 -194h614l-43 -264h-614l-35 -230h719l-43 -270h-1075zM549 1624l215 21q0 -55 24 -82q28 -25 72 -25q47 0 80 23q41 31 55 84l224 -21q-42 -153 -129 -223q-97 -82 -256 -82q-142 0 -220 94q-62 76 -65 211z" />
    <glyph glyph-name="ebreve" unicode="&#x115;" 
d="M1067 279l29 -218q-194 -79 -463 -79q-136 0 -245 36t-169 101q-115 124 -115 305q0 139 59.5 268.5t170.5 214.5q83 65 205 100t252 35q225 0 350 -92q114 -82 114 -233q0 -180 -149 -268q-153 -89 -537 -89q-57 0 -118 7q0 -75 69 -107q57 -29 170 -29q178 0 377 48z
M479 598q213 0 312 12q80 10 108.5 29.5t28.5 50.5q0 40 -33 66q-45 37 -152 37q-106 0 -170 -45q-34 -22 -60.5 -61.5t-33.5 -88.5zM524 1399l197 18q0 -51 27 -78q21 -24 67 -24q45 0 72 22q40 29 51 80l209 -18q-34 -134 -131 -211q-95 -74 -225 -74q-128 0 -201 76
q-66 66 -66 209z" />
    <glyph glyph-name="Edotaccent" unicode="&#x116;" horiz-adv-x="1280" 
d="M74 0l194 1229h1051l-43 -271h-694l-31 -194h614l-43 -264h-614l-35 -230h719l-43 -270h-1075zM924 1663q74 0 113.5 -36t39.5 -99q0 -82 -56 -139.5t-149 -57.5q-71 0 -111 38t-40 97q0 85 57.5 141t145.5 56z" />
    <glyph glyph-name="edotaccent" unicode="&#x117;" 
d="M1067 279l29 -218q-194 -79 -463 -79q-136 0 -245 36t-169 101q-115 124 -115 305q0 139 59.5 268.5t170.5 214.5q83 65 205 100t252 35q225 0 350 -92q114 -82 114 -233q0 -180 -149 -268q-153 -89 -537 -89q-57 0 -118 7q0 -75 69 -107q57 -29 170 -29q178 0 377 48z
M479 598q213 0 312 12q80 10 108.5 29.5t28.5 50.5q0 40 -33 66q-45 37 -152 37q-106 0 -170 -45q-34 -22 -60.5 -61.5t-33.5 -88.5zM850 1411q66 0 100.5 -32.5t34.5 -86.5q0 -71 -51 -120.5t-131 -49.5q-61 0 -95 32t-34 83q0 75 49 124.5t127 49.5z" />
    <glyph glyph-name="Eogonek" unicode="&#x118;" horiz-adv-x="1280" 
d="M74 0l194 1229h1051l-43 -271h-694l-31 -194h614l-43 -264h-614l-35 -230h719l-43 -270q-35 -17 -64 -53q-34 -43 -34 -111q0 -38 12 -65q14 -39 55 -76l-96 -86q-79 19 -135 61q-62 49 -62 125q0 96 70 160q27 27 68 45h-889z" />
    <glyph glyph-name="eogonek" unicode="&#x119;" horiz-adv-x="1275" 
d="M1067 279l29 -218q-41 -26 -58 -59q-22 -39 -22 -82q0 -35 16 -59q19 -29 58 -49l-70 -88q-103 0 -158 43q-47 38 -47 102q0 80 43 129q-99 -16 -225 -16q-136 0 -245 36t-169 101q-115 124 -115 305q0 139 59.5 268.5t170.5 214.5q173 135 436 135q213 0 346 -84
q139 -90 139 -241q0 -180 -149 -268q-153 -89 -537 -89q-57 0 -118 7q0 -64 51 -97q57 -39 188 -39q178 0 377 48zM479 598q213 0 312 12q80 10 108.5 29.5t28.5 50.5q0 40 -33 66q-45 37 -152 37q-106 0 -170 -45q-34 -22 -60.5 -61.5t-33.5 -88.5z" />
    <glyph glyph-name="Ecaron" unicode="&#x11a;" horiz-adv-x="1280" 
d="M74 0l194 1229h1051l-43 -271h-694l-31 -194h614l-43 -264h-614l-35 -230h719l-43 -270h-1075zM551 1554l123 129l166 -139l245 139l89 -129l-318 -258h-68z" />
    <glyph glyph-name="ecaron" unicode="&#x11b;" 
d="M1067 279l29 -218q-194 -79 -463 -79q-136 0 -245 36t-169 101q-115 124 -115 305q0 139 59.5 268.5t170.5 214.5q83 65 205 100t252 35q225 0 350 -92q114 -82 114 -233q0 -180 -149 -268q-153 -89 -537 -89q-57 0 -118 7q0 -75 69 -107q57 -29 170 -29q178 0 377 48z
M479 598q213 0 312 12q80 10 108.5 29.5t28.5 50.5q0 40 -33 66q-45 37 -152 37q-106 0 -170 -45q-34 -22 -60.5 -61.5t-33.5 -88.5zM541 1337l121 127l163 -116l228 116l82 -127l-304 -243h-63z" />
    <glyph glyph-name="Gcircumflex" unicode="&#x11c;" horiz-adv-x="1452" 
d="M750 520l34 223h623l-117 -743h-252l-32 72q-151 -95 -336 -95q-297 0 -447 173q-114 136 -114 339q0 171 74.5 326t213.5 266q217 170 555 170q274 0 480 -123l-129 -225q-195 84 -394 84q-147 0 -260 -80q-84 -59 -130 -159t-46 -213q0 -89 33 -154q68 -133 235 -133
q125 0 250 57l31 189zM739 1296l-82 129l318 258h67l238 -258l-125 -129l-180 138z" />
    <glyph glyph-name="gcircumflex" unicode="&#x11d;" horiz-adv-x="1349" 
d="M1106 1024h237l-145 -907q-46 -282 -225 -418q-158 -119 -424 -119q-145 0 -256.5 27t-229.5 88l115 227q200 -74 389 -74q133 0 205 54q66 48 76 112l4 29q-122 -61 -272 -61q-273 0 -398 153q-84 104 -84 268q0 142 55.5 274t163.5 222q173 143 410 143q199 0 311 -98z
M891 299l65 424q-81 57 -213 57q-113 0 -188 -63q-54 -45 -84.5 -118.5t-30.5 -152.5q0 -87 47 -143q58 -67 183 -67q65 0 115 14.5t106 48.5zM1141 1221l-121 -127l-176 120l-227 -120l-82 127l309 243h64z" />
    <glyph glyph-name="Gbreve" unicode="&#x11e;" horiz-adv-x="1452" 
d="M750 520l34 223h623l-117 -743h-252l-32 72q-151 -95 -336 -95q-297 0 -447 173q-114 136 -114 339q0 171 74.5 326t213.5 266q217 170 555 170q274 0 480 -123l-129 -225q-195 84 -394 84q-147 0 -260 -80q-84 -59 -130 -159t-46 -213q0 -89 33 -154q68 -133 235 -133
q125 0 250 57l31 189zM653 1624l215 21q0 -54 25 -82q28 -25 72 -25q46 0 79 23q43 32 56 84l223 -21q-42 -153 -129 -223q-97 -82 -256 -82q-141 0 -219 94q-63 78 -66 211z" />
    <glyph glyph-name="gbreve" unicode="&#x11f;" horiz-adv-x="1349" 
d="M1106 1024h237l-145 -907q-46 -282 -225 -418q-158 -119 -424 -119q-145 0 -256.5 27t-229.5 88l115 227q200 -74 389 -74q133 0 205 54q66 48 76 112l4 29q-122 -61 -272 -61q-273 0 -398 153q-84 104 -84 268q0 142 55.5 274t163.5 222q173 143 410 143q199 0 311 -98z
M891 299l65 424q-81 57 -213 57q-113 0 -188 -63q-54 -45 -84.5 -118.5t-30.5 -152.5q0 -87 47 -143q58 -67 183 -67q65 0 115 14.5t106 48.5zM539 1399l197 18q0 -52 26 -78q21 -24 68 -24q44 0 72 22q40 29 51 80l209 -18q-34 -134 -131 -211q-95 -74 -226 -74
q-127 0 -200 76q-66 66 -66 209z" />
    <glyph glyph-name="Gdotaccent" unicode="&#x120;" horiz-adv-x="1452" 
d="M750 520l34 223h623l-117 -743h-252l-32 72q-151 -95 -336 -95q-297 0 -447 173q-114 136 -114 339q0 171 74.5 326t213.5 266q217 170 555 170q274 0 480 -123l-129 -225q-195 84 -394 84q-147 0 -260 -80q-84 -59 -130 -159t-46 -213q0 -89 33 -154q68 -133 235 -133
q125 0 250 57l31 189zM1042 1665q74 0 114 -36t40 -99q0 -82 -56 -139.5t-149 -57.5q-71 0 -111 38t-40 97q0 85 57 141t145 56z" />
    <glyph glyph-name="gdotaccent" unicode="&#x121;" horiz-adv-x="1349" 
d="M1106 1024h237l-145 -907q-46 -282 -225 -418q-158 -119 -424 -119q-145 0 -256.5 27t-229.5 88l115 227q200 -74 389 -74q133 0 205 54q66 48 76 112l4 29q-122 -61 -272 -61q-273 0 -398 153q-84 104 -84 268q0 142 55.5 274t163.5 222q173 143 410 143q199 0 311 -98z
M891 299l65 424q-81 57 -213 57q-113 0 -188 -63q-54 -45 -84.5 -118.5t-30.5 -152.5q0 -87 47 -143q58 -67 183 -67q65 0 115 14.5t106 48.5zM858 1429q66 0 100.5 -32t34.5 -86q0 -71 -51 -120.5t-131 -49.5q-61 0 -95 31.5t-34 82.5q0 75 49 124.5t127 49.5z" />
    <glyph glyph-name="Gcommaaccent" unicode="&#x122;" horiz-adv-x="1452" 
d="M750 520l34 223h623l-117 -743h-252l-32 72q-151 -95 -336 -95q-297 0 -447 173q-114 136 -114 339q0 171 74.5 326t213.5 266q217 170 555 170q274 0 480 -123l-129 -225q-195 84 -394 84q-147 0 -260 -80q-84 -59 -130 -159t-46 -213q0 -89 33 -154q68 -133 235 -133
q125 0 250 57l31 189zM518 -584l60 195q-40 10 -62 43t-22 80q0 84 55.5 141t146.5 57q70 0 109 -36t39 -95q0 -60 -29 -114l-160 -297z" />
    <glyph glyph-name="gcommaaccent" unicode="&#x123;" horiz-adv-x="1349" 
d="M1106 1024h237l-145 -907q-46 -282 -225 -418q-158 -119 -424 -119q-145 0 -256.5 27t-229.5 88l115 227q200 -74 389 -74q133 0 205 54q66 48 76 112l4 29q-122 -61 -272 -61q-273 0 -398 153q-84 104 -84 268q0 142 55.5 274t163.5 222q173 143 410 143q199 0 311 -98z
M891 299l65 424q-81 57 -213 57q-113 0 -188 -63q-54 -45 -84.5 -118.5t-30.5 -152.5q0 -87 47 -143q58 -67 183 -67q65 0 115 14.5t106 48.5zM952 1581l-55 -158q84 -24 84 -114q0 -81 -53 -137t-142 -56q-69 0 -105 35t-36 94q0 52 29 105l157 270z" />
    <glyph glyph-name="Hcircumflex" unicode="&#x124;" horiz-adv-x="1456" 
d="M1124 1229h355l-195 -1229h-354l82 516h-502l-82 -516h-354l194 1229h355l-70 -441h502zM666 1296l-82 129l317 258h68l237 -258l-125 -129l-180 138z" />
    <glyph glyph-name="hcircumflex" unicode="&#x125;" horiz-adv-x="1331" 
d="M281 1331h340l-58 -364q129 75 285 75q114 0 191.5 -25.5t131.5 -80.5q95 -95 95 -254q0 -46 -9 -98l-92 -584h-340l88 563q7 40 7 62q0 67 -33 106q-42 51 -137 51q-120 0 -228 -65l-112 -717h-340zM786 1520l-121 -127l-176 120l-227 -120l-82 127l309 243h64z" />
    <glyph glyph-name="Hbar" unicode="&#x126;" horiz-adv-x="1456" 
d="M1124 1229h355l-21 -127h96l-30 -193l-99 -12l-141 -897h-354l82 516h-502l-82 -516h-354l141 895h-96l31 192l96 9l22 133h355l-21 -127h502zM553 788h502l16 107h-502z" />
    <glyph glyph-name="hbar" unicode="&#x127;" horiz-adv-x="1331" 
d="M285 1372h340l-15 -96h197l-29 -178l-200 -21l-17 -110q132 75 287 75q114 0 190.5 -25t130.5 -79q95 -95 95 -252q0 -46 -9 -102l-92 -584h-340l90 563q5 29 5 62q0 70 -31 106q-45 51 -139 51q-120 0 -228 -65l-112 -717h-340l168 1059h-103l31 196l104 11z" />
    <glyph glyph-name="Itilde" unicode="&#x128;" horiz-adv-x="602" 
d="M268 1229h357l-195 -1229h-356zM823 1593l62 -143q-119 -113 -250 -113q-102 0 -189 35q-92 37 -163 37q-89 0 -152 -39l-57 146q139 106 266 106q73 0 158 -29q90 -39 180 -39q71 0 145 39z" />
    <glyph glyph-name="itilde" unicode="&#x129;" horiz-adv-x="612" 
d="M129 807l35 217h448l-161 -1024h-338l125 786zM406 1161q-87 33 -150 33q-81 0 -135 -35l-61 141q127 95 241 95q69 0 142 -25q81 -33 166 -33q71 0 129 33l61 -137q-103 -103 -227 -103q-90 0 -166 31z" />
    <glyph glyph-name="uni012A" unicode="&#x12a;" horiz-adv-x="602" 
d="M268 1229h357l-195 -1229h-356zM152 1567h714l-32 -215h-715z" />
    <glyph glyph-name="imacron" unicode="&#x12b;" horiz-adv-x="612" 
d="M137 1325h608l-28 -186h-608zM109 807l34 217h449l-162 -1024h-338l125 786z" />
    <glyph glyph-name="Ibreve" unicode="&#x12c;" horiz-adv-x="602" 
d="M268 1229h357l-195 -1229h-356zM195 1624l215 21q0 -55 24 -82q28 -25 72 -25q47 0 80 23q41 31 55 84l223 -21q-42 -153 -129 -223q-97 -82 -256 -82q-141 0 -219 94q-62 76 -65 211z" />
    <glyph glyph-name="uni012D" unicode="&#x12d;" horiz-adv-x="612" 
d="M129 807l35 217h448l-161 -1024h-338l125 786zM176 1399l197 18q0 -52 26 -78q21 -24 68 -24q44 0 72 22q40 29 51 80l209 -18q-34 -134 -131 -211q-95 -74 -226 -74q-127 0 -200 76q-66 66 -66 209z" />
    <glyph glyph-name="Iogonek" unicode="&#x12e;" horiz-adv-x="602" 
d="M268 1229h357l-195 -1229q-34 -16 -63 -53q-35 -44 -35 -111q0 -38 12 -65q14 -39 55 -76l-96 -86q-79 19 -135 61q-62 49 -62 125q0 96 70 160q33 33 88 45h-190z" />
    <glyph glyph-name="iogonek" unicode="&#x12f;" horiz-adv-x="612" 
d="M143 1024h449l-162 -1024q-39 -25 -57 -59q-23 -41 -23 -82q0 -35 17 -60q20 -30 57 -49l-70 -88q-102 0 -157 43q-47 38 -47 102q0 87 55 142q26 29 69 51h-182l125 786l-108 21zM494 1477q86 0 133 -41.5t47 -104.5q0 -79 -65.5 -137.5t-168.5 -58.5q-83 0 -130.5 41
t-47.5 104q0 79 66 138t166 59z" />
    <glyph glyph-name="Idotaccent" unicode="&#x130;" horiz-adv-x="602" 
d="M268 1229h357l-195 -1229h-356zM549 1665q74 0 113.5 -36t39.5 -99q0 -82 -55.5 -139.5t-148.5 -57.5q-71 0 -111.5 38t-40.5 97q0 85 57.5 141t145.5 56z" />
    <glyph glyph-name="dotlessi" unicode="&#x131;" horiz-adv-x="612" 
d="M129 807l35 217h448l-161 -1024h-338l125 786z" />
    <glyph glyph-name="Jcircumflex" unicode="&#x134;" horiz-adv-x="1138" 
d="M805 1229h356l-114 -725q-42 -263 -230 -402q-168 -125 -438 -125q-212 0 -383 86l100 238q133 -55 303 -55q124 0 203 76q73 73 90 190zM793 1296l-82 129l317 258h68l237 -258l-125 -129l-180 138z" />
    <glyph glyph-name="jcircumflex" unicode="&#x135;" horiz-adv-x="612" 
d="M125 807l35 217h448l-162 -1022q-36 -209 -163 -313q-133 -109 -357 -109q-115 0 -191.5 21t-168.5 71l123 228q73 -32 127.5 -43t126.5 -11q74 0 116 45q41 41 50 111l124 784zM760 1221l-121 -127l-176 120l-227 -120l-82 127l309 243h63z" />
    <glyph glyph-name="Kcommaaccent" unicode="&#x136;" horiz-adv-x="1443" 
d="M268 1229h363l-70 -441h162l381 441h405l-489 -561l323 -668h-397l-227 522h-201l-82 -522h-362zM520 -469l60 195q-41 10 -62.5 42.5t-21.5 79.5q0 84 55.5 141.5t146.5 57.5q70 0 109 -36t39 -95q0 -61 -29 -115l-160 -297z" />
    <glyph glyph-name="kcommaaccent" unicode="&#x137;" 
d="M281 1331h337l-104 -657h150l288 350h389l-399 -471l248 -553h-367l-178 420h-172l-65 -420h-338zM442 -479l56 186q-38 9 -58 39.5t-20 75.5q0 91 52 140.5t140 49.5q67 0 104.5 -35t37.5 -92q0 -50 -29 -106l-152 -283z" />
    <glyph glyph-name="kgreenlandic" unicode="&#x138;" 
d="M231 1024h338l-55 -350h150l288 350h389l-399 -471l248 -553h-367l-178 420h-172l-65 -420h-338z" />
    <glyph glyph-name="Lacute" unicode="&#x139;" horiz-adv-x="1234" 
d="M475 264h680l-41 -264h-1040l194 1229h361zM383 1411l178 336l215 -125l-217 -307z" />
    <glyph glyph-name="lacute" unicode="&#x13a;" horiz-adv-x="612" 
d="M164 1120l35 211h448l-211 -1331h-338l172 1094zM406 1470l168 309l219 -108l-205 -287z" />
    <glyph glyph-name="Lcommaaccent" unicode="&#x13b;" horiz-adv-x="1234" 
d="M475 264h680l-41 -264h-1040l194 1229h361zM446 -594l60 195q-40 10 -62 43t-22 80q0 84 56 141t147 57q70 0 108.5 -36t38.5 -95q0 -61 -29 -115l-159 -297z" />
    <glyph glyph-name="lcommaaccent" unicode="&#x13c;" horiz-adv-x="612" 
d="M164 1120l35 211h448l-211 -1331h-338l172 1094zM74 -547l55 187q-38 9 -58 39t-20 75q0 91 52.5 141t140.5 50q67 0 104 -35t37 -92q0 -51 -29 -107l-151 -282z" />
    <glyph glyph-name="Lcaron" unicode="&#x13d;" horiz-adv-x="1234" 
d="M475 264h680l-41 -264h-1040l194 1229h361zM850 903l55 158q-84 24 -84 114q0 81 53 137t142 56q69 0 105 -35t36 -94q0 -54 -28 -105l-158 -270z" />
    <glyph glyph-name="lcaron" unicode="&#x13e;" horiz-adv-x="784" 
d="M164 1120l35 211h448l-211 -1331h-338l172 1094zM707 1114l55 158q-84 24 -84 114q0 81 52.5 137t141.5 56q69 0 105.5 -35t36.5 -94q0 -51 -29 -104l-158 -271z" />
    <glyph glyph-name="Ldot" unicode="&#x13f;" horiz-adv-x="1234" 
d="M475 264h680l-41 -264h-1040l194 1229h361zM915 837q71 0 110.5 -37t39.5 -96q0 -84 -56 -138t-145 -54q-71 0 -110.5 36t-39.5 97q0 80 56 136t145 56z" />
    <glyph glyph-name="ldot" unicode="&#x140;" horiz-adv-x="901" 
d="M164 1120l35 211h448l-211 -1331h-338l172 1094zM844 948q71 0 110 -37t39 -96q0 -84 -55.5 -138t-144.5 -54q-71 0 -110.5 36t-39.5 97q0 80 56 136t145 56z" />
    <glyph glyph-name="Lslash" unicode="&#x141;" horiz-adv-x="1263" 
d="M504 264h680l-41 -264h-1041l88 557l-92 -22l-26 221l155 39l70 434h360l-53 -336l234 59l26 -221l-299 -78z" />
    <glyph glyph-name="lslash" unicode="&#x142;" horiz-adv-x="612" 
d="M164 1120l35 211h448l-86 -491l96 24l19 -178l-146 -39l-94 -647h-338l80 557l-98 -25l-19 179l148 37l61 346z" />
    <glyph glyph-name="Nacute" unicode="&#x143;" horiz-adv-x="1462" 
d="M1145 1229h340l-195 -1229h-321l-443 739l-112 -739h-340l194 1229h320l444 -727zM770 1411l178 336l215 -125l-217 -307z" />
    <glyph glyph-name="nacute" unicode="&#x144;" horiz-adv-x="1331" 
d="M244 1024h237l41 -78q64 42 149 69t173 27q234 0 340 -106q94 -94 94 -256q0 -49 -8 -96l-94 -584h-340l90 563q6 35 6 62q0 71 -33 110q-42 51 -137 51q-119 0 -227 -65l-115 -721h-340zM780 1196l168 309l219 -108l-205 -287z" />
    <glyph glyph-name="Ncommaaccent" unicode="&#x145;" horiz-adv-x="1462" 
d="M1145 1229h340l-195 -1229h-321l-443 739l-112 -739h-340l194 1229h320l444 -727zM504 -518l59 194q-40 10 -62 43t-22 80q0 84 56 141.5t147 57.5q70 0 108.5 -36t38.5 -95q0 -63 -28 -115l-160 -297z" />
    <glyph glyph-name="ncommaaccent" unicode="&#x146;" horiz-adv-x="1327" 
d="M244 1024h237l41 -78q64 42 149 69t173 27q234 0 340 -106q94 -94 94 -256q0 -49 -8 -96l-94 -584h-340l90 563q6 35 6 62q0 71 -33 110q-42 51 -137 51q-119 0 -227 -65l-115 -721h-340zM455 -496l55 187q-38 9 -58 39t-20 75q0 91 52.5 141t140.5 50q67 0 104 -35
t37 -92q0 -51 -29 -107l-151 -282z" />
    <glyph glyph-name="Ncaron" unicode="&#x147;" horiz-adv-x="1462" 
d="M1145 1229h340l-195 -1229h-321l-443 739l-112 -739h-340l194 1229h320l444 -727zM608 1554l123 129l166 -139l246 139l88 -129l-318 -258h-67z" />
    <glyph glyph-name="ncaron" unicode="&#x148;" horiz-adv-x="1327" 
d="M244 1024h237l41 -78q64 42 149 69t173 27q234 0 340 -106q94 -94 94 -256q0 -49 -8 -96l-94 -584h-340l90 563q6 35 6 62q0 71 -33 110q-42 51 -137 51q-119 0 -227 -65l-115 -721h-340zM635 1358l121 127l164 -117l227 117l82 -127l-303 -244h-64z" />
    <glyph glyph-name="napostrophe" unicode="&#x149;" horiz-adv-x="1327" 
d="M244 1024h237l41 -78q64 42 149 69t173 27q234 0 340 -106q94 -94 94 -256q0 -49 -8 -96l-94 -584h-340l90 563q6 35 6 62q0 71 -33 110q-42 51 -137 51q-119 0 -227 -65l-115 -721h-340zM72 1081l55 187q-38 9 -58 39t-20 75q0 91 52.5 141t140.5 50q67 0 104 -35
t37 -92q0 -51 -29 -107l-151 -282z" />
    <glyph glyph-name="Omacron" unicode="&#x14c;" horiz-adv-x="1486" 
d="M1063 899q-75 90 -211 90q-141 0 -238 -90q-72 -64 -106.5 -168.5t-34.5 -222.5q0 -105 39 -166q67 -102 221 -102q157 0 256 106q61 65 92 163t31 204q0 120 -49 186zM109 489q0 166 69 322.5t199 263.5q211 176 518 176q137 0 253.5 -43.5t194.5 -122.5
q130 -133 130 -350q0 -156 -59 -305t-173 -252q-220 -201 -549 -201q-147 0 -266 42.5t-195 123.5q-122 135 -122 346zM627 1567h714l-32 -215h-715z" />
    <glyph glyph-name="omacron" unicode="&#x14d;" horiz-adv-x="1280" 
d="M772 1042q238 0 373 -120q131 -115 131 -322q0 -142 -57.5 -265.5t-171.5 -213.5q-86 -67 -201 -103t-242 -36q-228 0 -360 114q-142 119 -142 332q0 136 51.5 251t145.5 198q89 80 211.5 122.5t261.5 42.5zM733 788q-131 0 -207 -86q-80 -92 -80 -256q0 -104 52 -159
q51 -51 147 -51q118 0 186 65q103 95 103 277q0 106 -55 161q-52 49 -146 49zM477 1325h670l-29 -186h-670z" />
    <glyph glyph-name="Obreve" unicode="&#x14e;" horiz-adv-x="1486" 
d="M1063 899q-75 90 -211 90q-141 0 -238 -90q-72 -64 -106.5 -168.5t-34.5 -222.5q0 -105 39 -166q67 -102 221 -102q157 0 256 106q61 65 92 163t31 204q0 120 -49 186zM109 489q0 166 69 322.5t199 263.5q211 176 518 176q137 0 253.5 -43.5t194.5 -122.5
q130 -133 130 -350q0 -156 -59 -305t-173 -252q-220 -201 -549 -201q-147 0 -266 42.5t-195 123.5q-122 135 -122 346zM686 1624l215 21q0 -54 25 -82q28 -25 71 -25q47 0 80 23q43 32 56 84l223 -21q-42 -153 -129 -223q-97 -82 -256 -82q-141 0 -219 94q-63 78 -66 211z
" />
    <glyph glyph-name="obreve" unicode="&#x14f;" horiz-adv-x="1280" 
d="M772 1042q238 0 373 -120q131 -115 131 -322q0 -142 -57.5 -265.5t-171.5 -213.5q-86 -67 -201 -103t-242 -36q-228 0 -360 114q-142 119 -142 332q0 136 51.5 251t145.5 198q89 80 211.5 122.5t261.5 42.5zM733 788q-131 0 -207 -86q-80 -92 -80 -256q0 -104 52 -159
q51 -51 147 -51q118 0 186 65q103 95 103 277q0 106 -55 161q-52 49 -146 49zM510 1399l197 18q0 -52 26 -78q21 -24 68 -24q44 0 72 22q40 29 51 80l209 -18q-34 -134 -131 -211q-95 -74 -226 -74q-127 0 -200 76q-66 66 -66 209z" />
    <glyph glyph-name="Ohungarumlaut" unicode="&#x150;" horiz-adv-x="1486" 
d="M1063 899q-75 90 -211 90q-141 0 -238 -90q-72 -64 -106.5 -168.5t-34.5 -222.5q0 -105 39 -166q67 -102 221 -102q157 0 256 106q61 65 92 163t31 204q0 120 -49 186zM109 489q0 166 69 322.5t199 263.5q211 176 518 176q137 0 253.5 -43.5t194.5 -122.5
q130 -133 130 -350q0 -156 -59 -305t-173 -252q-220 -201 -549 -201q-147 0 -266 42.5t-195 123.5q-122 135 -122 346zM735 1382l135 379l224 -71l-189 -359zM1010 1384l196 371l201 -94l-229 -340z" />
    <glyph glyph-name="ohungarumlaut" unicode="&#x151;" horiz-adv-x="1280" 
d="M772 1042q238 0 373 -120q131 -115 131 -322q0 -142 -57.5 -265.5t-171.5 -213.5q-86 -67 -201 -103t-242 -36q-228 0 -360 114q-142 119 -142 332q0 136 51.5 251t145.5 198q89 80 211.5 122.5t261.5 42.5zM733 788q-131 0 -207 -86q-80 -92 -80 -256q0 -104 52 -159
q51 -51 147 -51q118 0 186 65q103 95 103 277q0 106 -55 161q-52 49 -146 49zM594 1178l102 319l211 -63l-160 -310zM862 1182l154 309l192 -80l-190 -293z" />
    <glyph glyph-name="OE" unicode="&#x152;" horiz-adv-x="2213" 
d="M1202 1229h1051l-43 -271h-694l-31 -194h614l-43 -264h-614l-35 -230h719l-43 -270h-1075l8 55q-163 -78 -344 -78q-286 0 -441 166q-122 135 -122 346q0 375 268 596q199 166 518 166q193 0 297 -84zM1112 715q0 120 -51 190q-70 84 -209 84q-141 0 -238 -90
q-72 -64 -106.5 -168.5t-34.5 -222.5q0 -105 39 -166q67 -102 221 -102q157 0 256 106q62 66 92.5 164t30.5 205z" />
    <glyph glyph-name="oe" unicode="&#x153;" horiz-adv-x="1996" 
d="M1831 279l29 -218q-194 -79 -463 -79q-128 0 -230.5 30.5t-165.5 87.5q-171 -118 -413 -118q-231 0 -361 110q-141 119 -141 336q0 142 59.5 261.5t165.5 203.5q189 149 445 149q238 0 374 -112q80 54 192.5 83t231.5 29q223 0 349 -90q116 -84 116 -235
q0 -180 -149 -268q-153 -89 -537 -89q-58 0 -119 7q0 -136 240 -136q178 0 377 48zM717 788q-125 0 -201 -86q-86 -95 -86 -256q0 -105 49 -157q50 -53 150 -53q118 0 186 65q53 49 78 129.5t25 167.5q0 79 -35 125q-52 65 -166 65zM1243 598q212 0 311 12q80 10 109 29.5
t29 50.5q0 40 -33 66q-45 37 -152 37q-106 0 -170 -45q-34 -22 -60.5 -61.5t-33.5 -88.5z" />
    <glyph glyph-name="Racute" unicode="&#x154;" horiz-adv-x="1349" 
d="M268 1229h627q247 0 369 -131q86 -92 86 -236q0 -154 -84 -276q-83 -119 -232 -183l180 -403h-378l-125 342h-224l-53 -342h-360zM586 965l-56 -357h232q89 0 147 49q76 66 76 174q0 68 -39 101q-41 33 -108 33h-252zM696 1411l178 336l216 -125l-218 -307z" />
    <glyph glyph-name="racute" unicode="&#x155;" horiz-adv-x="1175" 
d="M244 1024h237l41 -78q125 96 299 96q123 0 211 -28t185 -103l-187 -227q-129 100 -270 100q-121 0 -228 -67l-114 -717h-338zM639 1196l168 309l219 -108l-205 -287z" />
    <glyph glyph-name="Rcommaaccent" unicode="&#x156;" horiz-adv-x="1349" 
d="M268 1229h627q247 0 369 -131q86 -92 86 -236q0 -154 -84 -276q-83 -119 -232 -183l180 -403h-378l-125 342h-224l-53 -342h-360zM586 965l-56 -357h232q89 0 147 49q76 66 76 174q0 68 -39 101q-41 33 -108 33h-252zM446 -530l60 194q-40 10 -62 43t-22 80
q0 84 56 141.5t147 57.5q70 0 108.5 -36t38.5 -95q0 -61 -29 -115l-159 -297z" />
    <glyph glyph-name="rcommaaccent" unicode="&#x157;" horiz-adv-x="1161" 
d="M244 1024h237l41 -78q125 96 299 96q123 0 211 -28t185 -103l-187 -227q-129 100 -270 100q-121 0 -228 -67l-114 -717h-338zM74 -575l55 186q-38 9 -58 39.5t-20 75.5q0 91 52.5 140.5t140.5 49.5q67 0 104 -35t37 -92q0 -50 -29 -106l-151 -283z" />
    <glyph glyph-name="Rcaron" unicode="&#x158;" horiz-adv-x="1349" 
d="M268 1229h627q247 0 369 -131q86 -92 86 -236q0 -154 -84 -276q-83 -119 -232 -183l180 -403h-378l-125 342h-224l-53 -342h-360zM586 965l-56 -357h232q89 0 147 49q76 66 76 174q0 68 -39 101q-41 33 -108 33h-252zM537 1554l122 129l166 -139l246 139l88 -129
l-317 -258h-68z" />
    <glyph glyph-name="rcaron" unicode="&#x159;" horiz-adv-x="1175" 
d="M244 1024h237l41 -78q125 96 299 96q123 0 211 -28t185 -103l-187 -227q-129 100 -270 100q-121 0 -228 -67l-114 -717h-338zM581 1337l121 127l164 -116l227 116l82 -127l-303 -243h-63z" />
    <glyph glyph-name="Sacute" unicode="&#x15a;" horiz-adv-x="1357" 
d="M1337 1155l-123 -252q-221 74 -417 74q-145 0 -215 -25q-34 -12 -48 -28.5t-14 -42.5q0 -34 24.5 -51.5t86.5 -26.5l313 -43q203 -30 287 -129q69 -82 69 -187q0 -108 -59 -204.5t-160 -155.5q-186 -107 -487 -107q-158 0 -278 21.5t-265 79.5l94 270q251 -84 473 -84
q187 0 265 47q51 28 51 74q0 33 -22.5 48.5t-77.5 23.5l-304 39q-189 24 -284 104q-90 77 -90 201q0 213 186 338q173 112 479 112q294 0 516 -96zM766 1411l178 336l215 -125l-217 -307z" />
    <glyph glyph-name="sacute" unicode="&#x15b;" horiz-adv-x="1202" 
d="M1190 946l-115 -217q-199 62 -379 62q-123 0 -174 -19q-47 -17 -47 -53q0 -19 12 -31q14 -14 54 -18l272 -21q177 -14 258 -82q78 -65 78 -172q0 -91 -47.5 -175.5t-128.5 -135.5q-161 -102 -463 -102q-253 0 -463 100l113 231q174 -77 370 -77q160 0 224 26
q21 7 39 24.5t18 41.5q0 20 -12 32q-22 19 -82 23l-271 20q-171 12 -249 99q-58 61 -58 155q0 95 54 177.5t145 132.5q138 75 397 75q231 0 455 -96zM676 1196l168 309l219 -108l-205 -287z" />
    <glyph glyph-name="Scircumflex" unicode="&#x15c;" horiz-adv-x="1357" 
d="M1337 1155l-123 -252q-221 74 -417 74q-145 0 -215 -25q-34 -12 -48 -28.5t-14 -42.5q0 -34 24.5 -51.5t86.5 -26.5l313 -43q203 -30 287 -129q69 -82 69 -187q0 -108 -59 -204.5t-160 -155.5q-186 -107 -487 -107q-158 0 -278 21.5t-265 79.5l94 270q251 -84 473 -84
q187 0 265 47q51 28 51 74q0 33 -22.5 48.5t-77.5 23.5l-304 39q-189 24 -284 104q-90 77 -90 201q0 213 186 338q173 112 479 112q294 0 516 -96zM616 1296l-81 129l317 258h68l237 -258l-125 -129l-180 138z" />
    <glyph glyph-name="scircumflex" unicode="&#x15d;" horiz-adv-x="1202" 
d="M1190 946l-115 -217q-199 62 -379 62q-123 0 -174 -19q-47 -17 -47 -53q0 -19 12 -31q14 -14 54 -18l272 -21q177 -14 258 -82q78 -65 78 -172q0 -91 -47.5 -175.5t-128.5 -135.5q-161 -102 -463 -102q-253 0 -463 100l113 231q174 -77 370 -77q160 0 224 26
q21 7 39 24.5t18 41.5q0 20 -12 32q-22 19 -82 23l-271 20q-171 12 -249 99q-58 61 -58 155q0 95 54 177.5t145 132.5q138 75 397 75q231 0 455 -96zM1075 1221l-121 -127l-176 120l-227 -120l-82 127l309 243h64z" />
    <glyph glyph-name="Scedilla" unicode="&#x15e;" horiz-adv-x="1357" 
d="M1337 1155l-123 -252q-221 74 -417 74q-145 0 -215 -25q-34 -12 -48 -28.5t-14 -42.5q0 -34 24.5 -51.5t86.5 -26.5l313 -43q203 -30 287 -129q69 -82 69 -187q0 -108 -59 -204.5t-160 -155.5q-168 -97 -434 -104l-20 -66q85 0 133 -31q51 -34 51 -102q0 -129 -133 -209
q-120 -73 -309 -94l-17 123q124 26 183 67q51 39 51 86q0 22 -15 29q-13 8 -43 8h-57l-22 23l26 166q-207 11 -424 98l94 270q251 -84 473 -84q187 0 265 47q51 28 51 74q0 33 -22.5 48.5t-77.5 23.5l-304 39q-189 24 -284 104q-90 77 -90 201q0 213 186 338
q173 112 479 112q294 0 516 -96z" />
    <glyph glyph-name="scedilla" unicode="&#x15f;" horiz-adv-x="1202" 
d="M1190 946l-115 -217q-199 62 -379 62q-123 0 -174 -19q-47 -17 -47 -53q0 -19 12 -31q14 -14 54 -18l272 -21q177 -14 258 -82q78 -65 78 -172q0 -91 -47.5 -175.5t-128.5 -135.5q-138 -87 -383 -100l-8 -47q62 0 101.5 -31t39.5 -90q0 -109 -100 -176q-98 -67 -271 -95
l-16 113q93 25 143 61q47 32 47 76q0 29 -41 29h-49l-18 18l22 142q-208 12 -393 98l113 231q174 -77 370 -77q160 0 224 26q21 7 39 24.5t18 41.5q0 20 -12 32q-22 19 -82 23l-271 20q-171 12 -249 99q-58 61 -58 155q0 95 54 177.5t145 132.5q138 75 397 75q231 0 455 -96
z" />
    <glyph glyph-name="Scaron" unicode="&#x160;" horiz-adv-x="1357" 
d="M1337 1155l-123 -252q-221 74 -417 74q-145 0 -215 -25q-34 -12 -48 -28.5t-14 -42.5q0 -34 24.5 -51.5t86.5 -26.5l313 -43q203 -30 287 -129q69 -82 69 -187q0 -108 -59 -204.5t-160 -155.5q-186 -107 -487 -107q-158 0 -278 21.5t-265 79.5l94 270q251 -84 473 -84
q187 0 265 47q51 28 51 74q0 33 -22.5 48.5t-77.5 23.5l-304 39q-189 24 -284 104q-90 77 -90 201q0 213 186 338q173 112 479 112q294 0 516 -96zM555 1554l123 129l166 -139l246 139l88 -129l-318 -258h-67z" />
    <glyph glyph-name="scaron" unicode="&#x161;" horiz-adv-x="1202" 
d="M1190 946l-115 -217q-199 62 -379 62q-123 0 -174 -19q-47 -17 -47 -53q0 -19 12 -31q14 -14 54 -18l272 -21q177 -14 258 -82q78 -65 78 -172q0 -91 -47.5 -175.5t-128.5 -135.5q-161 -102 -463 -102q-253 0 -463 100l113 231q174 -77 370 -77q160 0 224 26
q21 7 39 24.5t18 41.5q0 20 -12 32q-22 19 -82 23l-271 20q-171 12 -249 99q-58 61 -58 155q0 95 54 177.5t145 132.5q138 75 397 75q231 0 455 -96zM495 1337l121 127l164 -116l227 116l82 -127l-303 -243h-63z" />
    <glyph glyph-name="Tcommaaccent" unicode="&#x162;" horiz-adv-x="1316" 
d="M158 965l43 264h1214l-43 -264h-428l-151 -965h-361l152 965h-426zM424 -600l59 194q-40 10 -62 43t-22 80q0 84 56 141.5t147 57.5q70 0 109 -36t39 -95q0 -61 -29 -115l-160 -297z" />
    <glyph glyph-name="tcommaaccent" unicode="&#x163;" horiz-adv-x="1011" 
d="M113 770l34 223l175 23l98 250h272l-37 -242h389l-36 -231l-394 -19l-61 -391q-2 -10 -2 -29q0 -50 32.5 -77t88.5 -27q126 0 272 51l43 -205q-96 -61 -199.5 -87.5t-238.5 -26.5q-213 0 -295 114q-51 66 -51 178q0 49 8 93l63 403h-161zM414 -573l55 186q-38 9 -58 39.5
t-20 75.5q0 91 52.5 140.5t140.5 49.5q67 0 104 -35t37 -92q0 -50 -29 -106l-151 -283z" />
    <glyph glyph-name="Tcaron" unicode="&#x164;" horiz-adv-x="1316" 
d="M158 965l43 264h1214l-43 -264h-428l-151 -965h-361l152 965h-426zM563 1554l123 129l166 -139l246 139l88 -129l-318 -258h-67z" />
    <glyph glyph-name="tcaron" unicode="&#x165;" horiz-adv-x="1193" 
d="M113 770l34 223l175 23l98 250h272l-37 -242h389l-36 -231l-394 -19l-61 -391q-2 -10 -2 -29q0 -50 32.5 -77t88.5 -27q126 0 272 51l43 -205q-96 -61 -199.5 -87.5t-238.5 -26.5q-213 0 -295 114q-51 66 -51 178q0 49 8 93l63 403h-161zM1079 915l56 158q-84 24 -84 115
q0 81 52.5 136.5t141.5 55.5q69 0 105 -35t36 -94q0 -53 -28 -104l-158 -270z" />
    <glyph glyph-name="Utilde" unicode="&#x168;" horiz-adv-x="1435" 
d="M268 1229h361l-111 -705q-6 -41 -6 -80q0 -88 39 -139q47 -59 156 -59q126 0 196 73q71 77 90 205l111 705h354l-108 -688q-22 -138 -82 -251t-148 -184q-160 -129 -456 -129q-262 0 -400 144q-112 115 -112 313q0 58 8 107zM1239 1593l61 -143q-119 -113 -249 -113
q-102 0 -189 35q-92 37 -164 37q-88 0 -151 -39l-58 146q139 106 267 106q72 0 157 -29q90 -39 181 -39q71 0 145 39z" />
    <glyph glyph-name="utilde" unicode="&#x169;" horiz-adv-x="1329" 
d="M233 1024h340l-88 -563q-6 -38 -6 -66q0 -64 31 -106q45 -51 135 -51q121 0 229 65l113 721h340l-162 -1024h-237l-41 78q-64 -42 -149 -69t-173 -27q-235 0 -338 106q-94 94 -94 254q0 51 8 98zM799 1161q-87 33 -150 33q-81 0 -135 -35l-61 141q127 95 241 95
q69 0 142 -25q81 -33 166 -33q71 0 129 33l61 -137q-103 -103 -227 -103q-90 0 -166 31z" />
    <glyph glyph-name="Umacron" unicode="&#x16a;" horiz-adv-x="1435" 
d="M268 1229h361l-111 -705q-6 -41 -6 -80q0 -88 39 -139q47 -59 156 -59q126 0 196 73q71 77 90 205l111 705h354l-108 -688q-22 -138 -82 -251t-148 -184q-160 -129 -456 -129q-262 0 -400 144q-112 115 -112 313q0 58 8 107zM573 1567h715l-33 -215h-714z" />
    <glyph glyph-name="umacron" unicode="&#x16b;" horiz-adv-x="1329" 
d="M233 1024h340l-88 -563q-6 -38 -6 -66q0 -64 31 -106q45 -51 135 -51q121 0 229 65l113 721h340l-162 -1024h-237l-41 78q-64 -42 -149 -69t-173 -27q-235 0 -338 106q-94 94 -94 254q0 51 8 98zM502 1325h670l-29 -186h-670z" />
    <glyph glyph-name="Ubreve" unicode="&#x16c;" horiz-adv-x="1435" 
d="M268 1229h361l-111 -705q-6 -41 -6 -80q0 -88 39 -139q47 -59 156 -59q126 0 196 73q71 77 90 205l111 705h354l-108 -688q-22 -138 -82 -251t-148 -184q-160 -129 -456 -129q-262 0 -400 144q-112 115 -112 313q0 58 8 107zM582 1624l215 21q0 -55 24 -82q28 -25 72 -25
q47 0 80 23q41 31 55 84l223 -21q-42 -153 -129 -223q-97 -82 -256 -82q-141 0 -219 94q-62 76 -65 211z" />
    <glyph glyph-name="ubreve" unicode="&#x16d;" horiz-adv-x="1329" 
d="M233 1024h340l-88 -563q-6 -38 -6 -66q0 -64 31 -106q45 -51 135 -51q121 0 229 65l113 721h340l-162 -1024h-237l-41 78q-64 -42 -149 -69t-173 -27q-235 0 -338 106q-94 94 -94 254q0 51 8 98zM534 1399l197 18q0 -52 26 -78q21 -24 68 -24q44 0 72 22q40 29 51 80
l209 -18q-34 -134 -131 -211q-95 -74 -226 -74q-127 0 -200 76q-66 66 -66 209z" />
    <glyph glyph-name="Uring" unicode="&#x16e;" horiz-adv-x="1435" 
d="M268 1229h361l-111 -705q-6 -41 -6 -80q0 -88 39 -139q47 -59 156 -59q126 0 196 73q71 77 90 205l111 705h354l-108 -688q-22 -138 -82 -251t-148 -184q-160 -129 -456 -129q-262 0 -400 144q-112 115 -112 313q0 58 8 107zM868 1317q-115 0 -176 67q-51 54 -51 140
q0 64 28 126t81 105q82 70 198 70t182 -82q44 -53 44 -133q0 -126 -91 -211q-85 -82 -215 -82zM889 1481q54 0 84 30q33 33 33 84q0 29 -19 52q-25 22 -67 22q-50 0 -80 -27q-37 -26 -37 -81q0 -36 22 -58q25 -22 64 -22z" />
    <glyph glyph-name="uring" unicode="&#x16f;" horiz-adv-x="1329" 
d="M233 1024h340l-88 -563q-6 -38 -6 -66q0 -64 31 -106q45 -51 135 -51q121 0 229 65l113 721h340l-162 -1024h-237l-41 78q-64 -42 -149 -69t-173 -27q-235 0 -338 106q-94 94 -94 254q0 51 8 98zM813 1116q-109 0 -168 68q-43 49 -43 137q0 109 90 192q80 74 197 74
q108 0 168 -80q39 -48 39 -125q0 -129 -105 -211q-73 -55 -178 -55zM836 1268q47 0 77 30q29 29 29 76q0 34 -22.5 52t-57.5 18q-49 0 -78 -29q-28 -28 -28 -69q0 -37 21 -57.5t59 -20.5z" />
    <glyph glyph-name="Uhungarumlaut" unicode="&#x170;" horiz-adv-x="1435" 
d="M268 1229h361l-111 -705q-6 -41 -6 -80q0 -88 39 -139q47 -59 156 -59q126 0 196 73q71 77 90 205l111 705h354l-108 -688q-22 -138 -82 -251t-148 -184q-160 -129 -456 -129q-262 0 -400 144q-112 115 -112 313q0 58 8 107zM645 1382l135 379l224 -71l-189 -359z
M920 1384l196 371l201 -94l-230 -340z" />
    <glyph glyph-name="uhungarumlaut" unicode="&#x171;" horiz-adv-x="1329" 
d="M233 1024h340l-88 -563q-6 -38 -6 -66q0 -64 31 -106q45 -51 135 -51q121 0 229 65l113 721h340l-162 -1024h-237l-41 78q-64 -42 -149 -69t-173 -27q-235 0 -338 106q-94 94 -94 254q0 51 8 98zM565 1178l103 319l211 -63l-160 -310zM834 1182l153 309l193 -80
l-191 -293z" />
    <glyph glyph-name="Uogonek" unicode="&#x172;" horiz-adv-x="1435" 
d="M268 1229h361l-111 -705q-6 -41 -6 -80q0 -88 39 -139q47 -59 156 -59q126 0 196 73q71 77 90 205l111 705h354l-108 -688q-22 -138 -82 -251t-148 -184q-110 -92 -297 -118q-24 -13 -51 -47q-35 -44 -35 -111q0 -37 13 -66q14 -37 55 -75l-96 -86q-81 20 -136 61
q-61 48 -61 125q0 96 70 160q6 8 39 31q-234 13 -357 141q-112 115 -112 313q0 58 8 107z" />
    <glyph glyph-name="uogonek" unicode="&#x173;" horiz-adv-x="1329" 
d="M233 1024h340l-88 -563q-6 -38 -6 -66q0 -64 31 -106q45 -51 135 -51q121 0 229 65l113 721h340l-162 -1024q-39 -25 -57 -59q-23 -41 -23 -82q0 -35 17 -60q20 -30 57 -49l-69 -88q-103 0 -158 43q-47 38 -47 102q0 51 26 99q27 49 72 80l-92 92q-63 -43 -149 -69.5
t-177 -26.5q-235 0 -338 106q-94 94 -94 254q0 51 8 98z" />
    <glyph glyph-name="Wcircumflex" unicode="&#x174;" horiz-adv-x="2121" 
d="M827 0h-452l-178 1229h374l82 -877h19l348 877h393l80 -877h18l349 877h356l-539 -1229h-469l-57 756h-23zM999 1296l-81 129l317 258h68l237 -258l-125 -129l-180 138z" />
    <glyph glyph-name="wcircumflex" unicode="&#x175;" horiz-adv-x="1912" 
d="M303 0l-131 1024h350l62 -705h10l291 705h387l88 -705h10l266 705h346l-454 -1024h-430l-80 641h-8l-265 -641h-442zM1431 1221l-121 -127l-176 120l-227 -120l-82 127l309 243h64z" />
    <glyph glyph-name="Ycircumflex" unicode="&#x176;" horiz-adv-x="1503" 
d="M883 0h-359l47 295l-374 934h393l196 -629h13l393 629h405l-667 -930zM690 1296l-82 129l318 258h67l238 -258l-125 -129l-180 138z" />
    <glyph glyph-name="ycircumflex" unicode="&#x177;" horiz-adv-x="1331" 
d="M459 0l-297 1024h362l168 -739h15l354 739h375l-645 -1137q-67 -121 -179 -190q-91 -55 -213 -55q-107 0 -192 39l61 213q80 -13 125 -13q42 0 72 23q36 29 53 73l10 23h-69zM1153 1221l-121 -127l-176 120l-227 -120l-82 127l309 243h64z" />
    <glyph glyph-name="Ydieresis" unicode="&#x178;" horiz-adv-x="1503" 
d="M883 0h-359l47 295l-374 934h393l196 -629h13l393 629h405l-667 -930zM739 1659q74 0 114 -36t40 -99q0 -81 -57 -139t-150 -58q-71 0 -110 37t-39 98q0 85 57 141t145 56zM1212 1659q74 0 114 -36t40 -99q0 -81 -57 -139t-150 -58q-71 0 -110 37t-39 98q0 85 57 141
t145 56z" />
    <glyph glyph-name="Zacute" unicode="&#x179;" horiz-adv-x="1234" 
d="M1167 272l-43 -272h-1110l35 236l780 733l-215 -11h-428l43 271h1071l-34 -213l-789 -754l191 10h499zM649 1411l178 336l215 -125l-217 -307z" />
    <glyph glyph-name="zacute" unicode="&#x17a;" horiz-adv-x="1140" 
d="M166 762l43 262h981l-29 -197l-626 -565h534l-41 -262h-997l39 217l610 545h-514zM592 1196l168 309l219 -108l-205 -287z" />
    <glyph glyph-name="Zdotaccent" unicode="&#x17b;" horiz-adv-x="1234" 
d="M1167 272l-43 -272h-1110l35 236l780 733l-215 -11h-428l43 271h1071l-34 -213l-789 -754l191 10h499zM852 1663q74 0 114 -36t40 -99q0 -82 -56 -139.5t-149 -57.5q-71 0 -111.5 38t-40.5 97q0 85 57.5 141t145.5 56z" />
    <glyph glyph-name="zdotaccent" unicode="&#x17c;" horiz-adv-x="1140" 
d="M166 762l43 262h981l-29 -197l-626 -565h534l-41 -262h-997l39 217l610 545h-514zM737 1403q66 0 100.5 -32.5t34.5 -86.5q0 -71 -51 -120.5t-131 -49.5q-61 0 -95 32t-34 83q0 75 49 124.5t127 49.5z" />
    <glyph glyph-name="Zcaron" unicode="&#x17d;" horiz-adv-x="1234" 
d="M1167 272l-43 -272h-1110l35 236l780 733l-215 -11h-428l43 271h1071l-34 -213l-789 -754l191 10h499zM520 1554l123 129l166 -139l246 139l88 -129l-318 -258h-67z" />
    <glyph glyph-name="zcaron" unicode="&#x17e;" horiz-adv-x="1140" 
d="M166 762l43 262h981l-29 -197l-626 -565h534l-41 -262h-997l39 217l610 545h-514zM465 1337l121 127l164 -116l227 116l82 -127l-303 -243h-64z" />
    <glyph glyph-name="longs" unicode="&#x17f;" horiz-adv-x="706" 
d="M63 0l168 1057q15 97 67.5 177.5t129.5 133.5q122 84 311 84q118 0 210.5 -28t185.5 -93l-123 -207q-134 70 -252 70q-99 0 -142 -43q-39 -43 -49 -107l-166 -1044h-340z" />
    <glyph glyph-name="florin" unicode="&#x192;" horiz-adv-x="980" 
d="M12 -367l-28 203q93 23 149 76q54 57 64 129l114 729h-161l34 223l166 19l6 45q17 97 70 176.5t131 132.5q125 86 307 86q230 0 396 -125l-144 -197q-117 64 -231 64q-100 0 -140 -43q-41 -41 -51 -107l-2 -20h328l-39 -236l-330 -14l-114 -733q-28 -183 -185 -297
q-137 -98 -340 -111z" />
    <glyph glyph-name="uni0200" unicode="&#x200;" horiz-adv-x="1562" 
d="M743 1229h369l350 -1229h-368l-39 162h-590l-94 -162h-367zM866 901l-245 -471h362l-94 471h-23zM1128 1761l17 -379l-191 -30l-69 358zM793 1747l77 -371l-188 -51l-123 336z" />
    <glyph glyph-name="uni0201" unicode="&#x201;" horiz-adv-x="1368" 
d="M1348 1024l-115 -725q-10 -72 -10 -117q0 -62 18 -139l-221 -55q-65 35 -92 102q-77 -59 -159 -83.5t-196 -24.5q-262 0 -387 153q-84 104 -84 268q0 141 56 273.5t164 222.5q173 143 430 143q164 0 290 -90l52 72h254zM895 307l68 420q-94 61 -218 61q-109 0 -184 -63
q-55 -45 -85 -117t-30 -153q0 -87 48 -144q55 -67 182 -67q65 0 114.5 14.5t104.5 48.5zM973 1489l14 -334l-168 -31l-67 316zM672 1483l78 -326l-170 -45l-119 303z" />
    <glyph glyph-name="uni0202" unicode="&#x202;" horiz-adv-x="1562" 
d="M743 1229h369l350 -1229h-368l-39 162h-590l-94 -162h-367zM866 901l-245 -471h362l-94 471h-23zM719 1296l-82 129l317 258h68l238 -258l-125 -129l-181 138z" />
    <glyph glyph-name="uni0203" unicode="&#x203;" horiz-adv-x="1368" 
d="M1348 1024l-115 -725q-10 -72 -10 -117q0 -62 18 -139l-221 -55q-65 35 -92 102q-77 -59 -159 -83.5t-196 -24.5q-262 0 -387 153q-84 104 -84 268q0 141 56 273.5t164 222.5q173 143 430 143q164 0 290 -90l52 72h254zM895 307l68 420q-94 61 -218 61q-109 0 -184 -63
q-55 -45 -85 -117t-30 -153q0 -87 48 -144q55 -67 182 -67q65 0 114.5 14.5t104.5 48.5zM1112 1221l-121 -127l-176 120l-227 -120l-82 127l309 243h64z" />
    <glyph glyph-name="uni0204" unicode="&#x204;" horiz-adv-x="1280" 
d="M74 0l194 1229h1051l-43 -271h-694l-31 -194h614l-43 -264h-614l-35 -230h719l-43 -270h-1075zM1079 1761l17 -379l-191 -30l-69 358zM743 1747l78 -371l-188 -51l-123 336z" />
    <glyph glyph-name="uni0205" unicode="&#x205;" horiz-adv-x="1275" 
d="M1067 279l29 -218q-194 -79 -463 -79q-136 0 -245 36t-169 101q-115 124 -115 305q0 139 59.5 268.5t170.5 214.5q83 65 205 100t252 35q225 0 350 -92q114 -82 114 -233q0 -180 -149 -268q-153 -89 -537 -89q-57 0 -118 7q0 -75 69 -107q57 -29 170 -29q178 0 377 48z
M479 598q213 0 312 12q80 10 108.5 29.5t28.5 50.5q0 40 -33 66q-45 37 -152 37q-106 0 -170 -45q-34 -22 -60.5 -61.5t-33.5 -88.5zM958 1489l15 -334l-168 -31l-68 316zM657 1483l78 -326l-170 -45l-119 303z" />
    <glyph glyph-name="uni0206" unicode="&#x206;" horiz-adv-x="1280" 
d="M74 0l194 1229h1051l-43 -271h-694l-31 -194h614l-43 -264h-614l-35 -230h719l-43 -270h-1075zM623 1296l-82 129l317 258h68l237 -258l-125 -129l-180 138z" />
    <glyph glyph-name="uni0207" unicode="&#x207;" horiz-adv-x="1275" 
d="M1067 279l29 -218q-194 -79 -463 -79q-136 0 -245 36t-169 101q-115 124 -115 305q0 139 59.5 268.5t170.5 214.5q83 65 205 100t252 35q225 0 350 -92q114 -82 114 -233q0 -180 -149 -268q-153 -89 -537 -89q-57 0 -118 7q0 -75 69 -107q57 -29 170 -29q178 0 377 48z
M479 598q213 0 312 12q80 10 108.5 29.5t28.5 50.5q0 40 -33 66q-45 37 -152 37q-106 0 -170 -45q-34 -22 -60.5 -61.5t-33.5 -88.5zM1116 1221l-121 -127l-176 120l-227 -120l-82 127l309 243h64z" />
    <glyph glyph-name="uni0208" unicode="&#x208;" horiz-adv-x="602" 
d="M268 1229h357l-195 -1229h-356zM725 1761l16 -379l-190 -30l-70 358zM389 1747l78 -371l-188 -51l-123 336z" />
    <glyph glyph-name="uni0209" unicode="&#x209;" horiz-adv-x="612" 
d="M129 807l35 217h448l-161 -1024h-338l125 786zM641 1489l14 -334l-168 -31l-67 316zM340 1483l78 -326l-170 -45l-119 303z" />
    <glyph glyph-name="uni020A" unicode="&#x20a;" horiz-adv-x="602" 
d="M268 1229h357l-195 -1229h-356zM240 1296l-82 129l317 258h68l237 -258l-125 -129l-180 138z" />
    <glyph glyph-name="uni020B" unicode="&#x20b;" horiz-adv-x="612" 
d="M129 807l35 217h448l-161 -1024h-338l125 786zM780 1221l-121 -127l-176 120l-227 -120l-82 127l309 243h64z" />
    <glyph glyph-name="uni020C" unicode="&#x20c;" horiz-adv-x="1486" 
d="M1063 899q-75 90 -211 90q-141 0 -238 -90q-72 -64 -106.5 -168.5t-34.5 -222.5q0 -105 39 -166q67 -102 221 -102q157 0 256 106q61 65 92 163t31 204q0 120 -49 186zM109 489q0 166 69 322.5t199 263.5q211 176 518 176q137 0 253.5 -43.5t194.5 -122.5
q130 -133 130 -350q0 -156 -59 -305t-173 -252q-220 -201 -549 -201q-147 0 -266 42.5t-195 123.5q-122 135 -122 346zM1147 1761l16 -379l-190 -30l-70 358zM811 1747l78 -371l-189 -51l-122 336z" />
    <glyph glyph-name="uni020D" unicode="&#x20d;" horiz-adv-x="1280" 
d="M772 1042q238 0 373 -120q131 -115 131 -322q0 -142 -57.5 -265.5t-171.5 -213.5q-86 -67 -201 -103t-242 -36q-228 0 -360 114q-142 119 -142 332q0 136 51.5 251t145.5 198q89 80 211.5 122.5t261.5 42.5zM733 788q-131 0 -207 -86q-80 -92 -80 -256q0 -104 52 -159
q51 -51 147 -51q118 0 186 65q103 95 103 277q0 106 -55 161q-52 49 -146 49zM977 1489l14 -334l-168 -31l-67 316zM676 1483l78 -326l-170 -45l-119 303z" />
    <glyph glyph-name="uni020E" unicode="&#x20e;" horiz-adv-x="1486" 
d="M1063 899q-75 90 -211 90q-141 0 -238 -90q-72 -64 -106.5 -168.5t-34.5 -222.5q0 -105 39 -166q67 -102 221 -102q157 0 256 106q61 65 92 163t31 204q0 120 -49 186zM109 489q0 166 69 322.5t199 263.5q211 176 518 176q137 0 253.5 -43.5t194.5 -122.5
q130 -133 130 -350q0 -156 -59 -305t-173 -252q-220 -201 -549 -201q-147 0 -266 42.5t-195 123.5q-122 135 -122 346zM696 1296l-82 129l318 258h67l238 -258l-125 -129l-180 138z" />
    <glyph glyph-name="uni020F" unicode="&#x20f;" horiz-adv-x="1280" 
d="M772 1042q238 0 373 -120q131 -115 131 -322q0 -142 -57.5 -265.5t-171.5 -213.5q-86 -67 -201 -103t-242 -36q-228 0 -360 114q-142 119 -142 332q0 136 51.5 251t145.5 198q89 80 211.5 122.5t261.5 42.5zM733 788q-131 0 -207 -86q-80 -92 -80 -256q0 -104 52 -159
q51 -51 147 -51q118 0 186 65q103 95 103 277q0 106 -55 161q-52 49 -146 49zM1114 1221l-121 -127l-176 120l-227 -120l-82 127l309 243h64z" />
    <glyph glyph-name="uni0210" unicode="&#x210;" horiz-adv-x="1349" 
d="M268 1229h627q247 0 369 -131q86 -92 86 -236q0 -154 -84 -276q-83 -119 -232 -183l180 -403h-378l-125 342h-224l-53 -342h-360zM586 965l-56 -357h232q89 0 147 49q76 66 76 174q0 68 -39 101q-41 33 -108 33h-252zM1036 1761l17 -379l-191 -30l-69 358zM700 1747
l78 -371l-188 -51l-123 336z" />
    <glyph glyph-name="uni0211" unicode="&#x211;" horiz-adv-x="1175" 
d="M244 1024h237l41 -78q125 96 299 96q123 0 211 -28t185 -103l-187 -227q-129 100 -270 100q-121 0 -228 -67l-114 -717h-338zM991 1489l15 -334l-168 -31l-68 316zM690 1483l78 -326l-170 -45l-119 303z" />
    <glyph glyph-name="uni0212" unicode="&#x212;" horiz-adv-x="1349" 
d="M268 1229h627q247 0 369 -131q86 -92 86 -236q0 -154 -84 -276q-83 -119 -232 -183l180 -403h-378l-125 342h-224l-53 -342h-360zM586 965l-56 -357h232q89 0 147 49q76 66 76 174q0 68 -39 101q-41 33 -108 33h-252zM575 1296l-81 129l317 258h68l237 -258l-125 -129
l-180 138z" />
    <glyph glyph-name="uni0213" unicode="&#x213;" horiz-adv-x="1175" 
d="M244 1024h237l41 -78q125 96 299 96q123 0 211 -28t185 -103l-187 -227q-129 100 -270 100q-121 0 -228 -67l-114 -717h-338zM1096 1221l-121 -127l-176 120l-227 -120l-82 127l309 243h64z" />
    <glyph glyph-name="uni0214" unicode="&#x214;" horiz-adv-x="1435" 
d="M268 1229h361l-111 -705q-6 -41 -6 -80q0 -88 39 -139q47 -59 156 -59q126 0 196 73q71 77 90 205l111 705h354l-108 -688q-22 -138 -82 -251t-148 -184q-160 -129 -456 -129q-262 0 -400 144q-112 115 -112 313q0 58 8 107zM1075 1761l17 -379l-191 -30l-70 358z
M739 1747l78 -371l-188 -51l-123 336z" />
    <glyph glyph-name="uni0215" unicode="&#x215;" horiz-adv-x="1329" 
d="M233 1024h340l-88 -563q-6 -38 -6 -66q0 -64 31 -106q45 -51 135 -51q121 0 229 65l113 721h340l-162 -1024h-237l-41 78q-64 -42 -149 -69t-173 -27q-235 0 -338 106q-94 94 -94 254q0 51 8 98zM1010 1489l14 -334l-168 -31l-68 316zM709 1483l77 -326l-170 -45
l-118 303z" />
    <glyph glyph-name="uni0216" unicode="&#x216;" horiz-adv-x="1435" 
d="M268 1229h361l-111 -705q-6 -41 -6 -80q0 -88 39 -139q47 -59 156 -59q126 0 196 73q71 77 90 205l111 705h354l-108 -688q-22 -138 -82 -251t-148 -184q-160 -129 -456 -129q-262 0 -400 144q-112 115 -112 313q0 58 8 107zM676 1296l-82 129l317 258h68l238 -258
l-125 -129l-181 138z" />
    <glyph glyph-name="uni0217" unicode="&#x217;" horiz-adv-x="1329" 
d="M233 1024h340l-88 -563q-6 -38 -6 -66q0 -64 31 -106q45 -51 135 -51q121 0 229 65l113 721h340l-162 -1024h-237l-41 78q-64 -42 -149 -69t-173 -27q-235 0 -338 106q-94 94 -94 254q0 51 8 98zM1139 1221l-121 -127l-176 120l-227 -120l-82 127l309 243h64z" />
    <glyph glyph-name="Scommaaccent" unicode="&#x218;" horiz-adv-x="1357" 
d="M1337 1155l-123 -252q-221 74 -417 74q-145 0 -215 -25q-34 -12 -48 -28.5t-14 -42.5q0 -34 24.5 -51.5t86.5 -26.5l313 -43q203 -30 287 -129q69 -82 69 -187q0 -108 -59 -204.5t-160 -155.5q-186 -107 -487 -107q-158 0 -278 21.5t-265 79.5l94 270q251 -84 473 -84
q187 0 265 47q51 28 51 74q0 33 -22.5 48.5t-77.5 23.5l-304 39q-189 24 -284 104q-90 77 -90 201q0 213 186 338q173 112 479 112q294 0 516 -96zM442 -569l60 194q-40 10 -62 43t-22 80q0 84 56 141.5t147 57.5q70 0 108.5 -36t38.5 -95q0 -61 -29 -115l-159 -297z" />
    <glyph glyph-name="scommaaccent" unicode="&#x219;" horiz-adv-x="1202" 
d="M1190 946l-115 -217q-199 62 -379 62q-123 0 -174 -19q-47 -17 -47 -53q0 -19 12 -31q14 -14 54 -18l272 -21q177 -14 258 -82q78 -65 78 -172q0 -91 -47.5 -175.5t-128.5 -135.5q-161 -102 -463 -102q-253 0 -463 100l113 231q174 -77 370 -77q160 0 224 26
q21 7 39 24.5t18 41.5q0 20 -12 32q-22 19 -82 23l-271 20q-171 12 -249 99q-58 61 -58 155q0 95 54 177.5t145 132.5q138 75 397 75q231 0 455 -96zM381 -549l55 187q-38 9 -58 39t-20 75q0 91 52.5 141t140.5 50q67 0 104 -35t37 -92q0 -53 -28 -107l-152 -282z" />
    <glyph glyph-name="uni021A" unicode="&#x21a;" horiz-adv-x="1316" 
d="M158 965l43 264h1214l-43 -264h-428l-151 -965h-361l152 965h-426zM426 -600l59 194q-40 10 -62 43t-22 80q0 84 56 141.5t147 57.5q70 0 109 -36t39 -95q0 -61 -29 -115l-160 -297z" />
    <glyph glyph-name="uni021B" unicode="&#x21b;" horiz-adv-x="1011" 
d="M113 770l34 223l175 23l98 250h272l-37 -242h389l-36 -231l-394 -19l-61 -391q-2 -10 -2 -29q0 -50 32.5 -77t88.5 -27q126 0 272 51l43 -205q-96 -61 -199.5 -87.5t-238.5 -26.5q-213 0 -295 114q-51 66 -51 178q0 49 8 93l63 403h-161zM373 -573l55 186q-38 9 -58 39.5
t-20 75.5q0 91 52.5 140.5t140.5 49.5q67 0 104 -35t37 -92q0 -50 -29 -106l-151 -283z" />
    <glyph glyph-name="dotlessj" unicode="&#x237;" horiz-adv-x="612" 
d="M125 807l35 217h448l-162 -1022q-36 -209 -163 -313q-133 -109 -357 -109q-115 0 -191.5 21t-168.5 71l123 228q73 -32 127.5 -43t126.5 -11q74 0 116 45q41 41 50 111l124 784z" />
    <glyph glyph-name="circumflex" unicode="&#x2c6;" horiz-adv-x="770" 
d="M860 1221l-121 -127l-176 120l-227 -120l-82 127l309 243h64z" />
    <glyph glyph-name="caron" unicode="&#x2c7;" horiz-adv-x="757" 
d="M274 1337l121 127l164 -116l227 116l82 -127l-303 -243h-63z" />
    <glyph glyph-name="uni02C9" unicode="&#x2c9;" horiz-adv-x="710" 
d="M197 1530h669l-35 -225h-667z" />
    <glyph glyph-name="breve" unicode="&#x2d8;" horiz-adv-x="819" 
d="M303 1399l197 18q0 -52 26 -78q21 -24 68 -24q44 0 72 22q40 29 51 80l209 -18q-34 -134 -131 -211q-95 -74 -226 -74q-127 0 -200 76q-66 66 -66 209z" />
    <glyph glyph-name="dotaccent" unicode="&#x2d9;" horiz-adv-x="471" 
d="M266 276q66 0 100.5 -32t34.5 -86q0 -71 -51 -120.5t-131 -49.5q-61 0 -95 31.5t-34 82.5q0 75 49 124.5t127 49.5z" />
    <glyph glyph-name="ring" unicode="&#x2da;" horiz-adv-x="651" 
d="M475 1116q-109 0 -168 68q-43 49 -43 137q0 109 90 192q80 74 197 74q108 0 168 -80q39 -48 39 -125q0 -129 -105 -211q-73 -55 -178 -55zM498 1268q47 0 77 30q29 29 29 76q0 34 -22.5 52t-57.5 18q-49 0 -78 -29q-28 -28 -28 -69q0 -37 21 -57.5t59 -20.5z" />
    <glyph glyph-name="ogonek" unicode="&#x2db;" horiz-adv-x="471" 
d="M260 18l107 -20q-41 -26 -58 -59q-22 -39 -22 -82q0 -36 16 -60q20 -30 57 -49l-69 -88q-103 0 -158 43q-47 38 -47 102q0 87 55 142q46 46 119 71z" />
    <glyph glyph-name="tilde" unicode="&#x2dc;" horiz-adv-x="913" 
d="M592 1161q-87 33 -150 33q-81 0 -135 -35l-61 141q127 95 241 95q69 0 142 -25q81 -33 166 -33q71 0 129 33l61 -137q-103 -103 -227 -103q-90 0 -166 31z" />
    <glyph glyph-name="hungarumlaut" unicode="&#x2dd;" horiz-adv-x="708" 
d="M205 1178l102 319l211 -63l-160 -310zM473 1182l154 309l192 -80l-190 -293z" />
    <glyph glyph-name="afii10023" unicode="&#x401;" horiz-adv-x="1280" 
d="M74 0l194 1229h1051l-43 -271h-694l-31 -194h614l-43 -264h-614l-35 -230h719l-43 -270h-1075zM643 1659q74 0 114 -36t40 -99q0 -81 -57 -139t-150 -58q-72 0 -111 37.5t-39 97.5q0 85 57.5 141t145.5 56zM1116 1659q74 0 114 -36t40 -99q0 -81 -57 -139t-150 -58
q-72 0 -111 37.5t-39 97.5q0 85 57.5 141t145.5 56z" />
    <glyph glyph-name="afii10051" unicode="&#x402;" horiz-adv-x="1685" 
d="M170 985l39 244h1173l-39 -244h-411l-23 -141q134 76 291 76q220 0 324 -107q94 -94 94 -254q0 -51 -8 -98l-51 -318q-23 -148 -107 -269t-223 -204l-172 119q71 88 108 163.5t52 170.5l49 317q6 34 6 62q0 67 -33 106q-42 51 -137 51q-124 0 -232 -65l-94 -594h-356
l155 985h-405z" />
    <glyph glyph-name="afii10052" unicode="&#x403;" horiz-adv-x="1234" 
d="M74 0l194 1229h1030l-43 -264h-667l-152 -965h-362zM735 1411l178 336l215 -125l-217 -307z" />
    <glyph glyph-name="afii10053" unicode="&#x404;" horiz-adv-x="1331" 
d="M1100 768l-43 -272h-588q0 -26 6 -50q10 -37 45 -84q87 -114 281 -114q100 0 176 16.5t197 61.5l61 -230q-132 -66 -248 -92.5t-254 -26.5q-322 0 -502 195q-120 133 -120 332q0 175 78 338t223 264q209 145 522 145q142 0 247 -22t218 -86l-135 -236q-108 41 -186 58.5
t-163 17.5q-179 0 -294 -86q-72 -59 -103 -129h582z" />
    <glyph glyph-name="afii10054" unicode="&#x405;" horiz-adv-x="1357" 
d="M1337 1155l-123 -252q-221 74 -417 74q-145 0 -215 -25q-34 -12 -48 -28.5t-14 -42.5q0 -34 24.5 -51.5t86.5 -26.5l313 -43q203 -30 287 -129q69 -82 69 -187q0 -108 -59 -204.5t-160 -155.5q-186 -107 -487 -107q-158 0 -278 21.5t-265 79.5l94 270q251 -84 473 -84
q187 0 265 47q51 28 51 74q0 33 -22.5 48.5t-77.5 23.5l-304 39q-189 24 -284 104q-90 77 -90 201q0 213 186 338q173 112 479 112q294 0 516 -96z" />
    <glyph glyph-name="uni0406" unicode="&#x406;" horiz-adv-x="602" 
d="M268 1229h357l-195 -1229h-356z" />
    <glyph glyph-name="afii10056" unicode="&#x407;" horiz-adv-x="602" 
d="M268 1229h357l-195 -1229h-356zM289 1659q74 0 113.5 -36t39.5 -99q0 -82 -56.5 -139.5t-149.5 -57.5q-72 0 -111 37.5t-39 97.5q0 85 57.5 141t145.5 56zM762 1659q74 0 113.5 -36t39.5 -99q0 -82 -56.5 -139.5t-149.5 -57.5q-72 0 -111 37.5t-39 97.5q0 85 57.5 141
t145.5 56z" />
    <glyph glyph-name="afii10057" unicode="&#x408;" horiz-adv-x="1138" 
d="M805 1229h356l-114 -725q-42 -263 -230 -402q-168 -125 -438 -125q-212 0 -383 86l100 238q133 -55 303 -55q124 0 203 76q73 73 90 190z" />
    <glyph glyph-name="afii10058" unicode="&#x409;" horiz-adv-x="2220" 
d="M580 1229h970l-53 -342h246q250 0 362 -133q72 -84 72 -215q0 -124 -51 -236t-150 -186q-154 -117 -379 -117h-602l154 965h-307l-185 -631q-51 -169 -163 -258q-117 -90 -277 -90q-147 0 -252 32l86 242q60 -16 123 -16q52 0 92 35q37 37 51 88zM1454 621l-57 -355h198
q91 0 148 45q82 60 82 176q0 51 -23 80q-42 54 -149 54h-199z" />
    <glyph glyph-name="afii10059" unicode="&#x40a;" horiz-adv-x="2127" 
d="M268 1229h355l-70 -441h481l70 441h354l-55 -342h246q252 0 364 -133q72 -84 72 -219q0 -122 -51.5 -233.5t-149.5 -184.5q-154 -117 -379 -117h-596l82 516h-481l-82 -516h-354zM1362 621l-57 -357h198q88 0 148 45q38 29 60 75.5t22 98.5q0 46 -23 84q-39 54 -149 54
h-199z" />
    <glyph glyph-name="afii10060" unicode="&#x40b;" horiz-adv-x="1685" 
d="M197 1229h1173l-39 -244h-411l-23 -141q134 76 291 76q114 0 190.5 -25.5t132.5 -81.5q93 -93 93 -250q0 -47 -9 -102l-71 -461h-340l69 440q7 40 7 62q0 67 -33 106q-45 51 -137 51q-127 0 -232 -65l-94 -594h-356l155 985h-405z" />
    <glyph glyph-name="afii10061" unicode="&#x40c;" horiz-adv-x="1431" 
d="M266 1229h359l-70 -447h166l219 291q67 90 170 135q84 37 197 37q93 0 176 -24l-66 -238h-65q-47 0 -82 -14q-40 -20 -60 -49l-198 -263l307 -657h-391l-219 516h-197l-82 -516h-358zM778 1411l178 336l215 -125l-217 -307z" />
    <glyph glyph-name="afii10062" unicode="&#x40e;" horiz-adv-x="1441" 
d="M1153 1229h383l-582 -926q-115 -178 -227 -250q-120 -76 -301 -76q-100 0 -188 23l71 236h137q45 0 76 22q30 20 47 55l-372 916h399l199 -651h8zM604 1624l215 21q0 -54 25 -82q28 -25 71 -25q47 0 80 23q43 32 56 84l223 -21q-42 -153 -129 -223q-97 -82 -256 -82
q-141 0 -219 94q-63 78 -66 211z" />
    <glyph glyph-name="afii10145" unicode="&#x40f;" horiz-adv-x="1443" 
d="M1282 0h-436l-60 -256h-268l21 256h-455l195 1229h358l-154 -965h482l153 965h359z" />
    <glyph glyph-name="afii10017" unicode="&#x410;" horiz-adv-x="1562" 
d="M743 1229h369l350 -1229h-368l-39 162h-590l-94 -162h-367zM866 901l-245 -471h362l-94 471h-23z" />
    <glyph glyph-name="afii10018" unicode="&#x411;" horiz-adv-x="1337" 
d="M268 1229h996l-43 -264h-646l-22 -150h293q232 0 344 -96q98 -85 98 -227q0 -222 -131 -347q-151 -145 -444 -145h-639zM512 553l-47 -289h276q83 0 131 39q29 23 47.5 59t18.5 76q0 49 -29 78q-37 37 -121 37h-276z" />
    <glyph glyph-name="afii10019" unicode="&#x412;" horiz-adv-x="1370" 
d="M268 1229h672q225 0 328 -92q71 -62 71 -170q0 -95 -43 -174q-42 -80 -122 -125l-3 -13q70 -32 107 -90.5t37 -134.5q0 -91 -48 -177t-128 -144q-145 -109 -367 -109h-698zM510 514l-39 -248h334q74 0 121 41q43 43 43 117q0 50 -30 70t-95 20h-334zM582 963l-31 -199
h301q59 0 90 31q39 36 39 92q0 76 -92 76h-307z" />
    <glyph glyph-name="afii10020" unicode="&#x413;" horiz-adv-x="1234" 
d="M74 0l194 1229h1030l-43 -264h-667l-152 -965h-362z" />
    <glyph glyph-name="afii10021" unicode="&#x414;" horiz-adv-x="1538" 
d="M512 1229h995l-151 -965h133l-80 -506h-301l16 242h-786l-68 -242h-295l76 500h33q80 0 129 43q51 42 74 129zM776 965l-153 -543q-24 -81 -76 -158h457l110 701h-338z" />
    <glyph glyph-name="afii10022" unicode="&#x415;" horiz-adv-x="1280" 
d="M74 0l194 1229h1051l-43 -271h-694l-31 -194h614l-43 -264h-614l-35 -230h719l-43 -270h-1075z" />
    <glyph glyph-name="afii10024" unicode="&#x416;" horiz-adv-x="2054" 
d="M995 1229h351l-70 -447h141l137 248q58 107 144 162q85 53 213 53q97 0 209 -24l-72 -222h-82q-44 0 -80 -22q-28 -22 -49 -57l-170 -267l275 -653h-373l-183 516h-153l-82 -516h-350l82 516h-144l-356 -516h-375l484 668l-82 252q-8 32 -33 57q-22 22 -72 22h-82l-2 222
q117 24 217 24q124 0 197 -53q64 -52 90 -162l59 -248h142z" />
    <glyph glyph-name="afii10025" unicode="&#x417;" horiz-adv-x="1366" 
d="M399 788h432q67 0 97 33q24 27 24 78q0 34 -26 57q-41 33 -181 33q-202 0 -460 -78l-41 226q266 114 577 114q298 0 418 -110q74 -67 74 -176q0 -103 -51 -172q-35 -50 -99 -86l-2 -13q76 -30 117 -92q37 -56 37 -133q0 -111 -62 -215t-163 -166q-178 -111 -482 -111
q-336 0 -579 127l129 242q239 -96 473 -96q182 0 256 53q69 51 69 129q0 53 -36 76q-31 22 -91 22h-471z" />
    <glyph glyph-name="afii10026" unicode="&#x418;" horiz-adv-x="1468" 
d="M621 1229l-115 -719l651 719h334l-195 -1229h-354l113 717l-649 -717h-332l194 1229h353z" />
    <glyph glyph-name="afii10027" unicode="&#x419;" horiz-adv-x="1468" 
d="M621 1229l-115 -719l651 719h334l-195 -1229h-354l113 717l-649 -717h-332l194 1229h353zM616 1624l215 21q0 -54 25 -82q28 -25 72 -25q47 0 80 23q41 31 55 84l223 -21q-42 -153 -129 -223q-97 -82 -256 -82q-141 0 -219 94q-63 78 -66 211z" />
    <glyph glyph-name="afii10028" unicode="&#x41a;" horiz-adv-x="1431" 
d="M266 1229h359l-70 -447h166l219 291q67 90 170 135q84 37 197 37q93 0 176 -24l-66 -238h-65q-47 0 -82 -14q-40 -20 -60 -49l-198 -263l307 -657h-391l-219 516h-197l-82 -516h-358z" />
    <glyph glyph-name="afii10029" unicode="&#x41b;" horiz-adv-x="1548" 
d="M580 1229h991l-195 -1229h-360l153 965h-327l-185 -631q-51 -169 -163 -258q-117 -90 -277 -90q-147 0 -252 32l86 242q60 -16 123 -16q52 0 92 35q37 37 51 88z" />
    <glyph glyph-name="afii10030" unicode="&#x41c;" horiz-adv-x="1863" 
d="M268 1229h510l160 -879l424 879h524l-194 -1229h-346l139 819h-21l-403 -819h-369l-155 819h-21l-119 -819h-323z" />
    <glyph glyph-name="afii10031" unicode="&#x41d;" horiz-adv-x="1456" 
d="M1124 1229h355l-195 -1229h-354l82 516h-502l-82 -516h-354l194 1229h355l-70 -441h502z" />
    <glyph glyph-name="afii10032" unicode="&#x41e;" horiz-adv-x="1486" 
d="M1063 899q-75 90 -211 90q-141 0 -238 -90q-72 -64 -106.5 -168.5t-34.5 -222.5q0 -105 39 -166q67 -102 221 -102q157 0 256 106q61 65 92 163t31 204q0 120 -49 186zM109 489q0 166 69 322.5t199 263.5q211 176 518 176q137 0 253.5 -43.5t194.5 -122.5
q130 -133 130 -350q0 -156 -59 -305t-173 -252q-220 -201 -549 -201q-147 0 -266 42.5t-195 123.5q-122 135 -122 346z" />
    <glyph glyph-name="afii10033" unicode="&#x41f;" horiz-adv-x="1445" 
d="M268 1229h1200l-194 -1229h-359l152 965h-481l-152 -965h-360z" />
    <glyph glyph-name="afii10034" unicode="&#x420;" horiz-adv-x="1337" 
d="M268 1229h619q107 0 199.5 -31.5t154.5 -91.5q102 -99 102 -254q0 -109 -44 -212.5t-128 -174.5q-180 -154 -450 -154h-240l-49 -311h-358zM584 965l-62 -390h207q104 0 168 52q82 67 82 190q0 55 -31 94q-45 54 -143 54h-221z" />
    <glyph glyph-name="afii10035" unicode="&#x421;" horiz-adv-x="1341" 
d="M1399 1143l-133 -230q-102 39 -181.5 54.5t-169.5 15.5q-85 0 -168.5 -29.5t-136.5 -79.5q-63 -58 -99 -143t-36 -182q0 -102 47 -176q37 -56 112.5 -90.5t164.5 -34.5q101 0 177.5 16.5t197.5 61.5l61 -230q-132 -66 -248 -92.5t-254 -26.5q-322 0 -502 195
q-120 133 -120 332q0 168 73 322.5t209 254.5q231 170 541 170q142 0 247 -22t218 -86z" />
    <glyph glyph-name="afii10036" unicode="&#x422;" horiz-adv-x="1316" 
d="M158 965l43 264h1214l-43 -264h-428l-151 -965h-361l152 965h-426z" />
    <glyph glyph-name="afii10037" unicode="&#x423;" horiz-adv-x="1441" 
d="M1153 1229h383l-582 -926q-115 -178 -227 -250q-120 -76 -301 -76q-100 0 -188 23l71 236h137q45 0 76 22q30 20 47 55l-372 916h399l199 -651h8z" />
    <glyph glyph-name="afii10038" unicode="&#x424;" horiz-adv-x="1873" 
d="M905 1251h357l-21 -135h117q234 0 368 -110q132 -107 132 -293q0 -126 -50.5 -245t-146.5 -198q-172 -141 -461 -141h-117l-20 -129h-356l20 129h-115q-281 0 -411 145q-90 99 -90 254q0 142 65.5 271.5t185.5 206.5q168 110 408 110h115zM842 852h-125q-98 0 -160 -55
q-42 -39 -69 -95.5t-27 -117.5q0 -75 33 -125q22 -28 62.5 -47t88.5 -19h125zM1198 852l-72 -459h125q114 0 185 78q71 84 71 209q0 62 -30 106q-47 66 -154 66h-125z" />
    <glyph glyph-name="afii10039" unicode="&#x425;" horiz-adv-x="1488" 
d="M623 1229l202 -402l308 402h405l-506 -619l357 -610h-410l-225 444l-334 -444h-416l547 655l-332 574h404z" />
    <glyph glyph-name="afii10040" unicode="&#x426;" horiz-adv-x="1486" 
d="M82 0l194 1229h361l-152 -965h461l152 965h360l-151 -965h131l-80 -506h-301l12 242h-987z" />
    <glyph glyph-name="afii10041" unicode="&#x427;" horiz-adv-x="1394" 
d="M1223 0h-359l51 332q-146 -31 -256 -31q-289 0 -419 154q-84 97 -84 258q0 63 12 139l59 377h361l-64 -395q-6 -38 -6 -70q0 -81 39 -129q57 -66 188 -66q102 0 213 27l101 633h358z" />
    <glyph glyph-name="afii10042" unicode="&#x428;" horiz-adv-x="1992" 
d="M74 0l194 1229h350l-153 -965h348l154 965h350l-154 -965h348l154 965h350l-194 -1229h-1747z" />
    <glyph glyph-name="afii10043" unicode="&#x429;" horiz-adv-x="2052" 
d="M82 0l194 1229h349l-152 -965h350l152 965h348l-152 -965h351l151 965h350l-151 -965h131l-80 -506h-301l16 242h-1556z" />
    <glyph glyph-name="afii10044" unicode="&#x42a;" horiz-adv-x="1468" 
d="M166 1229h612l-55 -342h266q253 0 365 -133q71 -83 71 -219q0 -122 -51 -234t-149 -184q-154 -117 -379 -117h-623l154 975l-246 33zM682 621l-57 -357h219q87 0 147 45q80 60 80 172q0 53 -27 88q-46 52 -143 52h-219z" />
    <glyph glyph-name="afii10045" unicode="&#x42b;" horiz-adv-x="1826" 
d="M1298 0l195 1229h356l-194 -1229h-357zM268 1229h361l-56 -342h267q252 0 364 -133q72 -84 72 -219q0 -122 -51.5 -233.5t-149.5 -184.5q-154 -117 -379 -117h-622zM532 621l-57 -357h219q88 0 148 45q38 29 60 75.5t22 98.5q0 46 -23 84q-42 54 -149 54h-220z" />
    <glyph glyph-name="afii10046" unicode="&#x42c;" horiz-adv-x="1318" 
d="M268 1229h361l-56 -342h267q252 0 364 -133q72 -84 72 -219q0 -122 -51.5 -233.5t-149.5 -184.5q-154 -117 -379 -117h-622zM532 621l-57 -357h219q88 0 148 45q38 29 60 75.5t22 98.5q0 46 -23 84q-42 54 -149 54h-220z" />
    <glyph glyph-name="afii10047" unicode="&#x42d;" horiz-adv-x="1331" 
d="M332 496l43 272h586q-11 71 -62 129q-83 86 -270 86q-85 0 -168.5 -17.5t-204.5 -58.5l-61 236q133 64 246 86t255 22q307 0 473 -149q148 -132 148 -363q0 -164 -64 -319t-192 -260q-122 -99 -254.5 -141t-314.5 -42q-138 0 -246 26t-219 93l135 230q99 -42 171 -57
t177 -15q206 0 319 102q63 57 91 140h-588z" />
    <glyph glyph-name="afii10048" unicode="&#x42e;" horiz-adv-x="1925" 
d="M268 1229h359l-74 -465h131q82 232 281 366q178 121 411 121q152 0 268 -50t181 -146q86 -130 86 -312q0 -177 -73 -340t-212 -276q-187 -150 -452 -150q-264 0 -400 136q-141 145 -141 354q0 14 2 20h-127l-76 -487h-358zM1214 240q140 0 230 116q115 142 115 367
q0 116 -46 184q-58 82 -180 82q-128 0 -217 -92q-61 -72 -94 -172.5t-33 -206.5q0 -113 43 -184q56 -94 182 -94z" />
    <glyph glyph-name="afii10049" unicode="&#x42f;" horiz-adv-x="1390" 
d="M1413 1229l-194 -1229h-357l53 342h-262l-235 -342h-389l301 393q-51 27 -94 71.5t-64 88.5q-41 87 -41 174q0 128 58 230t163 171q151 101 375 101h686zM1014 965h-299q-90 0 -152 -50q-67 -60 -67 -153q0 -44 20 -82q46 -72 143 -72h299z" />
    <glyph glyph-name="afii10065" unicode="&#x430;" horiz-adv-x="1368" 
d="M1348 1024l-115 -725q-10 -72 -10 -117q0 -62 18 -139l-221 -55q-65 35 -92 102q-77 -59 -159 -83.5t-196 -24.5q-262 0 -387 153q-84 104 -84 268q0 141 56 273.5t164 222.5q173 143 430 143q164 0 290 -90l52 72h254zM895 307l68 420q-94 61 -218 61q-109 0 -184 -63
q-55 -45 -85 -117t-30 -153q0 -87 48 -144q55 -67 182 -67q65 0 114.5 14.5t104.5 48.5z" />
    <glyph glyph-name="afii10066" unicode="&#x431;" 
d="M838 1399h137q84 0 142.5 9t148.5 38l49 -199q-88 -67 -177.5 -93t-209.5 -26h-154q-99 0 -166 -53q-60 -50 -82 -119q112 37 254 37q241 0 363 -137q98 -112 98 -285q0 -132 -53 -248t-158 -202q-90 -73 -196 -106t-252 -33q-229 0 -353 133q-125 131 -125 379
q0 400 207 663q88 115 225.5 178.5t301.5 63.5zM465 700q-31 -105 -31 -202q0 -117 45 -187q47 -73 142 -73q124 0 194 67q90 90 90 240q0 98 -51 149q-48 45 -135 45q-138 0 -254 -39z" />
    <glyph glyph-name="afii10067" unicode="&#x432;" horiz-adv-x="1236" 
d="M82 20l80 476q46 271 170 401q150 156 465 156q91 0 176.5 -25.5t134.5 -71.5q74 -71 74 -168q0 -62 -29 -118t-82 -84l-2 -11q71 -34 102 -90q29 -53 29 -114q0 -98 -46.5 -181t-125.5 -131q-126 -77 -403 -77q-345 0 -543 38zM477 422l-26 -182q110 -21 243 -21
q87 0 127.5 32t40.5 97q0 35 -26.5 54.5t-71.5 19.5h-287zM514 639h277q35 0 61 23q27 24 27 65q0 43 -29.5 63.5t-93.5 20.5q-121 0 -183 -49q-46 -36 -59 -123z" />
    <glyph glyph-name="afii10068" unicode="&#x433;" horiz-adv-x="1196" 
d="M258 729l-45 221q243 92 483 92q258 0 373 -75q121 -77 121 -215q0 -132 -76 -217q-92 -101 -330 -125l-272 -29q-64 -8 -86 -23q-23 -15 -23 -39q0 -37 39 -53q59 -26 205 -26q172 0 395 63l39 -256q-224 -65 -495 -65q-303 0 -430 102q-93 77 -93 199q0 153 107 245
q57 50 134.5 75t191.5 36l276 27q86 7 86 61q0 31 -35 45q-47 19 -166 19q-189 0 -399 -62z" />
    <glyph glyph-name="afii10069" unicode="&#x434;" horiz-adv-x="1282" 
d="M453 1477q229 0 374.5 -30.5t249.5 -111.5q211 -163 211 -481q0 -200 -60 -390.5t-190 -316.5q-173 -165 -444 -165q-239 0 -375 124q-123 113 -123 304q0 279 211 452q155 129 410 129q132 0 239 -49q-3 169 -163 242q-133 59 -406 59zM932 618q6 40 6 82
q-105 41 -236 41q-126 0 -190 -71q-80 -89 -80 -226q0 -102 66 -159q53 -47 131 -47q119 0 192 90q81 98 111 290z" />
    <glyph glyph-name="afii10070" unicode="&#x435;" horiz-adv-x="1275" 
d="M1067 279l29 -218q-194 -79 -463 -79q-136 0 -245 36t-169 101q-115 124 -115 305q0 139 59.5 268.5t170.5 214.5q83 65 205 100t252 35q225 0 350 -92q114 -82 114 -233q0 -180 -149 -268q-153 -89 -537 -89q-57 0 -118 7q0 -75 69 -107q57 -29 170 -29q178 0 377 48z
M479 598q213 0 312 12q80 10 108.5 29.5t28.5 50.5q0 40 -33 66q-45 37 -152 37q-106 0 -170 -45q-34 -22 -60.5 -61.5t-33.5 -88.5z" />
    <glyph glyph-name="afii10072" unicode="&#x436;" horiz-adv-x="1867" 
d="M889 1024h332l-58 -354h94l115 178q65 103 162 147q80 39 197 39q89 0 170 -24l-62 -230h-67q-50 0 -80 -12q-40 -14 -58 -43l-112 -168l264 -557h-369l-172 426h-121l-65 -426h-332l66 426h-117l-307 -426h-367l438 578l-59 147q-9 27 -45 43q-24 12 -76 12h-67l12 230
q88 24 178 24q111 0 184 -39q78 -44 113 -147l57 -178h94z" />
    <glyph glyph-name="afii10073" unicode="&#x437;" horiz-adv-x="1173" 
d="M311 647h367q45 0 76 23q26 17 26 61q0 21 -12 33q-28 22 -109 22q-214 0 -426 -55l-38 225q130 48 247 67t252 19q238 0 346 -88q76 -62 76 -163q0 -61 -29 -121q-31 -61 -79 -88l-2 -13q61 -25 90 -73q30 -50 30 -117q0 -89 -55 -168t-143 -135q-152 -94 -414 -94
q-172 0 -283.5 23t-216.5 79l119 223q95 -39 191 -54t237 -15q113 0 170 36q47 31 47 78q0 33 -20 47q-22 19 -72 19h-412z" />
    <glyph glyph-name="afii10074" unicode="&#x438;" horiz-adv-x="1329" 
d="M233 1024h340l-88 -563q-6 -38 -6 -66q0 -64 31 -106q45 -51 135 -51q121 0 229 65l113 721h340l-162 -1024h-237l-41 78q-64 -42 -149 -69t-173 -27q-235 0 -338 106q-94 94 -94 254q0 51 8 98z" />
    <glyph glyph-name="afii10075" unicode="&#x439;" horiz-adv-x="1329" 
d="M528 1399l197 18q0 -51 27 -78q21 -24 67 -24q45 0 72 22q40 29 51 80l209 -18q-34 -134 -131 -211q-95 -74 -225 -74q-128 0 -201 76q-66 66 -66 209zM233 1024h340l-88 -563q-6 -38 -6 -66q0 -64 31 -106q45 -51 135 -51q121 0 229 65l113 721h340l-162 -1024h-237
l-41 78q-64 -42 -149 -69t-173 -27q-235 0 -338 106q-94 94 -94 254q0 51 8 98z" />
    <glyph glyph-name="afii10076" unicode="&#x43a;" 
d="M244 1024h338l-56 -350h115l133 174q74 95 172 143q82 43 191 43q89 0 170 -24l-62 -230h-67q-50 0 -80 -12q-33 -11 -58 -43l-133 -166l295 -559h-375l-196 420h-146l-65 -420h-338z" />
    <glyph glyph-name="afii10077" unicode="&#x43b;" horiz-adv-x="1388" 
d="M524 1024h862l-161 -1024h-328l121 770h-264l-162 -479q-56 -160 -137 -225q-91 -76 -246 -76q-133 0 -213 35l61 223h95q52 0 84 18q34 19 55 84z" />
    <glyph glyph-name="afii10078" unicode="&#x43c;" horiz-adv-x="1685" 
d="M899 0h-260l-158 618h-8l-96 -618h-314l162 1024h426l180 -641l394 641h438l-162 -1024h-330l97 618h-8z" />
    <glyph glyph-name="afii10079" unicode="&#x43d;" horiz-adv-x="1325" 
d="M817 0l64 403h-389l-64 -403h-346l162 1024h346l-58 -365h390l57 365h344l-162 -1024h-344z" />
    <glyph glyph-name="afii10080" unicode="&#x43e;" horiz-adv-x="1280" 
d="M772 1042q238 0 373 -120q131 -115 131 -322q0 -142 -57.5 -265.5t-171.5 -213.5q-86 -67 -201 -103t-242 -36q-228 0 -360 114q-142 119 -142 332q0 136 51.5 251t145.5 198q89 80 211.5 122.5t261.5 42.5zM733 788q-131 0 -207 -86q-80 -92 -80 -256q0 -104 52 -159
q51 -51 147 -51q118 0 186 65q103 95 103 277q0 106 -55 161q-52 49 -146 49z" />
    <glyph glyph-name="afii10081" unicode="&#x43f;" horiz-adv-x="1331" 
d="M244 1024h237l41 -78q64 42 149 69t173 27q234 0 340 -106q94 -94 94 -256q0 -49 -8 -96l-94 -584h-340l90 563q6 35 6 62q0 71 -33 110q-42 51 -137 51q-119 0 -227 -65l-115 -721h-340z" />
    <glyph glyph-name="afii10082" unicode="&#x440;" horiz-adv-x="1339" 
d="M256 1024h242l39 -72q74 49 150.5 69.5t172.5 20.5q237 0 361 -127q108 -108 108 -292q0 -135 -51.5 -266t-153.5 -222q-176 -153 -442 -153q-133 0 -246 55l-53 -344h-338zM545 723l-66 -420q72 -59 205 -59q116 0 188 63q53 45 83 117.5t30 150.5q0 93 -47 146
q-60 67 -168 67q-64 0 -115 -15t-110 -50z" />
    <glyph glyph-name="afii10083" unicode="&#x441;" horiz-adv-x="1173" 
d="M1202 963l-115 -218q-99 27 -163 36.5t-140 9.5q-145 0 -243 -95q-92 -89 -92 -231q0 -79 38 -131q59 -88 211 -88q147 0 320 49l43 -232q-206 -81 -436 -81q-280 0 -406 135q-117 123 -117 305q0 282 209 459q194 161 482 161q230 0 409 -79z" />
    <glyph glyph-name="afii10084" unicode="&#x442;" horiz-adv-x="1992" 
d="M244 1024h237l41 -78q129 96 295 96q123 0 191 -24q68 -21 139 -86q80 59 167.5 84.5t207.5 25.5q205 0 309 -98q106 -95 106 -264q0 -45 -10 -117l-90 -563h-338l94 584q4 40 4 55q0 72 -34 109q-38 38 -123 38q-59 0 -103 -15.5t-96 -55.5q2 -23 2 -60q0 -43 -8 -92
l-90 -563h-340l94 584q4 36 4 53q0 60 -22 94q-39 55 -146 55q-105 0 -203 -67l-114 -719h-338z" />
    <glyph glyph-name="afii10085" unicode="&#x443;" horiz-adv-x="1331" 
d="M459 0l-297 1024h362l168 -739h15l354 739h375l-645 -1137q-67 -121 -179 -190q-91 -55 -213 -55q-107 0 -192 39l61 213q80 -13 125 -13q42 0 72 23q36 29 53 73l10 23h-69z" />
    <glyph glyph-name="afii10086" unicode="&#x444;" horiz-adv-x="1933" 
d="M973 1331h327l-55 -340q110 51 240 51q194 0 307 -104q119 -113 119 -309q0 -157 -59 -300t-179 -233q-154 -114 -356 -114q-126 0 -223 47l-54 -336h-327l53 336q-114 -47 -240 -47q-192 0 -309 114q-115 112 -115 305q0 157 63.5 302.5t188.5 234.5q144 104 340 104
q130 0 224 -51zM809 295l68 436q-86 55 -187 55q-91 0 -153 -55q-105 -94 -105 -303q0 -100 51 -145q52 -45 138 -45q94 0 188 57zM1204 729l-67 -434q69 -57 168 -57q88 0 153 45q64 46 93.5 132.5t29.5 186.5q0 84 -37 129q-42 55 -133 55q-101 0 -207 -57z" />
    <glyph glyph-name="afii10087" unicode="&#x445;" horiz-adv-x="1323" 
d="M391 0h-379l422 557l-241 467h385l145 -346h20l238 346h381l-393 -508l262 -516h-387l-162 387h-20z" />
    <glyph glyph-name="afii10088" unicode="&#x446;" horiz-adv-x="1427" 
d="M987 1024h340l-104 -657q-6 -40 -6 -66q0 -51 26.5 -68.5t79.5 -17.5l23 -20q0 -144 -34 -259t-108 -221l-227 66q42 95 57 215q-54 10 -84 37t-53 80q-153 -131 -332 -131q-233 0 -336 106q-94 94 -94 258q0 51 8 98l90 580h340l-88 -563q-6 -38 -6 -66q0 -64 31 -106
q45 -51 135 -51q121 0 229 65z" />
    <glyph glyph-name="afii10089" unicode="&#x447;" horiz-adv-x="1243" 
d="M1079 0h-338l37 238q-105 -31 -211 -31q-252 0 -360 123q-72 84 -72 223q0 41 6 90l62 381h338l-60 -379q-6 -30 -6 -63q0 -54 33 -84q38 -35 129 -35q103 0 182 26l84 535h338z" />
    <glyph glyph-name="afii10090" unicode="&#x448;" horiz-adv-x="1953" 
d="M1796 0h-240l-36 88q-70 -52 -137 -79t-154 -27q-123 0 -191 24q-68 21 -139 86q-79 -58 -169.5 -84t-211.5 -26q-205 0 -309 98q-107 96 -107 264q0 38 11 117l90 563h338l-95 -584q-6 -30 -6 -59q0 -69 41 -107q39 -36 119 -36q60 0 106.5 16t98.5 55q-2 20 -2 60t8 92
l90 563h340l-94 -584q-4 -36 -4 -53q0 -60 22 -94q39 -55 140 -55q104 0 202 67l115 719h338z" />
    <glyph glyph-name="afii10091" unicode="&#x449;" horiz-adv-x="2064" 
d="M1964 1024l-104 -657q-7 -47 -7 -66q0 -51 26.5 -68.5t80.5 -17.5l22 -20q0 -145 -33.5 -259.5t-107.5 -220.5l-227 66q42 95 57 215q-54 10 -84 37t-53 80q-138 -131 -301 -131q-123 0 -191 24q-68 21 -139 86q-79 -58 -169.5 -84t-211.5 -26q-205 0 -309 98
q-107 96 -107 264q0 38 11 117l90 563h338l-94 -584q-7 -35 -7 -59q0 -69 41 -107q39 -36 119 -36q60 0 106.5 16t98.5 55q-2 20 -2 60t8 92l90 563h340l-94 -584q-4 -36 -4 -53q0 -60 22 -94q39 -55 140 -55q104 0 202 67l115 719h338z" />
    <glyph glyph-name="afii10092" unicode="&#x44a;" horiz-adv-x="1343" 
d="M168 1024h537l-46 -289q99 37 238 37q182 0 291 -90q100 -80 100 -221q0 -232 -162 -359q-153 -120 -415 -120q-253 0 -357 129q-75 93 -75 262q0 76 14 153l41 250l-199 31zM623 504l-11 -68q-4 -23 -4 -61q0 -54 31 -94q39 -45 113 -45q89 0 143 43q55 45 55 124
q0 62 -39 89q-41 30 -123 30q-98 0 -165 -18z" />
    <glyph glyph-name="afii10093" unicode="&#x44b;" horiz-adv-x="1685" 
d="M1346 1024h337l-161 -1024h-338zM242 1024h327l-45 -289q99 37 238 37q209 0 309 -100q82 -82 82 -211q0 -232 -162 -359q-153 -120 -416 -120q-252 0 -356 129q-76 95 -76 262q0 71 15 153zM487 504l-10 -68q-4 -23 -4 -61q0 -56 35 -101q33 -38 104 -38q94 0 148 43
q55 45 55 124q0 62 -39 89q-40 30 -123 30q-99 0 -166 -18z" />
    <glyph glyph-name="afii10094" unicode="&#x44c;" horiz-adv-x="1202" 
d="M242 1024h327l-45 -289q99 37 238 37q209 0 309 -100q82 -82 82 -211q0 -232 -162 -359q-153 -120 -416 -120q-252 0 -356 129q-76 95 -76 262q0 71 15 153zM487 504l-10 -68q-4 -23 -4 -61q0 -56 35 -101q33 -38 104 -38q94 0 148 43q55 45 55 124q0 62 -39 89
q-40 30 -123 30q-99 0 -166 -18z" />
    <glyph glyph-name="afii10095" unicode="&#x44d;" horiz-adv-x="1177" 
d="M315 410l39 239h449q-13 51 -47 82q-63 60 -205 60q-137 0 -320 -46l-45 218q208 79 435 79q141 0 249 -35.5t170 -101.5q113 -122 113 -297q0 -140 -60.5 -269.5t-174.5 -221.5q-82 -65 -203 -100t-262 -35q-230 0 -408 81l117 232q158 -49 303 -49q146 0 235 76
q46 43 68 88h-453z" />
    <glyph glyph-name="afii10096" unicode="&#x44e;" horiz-adv-x="1703" 
d="M244 1024h327l-57 -362h100q68 180 238 286q157 94 354 94q249 0 371 -131q104 -110 104 -288q0 -134 -50.5 -263t-147.5 -219q-176 -159 -445 -159q-230 0 -356 129q-111 119 -111 258q0 23 2 37h-100l-63 -406h-328zM1251 307q47 51 69.5 131t22.5 166q0 82 -30 125
q-40 59 -146 59q-100 0 -161 -55q-52 -49 -77.5 -130.5t-25.5 -170.5q0 -83 33 -133q40 -59 143 -59q114 0 172 67z" />
    <glyph glyph-name="afii10097" unicode="&#x44f;" horiz-adv-x="1230" 
d="M1229 1024l-162 -1024h-338l39 252h-133q-39 0 -62 2l-200 -254h-342l268 317q-89 36 -135 127q-29 63 -29 138q0 91 40 179.5t116 149.5q139 113 377 113h561zM850 772h-180q-89 0 -138 -35q-57 -43 -57 -119q0 -39 23 -69q40 -43 120 -43h191z" />
    <glyph glyph-name="afii10071" unicode="&#x451;" horiz-adv-x="1275" 
d="M1067 279l29 -218q-194 -79 -463 -79q-136 0 -245 36t-169 101q-115 124 -115 305q0 139 59.5 268.5t170.5 214.5q83 65 205 100t252 35q225 0 350 -92q114 -82 114 -233q0 -180 -149 -268q-153 -89 -537 -89q-57 0 -118 7q0 -75 69 -107q57 -29 170 -29q178 0 377 48z
M479 598q213 0 312 12q80 10 108.5 29.5t28.5 50.5q0 40 -33 66q-45 37 -152 37q-106 0 -170 -45q-34 -22 -60.5 -61.5t-33.5 -88.5zM654 1413q66 0 100.5 -32.5t34.5 -86.5q0 -71 -51 -120.5t-131 -49.5q-61 0 -95 32t-34 83q0 75 49 124.5t127 49.5zM1065 1413
q66 0 101 -32.5t35 -86.5q0 -71 -51.5 -120.5t-131.5 -49.5q-61 0 -95 32t-34 83q0 75 49 124.5t127 49.5z" />
    <glyph glyph-name="afii10099" unicode="&#x452;" horiz-adv-x="1331" 
d="M299 1372h340l-16 -96h196l-28 -178l-199 -21l-19 -110q132 75 287 75q114 0 191.5 -25.5t132.5 -80.5q94 -94 94 -256q0 -49 -8 -96l-72 -441q-23 -148 -107 -269t-223 -204l-172 119q71 88 108 163.5t52 170.5l70 440q6 35 6 62q0 67 -33 106q-45 51 -137 51
q-122 0 -227 -65l-115 -717h-340l168 1059h-103l31 196l105 11z" />
    <glyph glyph-name="afii10100" unicode="&#x453;" horiz-adv-x="1196" 
d="M258 729l-45 221q243 92 483 92q258 0 373 -75q121 -77 121 -215q0 -132 -76 -217q-92 -101 -330 -125l-272 -29q-64 -8 -86 -23q-23 -15 -23 -39q0 -37 39 -53q59 -26 205 -26q172 0 395 63l39 -256q-224 -65 -495 -65q-303 0 -430 102q-93 77 -93 199q0 153 107 245
q57 50 134.5 75t191.5 36l276 27q86 7 86 61q0 31 -35 45q-47 19 -166 19q-189 0 -399 -62zM655 1196l168 309l219 -108l-204 -287z" />
    <glyph glyph-name="afii10101" unicode="&#x454;" horiz-adv-x="1177" 
d="M946 649l-39 -239h-452q16 -66 41 -93q59 -71 213 -71q146 0 319 49l43 -232q-206 -81 -436 -81q-140 0 -248 35t-168 100q-117 123 -117 305q0 135 64 263.5t176 219.5q173 137 461 137q230 0 409 -79l-114 -218q-99 27 -163 36.5t-140 9.5q-144 0 -226 -60
q-49 -39 -71 -82h448z" />
    <glyph glyph-name="afii10102" unicode="&#x455;" horiz-adv-x="1202" 
d="M1190 946l-115 -217q-199 62 -379 62q-123 0 -174 -19q-47 -17 -47 -53q0 -19 12 -31q14 -14 54 -18l272 -21q177 -14 258 -82q78 -65 78 -172q0 -91 -47.5 -175.5t-128.5 -135.5q-161 -102 -463 -102q-253 0 -463 100l113 231q174 -77 370 -77q160 0 224 26
q21 7 39 24.5t18 41.5q0 20 -12 32q-22 19 -82 23l-271 20q-171 12 -249 99q-58 61 -58 155q0 95 54 177.5t145 132.5q138 75 397 75q231 0 455 -96z" />
    <glyph glyph-name="afii10103" unicode="&#x456;" horiz-adv-x="612" 
d="M164 1024h448l-161 -1024h-338l125 786l-109 21zM514 1477q86 0 133 -41.5t47 -104.5q0 -79 -65 -137.5t-168 -58.5q-83 0 -130.5 41t-47.5 104q0 79 65.5 138t165.5 59z" />
    <glyph glyph-name="afii10104" unicode="&#x457;" horiz-adv-x="612" 
d="M285 1413q65 0 100 -31.5t35 -85.5q0 -72 -49 -122t-131 -50q-63 0 -97 33t-34 86q0 72 50 121t126 49zM655 1413q65 0 100.5 -31.5t35.5 -85.5q0 -72 -49.5 -122t-131.5 -50q-63 0 -97 33t-34 86q0 72 50 121t126 49zM129 807l35 217h448l-161 -1024h-338l125 786z" />
    <glyph glyph-name="afii10105" unicode="&#x458;" horiz-adv-x="612" 
d="M125 807l35 217h448l-162 -1022q-36 -209 -163 -313q-133 -109 -357 -109q-115 0 -191.5 21t-168.5 71l123 228q73 -32 127.5 -43t126.5 -11q74 0 116 45q41 41 50 111l124 784zM510 1477q86 0 133 -41.5t47 -104.5q0 -79 -65 -137.5t-168 -58.5q-83 0 -130.5 41
t-47.5 104q0 79 65.5 138t165.5 59z" />
    <glyph glyph-name="afii10106" unicode="&#x459;" horiz-adv-x="1966" 
d="M524 1024h842l-45 -289q99 37 231 37q203 0 303 -100q84 -84 84 -211q0 -236 -157 -359q-153 -120 -416 -120q-236 0 -342 120q-84 97 -84 271q0 76 14 153l41 244h-243l-160 -479q-51 -153 -137 -225q-91 -76 -246 -76q-141 0 -217 35l65 227h95q51 0 81 18q35 20 58 84
zM1284 504l-10 -68q-4 -23 -4 -61q0 -65 28 -101q33 -38 105 -38q93 0 147 43q56 46 56 124q0 62 -39 89q-41 30 -123 30q-92 0 -160 -18z" />
    <glyph glyph-name="afii10107" unicode="&#x45a;" horiz-adv-x="1902" 
d="M242 1024h346l-60 -365h353l61 365h332l-45 -289q99 37 231 37q205 0 305 -100q86 -86 86 -211q0 -233 -161 -359q-153 -120 -416 -120q-252 0 -356 129q-74 92 -74 262v30h-355l-63 -403h-346zM1192 504l-10 -68q-4 -23 -4 -61q0 -65 28 -101q33 -38 105 -38
q93 0 147 43q55 45 55 124q0 63 -38 89q-41 30 -123 30q-92 0 -160 -18z" />
    <glyph glyph-name="afii10108" unicode="&#x45b;" horiz-adv-x="1331" 
d="M285 1372h340l-15 -96h197l-29 -178l-200 -21l-17 -110q132 75 287 75q114 0 190.5 -25t130.5 -79q95 -95 95 -252q0 -46 -9 -102l-92 -584h-340l90 563q5 29 5 62q0 70 -31 106q-45 51 -139 51q-120 0 -228 -65l-112 -717h-340l168 1059h-103l31 196l104 11z" />
    <glyph glyph-name="afii10109" unicode="&#x45c;" 
d="M244 1024h338l-56 -350h115l133 174q74 95 172 143q82 43 191 43q89 0 170 -24l-62 -230h-67q-50 0 -80 -12q-33 -11 -58 -43l-133 -166l295 -559h-375l-196 420h-146l-65 -420h-338zM692 1196l168 309l219 -108l-205 -287z" />
    <glyph glyph-name="afii10110" unicode="&#x45e;" horiz-adv-x="1331" 
d="M459 0l-297 1024h362l168 -739h15l354 739h375l-645 -1137q-67 -121 -179 -190q-91 -55 -213 -55q-107 0 -192 39l61 213q80 -13 125 -13q42 0 72 23q36 29 53 73l10 23h-69zM557 1399l197 18q0 -52 26 -78q21 -24 68 -24q44 0 72 22q40 29 51 80l209 -18
q-34 -134 -131 -211q-95 -74 -226 -74q-127 0 -200 76q-66 66 -66 209z" />
    <glyph glyph-name="afii10193" unicode="&#x45f;" horiz-adv-x="1329" 
d="M233 1024h340l-88 -563q-6 -38 -6 -66q0 -64 31 -106q45 -51 135 -51q121 0 229 65l113 721h340l-162 -1024h-237l-41 78q-64 -42 -149 -69t-173 -27q-235 0 -338 106q-94 94 -94 254q0 51 8 98zM946 -78l-31 -350l-243 16l78 334h196z" />
    <glyph glyph-name="afii10050" unicode="&#x490;" horiz-adv-x="1185" 
d="M66 0l194 1229h692l72 184h246l-70 -448h-618l-154 -965h-362z" />
    <glyph glyph-name="afii10098" unicode="&#x491;" horiz-adv-x="1114" 
d="M236 1024h632l70 178h240l-68 -432h-573l-123 -770h-340z" />
    <glyph glyph-name="endash" unicode="&#x2013;" horiz-adv-x="868" 
d="M123 664h745l-39 -252h-745z" />
    <glyph glyph-name="emdash" unicode="&#x2014;" horiz-adv-x="1009" 
d="M123 664h887l-39 -252h-887z" />
    <glyph glyph-name="quoteleft" unicode="&#x2018;" horiz-adv-x="514" 
d="M530 1305l-55 -158q84 -24 84 -115q0 -81 -52.5 -136.5t-141.5 -55.5q-69 0 -105.5 35t-36.5 94q0 51 29 104l158 270z" />
    <glyph glyph-name="quoteright" unicode="&#x2019;" horiz-adv-x="514" 
d="M301 881l55 157q-84 24 -84 115q0 81 53 137t142 56q69 0 105 -35t36 -94q0 -54 -28 -105l-158 -270z" />
    <glyph glyph-name="quotesinglbase" unicode="&#x201a;" horiz-adv-x="530" 
d="M135 -168l55 158q-84 24 -84 114q0 81 53 137t142 56q69 0 105 -35t36 -94q0 -54 -28 -105l-158 -270z" />
    <glyph glyph-name="quotedblleft" unicode="&#x201c;" horiz-adv-x="868" 
d="M530 1305l-55 -158q84 -24 84 -115q0 -81 -52.5 -136.5t-141.5 -55.5q-69 0 -105.5 35t-36.5 94q0 51 29 104l158 270zM885 1305l-56 -158q84 -24 84 -115q0 -81 -52.5 -136.5t-141.5 -55.5q-69 0 -105 35t-36 94q0 53 28 104l158 270z" />
    <glyph glyph-name="quotedblright" unicode="&#x201d;" horiz-adv-x="868" 
d="M301 881l55 157q-84 24 -84 115q0 81 53 137t142 56q69 0 105 -35t36 -94q0 -54 -28 -105l-158 -270zM655 881l56 157q-84 24 -84 115q0 81 52.5 137t141.5 56q69 0 105.5 -35t36.5 -94q0 -52 -29 -105l-158 -270z" />
    <glyph glyph-name="quotedblbase" unicode="&#x201e;" horiz-adv-x="868" 
d="M135 -168l55 158q-84 24 -84 114q0 81 53 137t142 56q69 0 105 -35t36 -94q0 -54 -28 -105l-158 -270zM489 -168l56 158q-84 24 -84 114q0 81 52.5 137t141.5 56q69 0 105.5 -35t36.5 -94q0 -52 -29 -105l-158 -270z" />
    <glyph glyph-name="dagger" unicode="&#x2020;" horiz-adv-x="710" 
d="M250 633h-107l-18 94l47 96h107l77 -24l-10 84l19 110l110 31l105 -31l-19 -110l-39 -84l86 24h107l18 -96l-47 -94h-106l-78 24l4 -88l-57 -360l-70 -209h-166l90 569l33 88z" />
    <glyph glyph-name="daggerdbl" unicode="&#x2021;" horiz-adv-x="710" 
d="M250 633h-107l-18 94l47 96h107l77 -24l-10 84l19 110l110 31l105 -31l-19 -110l-39 -84l86 24h107l18 -96l-47 -94h-106l-78 24l10 -88l-39 -88l86 25h107l18 -94l-49 -95h-107l-77 25l10 -88l-6 -45l-76 -209h-172l39 254l39 88l-86 -25h-107l-16 95l47 94h106l78 -25
l-10 88l39 88z" />
    <glyph glyph-name="bullet" unicode="&#x2022;" horiz-adv-x="620" 
d="M387 799q91 0 141 -47.5t50 -122.5q0 -103 -72 -171.5t-182 -68.5q-89 0 -139 45.5t-50 120.5q0 102 69.5 173t182.5 71z" />
    <glyph glyph-name="onedotenleader" unicode="&#x2024;" horiz-adv-x="530" 
d="M301 313q71 0 110.5 -37t39.5 -96q0 -84 -56 -138t-145 -54q-71 0 -110.5 36t-39.5 97q0 80 56 136t145 56z" />
    <glyph glyph-name="twodotenleader" unicode="&#x2025;" horiz-adv-x="935" 
d="M301 313q71 0 110.5 -37t39.5 -96q0 -84 -56 -138t-145 -54q-71 0 -110.5 36t-39.5 97q0 80 56 136t145 56zM707 313q71 0 110 -37t39 -96q0 -84 -56 -138t-145 -54q-71 0 -110 36t-39 97q0 80 56 136t145 56z" />
    <glyph glyph-name="ellipsis" unicode="&#x2026;" horiz-adv-x="1343" 
d="M301 313q71 0 110.5 -37t39.5 -96q0 -84 -56 -138t-145 -54q-71 0 -110.5 36t-39.5 97q0 80 56 136t145 56zM707 313q71 0 110 -37t39 -96q0 -84 -56 -138t-145 -54q-71 0 -110 36t-39 97q0 80 56 136t145 56zM1114 313q71 0 110.5 -37t39.5 -96q0 -84 -56 -138t-145 -54
q-71 0 -110.5 36t-39.5 97q0 80 56 136t145 56z" />
    <glyph glyph-name="perthousand" unicode="&#x2030;" horiz-adv-x="2156" 
d="M315 92l820 979l139 -121l-809 -983zM371 453q-131 0 -209 84q-60 66 -60 163q0 154 107 256q106 101 256 101q66 0 122 -23.5t91 -66.5q57 -66 57 -164q0 -74 -34 -145t-95 -123q-97 -82 -235 -82zM524 780q0 42 -20 62q-23 26 -68 26q-59 0 -90 -39q-33 -41 -33 -96
q0 -37 17 -61q19 -31 69 -31q49 0 80 31q45 42 45 108zM1118 -23q-131 0 -209 84q-59 65 -59 164q0 155 106 256t256 101q66 0 122 -23.5t91 -66.5q58 -67 58 -164q0 -74 -34 -145.5t-95 -123.5q-97 -82 -236 -82zM1272 305q0 41 -21 62q-23 26 -67 26q-59 0 -90 -39
q-33 -41 -33 -96q0 -39 16 -61q19 -31 70 -31q49 0 80 31q45 42 45 108zM1802 -23q-131 0 -209 84q-59 65 -59 164q0 155 106 256t256 101q66 0 122 -23.5t91 -66.5q58 -67 58 -164q0 -74 -34 -145.5t-95 -123.5q-97 -82 -236 -82zM1956 305q0 41 -21 62q-23 26 -67 26
q-59 0 -90 -39q-33 -41 -33 -96q0 -39 16 -61q19 -31 70 -31q49 0 80 31q45 42 45 108z" />
    <glyph glyph-name="guilsinglleft" unicode="&#x2039;" horiz-adv-x="749" 
d="M639 1004l102 -166l-282 -226l215 -221l-156 -170l-422 350l15 88z" />
    <glyph glyph-name="guilsinglright" unicode="&#x203a;" horiz-adv-x="749" 
d="M197 223l-103 166l285 232l-217 215l155 170l422 -351l-14 -88z" />
    <glyph glyph-name="exclamdbl" unicode="&#x203c;" horiz-adv-x="972" 
d="M272 1331h297l-45 -289l-125 -639h-247l75 639zM260 313q72 0 112 -37t40 -96q0 -83 -57.5 -137.5t-145.5 -54.5q-71 0 -110.5 35t-39.5 96q0 80 56.5 137t144.5 57zM715 1331h297l-45 -289l-125 -639h-248l76 639zM702 313q72 0 112 -37t40 -96q0 -83 -57.5 -137.5
t-145.5 -54.5q-71 0 -110 35t-39 96q0 80 56 137t144 57z" />
    <glyph glyph-name="fraction" unicode="&#x2044;" horiz-adv-x="649" 
d="M-121 -14l834 1294l151 -74l-837 -1296z" />
    <glyph glyph-name="zerosuperior" unicode="&#x2070;" horiz-adv-x="638" 
d="M420 1124q-55 0 -92 -43q-47 -55 -47 -161q0 -49 18 -72q21 -31 72 -31q48 0 82 31q59 59 59 180q0 46 -23 72q-21 24 -69 24zM670 1042q0 -97 -40 -184t-120 -135q-66 -41 -160 -41q-92 0 -145 39q-84 63 -84 182q0 97 41 183.5t123 136.5q62 37 155 37q98 0 148 -39
q82 -60 82 -179z" />
    <glyph glyph-name="foursuperior" unicode="&#x2074;" horiz-adv-x="622" 
d="M408 778h-312l25 154l299 319h117l18 -45l-270 -293h145l16 107l74 31h82l-20 -138h47l-21 -122l-49 -13l-14 -86h-152z" />
    <glyph glyph-name="fivesuperior" unicode="&#x2075;" horiz-adv-x="606" 
d="M334 1116l-8 -43q34 6 69 6q135 0 185 -59q30 -38 30 -92q0 -115 -80 -180q-80 -68 -208 -68t-230 74l70 110q74 -49 180 -49q53 0 82 23q27 18 27 63q0 20 -19 35q-22 14 -65 14q-74 0 -129 -24l-76 41l45 284h418l-21 -135h-270z" />
    <glyph glyph-name="sixsuperior" unicode="&#x2076;" horiz-adv-x="602" 
d="M279 934q-3 -21 -3 -37q0 -37 17 -57q18 -23 65 -23q44 0 72 21q27 20 27 57q0 16 -15 35q-17 20 -63 20q-34 0 -100 -16zM305 1061q48 20 96 20q130 0 183 -59q32 -40 32 -98q0 -110 -84 -179q-79 -61 -196 -61q-120 0 -178 74q-39 51 -39 129q0 76 25.5 152t76.5 128
q93 93 213 93q121 0 213 -62l-78 -115q-76 43 -153 43q-41 0 -74 -20q-29 -21 -37 -45z" />
    <glyph glyph-name="sevensuperior" unicode="&#x2077;" horiz-adv-x="591" 
d="M438 1116h-143l-29 -78h-129l35 213h490l-19 -106q-75 -69 -137 -152q-64 -81 -121 -186l-59 -115h-164l80 156q6 15 15 30.5t23 37.5t19 30q9 14 59 82q62 71 80 88z" />
    <glyph glyph-name="eightsuperior" unicode="&#x2078;" horiz-adv-x="632" 
d="M301 936q-12 -6 -22 -23q-11 -22 -11 -39q0 -21 15 -36q26 -23 84 -23q53 0 88 21q28 23 28 49q0 28 -23 35.5t-75 7.5q-51 0 -84 8zM465 1059q16 16 16 35q0 16 -10 24q-18 15 -53 15q-42 0 -60 -13q-14 -10 -14 -30q0 -16 10 -21q8 -6 52 -6q31 0 59 -4zM594 1016
q51 -42 51 -107q0 -84 -76 -157q-78 -70 -223 -70q-140 0 -201 66q-34 39 -34 98q0 66 32 106q18 30 64 52q-21 27 -21 67q0 77 60 131q60 58 190 58t174 -56q29 -39 29 -82q0 -52 -45 -106z" />
    <glyph glyph-name="ninesuperior" unicode="&#x2079;" horiz-adv-x="602" 
d="M475 1010q2 16 2 41q0 34 -16 53q-18 22 -66 22q-44 0 -71 -20q-27 -23 -27 -57q0 -17 14 -35q18 -21 64 -21q30 0 100 17zM449 883q-51 -21 -95 -21q-130 0 -184 60q-33 41 -33 98q0 113 86 178q77 62 195 62q124 0 180 -72q37 -48 37 -131q0 -78 -26 -156.5t-77 -130.5
q-83 -86 -213 -86q-122 0 -210 61l75 115q76 -43 154 -43q44 0 74 21q28 17 37 45z" />
    <glyph glyph-name="parenleftsuperior" unicode="&#x207d;" horiz-adv-x="311" 
d="M385 1255q-59 -78 -94 -176t-35 -198q0 -116 45 -199l-119 -64q-63 120 -63 259q0 223 174 442z" />
    <glyph glyph-name="parenrightsuperior" unicode="&#x207e;" horiz-adv-x="311" 
d="M162 1255l119 64q63 -120 63 -252q0 -230 -174 -449l-92 64q60 80 94.5 180t34.5 201q0 112 -45 192z" />
    <glyph glyph-name="zeroinferior" unicode="&#x2080;" horiz-adv-x="638" 
d="M338 410q-55 0 -92 -43q-47 -55 -47 -162q0 -49 18 -72q21 -31 72 -31q48 0 82 31q59 59 59 180q0 47 -22 72t-70 25zM588 328q0 -97 -40 -184.5t-120 -135.5q-66 -41 -160 -41q-92 0 -145 39q-84 63 -84 182q0 97 41 183.5t123 136.5q62 37 155 37q98 0 148 -39
q82 -60 82 -178z" />
    <glyph glyph-name="oneinferior" unicode="&#x2081;" horiz-adv-x="458" 
d="M170 102l41 254l-84 -12l-14 113l204 88l80 -15l-67 -428l61 -14l-18 -111h-307l18 111z" />
    <glyph glyph-name="twoinferior" unicode="&#x2082;" horiz-adv-x="610" 
d="M334 111h201l-21 -134h-465l19 119l282 176q45 34 53 43q19 24 19 50q0 18 -8 26q-19 19 -66 19q-58 0 -99 -10t-106 -42l-39 115q131 72 267 72q123 0 176 -56q35 -35 35 -100q0 -76 -56 -141q-35 -37 -106 -84z" />
    <glyph glyph-name="threeinferior" unicode="&#x2083;" horiz-adv-x="614" 
d="M571 410q0 -67 -47 -105q45 -39 45 -106q0 -46 -22 -89.5t-60 -74.5q-82 -68 -215 -68q-73 0 -123 16t-112 64l78 107q47 -28 86 -40t92 -12q55 0 88 21q31 21 31 55q0 33 -47 33h-187l19 125h176q18 0 29.5 10t11.5 27q0 39 -74 39q-88 0 -184 -39l-31 108
q68 37 122 50.5t120 13.5q84 0 144 -32.5t60 -102.5z" />
    <glyph glyph-name="fourinferior" unicode="&#x2084;" horiz-adv-x="622" 
d="M352 63h-311l22 154l299 320h117l21 -45l-273 -293h146l16 106l76 31h82l-23 -137h47l-20 -123l-47 -13l-15 -86h-151z" />
    <glyph glyph-name="fiveinferior" unicode="&#x2085;" horiz-adv-x="606" 
d="M276 403l-6 -43q35 7 68 7q133 0 184 -60q33 -41 33 -96q0 -109 -82 -176q-80 -68 -209 -68q-128 0 -227 74l67 111q76 -50 183 -50q51 0 80 23q28 19 28 61q0 21 -14 35q-17 17 -72 17q-69 0 -129 -25l-76 41l46 285h417l-20 -136h-271z" />
    <glyph glyph-name="sixinferior" unicode="&#x2086;" horiz-adv-x="602" 
d="M221 217q-2 -14 -2 -37q0 -37 17 -57q21 -23 65 -23t72 21q26 17 26 53q0 22 -14 39q-17 20 -61 20q-37 0 -103 -16zM248 344q51 21 96 21q128 0 182 -60q33 -36 33 -100q0 -107 -84 -176q-77 -62 -196 -62q-126 0 -179 72q-39 51 -39 131q0 75 26.5 151t78.5 130
q89 92 213 92q121 0 211 -62l-78 -114q-76 43 -154 43q-41 0 -71 -21q-26 -16 -39 -45z" />
    <glyph glyph-name="seveninferior" unicode="&#x2087;" horiz-adv-x="591" 
d="M383 401h-143l-29 -77h-129l33 213h489l-16 -107q-77 -68 -139 -151q-72 -95 -119 -187l-60 -115h-164l78 156q8 15 58 98q12 17 35.5 48t25.5 34q44 54 80 88z" />
    <glyph glyph-name="eightinferior" unicode="&#x2088;" horiz-adv-x="632" 
d="M244 221q-14 -7 -23 -22q-10 -20 -10 -39q0 -23 14 -37q26 -23 84 -23q53 0 88 21q29 24 29 49q0 28 -23 35.5t-75 7.5q-51 0 -84 8zM408 344q16 16 16 35q0 16 -10 24q-18 15 -54 15q-42 0 -59 -12q-14 -11 -14 -31q0 -16 10 -21q8 -6 51 -6q32 0 60 -4zM537 301
q51 -42 51 -106q0 -85 -76 -158q-78 -70 -223 -70q-140 0 -201 66q-35 41 -35 98q0 66 33 107q17 28 64 51q-21 27 -21 67q0 78 59 131q60 58 191 58q130 0 174 -56q29 -39 29 -81q0 -53 -45 -107z" />
    <glyph glyph-name="nineinferior" unicode="&#x2089;" horiz-adv-x="602" 
d="M418 293q2 16 2 41q0 33 -17 53q-18 23 -65 23q-44 0 -72 -21q-26 -22 -26 -57q0 -18 14 -35q18 -21 63 -21q31 0 101 17zM391 166q-51 -21 -94 -21q-130 0 -184 60q-33 41 -33 98q0 113 86 178q77 62 194 62q125 0 181 -72q37 -48 37 -131q0 -78 -26 -156.5t-77 -130.5
q-83 -86 -213 -86q-121 0 -211 62l76 114q76 -43 154 -43q43 0 73 21q28 17 37 45z" />
    <glyph glyph-name="parenleftinferior" unicode="&#x208d;" horiz-adv-x="311" 
d="M330 555q-59 -77 -94 -176t-35 -199q0 -115 45 -198l-119 -64q-64 122 -64 258q0 222 175 442z" />
    <glyph glyph-name="parenrightinferior" unicode="&#x208e;" horiz-adv-x="311" 
d="M104 537l119 63q64 -122 64 -258q0 -223 -174 -442l-93 63q60 77 95 175.5t35 199.5q0 114 -46 199z" />
    <glyph glyph-name="Euro" unicode="&#x20ac;" horiz-adv-x="1400" 
d="M106 586h990l-19 -172l-338 -19h-182q37 -55 92 -92q88 -57 209 -57q99 0 175.5 17t199.5 63l61 -230q-132 -67 -247.5 -93t-253.5 -26q-322 0 -502 195q-91 97 -113 223l-100 6zM119 664l28 180l107 6q73 135 199 231q231 170 540 170q142 0 247 -22t218 -86l-135 -236
q-108 41 -185.5 58.5t-162.5 17.5q-99 0 -199 -41q-81 -32 -137 -88h158l325 -18l-20 -172h-983z" />
    <glyph glyph-name="afii61352" unicode="&#x2116;" horiz-adv-x="2105" 
d="M1470 358h527l-29 -186h-526zM1747 428q-109 0 -178 57q-78 68 -78 177q0 136 94 233q101 106 252 106q103 0 174 -55q80 -64 80 -182q0 -142 -96 -238q-98 -98 -248 -98zM1776 608q55 0 88 33q41 38 41 98q0 47 -35 68q-26 16 -62 16q-55 0 -92 -37q-37 -32 -37 -90
q0 -45 35 -69q25 -19 62 -19zM1145 1229h340l-195 -1229h-321l-443 739l-112 -739h-340l194 1229h320l444 -727z" />
    <glyph glyph-name="trademark" unicode="&#x2122;" horiz-adv-x="1419" 
d="M512 1049l-63 -394h-191l64 394h-158l24 161h508l-24 -161h-160zM868 911l-41 -256h-176l88 555h195l98 -321l182 321h222l-88 -555h-183l41 260l-151 -260h-123z" />
    <glyph glyph-name="minus" unicode="&#x2212;" horiz-adv-x="690" 
d="M129 752h567l-39 -252h-567z" />
    <glyph glyph-name="approxequal" unicode="&#x2248;" horiz-adv-x="823" 
d="M213 686l-70 158q106 82 213 82q69 0 148 -31q84 -31 145 -31q58 0 123 37l55 -162q-109 -82 -215 -82q-69 0 -145 31q-14 5 -33.5 12.5t-29.5 11t-27.5 6.5t-38.5 3q-71 0 -125 -35zM166 397l-70 158q109 82 215 82q69 0 148 -31q84 -31 145 -31q58 0 123 37l53 -161
q-106 -82 -213 -82q-70 0 -147 30l-32.5 12.5t-29 11t-27 6.5t-38.5 3q-69 0 -127 -35z" />
    <glyph glyph-name="notequal" unicode="&#x2260;" horiz-adv-x="761" 
d="M154 903h321l62 125l163 -55l-34 -70h127l-35 -219h-203l-43 -82h231l-34 -219h-310l-61 -127l-162 55l35 72h-141l34 219h218l43 82h-246z" />
    <glyph glyph-name="lessequal" unicode="&#x2264;" horiz-adv-x="749" 
d="M100 551l17 14l385 -305l-135 -156l-301 222zM698 500l-139 -170l-438 350l14 88l531 344l102 -166l-287 -229z" />
    <glyph glyph-name="greaterequal" unicode="&#x2265;" horiz-adv-x="749" 
d="M715 565l12 -14l-35 -225l-370 -222l-86 156zM199 330l-86 170l286 241l-213 205l156 166l420 -344l-14 -88z" />
    <glyph glyph-name="percent" horiz-adv-x="1505" 
d="M315 92l820 979l139 -121l-809 -983zM371 453q-131 0 -209 84q-60 66 -60 163q0 154 107 256q106 101 256 101q66 0 122 -23.5t91 -66.5q57 -66 57 -164q0 -74 -34 -145t-95 -123q-97 -82 -235 -82zM524 780q0 42 -20 62q-23 26 -68 26q-59 0 -90 -39q-33 -41 -33 -96
q0 -37 17 -61q19 -31 69 -31q49 0 80 31q45 42 45 108zM1118 -23q-131 0 -209 84q-59 65 -59 164q0 155 106 256t256 101q66 0 122 -23.5t91 -66.5q58 -67 58 -164q0 -74 -34 -145.5t-95 -123.5q-97 -82 -236 -82zM1272 305q0 41 -21 62q-23 26 -67 26q-59 0 -90 -39
q-33 -41 -33 -96q0 -39 16 -61q19 -31 70 -31q49 0 80 31q45 42 45 108z" />
    <glyph glyph-name="percent.oldstyle" horiz-adv-x="1505" 
d="M315 92l820 979l139 -121l-809 -983zM371 453q-131 0 -209 84q-60 66 -60 163q0 154 107 256q106 101 256 101q66 0 122 -23.5t91 -66.5q57 -66 57 -164q0 -74 -34 -145t-95 -123q-97 -82 -235 -82zM524 780q0 42 -20 62q-23 26 -68 26q-59 0 -90 -39q-33 -41 -33 -96
q0 -37 17 -61q19 -31 69 -31q49 0 80 31q45 42 45 108zM1118 -23q-131 0 -209 84q-59 65 -59 164q0 155 106 256t256 101q66 0 122 -23.5t91 -66.5q58 -67 58 -164q0 -74 -34 -145.5t-95 -123.5q-97 -82 -236 -82zM1272 305q0 41 -21 62q-23 26 -67 26q-59 0 -90 -39
q-33 -41 -33 -96q0 -39 16 -61q19 -31 70 -31q49 0 80 31q45 42 45 108z" />
    <glyph glyph-name="perthousand.oldstyle" horiz-adv-x="2156" 
d="M315 92l820 979l139 -121l-809 -983zM371 453q-131 0 -209 84q-60 66 -60 163q0 154 107 256q106 101 256 101q66 0 122 -23.5t91 -66.5q57 -66 57 -164q0 -74 -34 -145t-95 -123q-97 -82 -235 -82zM524 780q0 42 -20 62q-23 26 -68 26q-59 0 -90 -39q-33 -41 -33 -96
q0 -37 17 -61q19 -31 69 -31q49 0 80 31q45 42 45 108zM1118 -23q-131 0 -209 84q-59 65 -59 164q0 155 106 256t256 101q66 0 122 -23.5t91 -66.5q58 -67 58 -164q0 -74 -34 -145.5t-95 -123.5q-97 -82 -236 -82zM1272 305q0 41 -21 62q-23 26 -67 26q-59 0 -90 -39
q-33 -41 -33 -96q0 -39 16 -61q19 -31 70 -31q49 0 80 31q45 42 45 108zM1802 -23q-131 0 -209 84q-59 65 -59 164q0 155 106 256t256 101q66 0 122 -23.5t91 -66.5q58 -67 58 -164q0 -74 -34 -145.5t-95 -123.5q-97 -82 -236 -82zM1956 305q0 41 -21 62q-23 26 -67 26
q-59 0 -90 -39q-33 -41 -33 -96q0 -39 16 -61q19 -31 70 -31q49 0 80 31q45 42 45 108z" />
    <glyph glyph-name="Breve" horiz-adv-x="833" 
d="M281 1624l215 21q0 -55 24 -82q28 -25 72 -25q47 0 80 23q41 31 55 84l223 -21q-42 -153 -129 -223q-97 -82 -256 -82q-141 0 -219 94q-62 76 -65 211z" />
    <glyph glyph-name="Dieresis" horiz-adv-x="989" 
d="M481 1659q74 0 114 -36t40 -99q0 -81 -57 -139t-150 -58q-71 0 -110 37t-39 98q0 85 57 141t145 56zM954 1659q74 0 114 -36t40 -99q0 -81 -57 -139t-150 -58q-71 0 -110 37t-39 98q0 85 57 141t145 56z" />
    <glyph glyph-name="commaaccent" horiz-adv-x="493" 
d="M121 -197l55 187q-38 9 -58 39t-20 75q0 91 52.5 141t140.5 50q67 0 104 -35t37 -92q0 -51 -29 -107l-151 -282z" />
    <glyph glyph-name="dblgrave" horiz-adv-x="708" 
d="M764 1489l14 -334l-168 -31l-67 316zM463 1483l78 -326l-170 -45l-119 303z" />
    <glyph glyph-name="Acute" horiz-adv-x="540" 
d="M260 1411l178 336l215 -125l-217 -307z" />
    <glyph glyph-name="Grave" horiz-adv-x="540" 
d="M543 1710l84 -346l-209 -61l-121 325z" />
    <glyph glyph-name="Caron" horiz-adv-x="786" 
d="M270 1554l123 129l166 -139l246 139l88 -129l-318 -258h-67z" />
    <glyph glyph-name="Circumflex" horiz-adv-x="786" 
d="M332 1296l-82 129l317 258h68l237 -258l-124 -129l-181 138z" />
    <glyph glyph-name="commaaccent.cap" horiz-adv-x="530" 
d="M133 -203l60 195q-40 10 -62 43t-22 80q0 84 55.5 141t146.5 57q70 0 109 -36t39 -95q0 -60 -29 -114l-160 -297z" />
    <glyph glyph-name="Dotaccent" horiz-adv-x="516" 
d="M293 317q74 0 113.5 -36t39.5 -99q0 -82 -55.5 -139t-148.5 -57q-71 0 -111.5 38t-40.5 97q0 85 57.5 140.5t145.5 55.5z" />
    <glyph glyph-name="Hungarumlaut" horiz-adv-x="780" 
d="M233 1382l136 379l223 -71l-189 -359zM508 1384l197 371l200 -94l-229 -340z" />
    <glyph glyph-name="dblGrave" horiz-adv-x="780" 
d="M887 1761l16 -379l-190 -30l-70 358zM551 1747l78 -371l-189 -51l-123 336z" />
    <glyph glyph-name="Macron" horiz-adv-x="878" 
d="M295 1567h715l-33 -215h-715z" />
    <glyph glyph-name="Ring" horiz-adv-x="690" 
d="M496 1317q-116 0 -177 67q-51 54 -51 140q0 64 28 126t81 105q82 70 198 70q55 0 103.5 -22t79.5 -60q43 -52 43 -133q0 -127 -90 -211q-85 -82 -215 -82zM516 1481q54 0 84 30q33 33 33 84q0 29 -19 52q-25 22 -67 22q-50 0 -80 -27q-37 -26 -37 -81q0 -35 23 -58
q25 -22 63 -22z" />
    <glyph glyph-name="Tilde" horiz-adv-x="987" 
d="M1016 1593l61 -143q-119 -113 -250 -113q-101 0 -188 35q-92 37 -164 37q-88 0 -151 -39l-58 146q139 106 266 106q73 0 158 -29q90 -39 180 -39q72 0 146 39z" />
    <glyph glyph-name="zero.fitted" horiz-adv-x="1290" 
d="M756 995q-160 0 -240 -147q-76 -141 -76 -363q0 -122 39 -180q21 -32 62 -52t94 -20q82 0 145 43.5t99 120.5q71 146 71 369q0 113 -43 166q-53 63 -151 63zM797 1251q277 0 405 -172q96 -131 96 -325q0 -162 -56 -318t-167 -268q-188 -191 -481 -191q-277 0 -410 175
q-94 125 -94 327q0 163 55.5 316.5t167.5 265.5q187 190 484 190z" />
    <glyph glyph-name="one.fitted" horiz-adv-x="1290" 
d="M430 836l-39 213l445 200l172 -24l-156 -981l145 -27l-34 -217h-678l34 215l191 27l104 653z" />
    <glyph glyph-name="two.fitted" horiz-adv-x="1290" 
d="M100 0l37 229l637 422q72 47 109 92q49 61 49 125q0 46 -37 76q-49 41 -158 41q-105 0 -199 -23t-208 -83l-92 227q136 77 270 111t291 34q254 0 377 -112q96 -83 96 -213q0 -154 -88 -271q-82 -103 -213 -182l-344 -209h536l-43 -264h-1020z" />
    <glyph glyph-name="three.fitted" horiz-adv-x="1290" 
d="M391 786h357q56 0 92 23q45 28 45 94q0 35 -29 60q-37 30 -147 30q-195 0 -394 -78l-77 211q138 72 259 98.5t271 26.5q254 0 371 -94q92 -75 92 -194q0 -103 -51 -179q-29 -48 -90 -88l-3 -8q79 -40 107 -100q31 -60 31 -123q0 -182 -142 -311q-94 -85 -232.5 -131
t-283.5 -46q-156 0 -274.5 36t-237.5 112l158 229q103 -59 196 -82.5t201 -23.5q120 0 191 49q76 53 76 145q0 36 -21 60q-34 37 -104 37h-402z" />
    <glyph glyph-name="four.fitted" horiz-adv-x="1290" 
d="M45 166l37 235l741 828h273l49 -49l-666 -752h326l33 211l280 121h70l-53 -332h106l-41 -262h-106l-27 -166h-330l27 166h-719z" />
    <glyph glyph-name="five.fitted" horiz-adv-x="1290" 
d="M324 1229h931l-36 -246h-623l-25 -152q102 21 201 21q249 0 369 -117q86 -83 86 -225q0 -241 -168 -383q-179 -150 -471 -150q-179 0 -290.5 31t-238.5 119l156 227q97 -62 186 -85t201 -23q129 0 197 49q84 65 84 158q0 62 -39 98q-54 49 -182 49q-83 0 -144 -11
t-143 -36l-146 80z" />
    <glyph glyph-name="six.fitted" horiz-adv-x="1290" 
d="M1282 1149l-145 -225q-132 63 -310 63q-127 0 -202 -55q-67 -50 -99 -131q113 43 244 43q229 0 350 -96q111 -90 111 -248q0 -108 -50.5 -210.5t-140.5 -172.5q-176 -140 -438 -140q-282 0 -401 166q-82 113 -82 297q0 195 74.5 373.5t224.5 294.5q185 143 436 143
q132 0 235 -22.5t193 -79.5zM469 553q-10 -64 -10 -102q0 -70 22 -125q41 -93 162 -93q106 0 170 58q76 72 76 162q0 51 -25 82q-40 53 -155 53q-131 0 -240 -35z" />
    <glyph glyph-name="seven.fitted" horiz-adv-x="1290" 
d="M178 791l70 438h1087l-35 -215q-216 -177 -346 -359q-136 -190 -233 -454l-74 -201h-358l117 283q86 212 219 403q92 133 235 279h-362l-82 -174h-238z" />
    <glyph glyph-name="eight.fitted" horiz-adv-x="1290" 
d="M315 686q-39 28 -57 68q-22 49 -22 104q0 87 45.5 166t128.5 131q150 96 385 96q222 0 342 -75q108 -70 108 -187q0 -75 -37 -147q-40 -75 -108 -123q94 -48 133 -119q31 -60 31 -123q0 -235 -207 -379q-173 -121 -465 -121q-148 0 -262 31t-172 88q-101 94 -101 226
q0 133 70 225q65 85 188 139zM838 786q31 22 49 56q20 38 20 84q0 33 -26 59q-38 35 -123 35q-68 0 -121 -27q-66 -36 -66 -108q0 -38 23 -58q37 -34 127 -34q49 0 117 -7zM518 557q-56 -27 -84 -68q-39 -51 -39 -118q0 -53 39 -84q35 -31 80 -43.5t117 -12.5q76 0 120.5 10
t88.5 40q36 24 57 63t21 84q0 55 -44 84q-50 37 -192 37q-107 0 -164 8z" />
    <glyph glyph-name="nine.fitted" horiz-adv-x="1290" 
d="M106 80l146 231q141 -69 307 -69q130 0 205 55q62 46 98 131q-113 -43 -244 -43q-229 0 -350 96q-110 90 -110 244q0 210 151 354q87 83 212 127.5t265 44.5q280 0 402 -166q82 -116 82 -321q0 -169 -52 -319t-153 -257q-198 -211 -530 -211q-132 0 -235 23t-194 80z
M920 676q10 66 10 108q0 101 -45 154q-42 51 -142 51q-117 0 -182 -59q-61 -55 -61 -156q0 -44 24 -74q45 -59 154 -59q130 0 242 35z" />
    <glyph glyph-name="zerooldstyle" horiz-adv-x="1265" 
d="M756 1042q248 0 377 -135q108 -114 108 -309q0 -285 -213 -477q-154 -139 -440 -139q-233 0 -361 122q-127 120 -127 330q0 236 158 404q90 97 219 150.5t279 53.5zM715 782q-135 0 -213 -104q-70 -95 -70 -232q0 -105 57 -159q51 -45 140 -45q121 0 190 69q90 95 90 267
q0 88 -39 139q-47 65 -155 65z" />
    <glyph glyph-name="oneoldstyle" horiz-adv-x="827" 
d="M207 653l-47 205l407 176l181 -22l-123 -776l110 -9l-35 -227h-634l34 227l191 9l71 452z" />
    <glyph glyph-name="twooldstyle" horiz-adv-x="1128" 
d="M66 0l36 229l562 326q44 23 84 66q36 39 36 84q0 31 -22 47q-35 26 -117 26q-175 0 -409 -88l-60 232q145 70 266.5 95t243.5 25q233 0 346 -88q88 -69 88 -190q0 -127 -90 -234q-82 -97 -219 -172l-178 -98h395l-43 -260h-919z" />
    <glyph glyph-name="threeoldstyle" horiz-adv-x="1144" 
d="M260 725l-49 229q143 55 243.5 71.5t219.5 16.5q217 0 327 -96q80 -70 80 -182q0 -82 -37 -137q-30 -49 -90 -80v-8q52 -28 88 -80q43 -65 43 -146q0 -216 -157 -354q-91 -81 -221.5 -122.5t-282.5 -41.5q-266 0 -442 96l124 232q191 -60 353 -60q140 0 211 54
q78 57 78 157q0 44 -35 72q-36 25 -92 25h-334l41 254h295q55 0 88 26q32 28 32 72q0 31 -28 47q-31 16 -99 16q-57 0 -94.5 -2.5t-107 -16.5t-154.5 -42z" />
    <glyph glyph-name="fouroldstyle" horiz-adv-x="1196" 
d="M33 37l47 297l680 690h338l10 -29l-664 -700h281l33 209l162 45h165l-41 -254h103l-37 -238l-106 -20l-35 -223h-320l35 223h-651z" />
    <glyph glyph-name="fiveoldstyle" horiz-adv-x="1165" 
d="M287 375l-101 69l93 580h854l-41 -260h-547l-19 -111q62 6 123 6q256 0 371 -112q84 -84 84 -223q0 -115 -51 -219t-146 -173q-168 -125 -405 -125q-149 0 -259.5 26.5t-234.5 96.5l144 217q111 -47 188 -64t166 -17q116 0 188 55q72 61 72 151q0 55 -33 84
q-24 25 -69.5 41.5t-96.5 16.5q-78 0 -136.5 -7.5t-143.5 -31.5z" />
    <glyph glyph-name="sixoldstyle" horiz-adv-x="1263" 
d="M1268 1149l-146 -225q-132 63 -309 63q-128 0 -203 -55q-66 -49 -98 -131q113 43 244 43q229 0 350 -96q111 -90 111 -248q0 -108 -50.5 -209.5t-140.5 -171.5q-88 -70 -202.5 -106t-235.5 -36q-283 0 -402 166q-82 113 -82 297q0 195 74.5 373.5t224.5 294.5
q185 143 437 143q132 0 235 -22.5t193 -79.5zM455 553q-11 -70 -11 -102q0 -67 23 -125q41 -93 162 -93q106 0 170 58q75 71 75 162q0 52 -24 82q-40 53 -156 53q-130 0 -239 -35z" />
    <glyph glyph-name="sevenoldstyle" horiz-adv-x="1146" 
d="M123 598l67 426h1035l-33 -201q-188 -160 -332 -358q-126 -179 -211 -375l-117 -276h-335l155 366q73 168 178 320q103 150 226 264h-324l-61 -166h-248z" />
    <glyph glyph-name="eightoldstyle" horiz-adv-x="1333" 
d="M1120 709q90 -42 133 -117q31 -60 31 -123q0 -106 -56 -207t-149 -162q-182 -118 -465 -118q-147 0 -261 31t-173 85q-102 99 -102 224q0 145 96 249q61 64 160 105q-80 55 -80 166q0 86 47.5 164.5t126.5 128.5q151 94 383 94q224 0 344 -74q111 -66 111 -188
q0 -76 -38.5 -144t-107.5 -114zM856 774q70 53 70 131q0 37 -25 62q-39 34 -125 34q-77 0 -121 -26q-29 -14 -47 -42t-18 -63q0 -36 22 -55q20 -20 48 -27.5t79 -7.5q55 0 117 -6zM539 549q-67 -36 -95 -76q-28 -41 -28 -102q0 -60 39 -88q35 -30 80 -42t118 -12
q77 0 121 9.5t88 37.5q35 23 55.5 62.5t20.5 83.5q0 57 -43 82q-50 37 -193 37q-106 0 -163 8z" />
    <glyph glyph-name="nineoldstyle" horiz-adv-x="1263" 
d="M78 -102l145 231q147 -70 309 -70q130 0 209 50q58 35 93 110q-113 -43 -248 -43q-229 0 -350 96q-111 90 -111 248q0 268 240 418q168 104 389 104q283 0 401 -165q82 -113 82 -297q0 -180 -63.5 -345.5t-194.5 -277.5q-193 -162 -471 -162q-132 0 -236 23t-194 80z
M887 467q12 79 12 111q0 94 -45 151q-45 51 -141 51q-101 0 -162 -41q-38 -25 -60 -68t-22 -96q0 -54 23 -83q45 -60 155 -60q131 0 240 35z" />
    <glyph glyph-name="one.taboldstyle" horiz-adv-x="1239" 
d="M422 653l-47 205l407 176l181 -22l-123 -776l110 -9l-35 -227h-634l34 227l191 9l72 452z" />
    <glyph glyph-name="two.taboldstyle" horiz-adv-x="1239" 
d="M125 0l37 229l561 326q44 23 84 66q37 40 37 84q0 31 -23 47q-35 26 -116 26q-176 0 -410 -88l-59 232q145 70 266 95t243 25q234 0 347 -88q88 -69 88 -190q0 -127 -90 -234q-81 -96 -220 -172l-178 -98h395l-43 -260h-919z" />
    <glyph glyph-name="zero.taboldstyle" horiz-adv-x="1239" 
d="M741 1042q248 0 377 -135q109 -115 109 -309q0 -285 -213 -477q-154 -139 -441 -139q-232 0 -360 122q-127 120 -127 330q0 236 158 404q90 97 218.5 150.5t278.5 53.5zM700 782q-135 0 -213 -104q-69 -94 -69 -232q0 -105 57 -159q51 -45 139 -45q122 0 191 69
q90 95 90 267q0 88 -39 139q-47 65 -156 65z" />
    <glyph glyph-name="three.taboldstyle" horiz-adv-x="1239" 
d="M328 725l-49 229q143 55 243 71.5t219 16.5q218 0 328 -96q80 -70 80 -182q0 -82 -37 -137q-30 -49 -90 -80v-8q52 -28 88 -80q43 -65 43 -146q0 -215 -158 -354q-91 -81 -221 -122.5t-282 -41.5q-267 0 -443 96l125 232q191 -60 352 -60q140 0 211 54q78 57 78 157
q0 44 -35 72q-36 25 -92 25h-334l41 254h295q56 0 88 26q33 29 33 72q0 31 -29 47q-31 16 -98 16q-57 0 -94.5 -2.5t-107 -16.5t-154.5 -42z" />
    <glyph glyph-name="four.taboldstyle" horiz-adv-x="1239" 
d="M53 37l47 297l680 690h338l10 -29l-663 -700h280l33 209l162 45h166l-41 -254h102l-37 -238l-106 -20l-35 -223h-319l35 223h-652z" />
    <glyph glyph-name="five.taboldstyle" horiz-adv-x="1239" 
d="M334 375l-101 69l93 580h854l-41 -260h-547l-19 -111q61 6 123 6q256 0 371 -112q84 -84 84 -223q0 -115 -51 -219t-146 -173q-168 -125 -405 -125q-149 0 -259.5 26.5t-234.5 96.5l144 217q111 -47 188 -64t166 -17q116 0 188 55q72 61 72 151q0 55 -33 84
q-24 25 -69.5 41.5t-96.5 16.5q-78 0 -136.5 -7.5t-143.5 -31.5z" />
    <glyph glyph-name="six.taboldstyle" horiz-adv-x="1239" 
d="M1255 1149l-145 -225q-132 63 -309 63q-128 0 -203 -55q-66 -49 -98 -131q113 43 243 43q230 0 351 -96q110 -90 110 -248q0 -108 -50 -209.5t-140 -171.5q-88 -70 -203 -106t-236 -36q-282 0 -401 166q-82 113 -82 297q0 195 74.5 373.5t224.5 294.5q185 143 436 143
q132 0 235 -22.5t193 -79.5zM442 553q-10 -64 -10 -102q0 -67 23 -125q41 -93 161 -93q106 0 170 58q76 72 76 162q0 52 -24 82q-40 53 -156 53q-131 0 -240 -35z" />
    <glyph glyph-name="seven.taboldstyle" horiz-adv-x="1239" 
d="M164 598l67 426h1035l-33 -201q-188 -160 -332 -358q-126 -179 -211 -375l-117 -276h-335l155 366q73 168 178 320q103 150 226 264h-324l-61 -166h-248z" />
    <glyph glyph-name="eight.taboldstyle" horiz-adv-x="1239" 
d="M1073 709q90 -42 133 -117q31 -60 31 -123q0 -106 -56 -207t-149 -162q-182 -118 -465 -118q-147 0 -261 31t-173 85q-102 99 -102 224q0 145 96 249q61 64 160 105q-80 55 -80 166q0 86 47.5 164.5t126.5 128.5q151 94 383 94q224 0 344 -74q111 -66 111 -188
q0 -76 -38.5 -144t-107.5 -114zM809 774q70 53 70 131q0 37 -25 62q-39 34 -125 34q-77 0 -121 -26q-29 -14 -47 -42t-18 -63q0 -36 22 -55q20 -20 48 -27.5t79 -7.5q56 0 117 -6zM492 549q-67 -36 -95 -76q-28 -41 -28 -102q0 -60 39 -88q35 -30 80 -42t118 -12
q77 0 121 9.5t88 37.5q35 23 55.5 62.5t20.5 83.5q0 57 -43 82q-50 37 -193 37q-106 0 -163 8z" />
    <glyph glyph-name="nine.taboldstyle" horiz-adv-x="1239" 
d="M66 -102l145 231q147 -70 309 -70q130 0 209 50q57 34 92 110q-113 -43 -248 -43q-229 0 -350 96q-110 90 -110 248q0 268 239 418q168 104 389 104q284 0 402 -165q82 -113 82 -297q0 -180 -63.5 -345.5t-194.5 -277.5q-193 -162 -471 -162q-132 0 -236 23t-194 80z
M874 467q13 86 13 111q0 94 -45 151q-45 51 -142 51q-100 0 -161 -41q-38 -25 -60 -68t-22 -96q0 -55 22 -83q45 -60 156 -60q130 0 239 35z" />
    <glyph glyph-name="currency.taboldstyle" horiz-adv-x="1239" 
d="M463 979l76 -88q78 33 163 33q84 0 148 -33l104 86l119 -135l-92 -82q18 -49 18 -107q0 -117 -69 -223l63 -82l-159 -141l-76 90q-78 -33 -160 -33q-85 0 -156 31l-104 -90l-113 143l92 82q-20 47 -20 107q0 118 72 223l-66 80zM666 725q-59 0 -107.5 -39t-48.5 -117
q0 -53 33.5 -80.5t79.5 -27.5q67 0 110 45.5t43 116.5q0 50 -31.5 76t-78.5 26z" />
    <glyph glyph-name="centoldstyle" horiz-adv-x="1173" 
d="M692 1174h254l-16 -140q145 -15 274 -71l-114 -218q-168 46 -306 46q-137 0 -221 -66q-53 -44 -83.5 -113t-30.5 -143q0 -83 38 -135q62 -88 211 -88q147 0 320 49l43 -232q-145 -58 -295 -73l-33 -162h-256l19 164q-187 24 -277 125q-115 124 -115 301q0 270 189 446
q150 138 366 168z" />
    <glyph glyph-name="dollaroldstyle" horiz-adv-x="1146" 
d="M569 1165h291l-6 -129q162 -16 317 -78l-120 -231q-195 61 -373 61q-116 0 -164 -22q-31 -14 -31 -43q0 -27 17.5 -36.5t56.5 -14.5l203 -29q214 -30 303 -127q51 -57 51 -143q0 -98 -41.5 -171t-136.5 -132q-106 -65 -285 -82l-41 -142h-274v144q-151 16 -285 80
l119 237q109 -37 192 -51t195 -14q157 0 213 32q29 17 29 48q0 16 -10.5 27.5t-32 19t-38 11t-42.5 7.5l-232 35q-158 24 -227 90q-61 55 -61 154q0 92 44.5 171t127.5 124q86 50 213 69z" />
    <glyph glyph-name="cent.taboldstyle" horiz-adv-x="1239" 
d="M715 1174h254l-17 -140q146 -15 275 -71l-115 -218q-168 46 -305 46t-221 -66q-54 -44 -84.5 -113t-30.5 -143q0 -82 39 -135q62 -88 211 -88q146 0 319 49l43 -232q-145 -58 -295 -73l-32 -162h-256l18 164q-186 24 -276 125q-115 124 -115 301q0 271 188 446
q150 138 367 168z" />
    <glyph glyph-name="dollar.taboldstyle" horiz-adv-x="1239" 
d="M614 1165h291l-6 -129q163 -16 318 -78l-121 -231q-195 61 -373 61q-116 0 -164 -22q-31 -14 -31 -43q0 -27 17.5 -36.5t56.5 -14.5l203 -29q214 -30 303 -127q51 -57 51 -143q0 -98 -41.5 -171t-136.5 -132q-106 -65 -285 -82l-41 -142h-274v144q-151 16 -285 80
l119 237q109 -37 192 -51t195 -14q157 0 213 32q29 17 29 48q0 16 -10.5 27.5t-32 19t-38 11t-42.5 7.5l-232 35q-158 24 -227 90q-61 55 -61 154q0 92 44.5 171t127.5 124q86 50 213 69z" />
    <glyph glyph-name="Euro.taboldstyle" horiz-adv-x="1208" 
d="M119 489h774l-27 -159h-348q28 -41 74 -60q56 -24 153 -24q147 0 320 49l43 -232q-206 -81 -436 -81q-280 0 -406 135q-80 83 -106 213h-68zM152 705h67q61 116 170 200q173 137 451 137q230 0 409 -79l-114 -218q-98 27 -163 36.5t-141 9.5q-95 0 -165 -27
q-67 -27 -97 -59h357l-25 -160h-774z" />
    <glyph glyph-name="yen.taboldstyle" horiz-adv-x="1239" 
d="M186 414l142 20l-199 590h365l165 -590h21l350 590h348l-389 -590l150 -20l-29 -178h-952zM150 180h952l-27 -160l-315 -20l-33 -207h-338l33 207l-299 20z" />
    <glyph glyph-name="numbersign.taboldstyle" horiz-adv-x="1239" 
d="M295 131l37 152h-144l27 166h160l26 106h-165l26 166h180l50 188l198 -16l-43 -172h90l49 188l199 -16l-43 -172h174l-26 -166h-191l-27 -106h197l-27 -166h-211l-43 -168l-198 16l37 152h-88l-43 -168zM606 555l-26 -106h90l26 106h-90z" />
    <glyph glyph-name="dollarinferior" horiz-adv-x="595" 
d="M293 559h135l-4 -57q100 -13 156 -39l-62 -117q-33 14 -87.5 21.5t-88.5 7.5q-64 0 -90 -15q-12 -6 -12 -14q0 -16 36 -20l105 -13q71 -7 113 -30q57 -40 57 -105q0 -48 -27 -89.5t-73 -68.5q-56 -27 -107 -34l-18 -68h-131l-2 66q-98 12 -156 41l55 120q84 -32 180 -32
q69 0 99 12q22 9 22 25q0 20 -57 28l-115 17q-66 11 -104 49q-33 38 -33 82q0 71 54.5 116t135.5 56z" />
    <glyph glyph-name="hyphensuperior" horiz-adv-x="376" 
d="M137 1053h275l-17 -115h-274z" />
    <glyph glyph-name="commasuperior" horiz-adv-x="260" 
d="M123 618l24 91q-34 5 -34 53q0 37 26.5 64.5t67.5 27.5q31 0 49 -17t18 -44q0 -29 -14 -54l-76 -133z" />
    <glyph glyph-name="periodsuperior" horiz-adv-x="260" 
d="M201 854q34 0 51.5 -17t17.5 -46q0 -36 -25 -61t-67 -25q-32 0 -49.5 16t-17.5 41q0 39 25 65.5t65 26.5z" />
    <glyph glyph-name="centsuperior" horiz-adv-x="524" 
d="M340 1157h121v-49q65 -11 110 -31l-53 -112q-78 20 -131 20q-42 0 -72 -24q-34 -34 -34 -91q0 -30 16 -49q16 -22 61 -22q73 0 136 26l20 -110q-57 -31 -123 -41l-18 -47h-115l-4 49q-63 20 -92 53q-43 49 -43 125q0 120 96 203q49 36 109 51z" />
    <glyph glyph-name="dollarsuperior" horiz-adv-x="595" 
d="M348 1274h135l-2 -57q99 -13 156 -39l-62 -119q-35 14 -89.5 22.5t-86.5 8.5q-59 0 -86 -9q-12 -2 -16 -14q0 -14 8 -18q5 -5 29 -9l102 -12q71 -7 115 -31q57 -40 57 -104q0 -48 -27 -89.5t-73 -68.5q-64 -29 -107 -35l-18 -67h-131l-2 65q-96 12 -156 41l53 121
q90 -33 183 -33q66 0 98 13q23 10 23 24q0 18 -45 25l-127 20q-67 11 -105 49q-33 38 -33 80q0 44 26 82t69 62q43 22 94 30z" />
    <glyph glyph-name="hypheninferior" horiz-adv-x="376" 
d="M80 326h274l-18 -115h-275z" />
    <glyph glyph-name="commainferior" horiz-adv-x="260" 
d="M66 -106l24 90q-35 6 -35 53q0 37 27 64.5t68 27.5q32 0 50.5 -17t18.5 -44q0 -30 -14 -52l-78 -135z" />
    <glyph glyph-name="periodinferior" horiz-adv-x="260" 
d="M143 127q33 0 51.5 -16t18.5 -43q0 -38 -24.5 -64.5t-67.5 -26.5q-33 0 -51.5 17.5t-18.5 44.5q0 37 27 62.5t65 25.5z" />
    <glyph glyph-name="centinferior" horiz-adv-x="524" 
d="M285 465h121v-49q65 -10 112 -31l-55 -113q-78 21 -129 21q-49 0 -80 -31q-29 -29 -29 -80q0 -39 21 -57q19 -19 59 -19q67 0 133 27l23 -110q-61 -31 -125 -41l-19 -48h-114l-2 50q-63 20 -92 53q-46 52 -46 125q0 110 70 180q54 57 135 74z" />
    <glyph glyph-name="zero.denominator" horiz-adv-x="944" 
d="M432 645q-62 -39 -88.5 -122.5t-26.5 -180.5q0 -100 43 -133q42 -31 105 -31t113 31q62 38 88 122t26 181q0 98 -43 133q-42 31 -106 31q-61 0 -111 -31zM934 524q0 -143 -65.5 -275.5t-188.5 -205.5q-97 -59 -246 -59q-147 0 -227 59q-131 96 -131 289q0 143 65 275.5
t187 205.5q100 59 245 59q150 0 232 -61q129 -96 129 -287z" />
    <glyph glyph-name="one.denominator" horiz-adv-x="649" 
d="M242 188l67 418l-121 -24l-34 163l309 129l125 -22l-107 -662l97 -26l-25 -164h-471l24 166z" />
    <glyph glyph-name="two.denominator" horiz-adv-x="894" 
d="M451 197h360l-31 -197h-712l28 193l457 286q52 35 65 53q25 32 25 68t-31 55q-35 21 -90 21q-140 0 -301 -80l-65 162q192 119 397 119q169 0 256 -76q76 -63 76 -160q0 -116 -82 -207q-47 -49 -178 -131z" />
    <glyph glyph-name="three.denominator" horiz-adv-x="911" 
d="M780 504q33 -23 54 -53q30 -50 30 -117q0 -81 -43.5 -151.5t-118.5 -121.5q-112 -75 -294 -75q-113 0 -203.5 23.5t-173.5 86.5l116 166q74 -45 140.5 -63.5t150.5 -18.5q92 0 148 47q39 34 39 82q0 32 -21 45q-24 17 -65 17h-277l29 190h262q35 0 55 23q15 18 15 41
q0 27 -21 39q-27 16 -90 16q-70 0 -130.5 -13.5t-148.5 -50.5l-65 156q111 58 196 80t187 22q162 0 246 -59q71 -51 71 -135q0 -110 -88 -176z" />
    <glyph glyph-name="four.denominator" horiz-adv-x="901" 
d="M532 137h-495l31 189l514 536h206l11 -55l-449 -475h215l27 180l94 39h143l-32 -219h71l-28 -174l-76 -21l-21 -137h-231z" />
    <glyph glyph-name="five.denominator" horiz-adv-x="870" 
d="M821 666h-432l-12 -74q62 10 117 10q198 0 278 -88q55 -61 55 -158q0 -88 -42 -165t-119 -130q-116 -77 -289 -77q-110 0 -184 23t-160 87l110 164q74 -45 129.5 -62.5t135.5 -17.5q73 0 124 39q52 37 52 100q0 39 -25 64q-41 33 -110 33q-39 0 -103 -11q-45 -9 -98 -30
l-121 37l72 448h653z" />
    <glyph glyph-name="six.denominator" horiz-adv-x="901" 
d="M326 385q-4 -18 -4 -51q0 -56 20 -92q29 -60 104 -60q85 0 127 39q45 38 45 103q0 35 -20 55q-26 29 -109 29q-87 0 -163 -23zM373 586q64 20 149 20q202 0 283 -90q51 -54 51 -151q0 -84 -34.5 -161t-104.5 -130q-119 -88 -301 -88q-192 0 -271 116q-61 84 -61 217
q0 124 45.5 244t138.5 201q126 113 318 113q88 0 155.5 -19t149.5 -70l-107 -165q-104 57 -229 57q-66 0 -117 -29q-38 -21 -65 -65z" />
    <glyph glyph-name="seven.denominator" horiz-adv-x="856" 
d="M569 666h-235l-41 -119h-191l52 315h753l-24 -151q-116 -98 -213 -228q-95 -126 -187 -305l-92 -178h-248l117 238q60 120 141 233q81 108 168 195z" />
    <glyph glyph-name="eight.denominator" horiz-adv-x="915" 
d="M371 387q-74 -49 -74 -121q0 -32 27 -59q39 -31 127 -31q99 0 143 37q45 36 45 88q0 35 -23 55q-34 29 -131 29q-87 0 -114 2zM594 575q15 8 25 25.5t10 38.5q0 19 -13 29q-27 18 -84 18q-54 0 -86 -18q-28 -14 -28 -39q0 -18 8 -29q10 -10 25 -16q27 -6 65 -6
q48 0 78 -3zM213 494q-37 42 -37 98q0 63 33 121.5t90 93.5q104 67 262 67q161 0 244 -69q59 -52 59 -127q0 -46 -20.5 -89.5t-57.5 -70.5q42 -27 64 -67q29 -51 29 -111q0 -75 -35.5 -144t-98.5 -120q-112 -90 -323 -90q-203 0 -285 77q-80 70 -80 175q0 93 49 163
q41 61 107 93z" />
    <glyph glyph-name="nine.denominator" horiz-adv-x="901" 
d="M643 477q4 32 4 47q0 56 -18 97q-29 59 -109 59q-82 0 -127 -39q-45 -41 -45 -94q0 -44 27 -68q31 -24 102 -24q93 0 166 22zM594 276q-64 -20 -148 -20q-201 0 -282 90q-53 53 -53 152q0 84 35 160.5t106 129.5q118 89 301 89q187 0 270 -117q60 -86 60 -217
q0 -124 -45.5 -244t-139.5 -201q-124 -112 -315 -112q-92 0 -159 18t-146 70l104 166q109 -58 230 -58q68 0 116 29q39 22 66 65z" />
    <glyph glyph-name="period.denominator" horiz-adv-x="370" 
d="M211 246q57 0 88 -30.5t31 -78.5q0 -65 -45 -107t-115 -42q-53 0 -83 28t-30 74q0 63 43.5 109.5t110.5 46.5z" />
    <glyph glyph-name="comma.denominator" horiz-adv-x="368" 
d="M76 -123l39 127q-52 25 -52 82q0 70 40.5 115t113.5 45q60 0 88.5 -29t28.5 -76q0 -48 -33 -104l-113 -193z" />
    <glyph glyph-name="dollar.denominator" horiz-adv-x="884" 
d="M449 928h206l-6 -97q131 -15 230 -63l-82 -170q-145 45 -269 45q-90 0 -135 -16q-41 -13 -41 -41q0 -30 64 -39l168 -25q148 -22 215 -92q47 -50 47 -123q0 -77 -42.5 -143.5t-115.5 -110.5q-74 -43 -170 -55l-33 -113h-202l2 107q-149 0 -256 51l86 188q128 -45 278 -45
q125 0 170 23q37 19 37 55q0 37 -84 47l-188 25q-118 15 -181 84q-41 47 -41 119q0 75 40.5 138.5t111.5 100.5q72 38 162 49z" />
    <glyph glyph-name="cent.denominator" horiz-adv-x="819" 
d="M467 819h190l-4 -86q99 -16 183 -57l-84 -158q-112 31 -228 31q-90 0 -143 -47q-70 -61 -70 -174q0 -67 41 -105q42 -39 117 -39q107 0 236 37l30 -158q-111 -53 -198 -65l-25 -96h-190l6 98q-117 26 -174 86q-80 83 -80 215q0 190 131 311q101 91 235 121z" />
    <glyph glyph-name="parenleft.denominator" horiz-adv-x="450" 
d="M506 899q-197 -312 -197 -604q0 -179 64 -307l-199 -103q-102 196 -102 406q0 183 73 362.5t203 341.5z" />
    <glyph glyph-name="parenright.denominator" horiz-adv-x="450" 
d="M147 893l197 102q102 -196 102 -405q0 -183 -73 -363t-203 -342l-156 97q89 126 142 289.5t53 318.5q0 179 -62 303z" />
    <glyph glyph-name="hyphen.denominator" horiz-adv-x="528" 
d="M98 508h426l-28 -180h-426z" />
    <glyph glyph-name="zero.numerator" horiz-adv-x="944" 
d="M461 1024q-60 -39 -87.5 -125t-27.5 -178q0 -99 45 -133q42 -31 103 -31q64 0 114 31q59 36 87 122t28 177q0 97 -45 137q-42 31 -105 31q-62 0 -112 -31zM963 899q0 -144 -64.5 -274.5t-187.5 -202.5q-101 -60 -248 -60q-144 0 -225 62q-132 96 -132 287q0 143 64 274.5
t186 204.5q101 61 248 61q150 0 230 -59q129 -97 129 -293z" />
    <glyph glyph-name="one.numerator" horiz-adv-x="649" 
d="M272 559l66 418l-121 -21l-33 160l310 129l122 -22l-104 -662l96 -26l-26 -164h-471l26 166z" />
    <glyph glyph-name="two.numerator" horiz-adv-x="894" 
d="M479 571h361l-31 -196h-713l31 192l455 287q46 29 65 53q27 38 27 68q0 36 -31 55q-35 21 -92 21q-137 0 -301 -80l-64 162q188 118 398 118q167 0 256 -75q75 -62 75 -164q0 -99 -65 -181q-56 -68 -197 -153z" />
    <glyph glyph-name="three.numerator" horiz-adv-x="911" 
d="M809 881q48 -28 72 -90q14 -35 14 -76q0 -83 -43 -155.5t-117 -123.5q-110 -74 -299 -74q-112 0 -201.5 24t-173.5 87l117 166q74 -45 139.5 -63.5t149.5 -18.5q89 0 143 41q45 36 45 90q0 29 -22 45q-24 15 -66 15h-276l31 190h262q33 0 53 20q16 19 16 46q0 22 -14 32
q-23 21 -96 21q-70 0 -131.5 -13.5t-149.5 -50.5l-65 156q110 58 196.5 80t188.5 22q162 0 243 -59q74 -51 74 -133q0 -52 -23.5 -100t-66.5 -78z" />
    <glyph glyph-name="four.numerator" horiz-adv-x="901" 
d="M563 512h-495l30 188l512 537h207l12 -55l-450 -475h215l29 180l94 39h143l-35 -219h72l-27 -175l-75 -20l-23 -137h-231z" />
    <glyph glyph-name="five.numerator" horiz-adv-x="870" 
d="M850 1044h-432l-10 -73q58 10 114 10q201 0 281 -88q53 -59 53 -154q0 -89 -43 -168t-121 -131q-118 -78 -284 -78q-110 0 -185.5 23.5t-161.5 87.5l113 164q72 -45 128 -62.5t136 -17.5q74 0 125 39q51 40 51 104q0 37 -26 60q-38 33 -109 33q-38 0 -102 -11
q-45 -9 -98 -30l-121 36l69 449h654z" />
    <glyph glyph-name="six.numerator" horiz-adv-x="901" 
d="M354 760q-4 -32 -4 -47q0 -50 21 -97q29 -59 104 -59q85 0 127 39q47 40 47 100q0 35 -20 58q-28 28 -109 28q-93 0 -166 -22zM403 961q64 20 148 20q202 0 283 -90q53 -59 53 -154q0 -82 -36.5 -159t-105.5 -129q-121 -89 -301 -89q-186 0 -270 119q-59 85 -59 215
q0 124 45 244t137 201q128 112 317 112q89 0 157.5 -18.5t148.5 -69.5l-105 -166q-109 58 -229 58q-69 0 -117 -29q-39 -22 -66 -65z" />
    <glyph glyph-name="seven.numerator" horiz-adv-x="856" 
d="M600 1042h-235l-41 -120h-191l49 315h754l-25 -152q-121 -103 -211 -227q-98 -130 -188 -305l-92 -178h-248l119 237q68 135 141 234q72 100 168 196z" />
    <glyph glyph-name="eight.numerator" horiz-adv-x="915" 
d="M399 764q-26 -10 -47 -41q-24 -38 -24 -76q0 -43 32 -65q39 -29 121 -29q100 0 144 37q43 40 43 92q0 35 -23 51q-34 29 -131 29q-88 0 -115 2zM625 952q13 10 22 25q10 17 10 37q0 21 -12 30q-25 19 -84 19q-46 0 -84 -19q-28 -12 -28 -47q0 -22 24 -32q28 -11 72 -11
q57 0 80 -2zM244 870q-37 42 -37 99q0 63 33 120.5t90 94.5q104 67 262 67q161 0 244 -69q59 -52 59 -127q0 -46 -20.5 -89.5t-57.5 -70.5q45 -29 62 -68q30 -55 30 -116q0 -72 -36 -140t-99 -118q-113 -91 -323 -91q-198 0 -285 76q-78 68 -78 174q0 109 55 181
q37 48 101 77z" />
    <glyph glyph-name="nine.numerator" horiz-adv-x="901" 
d="M672 852q4 18 4 51q0 55 -21 92q-29 60 -104 60q-85 0 -127 -39q-45 -38 -45 -103q0 -35 20 -55q26 -29 109 -29q88 0 164 23zM625 651q-64 -20 -150 -20q-201 0 -282 90q-54 57 -54 149q0 84 36 162.5t106 130.5q119 88 301 88q191 0 270 -116q59 -84 59 -222
q0 -124 -44.5 -241.5t-137.5 -198.5q-129 -113 -317 -113q-88 0 -156 19t-150 70l107 165q104 -57 227 -57q68 0 119 29q39 22 66 65z" />
    <glyph glyph-name="parenleft.numerator" horiz-adv-x="448" 
d="M379 1370l156 -96q-89 -129 -143 -291t-54 -311q0 -187 63 -310l-198 -102q-103 198 -103 406q0 183 74 363.5t205 340.5z" />
    <glyph glyph-name="parenright.numerator" horiz-adv-x="450" 
d="M176 1268l199 102q102 -196 102 -405q0 -183 -74 -364.5t-204 -340.5l-156 96q89 130 143 292t54 310q0 185 -64 310z" />
    <glyph glyph-name="cent.numerator" horiz-adv-x="819" 
d="M496 1194h190l-2 -86q94 -15 180 -57l-84 -158q-112 31 -227 31q-90 0 -141 -45q-34 -30 -53 -78t-19 -99q0 -48 27 -90q40 -53 127 -53q110 0 239 37l33 -158q-111 -53 -199 -65l-26 -97h-191l6 99q-115 26 -172 86q-80 86 -80 219q0 99 41.5 186.5t120.5 153.5
q68 59 205 88z" />
    <glyph glyph-name="dollar.numerator" horiz-adv-x="884" 
d="M477 1303h207l-6 -97q130 -15 229 -63l-82 -170q-145 45 -268 45q-87 0 -135 -17q-41 -13 -41 -40q0 -30 63 -39l168 -25q148 -22 215 -92q47 -50 47 -123q0 -78 -42 -144t-115 -110q-74 -43 -170 -55l-33 -113h-203l2 107q-149 0 -256 51l86 188q128 -45 279 -45
q125 0 170 23q37 18 37 55t-84 47l-189 25q-117 15 -180 84q-41 47 -41 118q0 75 40.5 139t111.5 101q72 38 162 49z" />
    <glyph glyph-name="hyphen.numerator" horiz-adv-x="528" 
d="M131 930h426l-29 -180h-426z" />
    <glyph glyph-name="comma.numerator" horiz-adv-x="368" 
d="M106 254l39 127q-53 23 -53 84q0 68 40.5 113t113.5 45q59 0 87.5 -28t28.5 -75q0 -51 -32 -106l-113 -193z" />
    <glyph glyph-name="period.numerator" horiz-adv-x="370" 
d="M240 612q56 0 87 -30t31 -76q0 -66 -44 -109t-115 -43q-53 0 -83 28t-30 75q0 63 44 109t110 46z" />
    <glyph glyph-name="Cedilla" horiz-adv-x="608" 
d="M186 10h176l-28 -86q86 0 133 -30q51 -34 51 -103q0 -129 -133 -209q-120 -73 -309 -94l-17 123q124 26 183 67q51 39 51 86q0 22 -14 29q-13 8 -43 8h-58l-22 23z" />
    <glyph glyph-name="Ogonek" horiz-adv-x="475" 
d="M268 16l121 -20q-34 -16 -63 -53q-35 -44 -35 -111q0 -38 12 -65q14 -39 55 -76l-96 -86q-79 19 -135 61q-61 48 -61 125q0 97 69 160q51 48 133 65z" />
    <glyph glyph-name="Imacron" horiz-adv-x="602" 
d="M268 1229h357l-195 -1229h-356zM158 1567h714l-32 -215h-715z" />
    <glyph glyph-name="a.sc" horiz-adv-x="1417" 
d="M662 1106h376l287 -1106h-334l-39 145h-518l-84 -145h-342zM788 815l-221 -428h328l-88 428h-19z" />
    <glyph glyph-name="afii10055" horiz-adv-x="624" 
d="M268 1229h357l-195 -1229h-356z" />
    <glyph glyph-name="b.sc" horiz-adv-x="1265" 
d="M254 1106h627q160 0 254 -68q86 -66 86 -186q0 -85 -41 -156q-33 -56 -97 -98v-8q68 -29 97 -86q30 -55 30 -127q0 -159 -116 -258q-137 -119 -379 -119h-637zM485 455l-30 -203h301q51 0 96 39q31 31 31 74q0 39 -27 63q-31 27 -72 27h-299zM549 852l-27 -166h271
q48 0 75 27q25 25 25 59q0 36 -19 55q-25 25 -55 25h-270z" />
    <glyph glyph-name="c.sc" horiz-adv-x="1236" 
d="M1282 1020l-127 -227q-151 67 -317 67q-70 0 -144.5 -24.5t-120.5 -65.5q-114 -102 -114 -274q0 -85 43 -146q29 -45 95.5 -72.5t141.5 -27.5q89 0 159 15.5t171 58.5l68 -234q-118 -61 -224 -84.5t-233 -23.5q-301 0 -457 170q-106 119 -106 301q0 151 66 289t190 231
q201 151 483 151q121 0 219 -23t207 -81z" />
    <glyph glyph-name="d.sc" horiz-adv-x="1292" 
d="M254 1106h489q292 0 420 -141q54 -58 81.5 -143t27.5 -179q0 -287 -182 -469q-91 -91 -207 -132.5t-295 -41.5h-510zM551 846l-90 -584h192q128 0 209 109q76 107 76 245q0 101 -43 160q-52 70 -172 70h-172z" />
    <glyph glyph-name="e.sc" horiz-adv-x="1181" 
d="M254 1106h958l-43 -260h-622l-23 -150h545l-41 -254h-545l-26 -182h641l-43 -260h-977z" />
    <glyph glyph-name="f.sc" horiz-adv-x="1148" 
d="M254 1106h948l-43 -262h-610l-29 -189h533l-41 -256h-533l-63 -399h-338z" />
    <glyph glyph-name="g.sc" horiz-adv-x="1318" 
d="M668 467l34 213h568l-105 -680h-231l-29 68q-145 -86 -295 -86q-263 0 -399 155q-102 121 -102 314q0 152 65.5 285.5t190.5 232.5q90 73 221.5 114t277.5 41q249 0 439 -114l-144 -211q-163 65 -336 65q-136 0 -231 -63q-69 -47 -107.5 -125.5t-38.5 -169.5
q0 -102 50 -176q57 -82 180 -82q119 0 217 41l25 151z" />
    <glyph glyph-name="h.sc" horiz-adv-x="1366" 
d="M254 1106h340l-64 -397h443l63 397h338l-176 -1106h-338l70 440h-443l-69 -440h-340z" />
    <glyph glyph-name="i.sc" horiz-adv-x="585" 
d="M254 1106h340l-176 -1106h-340z" />
    <glyph glyph-name="j.sc" horiz-adv-x="1030" 
d="M729 1106h336l-102 -651q-35 -228 -211 -361q-151 -112 -396 -112q-180 0 -331 79l102 236q114 -51 231 -51q113 0 179 55q72 60 90 166z" />
    <glyph glyph-name="k.sc" horiz-adv-x="1349" 
d="M254 1106h340l-62 -387h154l324 387h389l-453 -526l301 -580h-368l-213 459h-174l-74 -459h-340z" />
    <glyph glyph-name="l.sc" horiz-adv-x="1155" 
d="M254 1106h340l-135 -848h620l-41 -258h-960z" />
    <glyph glyph-name="m.sc" horiz-adv-x="1744" 
d="M274 1106h488l104 -791l373 791h506l-168 -1106h-340l125 727h-8l-353 -727h-370l-119 729h-8l-119 -729h-295z" />
    <glyph glyph-name="n.sc" horiz-adv-x="1357" 
d="M254 1106h301l393 -629l99 629h319l-176 -1106h-305l-389 633l-99 -633h-319z" />
    <glyph glyph-name="o.sc" horiz-adv-x="1368" 
d="M819 1124q264 0 404 -149q110 -119 110 -332q0 -140 -56.5 -275t-168.5 -227q-196 -159 -469 -159q-134 0 -239 42t-173 117q-106 118 -106 312q0 148 58.5 283t172.5 229q193 159 467 159zM778 868q-154 0 -239 -112q-84 -110 -84 -271q0 -117 59 -182t166 -65
q144 0 229 98q92 106 92 282q0 127 -53 189q-52 61 -170 61z" />
    </font>
</defs>
</svg>
