<?xml version="1.0" standalone="no"?>
<!DOCTYPE svg PUBLIC "-//W3C//DTD SVG 1.1//EN" "http://www.w3.org/Graphics/SVG/1.1/DTD/svg11.dtd" >
<svg xmlns="http://www.w3.org/2000/svg" xmlns:xlink="http://www.w3.org/1999/xlink" version="1.1">
<metadata>
Created by FontForge 20201107 at Fri Mar  7 12:35:47 2025
 By 
Copyright (c) 2012 by Glenjan. All rights reserved.
</metadata>
<defs>
<font id="EchoesSans-LightItalic" horiz-adv-x="1271" >
  <font-face 
    font-family="Echoes Sans"
    font-weight="300"
    font-style="italic"
    font-stretch="normal"
    units-per-em="2048"
    panose-1="2 0 5 6 0 0 0 2 0 4"
    ascent="1536"
    descent="-512"
    x-height="1024"
    cap-height="1229"
    bbox="-428 -479 3594 1766"
    underline-thickness="102"
    underline-position="-204"
    unicode-range="U+0020-FB04"
  />
<missing-glyph horiz-adv-x="960" 
d="M573 457q55 0 85.5 4.5t74.5 21.5l25 -63q-53 -21 -90.5 -29t-92.5 -8q-108 0 -167 41q-58 42 -58 106q0 38 19.5 66.5t54.5 40.5v8q-22 9 -34.5 30t-12.5 46q0 60 45 90q50 37 151 37q85 0 170 -35l-26 -61q-67 22 -139 22q-32 0 -52.5 -2.5t-39.5 -15.5t-19 -37
q0 -51 68 -51h151v-72h-166q-80 0 -80 -64q0 -34 27 -51q31 -24 106 -24zM883 616q0 149 -80 236q-81 84 -228 84q-160 0 -235 -84q-80 -80 -80 -236q0 -142 74 -225q86 -92 241 -92q158 0 236 88q72 81 72 229zM182 614q0 181 105 289q104 107 286 107q170 0 277 -99
q113 -107 113 -297q0 -162 -93 -272q-98 -121 -297 -121q-184 0 -284 105q-107 110 -107 288z" />
    <glyph glyph-name="i_j" unicode="ij" horiz-adv-x="821" 
d="M682 1024h166l-166 -1040q-26 -163 -131 -260q-121 -111 -315 -111q-96 0 -167.5 21t-142.5 69l74 117q65 -36 119.5 -50t130.5 -14q115 0 186 64q64 58 80 164zM825 1403q51 0 78 -25.5t27 -66.5q0 -53 -38.5 -91t-100.5 -38q-52 0 -79.5 25t-27.5 65q0 55 39 93t102 38
zM184 909l19 115h291l-162 -1024h-166l141 897zM471 1403q51 0 79 -25.5t28 -66.5q0 -54 -39.5 -91.5t-102.5 -37.5q-51 0 -78.5 25.5t-27.5 66.5q0 55 39.5 92t101.5 37z" />
    <glyph glyph-name="l_j" unicode="lj" horiz-adv-x="788" 
d="M483 -16l166 1040h166l-166 -1040q-25 -165 -135 -263q-117 -108 -311 -108q-94 0 -166 21t-143 69l73 117q63 -35 118 -49.5t130 -14.5q114 0 188 64q61 58 80 164zM791 1403q51 0 78.5 -25.5t27.5 -66.5q0 -53 -39 -91t-102 -38q-51 0 -79 25t-28 65q0 55 40 93t102 38
zM197 1223l16 108h291l-209 -1331h-166l190 1204z" />
    <glyph glyph-name="ff" unicode="ff" horiz-adv-x="1417" 
d="M201 1001l188 17l12 65q25 155 138 248q123 107 315 107q184 0 317 -86q123 86 289 86q207 0 350 -107l-81 -102q-123 67 -279 67q-131 0 -201 -61q-60 -57 -75 -154l-9 -57h377l-22 -123l-379 -16l-140 -885h-165l139 885h-440l-140 -885h-166l140 883h-187zM997 1024
l11 59q12 92 67 168q-104 45 -231 45q-131 0 -201 -61q-62 -58 -76 -154l-8 -57h438z" />
    <glyph glyph-name="fi" unicode="fi" horiz-adv-x="1126" 
d="M201 1001l188 17l12 65q25 155 138 248q123 107 315 107q207 0 350 -107l-78 -102q-129 67 -282 67q-131 0 -201 -61q-62 -58 -76 -154l-8 -57h604l-164 -1024h-165l141 897l-66 4l-374 -16l-140 -885h-166l140 885h-187z" />
    <glyph glyph-name="fl" unicode="fl" horiz-adv-x="1138" 
d="M201 1001l188 17l12 65q25 146 123 236q129 119 330 119q213 0 358 -92l-213 -1346h-165l200 1270q-79 26 -190 26q-131 0 -201 -61q-62 -58 -76 -154l-8 -57h354l-20 -121l-358 -18l-140 -885h-166l140 885h-187z" />
    <glyph glyph-name="ffi" unicode="ffi" horiz-adv-x="1746" 
d="M201 1001l188 17l12 65q25 155 138 248q123 107 315 107q184 0 317 -86q123 86 289 86q211 0 355 -105l-78 -104q-134 67 -287 67q-131 0 -201 -61q-60 -57 -75 -154l-9 -57h604l-163 -1024h-166l141 897l-61 4l-379 -16l-140 -885h-165l139 885h-440l-140 -885h-166
l140 883h-187zM997 1024l11 59q12 92 67 168q-104 45 -231 45q-131 0 -201 -61q-62 -58 -76 -154l-8 -57h438z" />
    <glyph glyph-name="ffl" unicode="ffl" horiz-adv-x="1755" 
d="M201 1001l188 17l12 65q25 155 138 248q123 107 315 107q184 0 317 -86q123 86 289 86q207 0 359 -92l-213 -1346h-166l200 1270q-96 26 -190 26q-131 0 -201 -61q-60 -57 -75 -154l-9 -57h355l-21 -121l-358 -18l-140 -885h-165l139 885h-440l-140 -885h-166l140 883
h-187zM997 1024l11 59q13 93 67 166q-108 47 -231 47q-131 0 -201 -61q-62 -58 -76 -154l-8 -57h438z" />
    <glyph glyph-name="f_f_j" unicode="ffj" horiz-adv-x="1732" 
d="M205 1001l188 17l10 65q29 156 140 248q123 107 313 107q185 0 320 -86q123 86 286 86q207 0 357 -105l-78 -104q-126 67 -287 67q-134 0 -201 -61q-62 -56 -77 -154l-9 -57h605l-164 -1040q-29 -166 -135 -263q-121 -108 -314 -108q-95 0 -166.5 21t-144.5 69l70 115
q118 -62 256 -62q119 0 184 68q70 70 92 215l135 858l-63 4l-377 -16l-139 -885h-166l139 885h-440l-140 -885h-166l140 883h-187zM1001 1024l9 59q17 98 67 166q-105 47 -229 47q-134 0 -201 -61q-63 -57 -78 -154l-8 -57h440z" />
    <glyph glyph-name="f_j" unicode="fj" horiz-adv-x="1126" 
d="M205 1001l188 17l10 65q29 156 140 248q123 107 313 107q207 0 352 -107l-80 -102q-126 67 -280 67q-134 0 -201 -61q-63 -57 -78 -154l-8 -57h604l-164 -1040q-29 -166 -135 -263q-121 -108 -313 -108q-95 0 -166.5 21t-144.5 69l73 117q65 -35 121 -49.5t131 -14.5
q114 0 183 66q72 69 94 213l135 862l-66 4l-374 -16l-140 -885h-166l140 885h-187z" />
    <glyph glyph-name="i_l" unicode="il" horiz-adv-x="864" 
d="M553 0l211 1331h166l-211 -1331h-166zM180 909l19 115h290l-161 -1024h-166l141 897zM467 1403q51 0 78.5 -25.5t27.5 -66.5q0 -54 -39 -91.5t-102 -37.5q-51 0 -78.5 25.5t-27.5 66.5q0 55 40 92t101 37z" />
    <glyph glyph-name="i_l_l" unicode="ill" horiz-adv-x="1204" 
d="M553 0l211 1331h166l-211 -1331h-166zM180 909l19 115h290l-161 -1024h-166l141 897zM467 1403q51 0 78.5 -25.5t27.5 -66.5q0 -54 -39 -91.5t-102 -37.5q-51 0 -78.5 25.5t-27.5 66.5q0 55 40 92t101 37zM944 0l211 1331h166l-211 -1331h-166z" />
    <glyph glyph-name="j_l" unicode="jl" horiz-adv-x="839" 
d="M555 0l209 1331h166l-209 -1331h-166zM184 909l19 115h291l-166 -1040q-25 -164 -133 -260q-121 -111 -312 -111q-95 0 -166.5 21t-144.5 69l74 117q65 -36 120.5 -50t131.5 -14q113 0 184 64q64 58 80 166l145 911zM471 1403q51 0 77.5 -25.5t26.5 -66.5
q0 -53 -38.5 -91t-100.5 -38q-52 0 -79 25t-27 65q0 55 39 93t102 38z" />
    <glyph glyph-name="l_l" unicode="ll" horiz-adv-x="813" 
d="M193 1223l18 108h291l-209 -1331h-166l188 1204zM516 0l209 1331h166l-209 -1331h-166z" />
    <glyph glyph-name="l_i" unicode="li" horiz-adv-x="798" 
d="M516 0l162 1024h166l-162 -1024h-166zM819 1403q51 0 79 -25.5t28 -66.5q0 -54 -39.5 -91.5t-102.5 -37.5q-50 0 -78 25.5t-28 66.5q0 55 40 92t101 37zM193 1223l16 108h291l-209 -1331h-166l190 1204z" />
    <glyph glyph-name="l_l_i" unicode="lli" horiz-adv-x="1181" 
d="M907 0l162 1024h166l-162 -1024h-166zM1212 1403q51 0 79 -25.5t28 -66.5q0 -54 -39 -91.5t-102 -37.5q-51 0 -79 25.5t-28 66.5q0 55 39.5 92t101.5 37zM516 0l209 1331h166l-209 -1331h-166zM193 1223l16 108h291l-209 -1331h-166l190 1204z" />
    <glyph glyph-name="j_i" unicode="ji" horiz-adv-x="837" 
d="M555 0l162 1024h166l-162 -1024h-166zM860 1403q51 0 79 -25.5t28 -66.5q0 -54 -39.5 -91.5t-102.5 -37.5q-51 0 -78.5 25.5t-27.5 66.5q0 55 39.5 92t101.5 37zM184 909l19 115h291l-166 -1040q-25 -167 -140 -267q-117 -104 -305 -104q-95 0 -166.5 21t-144.5 69
l74 117q65 -36 120.5 -50t131.5 -14q113 0 184 64q64 58 80 164l145 913zM471 1403q51 0 77.5 -25.5t26.5 -66.5q0 -53 -38.5 -91t-100.5 -38q-52 0 -79 25t-27 65q0 55 39 93t102 38z" />
    <glyph glyph-name="j_i_l" unicode="jil" horiz-adv-x="1218" 
d="M944 0l209 1331h166l-209 -1331h-166zM555 0l162 1024h166l-162 -1024h-166zM860 1403q51 0 79 -25.5t28 -66.5q0 -54 -39.5 -91.5t-102.5 -37.5q-51 0 -78.5 25.5t-27.5 66.5q0 55 39.5 92t101.5 37zM184 909l19 115h291l-166 -1040q-26 -167 -133 -265
q-122 -106 -312 -106q-95 0 -166.5 21t-144.5 69l74 117q65 -36 120.5 -50t131.5 -14q113 0 184 64q64 56 80 164l145 913zM471 1403q51 0 77.5 -25.5t26.5 -66.5q0 -53 -38.5 -91t-100.5 -38q-52 0 -79 25t-27 65q0 55 39 93t102 38z" />
    <glyph glyph-name="j_i_l_l" unicode="jill" horiz-adv-x="1611" 
d="M940 0l209 1331h166l-209 -1331h-166zM553 0l162 1024h166l-162 -1024h-166zM858 1403q51 0 79 -25.5t28 -66.5q0 -54 -39.5 -91.5t-102.5 -37.5q-51 0 -78.5 25.5t-27.5 66.5q0 55 39.5 92t101.5 37zM1327 0l209 1331h166l-209 -1331h-166zM184 909l19 115h291
l-166 -1040q-25 -167 -140 -267q-120 -104 -305 -104q-95 0 -166.5 21t-144.5 69l74 117q65 -36 120.5 -50t131.5 -14q117 0 186 66q62 60 78 162l145 913zM471 1403q51 0 77.5 -25.5t26.5 -66.5q0 -53 -38.5 -91t-100.5 -38q-52 0 -79 25t-27 65q0 55 39 93t102 38z" />
    <glyph glyph-name="i_i" unicode="ii" horiz-adv-x="837" 
d="M551 0l162 1024h166l-162 -1024h-166zM856 1403q51 0 79 -25.5t28 -66.5q0 -54 -39.5 -91.5t-102.5 -37.5q-51 0 -78.5 25.5t-27.5 66.5q0 55 40 92t101 37zM180 909l19 115h290l-161 -1024h-166l141 897zM467 1403q51 0 78.5 -25.5t27.5 -66.5q0 -54 -39 -91.5
t-102 -37.5q-51 0 -78.5 25.5t-27.5 66.5q0 55 40 92t101 37z" />
    <glyph glyph-name="afii10103_afii10104" unicode="&#x456;&#x457;" horiz-adv-x="829" 
d="M551 0l162 1024h166l-162 -1024h-166zM678 1403q51 0 78.5 -25.5t27.5 -66.5q0 -54 -40 -91.5t-103 -37.5q-50 0 -77 25.5t-27 66.5q0 55 39.5 92t101.5 37zM180 909l19 115h290l-161 -1024h-166l141 897zM326 1403q51 0 78.5 -25.5t27.5 -66.5q0 -54 -39 -91.5
t-102 -37.5q-51 0 -79 25.5t-28 66.5q0 55 40 92t102 37zM1028 1403q51 0 79 -25.5t28 -66.5q0 -54 -39.5 -91.5t-102.5 -37.5q-51 0 -78.5 25.5t-27.5 66.5q0 55 40 92t101 37z" />
    <glyph glyph-name="i_l_l_i" unicode="illi" horiz-adv-x="1597" 
d="M199 1024h290l-161 -1024h-166l141 897l-123 12zM467 1403q43 0 74.5 -24.5t31.5 -67.5q0 -54 -41 -91.5t-100 -37.5q-51 0 -78.5 25.5t-27.5 66.5q0 54 41.5 90.5t99.5 38.5zM715 0h-166l211 1331h166zM1102 0h-166l211 1331h166zM1489 0h-166l162 1024h166zM1487 1274
q0 54 42 91.5t99 37.5q43 0 75 -24.5t32 -67.5q0 -55 -42 -92t-100 -37q-51 0 -78.5 25.5t-27.5 66.5z" />
    <glyph glyph-name=".notdef" horiz-adv-x="960" 
d="M573 457q55 0 85.5 4.5t74.5 21.5l25 -63q-53 -21 -90.5 -29t-92.5 -8q-108 0 -167 41q-58 42 -58 106q0 38 19.5 66.5t54.5 40.5v8q-22 9 -34.5 30t-12.5 46q0 60 45 90q50 37 151 37q85 0 170 -35l-26 -61q-67 22 -139 22q-32 0 -52.5 -2.5t-39.5 -15.5t-19 -37
q0 -51 68 -51h151v-72h-166q-80 0 -80 -64q0 -34 27 -51q31 -24 106 -24zM883 616q0 149 -80 236q-81 84 -228 84q-160 0 -235 -84q-80 -80 -80 -236q0 -142 74 -225q86 -92 241 -92q158 0 236 88q72 81 72 229zM182 614q0 181 105 289q104 107 286 107q170 0 277 -99
q113 -107 113 -297q0 -162 -93 -272q-98 -121 -297 -121q-184 0 -284 105q-107 110 -107 288z" />
    <glyph glyph-name=".null" horiz-adv-x="0" 
 />
    <glyph glyph-name="nonmarkingreturn" horiz-adv-x="682" 
 />
    <glyph glyph-name="space" unicode=" " horiz-adv-x="475" 
 />
    <glyph glyph-name="exclam" unicode="!" horiz-adv-x="444" 
d="M342 1331h158l-45 -289l-129 -725h-131l102 725zM244 217q51 0 78.5 -25.5t27.5 -66.5q0 -59 -39.5 -98t-101.5 -39q-51 0 -79 26t-28 68q0 55 40 95t102 40z" />
    <glyph glyph-name="quotedbl" unicode="&#x22;" horiz-adv-x="569" 
d="M256 905l29 324h151l-71 -324h-109zM455 905l32 324h154l-78 -324h-108z" />
    <glyph glyph-name="numbersign" unicode="#" horiz-adv-x="1030" 
d="M303 250l47 201h-190l18 110h203l35 144h-215l18 110h225l54 215l114 -10l-51 -205h162l53 215l115 -10l-51 -205h207l-19 -110h-217l-35 -144h230l-19 -110h-239l-54 -211l-112 10l47 201h-158l-53 -211zM535 705l-35 -144h159l35 144h-159z" />
    <glyph glyph-name="dollar" unicode="$" horiz-adv-x="1296" 
d="M629 -184h-135l18 164q-226 6 -428 86l53 139q233 -78 471 -78q253 0 381 80q54 35 80.5 74t26.5 100q0 67 -52 106q-65 45 -208 68l-310 47q-173 28 -250 107q-67 70 -67 176q0 84 41 150.5t112 109.5q137 87 381 102l31 150h135l-16 -146q209 -8 401 -86l-69 -127
q-195 68 -400 68q-266 0 -379 -78q-59 -43 -59 -125q0 -58 47 -90q50 -38 160 -53l289 -45q195 -29 295 -111q92 -73 92 -192q0 -108 -43 -184t-129 -134q-145 -98 -436 -114z" />
    <glyph glyph-name="uni0025" unicode="%" horiz-adv-x="1372" 
d="M291 41l848 1003l88 -63l-848 -1006zM412 471q-130 0 -197 80q-51 57 -51 156q0 159 115 256q91 79 223 79q138 0 207 -94q41 -56 41 -141q0 -147 -101 -242q-91 -94 -237 -94zM569 637q64 61 64 158q0 57 -25 88q-39 51 -125 51q-80 0 -131 -45q-73 -63 -73 -164
q0 -51 24 -90q39 -55 125 -55q87 0 141 57zM1018 -23q-130 0 -197 80q-51 57 -51 156q0 159 115 256q93 80 223 80q138 0 207 -94q41 -56 41 -142q0 -146 -101 -241q-92 -95 -237 -95zM1176 143q63 60 63 158q0 57 -25 88q-39 51 -124 51q-81 0 -132 -45q-73 -63 -73 -164
q0 -51 24 -90q39 -55 125 -55q88 0 142 57z" />
    <glyph glyph-name="ampersand" unicode="&#x26;" horiz-adv-x="1492" 
d="M1016 780h508l-17 -112l-166 -17q-21 -113 -57 -207q-43 -101 -98 -178l94 -86q30 -26 56.5 -37t76.5 -20l27 -6l-33 -117h-33q-79 0 -124.5 14t-88.5 49l-90 76q-84 -72 -186 -114q-124 -48 -269 -48q-258 0 -385 121q-94 91 -94 246q0 141 78 254q58 93 176 154
q-57 69 -57 161q0 166 164 263q127 75 317 75q138 0 238.5 -26.5t193.5 -85.5l-86 -117q-144 88 -368 88q-134 0 -213 -47q-78 -49 -78 -129q0 -75 57 -121l514 -451q38 53 66 123q36 88 49 168l-189 19zM967 233l-480 422q-94 -46 -133 -112q-49 -79 -49 -168
q0 -111 68 -176q83 -80 260 -80q105 0 182 28q85 28 152 86z" />
    <glyph glyph-name="quotesingle" unicode="'" horiz-adv-x="382" 
d="M260 905l29 324h162l-78 -324h-113z" />
    <glyph glyph-name="parenleft" unicode="(" horiz-adv-x="456" 
d="M600 1253q-132 -173 -205 -400t-73 -458q0 -215 75 -428l-137 -63q-100 214 -100 477q0 253 81.5 493.5t241.5 442.5z" />
    <glyph glyph-name="parenright" unicode=")" horiz-adv-x="456" 
d="M31 -33q278 419 278 864q0 242 -76 422l138 64q98 -186 98 -473q0 -260 -80 -499.5t-242 -440.5z" />
    <glyph glyph-name="asterisk" unicode="*" horiz-adv-x="618" 
d="M606 1280l-84 -147l156 16l22 -14l-14 -88l-24 -11l-152 13l37 -146l-8 -24l-88 -29l-17 18l-12 152l-137 -100l-27 -5l-39 72l14 23l148 82l-121 84l-6 22l61 70l25 -2l102 -105l62 156l20 14l80 -26z" />
    <glyph glyph-name="plus" unicode="+" horiz-adv-x="755" 
d="M174 731h238l37 240h137l-37 -240h242l-23 -137h-242l-39 -240h-137l39 240h-237z" />
    <glyph glyph-name="comma" unicode="," horiz-adv-x="444" 
d="M129 -158l51 150q-32 7 -48.5 31t-16.5 59q0 59 38.5 97t102.5 38q50 0 78 -25.5t28 -66.5q0 -38 -26 -92l-121 -215z" />
    <glyph glyph-name="hyphen" unicode="-" horiz-adv-x="722" 
d="M156 606h583l-20 -137h-584z" />
    <glyph glyph-name="period" unicode="." horiz-adv-x="444" 
d="M254 217q50 0 77 -25.5t27 -66.5q0 -62 -38 -99.5t-101 -37.5q-51 0 -78.5 25.5t-27.5 68.5q0 58 39 96.5t102 38.5z" />
    <glyph glyph-name="slash" unicode="/" horiz-adv-x="614" 
d="M-20 -12l694 1300l135 -41l-698 -1302z" />
    <glyph glyph-name="zero" unicode="0" horiz-adv-x="1288" 
d="M811 1110q-194 0 -313 -119q-174 -174 -174 -510q0 -168 63 -254q80 -108 262 -108q201 0 326 137q85 92 125.5 223t40.5 277q0 149 -58 235q-82 119 -272 119zM831 1251q271 0 394 -172q84 -120 84 -319q0 -177 -56.5 -337t-175.5 -276q-173 -170 -446 -170
q-243 0 -373 148q-104 123 -104 346q0 182 60 348t187 279q176 153 430 153z" />
    <glyph glyph-name="one" unicode="1" horiz-adv-x="763" 
d="M268 948l-37 113l387 182l74 -14l-174 -1096l160 -10l-19 -123h-544l18 121l219 12l144 903z" />
    <glyph glyph-name="two" unicode="2" horiz-adv-x="1153" 
d="M98 0l21 135l645 422q125 81 174 137q90 97 90 217q0 88 -70 138q-75 59 -229 59q-119 0 -217 -30.5t-215 -98.5l-61 117q134 84 251 119.5t269 35.5q219 0 336 -100q102 -88 102 -225q0 -172 -127 -308q-77 -86 -223 -176l-473 -299h708l-20 -143h-961z" />
    <glyph glyph-name="three" unicode="3" horiz-adv-x="1175" 
d="M412 758h350q94 0 153 51q32 23 50 63t18 86q0 68 -59 107q-69 49 -224 49q-198 0 -374 -98l-56 106q195 129 467 129q208 0 322 -82q92 -68 92 -188q0 -95 -49 -166q-37 -58 -113 -100v-8q76 -37 111 -89q53 -71 53 -178q0 -203 -162 -329q-173 -134 -446 -134
q-161 0 -269.5 38t-205.5 118l88 117q103 -74 189.5 -101.5t219.5 -27.5q206 0 318 90q100 83 100 215q0 87 -37 137q-47 58 -176 58h-381z" />
    <glyph glyph-name="four" unicode="4" horiz-adv-x="1226" 
d="M94 217l19 115l798 897h138l26 -35l-741 -836h588l61 390l129 49h43l-70 -439h119l-22 -141h-119l-33 -217h-164l33 217h-805z" />
    <glyph glyph-name="five" unicode="5" horiz-adv-x="1159" 
d="M330 1229h835l-20 -139h-688l-49 -306q132 52 297 52q224 0 337 -107q97 -87 97 -235q0 -233 -168 -375q-165 -142 -436 -142q-162 0 -269.5 39t-195.5 117l100 119q83 -72 167 -101.5t214 -29.5q197 0 313 96q51 46 80 113t29 143q0 90 -58 148q-80 77 -268 77
q-93 0 -164 -19.5t-168 -62.5l-77 46z" />
    <glyph glyph-name="six" unicode="6" horiz-adv-x="1202" 
d="M1206 1145l-80 -123q-149 86 -327 86q-180 0 -287 -96q-100 -87 -147 -260q152 79 374 79q244 0 357 -110q90 -83 90 -223q0 -109 -46.5 -211t-133.5 -174q-161 -136 -414 -136q-233 0 -348 140q-94 117 -94 317q0 123 23 238.5t83.5 234t153.5 201.5q165 143 405 143
q231 0 391 -106zM334 614q-17 -90 -17 -172q0 -151 62 -227q76 -96 235 -96q174 0 285 96q54 47 86.5 115t32.5 143q0 84 -47 137q-71 80 -254 80q-116 0 -204 -18t-179 -58z" />
    <glyph glyph-name="seven" unicode="7" horiz-adv-x="1114" 
d="M199 893l55 336h985l-22 -129q-213 -192 -379 -422q-141 -196 -267 -457l-106 -221h-174l125 262q109 229 272 461q145 204 309 362h-606l-61 -192h-131z" />
    <glyph glyph-name="eight" unicode="8" horiz-adv-x="1232" 
d="M408 705q-50 31 -68 69q-31 48 -31 115q0 94 42.5 166t117.5 116q132 80 334 80q220 0 325 -88q72 -60 72 -168q0 -111 -72 -194q-47 -60 -102 -84q88 -38 133 -94q58 -71 58 -172q0 -215 -177 -349q-174 -125 -438 -125q-279 0 -399 123q-88 88 -88 217q0 167 116 275
q71 71 177 113zM864 758q91 31 133 90q39 55 39 125q0 58 -45 94q-62 49 -209 49q-146 0 -219 -45q-90 -56 -90 -166q0 -52 27 -82q50 -59 227 -59q75 0 137 -6zM543 639q-118 -37 -181 -100q-81 -84 -81 -193q0 -97 65 -153q89 -74 277 -74q205 0 321 94q105 84 105 215
q0 104 -95 156q-46 26 -103 34.5t-146 8.5q-91 0 -162 12z" />
    <glyph glyph-name="nine" unicode="9" horiz-adv-x="1202" 
d="M154 84l84 125q80 -46 156 -67t169 -21q178 0 289 90q99 78 160 266q-75 -39 -176 -62.5t-203 -23.5q-227 0 -336 101q-104 97 -104 253q0 205 155 351q168 155 436 155q263 0 375 -166q68 -107 68 -284q0 -199 -63 -380t-199 -296q-164 -148 -418 -148q-228 0 -393 107z
M1042 614q19 106 19 181q0 127 -47 200q-71 113 -252 113q-186 0 -293 -92q-109 -95 -109 -242q0 -101 56 -164q73 -78 243 -78q115 0 203.5 20t179.5 62z" />
    <glyph glyph-name="colon" unicode=":" horiz-adv-x="444" 
d="M266 332q50 0 77.5 -25.5t27.5 -66.5q0 -62 -38.5 -100t-101.5 -38q-51 0 -78.5 26t-27.5 69q0 58 39 96.5t102 38.5zM328 717q50 0 77 -25.5t27 -66.5q0 -62 -38 -100t-101 -38q-51 0 -79 26t-28 69q0 58 39.5 96.5t102.5 38.5z" />
    <glyph glyph-name="semicolon" unicode=";" horiz-adv-x="444" 
d="M125 -158l51 150q-32 7 -48.5 31t-16.5 59q0 59 38.5 97t102.5 38q50 0 78 -25.5t28 -66.5q0 -38 -26 -92l-121 -215zM346 834q50 0 77.5 -26t27.5 -67q0 -62 -38.5 -99.5t-101.5 -37.5q-51 0 -78.5 25.5t-27.5 68.5q0 58 39 97t102 39z" />
    <glyph glyph-name="less" unicode="&#x3c;" horiz-adv-x="667" 
d="M657 963l50 -93l-351 -243l277 -234l-80 -92l-395 299l10 64z" />
    <glyph glyph-name="equal" unicode="=" horiz-adv-x="784" 
d="M152 592h645l-21 -131h-645zM193 852h645l-21 -131h-645z" />
    <glyph glyph-name="greater" unicode="&#x3e;" horiz-adv-x="667" 
d="M190 297l-49 92l355 252l-281 225l80 92l395 -299l-10 -63z" />
    <glyph glyph-name="question" unicode="?" horiz-adv-x="1212" 
d="M457 305l18 111q18 118 82 181.5t182 88.5l43 10q163 36 230 92q42 33 66 83t24 108q0 88 -64 143q-90 76 -319 76q-244 0 -479 -131l-50 123q255 151 558 151q293 0 428 -110q98 -82 98 -219q0 -89 -35 -170t-100 -140q-115 -100 -318 -143l-69 -16q-61 -13 -90.5 -48.5
t-40.5 -97.5l-17 -92h-147zM518 217q50 0 77.5 -25.5t27.5 -66.5q0 -62 -38.5 -99.5t-101.5 -37.5q-51 0 -78.5 26.5t-27.5 69.5q0 59 40.5 96t100.5 37z" />
    <glyph glyph-name="at" unicode="@" horiz-adv-x="1468" 
d="M1169 817l-65 -424q-4 -32 -4 -39q0 -38 17.5 -53.5t51.5 -15.5q49 0 82 30q51 51 78 128.5t27 158.5q0 192 -111 303q-122 119 -350 119q-132 0 -249.5 -47t-205.5 -135q-78 -79 -121 -184.5t-43 -225.5q0 -209 123 -326q123 -114 330 -114q188 0 371 61l18 -102
q-209 -84 -407 -84q-273 0 -428 149q-152 146 -152 396q0 150 58.5 285t166.5 235q108 103 251 160t306 57q132 0 243 -39t187 -115q144 -141 144 -374q0 -254 -160 -385q-80 -68 -178 -68q-112 0 -158 76q-127 -86 -270 -86q-132 0 -207 78q-76 76 -76 213q0 175 123 286
q106 101 262 101q129 0 224 -62l26 45zM1006 666q-74 47 -193 47q-105 0 -170 -68t-65 -178q0 -82 36 -127q42 -57 134 -57q109 0 215 65q-2 8 -2 27q0 9 4 33z" />
    <glyph glyph-name="A" unicode="A" horiz-adv-x="1456" 
d="M801 1229h225l360 -1229h-174l-71 240h-766l-148 -240h-178zM872 1073l-413 -690h643l-193 690h-37z" />
    <glyph glyph-name="B" unicode="B" horiz-adv-x="1302" 
d="M315 1229h623q188 0 281 -90q67 -64 67 -168q0 -97 -43 -170q-48 -78 -127 -121v-12q72 -28 115 -94t43 -150q0 -85 -35 -162t-96 -135q-140 -127 -346 -127h-676zM383 594l-72 -455h469q152 0 242 80q84 74 84 195q0 180 -221 180h-502zM463 1090l-57 -359h493
q49 0 92.5 17.5t69.5 48.5q55 58 55 143q0 150 -194 150h-459z" />
    <glyph glyph-name="C" unicode="C" horiz-adv-x="1290" 
d="M1384 1163l-75 -123q-155 68 -353 68q-242 0 -403 -123q-104 -76 -162.5 -193t-58.5 -255q0 -178 96 -279q128 -137 365 -137q202 0 395 80l39 -129q-110 -49 -217.5 -72t-245.5 -23q-308 0 -477 177q-61 65 -96 159t-35 205q0 175 77.5 328.5t225.5 255.5
q211 149 514 149q247 0 411 -88z" />
    <glyph glyph-name="D" unicode="D" horiz-adv-x="1339" 
d="M315 1229h480q302 0 442 -137q125 -128 125 -334q0 -169 -47 -313.5t-141 -241.5q-191 -203 -568 -203h-485zM463 1085l-150 -942h293q295 0 436 150q73 72 110.5 193t37.5 259q0 146 -70 228q-93 112 -340 112h-317z" />
    <glyph glyph-name="E" unicode="E" horiz-adv-x="1222" 
d="M121 0l194 1229h975l-24 -144h-803l-60 -364h717l-20 -143h-719l-68 -435h832l-23 -143h-1001z" />
    <glyph glyph-name="F" unicode="F" horiz-adv-x="1155" 
d="M315 1229h945l-23 -144h-774l-62 -389h691l-23 -143h-690l-88 -553h-170z" />
    <glyph glyph-name="G" unicode="G" horiz-adv-x="1398" 
d="M877 588l20 125h481l-110 -713h-113l-25 84q-173 -107 -407 -107q-146 0 -251.5 43.5t-186.5 129.5q-129 139 -129 366q0 175 77.5 328.5t225.5 257.5q213 149 518 149q118 0 227.5 -24.5t186.5 -67.5l-76 -121q-156 70 -361 70q-234 0 -393 -115q-109 -78 -169 -197.5
t-60 -260.5q0 -177 92 -275q124 -139 328 -139q179 0 383 90l57 360z" />
    <glyph glyph-name="H" unicode="H" horiz-adv-x="1363" 
d="M1247 1229h170l-194 -1229h-170l92 586h-762l-90 -586h-172l194 1229h172l-79 -500h759z" />
    <glyph glyph-name="I" unicode="I" horiz-adv-x="432" 
d="M315 1229h170l-194 -1229h-170z" />
    <glyph glyph-name="J" unicode="J" horiz-adv-x="1034" 
d="M918 1229h169l-106 -672q-27 -166 -78 -271t-129 -171q-166 -138 -448 -138q-148 0 -289 58l51 127q116 -41 254 -41q212 0 320 96q109 95 147 320z" />
    <glyph glyph-name="K" unicode="K" horiz-adv-x="1314" 
d="M315 1229h172l-81 -502h337l474 502h208l-538 -567l358 -662h-198l-306 584h-358l-90 -584h-172z" />
    <glyph glyph-name="L" unicode="L" horiz-adv-x="1157" 
d="M313 143h777l-21 -143h-948l194 1229h170z" />
    <glyph glyph-name="M" unicode="M" horiz-adv-x="1658" 
d="M315 1229h252l277 -1063l608 1063h260l-194 -1229h-168l163 1026h-10l-588 -1026h-196l-268 1026h-11l-159 -1026h-160z" />
    <glyph glyph-name="N" unicode="N" horiz-adv-x="1388" 
d="M1280 1229h162l-195 -1229h-162l-645 997l-155 -997h-164l194 1229h164l643 -993z" />
    <glyph glyph-name="O" unicode="O" horiz-adv-x="1425" 
d="M1174 1004q-104 104 -293 104q-220 0 -361 -125q-192 -172 -192 -475q0 -174 88 -275q103 -112 301 -112q236 0 381 145q86 85 130 207.5t44 259.5q0 173 -98 271zM154 492q0 169 64 323t190 264q197 172 491 172q258 0 404 -143q141 -138 141 -358q0 -161 -56.5 -314
t-168.5 -264q-201 -195 -521 -195q-259 0 -407 142q-137 128 -137 373z" />
    <glyph glyph-name="P" unicode="P" horiz-adv-x="1261" 
d="M315 1229h584q198 0 311 -113q93 -96 93 -246q0 -119 -44 -218.5t-126 -168.5q-155 -133 -400 -133h-387l-55 -350h-170zM463 1085l-94 -591h374q168 0 271 86q116 96 116 278q0 113 -57 164q-66 63 -211 63h-399z" />
    <glyph glyph-name="Q" unicode="Q" horiz-adv-x="1427" 
d="M1260 -51v-123q-49 -14 -97 -14q-96 0 -145 32q-58 33 -105 125l-12 33q-103 -25 -205 -25q-246 0 -397 136q-143 131 -143 381q0 172 65.5 326.5t196.5 264.5q196 166 487 166q250 0 393 -137q148 -142 148 -366q0 -150 -49 -292.5t-148 -248.5q-88 -98 -188 -148
l10 -18q25 -52 66 -76q33 -20 80 -20q15 0 43 4zM1098 264q88 85 132 208t44 261q0 175 -98 273q-105 102 -293 102q-217 0 -363 -127q-190 -175 -190 -473q0 -176 86 -272q103 -115 303 -115q233 0 379 143z" />
    <glyph glyph-name="R" unicode="R" horiz-adv-x="1275" 
d="M315 1229h574q220 0 328 -105q92 -95 92 -245q0 -185 -121 -316q-92 -100 -238 -147l195 -416h-182l-175 387h-436l-61 -387h-170zM463 1085l-88 -555h399q165 0 264 99q99 93 99 239q0 107 -58 162t-211 55h-405z" />
    <glyph glyph-name="S" unicode="S" horiz-adv-x="1296" 
d="M1294 1167l-67 -129q-195 68 -402 68q-130 0 -218.5 -11t-143.5 -48q-78 -53 -78 -150q0 -68 54.5 -100.5t154.5 -46.5l289 -37q192 -28 295 -111q92 -75 92 -192q0 -202 -172 -316q-176 -117 -525 -117q-263 0 -485 89l49 141q230 -80 471 -80q261 0 387 84
q50 34 75.5 73t25.5 97q0 37 -15 65.5t-37.5 46t-58.5 30.5t-69 20t-78 12l-312 41q-165 22 -247 104q-70 70 -70 181q0 88 42.5 158.5t119.5 117.5q81 50 192.5 72t278.5 22q244 0 452 -84z" />
    <glyph glyph-name="T" unicode="T" horiz-adv-x="1306" 
d="M221 1085l25 144h1188l-25 -144h-510l-170 -1085h-170l170 1085h-508z" />
    <glyph glyph-name="U" unicode="U" horiz-adv-x="1368" 
d="M315 1229h170l-110 -707q-10 -62 -10 -106q0 -125 63 -201q81 -94 264 -94q175 0 293 98q61 52 100.5 133t61.5 217l106 660h168l-110 -703q-43 -268 -211 -411q-170 -138 -430 -138q-249 0 -375 132q-100 106 -100 290q0 73 10 127z" />
    <glyph glyph-name="V" unicode="V" horiz-adv-x="1417" 
d="M815 0h-235l-336 1229h184l277 -1071h28l621 1071h188z" />
    <glyph glyph-name="W" unicode="W" horiz-adv-x="2004" 
d="M688 0h-242l-202 1229h178l166 -1073h12l477 1073h221l140 -1073h16l496 1073h180l-586 -1229h-250l-133 1038h-10z" />
    <glyph glyph-name="X" unicode="X" horiz-adv-x="1310" 
d="M473 1229l283 -498l430 498h205l-527 -600l377 -629h-205l-311 545l-467 -545h-209l572 649l-351 580h203z" />
    <glyph glyph-name="Y" unicode="Y" horiz-adv-x="1380" 
d="M766 0h-170l45 285l-397 944h192l305 -772h15l551 772h198l-694 -940z" />
    <glyph glyph-name="Z" unicode="Z" horiz-adv-x="1183" 
d="M1126 143l-22 -143h-1045l17 100l960 992l-321 -5h-434l22 142h989l-16 -101l-959 -993l314 8h495z" />
    <glyph glyph-name="bracketleft" unicode="[" horiz-adv-x="483" 
d="M471 1231l-195 -1229h144l-23 -137h-299l238 1503h299l-21 -137h-143z" />
    <glyph glyph-name="backslash" unicode="\" horiz-adv-x="618" 
d="M324 1288l284 -1304l-137 -39l-287 1306z" />
    <glyph glyph-name="bracketright" unicode="]" horiz-adv-x="483" 
d="M186 2l195 1229h-143l20 137h299l-238 -1503h-299l23 137h143z" />
    <glyph glyph-name="asciicircum" unicode="^" horiz-adv-x="753" 
d="M811 907l-90 -67l-184 241l-269 -241l-71 67l331 344h60z" />
    <glyph glyph-name="underscore" unicode="_" horiz-adv-x="727" 
d="M14 -98h670l-20 -127h-668z" />
    <glyph glyph-name="grave" unicode="`" horiz-adv-x="509" 
d="M489 1483l74 -316l-106 -32l-113 301z" />
    <glyph glyph-name="a" unicode="a" horiz-adv-x="1267" 
d="M1305 1024l-117 -737q-10 -78 -10 -131q0 -76 18 -136l-106 -30q-51 48 -64 129q-177 -137 -420 -137q-203 0 -319 98q-142 110 -142 338q0 145 52.5 268t150.5 211q161 145 410 145q248 0 379 -120l51 102h117zM1014 244l90 555q-76 56 -160.5 80t-202.5 24
q-175 0 -290 -115q-140 -134 -140 -352q0 -163 99 -243q83 -68 231 -68q209 0 373 119z" />
    <glyph glyph-name="b" unicode="b" horiz-adv-x="1294" 
d="M330 1331h166l-66 -413q176 124 401 124q242 0 361 -131q102 -108 102 -301q0 -280 -178 -458q-164 -170 -436 -170q-262 0 -389 133l-55 -115h-115zM408 768l-86 -532q81 -61 165.5 -86t208.5 -25q197 0 310 129q120 132 120 344q0 146 -75 221q-82 82 -252 82
q-215 0 -391 -133z" />
    <glyph glyph-name="c" unicode="c" horiz-adv-x="1091" 
d="M1157 977l-61 -123q-124 47 -303 47q-209 0 -326 -100q-158 -133 -158 -355q0 -146 88 -231q90 -90 273 -90q78 0 170 13.5t157 37.5l27 -127q-162 -67 -383 -67q-240 0 -371 122q-129 119 -129 322q0 143 56 265.5t168 211.5q175 139 444 139q215 0 348 -65z" />
    <glyph glyph-name="d" unicode="d" horiz-adv-x="1292" 
d="M1012 115q-88 -71 -190.5 -102t-235.5 -31q-234 0 -350 122q-101 112 -101 299q0 315 215 498q159 141 420 141q224 0 358 -124l66 413h166l-209 -1331h-115zM1024 242l82 532q-124 127 -350 127q-187 0 -297 -96q-156 -132 -156 -379q0 -149 76 -225t239 -76
q118 0 210.5 27.5t195.5 89.5z" />
    <glyph glyph-name="e" unicode="e" horiz-adv-x="1200" 
d="M1014 172l22 -123q-168 -67 -409 -67q-121 0 -219.5 34.5t-159.5 100.5q-50 53 -77.5 134t-27.5 171q0 145 57 269.5t160 209.5q171 141 420 141q188 0 299 -63q70 -40 104 -97t34 -139q0 -72 -39.5 -133t-104.5 -92q-108 -50 -247 -69t-324 -19q-106 0 -191 14
q0 -155 68 -229q88 -94 287 -94q180 0 348 51zM328 563q239 0 375.5 10.5t226.5 38.5q72 20 100.5 51.5t28.5 88.5q0 67 -72 112q-65 39 -215 39q-179 0 -297 -92q-110 -86 -147 -248z" />
    <glyph glyph-name="f" unicode="f" horiz-adv-x="819" 
d="M201 1001l188 17l12 65q25 155 138 248q123 107 315 107q207 0 350 -107l-82 -100q-133 65 -278 65q-128 0 -195 -61q-68 -61 -82 -154l-8 -57h377l-23 -123l-378 -16l-140 -885h-166l140 883h-187z" />
    <glyph glyph-name="g" unicode="g" horiz-adv-x="1294" 
d="M1202 1024h113l-148 -928q-40 -235 -184 -356q-152 -127 -414 -127q-140 0 -242.5 29.5t-201.5 95.5l74 115q173 -97 389 -97q200 0 305 105q84 84 106 215l5 30q-173 -124 -402 -124q-219 0 -342 114q-125 112 -125 316q0 302 205 485q161 145 410 145q267 0 391 -135z
M1026 254l86 534q-82 62 -167 87.5t-206 25.5q-181 0 -293 -106q-143 -137 -143 -359q0 -161 92 -241q87 -72 240 -72q216 0 391 131z" />
    <glyph glyph-name="h" unicode="h" horiz-adv-x="1273" 
d="M330 1331h166l-64 -411q174 122 389 122q213 0 314 -98q98 -88 98 -252q0 -64 -12 -137l-86 -555h-166l86 551q8 52 8 111q0 117 -57 174q-65 65 -220 65q-197 0 -376 -125l-123 -776h-166z" />
    <glyph glyph-name="i" unicode="i" horiz-adv-x="471" 
d="M203 1024h291l-162 -1024h-166l141 897l-123 12zM471 1403q51 0 79 -26t28 -66q0 -55 -39.5 -92t-102.5 -37q-51 0 -78.5 26.5t-27.5 67.5q0 53 40 90t101 37z" />
    <glyph glyph-name="j" unicode="j" horiz-adv-x="471" 
d="M184 909l19 115h291l-166 -1040q-25 -167 -142 -269q-123 -102 -303 -102q-95 0 -166.5 21t-144.5 69l72 117q63 -35 119 -49.5t131 -14.5q115 0 184 66q72 72 90 194l139 881zM471 1403q50 0 77 -26t27 -66q0 -54 -38 -91.5t-101 -37.5q-52 0 -80 26t-28 66q0 55 40 92
t103 37z" />
    <glyph glyph-name="k" unicode="k" horiz-adv-x="1210" 
d="M330 1331h166l-111 -708h365l337 401h199l-397 -465l252 -559h-187l-206 481h-386l-75 -481h-166z" />
    <glyph glyph-name="l" unicode="l" horiz-adv-x="434" 
d="M193 1223l18 108h291l-209 -1331h-166l188 1204z" />
    <glyph glyph-name="m" unicode="m" horiz-adv-x="2004" 
d="M285 1024h112l23 -113q169 131 373 131q150 0 235 -51q73 -44 113 -117q203 168 440 168q211 0 311 -106q76 -82 76 -238q0 -37 -12 -147l-88 -551h-166l88 555q14 93 14 129q0 106 -47 156q-58 61 -207 61q-195 0 -374 -135q6 -38 6 -76q0 -53 -13 -139l-86 -551h-168
l89 555q10 54 10 119q0 116 -56 172q-50 55 -196 55q-102 0 -182.5 -29t-167.5 -96l-123 -776h-166z" />
    <glyph glyph-name="n" unicode="n" horiz-adv-x="1273" 
d="M285 1024h112l23 -113q177 131 401 131q217 0 320 -100q94 -88 94 -250q0 -52 -10 -137l-88 -555h-166l86 551q10 51 10 111q0 120 -59 176q-63 63 -217 63q-110 0 -197.5 -28.5t-181.5 -94.5l-123 -778h-166z" />
    <glyph glyph-name="o" unicode="o" horiz-adv-x="1239" 
d="M776 1042q216 0 340 -112q131 -118 131 -332q0 -305 -223 -487q-160 -129 -416 -129q-227 0 -354 133q-117 120 -117 313q0 285 207 469q164 145 432 145zM754 903q-187 0 -301 -102q-148 -136 -148 -359q0 -138 74 -225q81 -96 254 -96q178 0 293 94q155 134 155 367
q0 149 -77 235q-86 86 -250 86z" />
    <glyph glyph-name="p" unicode="p" horiz-adv-x="1292" 
d="M287 1024h114l21 -115q171 133 428 133q225 0 348 -135q100 -114 100 -295q0 -268 -161 -440q-177 -190 -473 -190q-230 0 -357 124l-65 -413h-166zM416 788l-86 -532q134 -131 350 -131q199 0 317 115q131 131 131 356q0 141 -75 219q-83 86 -236 86
q-123 0 -211.5 -25.5t-189.5 -87.5z" />
    <glyph glyph-name="q" unicode="q" horiz-adv-x="1292" 
d="M1317 1024l-211 -1331h-166l66 411q-174 -122 -400 -122q-218 0 -340 116q-125 119 -125 324q0 282 197 463q167 157 426 157q254 0 379 -131l61 113h113zM1028 254l86 537q-82 62 -161.5 86t-200.5 24q-179 0 -297 -106q-146 -136 -146 -351q0 -154 88 -239
q83 -80 242 -80q217 0 389 129z" />
    <glyph glyph-name="r" unicode="r" horiz-adv-x="1097" 
d="M285 1024h112l23 -113q173 131 397 131q229 0 352 -102l-94 -119q-116 80 -287 80q-107 0 -194.5 -28.5t-181.5 -94.5l-123 -778h-166z" />
    <glyph glyph-name="s" unicode="s" horiz-adv-x="1150" 
d="M1145 969l-53 -125q-177 59 -369 59q-228 0 -309 -47q-62 -40 -62 -100t41 -86q43 -28 135 -37l273 -35q172 -19 250 -92q65 -62 65 -160q0 -184 -166 -278q-149 -86 -440 -86q-127 0 -224 18.5t-190 62.5l60 127q179 -69 370 -69q137 0 217.5 15.5t130.5 51.5
q76 56 76 129q0 58 -32 86q-38 35 -156 50l-279 32q-176 20 -245 101q-52 58 -52 149q0 65 32 120t89 93q74 52 173.5 73t254.5 21q218 0 410 -73z" />
    <glyph glyph-name="t" unicode="t" horiz-adv-x="933" 
d="M178 883l19 118l192 19l68 246h133l-37 -242h446l-20 -121l-451 -18l-86 -553q-6 -30 -6 -60q0 -149 189 -149q75 0 139 15t143 52l35 -112q-88 -52 -173.5 -74t-188.5 -22q-181 0 -258 90q-54 66 -54 174q0 38 6 84l88 553h-184z" />
    <glyph glyph-name="u" unicode="u" horiz-adv-x="1275" 
d="M283 1024h166l-89 -551q-8 -55 -8 -104q0 -128 60 -185q63 -63 217 -63q108 0 196.5 29.5t184.5 97.5l120 776h168l-161 -1024h-115l-23 113q-174 -131 -401 -131q-215 0 -317 94q-99 89 -99 258q0 55 13 135z" />
    <glyph glyph-name="v" unicode="v" horiz-adv-x="1249" 
d="M481 0l-268 1024h176l215 -877h70l483 877h186l-591 -1024h-271z" />
    <glyph glyph-name="w" unicode="w" horiz-adv-x="1841" 
d="M418 0l-205 1024h176l162 -877h29l370 877h238l108 -877h31l426 877h180l-526 -1024h-244l-112 866h-17l-366 -866h-250z" />
    <glyph glyph-name="x" unicode="x" horiz-adv-x="1220" 
d="M248 0h-197l467 549l-272 475h188l223 -410h74l352 410h195l-422 -483l297 -541h-190l-242 465h-86z" />
    <glyph glyph-name="y" unicode="y" horiz-adv-x="1277" 
d="M530 0l-319 1024h182l260 -877h47l496 877h184l-684 -1165q-61 -102 -139 -142q-62 -34 -170 -34q-42 0 -88 16l35 123q34 -6 57 -6q55 0 94 20q49 25 84 88l45 76h-84z" />
    <glyph glyph-name="z" unicode="z" horiz-adv-x="1091" 
d="M227 883l25 141h913l-14 -90l-821 -795h694l-20 -139h-932l18 106l801 777h-664z" />
    <glyph glyph-name="braceleft" unicode="{" horiz-adv-x="557" 
d="M725 1368l-20 -135h-74q-49 0 -75.5 -22.5t-33.5 -73.5l-53 -332q-22 -137 -111 -187v-8q56 -42 56 -129q0 -19 -4 -59l-54 -330q-4 -24 -4 -33q0 -31 21 -48t61 -17h74l-21 -135h-81q-95 0 -150 43.5t-55 134.5q0 33 4 53l57 359q2 12 2 26q0 72 -78 72h-49l21 135h47
q46 0 73 25t35 69l56 361q21 119 94.5 175t179.5 56h82z" />
    <glyph glyph-name="bar" unicode="|" horiz-adv-x="391" 
d="M332 1331h129l-258 -1638h-129z" />
    <glyph glyph-name="braceright" unicode="}" horiz-adv-x="557" 
d="M244 1368h82q93 0 148.5 -43t55.5 -131q0 -37 -4 -57l-57 -357q-2 -12 -2 -30q0 -70 78 -70h47l-21 -135h-47q-90 0 -106 -94l-58 -359q-19 -120 -93.5 -176.5t-180.5 -56.5h-80l21 135h71q48 0 75 23t34 75l53 330q23 136 111 188v8q-56 39 -56 127q0 25 7 60l51 330
q4 24 4 36q0 62 -82 62h-74z" />
    <glyph glyph-name="asciitilde" unicode="~" horiz-adv-x="833" 
d="M496 569q-79 29 -140 29q-79 0 -139 -43l-45 90q102 80 205 80q67 0 143 -31q73 -28 139 -28q72 0 142 47l41 -95q-102 -75 -205 -75q-73 0 -141 26z" />
    <glyph glyph-name="exclamdown" unicode="&#xa1;" horiz-adv-x="444" 
d="M221 -102h-158l46 288l129 725h131l-103 -725zM319 1012q-51 0 -78.5 25.5t-27.5 66.5q0 59 39.5 98t101.5 39q51 0 79 -26t28 -68q0 -55 -40 -95t-102 -40z" />
    <glyph glyph-name="cent" unicode="&#xa2;" horiz-adv-x="1091" 
d="M754 1174h127l-15 -134q177 -7 293 -63l-63 -123q-124 47 -303 47q-205 0 -322 -94q-162 -134 -162 -358q0 -149 88 -234q90 -90 273 -90q78 0 170 13.5t157 37.5l27 -127q-139 -59 -328 -65l-28 -156h-127l16 160q-188 20 -287 116q-129 119 -129 322q0 294 221 475
q140 115 363 137z" />
    <glyph glyph-name="currency" unicode="&#xa4;" horiz-adv-x="903" 
d="M328 944l71 -82q82 45 185 45t170 -45l98 82l78 -90l-99 -82q27 -52 27 -117q0 -135 -82 -241l70 -84l-105 -92l-73 86q-82 -48 -185 -48t-170 48l-98 -86l-74 92l92 84q-22 55 -22 116q0 134 80 242l-68 82zM565 786q-100 0 -164.5 -64.5t-64.5 -170.5q0 -76 41.5 -115
t120.5 -39q102 0 166.5 66.5t64.5 171.5q0 75 -42 113t-122 38z" />
    <glyph glyph-name="yen" unicode="&#xa5;" horiz-adv-x="1380" 
d="M397 446l172 11l-325 772h192l307 -770h15l555 770h192l-571 -772l168 -11l-17 -112h-704zM369 262h704l-16 -112l-271 -11l-20 -139h-170l20 139l-266 11z" />
    <glyph glyph-name="brokenbar" unicode="&#xa6;" horiz-adv-x="391" 
d="M332 1331h129l-123 -778h-129zM197 471h129l-123 -778h-129z" />
    <glyph glyph-name="section" unicode="&#xa7;" horiz-adv-x="1034" 
d="M1014 1249l-60 -110q-118 45 -266 45q-135 0 -194 -37q-56 -34 -56 -103q0 -98 162 -124l111 -19q178 -30 254 -104q67 -64 67 -162q0 -104 -78 -201q-48 -57 -112 -94q59 -50 59 -133q0 -68 -34.5 -130t-94.5 -100q-114 -79 -307 -79q-206 0 -340 67l63 113
q121 -47 297 -47q115 0 189 39q71 44 71 114q0 49 -35 70.5t-116 38.5l-156 29q-159 31 -227 102q-55 61 -55 158q0 114 82 202q48 54 120 88q-69 60 -69 148q0 65 30.5 123t86.5 96q115 76 299 76q177 0 309 -66zM457 817q-64 -37 -97 -72q-51 -62 -51 -133q0 -55 29 -92
q41 -43 149 -63l156 -29q45 -8 98 -27q45 29 80 70q53 56 53 139q0 64 -38 99q-55 47 -179 65l-110 21q-60 12 -90 22z" />
    <glyph glyph-name="dieresis" unicode="&#xa8;" horiz-adv-x="854" 
d="M449 1362q46 0 72 -23t26 -61q0 -54 -36 -89.5t-95 -35.5q-46 0 -71.5 23t-25.5 61q0 54 36.5 89.5t93.5 35.5zM834 1362q46 0 71 -23t25 -61q0 -54 -36 -89.5t-95 -35.5q-46 0 -71.5 23t-25.5 61q0 54 37.5 89.5t94.5 35.5z" />
    <glyph glyph-name="copyright" unicode="&#xa9;" horiz-adv-x="1357" 
d="M1038 846l-51 -103q-80 31 -180 31q-106 0 -166 -51q-80 -68 -80 -174q0 -89 51 -131q49 -43 133 -43q92 0 187 35l20 -105q-105 -47 -227 -47q-137 0 -213 70q-80 74 -80 202q0 180 143 285q98 76 250 76q118 0 213 -45zM1233 655q0 167 -90 271q-103 118 -309 118
q-221 0 -369 -135q-178 -161 -178 -415q0 -170 96 -277q109 -115 303 -115q231 0 375 138q83 80 127.5 186.5t44.5 228.5zM666 -23q-259 0 -398 158q-116 132 -116 344q0 144 56.5 276.5t168.5 235.5q194 178 477 178q253 0 391 -153q123 -136 123 -346q0 -148 -56 -281
t-167 -235q-193 -177 -479 -177z" />
    <glyph glyph-name="ordfeminine" unicode="&#xaa;" horiz-adv-x="714" 
d="M707 1243h77l-61 -379q-4 -36 -4 -51q0 -41 12 -88l-74 -27q-26 26 -34 56q-94 -58 -183 -58q-120 0 -176 56q-65 59 -65 166q0 166 114 266q79 67 207 67q100 0 162 -49zM653 1112q-37 25 -64.5 33t-80.5 8q-83 0 -129 -43q-66 -63 -66 -178q0 -56 25 -92
q33 -45 121 -45q44 0 77.5 11.5t75.5 37.5z" />
    <glyph glyph-name="guillemotleft" unicode="&#xab;" horiz-adv-x="774" 
d="M152 588l10 59l327 289l66 -62l-246 -266l166 -248l-86 -61zM645 299l-237 289l10 59l327 289l66 -62l-246 -266l166 -248z" />
    <glyph glyph-name="logicalnot" unicode="&#xac;" horiz-adv-x="743" 
d="M612 479l19 193h-465l22 137h605l-54 -330h-127z" />
    <glyph glyph-name="uni00AD" unicode="&#xad;" horiz-adv-x="727" 
d="M158 606h583l-20 -137h-584z" />
    <glyph glyph-name="registered" unicode="&#xae;" horiz-adv-x="851" 
d="M498 551q-148 0 -230 88q-65 68 -65 190q0 201 141 318q112 94 264 94q159 0 240 -100q57 -66 57 -180q0 -83 -32 -164t-95 -140q-112 -106 -280 -106zM719 709q100 97 100 241q0 79 -41 135q-60 76 -182 76q-118 0 -197 -67q-53 -42 -81.5 -108t-28.5 -142
q0 -86 41 -135q59 -78 182 -78t207 78zM442 1075h146q69 0 104 -35q31 -28 31 -69q0 -91 -84 -129l51 -119h-88l-43 100h-78l-16 -100h-78zM508 999l-16 -102h86q32 0 45 16q18 14 18 45q0 21 -10 31q-7 10 -37 10h-86z" />
    <glyph glyph-name="macron" unicode="&#xaf;" horiz-adv-x="849" 
d="M317 1280h605l-21 -121h-604z" />
    <glyph glyph-name="degree" unicode="&#xb0;" horiz-adv-x="696" 
d="M444 676q-104 0 -177.5 68.5t-73.5 173.5q0 142 94 235.5t239 93.5q109 0 180.5 -65.5t71.5 -175.5q0 -145 -91 -237.5t-243 -92.5zM463 788q96 0 146 54t50 149q0 65 -40.5 105.5t-110.5 40.5q-87 0 -143 -55t-56 -146q0 -64 44 -106t110 -42z" />
    <glyph glyph-name="plusminus" unicode="&#xb1;" horiz-adv-x="755" 
d="M129 393h600l-22 -133h-601zM188 819h240l37 240h133l-37 -240h244l-23 -133h-243l-37 -240h-133l37 240h-240z" />
    <glyph glyph-name="twosuperior" unicode="&#xb2;" horiz-adv-x="579" 
d="M354 805h264l-14 -92h-430l12 90l281 174q48 31 72 58.5t24 66.5q0 26 -18 41q-27 24 -88 24q-98 0 -195 -55l-35 76q118 72 244 72q108 0 156 -48q41 -36 41 -94q0 -51 -31 -108q-42 -63 -125 -111z" />
    <glyph glyph-name="threesuperior" unicode="&#xb3;" horiz-adv-x="595" 
d="M666 1137q0 -71 -56 -109q54 -36 54 -110q0 -86 -64 -144q-78 -72 -211 -72q-134 0 -223 80l61 72q74 -57 176 -57q81 0 123 37q37 30 37 71q0 30 -19 46t-52 16h-183l15 88h165q74 0 74 59q0 55 -102 55q-89 0 -178 -45l-31 70q102 66 229 66q48 0 87.5 -10.5
t68.5 -39.5t29 -73z" />
    <glyph glyph-name="acute" unicode="&#xb4;" horiz-adv-x="509" 
d="M305 1176l168 301l131 -74l-203 -279z" />
    <glyph glyph-name="mu" unicode="&#xb5;" horiz-adv-x="1257" 
d="M1120 0h-121l-6 143q-178 -161 -403 -161q-119 0 -195 55q-56 38 -94 117l-6 -4l-45 -416l-43 -31h-129l203 1288l41 33h129l-74 -461q-10 -75 -10 -131q0 -140 61 -221q68 -88 197 -88q104 0 189 38t185 124l117 739h166z" />
    <glyph glyph-name="paragraph" unicode="&#xb6;" horiz-adv-x="1005" 
d="M1051 1229l6 -82l-119 -21l-49 -4v-993q0 -181 -25 -303l-6 -29l-63 -20l-27 14v1325h-109v-1061q0 -199 -24 -303l-6 -28l-64 -21l-26 14v813q-152 0 -248 93q-101 98 -101 258q0 147 93 247q98 101 256 101h512z" />
    <glyph glyph-name="periodcentered" unicode="&#xb7;" horiz-adv-x="444" 
d="M330 754q50 0 77 -25.5t27 -66.5q0 -62 -38 -100t-101 -38q-51 0 -79 26t-28 68q0 58 39.5 97t102.5 39z" />
    <glyph glyph-name="cedilla" unicode="&#xb8;" horiz-adv-x="522" 
d="M186 31h107l-21 -103q46 -3 79.5 -31t33.5 -75q0 -88 -76 -150q-78 -61 -211 -88l-18 80q76 24 125 55q51 36 51 82q0 21 -10 29t-33 8h-39l-14 17z" />
    <glyph glyph-name="onesuperior" unicode="&#xb9;" horiz-adv-x="421" 
d="M295 801l51 327l-86 -32l-22 80l182 84l45 -11l-70 -448l66 -6l-12 -82h-259l15 82z" />
    <glyph glyph-name="ordmasculine" unicode="&#xba;" horiz-adv-x="606" 
d="M477 1167q-58 0 -96 -28q-45 -30 -66.5 -86t-21.5 -121q0 -66 35 -101q30 -34 90 -34q57 0 96 24q86 61 86 211q0 79 -37 111q-31 24 -86 24zM702 1044q0 -94 -37 -176.5t-114 -126.5q-65 -39 -148 -39q-88 0 -147 56q-63 57 -63 160q0 95 36.5 177t114.5 128
q62 37 148 37q92 0 149 -54q61 -61 61 -162z" />
    <glyph glyph-name="guillemotright" unicode="&#xbb;" horiz-adv-x="774" 
d="M795 651l-11 -61l-327 -289l-62 68l242 264l-166 244l86 61zM301 938l238 -287l-11 -61l-327 -289l-62 68l242 264l-166 244z" />
    <glyph glyph-name="questiondown" unicode="&#xbf;" horiz-adv-x="1212" 
d="M868 1004l-18 -111q-18 -118 -82 -181.5t-182 -88.5l-43 -11q-163 -36 -230 -92q-42 -33 -66 -82.5t-24 -107.5q0 -89 64 -144q89 -75 319 -75q244 0 479 131l50 -123q-256 -152 -557 -152q-291 0 -428 111q-99 83 -99 219q0 89 35 169.5t100 139.5q117 101 318 144
l69 16q61 13 91 48.5t41 96.5l16 93h147zM807 1092q-50 0 -77.5 25.5t-27.5 66.5q0 62 38.5 99.5t101.5 37.5q51 0 78.5 -26.5t27.5 -69.5q0 -59 -40.5 -96t-100.5 -37z" />
    <glyph glyph-name="Agrave" unicode="&#xc0;" horiz-adv-x="1456" 
d="M801 1229h225l360 -1229h-174l-71 240h-766l-148 -240h-178zM872 1073l-413 -690h643l-193 690h-37zM915 1681l80 -321l-114 -35l-117 305z" />
    <glyph glyph-name="Aacute" unicode="&#xc1;" horiz-adv-x="1456" 
d="M801 1229h225l360 -1229h-174l-71 240h-766l-148 -240h-178zM872 1073l-413 -690h643l-193 690h-37zM881 1382l174 310l131 -78l-207 -287z" />
    <glyph glyph-name="Acircumflex" unicode="&#xc2;" horiz-adv-x="1456" 
d="M801 1229h225l360 -1229h-174l-71 240h-766l-148 -240h-178zM872 1073l-413 -690h643l-193 690h-37zM696 1317l-55 72l303 256h57l224 -256l-78 -72l-191 178z" />
    <glyph glyph-name="Atilde" unicode="&#xc3;" horiz-adv-x="1456" 
d="M801 1229h225l360 -1229h-174l-71 240h-766l-148 -240h-178zM872 1073l-413 -690h643l-193 690h-37zM1268 1507l43 -84q-109 -90 -219 -90q-78 0 -156 35q-73 37 -148 37q-81 0 -143 -43l-45 82q114 92 223 92q79 0 150 -35q75 -37 151 -37q42 0 73.5 8.5t70.5 34.5z" />
    <glyph glyph-name="Adieresis" unicode="&#xc4;" horiz-adv-x="1456" 
d="M801 1229h225l360 -1229h-174l-71 240h-766l-148 -240h-178zM872 1073l-413 -690h643l-193 690h-37zM754 1567q52 0 80 -26.5t28 -70.5q0 -57 -40.5 -97t-104.5 -40q-50 0 -78.5 25.5t-28.5 66.5q0 61 41 101.5t103 40.5zM1180 1567q52 0 80 -26.5t28 -70.5
q0 -57 -40.5 -97t-104.5 -40q-50 0 -78.5 25.5t-28.5 66.5q0 61 40 101.5t104 40.5z" />
    <glyph glyph-name="Aring" unicode="&#xc5;" horiz-adv-x="1456" 
d="M801 1229h225l360 -1229h-174l-71 240h-766l-148 -240h-178zM872 1073l-413 -690h643l-193 690h-37zM920 1309q-91 0 -146 55q-43 53 -43 131q0 114 92 188q69 60 166 60q100 0 150 -62q43 -43 43 -118q0 -115 -82 -185q-72 -69 -180 -69zM936 1415q46 0 90 35
q43 40 43 100q0 39 -27 66q-25 22 -71 22q-53 0 -88 -30q-21 -15 -33 -43t-12 -58q0 -44 24 -65q27 -27 74 -27z" />
    <glyph glyph-name="AE" unicode="&#xc6;" horiz-adv-x="2170" 
d="M1067 0l47 297h-653l-230 -297h-184l932 1229h1257l-22 -144h-805l-59 -364h718l-22 -143h-717l-69 -435h833l-22 -143h-1004zM1057 1085l-494 -645h574l102 645h-182z" />
    <glyph glyph-name="Ccedilla" unicode="&#xc7;" horiz-adv-x="1290" 
d="M1384 1163l-75 -123q-155 68 -353 68q-242 0 -403 -123q-104 -76 -162.5 -193t-58.5 -255q0 -178 96 -279q128 -137 365 -137q202 0 395 80l39 -129q-107 -47 -210 -70.5t-231 -24.5l-14 -65q55 0 94 -31q35 -25 35 -78q0 -100 -90 -174q-88 -68 -231 -88l-21 84
q95 25 150 62q55 40 55 98q0 18 -12 27q-9 6 -31 6h-53l-21 20l23 146q-243 22 -383 170q-61 65 -96 159t-35 205q0 175 77.5 328.5t225.5 255.5q211 149 514 149q247 0 411 -88z" />
    <glyph glyph-name="Egrave" unicode="&#xc8;" horiz-adv-x="1222" 
d="M121 0l194 1229h975l-24 -144h-803l-60 -364h717l-20 -143h-719l-68 -435h832l-23 -143h-1001zM846 1681l80 -321l-115 -35l-117 305z" />
    <glyph glyph-name="Eacute" unicode="&#xc9;" horiz-adv-x="1222" 
d="M121 0l194 1229h975l-24 -144h-803l-60 -364h717l-20 -143h-719l-68 -435h832l-23 -143h-1001zM745 1382l175 310l131 -78l-207 -287z" />
    <glyph glyph-name="Ecircumflex" unicode="&#xca;" horiz-adv-x="1222" 
d="M121 0l194 1229h975l-24 -144h-803l-60 -364h717l-20 -143h-719l-68 -435h832l-23 -143h-1001zM621 1317l-56 72l303 256h58l223 -256l-78 -72l-190 178z" />
    <glyph glyph-name="Edieresis" unicode="&#xcb;" horiz-adv-x="1222" 
d="M121 0l194 1229h975l-24 -144h-803l-60 -364h717l-20 -143h-719l-68 -435h832l-23 -143h-1001zM653 1567q53 0 81 -26.5t28 -70.5q0 -57 -41 -97t-105 -40q-50 0 -78 25.5t-28 66.5q0 61 40.5 101.5t102.5 40.5zM1079 1567q53 0 81 -26.5t28 -70.5q0 -57 -41 -97
t-105 -40q-50 0 -78 25.5t-28 66.5q0 61 39.5 101.5t103.5 40.5z" />
    <glyph glyph-name="Igrave" unicode="&#xcc;" horiz-adv-x="432" 
d="M315 1229h170l-194 -1229h-170zM416 1681l80 -321l-115 -35l-117 305z" />
    <glyph glyph-name="Iacute" unicode="&#xcd;" horiz-adv-x="432" 
d="M315 1229h170l-194 -1229h-170zM377 1382l174 310l131 -78l-207 -287z" />
    <glyph glyph-name="Icircumflex" unicode="&#xce;" horiz-adv-x="432" 
d="M315 1229h170l-194 -1229h-170zM199 1317l-56 72l303 256h58l223 -256l-78 -72l-190 178z" />
    <glyph glyph-name="Idieresis" unicode="&#xcf;" horiz-adv-x="432" 
d="M315 1229h170l-194 -1229h-170zM246 1567q52 0 80 -26.5t28 -70.5q0 -57 -40.5 -97t-104.5 -40q-50 0 -78.5 25.5t-28.5 66.5q0 61 41 101.5t103 40.5zM672 1567q52 0 80 -26.5t28 -70.5q0 -57 -40.5 -97t-104.5 -40q-50 0 -78.5 25.5t-28.5 66.5q0 61 40 101.5t104 40.5
z" />
    <glyph glyph-name="Eth" unicode="&#xd0;" horiz-adv-x="1339" 
d="M315 1229h480q302 0 442 -137q125 -128 125 -334q0 -169 -47 -313.5t-141 -241.5q-191 -203 -568 -203h-485l92 582h-111l21 135h110zM463 1085l-60 -368h334l-20 -135h-336l-68 -439h293q295 0 436 150q73 72 110.5 193t37.5 259q0 146 -70 228q-93 112 -340 112h-317z
" />
    <glyph glyph-name="Ntilde" unicode="&#xd1;" horiz-adv-x="1388" 
d="M1280 1229h162l-195 -1229h-162l-645 997l-155 -997h-164l194 1229h164l643 -993zM1221 1507l43 -84q-109 -90 -220 -90q-77 0 -155 35q-73 37 -148 37q-81 0 -143 -43l-45 82q114 92 223 92q79 0 150 -35q75 -37 151 -37q42 0 73.5 8.5t70.5 34.5z" />
    <glyph glyph-name="Ograve" unicode="&#xd2;" horiz-adv-x="1425" 
d="M1174 1004q-104 104 -293 104q-220 0 -361 -125q-192 -172 -192 -475q0 -174 88 -275q103 -112 301 -112q236 0 381 145q86 85 130 207.5t44 259.5q0 173 -98 271zM154 492q0 169 64 323t190 264q197 172 491 172q258 0 404 -143q141 -138 141 -358q0 -161 -56.5 -314
t-168.5 -264q-201 -195 -521 -195q-259 0 -407 142q-137 128 -137 373zM887 1681l80 -321l-115 -35l-117 305z" />
    <glyph glyph-name="Oacute" unicode="&#xd3;" horiz-adv-x="1425" 
d="M1174 1004q-104 104 -293 104q-220 0 -361 -125q-192 -172 -192 -475q0 -174 88 -275q103 -112 301 -112q236 0 381 145q86 85 130 207.5t44 259.5q0 173 -98 271zM154 492q0 169 64 323t190 264q197 172 491 172q258 0 404 -143q141 -138 141 -358q0 -161 -56.5 -314
t-168.5 -264q-201 -195 -521 -195q-259 0 -407 142q-137 128 -137 373zM879 1382l174 310l131 -78l-207 -287z" />
    <glyph glyph-name="Ocircumflex" unicode="&#xd4;" horiz-adv-x="1425" 
d="M1174 1004q-104 104 -293 104q-220 0 -361 -125q-192 -172 -192 -475q0 -174 88 -275q103 -112 301 -112q236 0 381 145q86 85 130 207.5t44 259.5q0 173 -98 271zM154 492q0 169 64 323t190 264q197 172 491 172q258 0 404 -143q141 -138 141 -358q0 -161 -56.5 -314
t-168.5 -264q-201 -195 -521 -195q-259 0 -407 142q-137 128 -137 373zM692 1317l-55 72l303 256h57l224 -256l-78 -72l-191 178z" />
    <glyph glyph-name="Otilde" unicode="&#xd5;" horiz-adv-x="1425" 
d="M1174 1004q-104 104 -293 104q-220 0 -361 -125q-192 -172 -192 -475q0 -174 88 -275q103 -112 301 -112q236 0 381 145q86 85 130 207.5t44 259.5q0 173 -98 271zM154 492q0 169 64 323t190 264q197 172 491 172q258 0 404 -143q141 -138 141 -358q0 -161 -56.5 -314
t-168.5 -264q-201 -195 -521 -195q-259 0 -407 142q-137 128 -137 373zM1278 1507l43 -84q-109 -90 -219 -90q-78 0 -156 35q-73 37 -147 37q-82 0 -144 -43l-45 82q114 92 224 92q78 0 149 -35q75 -37 152 -37q42 0 73 8.5t70 34.5z" />
    <glyph glyph-name="Odieresis" unicode="&#xd6;" horiz-adv-x="1425" 
d="M1174 1004q-104 104 -293 104q-220 0 -361 -125q-192 -172 -192 -475q0 -174 88 -275q103 -112 301 -112q236 0 381 145q86 85 130 207.5t44 259.5q0 173 -98 271zM154 492q0 169 64 323t190 264q197 172 491 172q258 0 404 -143q141 -138 141 -358q0 -161 -56.5 -314
t-168.5 -264q-201 -195 -521 -195q-259 0 -407 142q-137 128 -137 373zM743 1567q53 0 81 -26.5t28 -70.5q0 -57 -40.5 -97t-104.5 -40q-50 0 -78.5 25.5t-28.5 66.5q0 61 40.5 101.5t102.5 40.5zM1169 1567q53 0 81 -26.5t28 -70.5q0 -57 -40.5 -97t-104.5 -40
q-50 0 -78.5 25.5t-28.5 66.5q0 61 39.5 101.5t103.5 40.5z" />
    <glyph glyph-name="multiply" unicode="&#xd7;" horiz-adv-x="735" 
d="M172 481l193 168l-142 170l111 94l139 -170l201 170l80 -96l-199 -170l143 -170l-110 -94l-142 170l-196 -170z" />
    <glyph glyph-name="Oslash" unicode="&#xd8;" horiz-adv-x="1425" 
d="M1264 1249l108 -82l-59 -69q131 -134 131 -348q0 -162 -56.5 -315.5t-168.5 -264.5q-97 -94 -230.5 -143.5t-290.5 -49.5q-180 0 -305 70l-59 -67l-109 83l58 64q-127 130 -127 367q0 169 63 322t189 263q197 172 491 172q179 0 301 -73zM1198 967l-700 -797
q85 -49 219 -49q236 0 381 145q87 87 130.5 209.5t43.5 259.5q0 139 -74 232zM397 262l699 795q-88 51 -215 51q-220 0 -361 -125q-194 -174 -194 -475q0 -151 71 -246z" />
    <glyph glyph-name="Ugrave" unicode="&#xd9;" horiz-adv-x="1368" 
d="M315 1229h170l-110 -707q-10 -62 -10 -106q0 -125 63 -201q81 -94 264 -94q175 0 293 98q61 52 100.5 133t61.5 217l106 660h168l-110 -703q-43 -268 -211 -411q-170 -138 -430 -138q-249 0 -375 132q-100 106 -100 290q0 73 10 127zM874 1681l80 -321l-114 -35l-117 305
z" />
    <glyph glyph-name="Uacute" unicode="&#xda;" horiz-adv-x="1368" 
d="M315 1229h170l-110 -707q-10 -62 -10 -106q0 -125 63 -201q81 -94 264 -94q175 0 293 98q61 52 100.5 133t61.5 217l106 660h168l-110 -703q-43 -268 -211 -411q-170 -138 -430 -138q-249 0 -375 132q-100 106 -100 290q0 73 10 127zM803 1382l174 310l131 -78l-207 -287
z" />
    <glyph glyph-name="Ucircumflex" unicode="&#xdb;" horiz-adv-x="1368" 
d="M315 1229h170l-110 -707q-10 -62 -10 -106q0 -125 63 -201q81 -94 264 -94q175 0 293 98q61 52 100.5 133t61.5 217l106 660h168l-110 -703q-43 -268 -211 -411q-170 -138 -430 -138q-249 0 -375 132q-100 106 -100 290q0 73 10 127zM645 1317l-55 72l303 256h57
l224 -256l-78 -72l-191 178z" />
    <glyph glyph-name="Udieresis" unicode="&#xdc;" horiz-adv-x="1368" 
d="M315 1229h170l-110 -707q-10 -62 -10 -106q0 -125 63 -201q81 -94 264 -94q175 0 293 98q61 52 100.5 133t61.5 217l106 660h168l-110 -703q-43 -268 -211 -411q-170 -138 -430 -138q-249 0 -375 132q-100 106 -100 290q0 73 10 127zM709 1567q52 0 80 -26.5t28 -70.5
q0 -57 -40.5 -97t-104.5 -40q-50 0 -78.5 25.5t-28.5 66.5q0 61 40.5 101.5t103.5 40.5zM1135 1567q52 0 80 -26.5t28 -70.5q0 -57 -40.5 -97t-104.5 -40q-50 0 -78.5 25.5t-28.5 66.5q0 61 40 101.5t104 40.5z" />
    <glyph glyph-name="Yacute" unicode="&#xdd;" horiz-adv-x="1380" 
d="M766 0h-170l45 285l-397 944h192l305 -772h15l551 772h198l-694 -940zM831 1382l175 310l131 -78l-207 -287z" />
    <glyph glyph-name="Thorn" unicode="&#xde;" horiz-adv-x="1202" 
d="M317 1251h170l-24 -168h356q213 0 326 -135q74 -86 74 -235q0 -223 -138 -361q-73 -76 -183.5 -119t-242.5 -43h-336l-28 -190h-170zM438 942l-96 -606h328q181 0 288 110q93 96 93 256q0 93 -37 148q-64 92 -221 92h-355z" />
    <glyph glyph-name="germandbls" unicode="&#xdf;" horiz-adv-x="1316" 
d="M119 0l155 985q30 204 156 324q131 125 352 125q184 0 283 -74q94 -72 94 -182q0 -105 -67 -181q-59 -68 -168 -96l-115 -31q-57 -14 -83 -36t-26 -60q0 -43 41 -63q32 -16 99 -31l133 -29q164 -41 235 -112q76 -73 76 -185q0 -91 -39.5 -163t-111.5 -119
q-142 -90 -367 -90q-114 0 -200 16t-179 55l55 125q157 -55 349 -55q167 0 251 63q37 28 57.5 67.5t20.5 80.5q0 61 -35 96q-39 45 -163 74l-160 37q-120 25 -172 80q-55 52 -55 131q0 94 63 151q53 53 164 84l121 33q116 35 116 143q0 62 -53 97q-52 36 -180 36
q-149 0 -225 -73q-74 -72 -99 -222l-157 -1001h-166z" />
    <glyph glyph-name="agrave" unicode="&#xe0;" horiz-adv-x="1267" 
d="M1305 1024l-117 -737q-10 -78 -10 -131q0 -76 18 -136l-106 -30q-51 48 -64 129q-177 -137 -420 -137q-203 0 -319 98q-142 110 -142 338q0 145 52.5 268t150.5 211q161 145 410 145q248 0 379 -120l51 102h117zM1014 244l90 555q-76 56 -160.5 80t-202.5 24
q-175 0 -290 -115q-140 -134 -140 -352q0 -163 99 -243q83 -68 231 -68q209 0 373 119zM864 1483l74 -316l-106 -32l-113 301z" />
    <glyph glyph-name="aacute" unicode="&#xe1;" horiz-adv-x="1267" 
d="M1305 1024l-117 -737q-10 -78 -10 -131q0 -76 18 -136l-106 -30q-51 48 -64 129q-177 -137 -420 -137q-203 0 -319 98q-142 110 -142 338q0 145 52.5 268t150.5 211q161 145 410 145q248 0 379 -120l51 102h117zM1014 244l90 555q-76 56 -160.5 80t-202.5 24
q-175 0 -290 -115q-140 -134 -140 -352q0 -163 99 -243q83 -68 231 -68q209 0 373 119zM778 1176l168 301l131 -74l-203 -279z" />
    <glyph glyph-name="acircumflex" unicode="&#xe2;" horiz-adv-x="1267" 
d="M1305 1024l-117 -737q-10 -78 -10 -131q0 -76 18 -136l-106 -30q-51 48 -64 129q-177 -137 -420 -137q-203 0 -319 98q-142 110 -142 338q0 145 52.5 268t150.5 211q161 145 410 145q248 0 379 -120l51 102h117zM1014 244l90 555q-76 56 -160.5 80t-202.5 24
q-175 0 -290 -115q-140 -134 -140 -352q0 -163 99 -243q83 -68 231 -68q209 0 373 119zM1108 1186l-76 -72l-194 170l-246 -170l-57 74l294 248h56z" />
    <glyph glyph-name="atilde" unicode="&#xe3;" horiz-adv-x="1267" 
d="M1305 1024l-117 -737q-10 -78 -10 -131q0 -76 18 -136l-106 -30q-51 48 -64 129q-177 -137 -420 -137q-203 0 -319 98q-142 110 -142 338q0 145 52.5 268t150.5 211q161 145 410 145q248 0 379 -120l51 102h117zM1014 244l90 555q-76 56 -160.5 80t-202.5 24
q-175 0 -290 -115q-140 -134 -140 -352q0 -163 99 -243q83 -68 231 -68q209 0 373 119zM838 1184q-72 35 -140 35q-76 0 -141 -39l-39 77q104 82 209 82q62 0 137 -32q72 -35 142 -35q74 0 141 45l39 -78q-93 -86 -205 -86q-70 0 -143 31z" />
    <glyph glyph-name="adieresis" unicode="&#xe4;" horiz-adv-x="1267" 
d="M1305 1024l-117 -737q-10 -78 -10 -131q0 -76 18 -136l-106 -30q-51 48 -64 129q-177 -137 -420 -137q-203 0 -319 98q-142 110 -142 338q0 145 52.5 268t150.5 211q161 145 410 145q248 0 379 -120l51 102h117zM1014 244l90 555q-76 56 -160.5 80t-202.5 24
q-175 0 -290 -115q-140 -134 -140 -352q0 -163 99 -243q83 -68 231 -68q209 0 373 119zM659 1362q46 0 72.5 -23t26.5 -61q0 -54 -36 -89.5t-95 -35.5q-46 0 -71.5 23t-25.5 61q0 54 36 89.5t93 35.5zM1044 1362q46 0 71.5 -23t25.5 -61q0 -54 -36 -89.5t-95 -35.5
q-46 0 -71.5 23t-25.5 61q0 54 37 89.5t94 35.5z" />
    <glyph glyph-name="aring" unicode="&#xe5;" horiz-adv-x="1267" 
d="M1305 1024l-117 -737q-10 -78 -10 -131q0 -76 18 -136l-106 -30q-51 48 -64 129q-177 -137 -420 -137q-203 0 -319 98q-142 110 -142 338q0 145 52.5 268t150.5 211q161 145 410 145q248 0 379 -120l51 102h117zM1014 244l90 555q-76 56 -160.5 80t-202.5 24
q-175 0 -290 -115q-140 -134 -140 -352q0 -163 99 -243q83 -68 231 -68q209 0 373 119zM834 1141q-88 0 -137 55q-41 47 -41 119q0 103 82 176q66 57 163 57q84 0 136 -55q43 -50 43 -109q0 -116 -82 -186q-66 -54 -164 -57zM850 1239q53 0 84 31q39 36 39 98
q0 37 -24.5 61.5t-65.5 24.5q-48 0 -84 -31q-41 -30 -41 -94q0 -42 23.5 -66t68.5 -24z" />
    <glyph glyph-name="ae" unicode="&#xe6;" horiz-adv-x="2066" 
d="M1853 172l23 -123q-168 -67 -410 -67q-132 0 -244.5 45.5t-170.5 140.5q-113 -91 -232 -137q-126 -49 -268 -49q-220 0 -326 75q-110 82 -110 230q0 204 178 317q139 88 356 88q100 0 179.5 -12t177.5 -43q12 57 12 106q0 61 -49 101q-77 57 -224 57q-123 0 -213.5 -9
t-201.5 -34l-15 111q218 73 465 73q143 0 256 -53q86 -50 121 -125q85 86 207 132t256 46q188 0 299 -63q70 -40 103.5 -97t33.5 -139q0 -78 -40.5 -138t-114.5 -91q-203 -84 -560 -84q-105 0 -190 14q0 -156 63 -225q85 -98 291 -98q180 0 348 51zM991 526
q-85 13 -121.5 17.5t-98 9t-134.5 4.5q-172 0 -262 -65q-92 -70 -92 -183q0 -89 59 -135q67 -53 240 -53q112 0 207 33.5t210 103.5q-20 67 -20 145q0 59 12 123zM1167 563q239 0 374 10.5t224 38.5q73 20 103 52t30 88q0 67 -71 112q-65 39 -215 39q-188 0 -301 -90
q-110 -86 -144 -250z" />
    <glyph glyph-name="ccedilla" unicode="&#xe7;" horiz-adv-x="1091" 
d="M1157 977l-61 -123q-124 47 -303 47q-205 0 -322 -94q-79 -64 -120.5 -157t-41.5 -204q0 -146 88 -231q90 -90 273 -90q78 0 170 13.5t157 37.5l27 -127q-165 -67 -373 -67l-12 -62q47 -3 80 -30t33 -74q0 -92 -76 -152q-74 -58 -211 -86l-16 80q67 18 122 53
q52 36 52 84q0 20 -10 27.5t-33 7.5h-39l-15 16l21 142q-174 18 -277 116q-129 119 -129 322q0 143 56 265.5t168 211.5q175 139 444 139q215 0 348 -65z" />
    <glyph glyph-name="egrave" unicode="&#xe8;" horiz-adv-x="1202" 
d="M1014 172l22 -123q-168 -67 -409 -67q-121 0 -219.5 34.5t-159.5 100.5q-50 53 -77.5 134t-27.5 171q0 145 57 269.5t160 209.5q171 141 420 141q188 0 299 -63q70 -40 104 -97t34 -139q0 -72 -39.5 -133t-104.5 -92q-108 -50 -247 -69t-324 -19q-106 0 -191 14
q0 -155 68 -229q88 -94 287 -94q180 0 348 51zM328 563q239 0 375.5 10.5t226.5 38.5q72 20 100.5 51.5t28.5 88.5q0 67 -72 112q-65 39 -215 39q-179 0 -297 -92q-110 -86 -147 -248zM780 1483l74 -316l-106 -32l-113 301z" />
    <glyph glyph-name="eacute" unicode="&#xe9;" horiz-adv-x="1202" 
d="M1014 172l22 -123q-168 -67 -409 -67q-121 0 -219.5 34.5t-159.5 100.5q-50 53 -77.5 134t-27.5 171q0 145 57 269.5t160 209.5q171 141 420 141q188 0 299 -63q70 -40 104 -97t34 -139q0 -72 -39.5 -133t-104.5 -92q-108 -50 -247 -69t-324 -19q-106 0 -191 14
q0 -155 68 -229q88 -94 287 -94q180 0 348 51zM328 563q239 0 375.5 10.5t226.5 38.5q72 20 100.5 51.5t28.5 88.5q0 67 -72 112q-65 39 -215 39q-179 0 -297 -92q-110 -86 -147 -248zM762 1176l168 301l131 -74l-203 -279z" />
    <glyph glyph-name="ecircumflex" unicode="&#xea;" horiz-adv-x="1202" 
d="M1014 172l22 -123q-168 -67 -409 -67q-121 0 -219.5 34.5t-159.5 100.5q-50 53 -77.5 134t-27.5 171q0 145 57 269.5t160 209.5q171 141 420 141q188 0 299 -63q70 -40 104 -97t34 -139q0 -72 -39.5 -133t-104.5 -92q-108 -50 -247 -69t-324 -19q-106 0 -191 14
q0 -155 68 -229q88 -94 287 -94q180 0 348 51zM328 563q239 0 375.5 10.5t226.5 38.5q72 20 100.5 51.5t28.5 88.5q0 67 -72 112q-65 39 -215 39q-179 0 -297 -92q-110 -86 -147 -248zM1104 1186l-76 -72l-194 170l-246 -170l-58 74l295 248h56z" />
    <glyph glyph-name="edieresis" unicode="&#xeb;" horiz-adv-x="1202" 
d="M1014 172l22 -123q-168 -67 -409 -67q-121 0 -219.5 34.5t-159.5 100.5q-50 53 -77.5 134t-27.5 171q0 145 57 269.5t160 209.5q171 141 420 141q188 0 299 -63q70 -40 104 -97t34 -139q0 -72 -39.5 -133t-104.5 -92q-108 -50 -247 -69t-324 -19q-106 0 -191 14
q0 -155 68 -229q88 -94 287 -94q180 0 348 51zM328 563q239 0 375.5 10.5t226.5 38.5q72 20 100.5 51.5t28.5 88.5q0 67 -72 112q-65 39 -215 39q-179 0 -297 -92q-110 -86 -147 -248zM657 1362q46 0 72.5 -23t26.5 -61q0 -54 -36 -89.5t-95 -35.5q-46 0 -71.5 23t-25.5 61
q0 54 36 89.5t93 35.5zM1042 1362q46 0 71.5 -23t25.5 -61q0 -54 -36 -89.5t-95 -35.5q-46 0 -71.5 23t-25.5 61q0 54 37 89.5t94 35.5z" />
    <glyph glyph-name="igrave" unicode="&#xec;" horiz-adv-x="471" 
d="M430 1483l72 -316l-105 -32l-114 301zM184 909l19 115h291l-162 -1024h-166l141 897z" />
    <glyph glyph-name="iacute" unicode="&#xed;" horiz-adv-x="471" 
d="M184 909l19 115h291l-162 -1024h-166l141 897zM373 1176l168 301l131 -74l-203 -279z" />
    <glyph glyph-name="icircumflex" unicode="&#xee;" horiz-adv-x="471" 
d="M184 909l19 115h291l-162 -1024h-166l141 897zM711 1186l-76 -72l-195 170l-245 -170l-58 74l295 248h55z" />
    <glyph glyph-name="idieresis" unicode="&#xef;" horiz-adv-x="471" 
d="M295 1362q46 0 71 -23t25 -61q0 -54 -35.5 -89.5t-95.5 -35.5q-45 0 -70.5 23.5t-25.5 62.5q0 53 37 88t94 35zM590 1362q46 0 72 -23t26 -61q0 -54 -36 -89.5t-95 -35.5q-46 0 -72 23.5t-26 62.5q0 52 37.5 87.5t93.5 35.5zM184 909l19 115h291l-162 -1024h-166l141 897
z" />
    <glyph glyph-name="eth" unicode="&#xf0;" horiz-adv-x="1236" 
d="M932 1542l106 -43l-75 -147q139 -58 221 -181q84 -131 84 -297q0 -180 -51 -369t-156 -319q-167 -204 -457 -204q-225 0 -350 122q-121 115 -121 310q0 263 176 422q173 153 445 153q97 0 198 -37q91 -29 158 -80q-3 128 -49 209q-54 97 -164 148l-82 -154l-108 41
l77 152q-156 51 -342 69l37 119q220 -20 373 -65zM1098 741q-86 56 -170 81.5t-193 25.5q-203 0 -317 -111q-117 -108 -117 -301q0 -160 88 -239q83 -74 238 -74q176 0 286 110q72 75 125 216q46 136 60 292z" />
    <glyph glyph-name="ntilde" unicode="&#xf1;" horiz-adv-x="1273" 
d="M285 1024h112l23 -113q177 131 401 131q217 0 320 -100q94 -88 94 -250q0 -52 -10 -137l-88 -555h-166l86 551q10 51 10 111q0 120 -59 176q-63 63 -217 63q-110 0 -197.5 -28.5t-181.5 -94.5l-123 -778h-166zM832 1182q-72 35 -139 35q-77 0 -142 -39l-39 77
q104 82 209 82q62 0 137 -32q72 -35 142 -35q74 0 141 45l39 -78q-93 -86 -205 -86q-70 0 -143 31z" />
    <glyph glyph-name="ograve" unicode="&#xf2;" horiz-adv-x="1239" 
d="M776 1042q216 0 340 -112q131 -118 131 -332q0 -305 -223 -487q-160 -129 -416 -129q-227 0 -354 133q-117 120 -117 313q0 285 207 469q164 145 432 145zM754 903q-187 0 -301 -102q-148 -136 -148 -359q0 -138 74 -225q81 -96 254 -96q178 0 293 94q155 134 155 367
q0 149 -77 235q-86 86 -250 86zM778 1483l74 -316l-106 -32l-113 301z" />
    <glyph glyph-name="oacute" unicode="&#xf3;" horiz-adv-x="1239" 
d="M776 1042q216 0 340 -112q131 -118 131 -332q0 -305 -223 -487q-160 -129 -416 -129q-227 0 -354 133q-117 120 -117 313q0 285 207 469q164 145 432 145zM754 903q-187 0 -301 -102q-148 -136 -148 -359q0 -138 74 -225q81 -96 254 -96q178 0 293 94q155 134 155 367
q0 149 -77 235q-86 86 -250 86zM760 1176l168 301l131 -74l-203 -279z" />
    <glyph glyph-name="ocircumflex" unicode="&#xf4;" horiz-adv-x="1239" 
d="M776 1042q216 0 340 -112q131 -118 131 -332q0 -305 -223 -487q-160 -129 -416 -129q-227 0 -354 133q-117 120 -117 313q0 285 207 469q164 145 432 145zM754 903q-187 0 -301 -102q-148 -136 -148 -359q0 -138 74 -225q81 -96 254 -96q178 0 293 94q155 134 155 367
q0 149 -77 235q-86 86 -250 86zM1090 1186l-76 -72l-195 170l-245 -170l-58 74l295 248h55z" />
    <glyph glyph-name="otilde" unicode="&#xf5;" horiz-adv-x="1239" 
d="M776 1042q216 0 340 -112q131 -118 131 -332q0 -305 -223 -487q-160 -129 -416 -129q-227 0 -354 133q-117 120 -117 313q0 285 207 469q164 145 432 145zM754 903q-187 0 -301 -102q-148 -136 -148 -359q0 -138 74 -225q81 -96 254 -96q178 0 293 94q155 134 155 367
q0 149 -77 235q-86 86 -250 86zM825 1178q-69 34 -139 34q-78 0 -141 -38l-39 77q104 82 209 82q59 0 137 -33q69 -34 141 -34q75 0 142 45l39 -78q-93 -86 -205 -86q-71 0 -144 31z" />
    <glyph glyph-name="odieresis" unicode="&#xf6;" horiz-adv-x="1239" 
d="M776 1042q216 0 340 -112q131 -118 131 -332q0 -305 -223 -487q-160 -129 -416 -129q-227 0 -354 133q-117 120 -117 313q0 285 207 469q164 145 432 145zM754 903q-187 0 -301 -102q-148 -136 -148 -359q0 -138 74 -225q81 -96 254 -96q178 0 293 94q155 134 155 367
q0 149 -77 235q-86 86 -250 86zM642 1362q46 0 72 -23t26 -61q0 -54 -36 -89.5t-95 -35.5q-46 0 -71.5 23t-25.5 61q0 54 36.5 89.5t93.5 35.5zM1027 1362q46 0 71 -23t25 -61q0 -54 -36 -89.5t-95 -35.5q-46 0 -71.5 23t-25.5 61q0 54 37.5 89.5t94.5 35.5z" />
    <glyph glyph-name="divide" unicode="&#xf7;" horiz-adv-x="731" 
d="M172 723h592l-21 -129h-591zM430 498q49 0 75.5 -25t26.5 -65q0 -56 -38 -94t-99 -38q-48 0 -74 24t-26 65q0 55 38 94t97 39zM518 1038q48 0 75.5 -25.5t27.5 -66.5q0 -56 -39 -92.5t-99 -36.5q-50 0 -76 23.5t-26 64.5q0 56 38 94.5t99 38.5z" />
    <glyph glyph-name="oslash" unicode="&#xf8;" horiz-adv-x="1239" 
d="M1081 1059l101 -78l-54 -63q119 -113 119 -320q0 -305 -223 -487q-160 -129 -416 -129q-143 0 -246 53l-57 -66l-100 76l55 64q-123 120 -123 319q0 285 207 469q164 145 432 145q140 0 246 -53zM1020 788l-557 -634q78 -33 170 -33q178 0 293 94q155 134 155 367
q0 125 -61 206zM369 238l551 632q-71 33 -166 33q-187 0 -301 -102q-148 -136 -148 -359q0 -124 64 -204z" />
    <glyph glyph-name="ugrave" unicode="&#xf9;" horiz-adv-x="1275" 
d="M283 1024h166l-89 -551q-8 -55 -8 -104q0 -128 60 -185q63 -63 217 -63q108 0 196.5 29.5t184.5 97.5l120 776h168l-161 -1024h-115l-23 113q-174 -131 -401 -131q-215 0 -317 94q-99 89 -99 258q0 55 13 135zM784 1483l74 -316l-106 -32l-113 301z" />
    <glyph glyph-name="uacute" unicode="&#xfa;" horiz-adv-x="1275" 
d="M283 1024h166l-89 -551q-8 -55 -8 -104q0 -128 60 -185q63 -63 217 -63q108 0 196.5 29.5t184.5 97.5l120 776h168l-161 -1024h-115l-23 113q-174 -131 -401 -131q-215 0 -317 94q-99 89 -99 258q0 55 13 135zM735 1176l168 301l131 -74l-203 -279z" />
    <glyph glyph-name="ucircumflex" unicode="&#xfb;" horiz-adv-x="1275" 
d="M283 1024h166l-89 -551q-8 -55 -8 -104q0 -128 60 -185q63 -63 217 -63q108 0 196.5 29.5t184.5 97.5l120 776h168l-161 -1024h-115l-23 113q-174 -131 -401 -131q-215 0 -317 94q-99 89 -99 258q0 55 13 135zM1112 1186l-76 -72l-195 170l-245 -170l-58 74l295 248h55z
" />
    <glyph glyph-name="udieresis" unicode="&#xfc;" horiz-adv-x="1275" 
d="M283 1024h166l-89 -551q-8 -55 -8 -104q0 -128 60 -185q63 -63 217 -63q108 0 196.5 29.5t184.5 97.5l120 776h168l-161 -1024h-115l-23 113q-174 -131 -401 -131q-215 0 -317 94q-99 89 -99 258q0 55 13 135zM651 1362q46 0 72.5 -23t26.5 -61q0 -54 -36.5 -89.5
t-95.5 -35.5q-46 0 -71 23t-25 61q0 54 36 89.5t93 35.5zM1036 1362q46 0 71.5 -23t25.5 -61q0 -54 -36.5 -89.5t-95.5 -35.5q-46 0 -71 23t-25 61q0 54 37 89.5t94 35.5z" />
    <glyph glyph-name="yacute" unicode="&#xfd;" horiz-adv-x="1277" 
d="M530 0l-319 1024h182l260 -877h47l496 877h184l-684 -1165q-61 -102 -139 -142q-62 -34 -170 -34q-42 0 -88 16l35 123q34 -6 57 -6q55 0 94 20q49 25 84 88l45 76h-84zM749 1176l168 301l131 -74l-203 -279z" />
    <glyph glyph-name="thorn" unicode="&#xfe;" horiz-adv-x="1292" 
d="M332 1331h166l-66 -418q171 129 424 129q222 0 340 -127q100 -115 100 -290q0 -135 -43 -253.5t-125 -205.5q-175 -184 -462 -184q-227 0 -361 124l-65 -413h-166zM414 776l-86 -520q134 -131 352 -131q206 0 328 135q118 130 118 346q0 136 -67 209q-80 86 -240 86
q-118 0 -209 -29.5t-196 -95.5z" />
    <glyph glyph-name="ydieresis" unicode="&#xff;" horiz-adv-x="1277" 
d="M530 0l-319 1024h182l260 -877h47l496 877h184l-684 -1165q-61 -102 -139 -142q-62 -34 -170 -34q-42 0 -88 16l35 123q34 -6 57 -6q55 0 94 20q49 25 84 88l45 76h-84zM657 1362q46 0 72.5 -23t26.5 -61q0 -54 -36 -89.5t-95 -35.5q-46 0 -71.5 23t-25.5 61
q0 54 36 89.5t93 35.5zM1042 1362q46 0 71.5 -23t25.5 -61q0 -54 -36 -89.5t-95 -35.5q-46 0 -71.5 23t-25.5 61q0 54 37 89.5t94 35.5z" />
    <glyph glyph-name="Amacron" unicode="&#x100;" horiz-adv-x="1456" 
d="M801 1229h225l360 -1229h-174l-71 240h-766l-148 -240h-178zM872 1073l-413 -690h643l-193 690h-37zM621 1485h665l-22 -133h-666z" />
    <glyph glyph-name="amacron" unicode="&#x101;" horiz-adv-x="1267" 
d="M1305 1024l-117 -737q-10 -78 -10 -131q0 -76 18 -136l-106 -30q-51 48 -64 129q-177 -137 -420 -137q-203 0 -319 98q-142 110 -142 338q0 145 52.5 268t150.5 211q161 145 410 145q248 0 379 -120l51 102h117zM1014 244l90 555q-76 56 -160.5 80t-202.5 24
q-175 0 -290 -115q-140 -134 -140 -352q0 -163 99 -243q83 -68 231 -68q209 0 373 119zM541 1280h604l-21 -121h-604z" />
    <glyph glyph-name="Abreve" unicode="&#x102;" horiz-adv-x="1456" 
d="M801 1229h225l360 -1229h-174l-71 240h-766l-148 -240h-178zM872 1073l-413 -690h643l-193 690h-37zM676 1575l125 16q0 -57 26 -94q28 -41 99 -41q80 0 125 37q45 39 67 100l129 -18q-39 -124 -112 -180q-81 -66 -211 -66q-123 0 -191 74q-57 70 -57 172z" />
    <glyph glyph-name="abreve" unicode="&#x103;" horiz-adv-x="1267" 
d="M1305 1024l-117 -737q-10 -78 -10 -131q0 -76 18 -136l-106 -30q-51 48 -64 129q-177 -137 -420 -137q-203 0 -319 98q-142 110 -142 338q0 145 52.5 268t150.5 211q161 145 410 145q248 0 379 -120l51 102h117zM1014 244l90 555q-76 56 -160.5 80t-202.5 24
q-175 0 -290 -115q-140 -134 -140 -352q0 -163 99 -243q83 -68 231 -68q209 0 373 119zM594 1350l121 14q0 -49 18 -76q19 -37 84 -37t96 31q36 32 50 82l124 -14q-29 -105 -96 -160q-72 -60 -182 -60q-108 0 -164 66q-48 54 -51 154z" />
    <glyph glyph-name="Aogonek" unicode="&#x104;" horiz-adv-x="1456" 
d="M801 1229h225l360 -1229q-29 -16 -55 -53q-20 -36 -20 -82q0 -43 16 -74q29 -47 78 -72l-53 -71q-87 26 -131 76q-41 48 -41 112q0 67 37 109q22 31 65 55h-70l-71 240h-766l-148 -240h-178zM872 1073l-413 -690h643l-193 690h-37z" />
    <glyph glyph-name="aogonek" unicode="&#x105;" horiz-adv-x="1269" 
d="M1307 1024l-117 -737q-12 -70 -12 -131q0 -66 18 -136q-31 -21 -45 -40q-25 -36 -25 -82q0 -36 21 -68q17 -30 74 -61l-52 -72q-91 22 -137 74q-33 45 -33 94q0 87 72 149q-34 46 -43 105q-177 -137 -420 -137q-246 0 -360 129q-101 115 -101 303q0 144 52 270t151 213
q161 145 410 145q248 0 377 -120l53 102h117zM1016 244l90 555q-77 57 -161 80.5t-202 23.5q-174 0 -292 -115q-138 -135 -138 -356q0 -149 80 -229q78 -78 250 -78q209 0 373 119z" />
    <glyph glyph-name="Cacute" unicode="&#x106;" horiz-adv-x="1290" 
d="M1384 1163l-75 -123q-155 68 -353 68q-242 0 -403 -123q-104 -76 -162.5 -193t-58.5 -255q0 -178 96 -279q128 -137 365 -137q202 0 395 80l39 -129q-110 -49 -217.5 -72t-245.5 -23q-308 0 -477 177q-61 65 -96 159t-35 205q0 175 77.5 328.5t225.5 255.5
q211 149 514 149q247 0 411 -88zM942 1382l174 310l131 -78l-207 -287z" />
    <glyph glyph-name="cacute" unicode="&#x107;" horiz-adv-x="1091" 
d="M1157 977l-61 -123q-124 47 -303 47q-209 0 -326 -100q-158 -133 -158 -355q0 -146 88 -231q90 -90 273 -90q78 0 170 13.5t157 37.5l27 -127q-162 -67 -383 -67q-240 0 -371 122q-129 119 -129 322q0 143 56 265.5t168 211.5q175 139 444 139q215 0 348 -65zM782 1176
l168 301l131 -74l-202 -279z" />
    <glyph glyph-name="Ccircumflex" unicode="&#x108;" horiz-adv-x="1290" 
d="M1384 1163l-75 -123q-155 68 -353 68q-242 0 -403 -123q-104 -76 -162.5 -193t-58.5 -255q0 -178 96 -279q128 -137 365 -137q202 0 395 80l39 -129q-110 -49 -217.5 -72t-245.5 -23q-308 0 -477 177q-61 65 -96 159t-35 205q0 175 77.5 328.5t225.5 255.5
q211 149 514 149q247 0 411 -88zM725 1317l-55 72l303 256h57l223 -256l-77 -72l-191 178z" />
    <glyph glyph-name="ccircumflex" unicode="&#x109;" horiz-adv-x="1091" 
d="M1157 977l-61 -123q-124 47 -303 47q-209 0 -326 -100q-158 -133 -158 -355q0 -146 88 -231q90 -90 273 -90q78 0 170 13.5t157 37.5l27 -127q-162 -67 -383 -67q-240 0 -371 122q-129 119 -129 322q0 143 56 265.5t168 211.5q175 139 444 139q215 0 348 -65zM1104 1186
l-76 -72l-195 170l-245 -170l-58 74l295 248h55z" />
    <glyph glyph-name="Cdotaccent" unicode="&#x10a;" horiz-adv-x="1290" 
d="M1384 1163l-75 -123q-155 68 -353 68q-242 0 -403 -123q-104 -76 -162.5 -193t-58.5 -255q0 -178 96 -279q128 -137 365 -137q202 0 395 80l39 -129q-110 -49 -217.5 -72t-245.5 -23q-308 0 -477 177q-61 65 -96 159t-35 205q0 175 77.5 328.5t225.5 255.5
q211 149 514 149q247 0 411 -88zM1034 1573q48 0 74.5 -25.5t26.5 -66.5q0 -56 -37.5 -92.5t-98.5 -36.5q-51 0 -77.5 25.5t-26.5 66.5q0 55 38.5 92t100.5 37z" />
    <glyph glyph-name="cdotaccent" unicode="&#x10b;" horiz-adv-x="1091" 
d="M1157 977l-61 -123q-124 47 -303 47q-209 0 -326 -100q-158 -133 -158 -355q0 -146 88 -231q90 -90 273 -90q78 0 170 13.5t157 37.5l27 -127q-162 -67 -383 -67q-240 0 -371 122q-129 119 -129 322q0 143 56 265.5t168 211.5q175 139 444 139q215 0 348 -65zM860 1342
q45 0 70.5 -23t25.5 -61q0 -52 -35.5 -86.5t-93.5 -34.5q-44 0 -68 22.5t-24 59.5q0 52 34.5 87.5t90.5 35.5z" />
    <glyph glyph-name="Ccaron" unicode="&#x10c;" horiz-adv-x="1290" 
d="M1384 1163l-75 -123q-155 68 -353 68q-242 0 -403 -123q-104 -76 -162.5 -193t-58.5 -255q0 -178 96 -279q128 -137 365 -137q202 0 395 80l39 -129q-110 -49 -217.5 -72t-245.5 -23q-308 0 -477 177q-61 65 -96 159t-35 205q0 175 77.5 328.5t225.5 255.5
q211 149 514 149q247 0 411 -88zM731 1567l76 71l182 -178l268 182l58 -75l-303 -256h-60z" />
    <glyph glyph-name="ccaron" unicode="&#x10d;" horiz-adv-x="1091" 
d="M1157 977l-61 -123q-124 47 -303 47q-209 0 -326 -100q-158 -133 -158 -355q0 -146 88 -231q90 -90 273 -90q78 0 170 13.5t157 37.5l27 -127q-162 -67 -383 -67q-240 0 -371 122q-129 119 -129 322q0 143 56 265.5t168 211.5q175 139 444 139q215 0 348 -65zM580 1362
l73 74l185 -172l254 174l59 -76l-295 -248h-59z" />
    <glyph glyph-name="Dcaron" unicode="&#x10e;" horiz-adv-x="1339" 
d="M315 1229h480q302 0 442 -137q125 -128 125 -334q0 -169 -47 -313.5t-141 -241.5q-191 -203 -568 -203h-485zM463 1085l-150 -942h293q295 0 436 150q73 72 110.5 193t37.5 259q0 146 -70 228q-93 112 -340 112h-317zM557 1567l76 71l182 -178l268 182l58 -75l-303 -256
h-60z" />
    <glyph glyph-name="dcaron" unicode="&#x10f;" horiz-adv-x="1478" 
d="M1012 115q-88 -71 -190.5 -102t-235.5 -31q-234 0 -350 122q-101 112 -101 299q0 315 215 498q159 141 420 141q224 0 358 -124l66 413h166l-209 -1331h-115zM1024 242l82 532q-124 127 -350 127q-187 0 -297 -96q-156 -132 -156 -379q0 -149 76 -225t239 -76
q118 0 210.5 27.5t195.5 89.5zM1421 901l49 137q-61 18 -61 84q0 54 37 91.5t98 37.5q48 0 75.5 -24.5t27.5 -63.5q0 -31 -21 -73l-123 -213z" />
    <glyph glyph-name="Dcroat" unicode="&#x110;" horiz-adv-x="1339" 
d="M315 1229h480q302 0 442 -137q125 -128 125 -334q0 -169 -47 -313.5t-141 -241.5q-191 -203 -568 -203h-485l92 582h-111l21 135h110zM463 1085l-60 -368h334l-20 -135h-336l-68 -439h293q295 0 436 150q73 72 110.5 193t37.5 259q0 146 -70 228q-93 112 -340 112h-317z
" />
    <glyph glyph-name="dcroat" unicode="&#x111;" horiz-adv-x="1292" 
d="M1012 113q-88 -69 -190.5 -100t-235.5 -31q-218 0 -334 116q-115 112 -115 314q0 308 213 489q156 141 418 141q226 0 360 -124l31 196l-270 19l16 106h275l14 100h166l-17 -104l103 -10l-19 -117h-102l-174 -1108h-115zM1024 242l82 532q-124 127 -350 127
q-186 0 -299 -96q-150 -129 -150 -371q0 -143 66 -221q79 -88 243 -88q118 0 211.5 27.5t196.5 89.5z" />
    <glyph glyph-name="Emacron" unicode="&#x112;" horiz-adv-x="1222" 
d="M121 0l194 1229h975l-24 -144h-803l-60 -364h717l-20 -143h-719l-68 -435h832l-23 -143h-1001zM528 1485h666l-23 -133h-665z" />
    <glyph glyph-name="emacron" unicode="&#x113;" horiz-adv-x="1202" 
d="M1014 172l22 -123q-168 -67 -409 -67q-121 0 -219.5 34.5t-159.5 100.5q-50 53 -77.5 134t-27.5 171q0 145 57 269.5t160 209.5q171 141 420 141q188 0 299 -63q70 -40 104 -97t34 -139q0 -72 -39.5 -133t-104.5 -92q-108 -50 -247 -69t-324 -19q-106 0 -191 14
q0 -155 68 -229q88 -94 287 -94q180 0 348 51zM328 563q239 0 375.5 10.5t226.5 38.5q72 20 100.5 51.5t28.5 88.5q0 67 -72 112q-65 39 -215 39q-179 0 -297 -92q-110 -86 -147 -248zM520 1280h604l-20 -121h-604z" />
    <glyph glyph-name="Ebreve" unicode="&#x114;" horiz-adv-x="1222" 
d="M121 0l194 1229h975l-24 -144h-803l-60 -364h717l-20 -143h-719l-68 -435h832l-23 -143h-1001zM586 1575l125 16q0 -57 26 -94q28 -41 99 -41q80 0 125 37q45 39 67 100l129 -18q-38 -123 -113 -180q-81 -66 -210 -66q-123 0 -191 74q-57 70 -57 172z" />
    <glyph glyph-name="ebreve" unicode="&#x115;" horiz-adv-x="1202" 
d="M1014 172l22 -123q-168 -67 -409 -67q-121 0 -219.5 34.5t-159.5 100.5q-50 53 -77.5 134t-27.5 171q0 145 57 269.5t160 209.5q171 141 420 141q188 0 299 -63q70 -40 104 -97t34 -139q0 -72 -39.5 -133t-104.5 -92q-108 -50 -247 -69t-324 -19q-106 0 -191 14
q0 -155 68 -229q88 -94 287 -94q180 0 348 51zM328 563q239 0 375.5 10.5t226.5 38.5q72 20 100.5 51.5t28.5 88.5q0 67 -72 112q-65 39 -215 39q-179 0 -297 -92q-110 -86 -147 -248zM578 1350l120 14q0 -48 19 -76q19 -37 84 -37t96 31q35 31 49 82l125 -14
q-28 -105 -96 -160q-72 -60 -182 -60q-108 0 -164 66q-48 54 -51 154z" />
    <glyph glyph-name="Edotaccent" unicode="&#x116;" horiz-adv-x="1222" 
d="M121 0l194 1229h975l-24 -144h-803l-60 -364h717l-20 -143h-719l-68 -435h832l-23 -143h-1001zM864 1561q48 0 74.5 -26t26.5 -67q0 -56 -37.5 -92.5t-98.5 -36.5q-51 0 -77.5 25.5t-26.5 67.5q0 55 38.5 92t100.5 37z" />
    <glyph glyph-name="edotaccent" unicode="&#x117;" horiz-adv-x="1202" 
d="M1014 172l22 -123q-168 -67 -409 -67q-121 0 -219.5 34.5t-159.5 100.5q-50 53 -77.5 134t-27.5 171q0 145 57 269.5t160 209.5q171 141 420 141q188 0 299 -63q70 -40 104 -97t34 -139q0 -72 -39.5 -133t-104.5 -92q-108 -50 -247 -69t-324 -19q-106 0 -191 14
q0 -155 68 -229q88 -94 287 -94q180 0 348 51zM328 563q239 0 375.5 10.5t226.5 38.5q72 20 100.5 51.5t28.5 88.5q0 67 -72 112q-65 39 -215 39q-179 0 -297 -92q-110 -86 -147 -248zM825 1350q45 0 71 -23.5t26 -60.5q0 -52 -35.5 -86.5t-93.5 -34.5q-44 0 -68.5 22.5
t-24.5 59.5q0 52 34.5 87.5t90.5 35.5z" />
    <glyph glyph-name="Eogonek" unicode="&#x118;" horiz-adv-x="1222" 
d="M121 0l194 1229h975l-24 -144h-803l-60 -364h717l-20 -143h-719l-68 -435h832l-23 -143q-29 -16 -55 -53q-20 -36 -20 -82q0 -43 16 -74q29 -47 78 -72l-54 -71q-87 26 -131 76q-41 48 -41 112q0 67 33 109q23 37 68 55h-895z" />
    <glyph glyph-name="eogonek" unicode="&#x119;" horiz-adv-x="1200" 
d="M1014 172l22 -123q-31 -21 -45 -43q-24 -30 -24 -82q0 -34 20 -67q22 -36 74 -60l-51 -71q-93 22 -138 73q-32 43 -32 95q0 65 32 108q-123 -20 -245 -20q-121 0 -219.5 34.5t-159.5 100.5q-50 53 -77.5 134t-27.5 171q0 145 57 269.5t160 209.5q171 141 416 141
q190 0 299 -63q142 -79 142 -236q0 -72 -39.5 -133t-104.5 -92q-108 -50 -247 -69t-324 -19q-106 0 -191 14q0 -154 64 -227q89 -96 291 -96q180 0 348 51zM328 563q239 0 375.5 10.5t226.5 38.5q72 20 100.5 51.5t28.5 88.5q0 67 -72 112q-65 39 -215 39q-179 0 -297 -92
q-110 -86 -147 -248z" />
    <glyph glyph-name="Ecaron" unicode="&#x11a;" horiz-adv-x="1222" 
d="M121 0l194 1229h975l-24 -144h-803l-60 -364h717l-20 -143h-719l-68 -435h832l-23 -143h-1001zM582 1567l75 71l183 -178l268 182l57 -75l-303 -256h-59z" />
    <glyph glyph-name="ecaron" unicode="&#x11b;" horiz-adv-x="1202" 
d="M1014 172l22 -123q-168 -67 -409 -67q-121 0 -219.5 34.5t-159.5 100.5q-50 53 -77.5 134t-27.5 171q0 145 57 269.5t160 209.5q171 141 420 141q188 0 299 -63q70 -40 104 -97t34 -139q0 -72 -39.5 -133t-104.5 -92q-108 -50 -247 -69t-324 -19q-106 0 -191 14
q0 -155 68 -229q88 -94 287 -94q180 0 348 51zM328 563q239 0 375.5 10.5t226.5 38.5q72 20 100.5 51.5t28.5 88.5q0 67 -72 112q-65 39 -215 39q-179 0 -297 -92q-110 -86 -147 -248zM557 1362l74 74l184 -172l254 174l59 -76l-294 -248h-60z" />
    <glyph glyph-name="Gcircumflex" unicode="&#x11c;" horiz-adv-x="1398" 
d="M877 588l20 125h481l-110 -713h-113l-25 84q-173 -107 -407 -107q-146 0 -251.5 43.5t-186.5 129.5q-129 139 -129 366q0 175 77.5 328.5t225.5 257.5q213 149 518 149q118 0 227.5 -24.5t186.5 -67.5l-76 -121q-156 70 -361 70q-234 0 -393 -115q-109 -78 -169 -197.5
t-60 -260.5q0 -177 92 -275q124 -139 328 -139q179 0 383 90l57 360zM735 1317l-55 72l303 256h57l224 -256l-78 -72l-191 178z" />
    <glyph glyph-name="gcircumflex" unicode="&#x11d;" horiz-adv-x="1294" 
d="M1202 1024h113l-148 -928q-40 -235 -184 -356q-152 -127 -414 -127q-140 0 -242.5 29.5t-201.5 95.5l74 115q173 -97 389 -97q200 0 305 105q84 84 106 215l5 30q-173 -124 -402 -124q-219 0 -342 114q-125 112 -125 316q0 302 205 485q161 145 410 145q267 0 391 -135z
M1026 254l86 534q-82 62 -167 87.5t-206 25.5q-181 0 -293 -106q-143 -137 -143 -359q0 -161 92 -241q87 -72 240 -72q216 0 391 131zM1104 1186l-76 -72l-195 170l-245 -170l-58 74l295 248h55z" />
    <glyph glyph-name="Gbreve" unicode="&#x11e;" horiz-adv-x="1398" 
d="M877 588l20 125h481l-110 -713h-113l-25 84q-173 -107 -407 -107q-146 0 -251.5 43.5t-186.5 129.5q-129 139 -129 366q0 175 77.5 328.5t225.5 257.5q213 149 518 149q118 0 227.5 -24.5t186.5 -67.5l-76 -121q-156 70 -361 70q-234 0 -393 -115q-109 -78 -169 -197.5
t-60 -260.5q0 -177 92 -275q124 -139 328 -139q179 0 383 90l57 360zM715 1575l125 16q0 -57 26 -94q28 -41 99 -41q80 0 125 37q45 39 67 100l129 -18q-39 -124 -112 -180q-81 -66 -211 -66q-123 0 -191 74q-57 70 -57 172z" />
    <glyph glyph-name="gbreve" unicode="&#x11f;" horiz-adv-x="1294" 
d="M1202 1024h113l-148 -928q-40 -235 -184 -356q-152 -127 -414 -127q-140 0 -242.5 29.5t-201.5 95.5l74 115q173 -97 389 -97q200 0 305 105q84 84 106 215l5 30q-173 -124 -402 -124q-219 0 -342 114q-125 112 -125 316q0 302 205 485q161 145 410 145q267 0 391 -135z
M1026 254l86 534q-82 62 -167 87.5t-206 25.5q-181 0 -293 -106q-143 -137 -143 -359q0 -161 92 -241q87 -72 240 -72q216 0 391 131zM621 1350l121 14q0 -49 18 -76q19 -37 84 -37t96 31q36 32 50 82l124 -14q-29 -105 -96 -160q-72 -60 -182 -60q-108 0 -164 66
q-48 54 -51 154z" />
    <glyph glyph-name="Gdotaccent" unicode="&#x120;" horiz-adv-x="1398" 
d="M877 588l20 125h481l-110 -713h-113l-25 84q-173 -107 -407 -107q-146 0 -251.5 43.5t-186.5 129.5q-129 139 -129 366q0 175 77.5 328.5t225.5 257.5q213 149 518 149q118 0 227.5 -24.5t186.5 -67.5l-76 -121q-156 70 -361 70q-234 0 -393 -115q-109 -78 -169 -197.5
t-60 -260.5q0 -177 92 -275q124 -139 328 -139q179 0 383 90l57 360zM1020 1561q48 0 74 -26t26 -67q0 -56 -37 -92.5t-98 -36.5q-51 0 -77.5 25.5t-26.5 67.5q0 55 38.5 92t100.5 37z" />
    <glyph glyph-name="gdotaccent" unicode="&#x121;" horiz-adv-x="1294" 
d="M1202 1024h113l-148 -928q-40 -235 -184 -356q-152 -127 -414 -127q-140 0 -242.5 29.5t-201.5 95.5l74 115q173 -97 389 -97q200 0 305 105q84 84 106 215l5 30q-173 -124 -402 -124q-219 0 -342 114q-125 112 -125 316q0 302 205 485q161 145 410 145q267 0 391 -135z
M1026 254l86 534q-82 62 -167 87.5t-206 25.5q-181 0 -293 -106q-143 -137 -143 -359q0 -161 92 -241q87 -72 240 -72q216 0 391 131zM850 1362q45 0 70.5 -23t25.5 -61q0 -52 -35.5 -86.5t-93.5 -34.5q-44 0 -68 22.5t-24 59.5q0 52 34.5 87.5t90.5 35.5z" />
    <glyph glyph-name="Gcommaaccent" unicode="&#x122;" horiz-adv-x="1398" 
d="M877 588l20 125h481l-110 -713h-113l-25 84q-173 -107 -407 -107q-146 0 -251.5 43.5t-186.5 129.5q-129 139 -129 366q0 175 77.5 328.5t225.5 257.5q213 149 518 149q118 0 227.5 -24.5t186.5 -67.5l-76 -121q-156 70 -361 70q-234 0 -393 -115q-109 -78 -169 -197.5
t-60 -260.5q0 -177 92 -275q124 -139 328 -139q179 0 383 90l57 360zM594 -440l49 139q-28 7 -43.5 29.5t-15.5 52.5q0 54 36 91.5t93 37.5q48 0 74 -24t26 -64q0 -34 -20 -74l-117 -209z" />
    <glyph glyph-name="gcommaaccent" unicode="&#x123;" horiz-adv-x="1294" 
d="M1202 1024h113l-148 -928q-40 -235 -184 -356q-152 -127 -414 -127q-140 0 -242.5 29.5t-201.5 95.5l74 115q173 -97 389 -97q200 0 305 105q84 84 106 215l5 30q-173 -124 -402 -124q-219 0 -342 114q-125 112 -125 316q0 302 205 485q161 145 410 145q267 0 391 -135z
M1026 254l86 534q-82 62 -167 87.5t-206 25.5q-181 0 -293 -106q-143 -137 -143 -359q0 -161 92 -241q87 -72 240 -72q216 0 391 131zM897 1483l-49 -137q61 -18 61 -84q0 -54 -37 -91.5t-98 -37.5q-48 0 -75 24.5t-27 63.5q0 33 20 73l123 213z" />
    <glyph glyph-name="Hcircumflex" unicode="&#x124;" horiz-adv-x="1363" 
d="M1247 1229h170l-194 -1229h-170l92 586h-762l-90 -586h-172l194 1229h172l-79 -500h759zM653 1317l-55 72l303 256h57l224 -256l-78 -72l-191 178z" />
    <glyph glyph-name="hcircumflex" unicode="&#x125;" horiz-adv-x="1273" 
d="M330 1331h166l-64 -411q174 122 389 122q213 0 314 -98q98 -88 98 -252q0 -64 -12 -137l-86 -555h-166l86 551q8 52 8 111q0 117 -57 174q-65 65 -220 65q-197 0 -376 -125l-123 -776h-166zM723 1436l-76 -72l-195 170l-245 -170l-58 74l295 248h55z" />
    <glyph glyph-name="Hbar" unicode="&#x126;" horiz-adv-x="1363" 
d="M1249 1229h168l-31 -193h76l-16 -114l-78 -7l-145 -915h-168l92 586h-764l-92 -586h-170l143 911h-76l19 115l76 6l32 197h170l-32 -193h764zM406 729h763l29 182h-764z" />
    <glyph glyph-name="hbar" unicode="&#x127;" horiz-adv-x="1302" 
d="M358 1339h166l-14 -100h342l-18 -113l-345 -20l-30 -186q177 122 391 122q233 0 332 -108q78 -90 78 -244q0 -68 -11 -135l-88 -555h-166l86 551q11 71 11 106q0 115 -48 172q-64 72 -229 72q-197 0 -379 -125l-123 -776h-166l175 1104h-129l16 115l133 12z" />
    <glyph glyph-name="Itilde" unicode="&#x128;" horiz-adv-x="432" 
d="M315 1229h170l-194 -1229h-170zM758 1507l43 -84q-109 -90 -219 -90q-78 0 -156 35q-73 37 -147 37q-82 0 -144 -43l-45 82q114 92 223 92q79 0 150 -35q75 -37 151 -37q42 0 73.5 8.5t70.5 34.5z" />
    <glyph glyph-name="itilde" unicode="&#x129;" horiz-adv-x="471" 
d="M184 909l19 115h291l-162 -1024h-166l141 897zM404 1182q-72 35 -139 35q-77 0 -142 -39l-39 77q104 82 209 82q62 0 137 -32q72 -35 142 -35q74 0 141 45l39 -78q-93 -86 -205 -86q-70 0 -143 31z" />
    <glyph glyph-name="uni012A" unicode="&#x12a;" horiz-adv-x="432" 
d="M315 1229h170l-194 -1229h-170zM117 1526h665l-22 -133h-666z" />
    <glyph glyph-name="imacron" unicode="&#x12b;" horiz-adv-x="471" 
d="M201 1280h444l-20 -121h-445zM180 909l19 115h290l-161 -1024h-166l141 897z" />
    <glyph glyph-name="Ibreve" unicode="&#x12c;" horiz-adv-x="432" 
d="M315 1229h170l-194 -1229h-170zM172 1575l125 16q0 -55 27 -94q28 -41 98 -41q80 0 125 37q45 39 67 100l129 -18q-39 -124 -112 -180q-81 -66 -211 -66q-123 0 -191 74q-57 70 -57 172z" />
    <glyph glyph-name="uni012D" unicode="&#x12d;" horiz-adv-x="471" 
d="M184 909l19 115h291l-162 -1024h-166l141 897zM195 1350l121 14q0 -49 18 -76q19 -37 84 -37t96 31q36 32 50 82l124 -14q-29 -105 -96 -160q-72 -60 -182 -60q-108 0 -164 66q-48 54 -51 154z" />
    <glyph glyph-name="Iogonek" unicode="&#x12e;" horiz-adv-x="432" 
d="M315 1229h170l-194 -1229q-35 -20 -55 -53q-23 -41 -23 -82q0 -44 18 -74q29 -47 78 -72l-53 -71q-87 26 -131 76q-41 48 -41 112q0 57 31 105q27 38 67 59h-61z" />
    <glyph glyph-name="iogonek" unicode="&#x12f;" horiz-adv-x="471" 
d="M199 1024h290l-161 -1024q-33 -22 -45 -41q-25 -36 -25 -82q0 -32 21 -67q18 -32 73 -62l-51 -72q-91 22 -137 74q-33 45 -33 94q0 56 29 99q19 32 59 57h-57l141 897l-123 12zM467 1403q51 0 78.5 -25.5t27.5 -66.5q0 -54 -39 -91.5t-102 -37.5q-51 0 -78.5 25.5
t-27.5 66.5q0 55 40 92t101 37z" />
    <glyph glyph-name="Idotaccent" unicode="&#x130;" horiz-adv-x="432" 
d="M315 1229h170l-194 -1229h-170zM461 1554q48 0 74 -25.5t26 -66.5q0 -56 -37 -92.5t-98 -36.5q-51 0 -77.5 25.5t-26.5 66.5q0 55 38.5 92t100.5 37z" />
    <glyph glyph-name="dotlessi" unicode="&#x131;" horiz-adv-x="471" 
d="M184 909l19 115h291l-162 -1024h-166l141 897z" />
    <glyph glyph-name="Jcircumflex" unicode="&#x134;" horiz-adv-x="1034" 
d="M918 1229h169l-106 -672q-27 -166 -78 -271t-129 -171q-166 -138 -448 -138q-148 0 -289 58l51 127q116 -41 254 -41q212 0 320 96q109 95 147 320zM782 1268l-55 71l303 256h57l224 -256l-78 -71l-191 178z" />
    <glyph glyph-name="jcircumflex" unicode="&#x135;" horiz-adv-x="471" 
d="M184 909l19 115h291l-166 -1040q-26 -169 -138 -267q-117 -104 -307 -104q-95 0 -166.5 21t-144.5 69l74 117q65 -36 120.5 -50t131.5 -14q113 0 184 64q64 58 80 164l145 913zM705 1186l-76 -72l-195 170l-246 -170l-57 74l295 248h55z" />
    <glyph glyph-name="Kcommaaccent" unicode="&#x136;" horiz-adv-x="1314" 
d="M315 1229h172l-81 -502h337l474 502h208l-538 -567l358 -662h-198l-306 584h-358l-90 -584h-172zM532 -307l50 139q-29 7 -44.5 29.5t-15.5 52.5q0 54 36 91.5t93 37.5q48 0 74.5 -24.5t26.5 -63.5q0 -32 -21 -74l-117 -209z" />
    <glyph glyph-name="kcommaaccent" unicode="&#x137;" horiz-adv-x="1210" 
d="M330 1331h166l-111 -708h365l337 401h199l-397 -465l252 -559h-187l-206 481h-386l-75 -481h-166zM479 -309l47 139q-57 12 -57 80q0 55 35.5 91t91.5 36q48 0 74 -24t26 -62q0 -32 -20 -72l-117 -207z" />
    <glyph glyph-name="kgreenlandic" unicode="&#x138;" horiz-adv-x="1210" 
d="M283 1024h166l-64 -401h365l337 401h199l-397 -465l252 -559h-187l-206 481h-386l-75 -481h-166z" />
    <glyph glyph-name="Lacute" unicode="&#x139;" horiz-adv-x="1157" 
d="M313 143h777l-21 -143h-948l194 1229h170zM381 1382l174 310l131 -78l-207 -287z" />
    <glyph glyph-name="lacute" unicode="&#x13a;" horiz-adv-x="434" 
d="M193 1223l18 108h291l-209 -1331h-166l188 1204zM385 1465l168 301l131 -74l-203 -279z" />
    <glyph glyph-name="Lcommaaccent" unicode="&#x13b;" horiz-adv-x="1157" 
d="M313 143h777l-21 -143h-948l194 1229h170zM467 -432l49 139q-28 7 -43.5 29.5t-15.5 52.5q0 54 36 91.5t93 37.5q48 0 74 -24t26 -64q0 -34 -20 -74l-117 -209z" />
    <glyph glyph-name="lcommaaccent" unicode="&#x13c;" horiz-adv-x="434" 
d="M193 1223l18 108h291l-209 -1331h-166l188 1204zM76 -442l47 139q-57 12 -57 80q0 55 35.5 91t91.5 36q48 0 74 -24t26 -62q0 -30 -21 -72l-116 -207z" />
    <glyph glyph-name="Lcaron" unicode="&#x13d;" horiz-adv-x="1157" 
d="M313 143h777l-21 -143h-948l194 1229h170zM674 924l49 137q-61 18 -61 84q0 54 37 91.5t98 37.5q48 0 75 -24.5t27 -63.5q0 -34 -20 -74l-123 -213z" />
    <glyph glyph-name="lcaron" unicode="&#x13e;" horiz-adv-x="569" 
d="M193 1223l18 108h291l-209 -1331h-166l188 1204zM608 1044l49 138q-61 18 -61 84q0 54 37 91.5t98 37.5q48 0 75.5 -24.5t27.5 -63.5q0 -32 -21 -74l-123 -213z" />
    <glyph glyph-name="Ldot" unicode="&#x13f;" horiz-adv-x="1157" 
d="M313 143h777l-21 -143h-948l194 1229h170zM778 741q50 0 77 -25.5t27 -66.5q0 -62 -38 -99.5t-101 -37.5q-51 0 -78.5 25.5t-27.5 68.5q0 58 39 96.5t102 38.5z" />
    <glyph glyph-name="ldot" unicode="&#x140;" horiz-adv-x="649" 
d="M193 1223l18 108h291l-209 -1331h-166l188 1204zM608 762q50 0 77.5 -25.5t27.5 -66.5q0 -62 -38.5 -100t-101.5 -38q-51 0 -78.5 26t-27.5 69q0 58 39 96.5t102 38.5z" />
    <glyph glyph-name="Lslash" unicode="&#x141;" horiz-adv-x="1175" 
d="M330 143h776l-21 -143h-946l88 575l-100 -26l-16 129l139 35l84 516h170l-76 -471l231 59l15 -127l-268 -69z" />
    <glyph glyph-name="lslash" unicode="&#x142;" horiz-adv-x="501" 
d="M215 1223l16 108h291l-96 -577l162 41l14 -119l-196 -49l-93 -627h-166l86 582l-133 -35l-14 119l168 43l84 495z" />
    <glyph glyph-name="Nacute" unicode="&#x143;" horiz-adv-x="1388" 
d="M1280 1229h162l-195 -1229h-162l-645 997l-155 -997h-164l194 1229h164l643 -993zM819 1382l174 310l131 -78l-206 -287z" />
    <glyph glyph-name="nacute" unicode="&#x144;" horiz-adv-x="1273" 
d="M285 1024h112l23 -113q177 131 401 131q217 0 320 -100q94 -88 94 -250q0 -52 -10 -137l-88 -555h-166l86 551q10 51 10 111q0 120 -59 176q-63 63 -217 63q-110 0 -197.5 -28.5t-181.5 -94.5l-123 -778h-166zM764 1176l168 301l131 -74l-203 -279z" />
    <glyph glyph-name="Ncommaaccent" unicode="&#x145;" horiz-adv-x="1388" 
d="M1280 1229h162l-195 -1229h-162l-645 997l-155 -997h-164l194 1229h164l643 -993zM532 -313l50 139q-29 7 -44.5 29.5t-15.5 52.5q0 54 36 91.5t93 37.5q48 0 74.5 -24.5t26.5 -63.5q0 -32 -21 -74l-117 -209z" />
    <glyph glyph-name="ncommaaccent" unicode="&#x146;" horiz-adv-x="1273" 
d="M285 1024h112l23 -113q177 131 401 131q217 0 320 -100q94 -88 94 -250q0 -52 -10 -137l-88 -555h-166l86 551q10 51 10 111q0 120 -59 176q-63 63 -217 63q-110 0 -197.5 -28.5t-181.5 -94.5l-123 -778h-166zM512 -317l47 139q-57 12 -57 80q0 55 35.5 91t91.5 36
q48 0 74 -24t26 -62q0 -32 -20 -72l-117 -207z" />
    <glyph glyph-name="Ncaron" unicode="&#x147;" horiz-adv-x="1388" 
d="M1280 1229h162l-195 -1229h-162l-645 997l-155 -997h-164l194 1229h164l643 -993zM639 1567l76 71l182 -178l268 182l58 -75l-303 -256h-60z" />
    <glyph glyph-name="ncaron" unicode="&#x148;" horiz-adv-x="1273" 
d="M285 1024h112l23 -113q177 131 401 131q217 0 320 -100q94 -88 94 -250q0 -52 -10 -137l-88 -555h-166l86 551q10 51 10 111q0 120 -59 176q-63 63 -217 63q-110 0 -197.5 -28.5t-181.5 -94.5l-123 -778h-166zM575 1366l74 74l185 -172l253 174l60 -76l-295 -248h-59z
" />
    <glyph glyph-name="napostrophe" unicode="&#x149;" horiz-adv-x="1273" 
d="M285 1024h112l23 -113q177 131 401 131q217 0 320 -100q94 -88 94 -250q0 -52 -10 -137l-88 -555h-166l86 551q10 51 10 111q0 120 -59 176q-63 63 -217 63q-110 0 -197.5 -28.5t-181.5 -94.5l-123 -778h-166zM137 1077l47 140q-57 12 -57 79q0 55 35.5 91t91.5 36
q48 0 74 -24t26 -62q0 -31 -20 -71l-117 -207z" />
    <glyph glyph-name="Omacron" unicode="&#x14c;" horiz-adv-x="1425" 
d="M1174 1004q-104 104 -293 104q-220 0 -361 -125q-192 -172 -192 -475q0 -174 88 -275q103 -112 301 -112q236 0 381 145q86 85 130 207.5t44 259.5q0 173 -98 271zM154 492q0 169 64 323t190 264q197 172 491 172q258 0 404 -143q141 -138 141 -358q0 -161 -56.5 -314
t-168.5 -264q-201 -195 -521 -195q-259 0 -407 142q-137 128 -137 373zM610 1485h666l-23 -133h-665z" />
    <glyph glyph-name="omacron" unicode="&#x14d;" horiz-adv-x="1239" 
d="M776 1042q216 0 340 -112q131 -118 131 -332q0 -305 -223 -487q-160 -129 -416 -129q-227 0 -354 133q-117 120 -117 313q0 285 207 469q164 145 432 145zM754 903q-187 0 -301 -102q-148 -136 -148 -359q0 -138 74 -225q81 -96 254 -96q178 0 293 94q155 134 155 367
q0 149 -77 235q-86 86 -250 86zM512 1280h605l-21 -121h-604z" />
    <glyph glyph-name="Obreve" unicode="&#x14e;" horiz-adv-x="1425" 
d="M1174 1004q-104 104 -293 104q-220 0 -361 -125q-192 -172 -192 -475q0 -174 88 -275q103 -112 301 -112q236 0 381 145q86 85 130 207.5t44 259.5q0 173 -98 271zM154 492q0 169 64 323t190 264q197 172 491 172q258 0 404 -143q141 -138 141 -358q0 -161 -56.5 -314
t-168.5 -264q-201 -195 -521 -195q-259 0 -407 142q-137 128 -137 373zM676 1575l125 16q0 -57 26 -94q28 -41 99 -41q80 0 125 37q45 39 67 100l129 -18q-39 -124 -112 -180q-81 -66 -211 -66q-123 0 -191 74q-57 70 -57 172z" />
    <glyph glyph-name="obreve" unicode="&#x14f;" horiz-adv-x="1239" 
d="M776 1042q216 0 340 -112q131 -118 131 -332q0 -305 -223 -487q-160 -129 -416 -129q-227 0 -354 133q-117 120 -117 313q0 285 207 469q164 145 432 145zM754 903q-187 0 -301 -102q-148 -136 -148 -359q0 -138 74 -225q81 -96 254 -96q178 0 293 94q155 134 155 367
q0 149 -77 235q-86 86 -250 86zM576 1350l121 14q0 -49 18 -76q19 -37 84 -37t96 31q36 32 50 82l124 -14q-29 -105 -96 -160q-72 -60 -182 -60q-108 0 -164 66q-48 54 -51 154z" />
    <glyph glyph-name="Ohungarumlaut" unicode="&#x150;" horiz-adv-x="1425" 
d="M1174 1004q-104 104 -293 104q-220 0 -361 -125q-192 -172 -192 -475q0 -174 88 -275q103 -112 301 -112q236 0 381 145q86 85 130 207.5t44 259.5q0 173 -98 271zM154 492q0 169 64 323t190 264q197 172 491 172q258 0 404 -143q141 -138 141 -358q0 -161 -56.5 -314
t-168.5 -264q-201 -195 -521 -195q-259 0 -407 142q-137 128 -137 373zM756 1374l139 326l141 -58l-182 -307zM973 1374l190 322l131 -64l-223 -299z" />
    <glyph glyph-name="ohungarumlaut" unicode="&#x151;" horiz-adv-x="1239" 
d="M776 1042q216 0 340 -112q131 -118 131 -332q0 -305 -223 -487q-160 -129 -416 -129q-227 0 -354 133q-117 120 -117 313q0 285 207 469q164 145 432 145zM754 903q-187 0 -301 -102q-148 -136 -148 -359q0 -138 74 -225q81 -96 254 -96q178 0 293 94q155 134 155 367
q0 149 -77 235q-86 86 -250 86zM655 1165l115 308l137 -54l-160 -289zM866 1169l166 301l127 -61l-199 -281z" />
    <glyph glyph-name="OE" unicode="&#x152;" horiz-adv-x="2267" 
d="M1362 1229h975l-25 -144h-807l-57 -364h719l-23 -143h-719l-69 -435h833l-20 -143h-1002l27 172q-91 -96 -220 -145.5t-280 -49.5q-255 0 -403 142q-137 128 -137 373q0 174 63.5 326t190.5 263q195 170 491 170q295 0 432 -200zM1272 735q0 173 -98 271
q-105 102 -293 102q-220 0 -361 -125q-192 -172 -192 -475q0 -174 88 -275q103 -112 301 -112q236 0 381 145q87 87 130.5 209.5t43.5 259.5z" />
    <glyph glyph-name="oe" unicode="&#x153;" horiz-adv-x="2101" 
d="M1925 172l21 -123q-168 -67 -410 -67q-96 0 -177.5 22t-150 74t-104.5 131q-164 -227 -498 -227q-225 0 -350 122q-119 116 -119 328q0 287 211 469q163 141 426 141q143 0 254.5 -53.5t165.5 -169.5q82 108 213.5 165.5t282.5 57.5q188 0 299 -63q70 -40 103.5 -97
t33.5 -139q0 -78 -40.5 -138t-113.5 -91q-205 -84 -561 -84q-105 0 -190 14q0 -170 86 -246.5t268 -76.5q178 0 350 51zM752 903q-187 0 -301 -102q-146 -132 -146 -355q0 -162 86 -245q80 -80 238 -80q178 0 293 94q78 67 115.5 168.5t37.5 218.5q0 149 -80 223
q-81 78 -243 78zM1239 563q238 0 372.5 10.5t225.5 38.5q73 20 102 52t29 88q0 67 -72 112q-65 39 -213 39q-187 0 -303 -90q-112 -87 -141 -250z" />
    <glyph glyph-name="Racute" unicode="&#x154;" horiz-adv-x="1275" 
d="M315 1229h574q220 0 328 -105q92 -95 92 -245q0 -185 -121 -316q-92 -100 -238 -147l195 -416h-182l-175 387h-436l-61 -387h-170zM463 1085l-88 -555h399q165 0 264 99q99 93 99 239q0 107 -58 162t-211 55h-405zM733 1382l174 310l131 -78l-207 -287z" />
    <glyph glyph-name="racute" unicode="&#x155;" horiz-adv-x="1097" 
d="M285 1024h112l23 -113q173 131 397 131q229 0 352 -102l-94 -119q-116 80 -287 80q-107 0 -194.5 -28.5t-181.5 -94.5l-123 -778h-166zM696 1176l168 301l131 -74l-203 -279z" />
    <glyph glyph-name="Rcommaaccent" unicode="&#x156;" horiz-adv-x="1255" 
d="M315 1229h574q220 0 328 -105q92 -95 92 -245q0 -185 -121 -316q-92 -100 -238 -147l195 -416h-182l-175 387h-436l-61 -387h-170zM463 1085l-88 -555h399q165 0 264 99q99 93 99 239q0 107 -58 162t-211 55h-405zM465 -319l49 139q-28 7 -43.5 29.5t-15.5 52.5
q0 54 36 91.5t93 37.5q48 0 74 -24t26 -64q0 -34 -20 -74l-117 -209z" />
    <glyph glyph-name="rcommaaccent" unicode="&#x157;" horiz-adv-x="1095" 
d="M285 1024h112l23 -113q173 131 397 131q229 0 352 -102l-94 -119q-116 80 -287 80q-107 0 -194.5 -28.5t-181.5 -94.5l-123 -778h-166zM74 -449l47 140q-28 6 -43 27.5t-15 52.5q0 55 35.5 91t91.5 36q48 0 74.5 -24t26.5 -62q0 -30 -21 -72l-116 -207z" />
    <glyph glyph-name="Rcaron" unicode="&#x158;" horiz-adv-x="1255" 
d="M315 1229h574q220 0 328 -105q92 -95 92 -245q0 -185 -121 -316q-92 -100 -238 -147l195 -416h-182l-175 387h-436l-61 -387h-170zM463 1085l-88 -555h399q165 0 264 99q99 93 99 239q0 107 -58 162t-211 55h-405zM543 1567l75 71l183 -178l268 182l57 -75l-303 -256h-59
z" />
    <glyph glyph-name="rcaron" unicode="&#x159;" horiz-adv-x="1097" 
d="M285 1024h112l23 -113q173 131 397 131q229 0 352 -102l-94 -119q-116 80 -287 80q-107 0 -194.5 -28.5t-181.5 -94.5l-123 -778h-166zM567 1362l74 74l184 -172l254 174l59 -76l-295 -248h-59z" />
    <glyph glyph-name="Sacute" unicode="&#x15a;" horiz-adv-x="1296" 
d="M1294 1167l-67 -129q-195 68 -402 68q-130 0 -218.5 -11t-143.5 -48q-78 -53 -78 -150q0 -68 54.5 -100.5t154.5 -46.5l289 -37q192 -28 295 -111q92 -75 92 -192q0 -202 -172 -316q-176 -117 -525 -117q-263 0 -485 89l49 141q230 -80 471 -80q261 0 387 84
q50 34 75.5 73t25.5 97q0 37 -15 65.5t-37.5 46t-58.5 30.5t-69 20t-78 12l-312 41q-165 22 -247 104q-70 70 -70 181q0 88 42.5 158.5t119.5 117.5q81 50 192.5 72t278.5 22q244 0 452 -84zM797 1382l174 310l131 -78l-207 -287z" />
    <glyph glyph-name="sacute" unicode="&#x15b;" horiz-adv-x="1150" 
d="M1145 969l-53 -125q-177 59 -369 59q-228 0 -309 -47q-62 -40 -62 -100t41 -86q43 -28 135 -37l273 -35q172 -19 250 -92q65 -62 65 -160q0 -184 -166 -278q-149 -86 -440 -86q-127 0 -224 18.5t-190 62.5l60 127q179 -69 370 -69q137 0 217.5 15.5t130.5 51.5
q76 56 76 129q0 58 -32 86q-38 35 -156 50l-279 32q-176 20 -245 101q-52 58 -52 149q0 65 32 120t89 93q74 52 173.5 73t254.5 21q218 0 410 -73zM684 1176l168 301l131 -74l-203 -279z" />
    <glyph glyph-name="Scircumflex" unicode="&#x15c;" horiz-adv-x="1296" 
d="M1294 1167l-67 -129q-195 68 -402 68q-130 0 -218.5 -11t-143.5 -48q-78 -53 -78 -150q0 -68 54.5 -100.5t154.5 -46.5l289 -37q192 -28 295 -111q92 -75 92 -192q0 -202 -172 -316q-176 -117 -525 -117q-263 0 -485 89l49 141q230 -80 471 -80q261 0 387 84
q50 34 75.5 73t25.5 97q0 37 -15 65.5t-37.5 46t-58.5 30.5t-69 20t-78 12l-312 41q-165 22 -247 104q-70 70 -70 181q0 88 42.5 158.5t119.5 117.5q81 50 192.5 72t278.5 22q244 0 452 -84zM629 1317l-56 72l304 256h57l223 -256l-78 -72l-190 178z" />
    <glyph glyph-name="scircumflex" unicode="&#x15d;" horiz-adv-x="1150" 
d="M1145 969l-53 -125q-177 59 -369 59q-228 0 -309 -47q-62 -40 -62 -100t41 -86q43 -28 135 -37l273 -35q172 -19 250 -92q65 -62 65 -160q0 -184 -166 -278q-149 -86 -440 -86q-127 0 -224 18.5t-190 62.5l60 127q179 -69 370 -69q137 0 217.5 15.5t130.5 51.5
q76 56 76 129q0 58 -32 86q-38 35 -156 50l-279 32q-176 20 -245 101q-52 58 -52 149q0 65 32 120t89 93q74 52 173.5 73t254.5 21q218 0 410 -73zM1051 1186l-76 -72l-195 170l-245 -170l-58 74l295 248h55z" />
    <glyph glyph-name="Scedilla" unicode="&#x15e;" horiz-adv-x="1296" 
d="M1294 1167l-67 -129q-195 68 -402 68q-266 0 -379 -78q-61 -43 -61 -127q0 -64 52 -95t157 -48l289 -43q194 -32 295 -113q92 -75 92 -192q0 -202 -172 -316q-160 -107 -473 -117l-19 -75q57 0 96 -31q35 -27 35 -78q0 -100 -90 -174q-88 -68 -231 -88l-21 84
q98 26 150 61q55 40 55 99q0 17 -12 26q-9 6 -31 6h-53l-21 21l23 149q-215 8 -418 89l49 141q230 -80 471 -80q261 0 387 84q50 34 75.5 73t25.5 97q0 37 -15.5 65t-37.5 45t-59.5 30.5t-68 20t-77.5 13.5l-312 49q-167 25 -247 105q-70 70 -70 178q0 163 153 258
q168 106 480 106q244 0 452 -84z" />
    <glyph glyph-name="scedilla" unicode="&#x15f;" horiz-adv-x="1150" 
d="M1145 969l-53 -125q-177 59 -369 59q-228 0 -309 -47q-62 -40 -62 -100t41 -86q43 -28 135 -37l273 -35q172 -19 250 -92q65 -62 65 -160q0 -184 -166 -278q-134 -77 -385 -86l-12 -58q47 -3 80 -30t33 -74q0 -92 -76 -152q-74 -57 -209 -86l-19 80q69 18 123 53t54 84
q0 20 -10.5 27.5t-34.5 7.5h-37l-17 16l21 132q-218 9 -365 81l60 127q179 -69 370 -69q137 0 217.5 15.5t130.5 51.5q76 56 76 129q0 58 -32 86q-38 35 -156 50l-279 32q-176 20 -245 101q-52 58 -52 149q0 65 32 120t89 93q74 52 173.5 73t254.5 21q218 0 410 -73z" />
    <glyph glyph-name="Scaron" unicode="&#x160;" horiz-adv-x="1296" 
d="M1294 1167l-67 -129q-195 68 -402 68q-130 0 -218.5 -11t-143.5 -48q-78 -53 -78 -150q0 -68 54.5 -100.5t154.5 -46.5l289 -37q192 -28 295 -111q92 -75 92 -192q0 -202 -172 -316q-176 -117 -525 -117q-263 0 -485 89l49 141q230 -80 471 -80q261 0 387 84
q50 34 75.5 73t25.5 97q0 37 -15 65.5t-37.5 46t-58.5 30.5t-69 20t-78 12l-312 41q-165 22 -247 104q-70 70 -70 181q0 88 42.5 158.5t119.5 117.5q81 50 192.5 72t278.5 22q244 0 452 -84zM602 1567l76 71l182 -178l268 182l58 -75l-303 -256h-60z" />
    <glyph glyph-name="scaron" unicode="&#x161;" horiz-adv-x="1150" 
d="M1145 969l-53 -125q-177 59 -369 59q-228 0 -309 -47q-62 -40 -62 -100t41 -86q43 -28 135 -37l273 -35q172 -19 250 -92q65 -62 65 -160q0 -184 -166 -278q-149 -86 -440 -86q-127 0 -224 18.5t-190 62.5l60 127q179 -69 370 -69q137 0 217.5 15.5t130.5 51.5
q76 56 76 129q0 58 -32 86q-38 35 -156 50l-279 32q-176 20 -245 101q-52 58 -52 149q0 65 32 120t89 93q74 52 173.5 73t254.5 21q218 0 410 -73zM492 1362l74 74l184 -172l254 174l59 -76l-295 -248h-59z" />
    <glyph glyph-name="Tcommaaccent" unicode="&#x162;" horiz-adv-x="1306" 
d="M221 1085l25 144h1188l-25 -144h-510l-170 -1085h-170l170 1085h-508zM510 -434l47 139q-28 7 -43.5 29.5t-15.5 52.5q0 54 36.5 91.5t94.5 37.5q48 0 74 -24t26 -62q0 -41 -20 -74l-119 -211z" />
    <glyph glyph-name="tcommaaccent" unicode="&#x163;" horiz-adv-x="933" 
d="M178 883l19 118l192 19l68 246h133l-37 -242h446l-20 -121l-451 -18l-86 -553q-6 -30 -6 -60q0 -149 189 -149q75 0 139 15t143 52l35 -112q-88 -52 -173.5 -74t-188.5 -22q-181 0 -258 90q-54 66 -54 174q0 38 6 84l88 553h-184zM438 -446l47 139q-57 12 -57 80
q0 55 35.5 91t91.5 36q48 0 74 -24t26 -62q0 -32 -20 -72l-117 -207z" />
    <glyph glyph-name="Tcaron" unicode="&#x164;" horiz-adv-x="1306" 
d="M221 1085l25 144h1188l-25 -144h-510l-170 -1085h-170l170 1085h-508zM602 1567l76 71l182 -178l268 182l58 -75l-303 -256h-60z" />
    <glyph glyph-name="tcaron" unicode="&#x165;" horiz-adv-x="1105" 
d="M178 883l19 118l192 19l68 246h133l-37 -242h446l-20 -121l-451 -18l-86 -553q-6 -30 -6 -60q0 -149 189 -149q75 0 139 15t143 52l35 -112q-88 -52 -173.5 -74t-188.5 -22q-181 0 -258 90q-54 66 -54 174q0 38 6 84l88 553h-184zM1042 936l50 137q-62 18 -62 84
q0 54 37 91.5t98 37.5q48 0 75.5 -24.5t27.5 -63.5q0 -32 -21 -74l-123 -213z" />
    <glyph glyph-name="Utilde" unicode="&#x168;" horiz-adv-x="1368" 
d="M315 1229h170l-110 -707q-10 -62 -10 -106q0 -125 63 -201q81 -94 264 -94q175 0 293 98q61 52 100.5 133t61.5 217l106 660h168l-110 -703q-43 -268 -211 -411q-170 -138 -430 -138q-249 0 -375 132q-100 106 -100 290q0 73 10 127zM1212 1507l43 -84q-109 -90 -219 -90
q-77 0 -155 35q-73 37 -148 37q-81 0 -143 -43l-45 82q114 92 223 92q79 0 150 -35q75 -37 151 -37q42 0 73 8.5t70 34.5z" />
    <glyph glyph-name="utilde" unicode="&#x169;" horiz-adv-x="1275" 
d="M283 1024h166l-89 -551q-8 -55 -8 -104q0 -128 60 -185q63 -63 217 -63q108 0 196.5 29.5t184.5 97.5l120 776h168l-161 -1024h-115l-23 113q-174 -131 -401 -131q-215 0 -317 94q-99 89 -99 258q0 55 13 135zM809 1182q-72 35 -139 35q-77 0 -142 -39l-39 77
q104 82 209 82q62 0 137 -32q72 -35 142 -35q74 0 141 45l39 -78q-93 -86 -205 -86q-70 0 -143 31z" />
    <glyph glyph-name="Umacron" unicode="&#x16a;" horiz-adv-x="1368" 
d="M315 1229h170l-110 -707q-10 -62 -10 -106q0 -125 63 -201q81 -94 264 -94q175 0 293 98q61 52 100.5 133t61.5 217l106 660h168l-110 -703q-43 -268 -211 -411q-170 -138 -430 -138q-249 0 -375 132q-100 106 -100 290q0 73 10 127zM578 1485h665l-22 -133h-666z" />
    <glyph glyph-name="umacron" unicode="&#x16b;" horiz-adv-x="1275" 
d="M283 1024h166l-89 -551q-8 -55 -8 -104q0 -128 60 -185q63 -63 217 -63q108 0 196.5 29.5t184.5 97.5l120 776h168l-161 -1024h-115l-23 113q-174 -131 -401 -131q-215 0 -317 94q-99 89 -99 258q0 55 13 135zM526 1280h605l-21 -121h-604z" />
    <glyph glyph-name="Ubreve" unicode="&#x16c;" horiz-adv-x="1368" 
d="M315 1229h170l-110 -707q-10 -62 -10 -106q0 -125 63 -201q81 -94 264 -94q175 0 293 98q61 52 100.5 133t61.5 217l106 660h168l-110 -703q-43 -268 -211 -411q-170 -138 -430 -138q-249 0 -375 132q-100 106 -100 290q0 73 10 127zM627 1550l125 17q0 -57 26 -94
q28 -41 99 -41q80 0 124 36q46 40 68 101l129 -19q-38 -123 -113 -180q-80 -65 -211 -65q-123 0 -190 73q-57 70 -57 172z" />
    <glyph glyph-name="ubreve" unicode="&#x16d;" horiz-adv-x="1275" 
d="M283 1024h166l-89 -551q-8 -55 -8 -104q0 -128 60 -185q63 -63 217 -63q108 0 196.5 29.5t184.5 97.5l120 776h168l-161 -1024h-115l-23 113q-174 -131 -401 -131q-215 0 -317 94q-99 89 -99 258q0 55 13 135zM590 1321l121 14q0 -49 18 -76q19 -37 84 -37t96 31
q36 32 50 82l124 -14q-29 -105 -96 -160q-72 -60 -182 -60q-108 0 -164 66q-48 54 -51 154z" />
    <glyph glyph-name="Uring" unicode="&#x16e;" horiz-adv-x="1368" 
d="M315 1229h170l-110 -707q-10 -62 -10 -106q0 -125 63 -201q81 -94 264 -94q175 0 293 98q61 52 100.5 133t61.5 217l106 660h168l-110 -703q-43 -268 -211 -411q-170 -138 -430 -138q-249 0 -375 132q-100 106 -100 290q0 73 10 127zM864 1282q-90 0 -145 55
q-43 53 -43 131q0 115 92 189q68 59 166 59q100 0 149 -61q43 -43 43 -119q0 -114 -82 -184q-73 -70 -180 -70zM881 1389q47 0 90 34q43 40 43 101q0 38 -27 65q-26 23 -72 23q-52 0 -88 -31q-45 -31 -45 -100q0 -44 25 -66q26 -26 74 -26z" />
    <glyph glyph-name="uring" unicode="&#x16f;" horiz-adv-x="1275" 
d="M283 1024h166l-89 -551q-8 -55 -8 -104q0 -128 60 -185q63 -63 217 -63q108 0 196.5 29.5t184.5 97.5l120 776h168l-161 -1024h-115l-23 113q-174 -131 -401 -131q-215 0 -317 94q-99 89 -99 258q0 55 13 135zM787 1100q-88 0 -137 55q-41 47 -41 119q0 103 82 176
q66 57 163 57q84 0 136 -55q43 -50 43 -109q0 -116 -82 -186q-66 -54 -164 -57zM803 1198q53 0 84 31q39 36 39 98q0 37 -24.5 61.5t-65.5 24.5q-48 0 -84 -31q-41 -30 -41 -94q0 -42 23.5 -66t68.5 -24z" />
    <glyph glyph-name="Uhungarumlaut" unicode="&#x170;" horiz-adv-x="1368" 
d="M315 1229h170l-110 -707q-10 -62 -10 -106q0 -125 63 -201q81 -94 264 -94q175 0 293 98q61 52 100.5 133t61.5 217l106 660h168l-110 -703q-43 -268 -211 -411q-170 -138 -430 -138q-249 0 -375 132q-100 106 -100 290q0 73 10 127zM684 1333l139 326l142 -57l-183 -308
zM901 1333l191 322l131 -64l-224 -299z" />
    <glyph glyph-name="uhungarumlaut" unicode="&#x171;" horiz-adv-x="1275" 
d="M283 1024h166l-89 -551q-8 -55 -8 -104q0 -128 60 -185q63 -63 217 -63q108 0 196.5 29.5t184.5 97.5l120 776h168l-161 -1024h-115l-23 113q-174 -131 -401 -131q-215 0 -317 94q-99 89 -99 258q0 55 13 135zM633 1133l115 307l137 -54l-160 -288zM844 1137l166 301
l127 -62l-199 -280z" />
    <glyph glyph-name="Uogonek" unicode="&#x172;" horiz-adv-x="1368" 
d="M315 1229h170l-110 -707q-10 -62 -10 -106q0 -125 63 -201q81 -94 264 -94q175 0 293 98q61 52 100.5 133t61.5 217l106 660h168l-110 -703q-43 -272 -213 -409q-140 -120 -355 -135q-27 -19 -43 -48q-22 -39 -22 -81q0 -44 18 -74q29 -47 78 -72l-53 -72q-86 26 -131 74
q-41 48 -41 115t33 113q16 24 43 43q-219 12 -330 129q-100 106 -100 290q0 73 10 127z" />
    <glyph glyph-name="uogonek" unicode="&#x173;" horiz-adv-x="1275" 
d="M283 1024h166l-89 -551q-8 -55 -8 -104q0 -128 60 -185q63 -63 217 -63q108 0 196.5 29.5t184.5 97.5l120 776h168l-161 -1024q-34 -21 -47 -41q-25 -36 -25 -82q0 -34 20 -67q21 -33 74 -62l-49 -72q-93 22 -139 74q-33 45 -33 94q0 60 35 107q21 35 59 59l-31 103
q-177 -131 -403 -131q-215 0 -317 94q-99 89 -99 258q0 55 13 135z" />
    <glyph glyph-name="Wcircumflex" unicode="&#x174;" horiz-adv-x="2004" 
d="M688 0h-242l-202 1229h178l166 -1073h12l477 1073h221l140 -1073h16l496 1073h180l-586 -1229h-250l-133 1038h-10zM971 1300l-56 72l304 256h57l223 -256l-78 -72l-190 179z" />
    <glyph glyph-name="wcircumflex" unicode="&#x175;" horiz-adv-x="1841" 
d="M418 0l-205 1024h176l162 -877h29l370 877h238l108 -877h31l426 877h180l-526 -1024h-244l-112 866h-17l-366 -866h-250zM1387 1186l-76 -72l-195 170l-245 -170l-58 74l295 248h55z" />
    <glyph glyph-name="Ycircumflex" unicode="&#x176;" horiz-adv-x="1380" 
d="M766 0h-170l45 285l-397 944h192l305 -772h15l551 772h198l-694 -940zM655 1278l-55 72l303 256h58l223 -256l-78 -72l-191 178z" />
    <glyph glyph-name="ycircumflex" unicode="&#x177;" horiz-adv-x="1277" 
d="M530 0l-319 1024h182l260 -877h47l496 877h184l-684 -1165q-61 -102 -139 -142q-62 -34 -170 -34q-42 0 -88 16l35 123q34 -6 57 -6q55 0 94 20q49 25 84 88l45 76h-84zM1129 1186l-76 -72l-195 170l-245 -170l-58 74l295 248h55z" />
    <glyph glyph-name="Ydieresis" unicode="&#x178;" horiz-adv-x="1380" 
d="M766 0h-170l45 285l-397 944h192l305 -772h15l551 772h198l-694 -940zM717 1567q52 0 80 -26.5t28 -70.5q0 -57 -40.5 -97t-104.5 -40q-50 0 -78.5 25.5t-28.5 66.5q0 61 40.5 101.5t103.5 40.5zM1143 1567q52 0 80 -26.5t28 -70.5q0 -57 -40.5 -97t-104.5 -40
q-50 0 -78.5 25.5t-28.5 66.5q0 61 40 101.5t104 40.5z" />
    <glyph glyph-name="Zacute" unicode="&#x179;" horiz-adv-x="1183" 
d="M1126 143l-22 -143h-1045l17 100l960 992l-321 -5h-434l22 142h989l-16 -101l-959 -993l314 8h495zM709 1382l174 310l131 -78l-207 -287z" />
    <glyph glyph-name="zacute" unicode="&#x17a;" horiz-adv-x="1091" 
d="M227 883l25 141h913l-14 -90l-821 -795h694l-20 -139h-932l18 106l801 777h-664zM635 1176l168 301l131 -74l-203 -279z" />
    <glyph glyph-name="Zdotaccent" unicode="&#x17b;" horiz-adv-x="1183" 
d="M1126 143l-22 -143h-1045l17 100l960 992l-321 -5h-434l22 142h989l-16 -101l-959 -993l314 8h495zM836 1569q48 0 74 -25.5t26 -66.5q0 -56 -37 -92.5t-98 -36.5q-51 0 -78 25.5t-27 66.5q0 55 39 92t101 37z" />
    <glyph glyph-name="zdotaccent" unicode="&#x17c;" horiz-adv-x="1091" 
d="M227 883l25 141h913l-14 -90l-821 -795h694l-20 -139h-932l18 106l801 777h-664zM741 1341q45 0 71 -23.5t26 -60.5q0 -52 -35.5 -86t-93.5 -34q-44 0 -68.5 22.5t-24.5 59.5q0 52 34.5 87t90.5 35z" />
    <glyph glyph-name="Zcaron" unicode="&#x17d;" horiz-adv-x="1183" 
d="M1126 143l-22 -143h-1045l17 100l960 992l-321 -5h-434l22 142h989l-16 -101l-959 -993l314 8h495zM563 1567l76 71l182 -178l269 182l57 -75l-303 -256h-60z" />
    <glyph glyph-name="zcaron" unicode="&#x17e;" horiz-adv-x="1091" 
d="M227 883l25 141h913l-14 -90l-821 -795h694l-20 -139h-932l18 106l801 777h-664zM477 1362l74 74l184 -172l254 174l60 -76l-295 -248h-60z" />
    <glyph glyph-name="longs" unicode="&#x17f;" horiz-adv-x="692" 
d="M119 0l172 1083q22 153 137 248q123 107 315 107q203 0 351 -105l-78 -106q-132 69 -283 69q-128 0 -196 -59q-65 -53 -80 -156l-172 -1081h-166z" />
    <glyph glyph-name="florin" unicode="&#x192;" horiz-adv-x="899" 
d="M53 -367l-24 121q86 27 133 80q53 66 69 158l142 891h-187l19 118l188 17l10 65q29 156 140 248q120 107 313 107q207 0 350 -107l-78 -104q-130 69 -280 69q-134 0 -201 -61q-63 -57 -78 -154l-8 -57h434l-20 -123l-436 -16l-142 -893q-25 -166 -143 -268
q-81 -66 -201 -91z" />
    <glyph glyph-name="uni0200" unicode="&#x200;" horiz-adv-x="1456" 
d="M801 1229h225l360 -1229h-174l-71 240h-766l-148 -240h-178zM872 1073l-413 -690h643l-193 690h-37zM836 1714l79 -346l-112 -29l-119 326zM961 1710l51 -344l-115 -31l-88 330z" />
    <glyph glyph-name="uni0201" unicode="&#x201;" horiz-adv-x="1267" 
d="M1305 1024l-117 -737q-10 -78 -10 -131q0 -76 18 -136l-106 -30q-51 48 -64 129q-177 -137 -420 -137q-203 0 -319 98q-142 110 -142 338q0 145 52.5 268t150.5 211q161 145 410 145q248 0 379 -120l51 102h117zM1014 244l90 555q-76 56 -160.5 80t-202.5 24
q-175 0 -290 -115q-140 -134 -140 -352q0 -163 99 -243q83 -68 231 -68q209 0 373 119zM762 1468l67 -323l-102 -27l-115 307zM883 1475l43 -322l-105 -20l-82 305z" />
    <glyph glyph-name="uni0202" unicode="&#x202;" horiz-adv-x="1456" 
d="M801 1229h225l360 -1229h-174l-71 240h-766l-148 -240h-178zM872 1073l-413 -690h643l-193 690h-37zM698 1317l-55 72l303 256h58l223 -256l-78 -72l-191 178z" />
    <glyph glyph-name="uni0203" unicode="&#x203;" horiz-adv-x="1267" 
d="M1305 1024l-117 -737q-10 -78 -10 -131q0 -76 18 -136l-106 -30q-51 48 -64 129q-177 -137 -420 -137q-203 0 -319 98q-142 110 -142 338q0 145 52.5 268t150.5 211q161 145 410 145q248 0 379 -120l51 102h117zM1014 244l90 555q-76 56 -160.5 80t-202.5 24
q-175 0 -290 -115q-140 -134 -140 -352q0 -163 99 -243q83 -68 231 -68q209 0 373 119zM1100 1186l-76 -72l-195 170l-245 -170l-58 74l295 248h55z" />
    <glyph glyph-name="uni0204" unicode="&#x204;" horiz-adv-x="1222" 
d="M121 0l194 1229h975l-24 -144h-803l-60 -364h717l-20 -143h-719l-68 -435h832l-23 -143h-1001zM788 1714l80 -346l-112 -29l-119 326zM913 1710l52 -344l-115 -31l-88 330z" />
    <glyph glyph-name="uni0205" unicode="&#x205;" horiz-adv-x="1200" 
d="M1014 172l22 -123q-168 -67 -409 -67q-121 0 -219.5 34.5t-159.5 100.5q-50 53 -77.5 134t-27.5 171q0 145 57 269.5t160 209.5q171 141 420 141q188 0 299 -63q70 -40 104 -97t34 -139q0 -72 -39.5 -133t-104.5 -92q-108 -50 -247 -69t-324 -19q-106 0 -191 14
q0 -155 68 -229q88 -94 287 -94q180 0 348 51zM328 563q239 0 375.5 10.5t226.5 38.5q72 20 100.5 51.5t28.5 88.5q0 67 -72 112q-65 39 -215 39q-179 0 -297 -92q-110 -86 -147 -248zM741 1468l68 -323l-102 -27l-115 307zM862 1475l43 -322l-104 -20l-82 305z" />
    <glyph glyph-name="uni0206" unicode="&#x206;" horiz-adv-x="1222" 
d="M121 0l194 1229h975l-24 -144h-803l-60 -364h717l-20 -143h-719l-68 -435h832l-23 -143h-1001zM590 1317l-55 72l303 256h57l223 -256l-78 -72l-190 178z" />
    <glyph glyph-name="uni0207" unicode="&#x207;" horiz-adv-x="1200" 
d="M1014 172l22 -123q-168 -67 -409 -67q-121 0 -219.5 34.5t-159.5 100.5q-50 53 -77.5 134t-27.5 171q0 145 57 269.5t160 209.5q171 141 420 141q188 0 299 -63q70 -40 104 -97t34 -139q0 -72 -39.5 -133t-104.5 -92q-108 -50 -247 -69t-324 -19q-106 0 -191 14
q0 -155 68 -229q88 -94 287 -94q180 0 348 51zM328 563q239 0 375.5 10.5t226.5 38.5q72 20 100.5 51.5t28.5 88.5q0 67 -72 112q-65 39 -215 39q-179 0 -297 -92q-110 -86 -147 -248zM1088 1186l-76 -72l-195 170l-245 -170l-58 74l295 248h55z" />
    <glyph glyph-name="uni0208" unicode="&#x208;" horiz-adv-x="432" 
d="M315 1229h170l-194 -1229h-170zM360 1714l80 -346l-112 -29l-119 326zM485 1710l52 -344l-115 -31l-88 330z" />
    <glyph glyph-name="uni0209" unicode="&#x209;" horiz-adv-x="471" 
d="M184 909l19 115h291l-162 -1024h-166l141 897zM348 1468l68 -323l-103 -27l-114 307zM469 1475l43 -322l-104 -20l-82 305z" />
    <glyph glyph-name="uni020A" unicode="&#x20a;" horiz-adv-x="432" 
d="M315 1229h170l-194 -1229h-170zM186 1317l-55 72l303 256h58l223 -256l-78 -72l-191 178z" />
    <glyph glyph-name="uni020B" unicode="&#x20b;" horiz-adv-x="567" 
d="M238 909l18 115h291l-162 -1024h-166l141 897zM760 1186l-76 -72l-195 170l-245 -170l-58 74l295 248h56z" />
    <glyph glyph-name="uni020C" unicode="&#x20c;" horiz-adv-x="1425" 
d="M1174 1004q-104 104 -293 104q-220 0 -361 -125q-192 -172 -192 -475q0 -174 88 -275q103 -112 301 -112q236 0 381 145q86 85 130 207.5t44 259.5q0 173 -98 271zM154 492q0 169 64 323t190 264q197 172 491 172q258 0 404 -143q141 -138 141 -358q0 -161 -56.5 -314
t-168.5 -264q-201 -195 -521 -195q-259 0 -407 142q-137 128 -137 373zM872 1714l80 -346l-112 -29l-119 326zM997 1710l52 -344l-115 -31l-88 330z" />
    <glyph glyph-name="uni020D" unicode="&#x20d;" horiz-adv-x="1239" 
d="M776 1042q216 0 340 -112q131 -118 131 -332q0 -305 -223 -487q-160 -129 -416 -129q-227 0 -354 133q-117 120 -117 313q0 285 207 469q164 145 432 145zM754 903q-187 0 -301 -102q-148 -136 -148 -359q0 -138 74 -225q81 -96 254 -96q178 0 293 94q155 134 155 367
q0 149 -77 235q-86 86 -250 86zM750 1468l67 -323l-102 -27l-115 307zM870 1475l43 -322l-104 -20l-82 305z" />
    <glyph glyph-name="uni020E" unicode="&#x20e;" horiz-adv-x="1425" 
d="M1174 1004q-104 104 -293 104q-220 0 -361 -125q-192 -172 -192 -475q0 -174 88 -275q103 -112 301 -112q236 0 381 145q86 85 130 207.5t44 259.5q0 173 -98 271zM154 492q0 169 64 323t190 264q197 172 491 172q258 0 404 -143q141 -138 141 -358q0 -161 -56.5 -314
t-168.5 -264q-201 -195 -521 -195q-259 0 -407 142q-137 128 -137 373zM684 1317l-55 72l303 256h57l223 -256l-77 -72l-191 178z" />
    <glyph glyph-name="uni020F" unicode="&#x20f;" horiz-adv-x="1239" 
d="M776 1042q216 0 340 -112q131 -118 131 -332q0 -305 -223 -487q-160 -129 -416 -129q-227 0 -354 133q-117 120 -117 313q0 285 207 469q164 145 432 145zM754 903q-187 0 -301 -102q-148 -136 -148 -359q0 -138 74 -225q81 -96 254 -96q178 0 293 94q155 134 155 367
q0 149 -77 235q-86 86 -250 86zM1090 1186l-76 -72l-195 170l-245 -170l-58 74l295 248h55z" />
    <glyph glyph-name="uni0210" unicode="&#x210;" horiz-adv-x="1255" 
d="M315 1229h574q220 0 328 -105q92 -95 92 -245q0 -185 -121 -316q-92 -100 -238 -147l195 -416h-182l-175 387h-436l-61 -387h-170zM463 1085l-88 -555h399q165 0 264 99q99 93 99 239q0 107 -58 162t-211 55h-405zM741 1714l80 -346l-112 -29l-119 326zM866 1710l52 -344
l-115 -31l-88 330z" />
    <glyph glyph-name="uni0211" unicode="&#x211;" horiz-adv-x="1097" 
d="M285 1024h112l23 -113q173 131 397 131q229 0 352 -102l-94 -119q-116 80 -287 80q-107 0 -194.5 -28.5t-181.5 -94.5l-123 -778h-166zM737 1468l68 -323l-103 -27l-114 307zM858 1475l43 -322l-104 -20l-82 305z" />
    <glyph glyph-name="uni0212" unicode="&#x212;" horiz-adv-x="1255" 
d="M315 1229h574q220 0 328 -105q92 -95 92 -245q0 -185 -121 -316q-92 -100 -238 -147l195 -416h-182l-175 387h-436l-61 -387h-170zM463 1085l-88 -555h399q165 0 264 99q99 93 99 239q0 107 -58 162t-211 55h-405zM563 1317l-55 72l303 256h57l224 -256l-78 -72l-191 178
z" />
    <glyph glyph-name="uni0213" unicode="&#x213;" horiz-adv-x="1097" 
d="M285 1024h112l23 -113q173 131 397 131q229 0 352 -102l-94 -119q-116 80 -287 80q-107 0 -194.5 -28.5t-181.5 -94.5l-123 -778h-166zM1067 1186l-76 -72l-195 170l-245 -170l-58 74l295 248h55z" />
    <glyph glyph-name="uni0214" unicode="&#x214;" horiz-adv-x="1368" 
d="M315 1229h170l-110 -707q-10 -62 -10 -106q0 -125 63 -201q81 -94 264 -94q175 0 293 98q61 52 100.5 133t61.5 217l106 660h168l-110 -703q-43 -268 -211 -411q-170 -138 -430 -138q-249 0 -375 132q-100 106 -100 290q0 73 10 127zM809 1649l80 -346l-113 -29l-119 325
zM934 1645l51 -345l-115 -30l-88 329z" />
    <glyph glyph-name="uni0215" unicode="&#x215;" horiz-adv-x="1275" 
d="M283 1024h166l-89 -551q-8 -55 -8 -104q0 -128 60 -185q63 -63 217 -63q108 0 196.5 29.5t184.5 97.5l120 776h168l-161 -1024h-115l-23 113q-174 -131 -401 -131q-215 0 -317 94q-99 89 -99 258q0 55 13 135zM745 1427l68 -323l-102 -27l-115 307zM866 1434l43 -322
l-104 -20l-82 305z" />
    <glyph glyph-name="uni0216" unicode="&#x216;" horiz-adv-x="1368" 
d="M315 1229h170l-110 -707q-10 -62 -10 -106q0 -125 63 -201q81 -94 264 -94q175 0 293 98q61 52 100.5 133t61.5 217l106 660h168l-110 -703q-43 -268 -211 -411q-170 -138 -430 -138q-249 0 -375 132q-100 106 -100 290q0 73 10 127zM651 1280l-55 72l303 256h57
l224 -256l-78 -72l-191 178z" />
    <glyph glyph-name="Scommaaccent" unicode="&#x218;" horiz-adv-x="1296" 
d="M1294 1167l-67 -129q-195 68 -402 68q-130 0 -218.5 -11t-143.5 -48q-78 -53 -78 -150q0 -68 54.5 -100.5t154.5 -46.5l289 -37q192 -28 295 -111q92 -75 92 -192q0 -202 -172 -316q-176 -117 -525 -117q-263 0 -485 89l49 141q230 -80 471 -80q261 0 387 84
q50 34 75.5 73t25.5 97q0 37 -15 65.5t-37.5 46t-58.5 30.5t-69 20t-78 12l-312 41q-165 22 -247 104q-70 70 -70 181q0 88 42.5 158.5t119.5 117.5q81 50 192.5 72t278.5 22q244 0 452 -84zM483 -453l49 140q-28 7 -43.5 29.5t-15.5 52.5q0 54 36 91.5t93 37.5q48 0 74 -24
t26 -64q0 -34 -20 -74l-117 -209z" />
    <glyph glyph-name="scommaaccent" unicode="&#x219;" horiz-adv-x="1150" 
d="M1145 969l-53 -125q-177 59 -369 59q-228 0 -309 -47q-62 -40 -62 -100t41 -86q43 -28 135 -37l273 -35q172 -19 250 -92q65 -62 65 -160q0 -184 -166 -278q-149 -86 -440 -86q-127 0 -224 18.5t-190 62.5l60 127q179 -69 370 -69q137 0 217.5 15.5t130.5 51.5
q76 56 76 129q0 58 -32 86q-38 35 -156 50l-279 32q-176 20 -245 101q-52 58 -52 149q0 65 32 120t89 93q74 52 173.5 73t254.5 21q218 0 410 -73zM406 -434l47 139q-28 6 -43 27.5t-15 52.5q0 55 35.5 91t91.5 36q48 0 74.5 -24t26.5 -62q0 -30 -21 -72l-117 -207z" />
    <glyph glyph-name="uni021A" unicode="&#x21a;" horiz-adv-x="1306" 
d="M221 1085l25 144h1188l-25 -144h-510l-170 -1085h-170l170 1085h-508zM506 -430l49 139q-28 7 -43.5 29.5t-15.5 52.5q0 54 36 91.5t93 37.5q48 0 74 -24t26 -64q0 -34 -20 -74l-117 -209z" />
    <glyph glyph-name="uni021B" unicode="&#x21b;" horiz-adv-x="933" 
d="M178 883l19 118l192 19l68 246h133l-37 -242h446l-20 -121l-451 -18l-86 -553q-6 -30 -6 -60q0 -149 189 -149q75 0 139 15t143 52l35 -112q-88 -52 -173.5 -74t-188.5 -22q-181 0 -258 90q-54 66 -54 174q0 38 6 84l88 553h-184zM436 -444l47 139q-57 12 -57 80
q0 55 35.5 91t91.5 36q48 0 74 -24t26 -62q0 -32 -20 -72l-117 -207z" />
    <glyph glyph-name="dotlessj" unicode="&#x237;" horiz-adv-x="471" 
d="M184 909l19 115h291l-166 -1040q-26 -169 -138 -267q-117 -104 -307 -104q-95 0 -166.5 21t-144.5 69l74 117q65 -36 120.5 -50t131.5 -14q113 0 184 64q64 58 80 164l145 913z" />
    <glyph glyph-name="circumflex" unicode="&#x2c6;" horiz-adv-x="819" 
d="M881 1186l-76 -72l-195 170l-245 -170l-58 74l295 248h55z" />
    <glyph glyph-name="caron" unicode="&#x2c7;" horiz-adv-x="817" 
d="M334 1362l74 74l184 -172l254 174l59 -76l-295 -248h-59z" />
    <glyph glyph-name="uni02C9" unicode="&#x2c9;" horiz-adv-x="727" 
d="M242 1448h669l-20 -127h-668z" />
    <glyph glyph-name="breve" unicode="&#x2d8;" horiz-adv-x="745" 
d="M336 1350l121 14q0 -49 18 -76q19 -37 84 -37t96 31q36 32 50 82l124 -14q-29 -105 -96 -160q-72 -60 -182 -60q-108 0 -164 66q-48 54 -51 154z" />
    <glyph glyph-name="dotaccent" unicode="&#x2d9;" horiz-adv-x="462" 
d="M258 193q45 0 70.5 -23t25.5 -61q0 -52 -35.5 -86.5t-93.5 -34.5q-44 0 -68 22.5t-24 59.5q0 52 34.5 87.5t90.5 35.5z" />
    <glyph glyph-name="ring" unicode="&#x2da;" horiz-adv-x="661" 
d="M504 1141q-88 0 -137 55q-41 47 -41 119q0 103 82 176q66 57 163 57q84 0 136 -55q43 -50 43 -109q0 -116 -82 -186q-66 -54 -164 -57zM520 1239q53 0 84 31q39 36 39 98q0 37 -24.5 61.5t-65.5 24.5q-48 0 -84 -31q-41 -30 -41 -94q0 -42 23.5 -66t68.5 -24z" />
    <glyph glyph-name="ogonek" unicode="&#x2db;" horiz-adv-x="487" 
d="M240 23l61 -31q-27 -16 -45 -41q-25 -36 -25 -82q0 -39 19 -68q20 -32 74 -61l-50 -72q-91 21 -137 74q-33 39 -33 94q0 67 39 115t97 72z" />
    <glyph glyph-name="tilde" unicode="&#x2dc;" horiz-adv-x="917" 
d="M633 1182q-72 35 -139 35q-77 0 -142 -39l-39 77q104 82 209 82q62 0 137 -32q72 -35 142 -35q74 0 141 45l39 -78q-93 -86 -205 -86q-70 0 -143 31z" />
    <glyph glyph-name="hungarumlaut" unicode="&#x2dd;" horiz-adv-x="718" 
d="M303 1165l115 308l137 -54l-160 -289zM514 1169l166 301l127 -61l-199 -281z" />
    <glyph glyph-name="afii10023" unicode="&#x401;" horiz-adv-x="1222" 
d="M121 0l194 1229h975l-24 -144h-803l-60 -364h717l-20 -143h-719l-68 -435h832l-23 -143h-1001zM649 1567q53 0 81 -26.5t28 -70.5q0 -57 -41 -97t-105 -40q-50 0 -78 25.5t-28 66.5q0 61 40.5 101.5t102.5 40.5zM1075 1567q53 0 81 -26.5t28 -70.5q0 -57 -41 -97
t-105 -40q-50 0 -78 25.5t-28 66.5q0 61 39.5 101.5t103.5 40.5z" />
    <glyph glyph-name="afii10051" unicode="&#x402;" horiz-adv-x="1597" 
d="M223 1092l23 137h1014l-23 -137h-424l-41 -269q178 125 377 125q117 0 191 -26t126 -84q78 -87 78 -242q0 -62 -12 -135l-53 -344q-24 -146 -83.5 -245t-181.5 -183l-79 71q80 78 117.5 155t56.5 194l53 348q12 65 12 112q0 122 -65 181q-61 55 -193 55
q-101 0 -187.5 -29.5t-178.5 -95.5l-109 -680h-170l172 1092h-420z" />
    <glyph glyph-name="afii10052" unicode="&#x403;" horiz-adv-x="1163" 
d="M121 0l194 1229h942l-22 -144h-772l-170 -1085h-172zM780 1382l174 310l131 -78l-206 -287z" />
    <glyph glyph-name="afii10053" unicode="&#x404;" horiz-adv-x="1280" 
d="M1024 723l-20 -145h-670q-6 -47 -4 -80q3 -151 88 -246q122 -131 381 -131q191 0 377 74l34 -127q-200 -91 -438 -91q-318 0 -483 162q-133 130 -133 365q0 173 70 328t210 260q209 159 537 159q243 0 411 -88l-75 -125q-160 70 -353 70q-262 0 -421 -127
q-125 -101 -173 -258h662z" />
    <glyph glyph-name="afii10054" unicode="&#x405;" horiz-adv-x="1296" 
d="M1294 1167l-67 -129q-195 68 -402 68q-130 0 -218.5 -11t-143.5 -48q-78 -53 -78 -150q0 -68 54.5 -100.5t154.5 -46.5l289 -37q192 -28 295 -111q92 -75 92 -192q0 -202 -172 -316q-176 -117 -525 -117q-263 0 -485 89l49 141q230 -80 471 -80q261 0 387 84
q50 34 75.5 73t25.5 97q0 37 -15 65.5t-37.5 46t-58.5 30.5t-69 20t-78 12l-312 41q-165 22 -247 104q-70 70 -70 181q0 88 42.5 158.5t119.5 117.5q81 50 192.5 72t278.5 22q244 0 452 -84z" />
    <glyph glyph-name="uni0406" unicode="&#x406;" horiz-adv-x="432" 
d="M315 1229h170l-194 -1229h-170z" />
    <glyph glyph-name="afii10056" unicode="&#x407;" horiz-adv-x="432" 
d="M315 1229h170l-194 -1229h-170zM244 1567q52 0 80 -26.5t28 -70.5q0 -57 -40.5 -97t-104.5 -40q-50 0 -78.5 25.5t-28.5 66.5q0 61 41 101.5t103 40.5zM670 1567q52 0 80 -26.5t28 -70.5q0 -57 -40.5 -97t-104.5 -40q-50 0 -78.5 25.5t-28.5 66.5q0 61 40 101.5t104 40.5
z" />
    <glyph glyph-name="afii10057" unicode="&#x408;" horiz-adv-x="1034" 
d="M918 1229h169l-106 -672q-27 -166 -78 -271t-129 -171q-166 -138 -448 -138q-148 0 -289 58l51 127q116 -41 254 -41q212 0 320 96q109 95 147 320z" />
    <glyph glyph-name="afii10058" unicode="&#x409;" horiz-adv-x="2185" 
d="M635 1229h831l-61 -387h381q231 0 330 -144q53 -80 53 -202q0 -106 -41.5 -203.5t-126.5 -169.5q-139 -123 -352 -123h-547l172 1085h-514l-248 -831q-38 -126 -123 -195q-90 -69 -217 -69q-88 0 -162 24l47 127q55 -12 97 -12q83 0 125 39q51 42 79 139zM1382 698
l-88 -555h357q159 0 252 90q98 88 98 238q0 72 -31 125q-52 102 -223 102h-365z" />
    <glyph glyph-name="afii10059" unicode="&#x40a;" horiz-adv-x="2099" 
d="M315 1229h170l-79 -500h727l79 500h168l-61 -387h381q115 0 199.5 -37.5t130.5 -106.5q53 -80 53 -200q0 -105 -43 -203.5t-127 -171.5q-142 -123 -350 -123h-545l92 586h-727l-92 -586h-170zM1296 698l-88 -555h357q66 0 130 23t107 61q52 45 82.5 109.5t30.5 136.5
q0 67 -29 123q-56 102 -223 102h-367z" />
    <glyph glyph-name="afii10060" unicode="&#x40b;" horiz-adv-x="1597" 
d="M244 1229h1013l-22 -137h-424l-41 -269q178 125 377 125q116 0 191 -26.5t126 -83.5q78 -87 78 -242q0 -62 -12 -135l-72 -461h-170l72 457q10 54 10 112q0 104 -45 158q-34 41 -83.5 59.5t-127.5 18.5q-102 0 -187.5 -29.5t-178.5 -95.5l-109 -680h-170l172 1092h-420z
" />
    <glyph glyph-name="afii10061" unicode="&#x40c;" horiz-adv-x="1312" 
d="M315 1229h170l-82 -504h322l285 360q75 96 161 134q55 22 148 22q53 0 102 -8l-35 -131h-34q-75 0 -117 -19q-46 -19 -90 -75l-279 -346l355 -662h-199l-301 582h-338l-92 -582h-170zM745 1382l175 310l131 -78l-207 -287z" />
    <glyph glyph-name="afii10062" unicode="&#x40e;" horiz-adv-x="1368" 
d="M1298 1229h195l-715 -1032q-73 -112 -145 -156q-76 -51 -187 -51q-67 0 -108 10l27 131h57q72 0 108 21q51 28 115 124l-401 953h192l314 -809h12zM635 1575l125 16q0 -57 26 -94q28 -41 99 -41q80 0 125 37q45 39 67 100l129 -18q-39 -124 -112 -180q-81 -66 -211 -66
q-123 0 -191 74q-57 70 -57 172z" />
    <glyph glyph-name="afii10145" unicode="&#x40f;" horiz-adv-x="1341" 
d="M1204 0h-454l-62 -256h-129l21 256h-457l194 1229h170l-172 -1086h740l174 1086h170z" />
    <glyph glyph-name="afii10017" unicode="&#x410;" horiz-adv-x="1456" 
d="M801 1229h225l360 -1229h-174l-71 240h-766l-148 -240h-178zM872 1073l-413 -690h643l-193 690h-37z" />
    <glyph glyph-name="afii10018" unicode="&#x411;" horiz-adv-x="1259" 
d="M315 1229h908l-23 -144h-739l-41 -258h438q221 0 320 -129q65 -77 65 -206q0 -104 -40 -198.5t-116 -164.5q-141 -129 -380 -129h-586zM397 686l-86 -543h410q159 0 252 84q100 94 100 236q0 95 -41 147q-57 76 -194 76h-441z" />
    <glyph glyph-name="afii10019" unicode="&#x412;" horiz-adv-x="1302" 
d="M315 1229h623q188 0 281 -90q67 -64 67 -168q0 -97 -43 -170q-48 -78 -127 -121v-12q72 -28 115 -94t43 -150q0 -85 -35 -162t-96 -135q-140 -127 -346 -127h-676zM383 594l-72 -455h469q152 0 242 80q84 74 84 195q0 180 -221 180h-502zM463 1090l-57 -359h493
q49 0 92.5 17.5t69.5 48.5q55 58 55 143q0 150 -194 150h-459z" />
    <glyph glyph-name="afii10020" unicode="&#x413;" horiz-adv-x="1163" 
d="M121 0l194 1229h942l-22 -144h-772l-170 -1085h-172z" />
    <glyph glyph-name="afii10021" unicode="&#x414;" horiz-adv-x="1449" 
d="M573 1229h883l-172 -1086h119l-62 -397h-137l15 254h-1008l-66 -254h-133l60 395h34q73 0 117 33q54 45 82 145zM692 1085l-241 -815q-23 -76 -64 -127h727l152 942h-574z" />
    <glyph glyph-name="afii10022" unicode="&#x415;" horiz-adv-x="1222" 
d="M121 0l194 1229h975l-24 -144h-803l-60 -364h717l-20 -143h-719l-68 -435h832l-23 -143h-1001z" />
    <glyph glyph-name="afii10024" unicode="&#x416;" horiz-adv-x="1912" 
d="M1057 1229h170l-82 -504h252l243 356q61 86 134 127q57 33 141 33q64 0 119 -8l-35 -129h-47q-56 0 -101 -25q-38 -23 -75 -71l-244 -344l299 -664h-186l-250 582h-273l-90 -582h-170l92 582h-260l-440 -582h-193l508 664l-133 344q-18 52 -59 75q-40 21 -86 21h-47
l6 129q52 8 119 8q81 0 127 -33q58 -40 90 -131l131 -352h260z" />
    <glyph glyph-name="afii10025" unicode="&#x417;" horiz-adv-x="1296" 
d="M444 758h441q95 0 157 59q56 56 56 135q0 76 -51 109q-74 53 -289 53q-190 0 -418 -76l-31 119q225 94 490 94q306 0 411 -114q60 -63 60 -158q0 -108 -62 -184q-37 -50 -96 -82v-8q88 -39 129 -113q31 -57 31 -139q0 -104 -51.5 -199t-147.5 -160q-177 -117 -469 -117
q-321 0 -530 113l73 129q120 -52 231 -74t243 -22q221 0 348 80q131 86 131 233q0 66 -31 111q-55 71 -172 71h-473z" />
    <glyph glyph-name="afii10026" unicode="&#x418;" horiz-adv-x="1390" 
d="M485 1229l-157 -987l948 987h170l-195 -1229h-170l156 985l-944 -985h-172l194 1229h170z" />
    <glyph glyph-name="afii10027" unicode="&#x419;" horiz-adv-x="1390" 
d="M485 1229l-157 -987l948 987h170l-195 -1229h-170l156 985l-944 -985h-172l194 1229h170zM647 1575l125 16q0 -55 27 -94q28 -41 98 -41q80 0 125 37q47 40 68 100l129 -18q-38 -123 -113 -180q-81 -66 -211 -66q-122 0 -190 74q-58 71 -58 172z" />
    <glyph glyph-name="afii10028" unicode="&#x41a;" horiz-adv-x="1312" 
d="M315 1229h170l-82 -504h322l285 360q75 96 161 134q55 22 148 22q53 0 102 -8l-35 -131h-34q-75 0 -117 -19q-46 -19 -90 -75l-279 -346l355 -662h-199l-301 582h-338l-92 -582h-170z" />
    <glyph glyph-name="afii10029" unicode="&#x41b;" horiz-adv-x="1449" 
d="M635 1229h868l-194 -1229h-170l172 1085h-551l-248 -831q-39 -127 -123 -195q-90 -69 -217 -69q-88 0 -162 24l47 127q65 -14 97 -14q81 0 125 41q51 42 79 139z" />
    <glyph glyph-name="afii10030" unicode="&#x41c;" horiz-adv-x="1658" 
d="M315 1229h252l277 -1063l608 1063h260l-194 -1229h-168l163 1026h-10l-588 -1026h-196l-268 1026h-11l-159 -1026h-160z" />
    <glyph glyph-name="afii10031" unicode="&#x41d;" horiz-adv-x="1363" 
d="M1247 1229h170l-194 -1229h-170l92 586h-762l-90 -586h-172l194 1229h172l-79 -500h759z" />
    <glyph glyph-name="afii10032" unicode="&#x41e;" horiz-adv-x="1425" 
d="M1174 1004q-104 104 -293 104q-220 0 -361 -125q-192 -172 -192 -475q0 -174 88 -275q103 -112 301 -112q236 0 381 145q86 85 130 207.5t44 259.5q0 173 -98 271zM154 492q0 169 64 323t190 264q197 172 491 172q258 0 404 -143q141 -138 141 -358q0 -161 -56.5 -314
t-168.5 -264q-201 -195 -521 -195q-259 0 -407 142q-137 128 -137 373z" />
    <glyph glyph-name="afii10033" unicode="&#x41f;" horiz-adv-x="1359" 
d="M315 1229h1098l-194 -1229h-170l170 1085h-756l-172 -1085h-170z" />
    <glyph glyph-name="afii10034" unicode="&#x420;" horiz-adv-x="1261" 
d="M315 1229h584q198 0 311 -113q93 -96 93 -246q0 -119 -44 -218.5t-126 -168.5q-155 -133 -400 -133h-387l-55 -350h-170zM463 1085l-94 -591h374q168 0 271 86q116 96 116 278q0 113 -57 164q-66 63 -211 63h-399z" />
    <glyph glyph-name="afii10035" unicode="&#x421;" horiz-adv-x="1290" 
d="M1384 1163l-75 -123q-155 68 -353 68q-242 0 -403 -123q-104 -76 -162.5 -193t-58.5 -255q0 -178 96 -279q128 -137 365 -137q202 0 395 80l39 -129q-110 -49 -217.5 -72t-245.5 -23q-308 0 -477 177q-61 65 -96 159t-35 205q0 175 77.5 328.5t225.5 255.5
q211 149 514 149q247 0 411 -88z" />
    <glyph glyph-name="afii10036" unicode="&#x422;" horiz-adv-x="1306" 
d="M221 1085l25 144h1188l-25 -144h-510l-170 -1085h-170l170 1085h-508z" />
    <glyph glyph-name="afii10037" unicode="&#x423;" horiz-adv-x="1368" 
d="M1298 1229h195l-715 -1032q-73 -112 -145 -156q-76 -51 -187 -51q-67 0 -108 10l27 131h57q72 0 108 21q51 28 115 124l-401 953h192l314 -809h12z" />
    <glyph glyph-name="afii10038" unicode="&#x424;" horiz-adv-x="1765" 
d="M985 1251h170l-25 -155h209q238 0 355 -135q86 -99 86 -254q0 -123 -48.5 -238.5t-142.5 -196.5q-155 -131 -385 -131h-223l-23 -141h-170l23 141h-211q-239 0 -354 133q-88 94 -88 254q0 120 47 230.5t137 191.5q165 146 410 146h211zM938 954h-217q-165 0 -268 -96
q-59 -58 -92 -137.5t-33 -167.5q0 -113 51 -176q78 -94 235 -94h217zM1108 954l-107 -671h213q154 0 252 82q69 55 106.5 139t37.5 180q0 100 -43 164q-73 106 -256 106h-203z" />
    <glyph glyph-name="afii10039" unicode="&#x425;" horiz-adv-x="1310" 
d="M473 1229l283 -498l430 498h205l-527 -600l377 -629h-205l-311 545l-467 -545h-209l572 649l-351 580h203z" />
    <glyph glyph-name="afii10040" unicode="&#x426;" horiz-adv-x="1378" 
d="M123 0l194 1229h170l-172 -1086h734l174 1086h170l-172 -1086h112l-61 -397h-137l12 254h-1024z" />
    <glyph glyph-name="afii10041" unicode="&#x427;" horiz-adv-x="1325" 
d="M1184 0h-170l63 416q-186 -117 -397 -117q-257 0 -379 125q-100 105 -100 283q0 63 12 137l61 385h170l-59 -373q-10 -54 -10 -119q0 -133 63 -202q84 -93 273 -93q209 0 391 117l106 670h170z" />
    <glyph glyph-name="afii10042" unicode="&#x428;" horiz-adv-x="1906" 
d="M121 0l194 1229h168l-172 -1086h570l172 1086h170l-174 -1086h569l174 1086h168l-195 -1229h-1644z" />
    <glyph glyph-name="afii10043" unicode="&#x429;" horiz-adv-x="1947" 
d="M123 0l194 1229h168l-172 -1086h570l172 1086h168l-172 -1086h569l172 1086h170l-174 -1086h113l-62 -397h-135l12 254h-1593z" />
    <glyph glyph-name="afii10044" unicode="&#x42a;" horiz-adv-x="1404" 
d="M213 1229h436l-61 -387h416q231 0 327 -137q58 -80 58 -203q0 -100 -36.5 -190.5t-105.5 -157.5q-70 -73 -170 -113.5t-217 -40.5h-575l170 1087l-262 15zM563 698l-88 -555h395q162 0 256 101q91 91 91 233q0 92 -37 137q-57 84 -213 84h-404z" />
    <glyph glyph-name="afii10045" unicode="&#x42b;" horiz-adv-x="1593" 
d="M1282 0l195 1229h170l-195 -1229h-170zM315 1229h170l-61 -387h418q234 0 329 -144q54 -82 54 -194q0 -108 -41.5 -208.5t-124.5 -172.5q-139 -123 -354 -123h-584zM401 698l-88 -555h377q169 0 256 78q52 44 81.5 113t29.5 145q0 63 -29 123q-54 96 -223 96h-404z" />
    <glyph glyph-name="afii10046" unicode="&#x42c;" horiz-adv-x="1241" 
d="M315 1229h170l-61 -387h418q234 0 329 -144q54 -82 54 -194q0 -108 -41.5 -208.5t-124.5 -172.5q-139 -123 -354 -123h-584zM401 698l-88 -555h377q169 0 256 78q52 44 81.5 113t29.5 145q0 61 -29 121q-55 98 -223 98h-404z" />
    <glyph glyph-name="afii10047" unicode="&#x42d;" horiz-adv-x="1280" 
d="M440 578l21 145h663q-3 165 -88 260q-113 125 -381 125q-189 0 -376 -70l-35 125q196 88 438 88q330 0 485 -161q62 -62 95.5 -156t33.5 -203q0 -176 -71 -335t-211 -263q-210 -156 -535 -156q-240 0 -409 91l71 127q151 -68 357 -68q266 0 424 125q139 111 190 326h-672
z" />
    <glyph glyph-name="afii10048" unicode="&#x42e;" horiz-adv-x="1802" 
d="M315 1229h170l-84 -531h230q62 250 227 392q182 161 455 161t405 -159q103 -125 103 -330q0 -163 -53.5 -318t-161.5 -268q-190 -199 -494 -199q-270 0 -405 158q-109 133 -109 332q0 43 6 86h-225l-88 -553h-170zM1133 121q227 0 364 155q77 88 116.5 213t39.5 259
q0 155 -76 247q-88 113 -287 113q-207 0 -338 -125q-90 -88 -135 -221.5t-45 -278.5q0 -146 66 -237q89 -125 295 -125z" />
    <glyph glyph-name="afii10049" unicode="&#x42f;" horiz-adv-x="1320" 
d="M1376 1229l-194 -1229h-170l59 387h-489l-291 -387h-201l326 412q-105 35 -170 129q-68 99 -68 219q0 206 150 340q147 129 391 129h657zM1182 1085h-475q-178 0 -269 -88q-88 -85 -88 -223q0 -102 56 -168q64 -76 204 -76h484z" />
    <glyph glyph-name="afii10065" unicode="&#x430;" horiz-adv-x="1267" 
d="M1305 1024l-117 -737q-10 -78 -10 -131q0 -76 18 -136l-106 -30q-51 48 -64 129q-177 -137 -420 -137q-203 0 -319 98q-142 110 -142 338q0 145 52.5 268t150.5 211q161 145 410 145q248 0 379 -120l51 102h117zM1014 244l90 555q-76 56 -160.5 80t-202.5 24
q-175 0 -290 -115q-140 -134 -140 -352q0 -163 99 -243q83 -68 231 -68q209 0 373 119z" />
    <glyph glyph-name="afii10066" unicode="&#x431;" horiz-adv-x="1236" 
d="M844 1376h119q98 0 156.5 8t121.5 37l41 -104q-85 -52 -162.5 -69t-220.5 -17h-80q-176 0 -287 -103q-95 -89 -145 -249q161 110 399 110q254 0 363 -127q82 -91 82 -258q0 -141 -48 -269.5t-149 -217.5q-163 -135 -432 -135q-266 0 -371 159q-77 113 -77 308
q0 214 62.5 420.5t197.5 340.5q163 166 430 166zM354 741q-37 -123 -37 -295q0 -142 56 -221q73 -102 252 -102q195 0 305 98q135 127 135 373q0 123 -57 180q-71 74 -248 74q-122 0 -214 -24.5t-192 -82.5z" />
    <glyph glyph-name="afii10067" unicode="&#x432;" horiz-adv-x="1163" 
d="M127 25l84 534q24 150 72.5 239.5t124.5 143.5q139 102 372 102q170 0 269 -77q79 -66 79 -166q0 -73 -34.5 -131t-102.5 -88l-2 -9q73 -27 115 -84q43 -56 43 -131q0 -87 -41.5 -163t-116.5 -123q-140 -90 -387 -90q-278 0 -475 43zM365 494l-58 -353q131 -24 299 -24
q375 0 375 233q0 37 -12.5 63.5t-33 42t-55 24.5t-69 11.5t-84.5 2.5h-362zM387 621h387q98 0 148 41q47 38 47 118q0 74 -59.5 103.5t-168.5 29.5q-172 0 -258 -77q-72 -69 -96 -215z" />
    <glyph glyph-name="afii10068" unicode="&#x433;" horiz-adv-x="1150" 
d="M311 850l-26 125q217 67 424 67q245 0 360 -69q102 -60 102 -180q0 -123 -75 -195q-83 -78 -277 -102l-287 -39q-148 -20 -204 -64q-54 -41 -54 -108q0 -68 48 -105q75 -57 305 -57q204 0 403 61l23 -135q-192 -67 -451 -67q-150 0 -247 20.5t-158 65.5q-97 73 -97 196
q0 131 99 217q63 52 139 78.5t194 40.5l261 31q113 14 160.5 46t47.5 101q0 61 -59 90q-37 19 -94.5 26t-161.5 7q-178 0 -375 -51z" />
    <glyph glyph-name="afii10069" unicode="&#x434;" horiz-adv-x="1236" 
d="M475 1452q175 0 305.5 -25.5t243.5 -93.5q122 -72 184 -195t62 -280q0 -440 -226 -688q-167 -188 -454 -188q-205 0 -330 104q-131 115 -131 313q0 258 174 424q169 164 455 164q204 0 348 -110q0 237 -199 354q-91 53 -192.5 71t-270.5 23zM1092 664q4 23 4 77
q-145 107 -357 107q-206 0 -323 -117q-119 -116 -119 -309q0 -142 90 -223q86 -76 209 -76q219 0 338 145q133 168 158 396z" />
    <glyph glyph-name="afii10070" unicode="&#x435;" horiz-adv-x="1200" 
d="M1014 172l22 -123q-168 -67 -409 -67q-121 0 -219.5 34.5t-159.5 100.5q-50 53 -77.5 134t-27.5 171q0 145 57 269.5t160 209.5q171 141 420 141q188 0 299 -63q70 -40 104 -97t34 -139q0 -72 -39.5 -133t-104.5 -92q-108 -50 -247 -69t-324 -19q-106 0 -191 14
q0 -155 68 -229q88 -94 287 -94q180 0 348 51zM328 563q239 0 375.5 10.5t226.5 38.5q72 20 100.5 51.5t28.5 88.5q0 67 -72 112q-65 39 -215 39q-179 0 -297 -92q-110 -86 -147 -248z" />
    <glyph glyph-name="afii10072" unicode="&#x436;" horiz-adv-x="1656" 
d="M901 1024h164l-64 -401h164l172 241q62 87 152 135q63 31 164 31q49 0 90 -8l-31 -131h-55q-56 0 -101 -23q-43 -22 -83 -75l-164 -220l274 -573h-188l-219 483h-197l-76 -483h-164l74 483h-190l-373 -483h-191l453 578l-94 215q-21 53 -62 77q-40 21 -104 21h-39l6 131
q44 8 92 8q97 0 146 -29q67 -37 110 -137l101 -241h168z" />
    <glyph glyph-name="afii10073" unicode="&#x437;" horiz-adv-x="1114" 
d="M367 623h335q104 0 164 51q49 36 49 108q0 53 -38 78q-60 45 -222 45q-193 0 -379 -63l-28 125q194 75 442 75q224 0 322 -75q71 -55 71 -156q0 -94 -59 -162q-43 -46 -92 -69v-9q55 -19 100 -67q49 -58 49 -142q0 -86 -45 -161t-125 -127q-148 -92 -403 -92
q-137 0 -242.5 20.5t-206.5 69.5l66 125q101 -40 196 -58t218 -18q179 0 278 59q42 27 68 72t26 96q0 56 -32 88q-55 51 -172 51h-361z" />
    <glyph glyph-name="afii10074" unicode="&#x438;" horiz-adv-x="1275" 
d="M283 1024h166l-89 -551q-8 -55 -8 -104q0 -128 60 -185q63 -63 217 -63q108 0 196.5 29.5t184.5 97.5l120 776h168l-161 -1024h-115l-23 113q-174 -131 -401 -131q-215 0 -317 94q-99 89 -99 258q0 55 13 135z" />
    <glyph glyph-name="afii10075" unicode="&#x439;" horiz-adv-x="1275" 
d="M283 1024h166l-89 -551q-8 -55 -8 -104q0 -128 60 -185q63 -63 217 -63q108 0 196.5 29.5t184.5 97.5l120 776h168l-161 -1024h-115l-23 113q-174 -131 -401 -131q-215 0 -317 94q-99 89 -99 258q0 55 13 135zM582 1350l121 14q0 -49 18 -76q19 -37 84 -37t96 31
q36 32 50 82l124 -14q-29 -105 -96 -160q-72 -60 -182 -60q-108 0 -164 66q-48 54 -51 154z" />
    <glyph glyph-name="afii10076" unicode="&#x43a;" horiz-adv-x="1200" 
d="M285 1024h166l-64 -401h318l176 241q77 107 170 142q60 24 145 24q46 0 90 -8l-33 -131h-26q-72 0 -127 -25q-41 -18 -86 -73l-168 -228l280 -565h-188l-227 481h-346l-76 -481h-166z" />
    <glyph glyph-name="afii10077" unicode="&#x43b;" horiz-adv-x="1337" 
d="M580 1024h780l-162 -1024h-164l140 883h-482l-225 -674q-44 -121 -139 -174q-71 -43 -185 -43q-63 0 -116 18l32 123h41q84 0 131 19q63 24 93 116z" />
    <glyph glyph-name="afii10078" unicode="&#x43c;" horiz-adv-x="1558" 
d="M815 0h-106l-297 801h-9l-127 -801h-157l162 1024h211l301 -811l561 811h223l-162 -1024h-164l127 799h-8z" />
    <glyph glyph-name="afii10079" unicode="&#x43d;" horiz-adv-x="1234" 
d="M928 0l73 465h-636l-74 -465h-168l162 1024h168l-68 -418h639l66 418h167l-161 -1024h-168z" />
    <glyph glyph-name="afii10080" unicode="&#x43e;" horiz-adv-x="1239" 
d="M776 1042q216 0 340 -112q131 -118 131 -332q0 -305 -223 -487q-160 -129 -416 -129q-227 0 -354 133q-117 120 -117 313q0 285 207 469q164 145 432 145zM754 903q-187 0 -301 -102q-148 -136 -148 -359q0 -138 74 -225q81 -96 254 -96q178 0 293 94q155 134 155 367
q0 149 -77 235q-86 86 -250 86z" />
    <glyph glyph-name="afii10081" unicode="&#x43f;" horiz-adv-x="1273" 
d="M285 1024h112l23 -113q177 131 401 131q217 0 320 -100q94 -88 94 -250q0 -52 -10 -137l-88 -555h-166l86 551q10 51 10 111q0 120 -59 176q-63 63 -217 63q-110 0 -197.5 -28.5t-181.5 -94.5l-123 -778h-166z" />
    <glyph glyph-name="afii10082" unicode="&#x440;" horiz-adv-x="1292" 
d="M287 1024h114l21 -115q171 133 428 133q225 0 348 -135q100 -114 100 -295q0 -268 -161 -440q-177 -190 -473 -190q-230 0 -357 124l-65 -413h-166zM416 788l-86 -532q134 -131 350 -131q199 0 317 115q131 131 131 356q0 141 -75 219q-83 86 -236 86
q-123 0 -211.5 -25.5t-189.5 -87.5z" />
    <glyph glyph-name="afii10083" unicode="&#x441;" horiz-adv-x="1091" 
d="M1157 977l-61 -123q-124 47 -303 47q-209 0 -326 -100q-158 -133 -158 -355q0 -146 88 -231q90 -90 273 -90q78 0 170 13.5t157 37.5l27 -127q-162 -67 -383 -67q-240 0 -371 122q-129 119 -129 322q0 143 56 265.5t168 211.5q175 139 444 139q215 0 348 -65z" />
    <glyph glyph-name="afii10084" unicode="&#x442;" horiz-adv-x="2004" 
d="M285 1024h112l23 -113q169 131 373 131q150 0 235 -51q73 -44 113 -117q203 168 440 168q211 0 311 -106q76 -82 76 -238q0 -37 -12 -147l-88 -551h-166l88 555q14 93 14 129q0 106 -47 156q-58 61 -207 61q-195 0 -374 -135q6 -38 6 -76q0 -53 -13 -139l-86 -551h-168
l89 555q10 54 10 119q0 116 -56 172q-50 55 -196 55q-102 0 -182.5 -29t-167.5 -96l-123 -776h-166z" />
    <glyph glyph-name="afii10085" unicode="&#x443;" horiz-adv-x="1277" 
d="M530 0l-319 1024h182l260 -877h47l496 877h184l-684 -1165q-61 -102 -139 -142q-62 -34 -170 -34q-42 0 -88 16l35 123q34 -6 57 -6q55 0 94 20q49 25 84 88l45 76h-84z" />
    <glyph glyph-name="afii10086" unicode="&#x444;" horiz-adv-x="1959" 
d="M1102 1331h160l-64 -399q153 110 356 110q207 0 314 -116q96 -113 96 -305q0 -142 -46.5 -267t-137.5 -213q-162 -159 -410 -159q-193 0 -303 110l-63 -399h-160l65 399q-149 -110 -342 -110q-190 0 -299 100q-127 115 -127 336q0 148 51 274.5t148 210.5
q155 139 395 139q100 0 171 -27.5t132 -90.5zM930 248l88 543q-85 64 -144.5 87t-154.5 23q-180 0 -285 -102q-129 -126 -129 -369q0 -162 84 -240q73 -67 211 -67q93 0 171 31.5t159 93.5zM1176 782l-86 -534q59 -62 124.5 -93.5t159.5 -31.5q183 0 289 106
q135 132 135 383q0 129 -53 199q-65 90 -221 90q-94 0 -168 -26.5t-180 -92.5z" />
    <glyph glyph-name="afii10087" unicode="&#x445;" horiz-adv-x="1220" 
d="M248 0h-197l467 549l-272 475h188l223 -410h74l352 410h195l-422 -483l297 -541h-190l-242 465h-86z" />
    <glyph glyph-name="afii10088" unicode="&#x446;" horiz-adv-x="1355" 
d="M1126 1024h166l-114 -721q-7 -54 -7 -76q0 -57 30.5 -79.5t96.5 -22.5l17 -19q-6 -121 -42 -211.5t-106 -175.5l-108 41q41 70 63 125.5t29 120.5q-54 13 -84.5 44t-44.5 83q-89 -69 -200 -110t-228 -41q-216 0 -318 94q-98 88 -98 258q0 57 10 135l91 555h165l-88 -551
q-10 -68 -10 -104q0 -126 62 -185q63 -63 217 -63q97 0 186 30t193 97z" />
    <glyph glyph-name="afii10089" unicode="&#x447;" horiz-adv-x="1171" 
d="M1032 0h-166l56 352q-163 -114 -357 -114q-225 0 -323 116q-64 76 -64 211q0 52 8 99l58 360h166l-56 -350q-8 -41 -8 -86q0 -79 37 -135q57 -74 209 -74q197 0 350 108l86 537h166z" />
    <glyph glyph-name="afii10090" unicode="&#x448;" horiz-adv-x="1998" 
d="M1845 0h-112l-21 115q-172 -133 -373 -133q-153 0 -235 51q-71 41 -113 117q-203 -168 -442 -168q-211 0 -311 106q-76 82 -76 238q0 37 12 147l88 551h166l-88 -555q-14 -93 -14 -129q0 -102 49 -154q59 -65 205 -65q195 0 376 137q-6 37 -6 76q0 53 13 139l86 551h165
l-88 -555q-8 -57 -8 -119q0 -114 53 -170q54 -59 197 -59q100 0 180.5 30t169.5 97l123 776h166z" />
    <glyph glyph-name="afii10091" unicode="&#x449;" horiz-adv-x="2068" 
d="M2009 1024l-119 -739q-6 -35 -6 -62q0 -58 30.5 -80t98.5 -22l15 -21q-6 -121 -41.5 -211t-106.5 -176l-106 43q77 127 90 244q-53 15 -83.5 45t-45.5 82q-180 -145 -396 -145q-150 0 -235 51q-73 44 -113 117q-203 -168 -440 -168q-211 0 -311 106q-78 84 -78 238
q0 51 14 147l86 551h166l-88 -555q-14 -93 -14 -129q0 -102 49 -154q62 -65 207 -65q193 0 374 137q-6 37 -6 76q0 53 13 139l86 551h168l-89 -555q-10 -54 -10 -119q0 -114 56 -170q54 -59 196 -59q98 0 178.5 30t171.5 97l123 776h166z" />
    <glyph glyph-name="afii10092" unicode="&#x44a;" horiz-adv-x="1320" 
d="M229 1024h398l-56 -350q150 61 338 61q176 0 283 -88q92 -79 92 -209q0 -195 -129 -315q-147 -141 -389 -141q-219 0 -315 108q-86 95 -86 260q0 70 16 176l57 359l-229 14zM549 543l-8 -56q-15 -96 -15 -141q0 -88 54 -156q61 -73 190 -73q168 0 264 92q84 81 84 203
q0 83 -51 131q-63 57 -217 57q-172 0 -301 -57z" />
    <glyph glyph-name="afii10093" unicode="&#x44b;" horiz-adv-x="1464" 
d="M1321 1024h166l-162 -1024h-166zM285 1024h164l-56 -350q150 61 340 61q179 0 285 -90q90 -80 90 -207q0 -194 -131 -315q-147 -141 -389 -141q-220 0 -316 108q-84 97 -84 260q0 77 15 176zM371 543l-9 -56q-14 -89 -14 -141q0 -93 55 -158q62 -71 189 -71q168 0 264 92
q86 80 86 203q0 81 -53 131q-63 57 -217 57q-172 0 -301 -57z" />
    <glyph glyph-name="afii10094" unicode="&#x44c;" horiz-adv-x="1140" 
d="M285 1024h164l-56 -350q150 61 340 61q179 0 285 -90q90 -80 90 -207q0 -194 -131 -315q-147 -141 -389 -141q-220 0 -316 108q-84 97 -84 260q0 77 15 176zM371 543l-9 -56q-14 -89 -14 -141q0 -93 55 -158q62 -71 189 -71q168 0 264 92q86 80 86 203q0 81 -53 131
q-63 57 -217 57q-172 0 -301 -57z" />
    <glyph glyph-name="afii10095" unicode="&#x44d;" horiz-adv-x="1118" 
d="M354 467l21 137h573q-3 148 -86 219q-90 78 -274 78q-166 0 -334 -47l-25 123q181 65 387 65q252 0 379 -118q60 -54 91.5 -139t31.5 -183q0 -141 -55 -266t-166 -215q-171 -139 -448 -139q-209 0 -367 67l65 127q146 -51 318 -51q216 0 340 115q96 87 129 227h-580z" />
    <glyph glyph-name="afii10096" unicode="&#x44e;" horiz-adv-x="1597" 
d="M285 1024h164l-68 -416h188q54 180 185 295q76 67 181.5 103t219.5 36q238 0 352 -131q95 -106 95 -284q0 -138 -44 -260.5t-128 -210.5q-166 -174 -443 -174q-219 0 -340 133q-102 117 -102 280q0 37 6 72h-191l-73 -467h-164zM1319 254q115 133 115 354q0 145 -76 221
q-75 72 -225 72q-167 0 -279 -98q-143 -134 -143 -367q0 -142 69 -223q77 -90 230 -90q197 0 309 131z" />
    <glyph glyph-name="afii10097" unicode="&#x44f;" horiz-adv-x="1138" 
d="M1161 1024l-162 -1024h-165l45 291h-295q-47 0 -74 4l-234 -295h-184l268 330q-94 38 -139 110q-41 65 -41 152q0 95 39 184t117 148q127 100 352 100h473zM973 887h-309q-147 0 -226 -66q-43 -35 -66.5 -91t-23.5 -122q0 -87 53 -131q55 -49 168 -49h332z" />
    <glyph glyph-name="afii10071" unicode="&#x451;" horiz-adv-x="1200" 
d="M1014 172l22 -123q-168 -67 -409 -67q-121 0 -219.5 34.5t-159.5 100.5q-50 53 -77.5 134t-27.5 171q0 145 57 269.5t160 209.5q171 141 420 141q188 0 299 -63q70 -40 104 -97t34 -139q0 -72 -39.5 -133t-104.5 -92q-108 -50 -247 -69t-324 -19q-106 0 -191 14
q0 -155 68 -229q88 -94 287 -94q180 0 348 51zM328 563q239 0 375.5 10.5t226.5 38.5q72 20 100.5 51.5t28.5 88.5q0 67 -72 112q-65 39 -215 39q-179 0 -297 -92q-110 -86 -147 -248zM654 1362q46 0 72 -23t26 -61q0 -54 -36 -89.5t-95 -35.5q-46 0 -71.5 23t-25.5 61
q0 54 36.5 89.5t93.5 35.5zM1039 1362q46 0 71 -23t25 -61q0 -54 -36 -89.5t-95 -35.5q-46 0 -71.5 23t-25.5 61q0 54 37.5 89.5t94.5 35.5z" />
    <glyph glyph-name="afii10099" unicode="&#x452;" horiz-adv-x="1302" 
d="M360 1339h168l-16 -100h344l-20 -113l-344 -20l-29 -186q174 122 389 122q233 0 334 -110q78 -87 78 -244q0 -53 -13 -133l-69 -438q-24 -146 -83 -245t-181 -183l-80 71q82 78 120.5 155t57.5 194l69 442q9 88 9 106q0 117 -47 170q-63 74 -230 74q-198 0 -377 -125
l-123 -776h-167l176 1104h-131l18 115l131 12z" />
    <glyph glyph-name="afii10100" unicode="&#x453;" horiz-adv-x="1150" 
d="M311 850l-26 125q217 67 424 67q245 0 360 -69q102 -60 102 -180q0 -123 -75 -195q-83 -78 -277 -102l-287 -39q-148 -20 -204 -64q-54 -41 -54 -108q0 -68 48 -105q75 -57 305 -57q204 0 403 61l23 -135q-192 -67 -451 -67q-150 0 -247 20.5t-158 65.5q-97 73 -97 196
q0 131 99 217q63 52 139 78.5t194 40.5l261 31q113 14 160.5 46t47.5 101q0 61 -59 90q-37 19 -94.5 26t-161.5 7q-178 0 -375 -51zM705 1176l167 301l132 -74l-203 -279z" />
    <glyph glyph-name="afii10101" unicode="&#x454;" horiz-adv-x="1118" 
d="M915 604l-20 -137h-584q3 -159 58 -229q91 -113 307 -113q169 0 334 51l24 -127q-180 -67 -387 -67q-271 0 -403 141q-49 53 -75 132.5t-26 168.5q0 148 64 280.5t188 219.5q172 118 420 118q208 0 365 -65l-62 -123q-155 47 -319 47q-184 0 -299 -78q-116 -79 -158 -219
h573z" />
    <glyph glyph-name="afii10102" unicode="&#x455;" horiz-adv-x="1150" 
d="M1145 969l-53 -125q-177 59 -369 59q-228 0 -309 -47q-62 -40 -62 -100t41 -86q43 -28 135 -37l273 -35q172 -19 250 -92q65 -62 65 -160q0 -184 -166 -278q-149 -86 -440 -86q-127 0 -224 18.5t-190 62.5l60 127q179 -69 370 -69q137 0 217.5 15.5t130.5 51.5
q76 56 76 129q0 58 -32 86q-38 35 -156 50l-279 32q-176 20 -245 101q-52 58 -52 149q0 65 32 120t89 93q74 52 173.5 73t254.5 21q218 0 410 -73z" />
    <glyph glyph-name="afii10103" unicode="&#x456;" horiz-adv-x="471" 
d="M203 1024h291l-162 -1024h-166l141 897l-123 12zM471 1403q51 0 79 -26t28 -66q0 -55 -39.5 -92t-102.5 -37q-51 0 -78.5 26.5t-27.5 67.5q0 53 40 90t101 37z" />
    <glyph glyph-name="afii10104" unicode="&#x457;" horiz-adv-x="471" 
d="M295 1362q46 0 71 -23t25 -61q0 -54 -35.5 -89.5t-95.5 -35.5q-45 0 -70.5 23.5t-25.5 62.5q0 53 37 88t94 35zM590 1362q46 0 72 -23t26 -61q0 -54 -36 -89.5t-95 -35.5q-46 0 -72 23.5t-26 62.5q0 52 37.5 87.5t93.5 35.5zM184 909l19 115h291l-162 -1024h-166l141 897
z" />
    <glyph glyph-name="afii10105" unicode="&#x458;" horiz-adv-x="471" 
d="M184 909l19 115h291l-166 -1040q-25 -167 -142 -269q-123 -102 -303 -102q-95 0 -166.5 21t-144.5 69l72 117q63 -35 119 -49.5t131 -14.5q115 0 184 66q72 72 90 194l139 881zM471 1403q50 0 77 -26t27 -66q0 -54 -38 -91.5t-101 -37.5q-52 0 -80 26t-28 66q0 55 40 92
t103 37z" />
    <glyph glyph-name="afii10106" unicode="&#x459;" horiz-adv-x="1961" 
d="M580 1024h727l-56 -350q150 61 338 61q179 0 285 -90q90 -80 90 -207q0 -195 -129 -315q-147 -141 -389 -141q-217 0 -311 108q-88 94 -88 260q0 70 16 176l57 357h-430l-225 -674q-39 -117 -137 -176q-74 -43 -185 -43q-63 0 -116 18l32 125h54q67 0 116 19q36 15 58 42
t37 74zM1231 543l-10 -56q-13 -111 -13 -141q0 -94 54 -158q62 -71 186 -71q170 0 266 92q84 81 84 203q0 83 -51 131q-63 57 -217 57q-173 0 -299 -57z" />
    <glyph glyph-name="afii10107" unicode="&#x45a;" horiz-adv-x="1873" 
d="M285 1024h168l-68 -418h598l68 418h163l-55 -350q150 61 338 61q179 0 285 -90q90 -77 90 -207q0 -195 -129 -315q-147 -141 -389 -141q-220 0 -316 108q-84 93 -84 260q0 67 7 115h-599l-71 -465h-168zM1139 543l-11 -56q-12 -102 -12 -141q0 -95 53 -158
q62 -71 187 -71q170 0 266 92q84 81 84 203q0 83 -51 131q-63 57 -217 57q-173 0 -299 -57z" />
    <glyph glyph-name="afii10108" unicode="&#x45b;" horiz-adv-x="1302" 
d="M358 1339h166l-14 -100h342l-18 -113l-345 -20l-30 -186q177 122 391 122q233 0 332 -108q78 -90 78 -244q0 -68 -11 -135l-88 -555h-166l86 551q11 71 11 106q0 115 -48 172q-64 72 -229 72q-197 0 -379 -125l-123 -776h-166l175 1104h-129l16 115l133 12z" />
    <glyph glyph-name="afii10109" unicode="&#x45c;" horiz-adv-x="1200" 
d="M285 1024h166l-64 -401h318l176 241q77 107 170 142q60 24 145 24q46 0 90 -8l-33 -131h-26q-72 0 -127 -25q-41 -18 -86 -73l-168 -228l280 -565h-188l-227 481h-346l-76 -481h-166zM664 1176l167 301l132 -74l-203 -279z" />
    <glyph glyph-name="afii10110" unicode="&#x45e;" horiz-adv-x="1277" 
d="M530 0l-319 1024h182l260 -877h47l496 877h184l-684 -1165q-61 -102 -139 -142q-62 -34 -170 -34q-42 0 -88 16l35 123q34 -6 57 -6q55 0 94 20q49 25 84 88l45 76h-84zM598 1350l121 14q0 -49 18 -76q19 -37 84 -37t96 31q36 32 50 82l124 -14q-29 -105 -96 -160
q-72 -60 -182 -60q-108 0 -164 66q-48 54 -51 154z" />
    <glyph glyph-name="afii10193" unicode="&#x45f;" horiz-adv-x="1275" 
d="M283 1024h166l-89 -551q-8 -55 -8 -104q0 -128 60 -185q63 -63 217 -63q108 0 196.5 29.5t184.5 97.5l120 776h168l-161 -1024h-115l-23 113q-174 -131 -401 -131q-215 0 -317 94q-99 89 -99 258q0 55 13 135zM975 -74l-31 -340l-149 8l73 332h107z" />
    <glyph glyph-name="afii10050" unicode="&#x490;" horiz-adv-x="1153" 
d="M119 0l194 1229h783l47 184h131l-51 -328h-760l-172 -1085h-172z" />
    <glyph glyph-name="afii10098" unicode="&#x491;" horiz-adv-x="1058" 
d="M283 1024h690l47 178h133l-49 -319h-678l-139 -883h-166z" />
    <glyph glyph-name="endash" unicode="&#x2013;" horiz-adv-x="913" 
d="M156 606h774l-21 -137h-774z" />
    <glyph glyph-name="emdash" unicode="&#x2014;" horiz-adv-x="1071" 
d="M156 606h931l-22 -137h-930z" />
    <glyph glyph-name="quoteleft" unicode="&#x2018;" horiz-adv-x="432" 
d="M444 1284l-49 -137q62 -18 62 -84q0 -54 -37 -91.5t-98 -37.5q-48 0 -75.5 24.5t-27.5 63.5q0 32 21 74l122 213z" />
    <glyph glyph-name="quoteright" unicode="&#x2019;" horiz-adv-x="432" 
d="M289 901l49 137q-62 18 -62 84q0 54 37.5 91.5t98.5 37.5q48 0 75 -24.5t27 -63.5q0 -33 -20 -73l-123 -213z" />
    <glyph glyph-name="quotesinglbase" unicode="&#x201a;" horiz-adv-x="436" 
d="M123 -147l49 137q-61 18 -61 84q0 54 37 91.5t98 37.5q48 0 75 -24.5t27 -63.5q0 -34 -20 -74l-123 -213z" />
    <glyph glyph-name="quotedblleft" unicode="&#x201c;" horiz-adv-x="698" 
d="M709 1284l-50 -137q62 -18 62 -84q0 -54 -37 -91.5t-98 -37.5q-48 0 -75.5 24.5t-27.5 63.5q0 32 21 74l123 213zM444 1284l-49 -137q62 -18 62 -84q0 -54 -37 -91.5t-98 -37.5q-48 0 -75.5 24.5t-27.5 63.5q0 32 21 74l122 213z" />
    <glyph glyph-name="quotedblright" unicode="&#x201d;" horiz-adv-x="698" 
d="M553 901l49 137q-61 18 -61 84q0 54 37 91.5t98 37.5q48 0 75 -24.5t27 -63.5q0 -33 -20 -73l-123 -213zM289 901l49 137q-62 18 -62 84q0 54 37.5 91.5t98.5 37.5q48 0 75 -24.5t27 -63.5q0 -33 -20 -73l-123 -213z" />
    <glyph glyph-name="quotedblbase" unicode="&#x201e;" horiz-adv-x="698" 
d="M123 -147l49 137q-61 18 -61 84q0 54 37 91.5t98 37.5q48 0 75 -24.5t27 -63.5q0 -34 -20 -74l-123 -213zM387 -147l49 137q-61 18 -61 84q0 54 37 91.5t98 37.5q48 0 75 -24.5t27 -63.5q0 -34 -20 -74l-123 -213z" />
    <glyph glyph-name="dagger" unicode="&#x2020;" horiz-adv-x="675" 
d="M276 684h-106l-2 61l22 62h107l104 -12l2 100l19 119l70 10l65 -10l-18 -119l-29 -100l106 12h109v-62l-20 -61h-109l-102 12l-5 -104l-61 -387l-55 -205h-109l92 592l29 104z" />
    <glyph glyph-name="daggerdbl" unicode="&#x2021;" horiz-adv-x="675" 
d="M276 684h-106l-2 61l22 62h107l104 -12l2 100l19 119l70 10l65 -10l-18 -119l-29 -100l106 12h109v-62l-20 -61h-109l-102 12l-2 -104l-31 -105l106 15h109l2 -62l-23 -61h-106l-103 12l-6 -104l-12 -82l-55 -205h-111l45 287l31 104l-111 -12h-106v61l20 62h107l104 -15
l4 105l29 104z" />
    <glyph glyph-name="bullet" unicode="&#x2022;" horiz-adv-x="489" 
d="M350 731q61 0 93 -31.5t32 -81.5q0 -68 -48 -113.5t-122 -45.5q-59 0 -91 29t-32 79q0 68 46 116t122 48z" />
    <glyph glyph-name="onedotenleader" unicode="&#x2024;" horiz-adv-x="444" 
d="M252 217q51 0 77.5 -25.5t26.5 -66.5q0 -59 -38.5 -98t-100.5 -39q-51 0 -78.5 25.5t-27.5 68.5q0 57 39.5 96t101.5 39z" />
    <glyph glyph-name="twodotenleader" unicode="&#x2025;" horiz-adv-x="813" 
d="M252 217q51 0 77.5 -25.5t26.5 -66.5q0 -59 -38.5 -98t-100.5 -39q-51 0 -78.5 25.5t-27.5 68.5q0 57 39.5 96t101.5 39zM621 217q51 0 78.5 -25.5t27.5 -66.5q0 -59 -38.5 -98t-102.5 -39q-51 0 -79 26t-28 68q0 57 40 96t102 39z" />
    <glyph glyph-name="ellipsis" unicode="&#x2026;" horiz-adv-x="1126" 
d="M252 217q51 0 77.5 -25.5t26.5 -66.5q0 -59 -38.5 -98t-100.5 -39q-51 0 -78.5 25.5t-27.5 68.5q0 57 39.5 96t101.5 39zM594 217q50 0 77 -25.5t27 -66.5q0 -59 -38.5 -98t-100.5 -39q-51 0 -78.5 25.5t-27.5 68.5q0 57 39 96t102 39zM936 217q50 0 77 -25.5t27 -66.5
q0 -59 -38.5 -98t-100.5 -39q-51 0 -78.5 25.5t-27.5 68.5q0 57 39 96t102 39z" />
    <glyph glyph-name="perthousand" unicode="&#x2030;" horiz-adv-x="1972" 
d="M289 43l848 1006l92 -70l-848 -1008zM410 473q-125 0 -195 80q-53 63 -53 156q0 160 114 256q91 79 224 79q140 0 207 -92q41 -59 41 -143q0 -147 -101 -242q-94 -94 -237 -94zM625 797q0 63 -35 98q-35 41 -109 41q-86 0 -143 -57q-53 -56 -53 -150q0 -60 22 -92
q39 -51 119 -51q84 0 139 55q60 54 60 156zM1018 -23q-128 0 -195 80q-53 63 -53 156q0 159 115 256q93 80 223 80q138 0 207 -94q41 -56 41 -142q0 -146 -101 -241q-92 -95 -237 -95zM1233 301q0 63 -35 98q-33 39 -108 39q-86 0 -144 -55q-53 -56 -53 -152q0 -58 22 -90
q41 -53 119 -53q85 0 140 55q59 56 59 158zM1647 -23q-128 0 -195 80q-53 63 -53 156q0 160 114 256q89 80 224 80q140 0 205 -94q43 -55 43 -142q0 -143 -101 -241q-95 -95 -237 -95zM1862 301q0 63 -35 98q-36 39 -109 39q-85 0 -143 -55q-55 -58 -55 -152q0 -59 24 -90
q41 -53 119 -53q84 0 139 55q60 60 60 158z" />
    <glyph glyph-name="guilsinglleft" unicode="&#x2039;" horiz-adv-x="667" 
d="M649 948l49 -92l-352 -240l279 -237l-80 -92l-395 299l8 63z" />
    <glyph glyph-name="guilsinglright" unicode="&#x203a;" horiz-adv-x="667" 
d="M190 285l-51 92l353 248l-277 227l80 92l393 -299l-8 -63z" />
    <glyph glyph-name="exclamdbl" unicode="&#x203c;" horiz-adv-x="749" 
d="M342 1331h158l-45 -289l-129 -725h-131l102 725zM244 217q51 0 78.5 -25.5t27.5 -66.5q0 -59 -39.5 -98t-101.5 -39q-51 0 -79 26t-28 68q0 55 40 95t102 40zM647 1331h158l-45 -289l-129 -725h-131l102 725zM549 217q51 0 78.5 -25.5t27.5 -66.5q0 -59 -39.5 -98
t-101.5 -39q-51 0 -78.5 25.5t-27.5 68.5q0 56 40 95.5t101 39.5z" />
    <glyph glyph-name="fraction" unicode="&#x2044;" horiz-adv-x="628" 
d="M-74 -12l832 1294l108 -47l-837 -1296z" />
    <glyph glyph-name="zerosuperior" unicode="&#x2070;" horiz-adv-x="616" 
d="M477 1167q-58 0 -96 -28q-45 -30 -66.5 -86t-21.5 -121q0 -66 35 -101q30 -34 90 -34q57 0 96 24q86 61 86 211q0 79 -37 111q-31 24 -86 24zM702 1044q0 -94 -37 -176.5t-114 -126.5q-65 -39 -148 -39q-88 0 -147 56q-63 57 -63 160q0 95 36.5 177t114.5 128
q62 37 148 37q92 0 149 -54q61 -61 61 -162z" />
    <glyph glyph-name="foursuperior" unicode="&#x2074;" horiz-adv-x="606" 
d="M498 803h-332l12 80l332 368h72l20 -34l-285 -320h197l25 156l55 20h47l-27 -176h48l-13 -82l-51 -12l-14 -90h-101z" />
    <glyph glyph-name="fivesuperior" unicode="&#x2075;" horiz-adv-x="585" 
d="M362 1157l-16 -88q58 21 103 21q104 0 159 -58q35 -44 35 -100q0 -101 -74 -164q-75 -66 -194 -66q-126 0 -209 80l59 70q72 -57 166 -57q69 0 111 36q37 32 37 84q0 35 -19 54q-24 28 -94 28q-79 0 -137 -34l-49 26l41 262h374l-14 -94h-279z" />
    <glyph glyph-name="sixsuperior" unicode="&#x2076;" horiz-adv-x="587" 
d="M299 971q-6 -34 -6 -60q0 -40 16 -69q20 -45 94 -45q70 0 113 37q33 33 33 77q0 33 -21 58q-26 26 -90 26q-79 0 -139 -24zM319 1061q62 26 136 26q112 0 166 -63q28 -40 28 -96q0 -95 -69 -158q-71 -65 -193 -65q-116 0 -168 77q-29 53 -29 117q0 92 34 176t104 133
q68 52 157 52q110 0 189 -54l-51 -76q-64 37 -150 37q-51 0 -88 -24q-47 -26 -66 -82z" />
    <glyph glyph-name="sevensuperior" unicode="&#x2077;" horiz-adv-x="555" 
d="M526 1159h-202l-23 -82h-86l27 174h436l-12 -77q-93 -87 -166 -191q-53 -73 -101 -164l-53 -106h-108l65 133q8 17 18.5 35.5t23.5 39.5t20 33q40 64 73 107q48 58 88 98z" />
    <glyph glyph-name="eightsuperior" unicode="&#x2078;" horiz-adv-x="598" 
d="M371 973q-48 -13 -70 -41q-20 -27 -20 -62q0 -30 24 -51q36 -24 105 -24q71 0 114 28q39 31 39 76q0 43 -31 56.5t-96 13.5q-49 0 -65 4zM508 1057q22 6 35.5 24t13.5 41q0 21 -18 35q-21 14 -70 14q-62 0 -90 -24q-19 -16 -19 -45q0 -24 21 -33q18 -10 72 -10
q41 0 55 -2zM606 1026q60 -40 60 -106q0 -96 -74 -156q-73 -62 -199 -62q-116 0 -172 56q-41 38 -41 98q0 63 35 107q27 34 70 55q-27 34 -27 74q0 64 49 110q58 58 174 58q93 0 135 -35q43 -29 43 -84q0 -71 -53 -115z" />
    <glyph glyph-name="ninesuperior" unicode="&#x2079;" horiz-adv-x="579" 
d="M559 993q4 20 4 64q0 58 -22 80q-24 30 -84 30q-76 0 -113 -34q-35 -30 -35 -86q0 -34 27 -58q25 -22 84 -22q78 0 139 26zM535 901q-69 -27 -132 -27q-89 0 -141 41q-55 42 -55 113q0 105 76 168q70 64 188 64q116 0 162 -72q33 -47 33 -127q0 -84 -26.5 -163
t-86.5 -130q-74 -63 -182 -63q-107 0 -185 55l52 76q65 -39 145 -39q65 0 102 30q37 27 50 74z" />
    <glyph glyph-name="parenleftsuperior" unicode="&#x207d;" horiz-adv-x="280" 
d="M414 1272q-129 -170 -129 -383q0 -114 39 -203l-84 -45q-52 99 -52 240q0 232 158 434z" />
    <glyph glyph-name="parenrightsuperior" unicode="&#x207e;" horiz-adv-x="280" 
d="M233 1272l84 43q52 -110 52 -244q0 -234 -156 -430l-70 45q129 170 129 377q0 132 -39 209z" />
    <glyph glyph-name="zeroinferior" unicode="&#x2080;" horiz-adv-x="616" 
d="M367 430q-55 0 -99 -27q-43 -31 -64.5 -87t-21.5 -121q0 -66 33 -99q32 -37 92 -37q51 0 94 27q88 60 88 209q0 82 -36 111q-31 24 -86 24zM592 307q0 -92 -37.5 -174t-114.5 -129q-64 -37 -149 -37q-92 0 -148 53q-61 58 -61 162q0 94 36 175.5t113 129.5q62 37 148 37
q97 0 149 -55q64 -58 64 -162z" />
    <glyph glyph-name="oneinferior" unicode="&#x2081;" horiz-adv-x="421" 
d="M190 66l52 327l-86 -28l-23 73l182 86l45 -10l-69 -448l63 -7l-10 -82h-258l12 82z" />
    <glyph glyph-name="twoinferior" unicode="&#x2082;" horiz-adv-x="579" 
d="M250 68h264l-14 -91h-430l12 91l280 174q49 29 72 57q25 32 25 68q0 22 -17 39q-24 24 -90 24q-95 0 -196 -53l-33 76q121 71 244 71q114 0 161 -53q33 -33 33 -88q0 -65 -33 -115q-39 -56 -120 -106z" />
    <glyph glyph-name="threeinferior" unicode="&#x2083;" horiz-adv-x="595" 
d="M559 399q0 -71 -55 -106q55 -38 55 -111q0 -86 -63 -143q-81 -72 -211 -72q-70 0 -123 18t-101 62l62 70q79 -58 176 -58q78 0 123 37q35 32 35 74q0 61 -72 61h-180l12 86h168q74 0 74 60q0 55 -103 55q-94 0 -180 -45l-29 72q105 65 230 65q76 0 129 -30t53 -95z" />
    <glyph glyph-name="fourinferior" unicode="&#x2084;" horiz-adv-x="606" 
d="M393 68h-332l11 77l331 369h74l21 -33l-287 -321h197l24 155l57 21h48l-29 -176h47l-12 -80l-49 -12l-15 -91h-100z" />
    <glyph glyph-name="fiveinferior" unicode="&#x2085;" horiz-adv-x="585" 
d="M256 422l-14 -88q55 20 102 20q107 0 158 -57q37 -40 37 -100q0 -99 -74 -164q-75 -66 -195 -66q-125 0 -209 78l60 72q66 -58 166 -58q65 0 108 37q39 31 39 84q0 34 -16 53q-29 29 -96 29q-79 0 -138 -37l-51 29l43 262h375l-14 -94h-281z" />
    <glyph glyph-name="sixinferior" unicode="&#x2086;" horiz-adv-x="587" 
d="M193 233q-7 -35 -7 -57q0 -38 17 -72q20 -45 94 -45q71 0 113 39q32 29 32 76q0 35 -20 59q-27 27 -90 27q-78 0 -139 -27zM213 324q60 28 135 28q110 0 166 -65q29 -36 29 -97q0 -93 -70 -157q-76 -66 -192 -66q-113 0 -168 78q-29 53 -29 119q0 91 33.5 174.5
t103.5 132.5q66 51 158 51q111 0 188 -53l-51 -74q-66 35 -149 35q-54 0 -88 -22q-42 -23 -66 -84z" />
    <glyph glyph-name="seveninferior" unicode="&#x2087;" horiz-adv-x="555" 
d="M420 422h-201l-24 -80h-86l26 174h438l-14 -80q-87 -81 -164 -188q-41 -53 -102 -166l-53 -105h-109l66 134q28 58 61 108q60 89 74 107q5 6 25.5 30t34 38.5t28.5 27.5z" />
    <glyph glyph-name="eightinferior" unicode="&#x2088;" horiz-adv-x="598" 
d="M264 238q-43 -13 -67 -43q-21 -25 -21 -60q0 -33 25 -51q34 -25 104 -25q71 0 113 29q41 25 41 76q0 43 -31 56t-96 13q-48 0 -68 5zM403 322q22 6 36 23.5t14 39.5t-19 37q-23 14 -69 14q-67 0 -93 -26q-16 -13 -16 -45q0 -25 20 -31q16 -10 72 -10q41 0 55 -2zM502 289
q57 -35 57 -107q0 -94 -72 -153q-76 -62 -198 -62q-119 0 -172 53q-41 41 -41 99q0 62 35 106q22 35 67 58q-24 34 -24 71q0 66 47 113q60 57 176 57q90 0 135 -35q41 -33 41 -86q0 -69 -51 -114z" />
    <glyph glyph-name="nineinferior" unicode="&#x2089;" horiz-adv-x="579" 
d="M453 256q4 20 4 66q0 54 -23 77q-23 31 -84 31q-77 0 -112 -35q-35 -30 -35 -84q0 -36 26 -59q27 -21 84 -21q75 0 140 25zM428 164q-73 -25 -131 -25q-88 0 -141 39q-56 42 -56 113q0 104 76 170q70 61 189 61q115 0 161 -71q33 -47 33 -125q0 -196 -113 -293
q-74 -66 -182 -66q-102 0 -184 58l51 73q65 -39 145 -39q62 0 103 33q36 26 49 72z" />
    <glyph glyph-name="parenleftinferior" unicode="&#x208d;" horiz-adv-x="280" 
d="M311 551q-131 -172 -131 -385q0 -119 39 -201l-84 -45q-49 94 -49 240q0 235 156 432z" />
    <glyph glyph-name="parenrightinferior" unicode="&#x208e;" horiz-adv-x="280" 
d="M131 547l84 41q49 -107 49 -246q0 -226 -155 -426l-70 45q131 177 131 375q0 125 -39 211z" />
    <glyph glyph-name="Euro" unicode="&#x20ac;" horiz-adv-x="1357" 
d="M154 578h927l-12 -107l-336 -18h-319q16 -122 84 -195q128 -137 368 -137q181 0 373 74l39 -127q-196 -91 -438 -91q-322 0 -490 183q-101 109 -110 293l-105 2zM170 672l16 114l113 7q73 196 238 309q211 149 503 149q248 0 412 -88l-76 -125q-160 70 -352 70
q-216 0 -375 -109q-107 -70 -170 -202h291l334 -19l-12 -106h-922z" />
    <glyph glyph-name="afii61352" unicode="&#x2116;" horiz-adv-x="1980" 
d="M1427 358h494l-18 -118h-494zM1686 428q-106 0 -170 61q-54 57 -54 152q0 136 101 227q84 78 204 78q117 0 179 -72q47 -53 47 -141q0 -134 -92 -223q-85 -82 -215 -82zM1706 545q71 0 115 41q55 55 55 133q0 48 -27 78q-31 39 -98 39q-68 0 -111 -37q-59 -52 -59 -135
q0 -52 27 -82q37 -37 98 -37zM1280 1229h162l-195 -1229h-162l-645 997l-155 -997h-164l194 1229h164l643 -993z" />
    <glyph glyph-name="trademark" unicode="&#x2122;" horiz-adv-x="1361" 
d="M539 1128l-68 -419h-106l67 419h-190l16 97h487l-16 -97h-190zM854 1047l-55 -338h-103l84 516h109l141 -373l256 373h129l-84 -516h-104l53 340l-238 -340h-65z" />
    <glyph glyph-name="minus" unicode="&#x2212;" horiz-adv-x="722" 
d="M174 723h584l-23 -137h-583z" />
    <glyph glyph-name="approxequal" unicode="&#x2248;" horiz-adv-x="839" 
d="M201 457l-45 92q106 82 213 82q68 0 147 -31q79 -29 146 -29q74 0 147 50l43 -95q-106 -82 -213 -82q-68 0 -147 31q-88 31 -146 31q-79 0 -145 -49zM219 713l-45 92q106 82 213 82q82 0 148 -31q71 -29 145 -29q75 0 145 50l45 -95q-109 -82 -215 -82q-69 0 -145 31
q-82 31 -145 31q-80 0 -146 -49z" />
    <glyph glyph-name="notequal" unicode="&#x2260;" horiz-adv-x="788" 
d="M193 852h311l53 123l115 -35l-41 -88h211l-21 -131h-248l-57 -129h285l-21 -131h-321l-56 -129l-112 33l41 96h-201l21 131h239l55 129h-274z" />
    <glyph glyph-name="lessequal" unicode="&#x2264;" horiz-adv-x="667" 
d="M150 569l16 13l342 -256l-76 -88l-301 213zM645 489l-78 -92l-397 299l10 64l490 299l51 -92l-354 -242z" />
    <glyph glyph-name="greaterequal" unicode="&#x2265;" horiz-adv-x="667" 
d="M666 582l12 -13l-19 -118l-370 -213l-47 88zM203 397l-45 92l352 250l-277 228l80 92l396 -299l-11 -64z" />
    <glyph glyph-name="percent" horiz-adv-x="1372" 
d="M289 43l848 1006l92 -70l-848 -1008zM410 473q-125 0 -195 80q-53 63 -53 156q0 160 114 256q91 79 224 79q140 0 207 -92q41 -59 41 -143q0 -147 -101 -242q-94 -94 -237 -94zM625 797q0 63 -35 98q-35 41 -109 41q-86 0 -143 -57q-53 -56 -53 -150q0 -60 22 -92
q39 -51 119 -51q84 0 139 55q60 54 60 156zM1018 -23q-128 0 -195 80q-53 63 -53 156q0 159 115 256q93 80 223 80q138 0 207 -94q41 -56 41 -142q0 -146 -101 -241q-92 -95 -237 -95zM1233 301q0 63 -35 98q-33 39 -108 39q-86 0 -144 -55q-53 -56 -53 -152q0 -58 22 -90
q41 -53 119 -53q85 0 140 55q59 56 59 158z" />
    <glyph glyph-name="percent.oldstyle" horiz-adv-x="1372" 
d="M289 43l848 1006l92 -70l-848 -1008zM410 473q-125 0 -195 80q-53 63 -53 156q0 160 114 256q91 79 224 79q140 0 207 -92q41 -59 41 -143q0 -147 -101 -242q-94 -94 -237 -94zM625 797q0 63 -35 98q-35 41 -109 41q-86 0 -143 -57q-53 -56 -53 -150q0 -60 22 -92
q39 -51 119 -51q84 0 139 55q60 54 60 156zM1018 -23q-128 0 -195 80q-53 63 -53 156q0 159 115 256q93 80 223 80q138 0 207 -94q41 -56 41 -142q0 -146 -101 -241q-92 -95 -237 -95zM1233 301q0 63 -35 98q-33 39 -108 39q-86 0 -144 -55q-53 -56 -53 -152q0 -58 22 -90
q41 -53 119 -53q85 0 140 55q59 56 59 158z" />
    <glyph glyph-name="perthousand.oldstyle" horiz-adv-x="1972" 
d="M289 43l848 1006l92 -70l-848 -1008zM410 473q-125 0 -195 80q-53 63 -53 156q0 160 114 256q91 79 224 79q140 0 207 -92q41 -59 41 -143q0 -147 -101 -242q-94 -94 -237 -94zM625 797q0 63 -35 98q-35 41 -109 41q-86 0 -143 -57q-53 -56 -53 -150q0 -60 22 -92
q39 -51 119 -51q84 0 139 55q60 54 60 156zM1018 -23q-128 0 -195 80q-53 63 -53 156q0 159 115 256q93 80 223 80q138 0 207 -94q41 -56 41 -142q0 -146 -101 -241q-92 -95 -237 -95zM1233 301q0 63 -35 98q-33 39 -108 39q-86 0 -144 -55q-53 -56 -53 -152q0 -58 22 -90
q41 -53 119 -53q85 0 140 55q59 56 59 158zM1647 -23q-128 0 -195 80q-53 63 -53 156q0 160 114 256q89 80 224 80q140 0 205 -94q43 -55 43 -142q0 -143 -101 -241q-95 -95 -237 -95zM1862 301q0 63 -35 98q-36 39 -109 39q-85 0 -143 -55q-55 -58 -55 -152q0 -59 24 -90
q41 -53 119 -53q84 0 139 55q60 60 60 158z" />
    <glyph glyph-name="Breve" horiz-adv-x="819" 
d="M358 1575l125 16q0 -55 27 -94q28 -41 98 -41q80 0 125 37q47 40 68 100l129 -18q-38 -123 -113 -180q-81 -66 -211 -66q-122 0 -190 74q-58 71 -58 172z" />
    <glyph glyph-name="Dieresis" horiz-adv-x="919" 
d="M485 1567q53 0 81 -26.5t28 -70.5q0 -57 -40.5 -97t-104.5 -40q-50 0 -78.5 25.5t-28.5 66.5q0 61 40.5 101.5t102.5 40.5zM911 1567q53 0 81 -26.5t28 -70.5q0 -57 -41 -97t-105 -40q-50 0 -78 25.5t-28 66.5q0 61 39.5 101.5t103.5 40.5z" />
    <glyph glyph-name="commaaccent" horiz-adv-x="468" 
d="M145 -150l48 140q-28 6 -43 27.5t-15 52.5q0 55 35.5 91t91.5 36q48 0 74 -24t26 -62q0 -32 -20 -72l-117 -207z" />
    <glyph glyph-name="dblgrave" horiz-adv-x="718" 
d="M553 1468l68 -323l-103 -27l-115 307zM674 1475l43 -322l-105 -20l-82 305z" />
    <glyph glyph-name="Acute" horiz-adv-x="520" 
d="M334 1382l174 310l131 -78l-207 -287z" />
    <glyph glyph-name="Grave" horiz-adv-x="520" 
d="M522 1681l80 -321l-115 -35l-116 305z" />
    <glyph glyph-name="Caron" horiz-adv-x="829" 
d="M358 1567l76 71l182 -178l269 182l57 -75l-303 -256h-59z" />
    <glyph glyph-name="Circumflex" horiz-adv-x="829" 
d="M385 1317l-55 72l303 256h57l223 -256l-77 -72l-191 178z" />
    <glyph glyph-name="commaaccent.cap" horiz-adv-x="477" 
d="M147 -150l50 140q-29 7 -44.5 29.5t-15.5 52.5q0 54 36 91.5t93 37.5q48 0 74.5 -24.5t26.5 -63.5q0 -32 -21 -74l-117 -209z" />
    <glyph glyph-name="Dotaccent" horiz-adv-x="481" 
d="M272 209q48 0 74.5 -25.5t26.5 -66.5q0 -56 -37 -92.5t-98 -36.5q-51 0 -78 25.5t-27 66.5q0 55 38.5 92t100.5 37z" />
    <glyph glyph-name="Hungarumlaut" horiz-adv-x="745" 
d="M328 1374l139 326l141 -58l-182 -307zM545 1374l190 322l131 -64l-223 -299z" />
    <glyph glyph-name="dblGrave" horiz-adv-x="745" 
d="M596 1714l80 -346l-113 -29l-119 326zM721 1710l51 -344l-115 -31l-88 330z" />
    <glyph glyph-name="Macron" horiz-adv-x="911" 
d="M348 1485h666l-23 -133h-665z" />
    <glyph glyph-name="Ring" horiz-adv-x="686" 
d="M535 1309q-91 0 -146 55q-43 53 -43 131q0 114 92 188q69 60 166 60q100 0 150 -62q43 -43 43 -118q0 -115 -82 -185q-72 -69 -180 -69zM551 1415q46 0 90 35q43 40 43 100q0 39 -27 66q-25 22 -71 22q-54 0 -88 -30q-21 -15 -33 -43t-12 -58q0 -44 24 -65q27 -27 74 -27
z" />
    <glyph glyph-name="Tilde" horiz-adv-x="960" 
d="M1008 1507l43 -84q-109 -90 -220 -90q-77 0 -155 35q-73 37 -148 37q-81 0 -143 -43l-45 82q114 92 223 92q79 0 150 -35q75 -37 151 -37q42 0 73.5 8.5t70.5 34.5z" />
    <glyph glyph-name="zero.fitted" horiz-adv-x="1241" 
d="M797 1110q-195 0 -314 -119q-174 -174 -174 -510q0 -166 64 -254q80 -108 262 -108q201 0 326 137q85 92 125 223t40 277q0 150 -57 235q-82 119 -272 119zM817 1251q270 0 393 -172q84 -120 84 -319q0 -177 -56 -337t-175 -276q-173 -170 -447 -170q-242 0 -372 148
q-50 59 -77.5 149t-27.5 197q0 181 60.5 347.5t187.5 279.5q176 153 430 153z" />
    <glyph glyph-name="one.fitted" horiz-adv-x="1241" 
d="M516 948l-37 113l387 182l74 -14l-174 -1096l160 -10l-19 -123h-545l19 121l219 12l143 903z" />
    <glyph glyph-name="two.fitted" horiz-adv-x="1241" 
d="M152 0l20 135l645 422q125 81 174 137q90 97 90 217q0 88 -69 138q-75 59 -230 59q-119 0 -217 -30.5t-215 -98.5l-61 117q134 84 251 119.5t269 35.5q219 0 336 -100q102 -88 102 -225q0 -172 -127 -308q-77 -86 -223 -176l-473 -299h709l-21 -143h-960z" />
    <glyph glyph-name="three.fitted" horiz-adv-x="1241" 
d="M455 758h350q94 0 153 51q32 23 50 63t18 86q0 68 -59 107q-69 49 -224 49q-198 0 -374 -98l-56 106q195 129 467 129q208 0 322 -82q92 -68 92 -188q0 -95 -49 -166q-37 -58 -113 -100v-8q76 -37 111 -89q53 -71 53 -178q0 -203 -162 -329q-173 -134 -446 -134
q-161 0 -269.5 38t-205.5 118l88 117q103 -74 189.5 -101.5t219.5 -27.5q206 0 318 90q100 83 100 215q0 87 -37 137q-47 58 -176 58h-381z" />
    <glyph glyph-name="four.fitted" horiz-adv-x="1241" 
d="M100 217l19 115l799 897h137l26 -35l-741 -836h588l61 390l129 49h43l-69 -439h118l-22 -141h-119l-33 -217h-164l33 217h-805z" />
    <glyph glyph-name="five.fitted" horiz-adv-x="1241" 
d="M381 1229h836l-21 -139h-688l-49 -306q132 52 297 52q225 0 338 -107q96 -86 96 -235q0 -233 -168 -375q-165 -142 -436 -142q-162 0 -269.5 39t-195.5 117l100 119q83 -72 167 -101.5t214 -29.5q197 0 313 96q51 46 80 113t29 143q0 91 -57 148q-80 77 -269 77
q-93 0 -163 -19.5t-168 -62.5l-78 46z" />
    <glyph glyph-name="six.fitted" horiz-adv-x="1241" 
d="M1231 1145l-80 -123q-149 86 -328 86t-286 -96q-101 -88 -148 -260q152 79 375 79q243 0 356 -110q90 -83 90 -223q0 -109 -46.5 -211t-133.5 -174q-161 -136 -414 -136q-233 0 -348 140q-94 117 -94 317q0 123 23 238.5t83.5 234t153.5 201.5q165 143 406 143
q231 0 391 -106zM358 614q-16 -85 -16 -172q0 -152 61 -227q76 -96 236 -96q174 0 285 96q54 47 86 115t32 143q0 84 -47 137q-71 80 -254 80q-116 0 -204 -18t-179 -58z" />
    <glyph glyph-name="seven.fitted" horiz-adv-x="1241" 
d="M272 893l56 336h985l-23 -129q-213 -192 -379 -422q-138 -192 -266 -457l-106 -221h-174l124 262q107 225 273 461q145 204 309 362h-606l-62 -192h-131z" />
    <glyph glyph-name="eight.fitted" horiz-adv-x="1241" 
d="M416 705q-50 31 -68 69q-31 48 -31 115q0 94 42.5 166t117.5 116q132 80 334 80q221 0 326 -88q71 -59 71 -168q0 -112 -71 -194q-47 -60 -103 -84q88 -38 133 -94q58 -71 58 -172q0 -216 -176 -349q-174 -125 -439 -125q-279 0 -399 123q-88 88 -88 217q0 167 117 275
q72 72 176 113zM872 758q93 31 134 90q38 53 38 125q0 58 -45 94q-62 49 -208 49q-147 0 -220 -45q-90 -56 -90 -166q0 -52 27 -82q50 -59 227 -59q75 0 137 -6zM551 639q-116 -36 -180 -100q-82 -85 -82 -193q0 -97 65 -153q89 -74 277 -74q205 0 321 94q105 84 105 215
q0 105 -94 156q-46 26 -103.5 34.5t-146.5 8.5q-91 0 -162 12z" />
    <glyph glyph-name="nine.fitted" horiz-adv-x="1241" 
d="M172 84l84 125q153 -88 326 -88q177 0 288 90q99 78 160 266q-75 -39 -176 -62.5t-203 -23.5q-227 0 -336 101q-104 97 -104 253q0 204 156 351q168 155 436 155q263 0 375 -166q67 -105 67 -284q0 -199 -63 -380t-199 -296q-164 -148 -418 -148q-228 0 -393 107z
M1061 614q18 100 18 181q0 127 -47 200q-71 113 -252 113q-186 0 -293 -92q-108 -94 -108 -242q0 -102 55 -164q73 -78 244 -78q115 0 203.5 20t179.5 62z" />
    <glyph glyph-name="zerooldstyle" horiz-adv-x="1236" 
d="M774 1042q215 0 342 -124q123 -123 123 -328q0 -289 -207 -473q-153 -135 -426 -135q-219 0 -346 127q-121 124 -121 329q0 273 197 453q167 151 438 151zM752 901q-199 0 -312 -110q-135 -129 -135 -340q0 -148 86 -240q85 -88 238 -88q179 0 291 92q155 131 155 358
q0 148 -78 236q-80 89 -245 92z" />
    <glyph glyph-name="oneoldstyle" horiz-adv-x="708" 
d="M238 762l-33 117l354 151l78 -8l-139 -889l127 -8l-19 -125h-512l19 123l219 10l110 701z" />
    <glyph glyph-name="twooldstyle" horiz-adv-x="1067" 
d="M78 0l22 139l625 357q100 59 143 112q56 72 56 146q0 56 -43 96q-58 49 -217 49q-201 0 -406 -90l-39 125q227 108 467 108q220 0 324 -86q77 -65 77 -176q0 -136 -92 -245q-81 -94 -204 -158l-420 -236h606l-21 -141h-878z" />
    <glyph glyph-name="threeoldstyle" horiz-adv-x="1099" 
d="M285 844l-35 123q203 75 426 75q175 0 272 -67q99 -69 99 -189q0 -85 -48 -155q-44 -59 -108 -92v-9q80 -30 123 -100q37 -61 37 -147q0 -99 -44 -188.5t-124 -155.5q-84 -69 -193.5 -106.5t-271.5 -37.5q-237 0 -389 84l73 125q67 -30 157.5 -48.5t170.5 -18.5
q226 0 344 96q51 40 81 101.5t30 129.5t-37 111q-61 67 -207 67h-295l23 140h258q128 0 188 49q64 51 64 131q0 69 -48 102q-58 41 -196 41q-90 0 -167.5 -13.5t-182.5 -47.5z" />
    <glyph glyph-name="fouroldstyle" horiz-adv-x="1159" 
d="M70 41l20 131l748 852h166l12 -20l-715 -820h528l56 348l51 23h115l-60 -371h119l-20 -133l-121 -10l-37 -227h-162l37 227h-737z" />
    <glyph glyph-name="fiveoldstyle" horiz-adv-x="1114" 
d="M264 453l-47 34l86 537h797l-23 -141h-647l-45 -281q125 25 252 25q245 0 354 -121q72 -81 72 -211q0 -214 -162 -358q-72 -65 -184 -102.5t-244 -37.5q-142 0 -237 25.5t-203 87.5l78 119q104 -51 183.5 -70.5t190.5 -19.5q89 0 170.5 23.5t132.5 64.5q50 43 78.5 105.5
t28.5 133.5q0 86 -43 137q-76 89 -240 89q-185 0 -348 -39z" />
    <glyph glyph-name="sixoldstyle" horiz-adv-x="1202" 
d="M1214 1145l-84 -123q-149 86 -325 86q-180 0 -287 -96q-100 -87 -147 -260q73 38 174.5 60t204.5 22q232 0 352 -111q90 -81 90 -225q0 -109 -45.5 -210t-132.5 -173q-78 -66 -185.5 -102t-228.5 -36q-252 0 -367 162q-75 109 -75 291q0 191 62 374t196 304
q158 143 405 143q230 0 393 -106zM340 614q-16 -91 -16 -176q0 -132 53 -211q69 -108 244 -108q179 0 288 94q52 46 83.5 118.5t31.5 149.5q0 78 -47 131q-68 80 -254 80q-115 0 -202.5 -19t-180.5 -59z" />
    <glyph glyph-name="sevenoldstyle" horiz-adv-x="1101" 
d="M172 690l53 334h973l-20 -131q-204 -171 -367 -397q-137 -193 -254 -447l-106 -235h-168l131 292q108 230 243 426q145 205 301 351h-604l-51 -193h-131z" />
    <glyph glyph-name="eightoldstyle" horiz-adv-x="1230" 
d="M1026 717q96 -38 143 -105q45 -62 45 -155q0 -210 -155 -336q-179 -139 -473 -139q-257 0 -377 104q-94 84 -94 229q0 139 80 238q69 86 202 147q-90 56 -90 174q0 163 142 259q140 96 352 96q181 0 291 -64q104 -63 104 -180q0 -188 -170 -268zM864 756q72 22 120 73.5
t48 124.5t-59 107q-68 37 -191 37q-167 0 -247 -68q-60 -48 -60 -133q0 -68 49 -94q56 -39 203 -39q80 0 137 -8zM545 639q-124 -43 -193 -115q-71 -77 -71 -186q0 -84 55 -139q46 -44 112.5 -61t159.5 -17q213 0 332 92q109 85 109 215q0 71 -41 115q-38 46 -107 65
t-194 19q-95 0 -162 12z" />
    <glyph glyph-name="nineoldstyle" horiz-adv-x="1202" 
d="M129 -100l82 125q153 -88 326 -88t288 86q106 84 158 245q-74 -38 -175.5 -60t-205.5 -22q-224 0 -340 105q-100 87 -100 237q0 223 174 371q79 68 187 105.5t231 37.5q264 0 372 -165q70 -103 70 -281q0 -126 -24.5 -241.5t-86.5 -231t-157 -193.5q-166 -137 -408 -137
q-233 0 -391 107zM1014 406q16 101 16 178q0 127 -47 202q-67 113 -252 113q-181 0 -289 -90q-52 -44 -82 -109.5t-30 -142.5q0 -92 43 -143q76 -86 256 -86q118 0 206 18.5t179 59.5z" />
    <glyph glyph-name="one.taboldstyle" horiz-adv-x="1230" 
d="M508 762l-33 117l354 151l78 -8l-139 -889l127 -8l-18 -125h-512l18 123l219 10l111 701z" />
    <glyph glyph-name="two.taboldstyle" horiz-adv-x="1230" 
d="M164 0l22 139l625 357q100 59 143 112q56 72 56 146q0 56 -43 96q-58 49 -217 49q-201 0 -406 -90l-39 125q227 108 467 108q220 0 324 -86q78 -66 78 -176q0 -135 -93 -245q-81 -94 -204 -158l-420 -236h606l-21 -141h-878z" />
    <glyph glyph-name="zero.taboldstyle" horiz-adv-x="1230" 
d="M772 1042q215 0 342 -124q123 -123 123 -328q0 -289 -207 -473q-153 -135 -426 -135q-219 0 -346 127q-121 124 -121 329q0 273 197 453q167 151 438 151zM750 901q-199 0 -312 -110q-135 -129 -135 -340q0 -148 86 -240q85 -88 238 -88q179 0 291 92q155 131 155 358
q0 148 -78 236q-80 89 -245 92z" />
    <glyph glyph-name="three.taboldstyle" horiz-adv-x="1230" 
d="M362 844l-34 123q203 75 426 75q175 0 272 -67q98 -68 98 -189q0 -87 -47 -155q-44 -59 -108 -92v-9q80 -30 123 -100q36 -59 36 -147q0 -99 -43.5 -188.5t-123.5 -155.5q-84 -69 -193.5 -106.5t-271.5 -37.5q-238 0 -390 84l74 125q67 -30 157.5 -48.5t170.5 -18.5
q226 0 344 96q51 40 81 101.5t30 129.5t-37 111q-61 67 -207 67h-295l22 140h259q128 0 188 49q63 50 63 131q0 69 -47 102q-58 41 -196 41q-91 0 -169 -13.5t-182 -47.5z" />
    <glyph glyph-name="four.taboldstyle" horiz-adv-x="1230" 
d="M106 41l21 131l747 852h166l13 -20l-715 -820h528l56 348l51 23h114l-59 -371h119l-21 -133l-120 -10l-37 -227h-162l37 227h-738z" />
    <glyph glyph-name="five.taboldstyle" horiz-adv-x="1230" 
d="M332 453l-47 34l86 537h796l-22 -141h-647l-45 -281q125 25 252 25q245 0 354 -121q71 -80 71 -211q0 -215 -161 -358q-72 -65 -184 -102.5t-244 -37.5q-142 0 -237.5 25.5t-203.5 87.5l78 119q104 -51 183.5 -70.5t191.5 -19.5q89 0 170.5 23.5t132.5 64.5
q50 43 78.5 105.5t28.5 133.5q0 86 -43 137q-76 89 -240 89q-185 0 -348 -39z" />
    <glyph glyph-name="six.taboldstyle" horiz-adv-x="1230" 
d="M1229 1145l-84 -123q-149 86 -326 86q-180 0 -287 -96q-100 -87 -147 -260q73 38 174.5 60t204.5 22q232 0 352 -111q90 -81 90 -225q0 -109 -45.5 -210t-132.5 -173q-78 -66 -185.5 -102t-228.5 -36q-251 0 -366 162q-76 110 -76 291q0 191 62 374t196 304
q158 143 406 143q230 0 393 -106zM354 614q-16 -91 -16 -176q0 -132 53 -211q69 -108 244 -108q180 0 289 94q52 46 83 118.5t31 149.5q0 78 -47 131q-68 80 -254 80q-115 0 -202.5 -19t-180.5 -59z" />
    <glyph glyph-name="seven.taboldstyle" horiz-adv-x="1230" 
d="M229 690l54 334h972l-20 -131q-204 -171 -367 -397q-137 -193 -254 -447l-106 -235h-168l131 292q106 226 244 426q145 205 301 351h-604l-52 -193h-131z" />
    <glyph glyph-name="eight.taboldstyle" horiz-adv-x="1230" 
d="M1026 717q96 -38 143 -105q45 -62 45 -155q0 -210 -155 -336q-179 -139 -473 -139q-257 0 -377 104q-94 84 -94 229q0 139 80 238q69 86 202 147q-90 56 -90 174q0 163 142 259q140 96 352 96q181 0 291 -64q104 -63 104 -180q0 -188 -170 -268zM864 756q72 22 120 73.5
t48 124.5t-59 107q-68 37 -191 37q-167 0 -247 -68q-60 -48 -60 -133q0 -68 49 -94q56 -39 203 -39q80 0 137 -8zM545 639q-124 -43 -193 -115q-71 -77 -71 -186q0 -84 55 -139q46 -44 112.5 -61t159.5 -17q213 0 332 92q109 85 109 215q0 71 -41 115q-38 46 -107 65
t-194 19q-95 0 -162 12z" />
    <glyph glyph-name="nine.taboldstyle" horiz-adv-x="1230" 
d="M137 -100l82 125q153 -88 326 -88q174 0 289 86q105 83 157 245q-74 -38 -175.5 -60t-205.5 -22q-224 0 -340 105q-100 87 -100 237q0 223 174 371q79 68 187 105.5t231 37.5q265 0 373 -165q69 -101 69 -281q0 -126 -24.5 -241.5t-86.5 -231t-157 -193.5
q-166 -137 -408 -137q-233 0 -391 107zM1022 406q16 101 16 178q0 127 -47 202q-67 113 -252 113q-180 0 -288 -90q-52 -44 -82.5 -110t-30.5 -142q0 -92 43 -143q76 -86 256 -86q118 0 206 18.5t179 59.5z" />
    <glyph glyph-name="currency.taboldstyle" horiz-adv-x="1230" 
d="M489 944l72 -82q82 45 184 45q103 0 170 -45l99 82l78 -90l-99 -82q27 -52 27 -117q0 -135 -82 -241l70 -84l-105 -92l-74 86q-82 -48 -184 -48q-103 0 -170 48l-98 -86l-74 92l92 84q-22 55 -22 116q0 134 80 242l-68 82zM727 786q-100 0 -164.5 -64.5t-64.5 -170.5
q0 -76 41.5 -115t119.5 -39q102 0 167 66.5t65 171.5q0 75 -42 113t-122 38z" />
    <glyph glyph-name="centoldstyle" horiz-adv-x="1091" 
d="M754 1174h127l-15 -134q177 -7 293 -63l-63 -123q-124 47 -303 47q-205 0 -322 -94q-162 -134 -162 -358q0 -149 88 -234q90 -90 273 -90q78 0 170 13.5t157 37.5l27 -127q-139 -59 -328 -65l-28 -156h-127l16 160q-188 20 -287 116q-129 119 -129 322q0 294 221 475
q140 115 363 137z" />
    <glyph glyph-name="dollaroldstyle" horiz-adv-x="1140" 
d="M668 1176h133l-15 -136q193 -6 357 -69l-56 -127q-177 59 -368 59q-222 0 -307 -49q-58 -36 -58 -98q0 -44 25.5 -70.5t59.5 -36t91 -16.5l261 -35q182 -26 260 -102q59 -62 59 -154q0 -184 -168 -276q-119 -68 -332 -82l-30 -152h-131l12 152q-219 6 -365 77l62 127
q176 -65 374 -65q138 0 218.5 15.5t128.5 51.5q69 54 69 127q0 69 -47.5 96.5t-146.5 39.5l-271 36q-174 23 -241 99q-52 58 -52 147q0 64 30.5 120t84.5 93q62 42 140 63t192 27z" />
    <glyph glyph-name="cent.taboldstyle" horiz-adv-x="1230" 
d="M819 1174h127l-14 -134q177 -7 293 -63l-64 -123q-124 47 -303 47q-204 0 -321 -94q-162 -134 -162 -358q0 -149 88 -234q90 -90 272 -90q78 0 171 13.5t157 37.5l27 -127q-139 -59 -328 -65l-29 -156h-127l17 160q-188 20 -287 116q-129 119 -129 322q0 294 221 475
q140 115 363 137z" />
    <glyph glyph-name="dollar.taboldstyle" horiz-adv-x="1230" 
d="M721 1176h133l-14 -136q192 -6 356 -69l-55 -127q-177 59 -369 59q-222 0 -307 -49q-57 -35 -57 -98q0 -44 25.5 -70.5t59.5 -36t91 -16.5l260 -35q182 -26 260 -102q59 -62 59 -154q0 -184 -168 -276q-119 -68 -331 -82l-31 -152h-131l12 152q-218 6 -364 77l61 127
q176 -65 375 -65q138 0 218 15.5t128 51.5q69 54 69 127q0 69 -47.5 96.5t-146.5 39.5l-270 36q-175 24 -242 99q-51 57 -51 147q0 64 30 120t84 93q62 42 140 63t192 27z" />
    <glyph glyph-name="Euro.taboldstyle" horiz-adv-x="1224" 
d="M156 469h735l-17 -111h-475q15 -93 72 -147q83 -86 283 -86q178 0 317 51l25 -127q-162 -67 -371 -67q-265 0 -395 133q-89 99 -101 243h-92zM186 668h88q57 141 181 241q169 133 438 133q212 0 348 -65l-61 -123q-127 47 -303 47q-197 0 -312 -88q-76 -59 -119 -145h476
l-17 -111h-735z" />
    <glyph glyph-name="yen.taboldstyle" horiz-adv-x="1230" 
d="M299 295l178 12l-287 717h189l268 -717h15l503 717h187l-514 -717l174 -12l-19 -111h-710zM270 117h713l-18 -105l-273 -12l-30 -190h-166l30 190l-272 12z" />
    <glyph glyph-name="numbersign.taboldstyle" horiz-adv-x="1230" 
d="M385 121l47 201h-190l18 110h203l35 143h-215l18 111h225l54 215l114 -10l-51 -205h162l53 215l115 -10l-51 -205h206l-18 -111h-217l-35 -143h229l-18 -110h-240l-53 -211l-112 10l47 201h-158l-53 -211zM616 575l-34 -143h159l35 143h-160z" />
    <glyph glyph-name="dollarinferior" horiz-adv-x="571" 
d="M317 539h82l-4 -58q96 -8 156 -35l-39 -79q-27 11 -77.5 18.5t-86.5 7.5q-65 0 -108 -14q-33 -17 -33 -41q0 -14 10.5 -23t20.5 -11t30 -5l109 -14q65 -6 108 -33q45 -28 45 -92q0 -43 -22.5 -80t-63.5 -60q-57 -31 -129 -36l-14 -68h-82l2 68q-92 4 -158 36l35 78
q72 -26 170 -26q77 0 121 16q43 17 43 57q0 24 -22.5 34t-61.5 16l-121 16q-67 10 -94 41q-27 30 -27 67q0 71 57 110.5t140 47.5z" />
    <glyph glyph-name="hyphensuperior" horiz-adv-x="393" 
d="M207 1049h274l-12 -91h-274z" />
    <glyph glyph-name="commasuperior" horiz-adv-x="249" 
d="M168 627l25 84q-27 10 -27 43t21 55t57 22q27 0 42 -15t15 -38q0 -20 -12 -41l-68 -123z" />
    <glyph glyph-name="periodsuperior" horiz-adv-x="249" 
d="M242 831q28 0 42.5 -15t14.5 -40q0 -30 -21.5 -50.5t-54.5 -20.5q-27 0 -42 13.5t-15 35.5q0 33 21 55t55 22z" />
    <glyph glyph-name="centsuperior" horiz-adv-x="491" 
d="M410 1163h71l-2 -47q56 -6 111 -31l-37 -71q-48 18 -121 18q-64 0 -102 -35q-41 -44 -41 -112q0 -48 20 -68q28 -31 84 -31q54 0 127 27l19 -72q-54 -29 -127 -39l-13 -47h-71v50q-61 11 -103 53q-41 44 -41 121q0 113 90 186q47 39 119 51z" />
    <glyph glyph-name="dollarsuperior" horiz-adv-x="571" 
d="M420 1264h84l-6 -60q88 -4 157 -33l-41 -79q-26 11 -76 18.5t-85 7.5q-73 0 -109 -14q-32 -11 -35 -41q0 -18 15 -27q5 -4 47 -12l110 -14q58 -6 107 -33q47 -29 47 -92q0 -92 -88 -140q-57 -31 -127 -36l-17 -68h-81l4 68q-92 4 -160 36l35 78q76 -26 170 -26
q80 0 121 16q45 18 45 55q0 24 -21.5 34.5t-62.5 15.5l-121 18q-64 9 -96 41q-25 29 -25 65q0 39 21.5 73t58.5 54q53 28 115 33z" />
    <glyph glyph-name="hypheninferior" horiz-adv-x="393" 
d="M104 322h275l-14 -91h-275z" />
    <glyph glyph-name="commainferior" horiz-adv-x="249" 
d="M66 -100l22 84q-27 10 -27 43t21.5 55t58.5 22q27 0 42.5 -14.5t15.5 -38.5q0 -23 -15 -41l-67 -123z" />
    <glyph glyph-name="periodinferior" horiz-adv-x="249" 
d="M139 104q27 0 42.5 -14.5t15.5 -36.5q0 -32 -21 -54t-57 -22q-27 0 -41.5 15t-14.5 39q0 31 22 52t54 21z" />
    <glyph glyph-name="centinferior" horiz-adv-x="491" 
d="M305 444h72v-49q58 -6 110 -30l-36 -72q-53 20 -121 20q-66 0 -105 -39t-39 -108q0 -49 21 -70q25 -28 84 -28q62 0 127 26l18 -74q-58 -30 -127 -36l-12 -47h-72v47q-60 11 -102 53q-41 44 -41 121q0 112 84 182q49 43 125 55z" />
    <glyph glyph-name="zero.denominator" horiz-adv-x="901" 
d="M399 702q-82 -52 -119.5 -154t-37.5 -222q0 -132 67 -183q56 -43 150 -43q96 0 162 43q82 50 119.5 152t37.5 221q0 132 -67 186q-60 43 -152 43t-160 -43zM911 526q0 -146 -59 -279.5t-178 -203.5q-95 -57 -236 -57q-133 0 -211 57q-118 84 -118 274q0 146 59 280
t178 206q98 57 232 57q139 0 215 -57q118 -84 118 -277z" />
    <glyph glyph-name="one.denominator" horiz-adv-x="573" 
d="M272 111l93 581l-150 -57l-27 96l271 125l65 -12l-116 -731l108 -11l-16 -102h-389l16 102z" />
    <glyph glyph-name="two.denominator" horiz-adv-x="849" 
d="M309 119h463l-18 -119h-674l16 113l463 284q79 52 109 82q57 64 57 133q0 54 -35 84q-46 49 -153 49q-139 0 -299 -94l-45 99q94 58 180 85t184 27q170 0 248 -84q51 -57 51 -141q0 -126 -80 -215q-49 -57 -170 -131z" />
    <glyph glyph-name="three.denominator" horiz-adv-x="874" 
d="M743 494q46 -25 70 -66q31 -48 31 -106q0 -170 -146 -263q-110 -73 -284 -73q-229 0 -346 114l79 93q66 -49 130.5 -70t150.5 -21q132 0 211 60q72 58 72 145q0 41 -21 68q-38 41 -112 41h-287l18 114h262q66 0 107 41q31 34 31 80t-35 66q-44 31 -142 31
q-150 0 -282 -76l-45 94q158 96 352 96q144 0 219 -53q68 -48 68 -133q0 -110 -101 -182z" />
    <glyph glyph-name="four.denominator" horiz-adv-x="866" 
d="M614 150h-557l17 96l557 602h114l11 -37l-502 -545h381l41 266l74 25h59l-45 -291h78l-19 -102l-80 -14l-20 -150h-131z" />
    <glyph glyph-name="five.denominator" horiz-adv-x="833" 
d="M807 729h-463l-29 -174q88 29 185 29q158 0 237 -76q70 -67 70 -170q0 -173 -145 -281q-104 -71 -277 -71q-101 0 -177 25.5t-140 86.5l79 97q60 -51 118 -73t138 -22q121 0 189 54q37 27 59.5 71.5t22.5 96.5q0 68 -45 104q-51 43 -162 43q-61 0 -125 -18
q-42 -11 -100 -39l-66 30l66 404h583z" />
    <glyph glyph-name="six.denominator" horiz-adv-x="860" 
d="M258 418q-6 -33 -6 -96q0 -91 29 -140q44 -80 161 -80q107 0 174 50q84 61 84 176q0 65 -41 100q-45 37 -151 37q-143 0 -250 -47zM287 535q122 49 239 49q166 0 248 -76q60 -60 60 -156q0 -79 -32 -152.5t-95 -123.5q-112 -90 -285 -90q-171 0 -248 110q-55 78 -55 211
q0 134 42 250.5t124 192.5q122 112 305 112q77 0 136 -18.5t126 -61.5l-64 -98q-53 34 -101.5 47.5t-113.5 13.5q-116 0 -186 -55q-61 -50 -100 -155z" />
    <glyph glyph-name="seven.denominator" horiz-adv-x="798" 
d="M670 729h-381l-33 -129h-109l39 248h680l-16 -105q-146 -134 -250 -278q-101 -137 -184 -301l-84 -164h-144l99 197q74 152 184 301q90 125 199 231z" />
    <glyph glyph-name="eight.denominator" horiz-adv-x="868" 
d="M385 428q-82 -26 -122 -70t-40 -120q0 -62 41 -95q56 -43 178 -43q123 0 195 50q34 23 56 60t22 81q0 54 -37 86q-47 45 -184 45q-76 0 -109 6zM604 532q42 13 71.5 46t29.5 75q0 35 -19 58q-37 37 -141 37q-93 0 -144 -33q-49 -30 -49 -92q0 -23 10 -43q13 -19 37 -27
q39 -14 113 -14q38 0 92 -7zM270 483q-51 48 -51 119q0 111 84 180q103 80 260 80q138 0 213 -59q60 -46 60 -123q0 -62 -23.5 -105.5t-77.5 -76.5q65 -32 90 -80q25 -45 25 -99q0 -71 -30.5 -137t-88.5 -110q-112 -86 -307 -86q-183 0 -266 75q-68 61 -68 160q0 98 57 170
q44 57 123 92z" />
    <glyph glyph-name="nine.denominator" horiz-adv-x="858" 
d="M719 430q10 58 10 109q0 94 -47 147q-49 59 -145 59q-111 0 -185 -59q-73 -63 -73 -160q0 -54 30 -92q53 -53 164 -53q140 0 246 49zM692 309q-110 -49 -239 -49q-167 0 -252 88q-56 56 -56 154q0 136 95 239q113 121 317 121q144 0 225 -90q78 -84 78 -223
q0 -141 -45.5 -265t-138.5 -202q-117 -96 -283 -96q-155 0 -276 80l67 100q110 -64 226 -64q109 0 180 56q66 49 102 151z" />
    <glyph glyph-name="period.denominator" horiz-adv-x="317" 
d="M180 170q42 0 65 -21.5t23 -56.5q0 -45 -32.5 -74.5t-83.5 -29.5q-40 0 -62 19.5t-22 53.5q0 44 31.5 76.5t80.5 32.5z" />
    <glyph glyph-name="comma.denominator" horiz-adv-x="315" 
d="M76 -127l37 119q-45 12 -45 63q0 49 30 82t82 33q43 0 65.5 -21.5t22.5 -56.5q0 -28 -18 -63l-100 -179z" />
    <glyph glyph-name="dollar.denominator" horiz-adv-x="845" 
d="M502 918h108l-12 -101q142 -10 248 -59l-49 -103q-127 45 -252 45q-136 0 -207 -32q-62 -28 -62 -82q0 -40 29.5 -57t91.5 -25l187 -27q123 -15 182 -69q55 -48 55 -125q0 -71 -36.5 -133t-100.5 -99q-47 -26 -94 -40t-121 -17l-29 -121h-106l10 115q-149 0 -272 51
l49 108q134 -41 260 -41q99 0 157.5 11t98.5 43q47 37 47 100q0 25 -9 41.5t-31 26.5t-41.5 14t-57.5 10l-207 31q-98 12 -152 66q-43 43 -43 114q0 113 95 178q84 60 237 74z" />
    <glyph glyph-name="cent.denominator" horiz-adv-x="768" 
d="M508 799h104l-10 -86q111 -6 197 -47l-51 -97q-95 33 -209 33q-130 0 -205 -63q-49 -39 -75 -103t-26 -137q0 -81 50 -131q59 -62 176 -62q123 0 221 33l18 -96q-90 -42 -209 -49l-22 -103h-102l8 105q-60 6 -113 29.5t-86 56.5q-72 82 -72 207q0 89 33.5 171.5
t97.5 139.5q98 92 254 113z" />
    <glyph glyph-name="parenleft.denominator" horiz-adv-x="360" 
d="M449 926q-100 -144 -156.5 -317.5t-56.5 -334.5q0 -188 61 -313l-109 -55q-82 158 -82 356q0 193 65 379.5t187 337.5z" />
    <glyph glyph-name="parenright.denominator" horiz-adv-x="360" 
d="M188 924l109 55q80 -157 80 -371q0 -398 -250 -702l-90 55q103 136 157 299.5t54 335.5q0 199 -60 328z" />
    <glyph glyph-name="hyphen.denominator" horiz-adv-x="544" 
d="M133 508h426l-18 -115h-426z" />
    <glyph glyph-name="zero.numerator" horiz-adv-x="901" 
d="M459 1094q-81 -52 -119.5 -155t-38.5 -222q0 -128 70 -182q54 -41 147 -41q97 0 162 41q82 50 120 152.5t38 219.5q0 132 -68 187q-60 43 -152 43q-88 0 -159 -43zM971 918q0 -146 -59.5 -280t-178.5 -204q-95 -57 -233 -57q-136 0 -213 59q-119 82 -119 273
q0 146 59 279.5t179 205.5q97 59 233 59q137 0 215 -57q117 -84 117 -278z" />
    <glyph glyph-name="one.numerator" horiz-adv-x="573" 
d="M328 500l92 575l-150 -49l-26 94l272 125l59 -12l-116 -731l110 -10l-16 -103h-387l16 103z" />
    <glyph glyph-name="two.numerator" horiz-adv-x="849" 
d="M362 508h463l-18 -119h-674l17 113l462 284q74 46 109 84q57 57 57 134q0 48 -33 81q-50 50 -155 50q-137 0 -299 -95l-45 99q181 112 364 112q173 0 248 -84q53 -56 53 -143q0 -122 -77 -207q-53 -64 -175 -135z" />
    <glyph glyph-name="three.numerator" horiz-adv-x="874" 
d="M799 885q41 -22 73 -74q27 -52 27 -100q0 -169 -143 -262q-114 -74 -287 -74q-229 0 -346 114l80 95q65 -51 129 -71.5t151 -20.5q132 0 209 59q74 57 74 147q0 40 -23 66q-37 43 -110 43h-287l19 113h262q60 0 104 41q33 33 33 79t-33 66q-43 31 -143 31
q-150 0 -283 -74l-45 92q158 96 352 96q148 0 219 -53q68 -45 68 -131q0 -114 -100 -182z" />
    <glyph glyph-name="four.numerator" horiz-adv-x="866" 
d="M670 541h-557l16 94l557 602h115l10 -37l-502 -545h379l43 267l74 24h59l-45 -291h78l-18 -102l-80 -12l-23 -152h-129z" />
    <glyph glyph-name="five.numerator" horiz-adv-x="833" 
d="M862 1120h-465l-26 -176q95 31 184 31q160 0 238 -78q69 -63 69 -168q0 -84 -38 -156.5t-109 -123.5q-102 -74 -275 -74q-198 0 -317 114l80 95q57 -50 116 -71t140 -21q120 0 188 51q82 65 82 170q0 69 -47 104q-48 43 -160 43q-48 0 -125 -18q-58 -19 -100 -39l-66 31
l66 403h584z" />
    <glyph glyph-name="six.numerator" horiz-adv-x="860" 
d="M311 807q-6 -50 -6 -94q0 -85 29 -142q44 -79 162 -79q108 0 174 49q84 61 84 176q0 65 -41 100q-45 37 -152 37q-143 0 -250 -47zM340 924q114 49 240 49q165 0 247 -76q60 -60 60 -156q0 -79 -32 -152.5t-95 -123.5q-112 -90 -285 -90q-169 0 -248 110q-55 80 -55 211
q0 134 42 250.5t124 192.5q122 112 305 112q78 0 137.5 -18.5t124.5 -61.5l-63 -96q-53 33 -102 46.5t-113 13.5q-116 0 -187 -56q-61 -50 -100 -155z" />
    <glyph glyph-name="seven.numerator" horiz-adv-x="798" 
d="M727 1120h-381l-35 -131h-108l39 248h680l-17 -104q-135 -123 -250 -279q-101 -137 -184 -301l-84 -164h-143l98 197q74 152 184 301q101 136 201 233z" />
    <glyph glyph-name="eight.numerator" horiz-adv-x="868" 
d="M440 817q-77 -19 -114 -59q-47 -50 -47 -131q0 -63 43 -95q52 -40 176 -40q127 0 194 47q34 23 56 61t22 82q0 54 -37 86q-50 45 -184 45q-76 0 -109 4zM659 924q39 9 68 41q33 33 33 77q0 40 -21 58q-36 39 -141 39q-90 0 -141 -33q-49 -34 -49 -96q0 -54 45 -66
q40 -16 112 -16q32 0 94 -4zM326 874q-52 46 -52 117q0 111 84 180q99 80 260 80q140 0 213 -57q60 -50 60 -125q0 -61 -23.5 -104t-76.5 -78q67 -33 90 -80q24 -43 24 -100q0 -70 -30.5 -136t-88.5 -110q-116 -86 -307 -86q-181 0 -268 76q-66 60 -66 159q0 102 60 174
q41 53 121 90z" />
    <glyph glyph-name="nine.numerator" horiz-adv-x="858" 
d="M774 819q10 92 10 113q0 94 -41 143q-52 60 -151 60q-109 0 -184 -60q-74 -61 -74 -162q0 -48 28 -88q52 -55 166 -55q140 0 246 49zM745 698q-105 -47 -237 -47q-171 0 -254 86q-53 56 -53 154q0 138 94 239q113 121 315 121q155 0 232 -84q73 -79 73 -225
q0 -136 -43 -263.5t-139 -209.5q-113 -94 -284 -94q-152 0 -277 80l68 100q114 -63 225 -63q106 0 180 55q64 47 100 151z" />
    <glyph glyph-name="parenleft.numerator" horiz-adv-x="360" 
d="M416 1372l88 -53q-102 -135 -156.5 -297.5t-54.5 -333.5q0 -192 61 -334l-110 -55q-82 158 -82 373q0 189 64.5 369t189.5 331z" />
    <glyph glyph-name="parenright.numerator" horiz-adv-x="360" 
d="M246 1317l108 55q78 -170 78 -379q0 -381 -250 -694l-88 53q209 321 209 629q0 208 -57 336z" />
    <glyph glyph-name="cent.numerator" horiz-adv-x="768" 
d="M565 1192h103l-9 -86q104 -6 195 -47l-51 -96q-92 32 -207 32q-130 0 -205 -63q-49 -39 -74.5 -103t-25.5 -139q0 -79 45 -127q59 -65 178 -65q122 0 223 34l17 -98q-78 -38 -207 -49l-25 -100h-102l8 102q-128 16 -197 88q-71 80 -71 207q0 89 34.5 174t100.5 143
q94 85 250 107z" />
    <glyph glyph-name="dollar.numerator" horiz-adv-x="845" 
d="M557 1311h109l-11 -101q142 -10 248 -59l-49 -102q-127 45 -252 45q-133 0 -209 -33q-59 -29 -59 -82q0 -40 29 -57t92 -25l186 -27q121 -15 182 -69q56 -53 56 -125q0 -71 -37 -133t-101 -99q-49 -26 -96 -40.5t-119 -18.5l-28 -119h-109l10 115q-146 0 -272 51l51 109
q124 -41 260 -41q100 0 158 10.5t98 42.5q21 15 33 42t12 56q0 21 -7.5 36.5t-17 24.5t-30.5 15.5t-36.5 10t-45.5 7.5l-209 31q-98 13 -147 64q-47 44 -47 116q0 113 96 179q85 61 237 71z" />
    <glyph glyph-name="hyphen.numerator" horiz-adv-x="544" 
d="M190 909h426l-18 -114h-426z" />
    <glyph glyph-name="comma.numerator" horiz-adv-x="315" 
d="M131 266l37 119q-47 12 -47 66q0 47 32 79.5t85 32.5q42 0 65 -20.5t23 -53.5q0 -35 -21 -67l-100 -178z" />
    <glyph glyph-name="period.numerator" horiz-adv-x="317" 
d="M236 559q43 0 65.5 -21t22.5 -55q0 -45 -33 -75.5t-84 -30.5q-39 0 -61.5 20.5t-22.5 53.5q0 44 31.5 76t81.5 32z" />
    <glyph glyph-name="Cedilla" horiz-adv-x="565" 
d="M190 27h119l-24 -105q61 0 96 -28q35 -27 35 -80q0 -100 -92 -172q-88 -68 -230 -88l-22 84q106 28 149 61q58 37 58 96q0 21 -13 27q-11 8 -33 8h-51l-22 20z" />
    <glyph glyph-name="Ogonek" horiz-adv-x="495" 
d="M246 33l63 -33q-34 -17 -55 -53q-23 -38 -23 -80q0 -47 19 -74q26 -44 78 -74l-54 -69q-82 22 -131 74q-41 48 -41 112q0 80 52 135q33 39 92 62z" />
    <glyph glyph-name="Imacron" horiz-adv-x="432" 
d="M315 1229h170l-194 -1229h-170zM113 1501h665l-22 -133h-666z" />
    <glyph glyph-name="a.sc" horiz-adv-x="1331" 
d="M731 1106h213l316 -1106h-164l-66 213h-678l-133 -213h-174zM799 958l-363 -608h559l-168 608h-28z" />
    <glyph glyph-name="afii10055" horiz-adv-x="436" 
d="M315 1229h170l-194 -1229h-170z" />
    <glyph glyph-name="b.sc" horiz-adv-x="1198" 
d="M297 1106h557q87 0 145 -15.5t103 -52.5q74 -61 74 -172q0 -90 -58 -170q-40 -53 -90 -80v-8q70 -37 102 -92q35 -52 35 -137q0 -161 -116 -264q-64 -57 -144 -86t-198 -29h-584zM371 528l-62 -389h422q120 0 197 68q71 65 71 162q0 68 -41 112q-44 47 -127 47h-460z
M438 971l-47 -312h443q74 0 127 56q49 52 49 123q0 53 -29 86q-44 47 -125 47h-418z" />
    <glyph glyph-name="c.sc" horiz-adv-x="1183" 
d="M1249 1051l-69 -125q-135 53 -322 53q-213 0 -356 -115q-82 -68 -128 -172t-46 -233q0 -136 73 -221q94 -107 320 -107q192 0 342 59l29 -133q-170 -75 -398 -75q-286 0 -426 149q-110 116 -110 309q0 159 60 293.5t171 227.5q196 163 485 163q226 0 375 -73z" />
    <glyph glyph-name="d.sc" horiz-adv-x="1230" 
d="M297 1106h424q274 0 403 -129q115 -109 115 -309q0 -327 -219 -516q-89 -78 -201 -115t-268 -37h-428zM440 967l-129 -826h269q216 0 352 133q141 141 141 371q0 162 -84 240q-91 82 -287 82h-262z" />
    <glyph glyph-name="e.sc" horiz-adv-x="1136" 
d="M297 1106h891l-23 -135h-727l-49 -318h649l-22 -137h-649l-60 -377h754l-23 -139h-915z" />
    <glyph glyph-name="f.sc" horiz-adv-x="1087" 
d="M297 1106h874l-22 -137h-711l-55 -357h590l-23 -137h-590l-73 -475h-164z" />
    <glyph glyph-name="g.sc" horiz-adv-x="1273" 
d="M784 522l21 125h438l-100 -647h-111l-22 72q-161 -90 -371 -90q-278 0 -406 172q-86 116 -86 280q0 337 250 533q199 157 484 157q224 0 379 -86l-72 -120q-143 63 -328 63q-227 0 -373 -125q-80 -68 -125 -166t-45 -217q0 -139 60 -225q86 -123 291 -123q170 0 344 80
l49 303z" />
    <glyph glyph-name="h.sc" horiz-adv-x="1275" 
d="M297 1106h164l-70 -442h684l72 442h164l-174 -1106h-166l82 522h-684l-82 -522h-164z" />
    <glyph glyph-name="i.sc" horiz-adv-x="430" 
d="M297 1106h168l-174 -1106h-168z" />
    <glyph glyph-name="j.sc" horiz-adv-x="960" 
d="M846 1106h164l-105 -657q-36 -223 -178 -343q-76 -65 -168.5 -94.5t-218.5 -29.5q-179 0 -281 55l60 131q107 -45 219 -45q97 0 160 21t116 67q105 91 134 278z" />
    <glyph glyph-name="k.sc" horiz-adv-x="1230" 
d="M297 1106h164l-72 -447h295l428 447h197l-490 -514l326 -592h-187l-280 520h-309l-82 -520h-164z" />
    <glyph glyph-name="l.sc" horiz-adv-x="1079" 
d="M297 1106h166l-154 -967h695l-21 -139h-860z" />
    <glyph glyph-name="m.sc" horiz-adv-x="1527" 
d="M303 1106h238l233 -944l535 944h247l-172 -1106h-163l147 905h-10l-516 -905h-185l-225 905h-8l-143 -905h-154z" />
    <glyph glyph-name="n.sc" horiz-adv-x="1280" 
d="M297 1106h168l551 -879l137 879h162l-174 -1106h-168l-551 885l-139 -885h-160z" />
    <glyph glyph-name="o.sc" horiz-adv-x="1331" 
d="M834 1124q129 0 231 -42.5t164 -118.5q46 -54 73 -138.5t27 -177.5q0 -143 -56.5 -276.5t-168.5 -231.5q-185 -157 -451 -157q-256 0 -389 155q-104 122 -104 322q0 145 57 277t170 229q87 75 202 117t245 42zM813 987q-193 0 -324 -121q-161 -145 -161 -397
q0 -154 75 -244q90 -104 273 -104q191 0 319 115q82 74 125 179t43 224q0 72 -19 136t-52 102q-90 110 -279 110z" />
    <glyph glyph-name="p.sc" horiz-adv-x="1171" 
d="M297 1106h528q102 0 180 -31.5t121 -89.5q68 -84 68 -211q0 -216 -158 -344q-136 -115 -348 -115h-352l-51 -315h-162zM436 969l-80 -514h342q138 0 226 71q50 40 78 102t28 134q0 97 -57 151q-59 56 -166 56h-371z" />
    </font>
</defs>
</svg>
