<?xml version="1.0" standalone="no"?>
<!DOCTYPE svg PUBLIC "-//W3C//DTD SVG 1.1//EN" "http://www.w3.org/Graphics/SVG/1.1/DTD/svg11.dtd" >
<svg xmlns="http://www.w3.org/2000/svg" xmlns:xlink="http://www.w3.org/1999/xlink" version="1.1">
<metadata>
Created by FontForge 20201107 at Fri Mar  7 12:35:50 2025
 By 
Copyright (c) 2012 by Glenjan. All rights reserved.
</metadata>
<defs>
<font id="EchoesSans-Thin" horiz-adv-x="1228" >
  <font-face 
    font-family="Echoes Sans"
    font-weight="250"
    font-stretch="normal"
    units-per-em="2048"
    panose-1="2 0 5 6 0 0 0 2 0 4"
    ascent="1536"
    descent="-512"
    x-height="1024"
    cap-height="1229"
    bbox="-381 -457 3629 1757"
    underline-thickness="102"
    underline-position="-204"
    unicode-range="U+0020-FB04"
  />
<missing-glyph horiz-adv-x="964" 
d="M483 457q55 0 85.5 4.5t74.5 21.5l25 -63q-53 -21 -90.5 -29t-92.5 -8q-109 0 -168 41q-57 42 -57 106q0 38 19.5 66.5t54.5 40.5v8q-22 9 -34.5 30t-12.5 46q0 60 45 90q50 37 151 37q85 0 170 -35l-26 -61q-67 22 -140 22q-32 0 -52.5 -2.5t-39 -15.5t-18.5 -37
q0 -51 67 -51h152v-72h-166q-80 0 -80 -64q0 -34 27 -51q31 -24 106 -24zM793 616q0 149 -80 236q-81 84 -228 84q-160 0 -235 -84q-80 -80 -80 -236q0 -142 74 -225q86 -92 241 -92q158 0 236 88q72 81 72 229zM92 614q0 181 105 289q104 107 286 107q170 0 277 -99
q112 -106 112 -297q0 -163 -92 -272q-98 -121 -297 -121q-184 0 -284 105q-107 110 -107 288z" />
    <glyph glyph-name="i_j" unicode="ij" horiz-adv-x="765" 
d="M528 -20v1044h123v-1044q0 -161 -90 -254q-97 -105 -280 -105q-171 0 -314 90l47 88q68 -36 126 -50.5t134 -14.5q129 0 195 69q59 62 59 177zM590 1384q48 0 74 -26.5t26 -69.5q0 -41 -26 -67.5t-74 -26.5t-74.5 26.5t-26.5 67.5q0 43 26.5 69.5t74.5 26.5zM51 934v90
h252v-1024h-123v924zM242 1384q48 0 75 -26.5t27 -69.5q0 -41 -27 -67.5t-75 -26.5q-46 0 -73.5 26.5t-27.5 67.5q0 42 27.5 69t73.5 27z" />
    <glyph glyph-name="l_j" unicode="lj" horiz-adv-x="727" 
d="M481 -20v1044h123v-1044q0 -161 -90 -254q-97 -105 -281 -105q-170 0 -313 90l47 88q68 -36 126 -50.5t134 -14.5q129 0 195 69q59 62 59 177zM543 1384q48 0 74 -26.5t26 -69.5q0 -41 -26 -67.5t-74 -26.5t-74.5 26.5t-26.5 67.5q0 43 26.5 69.5t74.5 26.5zM4 1249v82
h252v-1331h-123v1231z" />
    <glyph glyph-name="ff" unicode="ff" horiz-adv-x="1372" 
d="M629 1434q179 0 319 -80q103 80 266 80q199 0 355 -101l-53 -80q-142 68 -302 68q-138 0 -204 -66q-58 -58 -58 -165v-66h389v-94l-389 -17v-913h-123v913h-462v-913h-123v911h-193v93l193 16v70q0 141 86 233q103 111 299 111zM829 1090q0 106 50 186q-115 45 -250 45
q-139 0 -205 -66q-57 -57 -57 -165v-66h462v66z" />
    <glyph glyph-name="fi" unicode="fi" horiz-adv-x="1062" 
d="M629 1434q198 0 354 -101l-53 -80q-142 68 -301 68q-139 0 -205 -66q-57 -57 -57 -165v-66h563v-1024h-123v924l-70 4l-370 -15v-913h-123v913h-193v91l193 16v70q0 141 86 233q103 111 299 111z" />
    <glyph glyph-name="fl" unicode="fl" horiz-adv-x="1062" 
d="M629 1434q169 0 301 -70v-1364h-123v1298q-82 23 -178 23q-139 0 -205 -66q-57 -57 -57 -165v-66h372v-94l-372 -17v-913h-123v913h-193v91l193 16v70q0 141 86 233q103 111 299 111z" />
    <glyph glyph-name="ffi" unicode="ffi" horiz-adv-x="1648" 
d="M1214 1434q199 0 355 -101l-53 -80q-142 68 -302 68q-138 0 -204 -66q-58 -58 -58 -165v-66h564v-1024h-123v924l-70 4l-371 -15v-913h-123v913h-462v-913h-123v911h-193v93l193 16v70q0 141 86 233q103 111 299 111q179 0 319 -80q103 80 266 80zM829 1090q0 106 50 186
q-115 45 -250 45q-139 0 -205 -66q-57 -57 -57 -165v-66h462v66z" />
    <glyph glyph-name="ffl" unicode="ffl" horiz-adv-x="1648" 
d="M629 1434q179 0 319 -80q103 80 266 80q170 0 302 -70v-1364h-123v1298q-82 23 -179 23q-138 0 -204 -66q-58 -58 -58 -165v-66h373v-94l-373 -17v-913h-123v913h-462v-913h-123v911h-193v93l193 16v70q0 141 86 233q103 111 299 111zM829 1090q0 106 50 186
q-115 45 -250 45q-139 0 -205 -66q-57 -57 -57 -165v-66h462v66z" />
    <glyph glyph-name="f_f_j" unicode="ffj" horiz-adv-x="1648" 
d="M629 1434q179 0 319 -80q103 80 266 80q199 0 355 -101l-53 -80q-142 68 -302 68q-138 0 -204 -66q-58 -58 -58 -165v-66h564v-1044q0 -160 -91 -254q-97 -105 -280 -105q-171 0 -314 90l48 88q68 -36 126 -50.5t134 -14.5q128 0 194 69q60 63 60 177v944l-70 4l-371 -15
v-913h-123v913h-462v-913h-123v911h-193v93l193 16v70q0 141 86 233q103 111 299 111zM829 1090q0 106 50 186q-115 45 -250 45q-139 0 -205 -66q-57 -57 -57 -165v-66h462v66z" />
    <glyph glyph-name="f_j" unicode="fj" horiz-adv-x="1062" 
d="M629 1434q198 0 354 -101l-53 -80q-142 68 -301 68q-139 0 -205 -66q-57 -57 -57 -165v-66h563v-1044q0 -161 -90 -254q-97 -105 -281 -105q-170 0 -313 90l47 88q68 -36 126 -50.5t134 -14.5q129 0 195 69q59 62 59 177v944l-70 4l-370 -15v-913h-123v913h-193v91
l193 16v70q0 141 86 233q103 111 299 111z" />
    <glyph glyph-name="i_l" unicode="il" horiz-adv-x="774" 
d="M528 1331h123v-1331h-123v1331zM51 1024h252v-1024h-123v924l-129 10v90zM242 1384q48 0 75 -26.5t27 -69.5q0 -41 -27 -67.5t-75 -26.5q-46 0 -73.5 26.5t-27.5 67.5q0 42 27.5 69t73.5 27z" />
    <glyph glyph-name="i_l_l" unicode="ill" horiz-adv-x="1122" 
d="M528 1331h123v-1331h-123v1331zM51 1024h252v-1024h-123v924l-129 10v90zM242 1384q48 0 75 -26.5t27 -69.5q0 -41 -27 -67.5t-75 -26.5q-46 0 -73.5 26.5t-27.5 67.5q0 42 27.5 69t73.5 27zM877 1331h122v-1331h-122v1331z" />
    <glyph glyph-name="j_l" unicode="jl" horiz-adv-x="774" 
d="M528 0v1331h123v-1331h-123zM51 934v90h252v-1044q0 -161 -90 -254q-97 -105 -281 -105q-170 0 -313 90l47 88q68 -36 126 -50.5t134 -14.5q129 0 195 69q59 62 59 177v944zM242 1384q48 0 74 -26.5t26 -69.5q0 -41 -26 -67.5t-74 -26.5t-74.5 26.5t-26.5 67.5
q0 43 26.5 69.5t74.5 26.5z" />
    <glyph glyph-name="l_l" unicode="ll" horiz-adv-x="727" 
d="M481 0v1331h123v-1331h-123zM4 1249v82h252v-1331h-123v1231z" />
    <glyph glyph-name="l_i" unicode="li" horiz-adv-x="727" 
d="M481 0v1024h123v-1024h-123zM543 1384q48 0 75 -26.5t27 -69.5q0 -41 -27 -67.5t-75 -26.5q-46 0 -73.5 26.5t-27.5 67.5q0 42 27.5 69t73.5 27zM4 1249v82h252v-1331h-123v1231z" />
    <glyph glyph-name="l_l_i" unicode="lli" horiz-adv-x="1044" 
d="M809 1024h123v-1024h-123v1024zM870 1384q48 0 75.5 -27t27.5 -69q0 -41 -27.5 -67.5t-75.5 -26.5q-46 0 -73 26.5t-27 67.5q0 42 27 69t73 27zM471 1331h123v-1331h-123v1331zM4 1331h252v-1331h-123v1231l-129 18v82z" />
    <glyph glyph-name="j_i" unicode="ji" horiz-adv-x="761" 
d="M528 0v1024h123v-1024h-123zM590 1384q48 0 75 -26.5t27 -69.5q0 -41 -27 -67.5t-75 -26.5q-46 0 -73.5 26.5t-27.5 67.5q0 42 27.5 69t73.5 27zM51 934v90h252v-1044q0 -161 -90 -254q-97 -105 -281 -105q-170 0 -313 90l47 88q68 -36 126 -50.5t134 -14.5q129 0 195 69
q59 62 59 177v944zM242 1384q48 0 74 -26.5t26 -69.5q0 -41 -26 -67.5t-74 -26.5t-74.5 26.5t-26.5 67.5q0 43 26.5 69.5t74.5 26.5z" />
    <glyph glyph-name="j_i_l" unicode="jil" horiz-adv-x="1110" 
d="M877 0v1331h122v-1331h-122zM528 0v1024h123v-1024h-123zM590 1384q48 0 75 -26.5t27 -69.5q0 -41 -27 -67.5t-75 -26.5q-46 0 -73.5 26.5t-27.5 67.5q0 42 27.5 69t73.5 27zM51 934v90h252v-1044q0 -161 -90 -254q-97 -105 -281 -105q-170 0 -313 90l47 88
q68 -36 126 -50.5t134 -14.5q129 0 195 69q59 62 59 177v944zM242 1384q48 0 74 -26.5t26 -69.5q0 -41 -26 -67.5t-74 -26.5t-74.5 26.5t-26.5 67.5q0 43 26.5 69.5t74.5 26.5z" />
    <glyph glyph-name="j_i_l_l" unicode="jill" horiz-adv-x="1460" 
d="M877 1331h122v-1331h-122v1331zM528 1024h123v-1024h-123v1024zM590 1384q48 0 75 -26.5t27 -69.5q0 -41 -27 -67.5t-75 -26.5q-46 0 -73.5 26.5t-27.5 67.5q0 42 27.5 69t73.5 27zM1225 1331h123v-1331h-123v1331zM51 1024h252v-1044q0 -161 -90 -254
q-97 -105 -281 -105q-170 0 -313 90l47 88q68 -36 126 -50.5t134 -14.5q129 0 195 69q59 62 59 177v944l-129 10v90zM242 1384q48 0 74 -26.5t26 -69.5q0 -41 -26 -67.5t-74 -26.5t-74.5 26.5t-26.5 67.5q0 43 26.5 69.5t74.5 26.5z" />
    <glyph glyph-name="i_i" unicode="ii" horiz-adv-x="765" 
d="M528 0v1024h123v-1024h-123zM590 1384q48 0 75 -26.5t27 -69.5q0 -41 -27 -67.5t-75 -26.5q-46 0 -73.5 26.5t-27.5 67.5q0 42 27.5 69t73.5 27zM51 934v90h252v-1024h-123v924zM242 1384q48 0 75 -26.5t27 -69.5q0 -41 -27 -67.5t-75 -26.5q-46 0 -73.5 26.5t-27.5 67.5
q0 42 27.5 69t73.5 27z" />
    <glyph glyph-name="afii10103_afii10104" unicode="&#x456;&#x457;" horiz-adv-x="763" 
d="M528 0v1024h123v-1024h-123zM430 1384q48 0 75 -26.5t27 -69.5q0 -41 -27 -67.5t-75 -26.5q-46 0 -73 26.5t-27 67.5q0 42 27 69t73 27zM51 934v90h252v-1024h-123v924zM111 1384q48 0 75 -26.5t27 -69.5q0 -41 -27 -67.5t-75 -26.5q-46 0 -73.5 26.5t-27.5 67.5
q0 42 27.5 69t73.5 27zM750 1384q48 0 75 -26.5t27 -69.5q0 -41 -27 -67.5t-75 -26.5q-46 0 -73.5 26.5t-27.5 67.5q0 42 27.5 69t73.5 27z" />
    <glyph glyph-name="i_l_l_i" unicode="illi" horiz-adv-x="1458" 
d="M51 1024h252v-1024h-123v924l-129 10v90zM242 1384q50 0 76 -27t26 -69q0 -41 -26 -67.5t-76 -26.5q-47 0 -74 27.5t-27 66.5q0 43 26.5 69.5t74.5 26.5zM528 0v1331h123v-1331h-123zM877 0v1331h122v-1331h-122zM1225 0v1024h123v-1024h-123zM1186 1290q0 41 25 67.5
t75 26.5t76.5 -26.5t26.5 -67.5q0 -48 -27.5 -72t-75.5 -24t-74 26t-26 70z" />
    <glyph glyph-name=".notdef" horiz-adv-x="964" 
d="M483 457q55 0 85.5 4.5t74.5 21.5l25 -63q-53 -21 -90.5 -29t-92.5 -8q-109 0 -168 41q-57 42 -57 106q0 38 19.5 66.5t54.5 40.5v8q-22 9 -34.5 30t-12.5 46q0 60 45 90q50 37 151 37q85 0 170 -35l-26 -61q-67 22 -140 22q-32 0 -52.5 -2.5t-39 -15.5t-18.5 -37
q0 -51 67 -51h152v-72h-166q-80 0 -80 -64q0 -34 27 -51q31 -24 106 -24zM793 616q0 149 -80 236q-81 84 -228 84q-160 0 -235 -84q-80 -80 -80 -236q0 -142 74 -225q86 -92 241 -92q158 0 236 88q72 81 72 229zM92 614q0 181 105 289q104 107 286 107q170 0 277 -99
q112 -106 112 -297q0 -163 -92 -272q-98 -121 -297 -121q-184 0 -284 105q-107 110 -107 288z" />
    <glyph glyph-name=".null" horiz-adv-x="0" 
 />
    <glyph glyph-name="nonmarkingreturn" horiz-adv-x="682" 
 />
    <glyph glyph-name="space" unicode=" " horiz-adv-x="475" 
 />
    <glyph glyph-name="exclam" unicode="!" horiz-adv-x="421" 
d="M211 193q51 0 79.5 -29t28.5 -74q0 -46 -28.5 -74t-79.5 -28t-80 28.5t-29 73.5q0 44 29 73.5t80 29.5zM150 1331h122v-289l-10 -747h-102l-10 747v289z" />
    <glyph glyph-name="quotedbl" unicode="&#x22;" horiz-adv-x="550" 
d="M137 909l-24 320h137l-25 -320h-88zM326 909l-25 320h137l-24 -320h-88z" />
    <glyph glyph-name="numbersign" unicode="#" horiz-adv-x="1026" 
d="M287 248l18 213h-203v96h213l15 154h-228v96h236l20 221l97 -8l-21 -213h178l21 221l96 -8l-20 -213h215v-96h-226l-14 -154h240v-96h-248l-21 -221l-94 8l19 213h-177l-20 -221zM426 711l-14 -154h178l14 154h-178z" />
    <glyph glyph-name="dollar" unicode="$" horiz-adv-x="1302" 
d="M647 -186h-102l-8 163q-235 6 -449 84l37 99q201 -70 448 -70q304 0 428 82q97 65 97 188q0 88 -58 134q-69 55 -274 86l-340 51q-162 24 -250 90q-94 72 -94 199q0 145 106 225q119 92 379 104l8 146h103l6 -144q231 -6 436 -82l-39 -98q-204 68 -430 68
q-265 0 -375 -76q-71 -50 -71 -133q0 -76 57 -115q58 -43 209 -65l303 -48q140 -22 227.5 -51t139.5 -78q80 -77 80 -223q0 -173 -144 -266q-144 -92 -422 -104z" />
    <glyph glyph-name="uni0025" unicode="%" horiz-adv-x="1339" 
d="M279 31l694 1011l90 -57l-696 -1012zM344 477q-125 0 -205 80q-78 78 -78 203q0 126 80 203q79 79 203 79q139 0 217 -94q68 -81 68 -188q0 -103 -64 -180q-83 -103 -221 -103zM528 760q0 80 -45 131q-53 59 -139 59q-78 0 -129 -51q-55 -55 -55 -139q0 -76 43 -125
q54 -64 141 -64q82 0 135 56q49 52 49 133zM993 -23q-125 0 -205 80q-77 77 -77 203t80 203q80 80 202 80q139 0 217 -94q68 -81 68 -189q0 -103 -64 -180q-83 -103 -221 -103zM1178 260q0 80 -45 131q-54 60 -140 60q-77 0 -129 -52q-55 -55 -55 -139q0 -76 43 -125
q53 -63 141 -63q83 0 135 55q50 53 50 133z" />
    <glyph glyph-name="ampersand" unicode="&#x26;" horiz-adv-x="1492" 
d="M625 -23q-290 0 -428 144q-105 108 -105 276q0 117 47 203q52 100 156 154q-92 92 -92 204q0 141 121 220q113 73 299 73q134 0 250.5 -29.5t187.5 -86.5l-57 -86q-73 41 -173.5 65.5t-207.5 24.5q-144 0 -226 -54q-67 -44 -67 -118q0 -90 86 -156l628 -492q31 56 54 142
q23 95 26 194l-217 19v90h504v-90l-170 -17q-3 -107 -29 -219q-23 -100 -75 -190l127 -98q37 -29 64.5 -40.5t76.5 -17.5l25 -4l-7 -88h-32q-80 0 -122.5 12t-86.5 47l-117 91q-72 -78 -172 -121q-120 -52 -268 -52zM625 90q113 0 198 33q92 37 150 98l-600 467
q-84 -46 -125 -129q-33 -67 -33 -164q0 -114 80 -194q108 -111 330 -111z" />
    <glyph glyph-name="quotesingle" unicode="'" horiz-adv-x="362" 
d="M137 909l-24 320h137l-25 -320h-88z" />
    <glyph glyph-name="parenleft" unicode="(" horiz-adv-x="430" 
d="M383 1262q-76 -114 -121 -301.5t-45 -360.5q0 -170 44.5 -346t121.5 -291l-96 -51q-191 280 -191 688q0 206 49.5 393.5t141.5 319.5z" />
    <glyph glyph-name="parenright" unicode=")" horiz-adv-x="430" 
d="M47 -37q76 114 121 301.5t45 360.5q0 170 -44.5 346t-121.5 291l96 51q191 -280 191 -688q0 -206 -49.5 -393.5t-141.5 -319.5z" />
    <glyph glyph-name="asterisk" unicode="*" horiz-adv-x="604" 
d="M403 1286l-63 -151l162 14l20 -8v-82l-20 -6l-162 12l63 -150l-2 -20l-77 -27l-13 17l-39 157l-122 -104l-21 -6l-47 67l10 17l139 84l-139 86l-10 16l47 66l21 -4l122 -107l39 160l13 14l77 -24z" />
    <glyph glyph-name="plus" unicode="+" horiz-adv-x="731" 
d="M72 715h237v239h109v-239h241v-109h-241v-239h-109v239h-237v109z" />
    <glyph glyph-name="comma" unicode="," horiz-adv-x="421" 
d="M211 193q51 0 79.5 -29t28.5 -74q0 -28 -10 -51l-84 -209l-78 23l27 139q-35 9 -53.5 35t-18.5 63q0 44 29 73.5t80 29.5z" />
    <glyph glyph-name="hyphen" unicode="-" horiz-adv-x="731" 
d="M72 592h587v-109h-587v109z" />
    <glyph glyph-name="period" unicode="." horiz-adv-x="421" 
d="M211 193q51 0 79.5 -29t28.5 -74q0 -46 -28.5 -74t-79.5 -28t-80 28.5t-29 73.5q0 44 29 73.5t80 29.5z" />
    <glyph glyph-name="slash" unicode="/" horiz-adv-x="593" 
d="M0 -18l494 1302l100 -31l-496 -1302z" />
    <glyph glyph-name="zero" unicode="0" horiz-adv-x="1277" 
d="M205 614q0 -273 121 -407q108 -117 313 -117q214 0 324 127q110 128 110 397q0 267 -106 394q-108 131 -328 131q-204 0 -311 -113q-123 -129 -123 -412zM1196 614q0 -311 -143 -473q-145 -164 -414 -164q-244 0 -387 140q-170 167 -170 497t164 494q143 143 393 143
q273 0 418 -170q139 -161 139 -467z" />
    <glyph glyph-name="one" unicode="1" horiz-adv-x="733" 
d="M119 973l-43 92l346 176l49 -12v-1123l166 -6v-100h-512v96l223 10v973z" />
    <glyph glyph-name="two" unicode="2" horiz-adv-x="1138" 
d="M111 0v113l581 422q125 89 168 147q64 84 64 197q0 134 -123 204q-101 56 -240 56q-124 0 -219.5 -33t-198.5 -105l-61 97q120 86 224 119.5t255 33.5q194 0 324 -82q162 -105 162 -299q0 -140 -91 -256q-63 -78 -200 -174l-455 -327h735v-113h-925z" />
    <glyph glyph-name="three" unicode="3" horiz-adv-x="1159" 
d="M553 90q208 0 321 107q80 77 80 192q0 109 -59 174q-32 37 -87.5 57.5t-121.5 20.5h-377v109h348q98 0 160 59q49 46 49 133q0 95 -88 148q-86 53 -252 53q-192 0 -356 -109l-59 88q162 129 430 129q197 0 321 -80q127 -81 127 -229q0 -79 -45 -143q-32 -50 -82 -80v-8
q102 -37 156 -115q59 -86 59 -207q0 -172 -125 -283q-146 -129 -399 -129q-166 0 -282.5 38.5t-209.5 119.5l70 90q111 -78 198.5 -106.5t223.5 -28.5z" />
    <glyph glyph-name="four" unicode="4" horiz-adv-x="1212" 
d="M72 229v86l665 914h99l26 -31l-622 -856h657v432l86 31h37v-463h121v-113h-121v-229h-123v229h-825z" />
    <glyph glyph-name="five" unicode="5" horiz-adv-x="1138" 
d="M535 90q220 0 323 109q76 82 76 215q0 148 -92 225q-100 84 -301 84q-97 0 -169 -22t-161 -68l-66 35v561h813v-113h-702v-344q131 59 309 59q219 0 348 -104q144 -114 144 -313q0 -180 -117 -297q-140 -140 -405 -140q-292 0 -474 158l72 90q91 -73 179.5 -104
t222.5 -31z" />
    <glyph glyph-name="six" unicode="6" horiz-adv-x="1187" 
d="M610 829q249 0 375 -112q121 -105 121 -301q0 -183 -121 -301q-141 -138 -387 -138q-289 0 -418 205q-98 154 -98 430q0 327 156 496q137 143 374 143q226 0 400 -106l-51 -98q-92 50 -172 71t-175 21q-187 0 -288 -107q-95 -102 -115 -293q71 42 177.5 66t221.5 24z
M598 90q201 0 301 103q84 87 84 223q0 134 -80 211q-93 90 -293 90q-129 0 -221.5 -21t-183.5 -67v-17q0 -249 82 -374q97 -148 311 -148z" />
    <glyph glyph-name="seven" unicode="7" horiz-adv-x="1091" 
d="M72 918v311h958v-113q-193 -208 -317 -432q-109 -191 -203 -457l-80 -227h-125l88 258q82 245 211 475q121 214 268 383h-679l-19 -198h-102z" />
    <glyph glyph-name="eight" unicode="8" horiz-adv-x="1208" 
d="M604 -23q-280 0 -414 113q-118 100 -118 287q0 138 86 227q49 51 151 94q-64 48 -96 103q-35 62 -35 143q0 166 129 242q108 65 297 65q227 0 334 -90q92 -77 92 -217q0 -86 -51 -153q-39 -55 -88 -74q116 -43 178 -123q68 -86 68 -217q0 -181 -117 -283
q-135 -117 -416 -117zM301 948q0 -84 41 -125q65 -65 262 -65q56 0 146 -8q74 18 118 77q39 55 39 121q0 94 -65 139q-75 52 -238 52q-164 0 -235 -49q-68 -45 -68 -142zM604 645q-92 0 -162 12q-136 -45 -188 -104q-59 -69 -59 -180q0 -124 73 -191q100 -92 336 -92
q238 0 338 92q72 66 72 191q0 130 -86 198q-99 74 -324 74z" />
    <glyph glyph-name="nine" unicode="9" horiz-adv-x="1187" 
d="M578 399q-256 0 -385 123q-111 105 -111 291q0 170 106 285q67 73 170 113t232 40q262 0 393 -166q123 -158 123 -469q0 -341 -178 -507q-138 -132 -371 -132q-223 0 -399 107l51 98q91 -49 171 -70.5t175 -21.5q189 0 293 98q106 98 129 301q-72 -43 -177.5 -66.5
t-221.5 -23.5zM590 1139q-201 0 -303 -105q-82 -82 -82 -221q0 -134 78 -209q92 -92 295 -92q132 0 224 20t181 66v18q0 270 -92 394q-96 129 -301 129z" />
    <glyph glyph-name="colon" unicode=":" horiz-adv-x="421" 
d="M211 193q51 0 79.5 -29t28.5 -74q0 -46 -28.5 -74t-79.5 -28t-80 28.5t-29 73.5q0 44 29 73.5t80 29.5zM211 820q51 0 79.5 -29t28.5 -74q0 -46 -28.5 -74t-79.5 -28t-80 28.5t-29 73.5q0 44 29 73.5t80 29.5z" />
    <glyph glyph-name="semicolon" unicode=";" horiz-adv-x="421" 
d="M211 193q51 0 79.5 -29t28.5 -74q0 -28 -10 -51l-84 -209l-78 23l27 139q-35 9 -53.5 35t-18.5 63q0 44 29 73.5t80 29.5zM211 819q51 0 79.5 -29t28.5 -73q0 -46 -28.5 -74.5t-79.5 -28.5t-80 28.5t-29 74.5q0 44 29 73t80 29z" />
    <glyph glyph-name="less" unicode="&#x3c;" horiz-adv-x="647" 
d="M506 946l49 -74l-332 -241l332 -242l-49 -74l-434 287v57z" />
    <glyph glyph-name="equal" unicode="=" horiz-adv-x="794" 
d="M72 590h651v-109h-651v109zM72 840h651v-109h-651v109z" />
    <glyph glyph-name="greater" unicode="&#x3e;" horiz-adv-x="647" 
d="M141 315l-49 74l332 242l-332 241l49 74l434 -287v-57z" />
    <glyph glyph-name="question" unicode="?" horiz-adv-x="1196" 
d="M485 193q51 0 80 -29.5t29 -73.5q0 -45 -29 -73.5t-80 -28.5t-79.5 28t-28.5 74q0 45 28.5 74t79.5 29zM543 383l-2 -92h-113v110q0 114 54 176.5t163 84.5l39 8q166 33 240 104q67 64 67 158q0 136 -100 211q-117 86 -361 86q-247 0 -467 -133l-53 96q224 149 527 149
q287 0 436 -108q141 -103 141 -291q0 -153 -100 -248q-101 -94 -297 -137l-60 -12q-62 -13 -87 -52.5t-27 -109.5z" />
    <glyph glyph-name="at" unicode="@" horiz-adv-x="1439" 
d="M954 248q-117 -86 -254 -86q-166 0 -258 106q-82 92 -82 232q0 148 95 243q42 43 106 69t135 26q118 0 230 -62l16 49h84v-436q0 -46 18 -76q26 -41 70 -41q53 0 84 31q55 57 55 209q0 226 -106 358q-141 177 -412 177q-210 0 -348 -113q-89 -73 -140.5 -181.5
t-51.5 -240.5q0 -217 118 -360q138 -170 408 -170q191 0 354 61l31 -80q-187 -88 -385 -88q-314 0 -490 201q-151 171 -151 436q0 155 61 282t166 214q171 141 428 141q158 0 287 -55.5t213 -157.5q131 -159 131 -424q0 -84 -25.5 -163t-80.5 -126q-59 -51 -150 -51
q-101 0 -156 76zM911 672q-93 57 -215 57q-108 0 -164 -59q-57 -60 -57 -170q0 -106 62 -168t163 -62q106 0 218 70q-7 35 -7 59v273z" />
    <glyph glyph-name="A" unicode="A" horiz-adv-x="1429" 
d="M621 1229h188l559 -1229h-133l-117 258h-813l-117 -258h-127zM694 1116l-338 -745h711l-338 745h-35z" />
    <glyph glyph-name="B" unicode="B" horiz-adv-x="1286" 
d="M823 0h-690v1229h655q169 0 263 -105q75 -81 75 -202q0 -76 -39 -140q-33 -54 -90 -92v-10q93 -39 146 -117q61 -89 61 -203q0 -148 -108 -251q-54 -51 -125.5 -80t-147.5 -29zM1081 360q0 99 -53 164q-35 43 -88 66.5t-113 23.5h-571v-505h563q122 0 195 73
q67 67 67 178zM1004 922q0 84 -60 141q-64 57 -170 57h-518v-397h557q86 0 141 65q50 56 50 134z" />
    <glyph glyph-name="C" unicode="C" horiz-adv-x="1277" 
d="M82 614q0 323 221 494q188 143 483 143q112 0 222.5 -23t187.5 -61l-45 -96q-159 68 -365 68q-254 0 -407 -125q-85 -68 -129.5 -171t-44.5 -229q0 -223 139 -362q77 -77 191 -119.5t251 -42.5q206 0 365 68l45 -97q-77 -38 -187.5 -61t-222.5 -23q-336 0 -526 181
q-178 169 -178 456z" />
    <glyph glyph-name="D" unicode="D" horiz-adv-x="1325" 
d="M133 1229h471q315 0 475 -148q164 -151 164 -467q0 -315 -162 -467q-156 -147 -477 -147h-471v1229zM1120 614q0 259 -125 381q-124 121 -391 121h-348v-1003h375q245 0 368 123q121 121 121 378z" />
    <glyph glyph-name="E" unicode="E" horiz-adv-x="1208" 
d="M133 0v1229h954v-113h-831v-405h743v-113h-743v-485h860v-113h-983z" />
    <glyph glyph-name="F" unicode="F" horiz-adv-x="1138" 
d="M133 1229h924v-113h-801v-430h715v-113h-715v-573h-123v1229z" />
    <glyph glyph-name="G" unicode="G" horiz-adv-x="1384" 
d="M815 604v101h447v-705h-78l-35 86q-209 -109 -434 -109q-155 0 -279.5 50.5t-208.5 146.5q-145 168 -145 440q0 299 192 469q190 168 510 168q113 0 223 -23t189 -61l-45 -96q-159 68 -367 68q-269 0 -424 -142q-155 -140 -155 -383q0 -222 121 -364q137 -160 389 -160
q208 0 428 98v404z" />
    <glyph glyph-name="H" unicode="H" horiz-adv-x="1341" 
d="M1085 1229h123v-1229h-123v602h-829v-602h-123v1229h123v-514h829v514z" />
    <glyph glyph-name="I" unicode="I" horiz-adv-x="389" 
d="M133 1229h123v-1229h-123v1229z" />
    <glyph glyph-name="J" unicode="J" horiz-adv-x="1007" 
d="M752 1229h122v-737q0 -244 -129 -373q-142 -142 -428 -142q-65 0 -142 15t-132 37l33 100q115 -39 241 -39q234 0 338 107q97 100 97 295v737z" />
    <glyph glyph-name="K" unicode="K" horiz-adv-x="1282" 
d="M133 1229h123v-518h393l408 518h153l-458 -570l469 -659h-156l-414 598h-395v-598h-123v1229z" />
    <glyph glyph-name="L" unicode="L" horiz-adv-x="1138" 
d="M256 113h801v-113h-924v1229h123v-1116z" />
    <glyph glyph-name="M" unicode="M" horiz-adv-x="1607" 
d="M133 1229h193l479 -1110l481 1110h189v-1229h-123v1075h-9l-466 -1075h-152l-465 1075h-8v-1075h-119v1229z" />
    <glyph glyph-name="N" unicode="N" horiz-adv-x="1370" 
d="M1118 1229h119v-1229h-131l-854 1051v-1051h-119v1229h131l854 -1051v1051z" />
    <glyph glyph-name="O" unicode="O" horiz-adv-x="1409" 
d="M1204 614q0 261 -137 398q-130 127 -362 127q-239 0 -367 -131q-133 -136 -133 -394q0 -242 119 -376q130 -148 381 -148q253 0 382 150q117 135 117 374zM82 614q0 298 164 467q162 170 459 170q280 0 444 -155q178 -169 178 -482q0 -277 -141 -444q-164 -193 -481 -193
q-294 0 -457 168q-166 166 -166 469z" />
    <glyph glyph-name="P" unicode="P" horiz-adv-x="1243" 
d="M702 360h-446v-360h-123v1229h594q214 0 334 -142q100 -117 100 -292q0 -189 -127 -310q-128 -125 -332 -125zM1038 795q0 137 -67 219q-82 102 -250 102h-465v-643h449q146 0 237 82q96 87 96 240z" />
    <glyph glyph-name="Q" unicode="Q" horiz-adv-x="1409" 
d="M1206 -188q-96 0 -149 32q-55 31 -115 125l-20 35q-111 -27 -217 -27q-305 0 -469 181q-154 168 -154 456q0 291 154 459q161 178 469 178q313 0 477 -190q145 -168 145 -447q0 -248 -113 -407q-66 -96 -184 -158l12 -20q37 -59 84 -88q45 -25 91 -25q26 0 38 2l15 -98
q-31 -8 -64 -8zM1204 614q0 238 -112 371q-130 154 -387 154q-248 0 -379 -146q-121 -137 -121 -379q0 -241 121 -378q131 -146 379 -146q244 0 372 137q127 136 127 387z" />
    <glyph glyph-name="R" unicode="R" horiz-adv-x="1255" 
d="M133 1229h600q210 0 328 -127q102 -111 102 -289q0 -172 -119 -291q-78 -78 -180 -106l264 -416h-141l-246 397h-485v-397h-123v1229zM1040 813q0 130 -67 209q-81 94 -232 94h-485v-606h481q141 0 224 86q79 79 79 217z" />
    <glyph glyph-name="S" unicode="S" horiz-adv-x="1282" 
d="M82 920q0 145 106 225q138 106 463 106q131 0 233.5 -19.5t215.5 -62.5l-39 -98q-204 68 -410 68q-265 0 -375 -76q-71 -50 -71 -133q0 -76 57 -115q58 -43 209 -65l283 -48q144 -24 229 -52t137 -77q80 -77 80 -223q0 -174 -143 -266q-164 -107 -484 -107
q-247 0 -485 84l37 99q201 -70 448 -70q284 0 408 82q96 65 96 188q0 30 -6.5 55t-21 44.5t-29.5 34.5t-42 27t-48 20t-57.5 15.5t-61 12t-66.5 11.5l-319 51q-162 24 -250 90q-94 72 -94 199z" />
    <glyph glyph-name="T" unicode="T" horiz-adv-x="1304" 
d="M61 1116v113h1182v-113h-530v-1116h-123v1116h-529z" />
    <glyph glyph-name="U" unicode="U" horiz-adv-x="1351" 
d="M133 522v707h123v-707q0 -222 113 -329q106 -103 307 -103q199 0 303 98q117 108 117 334v707h123v-707q0 -264 -144 -405q-143 -140 -399 -140q-248 0 -389 129q-154 141 -154 416z" />
    <glyph glyph-name="V" unicode="V" horiz-adv-x="1394" 
d="M791 0h-189l-541 1229h136l487 -1116h31l489 1116h129z" />
    <glyph glyph-name="W" unicode="W" horiz-adv-x="1976" 
d="M61 1229h129l365 -1116h12l330 1116h182l330 -1116h14l365 1116h127l-404 -1229h-188l-330 1102h-8l-336 -1102h-184z" />
    <glyph glyph-name="X" unicode="X" horiz-adv-x="1265" 
d="M242 1229l389 -522l381 522h147l-438 -590l483 -639h-153l-422 569l-420 -569h-148l478 639l-451 590h154z" />
    <glyph glyph-name="Y" unicode="Y" horiz-adv-x="1349" 
d="M737 0h-123v283l-553 946h144l465 -807h14l467 807h137l-551 -942v-287z" />
    <glyph glyph-name="Z" unicode="Z" horiz-adv-x="1171" 
d="M1100 111v-111h-1028v68l841 1054l-350 -2h-436v109h969v-72l-836 -1053l344 7h496z" />
    <glyph glyph-name="bracketleft" unicode="[" horiz-adv-x="454" 
d="M256 1251v-1274h143v-112h-266v1499h266v-113h-143z" />
    <glyph glyph-name="backslash" unicode="\" horiz-adv-x="593" 
d="M100 1284l494 -1302l-98 -31l-496 1302z" />
    <glyph glyph-name="bracketright" unicode="]" horiz-adv-x="454" 
d="M199 -23v1274h-144v113h267v-1499h-267v112h144z" />
    <glyph glyph-name="asciicircum" unicode="^" horiz-adv-x="733" 
d="M662 920l-64 -56l-231 246l-232 -246l-63 56l266 331h57z" />
    <glyph glyph-name="underscore" unicode="_" horiz-adv-x="731" 
d="M31 -119h669v-102h-669v102z" />
    <glyph glyph-name="grave" unicode="`" horiz-adv-x="507" 
d="M256 1464l119 -297l-82 -39l-160 277z" />
    <glyph glyph-name="a" unicode="a" 
d="M1085 719v-434q0 -159 50 -271l-72 -24q-66 63 -86 137q-165 -145 -406 -145q-130 0 -218 21.5t-154 72.5q-117 89 -117 262q0 168 137 264q133 92 334 92q213 0 410 -55v84q0 100 -93 156q-84 51 -241 51q-124 0 -208.5 -15t-201.5 -57l-29 90q213 94 435 94
q111 0 201.5 -25t146.5 -67q56 -44 84 -105t28 -126zM549 582q-163 0 -258 -68q-86 -63 -86 -176q0 -115 92 -180q98 -66 274 -66q117 0 203.5 29.5t188.5 95.5v332q-125 19 -208.5 26t-205.5 7z" />
    <glyph glyph-name="b" unicode="b" horiz-adv-x="1280" 
d="M133 0v1331h123v-432q77 67 183.5 105t228.5 38q258 0 401 -155q129 -142 129 -375q0 -116 -39.5 -218.5t-114.5 -174.5q-144 -137 -372 -137q-138 0 -238 34t-182 109l-37 -125h-82zM672 94q178 0 291 113q112 115 112 305q0 184 -88 291q-108 127 -319 127
q-243 0 -412 -152v-545q105 -76 195 -107.5t221 -31.5z" />
    <glyph glyph-name="c" unicode="c" horiz-adv-x="1071" 
d="M993 981l-35 -100q-54 21 -144 35t-165 14q-213 0 -332 -119q-112 -109 -112 -299q0 -222 135 -330q113 -88 309 -88q77 0 170 14.5t146 36.5l34 -100q-64 -29 -160 -46t-190 -17q-268 0 -413 133q-154 139 -154 397q0 249 166 393q156 137 401 137q209 0 344 -61z" />
    <glyph glyph-name="d" unicode="d" horiz-adv-x="1277" 
d="M1024 123q-149 -141 -434 -141q-219 0 -348 114q-164 142 -164 416q0 232 149 381t400 149q231 0 395 -141v430h123v-1331h-82zM1022 227v553q-167 150 -395 150q-196 0 -305 -103q-121 -115 -121 -315q0 -214 123 -328q96 -90 266 -90q134 0 232.5 31t199.5 102z" />
    <glyph glyph-name="e" unicode="e" horiz-adv-x="1224" 
d="M614 1042q264 0 398 -137q137 -137 137 -393v-66h-944q14 -151 108 -241q111 -111 346 -111q180 0 330 58l37 -101q-153 -69 -367 -69q-131 0 -240 34.5t-181 100.5q-158 142 -158 395q0 235 143 381q146 149 391 149zM614 930q-204 0 -315 -123q-84 -97 -96 -248h821
q-9 174 -100 268q-100 103 -310 103z" />
    <glyph glyph-name="f" unicode="f" horiz-adv-x="786" 
d="M629 1434q198 0 354 -101l-53 -80q-146 70 -301 70q-137 0 -205 -68q-57 -57 -57 -165v-66h389v-94l-389 -17v-913h-123v911h-193v93l193 16v70q0 141 86 233q103 111 299 111z" />
    <glyph glyph-name="g" unicode="g" horiz-adv-x="1280" 
d="M616 -379q-144 0 -254.5 27.5t-211.5 91.5l43 90q171 -96 423 -96q221 0 316 92q92 89 92 264v33q-164 -141 -397 -141q-113 0 -212.5 30.5t-166.5 87.5q-168 143 -168 412q0 229 135 373q144 157 397 157q138 0 236 -34t178 -109l39 125h82v-934q0 -217 -123 -340
q-63 -62 -169.5 -95.5t-238.5 -33.5zM612 930q-180 0 -290 -107q-119 -116 -119 -311q0 -209 114 -317q109 -101 310 -101q225 0 397 148v553q-105 75 -193 105t-219 30z" />
    <glyph glyph-name="h" unicode="h" horiz-adv-x="1259" 
d="M133 1331h123v-424q167 135 395 135q240 0 353 -110q122 -119 122 -383v-549h-122v549q0 206 -89 295q-86 86 -264 86q-220 0 -395 -139v-791h-123v1331z" />
    <glyph glyph-name="i" unicode="i" horiz-adv-x="436" 
d="M51 934v90h252v-1024h-123v924zM242 1384q48 0 75 -26.5t27 -69.5q0 -41 -27 -67.5t-75 -26.5q-46 0 -73.5 26.5t-27.5 67.5q0 42 27.5 69t73.5 27z" />
    <glyph glyph-name="j" unicode="j" horiz-adv-x="436" 
d="M51 934v90h252v-1044q0 -161 -90 -254q-97 -105 -281 -105q-170 0 -313 90l47 88q68 -36 126 -50.5t134 -14.5q129 0 195 69q59 62 59 177v944zM242 1384q48 0 74 -26.5t26 -69.5q0 -41 -26 -67.5t-74 -26.5t-74.5 26.5t-26.5 67.5q0 43 26.5 69.5t74.5 26.5z" />
    <glyph glyph-name="k" unicode="k" horiz-adv-x="1191" 
d="M133 1331h123v-721h428l279 414h147l-322 -463l340 -561h-145l-289 498h-438v-498h-123v1331z" />
    <glyph glyph-name="l" unicode="l" horiz-adv-x="389" 
d="M4 1249v82h252v-1331h-123v1231z" />
    <glyph glyph-name="m" unicode="m" horiz-adv-x="2009" 
d="M133 1024h82l37 -121q158 139 371 139q166 0 264 -59q73 -43 117 -123q185 182 428 182q224 0 329 -108q115 -118 115 -385v-549h-123v549q0 222 -90 309q-75 72 -231 72q-216 0 -394 -152q29 -102 29 -229v-549h-123v549q0 233 -100 317q-73 64 -221 64
q-112 0 -196 -32.5t-171 -106.5v-791h-123v1024z" />
    <glyph glyph-name="n" unicode="n" horiz-adv-x="1259" 
d="M133 1024h82l37 -121q164 139 399 139q251 0 363 -118t112 -375v-549h-122v549q0 206 -84 293q-82 88 -269 88q-121 0 -211.5 -31.5t-183.5 -105.5v-793h-123v1024z" />
    <glyph glyph-name="o" unicode="o" 
d="M614 1042q219 0 369 -131q166 -144 166 -399t-166 -399q-150 -131 -369 -131q-218 0 -368 131q-166 144 -166 399t166 399q150 131 368 131zM614 930q-185 0 -299 -111q-112 -109 -112 -307t112 -307q114 -111 299 -111t299 111q113 110 113 307t-113 307
q-114 111 -299 111z" />
    <glyph glyph-name="p" unicode="p" horiz-adv-x="1280" 
d="M133 1024h82l37 -125q156 143 432 143q242 0 375 -139q139 -145 139 -391q0 -243 -151 -391q-145 -139 -383 -139q-244 0 -408 141v-430h-123v1331zM684 930q-135 0 -231 -30t-197 -103v-553q170 -150 408 -150q174 0 282 94q129 113 129 324q0 203 -104 313
q-97 105 -287 105z" />
    <glyph glyph-name="q" unicode="q" horiz-adv-x="1277" 
d="M1145 1024v-1331h-123v428q-76 -65 -183 -102t-227 -37q-246 0 -387 135q-143 140 -143 395q0 196 111 342q140 188 405 188q273 0 426 -141l39 123h82zM598 930q-203 0 -307 -142q-86 -117 -86 -276q0 -221 114 -326q100 -92 293 -92q238 0 410 148v551
q-102 74 -197 105.5t-227 31.5z" />
    <glyph glyph-name="r" unicode="r" horiz-adv-x="1079" 
d="M133 1024h82l37 -121q164 139 399 139q111 0 205 -25.5t152 -70.5l-64 -88q-104 72 -293 72q-120 0 -211.5 -31.5t-183.5 -105.5v-793h-123v1024z" />
    <glyph glyph-name="s" unicode="s" horiz-adv-x="1138" 
d="M981 981l-35 -100q-55 22 -156.5 35.5t-205.5 13.5q-226 0 -320 -58q-59 -37 -59 -98q0 -71 63 -108q51 -30 158 -41l254 -31q193 -22 287 -100q90 -74 90 -193q0 -147 -115 -225q-137 -94 -450 -94q-222 0 -410 67l35 105q188 -60 375 -60q221 0 323 43q119 48 119 162
q0 82 -70 123q-35 21 -77 31.5t-125 21.5l-283 37q-156 21 -229 84q-68 59 -68 170q0 126 106 195q126 81 396 81q231 0 397 -61z" />
    <glyph glyph-name="t" unicode="t" horiz-adv-x="915" 
d="M51 911v93l195 16l20 246h99v-242h460v-94l-460 -17v-594q0 -107 43 -161q55 -64 190 -64q78 0 140 15t136 53l41 -86q-82 -52 -156.5 -73t-166.5 -21q-176 0 -262 86q-88 85 -88 251v592h-191z" />
    <glyph glyph-name="u" unicode="u" horiz-adv-x="1261" 
d="M1128 0h-81l-37 121q-161 -139 -400 -139q-227 0 -338 94q-139 115 -139 399v549h123v-549q0 -210 92 -299q85 -82 262 -82q121 0 212.5 32t183.5 107v791h122v-1024z" />
    <glyph glyph-name="v" unicode="v" horiz-adv-x="1222" 
d="M492 0l-431 1024h138l374 -911h84l373 911h131l-430 -1024h-239z" />
    <glyph glyph-name="w" unicode="w" horiz-adv-x="1822" 
d="M61 1024h136l333 -911h33l242 911h203l262 -911h35l333 911h123l-385 -1024h-194l-269 915h-16l-258 -915h-193z" />
    <glyph glyph-name="x" unicode="x" horiz-adv-x="1193" 
d="M207 0h-146l371 547l-336 477h148l291 -426h127l288 426h146l-334 -477l371 -547h-146l-317 485h-144z" />
    <glyph glyph-name="y" unicode="y" horiz-adv-x="1265" 
d="M549 0l-488 1024h138l428 -911h55l387 911h135l-508 -1171q-41 -96 -108 -132q-50 -28 -154 -28q-27 0 -65 10l14 100q32 -4 41 -4q55 0 96 21q50 26 76 90l39 90h-86z" />
    <glyph glyph-name="z" unicode="z" horiz-adv-x="1079" 
d="M100 911v113h897v-61l-735 -850h735v-113h-915v78l719 833h-701z" />
    <glyph glyph-name="braceleft" unicode="{" horiz-adv-x="536" 
d="M428 1251q-53 0 -77.5 -25t-24.5 -81v-336q0 -141 -80 -191v-8q80 -49 80 -190v-336q0 -57 24.5 -82t77.5 -25h70v-112h-66q-102 0 -163.5 51.5t-61.5 167.5v369q0 106 -101 106h-43v113h43q101 0 101 104v369q0 219 225 219h66v-113h-70z" />
    <glyph glyph-name="bar" unicode="|" horiz-adv-x="378" 
d="M133 1331h113v-1638h-113v1638z" />
    <glyph glyph-name="braceright" unicode="}" horiz-adv-x="536" 
d="M109 -23q53 0 77.5 25t24.5 82v336q0 140 80 190v8q-80 49 -80 191v336q0 56 -24.5 81t-77.5 25h-70v113h65q103 0 164.5 -51.5t61.5 -167.5v-369q0 -106 100 -106h43v-113h-43q-100 0 -100 -104v-369q0 -219 -226 -219h-65v112h70z" />
    <glyph glyph-name="asciitilde" unicode="~" horiz-adv-x="821" 
d="M410 586q-79 28 -144 28q-78 0 -133 -47l-51 70q90 78 188 78q62 0 144 -29t141 -29q74 0 135 50l49 -72q-87 -76 -188 -76q-67 0 -141 27z" />
    <glyph glyph-name="exclamdown" unicode="&#xa1;" horiz-adv-x="421" 
d="M150 1036q-51 0 -80 29.5t-29 73.5q0 45 29 73.5t80 28.5t79.5 -28t28.5 -74q0 -45 -28.5 -74t-79.5 -29zM211 -102h-123v288l10 748h103l10 -748v-288z" />
    <glyph glyph-name="cent" unicode="&#xa2;" horiz-adv-x="1071" 
d="M586 1174h94l6 -132q186 -7 307 -61l-35 -100q-54 21 -144 35t-165 14q-219 0 -330 -105q-114 -108 -114 -313t117 -313q114 -105 327 -105q76 0 165.5 14t143.5 37l35 -100q-121 -54 -307 -61l-6 -156h-94l-8 158q-215 15 -340 131q-156 140 -156 395q0 256 154 395
q124 115 342 133z" />
    <glyph glyph-name="currency" unicode="&#xa4;" horiz-adv-x="890" 
d="M178 936l84 -82q77 49 182 49q106 0 183 -49l84 82l80 -78l-84 -84q51 -76 51 -182t-51 -182l84 -84l-80 -80l-84 84q-73 -49 -183 -49q-109 0 -182 49l-84 -84l-78 80l82 84q-49 73 -49 182t49 182l-82 84zM662 592q0 100 -58.5 159.5t-159.5 59.5q-100 0 -157.5 -59
t-57.5 -160q0 -102 57 -161.5t158 -59.5t159.5 59.5t58.5 161.5z" />
    <glyph glyph-name="yen" unicode="&#xa5;" horiz-adv-x="1349" 
d="M348 412l184 10l-471 807h144l465 -807h14l467 807h137l-471 -807l182 -10v-99h-651v99zM348 238h651v-99l-262 -10v-129h-123v129l-266 10v99z" />
    <glyph glyph-name="brokenbar" unicode="&#xa6;" horiz-adv-x="378" 
d="M133 1331h113v-778h-113v778zM133 471h113v-778h-113v778z" />
    <glyph glyph-name="section" unicode="&#xa7;" horiz-adv-x="1026" 
d="M811 1253l-33 -90q-118 45 -270 45q-145 0 -203 -43q-43 -32 -43 -90q0 -75 62 -117q48 -35 153 -51l82 -14q196 -31 285 -100q100 -77 100 -211q0 -85 -55 -162q-39 -53 -101 -90q91 -66 91 -170q0 -121 -88 -189q-105 -75 -295 -75q-206 0 -340 59l37 90
q128 -45 303 -45q140 0 209 41q59 39 59 111q0 23 -8 42t-17.5 31.5t-29.5 24t-32.5 17.5t-39 13t-35.5 8.5t-35 6.5l-164 31q-156 30 -235 98q-86 80 -86 199q0 96 57 165q42 51 111 89q-103 73 -103 190q0 105 74 166q97 80 287 80q166 0 303 -60zM334 836
q-73 -43 -101 -82q-38 -47 -38 -115q0 -81 49 -133q53 -51 184 -74l162 -29q57 -8 112 -28q52 36 82 74q43 56 43 126q0 95 -65 144q-57 46 -215 74l-111 18q-63 11 -102 25z" />
    <glyph glyph-name="dieresis" unicode="&#xa8;" horiz-adv-x="845" 
d="M631 1350q48 0 75 -27t27 -70q0 -41 -27 -67.5t-75 -26.5q-46 0 -73.5 26.5t-27.5 67.5q0 42 27.5 69.5t73.5 27.5zM213 1350q48 0 75 -27t27 -70q0 -41 -27 -67.5t-75 -26.5q-46 0 -73 26.5t-27 67.5q0 42 27 69.5t73 27.5z" />
    <glyph glyph-name="copyright" unicode="&#xa9;" horiz-adv-x="1347" 
d="M911 848l-32 -94q-80 34 -189 34q-101 0 -164 -57q-69 -63 -69 -162q0 -106 69 -166q62 -53 164 -53q106 0 189 35l32 -92q-95 -45 -221 -45q-155 0 -254 96q-88 88 -88 225q0 145 101 236q92 86 241 86q124 0 221 -43zM674 -23q-135 0 -250 47.5t-193 131.5
q-155 164 -155 413q0 250 155 414q77 84 192.5 131t250.5 47t250 -47t192 -131q75 -80 115.5 -186.5t40.5 -227.5q0 -248 -156 -413q-78 -84 -192.5 -131.5t-249.5 -47.5zM1159 569q0 229 -145 365q-132 123 -340 123t-340 -123q-70 -65 -108 -159.5t-38 -205.5t38 -205
t108 -159q132 -123 340 -123t340 123q145 136 145 364z" />
    <glyph glyph-name="ordfeminine" unicode="&#xaa;" horiz-adv-x="706" 
d="M516 1198l14 45h64v-379q0 -68 31 -141l-60 -21q-26 26 -41 60q-83 -62 -178 -62q-118 0 -186 56q-88 73 -88 221q0 138 71 209q65 65 193 65q106 0 180 -53zM506 1120q-47 29 -78.5 38t-91.5 9q-94 0 -133 -45q-41 -44 -41 -145q0 -97 43 -146q44 -47 141 -47
q48 0 82.5 13.5t77.5 44.5v278z" />
    <glyph glyph-name="guillemotleft" unicode="&#xab;" horiz-adv-x="749" 
d="M72 590v57l280 287l66 -53l-215 -263l215 -262l-66 -53zM592 303l-281 287v57l281 287l65 -53l-215 -263l215 -262z" />
    <glyph glyph-name="logicalnot" unicode="&#xac;" horiz-adv-x="731" 
d="M557 496l-12 192h-473v109h587v-301h-102z" />
    <glyph glyph-name="uni00AD" unicode="&#xad;" horiz-adv-x="731" 
d="M72 592h587v-109h-587v109z" />
    <glyph glyph-name="registered" unicode="&#xae;" horiz-adv-x="854" 
d="M426 563q-150 0 -244 88q-100 94 -100 256q0 156 94 250t250 94q166 0 260 -102q86 -92 86 -242q0 -146 -82 -237q-96 -107 -264 -107zM694 907q0 122 -67 195q-72 78 -201 78q-119 0 -190 -68q-78 -72 -78 -205q0 -124 67 -194q75 -78 201 -78t201 78q67 73 67 194z
M518 848l76 -117h-86l-64 103h-86v-103h-73v356h170q68 0 104 -45q27 -34 27 -81q0 -29 -17 -60q-21 -35 -51 -53zM358 1018v-115h95q29 0 45 19q14 18 14 39q0 23 -10 36q-15 21 -49 21h-95z" />
    <glyph glyph-name="macron" unicode="&#xaf;" horiz-adv-x="854" 
d="M133 1268h588v-105h-588v105z" />
    <glyph glyph-name="degree" unicode="&#xb0;" horiz-adv-x="686" 
d="M344 690q-129 0 -205 76q-78 78 -78 205q0 128 80 205q78 75 203 75q128 0 203 -75q78 -78 78 -205q0 -121 -70 -197q-78 -84 -211 -84zM528 971q0 87 -47 137q-50 53 -137 53q-89 0 -139 -53q-47 -50 -47 -137q0 -85 47 -135q51 -54 139 -54q83 0 137 54q47 50 47 135z
" />
    <glyph glyph-name="plusminus" unicode="&#xb1;" horiz-adv-x="731" 
d="M72 389h587v-108h-587v108zM72 791h237v239h109v-239h241v-109h-241v-240h-109v240h-237v109z" />
    <glyph glyph-name="twosuperior" unicode="&#xb2;" horiz-adv-x="571" 
d="M219 799h281v-80h-422v82l252 174q80 59 80 115q0 39 -25 61q-35 27 -102 27q-53 0 -94 -12.5t-85 -45.5l-43 66q52 40 101.5 57t120.5 17q113 0 168 -52q45 -42 45 -121q0 -100 -119 -180z" />
    <glyph glyph-name="threesuperior" unicode="&#xb3;" horiz-adv-x="591" 
d="M459 1030q71 -42 71 -137q0 -75 -49 -121q-66 -63 -188 -63q-141 0 -232 79l48 62q82 -59 184 -59q75 0 115 30q36 25 36 72q0 40 -24.5 62t-65.5 22h-180v78h164q28 0 50 16.5t22 44.5q0 36 -37.5 50t-81.5 14q-90 0 -170 -47l-39 61q88 66 215 66q81 0 140 -34t59 -110
q0 -49 -37 -86z" />
    <glyph glyph-name="acute" unicode="&#xb4;" horiz-adv-x="507" 
d="M133 1167l119 297l123 -59l-160 -277z" />
    <glyph glyph-name="mu" unicode="&#xb5;" horiz-adv-x="1241" 
d="M1108 0h-92l-23 160q-161 -178 -405 -178q-130 0 -221 63q-67 45 -121 135l-6 -4l16 -455l-37 -28h-86v1302l33 29h88v-494q0 -91 16 -152t54 -128q87 -156 276 -156q117 0 203.5 41.5t181.5 136.5v752h123v-1024z" />
    <glyph glyph-name="paragraph" unicode="&#xb6;" horiz-adv-x="1009" 
d="M430 1229h512l6 -82l-119 -21l-49 -4v-993q0 -186 -24 -303l-6 -29l-64 -20l-27 14v1325h-108v-1061q0 -195 -25 -303l-6 -28l-63 -21l-27 14v813q-152 0 -248 93q-100 97 -100 258q0 149 92 247q98 101 256 101z" />
    <glyph glyph-name="periodcentered" unicode="&#xb7;" horiz-adv-x="421" 
d="M211 737q51 0 79.5 -29t28.5 -73q0 -46 -28.5 -74.5t-79.5 -28.5t-80 28.5t-29 74.5q0 44 29 73t80 29z" />
    <glyph glyph-name="cedilla" unicode="&#xb8;" horiz-adv-x="526" 
d="M180 31h94l-4 -101q56 -6 86 -36q37 -34 37 -97q0 -139 -229 -200l-31 69q69 24 105 51q47 35 47 80q0 21 -15 33t-45 12h-22l-23 21v168z" />
    <glyph glyph-name="onesuperior" unicode="&#xb9;" horiz-adv-x="411" 
d="M186 797v346l-82 -39l-32 72l161 84l39 -9v-454l68 -4v-74h-244v74z" />
    <glyph glyph-name="ordmasculine" unicode="&#xba;" horiz-adv-x="610" 
d="M147 985q0 -125 64 -170q36 -24 94 -24t94 24q64 45 64 170q0 123 -64 168q-37 25 -94 25t-94 -25q-64 -45 -64 -168zM549 985q0 -172 -105 -240q-55 -36 -139 -36t-139 36q-105 68 -105 240q0 170 105 238q56 37 139 37t139 -37q105 -68 105 -238z" />
    <glyph glyph-name="guillemotright" unicode="&#xbb;" horiz-adv-x="749" 
d="M678 647v-57l-281 -287l-65 53l215 262l-215 263l65 53zM158 934l280 -287v-57l-280 -287l-66 53l215 262l-215 263z" />
    <glyph glyph-name="questiondown" unicode="&#xbf;" horiz-adv-x="1196" 
d="M629 1137q-51 0 -80 29t-29 73q0 45 29 73.5t80 28.5t79.5 -28t28.5 -74q0 -44 -28.5 -73t-79.5 -29zM571 946l2 92h113v-110q0 -114 -54 -176t-163 -84l-39 -9q-166 -33 -240 -104q-67 -64 -67 -158q0 -136 100 -211q117 -86 361 -86q247 0 467 133l53 -96
q-224 -149 -526 -149q-288 0 -437 108q-141 103 -141 291q0 153 100 248q101 94 297 137l60 12q62 13 87 52.5t27 109.5z" />
    <glyph glyph-name="Agrave" unicode="&#xc0;" horiz-adv-x="1429" 
d="M621 1229h188l559 -1229h-133l-117 258h-813l-117 -258h-127zM694 1116l-338 -745h711l-338 745h-35zM635 1663l127 -303l-88 -39l-160 283z" />
    <glyph glyph-name="Aacute" unicode="&#xc1;" horiz-adv-x="1429" 
d="M621 1229h188l559 -1229h-133l-117 258h-813l-117 -258h-127zM694 1116l-338 -745h711l-338 745h-35zM672 1360l127 303l121 -59l-160 -283z" />
    <glyph glyph-name="Acircumflex" unicode="&#xc2;" horiz-adv-x="1429" 
d="M621 1229h188l559 -1229h-133l-117 258h-813l-117 -258h-127zM694 1116l-338 -745h711l-338 745h-35zM483 1321l-57 59l258 254h57l258 -254l-57 -59l-229 188z" />
    <glyph glyph-name="Atilde" unicode="&#xc3;" horiz-adv-x="1429" 
d="M621 1229h188l559 -1229h-133l-117 258h-813l-117 -258h-127zM694 1116l-338 -745h711l-338 745h-35zM705 1368q-75 37 -152 37q-73 0 -135 -49l-51 69q98 91 198 91q73 0 154 -37q78 -37 149 -37q79 0 138 49l49 -74q-94 -84 -199 -84q-77 0 -151 35z" />
    <glyph glyph-name="Adieresis" unicode="&#xc4;" horiz-adv-x="1429" 
d="M621 1229h188l559 -1229h-133l-117 258h-813l-117 -258h-127zM694 1116l-338 -745h711l-338 745h-35zM922 1544q52 0 81 -29.5t29 -76.5q0 -45 -29 -74t-81 -29q-51 0 -81 29.5t-30 73.5q0 47 30 76.5t81 29.5zM508 1544q53 0 83 -29.5t30 -76.5q0 -44 -30.5 -73.5
t-82.5 -29.5q-51 0 -81 29.5t-30 73.5q0 47 30 76.5t81 29.5z" />
    <glyph glyph-name="Aring" unicode="&#xc5;" horiz-adv-x="1429" 
d="M621 1229h188l559 -1229h-133l-117 258h-813l-117 -258h-127zM694 1116l-338 -745h711l-338 745h-35zM715 1286q-95 0 -152 57t-57 152q0 94 59 150q57 57 150 57q96 0 151 -55q58 -61 58 -152q0 -93 -52 -145q-61 -64 -157 -64zM829 1495q0 51 -28 82q-33 33 -86 33
q-55 0 -86 -31q-31 -28 -31 -84q0 -53 31 -84q33 -33 86 -33t86 33q28 31 28 84z" />
    <glyph glyph-name="AE" unicode="&#xc6;" horiz-adv-x="2172" 
d="M1096 0v311h-709l-194 -311h-132l762 1229h1229v-113h-833v-405h743v-113h-743v-485h862v-113h-985zM893 1116l-434 -692h637v692h-203z" />
    <glyph glyph-name="Ccedilla" unicode="&#xc7;" horiz-adv-x="1277" 
d="M82 614q0 323 221 494q188 143 483 143q112 0 222.5 -23t187.5 -61l-45 -96q-159 68 -365 68q-254 0 -407 -125q-85 -68 -129.5 -171t-44.5 -229q0 -223 139 -362q77 -77 191 -119.5t251 -42.5q206 0 365 68l45 -97q-77 -38 -187.5 -61t-222.5 -23h-32l-2 -55
q55 0 94 -31t39 -98q0 -83 -66 -139q-71 -60 -188 -88l-33 78q79 23 121 53q55 38 55 94q0 28 -18 37q-16 8 -39 8h-43l-23 21v129q-243 30 -391 172q-178 169 -178 456z" />
    <glyph glyph-name="Egrave" unicode="&#xc8;" horiz-adv-x="1208" 
d="M133 0v1229h954v-113h-831v-405h743v-113h-743v-485h860v-113h-983zM582 1663l127 -303l-88 -39l-160 283z" />
    <glyph glyph-name="Eacute" unicode="&#xc9;" horiz-adv-x="1208" 
d="M133 0v1229h954v-113h-831v-405h743v-113h-743v-485h860v-113h-983zM528 1360l127 303l121 -59l-160 -283z" />
    <glyph glyph-name="Ecircumflex" unicode="&#xca;" horiz-adv-x="1208" 
d="M133 0v1229h954v-113h-831v-405h743v-113h-743v-485h860v-113h-983zM414 1321l-58 59l258 254h58l258 -254l-58 -59l-229 188z" />
    <glyph glyph-name="Edieresis" unicode="&#xcb;" horiz-adv-x="1208" 
d="M133 0v1229h954v-113h-831v-405h743v-113h-743v-485h860v-113h-983zM811 1544q53 0 82 -29.5t29 -76.5q0 -45 -29.5 -74t-81.5 -29q-51 0 -81 29.5t-30 73.5q0 47 30 76.5t81 29.5zM397 1544q53 0 83 -29.5t30 -76.5q0 -44 -30.5 -73.5t-82.5 -29.5q-51 0 -80.5 29.5
t-29.5 73.5q0 47 29.5 76.5t80.5 29.5z" />
    <glyph glyph-name="Igrave" unicode="&#xcc;" horiz-adv-x="389" 
d="M133 1229h123v-1229h-123v1229zM139 1663l127 -303l-88 -39l-160 283z" />
    <glyph glyph-name="Iacute" unicode="&#xcd;" horiz-adv-x="389" 
d="M133 1229h123v-1229h-123v1229zM133 1360l127 303l121 -59l-160 -283z" />
    <glyph glyph-name="Icircumflex" unicode="&#xce;" horiz-adv-x="389" 
d="M133 1229h123v-1229h-123v1229zM-31 1321l-57 59l258 254h57l258 -254l-57 -59l-229 188z" />
    <glyph glyph-name="Idieresis" unicode="&#xcf;" horiz-adv-x="389" 
d="M133 1229h123v-1229h-123v1229zM401 1544q53 0 82 -29.5t29 -76.5q0 -45 -29.5 -74t-81.5 -29q-51 0 -80.5 29.5t-29.5 73.5q0 47 29.5 76.5t80.5 29.5zM-12 1544q53 0 82.5 -29.5t29.5 -76.5q0 -44 -30 -73.5t-82 -29.5q-51 0 -81 29.5t-30 73.5q0 47 30 76.5t81 29.5z
" />
    <glyph glyph-name="Eth" unicode="&#xd0;" horiz-adv-x="1335" 
d="M23 707h141v522h450q316 0 476 -148q163 -150 163 -467q0 -316 -161 -467q-156 -147 -478 -147h-450v598h-141v109zM1130 614q0 260 -124 381t-392 121h-327v-409h325v-109h-325v-485h354q246 0 369 123q120 120 120 378z" />
    <glyph glyph-name="Ntilde" unicode="&#xd1;" horiz-adv-x="1370" 
d="M1118 1229h119v-1229h-131l-854 1051v-1051h-119v1229h131l854 -1051v1051zM678 1368q-75 37 -152 37q-73 0 -135 -49l-51 69q98 91 199 91q72 0 153 -37q78 -37 150 -37q42 0 72.5 10.5t64.5 38.5l49 -74q-94 -84 -199 -84q-77 0 -151 35z" />
    <glyph glyph-name="Ograve" unicode="&#xd2;" horiz-adv-x="1409" 
d="M1204 614q0 261 -137 398q-130 127 -362 127q-239 0 -367 -131q-133 -136 -133 -394q0 -242 119 -376q130 -148 381 -148q253 0 382 150q117 135 117 374zM82 614q0 298 164 467q162 170 459 170q280 0 444 -155q178 -169 178 -482q0 -277 -141 -444q-164 -193 -481 -193
q-294 0 -457 168q-166 166 -166 469zM616 1663l127 -303l-88 -39l-159 283z" />
    <glyph glyph-name="Oacute" unicode="&#xd3;" horiz-adv-x="1409" 
d="M1204 614q0 261 -137 398q-130 127 -362 127q-239 0 -367 -131q-133 -136 -133 -394q0 -242 119 -376q130 -148 381 -148q253 0 382 150q117 135 117 374zM82 614q0 298 164 467q162 170 459 170q280 0 444 -155q178 -169 178 -482q0 -277 -141 -444q-164 -193 -481 -193
q-294 0 -457 168q-166 166 -166 469zM659 1360l127 303l121 -59l-159 -283z" />
    <glyph glyph-name="Ocircumflex" unicode="&#xd4;" horiz-adv-x="1409" 
d="M1204 614q0 261 -137 398q-130 127 -362 127q-239 0 -367 -131q-133 -136 -133 -394q0 -242 119 -376q130 -148 381 -148q253 0 382 150q117 135 117 374zM82 614q0 298 164 467q162 170 459 170q280 0 444 -155q178 -169 178 -482q0 -277 -141 -444q-164 -193 -481 -193
q-294 0 -457 168q-166 166 -166 469zM479 1321l-57 59l258 254h57l258 -254l-57 -59l-229 188z" />
    <glyph glyph-name="Otilde" unicode="&#xd5;" horiz-adv-x="1409" 
d="M1204 614q0 261 -137 398q-130 127 -362 127q-239 0 -367 -131q-133 -136 -133 -394q0 -242 119 -376q130 -148 381 -148q253 0 382 150q117 135 117 374zM82 614q0 298 164 467q162 170 459 170q280 0 444 -155q178 -169 178 -482q0 -277 -141 -444q-164 -193 -481 -193
q-294 0 -457 168q-166 166 -166 469zM715 1368q-75 37 -152 37q-73 0 -135 -49l-51 69q98 91 198 91q73 0 154 -37q78 -37 150 -37q42 0 72.5 10.5t64.5 38.5l49 -74q-94 -84 -199 -84q-77 0 -151 35z" />
    <glyph glyph-name="Odieresis" unicode="&#xd6;" horiz-adv-x="1409" 
d="M1204 614q0 261 -137 398q-130 127 -362 127q-239 0 -367 -131q-133 -136 -133 -394q0 -242 119 -376q130 -148 381 -148q253 0 382 150q117 135 117 374zM82 614q0 298 164 467q162 170 459 170q280 0 444 -155q178 -169 178 -482q0 -277 -141 -444q-164 -193 -481 -193
q-294 0 -457 168q-166 166 -166 469zM911 1544q53 0 82 -29.5t29 -76.5q0 -45 -29.5 -74t-81.5 -29q-51 0 -80.5 29.5t-29.5 73.5q0 47 29.5 76.5t80.5 29.5zM498 1544q53 0 82.5 -29.5t29.5 -76.5q0 -44 -30 -73.5t-82 -29.5q-51 0 -81 29.5t-30 73.5q0 47 30 76.5t81 29.5
z" />
    <glyph glyph-name="multiply" unicode="&#xd7;" horiz-adv-x="698" 
d="M104 492l168 167l-170 170l78 76l168 -170l172 172l76 -78l-170 -170l170 -170l-78 -75l-170 170l-168 -170z" />
    <glyph glyph-name="Oslash" unicode="&#xd8;" horiz-adv-x="1409" 
d="M1090 1235l92 -68l-43 -61q188 -167 188 -492q0 -291 -158 -460q-163 -177 -464 -177q-194 0 -338 78l-48 -63l-92 67l45 62q-190 171 -190 493q0 316 180 484q162 153 443 153q195 0 339 -80zM205 614q0 -261 139 -397l631 860q-112 62 -270 62q-221 0 -351 -115
q-149 -137 -149 -410zM1204 614q0 262 -137 396l-631 -860q114 -60 269 -60q232 0 362 127q137 134 137 397z" />
    <glyph glyph-name="Ugrave" unicode="&#xd9;" horiz-adv-x="1351" 
d="M133 522v707h123v-707q0 -222 113 -329q106 -103 307 -103q199 0 303 98q117 108 117 334v707h123v-707q0 -264 -144 -405q-143 -140 -399 -140q-248 0 -389 129q-154 141 -154 416zM598 1663l127 -303l-88 -39l-160 283z" />
    <glyph glyph-name="Uacute" unicode="&#xda;" horiz-adv-x="1351" 
d="M133 522v707h123v-707q0 -222 113 -329q106 -103 307 -103q199 0 303 98q117 108 117 334v707h123v-707q0 -264 -144 -405q-143 -140 -399 -140q-248 0 -389 129q-154 141 -154 416zM594 1360l127 303l121 -59l-160 -283z" />
    <glyph glyph-name="Ucircumflex" unicode="&#xdb;" horiz-adv-x="1351" 
d="M133 522v707h123v-707q0 -222 113 -329q106 -103 307 -103q199 0 303 98q117 108 117 334v707h123v-707q0 -264 -144 -405q-143 -140 -399 -140q-248 0 -389 129q-154 141 -154 416zM446 1321l-57 59l258 254h58l258 -254l-58 -59l-229 188z" />
    <glyph glyph-name="Udieresis" unicode="&#xdc;" horiz-adv-x="1351" 
d="M133 522v707h123v-707q0 -222 113 -329q106 -103 307 -103q199 0 303 98q117 108 117 334v707h123v-707q0 -264 -144 -405q-143 -140 -399 -140q-248 0 -389 129q-154 141 -154 416zM883 1544q52 0 81 -29.5t29 -76.5q0 -45 -29 -74t-81 -29q-51 0 -81 29.5t-30 73.5
q0 47 30 76.5t81 29.5zM469 1544q53 0 83 -29.5t30 -76.5q0 -44 -30.5 -73.5t-82.5 -29.5q-51 0 -81 29.5t-30 73.5q0 47 30 76.5t81 29.5z" />
    <glyph glyph-name="Yacute" unicode="&#xdd;" horiz-adv-x="1349" 
d="M737 0h-123v283l-553 946h144l465 -807h14l467 807h137l-551 -942v-287zM616 1360l127 303l121 -59l-159 -283z" />
    <glyph glyph-name="Thorn" unicode="&#xde;" horiz-adv-x="1183" 
d="M643 207h-387v-207h-123v1251h123v-176h412q214 0 333 -141q101 -119 101 -293q0 -188 -127 -309q-128 -125 -332 -125zM979 641q0 136 -68 219q-83 103 -249 103h-406v-644h389q147 0 238 82q96 87 96 240z" />
    <glyph glyph-name="germandbls" unicode="&#xdf;" horiz-adv-x="1296" 
d="M553 1434q185 0 291 -72q112 -75 112 -205q0 -92 -67 -162q-62 -62 -144 -84q-12 -3 -53 -12t-71.5 -19t-51.5 -26q-34 -24 -34 -70q0 -36 26 -59q36 -29 131 -49l152 -35q189 -45 280 -125q90 -80 90 -213q0 -79 -38 -142.5t-103 -103.5q-125 -75 -317 -75
q-98 0 -213 17.5t-178 45.5l36 100q52 -22 163 -36.5t192 -14.5q158 0 245 51q40 24 64.5 67.5t24.5 98.5q0 65 -43 111q-51 54 -205 92l-170 41q-141 35 -199 82q-63 52 -63 139q0 96 61 150q25 23 63 40.5t67.5 25.5t76.5 18q83 19 121 53q39 34 39 92q0 77 -78 123
q-73 43 -207 43q-143 0 -221 -66q-76 -64 -76 -170v-1085h-123v1085q0 158 113 252q115 97 307 97z" />
    <glyph glyph-name="agrave" unicode="&#xe0;" 
d="M1085 719v-434q0 -159 50 -271l-72 -24q-66 63 -86 137q-165 -145 -406 -145q-130 0 -218 21.5t-154 72.5q-117 89 -117 262q0 168 137 264q133 92 334 92q213 0 410 -55v84q0 100 -93 156q-84 51 -241 51q-124 0 -208.5 -15t-201.5 -57l-29 90q213 94 435 94
q111 0 201.5 -25t146.5 -67q56 -44 84 -105t28 -126zM549 582q-163 0 -258 -68q-86 -63 -86 -176q0 -115 92 -180q98 -66 274 -66q117 0 203.5 29.5t188.5 95.5v332q-125 19 -208.5 26t-205.5 7zM616 1464l119 -297l-82 -39l-160 277z" />
    <glyph glyph-name="aacute" unicode="&#xe1;" 
d="M1085 719v-434q0 -159 50 -271l-72 -24q-66 63 -86 137q-165 -145 -406 -145q-130 0 -218 21.5t-154 72.5q-117 89 -117 262q0 168 137 264q133 92 334 92q213 0 410 -55v84q0 100 -93 156q-84 51 -241 51q-124 0 -208.5 -15t-201.5 -57l-29 90q213 94 435 94
q111 0 201.5 -25t146.5 -67q56 -44 84 -105t28 -126zM549 582q-163 0 -258 -68q-86 -63 -86 -176q0 -115 92 -180q98 -66 274 -66q117 0 203.5 29.5t188.5 95.5v332q-125 19 -208.5 26t-205.5 7zM575 1167l119 297l123 -59l-160 -277z" />
    <glyph glyph-name="acircumflex" unicode="&#xe2;" 
d="M1085 719v-434q0 -159 50 -271l-72 -24q-66 63 -86 137q-165 -145 -406 -145q-130 0 -218 21.5t-154 72.5q-117 89 -117 262q0 168 137 264q133 92 334 92q213 0 410 -55v84q0 100 -93 156q-84 51 -241 51q-124 0 -208.5 -15t-201.5 -57l-29 90q213 94 435 94
q111 0 201.5 -25t146.5 -67q56 -44 84 -105t28 -126zM549 582q-163 0 -258 -68q-86 -63 -86 -176q0 -115 92 -180q98 -66 274 -66q117 0 203.5 29.5t188.5 95.5v332q-125 19 -208.5 26t-205.5 7zM897 1180l-57 -60l-226 183l-225 -183l-57 60l254 247h57z" />
    <glyph glyph-name="atilde" unicode="&#xe3;" 
d="M1085 719v-434q0 -159 50 -271l-72 -24q-66 63 -86 137q-165 -145 -406 -145q-130 0 -218 21.5t-154 72.5q-117 89 -117 262q0 168 137 264q133 92 334 92q213 0 410 -55v84q0 100 -93 156q-84 51 -241 51q-124 0 -208.5 -15t-201.5 -57l-29 90q213 94 435 94
q111 0 201.5 -25t146.5 -67q56 -44 84 -105t28 -126zM549 582q-163 0 -258 -68q-86 -63 -86 -176q0 -115 92 -180q98 -66 274 -66q117 0 203.5 29.5t188.5 95.5v332q-125 19 -208.5 26t-205.5 7zM610 1188q-75 35 -143 35q-76 0 -133 -54l-47 70q90 84 188 84q65 0 143 -35
t142 -35q73 0 135 56l45 -72q-88 -82 -188 -82q-72 0 -142 33z" />
    <glyph glyph-name="adieresis" unicode="&#xe4;" 
d="M1085 719v-434q0 -159 50 -271l-72 -24q-66 63 -86 137q-165 -145 -406 -145q-130 0 -218 21.5t-154 72.5q-117 89 -117 262q0 168 137 264q133 92 334 92q213 0 410 -55v84q0 100 -93 156q-84 51 -241 51q-124 0 -208.5 -15t-201.5 -57l-29 90q213 94 435 94
q111 0 201.5 -25t146.5 -67q56 -44 84 -105t28 -126zM549 582q-163 0 -258 -68q-86 -63 -86 -176q0 -115 92 -180q98 -66 274 -66q117 0 203.5 29.5t188.5 95.5v332q-125 19 -208.5 26t-205.5 7zM821 1350q48 0 75.5 -27t27.5 -70q0 -41 -27.5 -67.5t-75.5 -26.5
q-46 0 -73 26.5t-27 67.5q0 42 27 69.5t73 27.5zM403 1350q48 0 75.5 -27t27.5 -70q0 -41 -27.5 -67.5t-75.5 -26.5q-46 0 -73 26.5t-27 67.5q0 42 27 69.5t73 27.5z" />
    <glyph glyph-name="aring" unicode="&#xe5;" 
d="M1085 719v-434q0 -159 50 -271l-72 -24q-66 63 -86 137q-165 -145 -406 -145q-130 0 -218 21.5t-154 72.5q-117 89 -117 262q0 168 137 264q133 92 334 92q213 0 410 -55v84q0 100 -93 156q-84 51 -241 51q-124 0 -208.5 -15t-201.5 -57l-29 90q213 94 435 94
q111 0 201.5 -25t146.5 -67q56 -44 84 -105t28 -126zM549 582q-163 0 -258 -68q-86 -63 -86 -176q0 -115 92 -180q98 -66 274 -66q117 0 203.5 29.5t188.5 95.5v332q-125 19 -208.5 26t-205.5 7zM615 1145q-87 0 -144 57q-55 55 -55 141q0 92 53 142q55 55 146 55
q87 0 145 -55q53 -53 53 -142q0 -90 -49 -139q-56 -56 -149 -59zM723 1343q0 52 -30 82q-31 31 -78 31q-51 0 -82 -31q-29 -29 -29 -82q0 -52 27 -79q31 -31 84 -31q54 0 82 31q26 29 26 79z" />
    <glyph glyph-name="ae" unicode="&#xe6;" horiz-adv-x="2107" 
d="M1497 1042q257 0 393 -133q140 -137 140 -397v-66h-940q15 -153 106 -241q55 -55 149 -83t207 -28q76 0 166 14.5t144 36.5l36 -100q-66 -29 -159.5 -46t-186.5 -17q-196 0 -317 59q-95 48 -168 133q-109 -93 -217 -139q-122 -53 -277 -53q-233 0 -360 90
q-129 91 -129 266q0 167 135 264q133 92 332 92q224 0 414 -63v98q0 79 -72 133q-41 31 -113 49.5t-149 18.5q-121 0 -206 -11t-206 -40l-24 82q221 81 432 81q176 0 291 -59q87 -45 141 -147q61 82 143 133q120 73 295 73zM551 582q-161 0 -258 -70q-86 -66 -86 -174
q0 -125 90 -186q89 -60 276 -60q131 0 232 37q95 33 215 119q-55 110 -55 264v37q-215 33 -414 33zM1497 930q-180 0 -287 -90q-108 -92 -123 -281h818q-9 173 -101 268q-103 103 -307 103z" />
    <glyph glyph-name="ccedilla" unicode="&#xe7;" horiz-adv-x="1071" 
d="M993 981l-35 -100q-54 21 -144 35t-165 14q-213 0 -332 -119q-112 -109 -112 -299q0 -222 135 -330q113 -88 309 -88q77 0 170 14.5t146 36.5l34 -100q-61 -27 -152 -44t-181 -19l-2 -62q55 -6 86 -37q36 -33 36 -96q0 -140 -229 -201l-31 70q69 24 105 51q47 35 47 80
q0 22 -14 33q-15 12 -46 12h-22l-23 21v133q-214 15 -337 129q-154 139 -154 397q0 249 166 393q156 137 401 137q209 0 344 -61z" />
    <glyph glyph-name="egrave" unicode="&#xe8;" horiz-adv-x="1224" 
d="M614 1042q264 0 398 -137q137 -137 137 -393v-66h-944q14 -151 108 -241q111 -111 346 -111q180 0 330 58l37 -101q-153 -69 -367 -69q-131 0 -240 34.5t-181 100.5q-158 142 -158 395q0 235 143 381q146 149 391 149zM614 930q-204 0 -315 -123q-84 -97 -96 -248h821
q-9 174 -100 268q-100 103 -310 103zM541 1464l119 -297l-82 -39l-160 277z" />
    <glyph glyph-name="eacute" unicode="&#xe9;" horiz-adv-x="1224" 
d="M614 1042q264 0 398 -137q137 -137 137 -393v-66h-944q14 -151 108 -241q111 -111 346 -111q180 0 330 58l37 -101q-153 -69 -367 -69q-131 0 -240 34.5t-181 100.5q-158 142 -158 395q0 235 143 381q146 149 391 149zM614 930q-204 0 -315 -123q-84 -97 -96 -248h821
q-9 174 -100 268q-100 103 -310 103zM586 1167l119 297l122 -59l-159 -277z" />
    <glyph glyph-name="ecircumflex" unicode="&#xea;" horiz-adv-x="1224" 
d="M614 1042q264 0 398 -137q137 -137 137 -393v-66h-944q14 -151 108 -241q111 -111 346 -111q180 0 330 58l37 -101q-153 -69 -367 -69q-131 0 -240 34.5t-181 100.5q-158 142 -158 395q0 235 143 381q146 149 391 149zM614 930q-204 0 -315 -123q-84 -97 -96 -248h821
q-9 174 -100 268q-100 103 -310 103zM915 1180l-57 -60l-225 183l-226 -183l-57 60l254 247h57z" />
    <glyph glyph-name="edieresis" unicode="&#xeb;" horiz-adv-x="1224" 
d="M614 1042q264 0 398 -137q137 -137 137 -393v-66h-944q14 -151 108 -241q111 -111 346 -111q180 0 330 58l37 -101q-153 -69 -367 -69q-131 0 -240 34.5t-181 100.5q-158 142 -158 395q0 235 143 381q146 149 391 149zM614 930q-204 0 -315 -123q-84 -97 -96 -248h821
q-9 174 -100 268q-100 103 -310 103zM842 1350q48 0 75 -27t27 -70q0 -41 -27 -67.5t-75 -26.5q-46 0 -73.5 26.5t-27.5 67.5q0 42 27.5 69.5t73.5 27.5zM424 1350q48 0 75 -27t27 -70q0 -41 -27 -67.5t-75 -26.5q-46 0 -73 26.5t-27 67.5q0 42 27 69.5t73 27.5z" />
    <glyph glyph-name="igrave" unicode="&#xec;" horiz-adv-x="436" 
d="M51 934v90h252v-1024h-123v924zM180 1464l119 -297l-82 -39l-160 277z" />
    <glyph glyph-name="iacute" unicode="&#xed;" horiz-adv-x="436" 
d="M51 934v90h252v-1024h-123v924zM172 1167l119 297l123 -59l-160 -277z" />
    <glyph glyph-name="icircumflex" unicode="&#xee;" horiz-adv-x="436" 
d="M51 934v90h252v-1024h-123v924zM503 1180l-57 -60l-225 183l-226 -183l-57 60l254 247h57z" />
    <glyph glyph-name="idieresis" unicode="&#xef;" horiz-adv-x="436" 
d="M360 1350q48 0 75.5 -27t27.5 -70q0 -41 -27.5 -67.5t-75.5 -26.5q-46 0 -73 26.5t-27 67.5q0 42 27 69.5t73 27.5zM84 1350q48 0 75 -27t27 -70q0 -41 -27 -67.5t-75 -26.5q-46 0 -73 26.5t-27 67.5q0 42 27 69.5t73 27.5zM51 934v90h252v-1024h-123v924z" />
    <glyph glyph-name="eth" unicode="&#xf0;" horiz-adv-x="1224" 
d="M666 1083l-97 35l56 152q-167 53 -379 80l18 96q220 -19 400 -72l57 156l94 -35l-55 -152q168 -59 260 -190q123 -172 123 -491q0 -344 -148 -521q-133 -159 -387 -159q-239 0 -381 133q-145 136 -145 368q0 210 111 342q136 162 399 162q150 0 260 -39q87 -30 156 -88
q-23 147 -97 240q-53 74 -190 135zM1020 666q0 66 -2 86q-94 64 -193 94q-98 28 -233 28q-201 0 -299 -112q-88 -101 -88 -279q0 -182 110 -286q109 -103 293 -103q208 0 305 133q104 141 107 439z" />
    <glyph glyph-name="ntilde" unicode="&#xf1;" horiz-adv-x="1259" 
d="M133 1024h82l37 -121q164 139 399 139q251 0 363 -118t112 -375v-549h-122v549q0 206 -84 293q-82 88 -269 88q-121 0 -211.5 -31.5t-183.5 -105.5v-793h-123v1024zM656 1188q-75 35 -144 35q-76 0 -133 -54l-47 70q90 84 189 84q65 0 143 -35t141 -35q73 0 135 56
l45 -72q-88 -82 -188 -82q-71 0 -141 33z" />
    <glyph glyph-name="ograve" unicode="&#xf2;" 
d="M614 1042q219 0 369 -131q166 -144 166 -399t-166 -399q-150 -131 -369 -131q-218 0 -368 131q-166 144 -166 399t166 399q150 131 368 131zM614 930q-185 0 -299 -111q-112 -109 -112 -307t112 -307q114 -111 299 -111t299 111q113 110 113 307t-113 307
q-114 111 -299 111zM553 1464l119 -297l-82 -39l-160 277z" />
    <glyph glyph-name="oacute" unicode="&#xf3;" 
d="M614 1042q219 0 369 -131q166 -144 166 -399t-166 -399q-150 -131 -369 -131q-218 0 -368 131q-166 144 -166 399t166 399q150 131 368 131zM614 930q-185 0 -299 -111q-112 -109 -112 -307t112 -307q114 -111 299 -111t299 111q113 110 113 307t-113 307
q-114 111 -299 111zM573 1167l119 297l123 -59l-160 -277z" />
    <glyph glyph-name="ocircumflex" unicode="&#xf4;" 
d="M614 1042q219 0 369 -131q166 -144 166 -399t-166 -399q-150 -131 -369 -131q-218 0 -368 131q-166 144 -166 399t166 399q150 131 368 131zM614 930q-185 0 -299 -111q-112 -109 -112 -307t112 -307q114 -111 299 -111t299 111q113 110 113 307t-113 307
q-114 111 -299 111zM897 1180l-57 -60l-225 183l-226 -183l-57 60l254 247h57z" />
    <glyph glyph-name="otilde" unicode="&#xf5;" 
d="M614 1042q219 0 369 -131q166 -144 166 -399t-166 -399q-150 -131 -369 -131q-218 0 -368 131q-166 144 -166 399t166 399q150 131 368 131zM614 930q-185 0 -299 -111q-112 -109 -112 -307t112 -307q114 -111 299 -111t299 111q113 110 113 307t-113 307
q-114 111 -299 111zM635 1188q-75 35 -143 35q-77 0 -134 -54l-47 70q90 84 189 84q65 0 143 -35t141 -35q74 0 136 56l45 -72q-88 -82 -189 -82q-71 0 -141 33z" />
    <glyph glyph-name="odieresis" unicode="&#xf6;" 
d="M614 1042q219 0 369 -131q166 -144 166 -399t-166 -399q-150 -131 -369 -131q-218 0 -368 131q-166 144 -166 399t166 399q150 131 368 131zM614 930q-185 0 -299 -111q-112 -109 -112 -307t112 -307q114 -111 299 -111t299 111q113 110 113 307t-113 307
q-114 111 -299 111zM824 1350q48 0 75 -27t27 -70q0 -41 -27 -67.5t-75 -26.5q-46 0 -73.5 26.5t-27.5 67.5q0 42 27.5 69.5t73.5 27.5zM406 1350q48 0 75 -27t27 -70q0 -41 -27 -67.5t-75 -26.5q-46 0 -73 26.5t-27 67.5q0 42 27 69.5t73 27.5z" />
    <glyph glyph-name="divide" unicode="&#xf7;" horiz-adv-x="731" 
d="M72 715h587v-109h-587v109zM365 498q51 0 79.5 -29t28.5 -74q0 -46 -28.5 -74t-79.5 -28t-80 28.5t-29 73.5q0 44 29 73.5t80 29.5zM365 1022q51 0 79.5 -29t28.5 -73q0 -46 -28.5 -74.5t-79.5 -28.5t-80 28.5t-29 74.5q0 44 29 73t80 29z" />
    <glyph glyph-name="oslash" unicode="&#xf8;" 
d="M928 1044l94 -67l-45 -62q172 -149 172 -403q0 -255 -166 -399q-150 -131 -369 -131q-154 0 -270 61l-43 -61l-94 67l43 60q-170 148 -170 403t166 399q150 131 368 131q147 0 267 -63zM909 821l-495 -684q85 -43 200 -43q185 0 299 111q113 110 113 307q0 192 -117 309z
M317 201l498 688q-87 41 -201 41q-185 0 -299 -111q-112 -109 -112 -307q0 -202 114 -311z" />
    <glyph glyph-name="ugrave" unicode="&#xf9;" horiz-adv-x="1261" 
d="M1128 0h-81l-37 121q-161 -139 -400 -139q-227 0 -338 94q-139 115 -139 399v549h123v-549q0 -210 92 -299q85 -82 262 -82q121 0 212.5 32t183.5 107v791h122v-1024zM541 1464l119 -297l-82 -39l-160 277z" />
    <glyph glyph-name="uacute" unicode="&#xfa;" horiz-adv-x="1261" 
d="M1128 0h-81l-37 121q-161 -139 -400 -139q-227 0 -338 94q-139 115 -139 399v549h123v-549q0 -210 92 -299q85 -82 262 -82q121 0 212.5 32t183.5 107v791h122v-1024zM563 1167l119 297l123 -59l-160 -277z" />
    <glyph glyph-name="ucircumflex" unicode="&#xfb;" horiz-adv-x="1261" 
d="M1128 0h-81l-37 121q-161 -139 -400 -139q-227 0 -338 94q-139 115 -139 399v549h123v-549q0 -210 92 -299q85 -82 262 -82q121 0 212.5 32t183.5 107v791h122v-1024zM919 1180l-57 -60l-225 183l-226 -183l-57 60l254 247h57z" />
    <glyph glyph-name="udieresis" unicode="&#xfc;" horiz-adv-x="1261" 
d="M1128 0h-81l-37 121q-161 -139 -400 -139q-227 0 -338 94q-139 115 -139 399v549h123v-549q0 -210 92 -299q85 -82 262 -82q121 0 212.5 32t183.5 107v791h122v-1024zM840 1350q48 0 75 -27t27 -70q0 -41 -27 -67.5t-75 -26.5q-46 0 -73.5 26.5t-27.5 67.5
q0 42 27.5 69.5t73.5 27.5zM422 1350q48 0 75 -27t27 -70q0 -41 -27 -67.5t-75 -26.5q-46 0 -73 26.5t-27 67.5q0 42 27 69.5t73 27.5z" />
    <glyph glyph-name="yacute" unicode="&#xfd;" horiz-adv-x="1265" 
d="M549 0l-488 1024h138l428 -911h55l387 911h135l-508 -1171q-41 -96 -108 -132q-50 -28 -154 -28q-27 0 -65 10l14 100q32 -4 41 -4q55 0 96 21q50 26 76 90l39 90h-86zM582 1167l119 297l123 -59l-160 -277z" />
    <glyph glyph-name="thorn" unicode="&#xfe;" horiz-adv-x="1280" 
d="M133 1331h123v-430q157 141 428 141q244 0 379 -141q137 -143 137 -383q0 -126 -41 -230.5t-117 -174.5q-143 -131 -378 -131q-249 0 -408 137v-426h-123v1638zM684 930q-135 0 -231 -29.5t-197 -99.5v-551q177 -156 408 -156q195 0 303 111q110 110 110 313
q0 199 -102 307q-97 105 -291 105z" />
    <glyph glyph-name="ydieresis" unicode="&#xff;" horiz-adv-x="1265" 
d="M549 0l-488 1024h138l428 -911h55l387 911h135l-508 -1171q-41 -96 -108 -132q-50 -28 -154 -28q-27 0 -65 10l14 100q32 -4 41 -4q55 0 96 21q50 26 76 90l39 90h-86zM848 1350q48 0 75 -27t27 -70q0 -41 -27 -67.5t-75 -26.5q-46 0 -73 26.5t-27 67.5q0 42 27 69.5
t73 27.5zM430 1350q48 0 75 -27t27 -70q0 -41 -27 -67.5t-75 -26.5q-46 0 -73 26.5t-27 67.5q0 42 27 69.5t73 27.5z" />
    <glyph glyph-name="Amacron" unicode="&#x100;" horiz-adv-x="1429" 
d="M621 1229h188l559 -1229h-133l-117 258h-813l-117 -258h-127zM694 1116l-338 -745h711l-338 745h-35zM389 1464h653v-106h-653v106z" />
    <glyph glyph-name="amacron" unicode="&#x101;" 
d="M1085 719v-434q0 -159 50 -271l-72 -24q-66 63 -86 137q-165 -145 -406 -145q-130 0 -218 21.5t-154 72.5q-117 89 -117 262q0 168 137 264q133 92 334 92q213 0 410 -55v84q0 100 -93 156q-84 51 -241 51q-124 0 -208.5 -15t-201.5 -57l-29 90q213 94 435 94
q111 0 201.5 -25t146.5 -67q56 -44 84 -105t28 -126zM549 582q-163 0 -258 -68q-86 -63 -86 -176q0 -115 92 -180q98 -66 274 -66q117 0 203.5 29.5t188.5 95.5v332q-125 19 -208.5 26t-205.5 7zM319 1268h588v-105h-588v105z" />
    <glyph glyph-name="Abreve" unicode="&#x102;" horiz-adv-x="1429" 
d="M621 1229h188l559 -1229h-133l-117 258h-813l-117 -258h-127zM694 1116l-338 -745h711l-338 745h-35zM440 1542l103 17q15 -74 59 -109q47 -35 115 -35q74 0 114 37q36 33 54 107l104 -17q-21 -114 -84 -168q-67 -61 -188 -61q-129 0 -199 67q-60 54 -78 162z" />
    <glyph glyph-name="abreve" unicode="&#x103;" 
d="M1085 719v-434q0 -159 50 -271l-72 -24q-66 63 -86 137q-165 -145 -406 -145q-130 0 -218 21.5t-154 72.5q-117 89 -117 262q0 168 137 264q133 92 334 92q213 0 410 -55v84q0 100 -93 156q-84 51 -241 51q-124 0 -208.5 -15t-201.5 -57l-29 90q213 94 435 94
q111 0 201.5 -25t146.5 -67q56 -44 84 -105t28 -126zM549 582q-163 0 -258 -68q-86 -63 -86 -176q0 -115 92 -180q98 -66 274 -66q117 0 203.5 29.5t188.5 95.5v332q-125 19 -208.5 26t-205.5 7zM381 1337l105 15q7 -67 36 -90q34 -27 91 -27q67 0 96 33q22 24 28 84
l105 -15q-6 -90 -64 -145q-60 -57 -165 -57q-106 0 -166 57q-57 54 -66 145z" />
    <glyph glyph-name="Aogonek" unicode="&#x104;" horiz-adv-x="1429" 
d="M621 1229h188l559 -1229q-24 -18 -37 -41q-16 -29 -16 -63q0 -52 33 -97q37 -46 98 -73l-35 -68q-100 26 -151 84q-50 56 -50 135q0 42 19 82q14 27 33 41h-27l-117 258h-813l-117 -258h-127zM694 1116l-338 -745h711l-338 745h-35z" />
    <glyph glyph-name="aogonek" unicode="&#x105;" 
d="M1085 719v-434q0 -159 50 -271q-25 -15 -37 -37q-15 -24 -15 -53q0 -51 29 -90q24 -33 94 -72l-35 -67q-98 29 -145 82q-45 51 -45 129q0 40 18 74q12 23 35 40q-43 54 -57 107q-165 -145 -406 -145q-130 0 -218 21.5t-154 72.5q-117 89 -117 262q0 168 137 264
q133 92 334 92q213 0 410 -55v84q0 100 -93 156q-84 51 -241 51q-124 0 -208.5 -15t-201.5 -57l-29 90q213 94 435 94q111 0 201.5 -25t146.5 -67q56 -44 84 -105t28 -126zM549 582q-163 0 -258 -68q-86 -63 -86 -176q0 -115 92 -180q98 -66 274 -66q117 0 203.5 29.5
t188.5 95.5v332q-125 19 -208.5 26t-205.5 7z" />
    <glyph glyph-name="Cacute" unicode="&#x106;" horiz-adv-x="1277" 
d="M82 614q0 323 221 494q188 143 483 143q112 0 222.5 -23t187.5 -61l-45 -96q-159 68 -365 68q-254 0 -407 -125q-85 -68 -129.5 -171t-44.5 -229q0 -223 139 -362q77 -77 191 -119.5t251 -42.5q206 0 365 68l45 -97q-77 -38 -187.5 -61t-222.5 -23q-336 0 -526 181
q-178 169 -178 456zM686 1360l127 303l121 -59l-160 -283z" />
    <glyph glyph-name="cacute" unicode="&#x107;" horiz-adv-x="1071" 
d="M993 981l-35 -100q-54 21 -144 35t-165 14q-213 0 -332 -119q-112 -109 -112 -299q0 -222 135 -330q113 -88 309 -88q77 0 170 14.5t146 36.5l34 -100q-64 -29 -160 -46t-190 -17q-268 0 -413 133q-154 139 -154 397q0 249 166 393q156 137 401 137q209 0 344 -61z
M604 1167l119 297l123 -59l-160 -277z" />
    <glyph glyph-name="Ccircumflex" unicode="&#x108;" horiz-adv-x="1277" 
d="M82 614q0 323 221 494q188 143 483 143q112 0 222.5 -23t187.5 -61l-45 -96q-159 68 -365 68q-254 0 -407 -125q-85 -68 -129.5 -171t-44.5 -229q0 -223 139 -362q77 -77 191 -119.5t251 -42.5q206 0 365 68l45 -97q-77 -38 -187.5 -61t-222.5 -23q-336 0 -526 181
q-178 169 -178 456zM514 1321l-57 59l258 254h57l258 -254l-57 -59l-230 188z" />
    <glyph glyph-name="ccircumflex" unicode="&#x109;" horiz-adv-x="1071" 
d="M993 981l-35 -100q-54 21 -144 35t-165 14q-213 0 -332 -119q-112 -109 -112 -299q0 -222 135 -330q113 -88 309 -88q77 0 170 14.5t146 36.5l34 -100q-64 -29 -160 -46t-190 -17q-268 0 -413 133q-154 139 -154 397q0 249 166 393q156 137 401 137q209 0 344 -61z
M907 1180l-57 -60l-225 183l-226 -183l-57 60l254 247h57z" />
    <glyph glyph-name="Cdotaccent" unicode="&#x10a;" horiz-adv-x="1277" 
d="M82 614q0 323 221 494q188 143 483 143q112 0 222.5 -23t187.5 -61l-45 -96q-159 68 -365 68q-254 0 -407 -125q-85 -68 -129.5 -171t-44.5 -229q0 -223 139 -362q77 -77 191 -119.5t251 -42.5q206 0 365 68l45 -97q-77 -38 -187.5 -61t-222.5 -23q-336 0 -526 181
q-178 169 -178 456zM774 1532q48 0 75.5 -27.5t27.5 -70.5t-27.5 -70t-75.5 -27q-49 0 -76.5 27t-27.5 70t27.5 70.5t76.5 27.5z" />
    <glyph glyph-name="cdotaccent" unicode="&#x10b;" horiz-adv-x="1071" 
d="M993 981l-35 -100q-54 21 -144 35t-165 14q-213 0 -332 -119q-112 -109 -112 -299q0 -222 135 -330q113 -88 309 -88q77 0 170 14.5t146 36.5l34 -100q-64 -29 -160 -46t-190 -17q-268 0 -413 133q-154 139 -154 397q0 249 166 393q156 137 401 137q209 0 344 -61z
M647 1307q46 0 72.5 -26t26.5 -66q0 -41 -26.5 -66.5t-72.5 -25.5q-45 0 -70.5 25.5t-25.5 66.5q0 40 26 66t70 26z" />
    <glyph glyph-name="Ccaron" unicode="&#x10c;" horiz-adv-x="1277" 
d="M82 614q0 323 221 494q188 143 483 143q112 0 222.5 -23t187.5 -61l-45 -96q-159 68 -365 68q-254 0 -407 -125q-85 -68 -129.5 -171t-44.5 -229q0 -223 139 -362q77 -77 191 -119.5t251 -42.5q206 0 365 68l45 -97q-77 -38 -187.5 -61t-222.5 -23q-336 0 -526 181
q-178 169 -178 456zM496 1569l57 59l229 -188l230 188l57 -59l-258 -254h-57z" />
    <glyph glyph-name="ccaron" unicode="&#x10d;" horiz-adv-x="1071" 
d="M993 981l-35 -100q-54 21 -144 35t-165 14q-213 0 -332 -119q-112 -109 -112 -299q0 -222 135 -330q113 -88 309 -88q77 0 170 14.5t146 36.5l34 -100q-64 -29 -160 -46t-190 -17q-268 0 -413 133q-154 139 -154 397q0 249 166 393q156 137 401 137q209 0 344 -61z
M369 1368l57 59l225 -182l226 182l57 -59l-254 -248h-57z" />
    <glyph glyph-name="Dcaron" unicode="&#x10e;" horiz-adv-x="1304" 
d="M133 1229h471q315 0 475 -148q164 -151 164 -467q0 -315 -162 -467q-156 -147 -477 -147h-471v1229zM1120 614q0 259 -125 381q-124 121 -391 121h-348v-1003h375q245 0 368 123q121 121 121 378zM295 1569l57 59l230 -188l229 188l57 -59l-258 -254h-57z" />
    <glyph glyph-name="dcaron" unicode="&#x10f;" horiz-adv-x="1458" 
d="M1024 123q-149 -141 -434 -141q-219 0 -348 114q-164 142 -164 416q0 232 149 381t400 149q231 0 395 -141v430h123v-1331h-82zM1022 227v553q-167 150 -395 150q-196 0 -305 -103q-121 -115 -121 -315q0 -214 123 -328q96 -90 266 -90q134 0 232.5 31t199.5 102z
M1321 1229q49 0 76.5 -27t27.5 -69q0 -30 -10 -50l-80 -198l-73 20l24 133q-67 18 -67 95q0 41 27 68.5t75 27.5z" />
    <glyph glyph-name="Dcroat" unicode="&#x110;" horiz-adv-x="1335" 
d="M23 707h141v522h450q316 0 476 -148q163 -150 163 -467q0 -316 -161 -467q-156 -147 -478 -147h-450v598h-141v109zM1130 614q0 260 -124 381t-392 121h-327v-409h325v-109h-325v-485h354q246 0 369 123q120 120 120 378z" />
    <glyph glyph-name="dcroat" unicode="&#x111;" horiz-adv-x="1277" 
d="M1024 123q-149 -141 -434 -141q-219 0 -348 114q-164 142 -164 416q0 232 149 381t400 149q231 0 395 -141v221l-295 19v88h295v102h123v-102l102 -12v-97h-102v-1120h-82zM1022 227v553q-167 150 -395 150q-196 0 -305 -103q-121 -115 -121 -315q0 -214 123 -328
q96 -90 266 -90q134 0 232.5 31t199.5 102z" />
    <glyph glyph-name="Emacron" unicode="&#x112;" horiz-adv-x="1208" 
d="M133 0v1229h954v-113h-831v-405h743v-113h-743v-485h860v-113h-983zM309 1464h654v-106h-654v106z" />
    <glyph glyph-name="emacron" unicode="&#x113;" horiz-adv-x="1224" 
d="M614 1042q264 0 398 -137q137 -137 137 -393v-66h-944q14 -151 108 -241q111 -111 346 -111q180 0 330 58l37 -101q-153 -69 -367 -69q-131 0 -240 34.5t-181 100.5q-158 142 -158 395q0 235 143 381q146 149 391 149zM614 930q-204 0 -315 -123q-84 -97 -96 -248h821
q-9 174 -100 268q-100 103 -310 103zM332 1268h588v-105h-588v105z" />
    <glyph glyph-name="Ebreve" unicode="&#x114;" horiz-adv-x="1208" 
d="M133 0v1229h954v-113h-831v-405h743v-113h-743v-485h860v-113h-983zM330 1542l102 17q15 -73 60 -109q47 -35 114 -35q75 0 115 37q35 32 53 107l105 -17q-21 -114 -84 -168q-67 -61 -189 -61q-128 0 -198 67q-60 54 -78 162z" />
    <glyph glyph-name="ebreve" unicode="&#x115;" horiz-adv-x="1224" 
d="M614 1042q264 0 398 -137q137 -137 137 -393v-66h-944q14 -151 108 -241q111 -111 346 -111q180 0 330 58l37 -101q-153 -69 -367 -69q-131 0 -240 34.5t-181 100.5q-158 142 -158 395q0 235 143 381q146 149 391 149zM614 930q-204 0 -315 -123q-84 -97 -96 -248h821
q-9 174 -100 268q-100 103 -310 103zM381 1337l105 15q7 -67 36 -90q34 -27 91 -27q67 0 96 33q22 24 28 84l105 -15q-6 -90 -64 -145q-60 -57 -165 -57q-106 0 -166 57q-57 54 -66 145z" />
    <glyph glyph-name="Edotaccent" unicode="&#x116;" horiz-adv-x="1208" 
d="M133 0v1229h954v-113h-831v-405h743v-113h-743v-485h860v-113h-983zM610 1516q48 0 75.5 -28t27.5 -71q0 -42 -27.5 -69t-75.5 -27q-50 0 -77 26.5t-27 69.5t27.5 71t76.5 28z" />
    <glyph glyph-name="edotaccent" unicode="&#x117;" horiz-adv-x="1224" 
d="M614 1042q264 0 398 -137q137 -137 137 -393v-66h-944q14 -151 108 -241q111 -111 346 -111q180 0 330 58l37 -101q-153 -69 -367 -69q-131 0 -240 34.5t-181 100.5q-158 142 -158 395q0 235 143 381q146 149 391 149zM614 930q-204 0 -315 -123q-84 -97 -96 -248h821
q-9 174 -100 268q-100 103 -310 103zM610 1335q46 0 72.5 -26t26.5 -66q0 -41 -26.5 -66.5t-72.5 -25.5q-45 0 -70.5 25.5t-25.5 66.5q0 40 26 66t70 26z" />
    <glyph glyph-name="Eogonek" unicode="&#x118;" horiz-adv-x="1208" 
d="M133 0v1229h954v-113h-831v-405h743v-113h-743v-485h860v-113q-24 -18 -37 -41q-16 -29 -16 -63q0 -52 33 -97q37 -46 98 -73l-35 -68q-100 26 -151 84q-47 53 -47 135q0 81 53 123h-881z" />
    <glyph glyph-name="eogonek" unicode="&#x119;" horiz-adv-x="1224" 
d="M614 1042q264 0 398 -137q137 -137 137 -393v-66h-944q14 -151 108 -241q111 -111 346 -111q180 0 330 58l37 -101q-24 -17 -37 -37q-14 -22 -14 -53q0 -51 29 -90q24 -33 94 -72l-35 -67q-98 29 -145 82q-46 52 -46 129q0 22 2 32q1 6 4.5 15t4.5 12q-97 -20 -224 -20
q-131 0 -240 34.5t-181 100.5q-158 142 -158 395q0 235 143 381q146 149 391 149zM614 930q-204 0 -315 -123q-84 -97 -96 -248h821q-9 174 -100 268q-100 103 -310 103z" />
    <glyph glyph-name="Ecaron" unicode="&#x11a;" horiz-adv-x="1208" 
d="M133 0v1229h954v-113h-831v-405h743v-113h-743v-485h860v-113h-983zM342 1569l57 59l230 -188l229 188l57 -59l-258 -254h-57z" />
    <glyph glyph-name="ecaron" unicode="&#x11b;" horiz-adv-x="1224" 
d="M614 1042q264 0 398 -137q137 -137 137 -393v-66h-944q14 -151 108 -241q111 -111 346 -111q180 0 330 58l37 -101q-153 -69 -367 -69q-131 0 -240 34.5t-181 100.5q-158 142 -158 395q0 235 143 381q146 149 391 149zM614 930q-204 0 -315 -123q-84 -97 -96 -248h821
q-9 174 -100 268q-100 103 -310 103zM346 1368l57 59l226 -182l225 182l57 -59l-254 -248h-57z" />
    <glyph glyph-name="Gcircumflex" unicode="&#x11c;" horiz-adv-x="1384" 
d="M815 604v101h447v-705h-78l-35 86q-209 -109 -434 -109q-155 0 -279.5 50.5t-208.5 146.5q-145 168 -145 440q0 299 192 469q190 168 510 168q113 0 223 -23t189 -61l-45 -96q-159 68 -367 68q-269 0 -424 -142q-155 -140 -155 -383q0 -222 121 -364q137 -160 389 -160
q208 0 428 98v404zM526 1321l-57 59l258 254h57l258 -254l-57 -59l-229 188z" />
    <glyph glyph-name="gcircumflex" unicode="&#x11d;" horiz-adv-x="1280" 
d="M616 -379q-144 0 -254.5 27.5t-211.5 91.5l43 90q171 -96 423 -96q221 0 316 92q92 89 92 264v33q-164 -141 -397 -141q-113 0 -212.5 30.5t-166.5 87.5q-168 143 -168 412q0 229 135 373q144 157 397 157q138 0 236 -34t178 -109l39 125h82v-934q0 -217 -123 -340
q-63 -62 -169.5 -95.5t-238.5 -33.5zM612 930q-180 0 -290 -107q-119 -116 -119 -311q0 -209 114 -317q109 -101 310 -101q225 0 397 148v553q-105 75 -193 105t-219 30zM909 1180l-57 -60l-225 183l-226 -183l-57 60l254 247h57z" />
    <glyph glyph-name="Gbreve" unicode="&#x11e;" horiz-adv-x="1384" 
d="M815 604v101h447v-705h-78l-35 86q-209 -109 -434 -109q-155 0 -279.5 50.5t-208.5 146.5q-145 168 -145 440q0 299 192 469q190 168 510 168q113 0 223 -23t189 -61l-45 -96q-159 68 -367 68q-269 0 -424 -142q-155 -140 -155 -383q0 -222 121 -364q137 -160 389 -160
q208 0 428 98v404zM487 1542l103 17q15 -74 59 -109q47 -35 115 -35q75 0 115 37q35 32 53 107l104 -17q-21 -114 -84 -168q-67 -61 -188 -61q-129 0 -199 67q-60 54 -78 162z" />
    <glyph glyph-name="gbreve" unicode="&#x11f;" horiz-adv-x="1280" 
d="M616 -379q-144 0 -254.5 27.5t-211.5 91.5l43 90q171 -96 423 -96q221 0 316 92q92 89 92 264v33q-164 -141 -397 -141q-113 0 -212.5 30.5t-166.5 87.5q-168 143 -168 412q0 229 135 373q144 157 397 157q138 0 236 -34t178 -109l39 125h82v-934q0 -217 -123 -340
q-63 -62 -169.5 -95.5t-238.5 -33.5zM612 930q-180 0 -290 -107q-119 -116 -119 -311q0 -209 114 -317q109 -101 310 -101q225 0 397 148v553q-105 75 -193 105t-219 30zM409 1337l105 15q7 -67 36 -90q34 -27 91 -27q67 0 96 33q22 24 28 84l105 -15q-6 -90 -64 -145
q-60 -57 -165 -57q-106 0 -166 57q-57 54 -66 145z" />
    <glyph glyph-name="Gdotaccent" unicode="&#x120;" horiz-adv-x="1384" 
d="M815 604v101h447v-705h-78l-35 86q-209 -109 -434 -109q-155 0 -279.5 50.5t-208.5 146.5q-145 168 -145 440q0 299 192 469q190 168 510 168q113 0 223 -23t189 -61l-45 -96q-159 68 -367 68q-269 0 -424 -142q-155 -140 -155 -383q0 -222 121 -364q137 -160 389 -160
q208 0 428 98v404zM772 1536q48 0 75 -27.5t27 -70.5t-27 -70t-75 -27q-49 0 -76.5 27t-27.5 70t27.5 70.5t76.5 27.5z" />
    <glyph glyph-name="gdotaccent" unicode="&#x121;" horiz-adv-x="1280" 
d="M616 -379q-144 0 -254.5 27.5t-211.5 91.5l43 90q171 -96 423 -96q221 0 316 92q92 89 92 264v33q-164 -141 -397 -141q-113 0 -212.5 30.5t-166.5 87.5q-168 143 -168 412q0 229 135 373q144 157 397 157q138 0 236 -34t178 -109l39 125h82v-934q0 -217 -123 -340
q-63 -62 -169.5 -95.5t-238.5 -33.5zM612 930q-180 0 -290 -107q-119 -116 -119 -311q0 -209 114 -317q109 -101 310 -101q225 0 397 148v553q-105 75 -193 105t-219 30zM639 1325q46 0 72.5 -26t26.5 -66q0 -41 -26.5 -66.5t-72.5 -25.5q-45 0 -70.5 25.5t-25.5 66.5
q0 40 26 66t70 26z" />
    <glyph glyph-name="Gcommaaccent" unicode="&#x122;" horiz-adv-x="1384" 
d="M815 604v101h447v-705h-78l-35 86q-209 -109 -434 -109q-155 0 -279.5 50.5t-208.5 146.5q-145 168 -145 440q0 299 192 469q190 168 510 168q113 0 223 -23t189 -61l-45 -96q-159 68 -367 68q-269 0 -424 -142q-155 -140 -155 -383q0 -222 121 -364q137 -160 389 -160
q208 0 428 98v404zM715 -98q46 0 73 -26t27 -66q0 -24 -8 -48l-76 -188l-72 18l25 127q-32 7 -49 31.5t-17 59.5q0 39 27 65.5t70 26.5z" />
    <glyph glyph-name="gcommaaccent" unicode="&#x123;" horiz-adv-x="1280" 
d="M616 -379q-144 0 -254.5 27.5t-211.5 91.5l43 90q171 -96 423 -96q221 0 316 92q92 89 92 264v33q-164 -141 -397 -141q-113 0 -212.5 30.5t-166.5 87.5q-168 143 -168 412q0 229 135 373q144 157 397 157q138 0 236 -34t178 -109l39 125h82v-934q0 -217 -123 -340
q-63 -62 -169.5 -95.5t-238.5 -33.5zM612 930q-180 0 -290 -107q-119 -116 -119 -311q0 -209 114 -317q109 -101 310 -101q225 0 397 148v553q-105 75 -193 105t-219 30zM592 1137q-49 0 -77 27.5t-28 68.5q0 27 11 49l80 199l73 -21l-24 -133q67 -18 67 -94
q0 -41 -27 -68.5t-75 -27.5z" />
    <glyph glyph-name="Hcircumflex" unicode="&#x124;" horiz-adv-x="1341" 
d="M1085 1229h123v-1229h-123v602h-829v-602h-123v1229h123v-514h829v514zM444 1321l-57 59l258 254h57l259 -254l-58 -59l-229 188z" />
    <glyph glyph-name="hcircumflex" unicode="&#x125;" horiz-adv-x="1259" 
d="M133 1331h123v-424q167 135 395 135q240 0 353 -110q122 -119 122 -383v-549h-122v549q0 206 -89 295q-86 86 -264 86q-220 0 -395 -139v-791h-123v1331zM479 1418l-57 -60l-225 183l-226 -183l-57 60l254 247h57z" />
    <glyph glyph-name="Hbar" unicode="&#x126;" horiz-adv-x="1341" 
d="M1085 1229h123v-209h72v-96l-72 -4v-920h-123v602h-829v-602h-123v915h-72v97l72 4v213h123v-209h829v209zM256 715h829v200h-829v-200z" />
    <glyph glyph-name="hbar" unicode="&#x127;" horiz-adv-x="1294" 
d="M1161 549v-549h-123v549q0 207 -88 295q-86 86 -264 86q-220 0 -395 -139v-791h-123v1114h-137v94l137 15v108h123v-102h379v-96l-379 -19v-207q167 135 395 135q239 0 352 -110q123 -120 123 -383z" />
    <glyph glyph-name="Itilde" unicode="&#x128;" horiz-adv-x="389" 
d="M133 1229h123v-1229h-123v1229zM207 1368q-75 37 -152 37q-73 0 -135 -49l-51 69q98 91 199 91q72 0 153 -37q78 -37 150 -37q42 0 72.5 10.5t64.5 38.5l49 -74q-94 -84 -199 -84q-77 0 -151 35z" />
    <glyph glyph-name="itilde" unicode="&#x129;" horiz-adv-x="436" 
d="M51 934v90h252v-1024h-123v924zM215 1188q-75 35 -144 35q-76 0 -133 -54l-47 70q90 84 189 84q65 0 143 -35t141 -35q73 0 135 56l45 -72q-88 -82 -188 -82q-71 0 -141 33z" />
    <glyph glyph-name="uni012A" unicode="&#x12a;" horiz-adv-x="389" 
d="M133 1229h123v-1229h-123v1229zM-131 1518h653v-107h-653v107z" />
    <glyph glyph-name="imacron" unicode="&#x12b;" horiz-adv-x="436" 
d="M51 934v90h252v-1024h-123v924zM16 1268h404v-105h-404v105z" />
    <glyph glyph-name="Ibreve" unicode="&#x12c;" horiz-adv-x="389" 
d="M133 1229h123v-1229h-123v1229zM-80 1542l103 17q15 -74 59 -109q47 -35 115 -35q74 0 114 37q36 33 54 107l104 -17q-21 -114 -84 -168q-67 -61 -188 -61q-129 0 -199 67q-60 54 -78 162z" />
    <glyph glyph-name="uni012D" unicode="&#x12d;" horiz-adv-x="436" 
d="M51 934v90h252v-1024h-123v924zM-12 1337l105 15q7 -67 36 -90q34 -27 91 -27q67 0 96 33q22 24 28 84l105 -15q-6 -90 -64 -145q-60 -57 -165 -57q-106 0 -166 57q-57 54 -66 145z" />
    <glyph glyph-name="Iogonek" unicode="&#x12e;" horiz-adv-x="389" 
d="M133 1229h123v-1229q-24 -18 -37 -41q-16 -29 -16 -63q0 -52 33 -97q37 -46 98 -73l-35 -68q-101 27 -152 84q-47 53 -47 135q0 34 19 70q16 32 43 53h-29v1229z" />
    <glyph glyph-name="iogonek" unicode="&#x12f;" horiz-adv-x="436" 
d="M51 934v90h252v-1024q-25 -15 -37 -37q-14 -22 -14 -53q0 -51 29 -90q24 -33 94 -72l-35 -67q-99 29 -145 81q-45 51 -45 129q0 31 12 58q16 31 33 51h-15v924zM242 1384q48 0 75 -26.5t27 -69.5q0 -41 -27 -67.5t-75 -26.5q-46 0 -73.5 26.5t-27.5 67.5q0 42 27.5 69
t73.5 27z" />
    <glyph glyph-name="Idotaccent" unicode="&#x130;" horiz-adv-x="389" 
d="M133 1229h123v-1229h-123v1229zM197 1528q48 0 75 -27.5t27 -70.5t-27 -70t-75 -27q-50 0 -77.5 27t-27.5 70t28 70.5t77 27.5z" />
    <glyph glyph-name="dotlessi" unicode="&#x131;" horiz-adv-x="436" 
d="M51 934v90h252v-1024h-123v924z" />
    <glyph glyph-name="Jcircumflex" unicode="&#x134;" horiz-adv-x="1007" 
d="M752 1229h122v-737q0 -244 -129 -373q-142 -142 -428 -142q-65 0 -142 15t-132 37l33 100q115 -39 241 -39q234 0 338 107q97 100 97 295v737zM584 1257l-58 60l258 254h58l258 -254l-58 -60l-229 189z" />
    <glyph glyph-name="jcircumflex" unicode="&#x135;" horiz-adv-x="436" 
d="M51 934v90h252v-1044q0 -161 -90 -254q-97 -105 -281 -105q-170 0 -313 90l47 88q68 -36 126 -50.5t134 -14.5q129 0 195 69q59 62 59 177v944zM502 1180l-58 -60l-225 183l-225 -183l-57 60l253 247h58z" />
    <glyph glyph-name="Kcommaaccent" unicode="&#x136;" horiz-adv-x="1282" 
d="M133 1229h123v-518h393l408 518h153l-458 -570l469 -659h-156l-414 598h-395v-598h-123v1229zM586 41q46 0 73 -26t27 -66q0 -23 -8 -47l-76 -189l-72 19l25 127q-32 7 -49 31.5t-17 58.5q0 39 27 65.5t70 26.5z" />
    <glyph glyph-name="kcommaaccent" unicode="&#x137;" horiz-adv-x="1191" 
d="M133 1331h123v-721h428l279 414h147l-322 -463l340 -561h-145l-289 498h-438v-498h-123v1331zM584 53q46 0 73 -26t27 -66q0 -23 -8 -47l-76 -188l-72 18l25 127q-32 7 -49 31.5t-17 58.5q0 39 27 65.5t70 26.5z" />
    <glyph glyph-name="kgreenlandic" unicode="&#x138;" horiz-adv-x="1191" 
d="M133 1024h123v-414h428l279 414h147l-322 -463l340 -561h-145l-289 498h-438v-498h-123v1024z" />
    <glyph glyph-name="Lacute" unicode="&#x139;" horiz-adv-x="1138" 
d="M256 113h801v-113h-924v1229h123v-1116zM162 1360l127 303l121 -59l-160 -283z" />
    <glyph glyph-name="lacute" unicode="&#x13a;" horiz-adv-x="389" 
d="M4 1249v82h252v-1331h-123v1231zM129 1460l119 297l123 -59l-160 -277z" />
    <glyph glyph-name="Lcommaaccent" unicode="&#x13b;" horiz-adv-x="1138" 
d="M256 113h801v-113h-924v1229h123v-1116zM590 -63q46 0 73 -26.5t27 -66.5q0 -23 -8 -47l-76 -188l-71 18l24 127q-32 7 -48.5 31t-16.5 59q0 39 26.5 66t69.5 27z" />
    <glyph glyph-name="lcommaaccent" unicode="&#x13c;" horiz-adv-x="389" 
d="M4 1249v82h252v-1331h-123v1231zM193 -86q46 0 73 -26t27 -66q0 -23 -8 -47l-76 -189l-72 19l25 127q-32 7 -49 31.5t-17 58.5q0 39 27 65.5t70 26.5z" />
    <glyph glyph-name="Lcaron" unicode="&#x13d;" horiz-adv-x="1138" 
d="M256 113h801v-113h-924v1229h123v-1116zM508 1251q49 0 76.5 -27t27.5 -69q0 -29 -10 -49l-80 -199l-74 21l25 133q-68 18 -68 94q0 41 27.5 68.5t75.5 27.5z" />
    <glyph glyph-name="lcaron" unicode="&#x13e;" horiz-adv-x="475" 
d="M4 1249v82h252v-1331h-123v1231zM475 1352q49 0 77 -27.5t28 -69.5q0 -27 -11 -49l-80 -198l-73 20l24 133q-67 18 -67 94q0 42 27 69.5t75 27.5z" />
    <glyph glyph-name="Ldot" unicode="&#x13f;" horiz-adv-x="1138" 
d="M256 113h801v-113h-924v1229h123v-1116zM633 717q51 0 79.5 -29t28.5 -74q0 -46 -28.5 -74t-79.5 -28t-80 28.5t-29 73.5q0 44 29 73.5t80 29.5z" />
    <glyph glyph-name="ldot" unicode="&#x140;" horiz-adv-x="585" 
d="M4 1249v82h252v-1331h-123v1231zM438 717q51 0 80 -29.5t29 -73.5q0 -45 -29 -73.5t-80 -28.5t-79.5 28t-28.5 74q0 45 28.5 74t79.5 29z" />
    <glyph glyph-name="Lslash" unicode="&#x141;" horiz-adv-x="1153" 
d="M270 113h801v-113h-924v580l-100 -27l-29 104l129 35v537h123v-504l222 59l28 -104l-250 -68v-499z" />
    <glyph glyph-name="lslash" unicode="&#x142;" horiz-adv-x="473" 
d="M31 1331h252v-581l172 47l28 -105l-200 -53v-639h-123v606l-137 -37l-29 105l166 43v514l-129 18v82z" />
    <glyph glyph-name="Nacute" unicode="&#x143;" horiz-adv-x="1370" 
d="M1118 1229h119v-1229h-131l-854 1051v-1051h-119v1229h131l854 -1051v1051zM614 1360l127 303l121 -59l-160 -283z" />
    <glyph glyph-name="nacute" unicode="&#x144;" horiz-adv-x="1259" 
d="M133 1024h82l37 -121q164 139 399 139q251 0 363 -118t112 -375v-549h-122v549q0 206 -84 293q-82 88 -269 88q-121 0 -211.5 -31.5t-183.5 -105.5v-793h-123v1024zM532 1167l119 297l123 -59l-160 -277z" />
    <glyph glyph-name="Ncommaaccent" unicode="&#x145;" horiz-adv-x="1370" 
d="M1118 1229h119v-1229h-131l-854 1051v-1051h-119v1229h131l854 -1051v1051zM639 45q46 0 73 -26t27 -66q0 -23 -8 -47l-76 -189l-71 19l24 127q-32 7 -48.5 31t-16.5 59q0 39 26.5 65.5t69.5 26.5z" />
    <glyph glyph-name="ncommaaccent" unicode="&#x146;" horiz-adv-x="1259" 
d="M133 1024h82l37 -121q164 139 399 139q251 0 363 -118t112 -375v-549h-122v549q0 206 -84 293q-82 88 -269 88q-121 0 -211.5 -31.5t-183.5 -105.5v-793h-123v1024zM627 43q46 0 73 -26t27 -66q0 -23 -8 -47l-76 -189l-72 19l25 127q-32 7 -49 31.5t-17 58.5
q0 39 27 65.5t70 26.5z" />
    <glyph glyph-name="Ncaron" unicode="&#x147;" horiz-adv-x="1370" 
d="M1118 1229h119v-1229h-131l-854 1051v-1051h-119v1229h131l854 -1051v1051zM401 1569l58 59l229 -188l230 188l57 -59l-258 -254h-58z" />
    <glyph glyph-name="ncaron" unicode="&#x148;" horiz-adv-x="1259" 
d="M133 1024h82l37 -121q164 139 399 139q251 0 363 -118t112 -375v-549h-122v549q0 206 -84 293q-82 88 -269 88q-121 0 -211.5 -31.5t-183.5 -105.5v-793h-123v1024zM346 1368l57 59l226 -182l225 182l57 -59l-254 -248h-57z" />
    <glyph glyph-name="napostrophe" unicode="&#x149;" horiz-adv-x="1259" 
d="M133 1024h82l37 -121q164 139 399 139q251 0 363 -118t112 -375v-549h-122v549q0 206 -84 293q-82 88 -269 88q-121 0 -211.5 -31.5t-183.5 -105.5v-793h-123v1024zM76 1386q46 0 73 -26t27 -66q0 -23 -8 -47l-76 -188l-72 18l25 127q-32 7 -48.5 31t-16.5 59
q0 39 26.5 65.5t69.5 26.5z" />
    <glyph glyph-name="Omacron" unicode="&#x14c;" horiz-adv-x="1409" 
d="M1204 614q0 261 -137 398q-130 127 -362 127q-239 0 -367 -131q-133 -136 -133 -394q0 -242 119 -376q130 -148 381 -148q253 0 382 150q117 135 117 374zM82 614q0 298 164 467q162 170 459 170q280 0 444 -155q178 -169 178 -482q0 -277 -141 -444q-164 -193 -481 -193
q-294 0 -457 168q-166 166 -166 469zM379 1464h653v-106h-653v106z" />
    <glyph glyph-name="omacron" unicode="&#x14d;" 
d="M614 1042q219 0 369 -131q166 -144 166 -399t-166 -399q-150 -131 -369 -131q-218 0 -368 131q-166 144 -166 399t166 399q150 131 368 131zM614 930q-185 0 -299 -111q-112 -109 -112 -307t112 -307q114 -111 299 -111t299 111q113 110 113 307t-113 307
q-114 111 -299 111zM321 1268h588v-105h-588v105z" />
    <glyph glyph-name="Obreve" unicode="&#x14e;" horiz-adv-x="1409" 
d="M1204 614q0 261 -137 398q-130 127 -362 127q-239 0 -367 -131q-133 -136 -133 -394q0 -242 119 -376q130 -148 381 -148q253 0 382 150q117 135 117 374zM82 614q0 298 164 467q162 170 459 170q280 0 444 -155q178 -169 178 -482q0 -277 -141 -444q-164 -193 -481 -193
q-294 0 -457 168q-166 166 -166 469zM430 1542l102 17q15 -73 60 -109q47 -35 115 -35q74 0 114 37q35 32 53 107l105 -17q-21 -114 -84 -168q-67 -61 -188 -61q-129 0 -199 67q-60 54 -78 162z" />
    <glyph glyph-name="obreve" unicode="&#x14f;" 
d="M614 1042q219 0 369 -131q166 -144 166 -399t-166 -399q-150 -131 -369 -131q-218 0 -368 131q-166 144 -166 399t166 399q150 131 368 131zM614 930q-185 0 -299 -111q-112 -109 -112 -307t112 -307q114 -111 299 -111t299 111q113 110 113 307t-113 307
q-114 111 -299 111zM383 1337l105 15q7 -67 36 -90q34 -27 91 -27q67 0 96 33q22 24 28 84l105 -15q-6 -90 -64 -145q-60 -57 -165 -57q-106 0 -166 57q-57 54 -66 145z" />
    <glyph glyph-name="Ohungarumlaut" unicode="&#x150;" horiz-adv-x="1409" 
d="M1204 614q0 261 -137 398q-130 127 -362 127q-239 0 -367 -131q-133 -136 -133 -394q0 -242 119 -376q130 -148 381 -148q253 0 382 150q117 135 117 374zM82 614q0 298 164 467q162 170 459 170q280 0 444 -155q178 -169 178 -482q0 -277 -141 -444q-164 -193 -481 -193
q-294 0 -457 168q-166 166 -166 469zM545 1372l92 311l129 -53l-133 -293zM750 1372l143 309l123 -57l-180 -289z" />
    <glyph glyph-name="ohungarumlaut" unicode="&#x151;" 
d="M614 1042q219 0 369 -131q166 -144 166 -399t-166 -399q-150 -131 -369 -131q-218 0 -368 131q-166 144 -166 399t166 399q150 131 368 131zM614 930q-185 0 -299 -111q-112 -109 -112 -307t112 -307q114 -111 299 -111t299 111q113 110 113 307t-113 307
q-114 111 -299 111zM477 1167l84 297l127 -53l-125 -278zM678 1167l133 295l121 -57l-170 -275z" />
    <glyph glyph-name="OE" unicode="&#x152;" horiz-adv-x="2281" 
d="M82 614q0 335 203 504q157 133 422 133q165 0 294 -57q127 -57 205 -160v195h957v-113h-836v-405h746v-113h-746v-485h862v-113h-983v195q-58 -77 -135 -125q-149 -93 -364 -93q-296 0 -459 168q-166 166 -166 469zM1206 614q0 271 -149 408q-129 117 -350 117
q-212 0 -342 -109q-160 -138 -160 -416q0 -246 125 -383q129 -141 377 -141q221 0 346 113q153 137 153 411z" />
    <glyph glyph-name="oe" unicode="&#x153;" horiz-adv-x="2162" 
d="M1554 1042q247 0 381 -122q150 -135 150 -408v-66h-938q15 -191 137 -276q107 -76 324 -76q172 0 331 64l35 -101q-163 -75 -366 -75q-250 0 -389 88q-82 52 -132 141h-12q-65 -114 -174 -170q-118 -59 -289 -59q-227 0 -370 131q-162 149 -162 399q0 122 44.5 225.5
t123.5 175.5q138 129 364 129q157 0 271 -51q119 -54 194 -190h10q66 111 166 168q123 73 301 73zM612 930q-187 0 -293 -109q-116 -119 -116 -309q0 -197 123 -317q109 -101 286 -101q207 0 310 103q100 100 100 315q0 231 -121 334q-100 84 -289 84zM1554 930
q-200 0 -303 -103q-91 -91 -106 -268h815q-12 195 -115 285q-99 86 -291 86z" />
    <glyph glyph-name="Racute" unicode="&#x154;" horiz-adv-x="1230" 
d="M133 1229h600q210 0 328 -127q102 -111 102 -289q0 -172 -119 -291q-78 -78 -180 -106l264 -416h-141l-246 397h-485v-397h-123v1229zM1040 813q0 130 -67 209q-81 94 -232 94h-485v-606h481q141 0 224 86q79 79 79 217zM485 1360l127 303l121 -59l-160 -283z" />
    <glyph glyph-name="racute" unicode="&#x155;" horiz-adv-x="1079" 
d="M133 1024h82l37 -121q164 139 399 139q111 0 205 -25.5t152 -70.5l-64 -88q-104 72 -293 72q-120 0 -211.5 -31.5t-183.5 -105.5v-793h-123v1024zM534 1167l119 297l123 -59l-160 -277z" />
    <glyph glyph-name="Rcommaaccent" unicode="&#x156;" horiz-adv-x="1230" 
d="M133 1229h600q210 0 328 -127q102 -111 102 -289q0 -172 -119 -291q-78 -78 -180 -106l264 -416h-141l-246 397h-485v-397h-123v1229zM1040 813q0 130 -67 209q-81 94 -232 94h-485v-606h481q141 0 224 86q79 79 79 217zM571 41q46 0 73.5 -26.5t27.5 -65.5q0 -23 -8 -47
l-76 -189l-72 19l25 127q-32 7 -49 31.5t-17 58.5q0 39 26.5 65.5t69.5 26.5z" />
    <glyph glyph-name="rcommaaccent" unicode="&#x157;" horiz-adv-x="1079" 
d="M133 1024h82l37 -121q164 139 399 139q111 0 205 -25.5t152 -70.5l-64 -88q-104 72 -293 72q-120 0 -211.5 -31.5t-183.5 -105.5v-793h-123v1024zM193 -88q46 0 73 -26t27 -66q0 -23 -8 -47l-76 -189l-72 19l25 127q-32 7 -49 31.5t-17 58.5q0 39 27 65.5t70 26.5z" />
    <glyph glyph-name="Rcaron" unicode="&#x158;" horiz-adv-x="1230" 
d="M133 1229h600q210 0 328 -127q102 -111 102 -289q0 -172 -119 -291q-78 -78 -180 -106l264 -416h-141l-246 397h-485v-397h-123v1229zM1040 813q0 130 -67 209q-81 94 -232 94h-485v-606h481q141 0 224 86q79 79 79 217zM297 1569l57 59l230 -188l229 188l57 -59
l-258 -254h-57z" />
    <glyph glyph-name="rcaron" unicode="&#x159;" horiz-adv-x="1079" 
d="M133 1024h82l37 -121q164 139 399 139q111 0 205 -25.5t152 -70.5l-64 -88q-104 72 -293 72q-120 0 -211.5 -31.5t-183.5 -105.5v-793h-123v1024zM350 1368l57 59l226 -182l225 182l57 -59l-254 -248h-57z" />
    <glyph glyph-name="Sacute" unicode="&#x15a;" horiz-adv-x="1302" 
d="M82 920q0 145 106 225q138 106 463 106q131 0 233.5 -19.5t215.5 -62.5l-39 -98q-204 68 -410 68q-265 0 -375 -76q-71 -50 -71 -133q0 -76 57 -115q58 -43 209 -65l283 -48q144 -24 229 -52t137 -77q80 -77 80 -223q0 -174 -143 -266q-164 -107 -484 -107
q-247 0 -485 84l37 99q201 -70 448 -70q284 0 408 82q96 65 96 188q0 30 -6.5 55t-21 44.5t-29.5 34.5t-42 27t-48 20t-57.5 15.5t-61 12t-66.5 11.5l-319 51q-162 24 -250 90q-94 72 -94 199zM586 1360l127 303l121 -59l-160 -283z" />
    <glyph glyph-name="sacute" unicode="&#x15b;" horiz-adv-x="1138" 
d="M981 981l-35 -100q-55 22 -156.5 35.5t-205.5 13.5q-226 0 -320 -58q-59 -37 -59 -98q0 -71 63 -108q51 -30 158 -41l254 -31q193 -22 287 -100q90 -74 90 -193q0 -147 -115 -225q-137 -94 -450 -94q-222 0 -410 67l35 105q188 -60 375 -60q221 0 323 43q119 48 119 162
q0 82 -70 123q-35 21 -77 31.5t-125 21.5l-283 37q-156 21 -229 84q-68 59 -68 170q0 126 106 195q126 81 396 81q231 0 397 -61zM553 1167l119 297l123 -59l-160 -277z" />
    <glyph glyph-name="Scircumflex" unicode="&#x15c;" horiz-adv-x="1302" 
d="M82 920q0 145 106 225q138 106 463 106q131 0 233.5 -19.5t215.5 -62.5l-39 -98q-204 68 -410 68q-265 0 -375 -76q-71 -50 -71 -133q0 -76 57 -115q58 -43 209 -65l283 -48q144 -24 229 -52t137 -77q80 -77 80 -223q0 -174 -143 -266q-164 -107 -484 -107
q-247 0 -485 84l37 99q201 -70 448 -70q284 0 408 82q96 65 96 188q0 30 -6.5 55t-21 44.5t-29.5 34.5t-42 27t-48 20t-57.5 15.5t-61 12t-66.5 11.5l-319 51q-162 24 -250 90q-94 72 -94 199zM426 1321l-57 59l258 254h57l258 -254l-57 -59l-230 188z" />
    <glyph glyph-name="scircumflex" unicode="&#x15d;" horiz-adv-x="1138" 
d="M981 981l-35 -100q-55 22 -156.5 35.5t-205.5 13.5q-226 0 -320 -58q-59 -37 -59 -98q0 -71 63 -108q51 -30 158 -41l254 -31q193 -22 287 -100q90 -74 90 -193q0 -147 -115 -225q-137 -94 -450 -94q-222 0 -410 67l35 105q188 -60 375 -60q221 0 323 43q119 48 119 162
q0 82 -70 123q-35 21 -77 31.5t-125 21.5l-283 37q-156 21 -229 84q-68 59 -68 170q0 126 106 195q126 81 396 81q231 0 397 -61zM858 1180l-57 -60l-225 183l-226 -183l-57 60l254 247h57z" />
    <glyph glyph-name="Scedilla" unicode="&#x15e;" horiz-adv-x="1302" 
d="M82 920q0 145 106 225q138 106 463 106q253 0 469 -82l-39 -98q-204 68 -430 68q-265 0 -375 -76q-71 -50 -71 -133q0 -76 57 -115q58 -43 209 -65l303 -48q140 -22 227.5 -51t139.5 -78q80 -77 80 -223q0 -173 -144 -266q-145 -95 -448 -104l-2 -58q55 0 94 -31t39 -98
q0 -83 -66 -139q-71 -60 -188 -88l-33 78q79 23 121 53q55 38 55 94q0 28 -18 37q-16 8 -39 8h-43l-23 21v120q-230 8 -438 84l37 99q201 -70 448 -70q304 0 428 82q97 65 97 188q0 40 -13 71.5t-40.5 53.5t-55.5 37.5t-71.5 27t-74 17.5t-77.5 13l-340 51q-162 24 -250 90
q-94 72 -94 199z" />
    <glyph glyph-name="scedilla" unicode="&#x15f;" horiz-adv-x="1138" 
d="M981 981l-35 -100q-55 22 -156.5 35.5t-205.5 13.5q-226 0 -320 -58q-59 -37 -59 -98q0 -71 63 -108q51 -30 158 -41l254 -31q193 -22 287 -100q90 -74 90 -193q0 -147 -115 -225q-123 -82 -375 -92l-2 -68q55 -6 86 -37q37 -34 37 -96q0 -140 -229 -201l-31 70
q67 23 104 51q48 36 48 80q0 21 -15 33t-45 12h-22l-23 20v134q-214 3 -393 67l35 105q188 -60 375 -60q221 0 323 43q119 48 119 162q0 82 -70 123q-35 21 -77 31.5t-125 21.5l-283 37q-156 21 -229 84q-68 59 -68 170q0 126 106 195q126 81 396 81q231 0 397 -61z" />
    <glyph glyph-name="Scaron" unicode="&#x160;" horiz-adv-x="1302" 
d="M82 920q0 145 106 225q138 106 463 106q131 0 233.5 -19.5t215.5 -62.5l-39 -98q-204 68 -410 68q-265 0 -375 -76q-71 -50 -71 -133q0 -76 57 -115q58 -43 209 -65l283 -48q144 -24 229 -52t137 -77q80 -77 80 -223q0 -174 -143 -266q-164 -107 -484 -107
q-247 0 -485 84l37 99q201 -70 448 -70q284 0 408 82q96 65 96 188q0 30 -6.5 55t-21 44.5t-29.5 34.5t-42 27t-48 20t-57.5 15.5t-61 12t-66.5 11.5l-319 51q-162 24 -250 90q-94 72 -94 199zM369 1569l57 59l229 -188l230 188l57 -59l-258 -254h-57z" />
    <glyph glyph-name="scaron" unicode="&#x161;" horiz-adv-x="1138" 
d="M981 981l-35 -100q-55 22 -156.5 35.5t-205.5 13.5q-226 0 -320 -58q-59 -37 -59 -98q0 -71 63 -108q51 -30 158 -41l254 -31q193 -22 287 -100q90 -74 90 -193q0 -147 -115 -225q-137 -94 -450 -94q-222 0 -410 67l35 105q188 -60 375 -60q221 0 323 43q119 48 119 162
q0 82 -70 123q-35 21 -77 31.5t-125 21.5l-283 37q-156 21 -229 84q-68 59 -68 170q0 126 106 195q126 81 396 81q231 0 397 -61zM276 1368l57 59l226 -182l225 182l57 -59l-254 -248h-57z" />
    <glyph glyph-name="Tcommaaccent" unicode="&#x162;" horiz-adv-x="1304" 
d="M61 1116v113h1182v-113h-530v-1116h-123v1116h-529zM649 -84q46 0 73.5 -26.5t27.5 -65.5q0 -20 -9 -47l-75 -189l-72 19l24 127q-32 7 -48.5 31t-16.5 59q0 39 26.5 65.5t69.5 26.5z" />
    <glyph glyph-name="tcommaaccent" unicode="&#x163;" horiz-adv-x="915" 
d="M51 911v93l195 16l20 246h99v-242h460v-94l-460 -17v-594q0 -107 43 -161q55 -64 190 -64q78 0 140 15t136 53l41 -86q-82 -52 -156.5 -73t-166.5 -21q-176 0 -262 86q-88 85 -88 251v592h-191zM567 -106q46 0 73.5 -26.5t27.5 -66.5q0 -20 -9 -47l-75 -188l-72 18
l25 127q-32 7 -49 31.5t-17 58.5q0 39 26.5 66t69.5 27z" />
    <glyph glyph-name="Tcaron" unicode="&#x164;" horiz-adv-x="1304" 
d="M61 1116v113h1182v-113h-530v-1116h-123v1116h-529zM365 1569l57 59l229 -188l230 188l57 -59l-258 -254h-57z" />
    <glyph glyph-name="tcaron" unicode="&#x165;" horiz-adv-x="1089" 
d="M51 911v93l195 16l20 246h99v-242h460v-94l-460 -17v-594q0 -107 43 -161q55 -64 190 -64q78 0 140 15t136 53l41 -86q-82 -52 -156.5 -73t-166.5 -21q-176 0 -262 86q-88 85 -88 251v592h-191zM932 1251q49 0 76.5 -27t27.5 -69q0 -29 -10 -49l-80 -199l-74 21l25 133
q-68 18 -68 94q0 41 27.5 68.5t75.5 27.5z" />
    <glyph glyph-name="Utilde" unicode="&#x168;" horiz-adv-x="1351" 
d="M133 522v707h123v-707q0 -222 113 -329q106 -103 307 -103q199 0 303 98q117 108 117 334v707h123v-707q0 -264 -144 -405q-143 -140 -399 -140q-248 0 -389 129q-154 141 -154 416zM672 1368q-75 37 -152 37q-73 0 -135 -49l-51 69q98 91 198 91q73 0 154 -37
q78 -37 150 -37q42 0 72.5 10.5t64.5 38.5l49 -74q-94 -84 -199 -84q-77 0 -151 35z" />
    <glyph glyph-name="utilde" unicode="&#x169;" horiz-adv-x="1261" 
d="M1128 0h-81l-37 121q-161 -139 -400 -139q-227 0 -338 94q-139 115 -139 399v549h123v-549q0 -210 92 -299q85 -82 262 -82q121 0 212.5 32t183.5 107v791h122v-1024zM627 1188q-75 35 -144 35q-76 0 -133 -54l-47 70q90 84 189 84q65 0 143 -35t141 -35q73 0 135 56
l45 -72q-88 -82 -188 -82q-71 0 -141 33z" />
    <glyph glyph-name="Umacron" unicode="&#x16a;" horiz-adv-x="1351" 
d="M133 522v707h123v-707q0 -222 113 -329q106 -103 307 -103q199 0 303 98q117 108 117 334v707h123v-707q0 -264 -144 -405q-143 -140 -399 -140q-248 0 -389 129q-154 141 -154 416zM350 1464h654v-106h-654v106z" />
    <glyph glyph-name="umacron" unicode="&#x16b;" horiz-adv-x="1261" 
d="M1128 0h-81l-37 121q-161 -139 -400 -139q-227 0 -338 94q-139 115 -139 399v549h123v-549q0 -210 92 -299q85 -82 262 -82q121 0 212.5 32t183.5 107v791h122v-1024zM334 1268h588v-105h-588v105z" />
    <glyph glyph-name="Ubreve" unicode="&#x16c;" horiz-adv-x="1351" 
d="M133 522v707h123v-707q0 -222 113 -329q106 -103 307 -103q199 0 303 98q117 108 117 334v707h123v-707q0 -264 -144 -405q-143 -140 -399 -140q-248 0 -389 129q-154 141 -154 416zM401 1509l103 17q15 -74 59 -109q47 -35 115 -35q75 0 115 37q35 32 53 107l104 -17
q-21 -114 -84 -168q-67 -61 -188 -61q-128 0 -199 68q-60 54 -78 161z" />
    <glyph glyph-name="ubreve" unicode="&#x16d;" horiz-adv-x="1261" 
d="M1128 0h-81l-37 121q-161 -139 -400 -139q-227 0 -338 94q-139 115 -139 399v549h123v-549q0 -210 92 -299q85 -82 262 -82q121 0 212.5 32t183.5 107v791h122v-1024zM399 1300l105 15q7 -67 36 -90q34 -27 91 -27q67 0 96 33q22 24 28 84l105 -15q-6 -90 -64 -145
q-60 -57 -165 -57q-106 0 -166 57q-57 54 -66 145z" />
    <glyph glyph-name="Uring" unicode="&#x16e;" horiz-adv-x="1351" 
d="M133 522v707h123v-707q0 -222 113 -329q106 -103 307 -103q199 0 303 98q117 108 117 334v707h123v-707q0 -264 -144 -405q-143 -140 -399 -140q-248 0 -389 129q-154 141 -154 416zM676 1251q-94 0 -152 58q-57 57 -57 151t59 150q57 57 150 57q96 0 151 -55
q58 -61 58 -152q0 -94 -51 -145q-61 -64 -158 -64zM791 1460q0 50 -29 82q-33 33 -86 33q-55 0 -86 -31q-31 -28 -31 -84q0 -53 31 -84q33 -33 86 -33t86 33q29 32 29 84z" />
    <glyph glyph-name="uring" unicode="&#x16f;" horiz-adv-x="1261" 
d="M1128 0h-81l-37 121q-161 -139 -400 -139q-227 0 -338 94q-139 115 -139 399v549h123v-549q0 -210 92 -299q85 -82 262 -82q121 0 212.5 32t183.5 107v791h122v-1024zM611 1094q-87 0 -144 57q-55 55 -55 141q0 92 53 142q55 55 146 55q87 0 145 -55q53 -53 53 -142
q0 -90 -49 -139q-56 -56 -149 -59zM719 1292q0 52 -30 82q-31 31 -78 31q-51 0 -82 -31q-29 -29 -29 -82q0 -52 27 -79q31 -31 84 -31q54 0 82 31q26 29 26 79z" />
    <glyph glyph-name="Uhungarumlaut" unicode="&#x170;" horiz-adv-x="1351" 
d="M133 522v707h123v-707q0 -222 113 -329q106 -103 307 -103q199 0 303 98q117 108 117 334v707h123v-707q0 -264 -144 -405q-143 -140 -399 -140q-248 0 -389 129q-154 141 -154 416zM487 1319l93 311l129 -53l-134 -293zM692 1319l144 309l122 -57l-180 -289z" />
    <glyph glyph-name="uhungarumlaut" unicode="&#x171;" horiz-adv-x="1261" 
d="M1128 0h-81l-37 121q-161 -139 -400 -139q-227 0 -338 94q-139 115 -139 399v549h123v-549q0 -210 92 -299q85 -82 262 -82q121 0 212.5 32t183.5 107v791h122v-1024zM465 1126l84 297l127 -53l-125 -278zM666 1126l133 295l121 -57l-170 -274z" />
    <glyph glyph-name="Uogonek" unicode="&#x172;" horiz-adv-x="1351" 
d="M133 522v707h123v-707q0 -222 113 -329q106 -103 307 -103q199 0 303 98q117 108 117 334v707h123v-707q0 -264 -144 -405q-121 -121 -338 -137q-16 -12 -32 -39q-17 -31 -17 -64q0 -51 33 -96q39 -48 98 -74l-35 -67q-100 26 -151 84q-47 53 -47 135q0 70 45 121
q-215 9 -344 126q-154 141 -154 416z" />
    <glyph glyph-name="uogonek" unicode="&#x173;" horiz-adv-x="1261" 
d="M1128 0q-33 -17 -49 -43q-14 -22 -14 -57q0 -51 29 -90q24 -33 94 -72l-35 -68q-98 29 -145 82q-45 51 -45 129q0 53 28 92q16 22 51 39l-32 109q-161 -139 -400 -139q-227 0 -338 94q-139 115 -139 399v549h123v-549q0 -210 92 -299q85 -82 262 -82q121 0 212.5 32
t183.5 107v791h122v-1024z" />
    <glyph glyph-name="Wcircumflex" unicode="&#x174;" horiz-adv-x="1976" 
d="M61 1229h129l365 -1116h12l330 1116h182l330 -1116h14l365 1116h127l-404 -1229h-188l-330 1102h-8l-336 -1102h-184zM762 1298l-57 60l258 254h57l258 -254l-57 -60l-230 189z" />
    <glyph glyph-name="wcircumflex" unicode="&#x175;" horiz-adv-x="1822" 
d="M61 1024h136l333 -911h33l242 911h203l262 -911h35l333 911h123l-385 -1024h-194l-269 915h-16l-258 -915h-193zM1194 1180l-57 -60l-225 183l-226 -183l-57 60l254 247h57z" />
    <glyph glyph-name="Ycircumflex" unicode="&#x176;" horiz-adv-x="1349" 
d="M737 0h-123v283l-553 946h144l465 -807h14l467 807h137l-551 -942v-287zM449 1272l-58 59l258 254h58l258 -254l-58 -59l-229 188z" />
    <glyph glyph-name="ycircumflex" unicode="&#x177;" horiz-adv-x="1265" 
d="M549 0l-488 1024h138l428 -911h55l387 911h135l-508 -1171q-41 -96 -108 -132q-50 -28 -154 -28q-27 0 -65 10l14 100q32 -4 41 -4q55 0 96 21q50 26 76 90l39 90h-86zM936 1180l-57 -60l-225 183l-226 -183l-57 60l254 247h57z" />
    <glyph glyph-name="Ydieresis" unicode="&#x178;" horiz-adv-x="1349" 
d="M737 0h-123v283l-553 946h144l465 -807h14l467 807h137l-551 -942v-287zM883 1544q52 0 81 -29.5t29 -76.5q0 -45 -29 -74t-81 -29q-51 0 -81 29.5t-30 73.5q0 47 30 76.5t81 29.5zM469 1544q53 0 83 -29.5t30 -76.5q0 -44 -30.5 -73.5t-82.5 -29.5q-51 0 -81 29.5
t-30 73.5q0 47 30 76.5t81 29.5z" />
    <glyph glyph-name="Zacute" unicode="&#x179;" horiz-adv-x="1171" 
d="M1100 111v-111h-1028v68l841 1054l-350 -2h-436v109h969v-72l-836 -1053l344 7h496zM506 1360l127 303l121 -59l-160 -283z" />
    <glyph glyph-name="zacute" unicode="&#x17a;" horiz-adv-x="1079" 
d="M100 911v113h897v-61l-735 -850h735v-113h-915v78l719 833h-701zM461 1167l119 297l123 -59l-160 -277z" />
    <glyph glyph-name="Zdotaccent" unicode="&#x17b;" horiz-adv-x="1171" 
d="M1100 111v-111h-1028v68l841 1054l-350 -2h-436v109h969v-72l-836 -1053l344 7h496zM592 1526q48 0 75 -28t27 -71t-27 -69.5t-75 -26.5q-50 0 -77.5 26.5t-27.5 69.5t28 71t77 28z" />
    <glyph glyph-name="zdotaccent" unicode="&#x17c;" horiz-adv-x="1079" 
d="M100 911v113h897v-61l-735 -850h735v-113h-915v78l719 833h-701zM539 1307q46 0 72 -26.5t26 -66.5q0 -41 -26 -66.5t-72 -25.5q-45 0 -71 25.5t-26 66.5q0 40 26.5 66.5t70.5 26.5z" />
    <glyph glyph-name="Zcaron" unicode="&#x17d;" horiz-adv-x="1171" 
d="M1100 111v-111h-1028v68l841 1054l-350 -2h-436v109h969v-72l-836 -1053l344 7h496zM328 1569l57 59l229 -188l230 188l57 -59l-258 -254h-57z" />
    <glyph glyph-name="zcaron" unicode="&#x17e;" horiz-adv-x="1079" 
d="M100 911v113h897v-61l-735 -850h735v-113h-915v78l719 833h-701zM266 1368l58 59l225 -182l225 182l57 -59l-253 -248h-58z" />
    <glyph glyph-name="longs" unicode="&#x17f;" horiz-adv-x="688" 
d="M133 0v1090q0 141 86 233q103 111 299 111q198 0 354 -101l-53 -80q-142 68 -301 68q-139 0 -205 -66q-57 -57 -57 -165v-1090h-123z" />
    <glyph glyph-name="florin" unicode="&#x192;" horiz-adv-x="878" 
d="M123 -367l-41 101q81 26 117 80q45 67 45 166v931h-193v93l193 16v70q0 141 86 233q103 111 299 111q198 0 354 -101l-53 -80q-142 68 -301 68q-139 0 -205 -66q-57 -57 -57 -165v-66h460v-94l-460 -17v-933q0 -77 -24 -146t-69 -115q-53 -56 -151 -86z" />
    <glyph glyph-name="uni0200" unicode="&#x200;" horiz-adv-x="1429" 
d="M621 1229h188l559 -1229h-133l-117 258h-813l-117 -258h-127zM694 1116l-338 -745h711l-338 745h-35zM752 1683l92 -311l-88 -35l-133 293zM496 1681l143 -309l-86 -37l-180 289z" />
    <glyph glyph-name="uni0201" unicode="&#x201;" 
d="M1085 719v-434q0 -159 50 -271l-72 -24q-66 63 -86 137q-165 -145 -406 -145q-130 0 -218 21.5t-154 72.5q-117 89 -117 262q0 168 137 264q133 92 334 92q213 0 410 -55v84q0 100 -93 156q-84 51 -241 51q-124 0 -208.5 -15t-201.5 -57l-29 90q213 94 435 94
q111 0 201.5 -25t146.5 -67q56 -44 84 -105t28 -126zM549 582q-163 0 -258 -68q-86 -63 -86 -176q0 -115 92 -180q98 -66 274 -66q117 0 203.5 29.5t188.5 95.5v332q-125 19 -208.5 26t-205.5 7zM688 1464l84 -297l-86 -34l-125 278zM438 1462l133 -295l-84 -37l-170 275z
" />
    <glyph glyph-name="uni0202" unicode="&#x202;" horiz-adv-x="1429" 
d="M621 1229h188l559 -1229h-133l-117 258h-813l-117 -258h-127zM694 1116l-338 -745h711l-338 745h-35zM485 1321l-57 59l258 254h57l258 -254l-57 -59l-229 188z" />
    <glyph glyph-name="uni0203" unicode="&#x203;" 
d="M1085 719v-434q0 -159 50 -271l-72 -24q-66 63 -86 137q-165 -145 -406 -145q-130 0 -218 21.5t-154 72.5q-117 89 -117 262q0 168 137 264q133 92 334 92q213 0 410 -55v84q0 100 -93 156q-84 51 -241 51q-124 0 -208.5 -15t-201.5 -57l-29 90q213 94 435 94
q111 0 201.5 -25t146.5 -67q56 -44 84 -105t28 -126zM549 582q-163 0 -258 -68q-86 -63 -86 -176q0 -115 92 -180q98 -66 274 -66q117 0 203.5 29.5t188.5 95.5v332q-125 19 -208.5 26t-205.5 7zM884 1180l-57 -60l-225 183l-226 -183l-57 60l254 247h57z" />
    <glyph glyph-name="uni0204" unicode="&#x204;" horiz-adv-x="1208" 
d="M133 0v1229h954v-113h-831v-405h743v-113h-743v-485h860v-113h-983zM705 1683l92 -311l-88 -35l-134 293zM449 1681l143 -309l-86 -37l-180 289z" />
    <glyph glyph-name="uni0205" unicode="&#x205;" horiz-adv-x="1224" 
d="M614 1042q264 0 398 -137q137 -137 137 -393v-66h-944q14 -151 108 -241q111 -111 346 -111q180 0 330 58l37 -101q-153 -69 -367 -69q-131 0 -240 34.5t-181 100.5q-158 142 -158 395q0 235 143 381q146 149 391 149zM614 930q-204 0 -315 -123q-84 -97 -96 -248h821
q-9 174 -100 268q-100 103 -310 103zM692 1464l84 -297l-86 -34l-125 278zM442 1462l133 -295l-83 -37l-170 275z" />
    <glyph glyph-name="uni0206" unicode="&#x206;" horiz-adv-x="1208" 
d="M133 0v1229h954v-113h-831v-405h743v-113h-743v-485h860v-113h-983zM375 1321l-58 59l258 254h58l258 -254l-57 -59l-230 188z" />
    <glyph glyph-name="uni0207" unicode="&#x207;" horiz-adv-x="1224" 
d="M614 1042q264 0 398 -137q137 -137 137 -393v-66h-944q14 -151 108 -241q111 -111 346 -111q180 0 330 58l37 -101q-153 -69 -367 -69q-131 0 -240 34.5t-181 100.5q-158 142 -158 395q0 235 143 381q146 149 391 149zM614 930q-204 0 -315 -123q-84 -97 -96 -248h821
q-9 174 -100 268q-100 103 -310 103zM895 1180l-57 -60l-225 183l-226 -183l-57 60l254 247h57z" />
    <glyph glyph-name="uni0208" unicode="&#x208;" horiz-adv-x="389" 
d="M133 1229h123v-1229h-123v1229zM258 1683l92 -311l-88 -35l-133 293zM2 1681l143 -309l-86 -37l-180 289z" />
    <glyph glyph-name="uni0209" unicode="&#x209;" horiz-adv-x="436" 
d="M51 934v90h252v-1024h-123v924zM276 1464l84 -297l-86 -34l-124 278zM27 1462l133 -295l-84 -37l-170 275z" />
    <glyph glyph-name="uni020A" unicode="&#x20a;" horiz-adv-x="389" 
d="M133 1229h123v-1229h-123v1229zM-35 1321l-57 59l258 254h57l258 -254l-57 -59l-229 188z" />
    <glyph glyph-name="uni020B" unicode="&#x20b;" horiz-adv-x="557" 
d="M119 934v90h252v-1024h-123v924zM567 1180l-57 -60l-225 183l-226 -183l-57 60l254 247h57z" />
    <glyph glyph-name="uni020C" unicode="&#x20c;" horiz-adv-x="1409" 
d="M1204 614q0 261 -137 398q-130 127 -362 127q-239 0 -367 -131q-133 -136 -133 -394q0 -242 119 -376q130 -148 381 -148q253 0 382 150q117 135 117 374zM82 614q0 298 164 467q162 170 459 170q280 0 444 -155q178 -169 178 -482q0 -277 -141 -444q-164 -193 -481 -193
q-294 0 -457 168q-166 166 -166 469zM793 1683l92 -311l-88 -35l-133 293zM537 1681l143 -309l-86 -37l-180 289z" />
    <glyph glyph-name="uni020D" unicode="&#x20d;" 
d="M614 1042q219 0 369 -131q166 -144 166 -399t-166 -399q-150 -131 -369 -131q-218 0 -368 131q-166 144 -166 399t166 399q150 131 368 131zM614 930q-185 0 -299 -111q-112 -109 -112 -307t112 -307q114 -111 299 -111t299 111q113 110 113 307t-113 307
q-114 111 -299 111zM698 1464l84 -297l-86 -34l-125 278zM449 1462l133 -295l-84 -37l-170 275z" />
    <glyph glyph-name="uni020E" unicode="&#x20e;" horiz-adv-x="1409" 
d="M1204 614q0 261 -137 398q-130 127 -362 127q-239 0 -367 -131q-133 -136 -133 -394q0 -242 119 -376q130 -148 381 -148q253 0 382 150q117 135 117 374zM82 614q0 298 164 467q162 170 459 170q280 0 444 -155q178 -169 178 -482q0 -277 -141 -444q-164 -193 -481 -193
q-294 0 -457 168q-166 166 -166 469zM475 1321l-57 59l258 254h57l258 -254l-57 -59l-229 188z" />
    <glyph glyph-name="uni020F" unicode="&#x20f;" 
d="M614 1042q219 0 369 -131q166 -144 166 -399t-166 -399q-150 -131 -369 -131q-218 0 -368 131q-166 144 -166 399t166 399q150 131 368 131zM614 930q-185 0 -299 -111q-112 -109 -112 -307t112 -307q114 -111 299 -111t299 111q113 110 113 307t-113 307
q-114 111 -299 111zM897 1180l-57 -60l-225 183l-226 -183l-57 60l254 247h57z" />
    <glyph glyph-name="uni0210" unicode="&#x210;" horiz-adv-x="1230" 
d="M133 1229h600q210 0 328 -127q102 -111 102 -289q0 -172 -119 -291q-78 -78 -180 -106l264 -416h-141l-246 397h-485v-397h-123v1229zM1040 813q0 130 -67 209q-81 94 -232 94h-485v-606h481q141 0 224 86q79 79 79 217zM657 1683l93 -311l-88 -35l-134 293zM401 1681
l144 -309l-86 -37l-180 289z" />
    <glyph glyph-name="uni0211" unicode="&#x211;" horiz-adv-x="1079" 
d="M133 1024h82l37 -121q164 139 399 139q111 0 205 -25.5t152 -70.5l-64 -88q-104 72 -293 72q-120 0 -211.5 -31.5t-183.5 -105.5v-793h-123v1024zM678 1464l84 -297l-86 -34l-125 278zM428 1462l133 -295l-84 -37l-170 275z" />
    <glyph glyph-name="uni0212" unicode="&#x212;" horiz-adv-x="1230" 
d="M133 1229h600q210 0 328 -127q102 -111 102 -289q0 -172 -119 -291q-78 -78 -180 -106l264 -416h-141l-246 397h-485v-397h-123v1229zM1040 813q0 130 -67 209q-81 94 -232 94h-485v-606h481q141 0 224 86q79 79 79 217zM354 1321l-57 59l258 254h57l258 -254l-57 -59
l-229 188z" />
    <glyph glyph-name="uni0213" unicode="&#x213;" horiz-adv-x="1079" 
d="M133 1024h82l37 -121q164 139 399 139q111 0 205 -25.5t152 -70.5l-64 -88q-104 72 -293 72q-120 0 -211.5 -31.5t-183.5 -105.5v-793h-123v1024zM872 1180l-57 -60l-225 183l-226 -183l-57 60l254 247h57z" />
    <glyph glyph-name="uni0214" unicode="&#x214;" horiz-adv-x="1351" 
d="M133 522v707h123v-707q0 -222 113 -329q106 -103 307 -103q199 0 303 98q117 108 117 334v707h123v-707q0 -264 -144 -405q-143 -140 -399 -140q-248 0 -389 129q-154 141 -154 416zM745 1602l93 -312l-88 -35l-134 293zM489 1599l144 -309l-86 -37l-180 289z" />
    <glyph glyph-name="uni0215" unicode="&#x215;" horiz-adv-x="1261" 
d="M1128 0h-81l-37 121q-161 -139 -400 -139q-227 0 -338 94q-139 115 -139 399v549h123v-549q0 -210 92 -299q85 -82 262 -82q121 0 212.5 32t183.5 107v791h122v-1024zM692 1413l84 -297l-86 -35l-125 279zM442 1411l133 -295l-83 -37l-170 275z" />
    <glyph glyph-name="uni0216" unicode="&#x216;" horiz-adv-x="1351" 
d="M133 522v707h123v-707q0 -222 113 -329q106 -103 307 -103q199 0 303 98q117 108 117 334v707h123v-707q0 -264 -144 -405q-143 -140 -399 -140q-248 0 -389 129q-154 141 -154 416zM446 1274l-57 59l258 254h58l258 -254l-58 -59l-229 188z" />
    <glyph glyph-name="uni0217" unicode="&#x217;" horiz-adv-x="1261" 
d="M1128 0h-81l-37 121q-161 -139 -400 -139q-227 0 -338 94q-139 115 -139 399v549h123v-549q0 -210 92 -299q85 -82 262 -82q121 0 212.5 32t183.5 107v791h122v-1024zM913 1180l-57 -60l-225 183l-226 -183l-57 60l254 247h57z" />
    <glyph glyph-name="Scommaaccent" unicode="&#x218;" horiz-adv-x="1302" 
d="M82 920q0 145 106 225q138 106 463 106q131 0 233.5 -19.5t215.5 -62.5l-39 -98q-204 68 -410 68q-265 0 -375 -76q-71 -50 -71 -133q0 -76 57 -115q58 -43 209 -65l283 -48q144 -24 229 -52t137 -77q80 -77 80 -223q0 -174 -143 -266q-164 -107 -484 -107
q-247 0 -485 84l37 99q201 -70 448 -70q284 0 408 82q96 65 96 188q0 30 -6.5 55t-21 44.5t-29.5 34.5t-42 27t-48 20t-57.5 15.5t-61 12t-66.5 11.5l-319 51q-162 24 -250 90q-94 72 -94 199zM616 -96q46 0 73.5 -26.5t27.5 -65.5q0 -24 -8 -48l-76 -188l-72 18l25 127
q-32 7 -49 31.5t-17 59.5q0 39 26.5 65.5t69.5 26.5z" />
    <glyph glyph-name="scommaaccent" unicode="&#x219;" horiz-adv-x="1138" 
d="M981 981l-35 -100q-55 22 -156.5 35.5t-205.5 13.5q-226 0 -320 -58q-59 -37 -59 -98q0 -71 63 -108q51 -30 158 -41l254 -31q193 -22 287 -100q90 -74 90 -193q0 -147 -115 -225q-137 -94 -450 -94q-222 0 -410 67l35 105q188 -60 375 -60q221 0 323 43q119 48 119 162
q0 82 -70 123q-35 21 -77 31.5t-125 21.5l-283 37q-156 21 -229 84q-68 59 -68 170q0 126 106 195q126 81 396 81q231 0 397 -61zM530 -76q46 0 73.5 -26.5t27.5 -65.5q0 -23 -8 -47l-76 -188l-72 18l25 127q-32 7 -49 31.5t-17 58.5q0 39 26.5 65.5t69.5 26.5z" />
    <glyph glyph-name="uni021A" unicode="&#x21a;" horiz-adv-x="1304" 
d="M61 1116v113h1182v-113h-530v-1116h-123v1116h-529zM647 -80q46 0 73.5 -26.5t27.5 -65.5q0 -20 -9 -47l-75 -189l-72 19l24 127q-32 7 -48.5 31t-16.5 59q0 39 26.5 65.5t69.5 26.5z" />
    <glyph glyph-name="uni021B" unicode="&#x21b;" horiz-adv-x="915" 
d="M51 911v93l195 16l20 246h99v-242h460v-94l-460 -17v-594q0 -107 43 -161q55 -64 190 -64q78 0 140 15t136 53l41 -86q-82 -52 -156.5 -73t-166.5 -21q-176 0 -262 86q-88 85 -88 251v592h-191zM571 -84q46 0 73.5 -26.5t27.5 -65.5q0 -23 -8 -47l-76 -189l-72 19l25 127
q-32 7 -49 31.5t-17 58.5q0 39 26.5 65.5t69.5 26.5z" />
    <glyph glyph-name="dotlessj" unicode="&#x237;" horiz-adv-x="436" 
d="M51 934v90h252v-1044q0 -161 -90 -254q-97 -105 -281 -105q-170 0 -313 90l47 88q68 -36 126 -50.5t134 -14.5q129 0 195 69q59 62 59 177v944z" />
    <glyph glyph-name="circumflex" unicode="&#x2c6;" horiz-adv-x="831" 
d="M698 1180l-57 -60l-225 183l-226 -183l-57 60l254 247h57z" />
    <glyph glyph-name="caron" unicode="&#x2c7;" horiz-adv-x="831" 
d="M133 1368l57 59l226 -182l225 182l57 -59l-254 -248h-57z" />
    <glyph glyph-name="uni02C9" unicode="&#x2c9;" horiz-adv-x="731" 
d="M31 1427h669v-102h-669v102z" />
    <glyph glyph-name="breve" unicode="&#x2d8;" horiz-adv-x="727" 
d="M133 1337l105 15q7 -67 36 -90q34 -27 91 -27q67 0 96 33q22 24 28 84l105 -15q-6 -90 -64 -145q-60 -57 -165 -57q-106 0 -166 57q-57 54 -66 145z" />
    <glyph glyph-name="dotaccent" unicode="&#x2d9;" horiz-adv-x="460" 
d="M229 172q46 0 72.5 -26t26.5 -66q0 -41 -26.5 -66.5t-72.5 -25.5q-45 0 -70.5 25.5t-25.5 66.5q0 40 26 66t70 26z" />
    <glyph glyph-name="ring" unicode="&#x2da;" horiz-adv-x="663" 
d="M332 1145q-87 0 -144 57q-55 55 -55 141q0 92 53 142q55 55 146 55q87 0 145 -55q53 -53 53 -142q0 -90 -49 -139q-56 -56 -149 -59zM440 1343q0 52 -30 82q-31 31 -78 31q-51 0 -82 -31q-29 -29 -29 -82q0 -52 27 -79q31 -31 84 -31q54 0 82 31q26 29 26 79z" />
    <glyph glyph-name="ogonek" unicode="&#x2db;" horiz-adv-x="491" 
d="M233 25l54 -35q-25 -15 -37 -37q-14 -22 -14 -53q0 -52 28 -90q24 -33 94 -72l-34 -68q-99 29 -146 82q-45 51 -45 129q0 53 33 94q25 31 67 50z" />
    <glyph glyph-name="tilde" unicode="&#x2dc;" horiz-adv-x="919" 
d="M457 1188q-75 35 -144 35q-76 0 -133 -54l-47 70q90 84 189 84q65 0 143 -35t141 -35q73 0 135 56l45 -72q-88 -82 -188 -82q-71 0 -141 33z" />
    <glyph glyph-name="hungarumlaut" unicode="&#x2dd;" horiz-adv-x="720" 
d="M133 1167l84 297l127 -53l-125 -278zM334 1167l133 295l121 -57l-170 -275z" />
    <glyph glyph-name="afii10023" unicode="&#x401;" horiz-adv-x="1208" 
d="M133 0v1229h954v-113h-831v-405h743v-113h-743v-485h860v-113h-983zM823 1544q53 0 82 -29.5t29 -76.5q0 -45 -29.5 -74t-81.5 -29q-51 0 -80.5 29.5t-29.5 73.5q0 47 29.5 76.5t80.5 29.5zM410 1544q53 0 82.5 -29.5t29.5 -76.5q0 -44 -30 -73.5t-82 -29.5
q-51 0 -81 29.5t-30 73.5q0 47 30 76.5t81 29.5z" />
    <glyph glyph-name="afii10051" unicode="&#x402;" horiz-adv-x="1574" 
d="M61 1118v111h973v-111h-426v-299q83 67 173 101t206 34q117 0 195 -26t137 -84q123 -120 123 -383v-350q0 -147 -39 -240t-143 -178l-66 59q70 77 95.5 154t25.5 198v357q0 211 -84 295q-45 45 -101.5 65.5t-142.5 20.5q-110 0 -198 -33t-181 -107v-702h-125v1118h-422z
" />
    <glyph glyph-name="afii10052" unicode="&#x403;" horiz-adv-x="1144" 
d="M133 0v1229h920v-113h-797v-1116h-123zM510 1360l127 303l121 -59l-160 -283z" />
    <glyph glyph-name="afii10053" unicode="&#x404;" horiz-adv-x="1267" 
d="M895 711v-113h-690q11 -246 153 -375q147 -133 428 -133q206 0 365 68l45 -97q-79 -38 -189 -61t-221 -23q-318 0 -501 150q-203 169 -203 487q0 306 188 473q184 164 516 164q111 0 221 -23t189 -61l-45 -96q-159 68 -365 68q-284 0 -432 -138q-121 -115 -141 -290h682z
" />
    <glyph glyph-name="afii10054" unicode="&#x405;" horiz-adv-x="1302" 
d="M82 920q0 145 106 225q138 106 463 106q131 0 233.5 -19.5t215.5 -62.5l-39 -98q-204 68 -410 68q-265 0 -375 -76q-71 -50 -71 -133q0 -76 57 -115q58 -43 209 -65l283 -48q144 -24 229 -52t137 -77q80 -77 80 -223q0 -174 -143 -266q-164 -107 -484 -107
q-247 0 -485 84l37 99q201 -70 448 -70q284 0 408 82q96 65 96 188q0 30 -6.5 55t-21 44.5t-29.5 34.5t-42 27t-48 20t-57.5 15.5t-61 12t-66.5 11.5l-319 51q-162 24 -250 90q-94 72 -94 199z" />
    <glyph glyph-name="uni0406" unicode="&#x406;" horiz-adv-x="389" 
d="M133 1229h123v-1229h-123v1229z" />
    <glyph glyph-name="afii10056" unicode="&#x407;" horiz-adv-x="389" 
d="M133 1229h123v-1229h-123v1229zM401 1544q53 0 82 -29.5t29 -76.5q0 -45 -29.5 -74t-81.5 -29q-51 0 -80.5 29.5t-29.5 73.5q0 47 29.5 76.5t80.5 29.5zM-12 1544q53 0 82.5 -29.5t29.5 -76.5q0 -44 -30 -73.5t-82 -29.5q-51 0 -81 29.5t-30 73.5q0 47 30 76.5t81 29.5z
" />
    <glyph glyph-name="afii10057" unicode="&#x408;" horiz-adv-x="1007" 
d="M752 1229h122v-737q0 -244 -129 -373q-142 -142 -428 -142q-65 0 -142 15t-132 37l33 100q115 -39 241 -39q234 0 338 107q97 100 97 295v737z" />
    <glyph glyph-name="afii10058" unicode="&#x409;" horiz-adv-x="2177" 
d="M455 1229h796v-398h414q230 0 346 -147q84 -111 84 -268q0 -175 -110 -291q-119 -125 -324 -125h-533v1116h-571l-125 -883q-17 -117 -84 -178q-69 -63 -186 -63q-81 0 -142 20l23 101q57 -13 90 -13q90 0 129 39q48 45 62 154zM1972 416q0 114 -53 188q-79 115 -260 115
h-408v-606h418q144 0 227 86q76 79 76 217z" />
    <glyph glyph-name="afii10059" unicode="&#x40a;" horiz-adv-x="2093" 
d="M1044 1229h123v-398h414q230 0 346 -147q84 -111 84 -268q0 -175 -110 -291q-119 -125 -324 -125h-533v602h-788v-602h-123v1229h123v-514h788v514zM1888 416q0 114 -53 188q-79 115 -260 115h-408v-606h418q144 0 227 86q76 79 76 217z" />
    <glyph glyph-name="afii10060" unicode="&#x40b;" horiz-adv-x="1574" 
d="M1442 461v-461h-127v461q0 211 -84 295q-45 45 -101.5 65.5t-142.5 20.5q-110 0 -198 -33t-181 -107v-702h-125v1118h-422v111h973v-111h-426v-299q83 67 173 101t206 34q117 0 195 -26t137 -84q123 -120 123 -383z" />
    <glyph glyph-name="afii10061" unicode="&#x40c;" horiz-adv-x="1282" 
d="M133 1229h123v-518h365l241 379q58 93 133 127q52 24 133 24q36 0 82 -6l-10 -105h-26q-83 0 -123 -18q-44 -19 -84 -82l-242 -368l471 -662h-156l-413 598h-371v-598h-123v1229zM473 1360l127 303l121 -59l-160 -283z" />
    <glyph glyph-name="afii10062" unicode="&#x40e;" horiz-adv-x="1349" 
d="M1149 1229h139l-579 -1059q-54 -102 -121 -143q-53 -33 -127 -33q-43 0 -86 6v104h24q79 0 115 21q23 13 47 43t62 98l-562 963h144l485 -842h12zM420 1542l102 17q15 -73 60 -109q47 -35 114 -35q75 0 115 37q35 32 53 107l105 -17q-21 -114 -84 -168q-67 -61 -189 -61
q-128 0 -198 67q-60 54 -78 162z" />
    <glyph glyph-name="afii10145" unicode="&#x40f;" horiz-adv-x="1316" 
d="M1184 0h-459l-20 -256h-95l-20 256h-457v1229h123v-1116h805v1116h123v-1229z" />
    <glyph glyph-name="afii10017" unicode="&#x410;" horiz-adv-x="1429" 
d="M621 1229h188l559 -1229h-133l-117 258h-813l-117 -258h-127zM694 1116l-338 -745h711l-338 745h-35z" />
    <glyph glyph-name="afii10018" unicode="&#x411;" horiz-adv-x="1241" 
d="M133 0v1229h866v-113h-743v-285h473q220 0 338 -137q92 -109 92 -278t-110 -285q-125 -131 -324 -131h-592zM1036 416q0 131 -73 213q-81 90 -226 90h-481v-606h463q159 0 246 96q71 80 71 207z" />
    <glyph glyph-name="afii10019" unicode="&#x412;" horiz-adv-x="1286" 
d="M823 0h-690v1229h655q169 0 263 -105q75 -81 75 -202q0 -76 -39 -140q-33 -54 -90 -92v-10q93 -39 146 -117q61 -89 61 -203q0 -148 -108 -251q-54 -51 -125.5 -80t-147.5 -29zM1081 360q0 99 -53 164q-35 43 -88 66.5t-113 23.5h-571v-505h563q122 0 195 73
q67 67 67 178zM1004 922q0 84 -60 141q-64 57 -170 57h-518v-397h557q86 0 141 65q50 56 50 134z" />
    <glyph glyph-name="afii10020" unicode="&#x413;" horiz-adv-x="1144" 
d="M133 0v1229h920v-113h-797v-1116h-123z" />
    <glyph glyph-name="afii10021" unicode="&#x414;" horiz-adv-x="1427" 
d="M393 1229h856v-1116h117v-369h-96l-27 256h-1063l-24 -256h-95v369h35q72 0 107 30q47 41 61 150zM371 233q-12 -78 -41 -120h796v1003h-630z" />
    <glyph glyph-name="afii10022" unicode="&#x415;" horiz-adv-x="1208" 
d="M133 0v1229h954v-113h-831v-405h743v-113h-743v-485h860v-113h-983z" />
    <glyph glyph-name="afii10024" unicode="&#x416;" horiz-adv-x="1878" 
d="M879 1229h122v-518h279l215 379q52 88 107 120q47 31 120 31q52 0 95 -6l-9 -105h-39q-57 0 -100 -24q-40 -24 -70 -76l-206 -364l411 -666h-147l-361 598h-295v-598h-122v598h-299l-359 -598h-147l411 664l-204 366q-31 57 -78 80q-45 20 -94 20h-39l-9 105q44 6 95 6
q69 0 116 -27q59 -33 111 -124l213 -379h283v518z" />
    <glyph glyph-name="afii10025" unicode="&#x417;" horiz-adv-x="1277" 
d="M608 90q232 0 355 86q110 77 110 213q0 104 -55 168q-71 84 -205 84h-473v109h442q102 0 160 67q43 49 43 113q0 103 -80 153q-96 60 -323 60q-196 0 -396 -74l-43 94q201 88 453 88q310 0 430 -114q82 -79 82 -207q0 -80 -37 -135q-32 -50 -82 -80v-8q96 -38 150 -117
q57 -85 57 -201q0 -182 -141 -293q-152 -119 -447 -119q-320 0 -536 109l45 100q236 -96 491 -96z" />
    <glyph glyph-name="afii10026" unicode="&#x418;" horiz-adv-x="1372" 
d="M256 1229v-1053l854 1053h129v-1229h-123v1051l-854 -1051h-129v1229h123z" />
    <glyph glyph-name="afii10027" unicode="&#x419;" horiz-adv-x="1372" 
d="M256 1229v-1053l854 1053h129v-1229h-123v1051l-854 -1051h-129v1229h123zM412 1542l102 17q15 -74 59 -109q47 -35 115 -35q75 0 115 37q35 32 53 107l105 -17q-21 -114 -84 -168q-67 -61 -189 -61q-129 0 -199 67q-59 53 -77 162z" />
    <glyph glyph-name="afii10028" unicode="&#x41a;" horiz-adv-x="1282" 
d="M133 1229h123v-518h365l241 379q58 93 133 127q52 24 133 24q36 0 82 -6l-10 -105h-26q-83 0 -123 -18q-44 -19 -84 -82l-242 -368l471 -662h-156l-413 598h-371v-598h-123v1229z" />
    <glyph glyph-name="afii10029" unicode="&#x41b;" horiz-adv-x="1425" 
d="M455 1229h837v-1229h-123v1116h-612l-125 -883q-17 -117 -84 -178q-69 -63 -186 -63q-81 0 -142 20l23 101q57 -13 90 -13q90 0 129 39q48 45 62 154z" />
    <glyph glyph-name="afii10030" unicode="&#x41c;" horiz-adv-x="1607" 
d="M133 1229h193l479 -1110l481 1110h189v-1229h-123v1075h-9l-466 -1075h-152l-465 1075h-8v-1075h-119v1229z" />
    <glyph glyph-name="afii10031" unicode="&#x41d;" horiz-adv-x="1341" 
d="M1085 1229h123v-1229h-123v602h-829v-602h-123v1229h123v-514h829v514z" />
    <glyph glyph-name="afii10032" unicode="&#x41e;" horiz-adv-x="1409" 
d="M1204 614q0 261 -137 398q-130 127 -362 127q-239 0 -367 -131q-133 -136 -133 -394q0 -242 119 -376q130 -148 381 -148q253 0 382 150q117 135 117 374zM82 614q0 298 164 467q162 170 459 170q280 0 444 -155q178 -169 178 -482q0 -277 -141 -444q-164 -193 -481 -193
q-294 0 -457 168q-166 166 -166 469z" />
    <glyph glyph-name="afii10033" unicode="&#x41f;" horiz-adv-x="1337" 
d="M133 1229h1071v-1229h-123v1116h-825v-1116h-123v1229z" />
    <glyph glyph-name="afii10034" unicode="&#x420;" horiz-adv-x="1243" 
d="M702 360h-446v-360h-123v1229h594q214 0 334 -142q100 -117 100 -292q0 -189 -127 -310q-128 -125 -332 -125zM1038 795q0 137 -67 219q-82 102 -250 102h-465v-643h449q146 0 237 82q96 87 96 240z" />
    <glyph glyph-name="afii10035" unicode="&#x421;" horiz-adv-x="1277" 
d="M82 614q0 323 221 494q188 143 483 143q112 0 222.5 -23t187.5 -61l-45 -96q-159 68 -365 68q-254 0 -407 -125q-85 -68 -129.5 -171t-44.5 -229q0 -223 139 -362q77 -77 191 -119.5t251 -42.5q206 0 365 68l45 -97q-77 -38 -187.5 -61t-222.5 -23q-336 0 -526 181
q-178 169 -178 456z" />
    <glyph glyph-name="afii10036" unicode="&#x422;" horiz-adv-x="1304" 
d="M61 1116v113h1182v-113h-530v-1116h-123v1116h-529z" />
    <glyph glyph-name="afii10037" unicode="&#x423;" horiz-adv-x="1349" 
d="M1149 1229h139l-579 -1059q-54 -102 -121 -143q-53 -33 -127 -33q-43 0 -86 6v104h24q79 0 115 21q23 13 47 43t62 98l-562 963h144l485 -842h12z" />
    <glyph glyph-name="afii10038" unicode="&#x424;" horiz-adv-x="1738" 
d="M575 1092h234v159h123v-159h231q235 0 373 -144q121 -127 121 -332q0 -215 -129 -344t-346 -129h-250v-143h-123v143h-234q-228 0 -362 131q-131 125 -131 342q0 197 108 320q66 75 165 115.5t220 40.5zM205 616q0 -167 90 -260q97 -100 272 -100h242v723h-242
q-182 0 -278 -107q-84 -96 -84 -256zM1534 616q0 150 -80 246q-97 117 -301 117h-221v-723h239q159 0 252 80q111 95 111 280z" />
    <glyph glyph-name="afii10039" unicode="&#x425;" horiz-adv-x="1265" 
d="M242 1229l389 -522l381 522h147l-438 -590l483 -639h-153l-422 569l-420 -569h-148l478 639l-451 590h154z" />
    <glyph glyph-name="afii10040" unicode="&#x426;" horiz-adv-x="1351" 
d="M133 0v1229h123v-1116h803v1116h123v-1116h108v-369h-96l-27 256h-1034z" />
    <glyph glyph-name="afii10041" unicode="&#x427;" horiz-adv-x="1306" 
d="M1174 0h-123v436q-83 -66 -193 -101.5t-219 -35.5q-249 0 -385 115q-162 137 -162 428v387h123v-367q0 -242 113 -352q104 -98 311 -98q241 0 412 137v680h123v-1229z" />
    <glyph glyph-name="afii10042" unicode="&#x428;" horiz-adv-x="1884" 
d="M133 0v1229h123v-1116h625v1116h123v-1116h624v1116h123v-1229h-1618z" />
    <glyph glyph-name="afii10043" unicode="&#x429;" horiz-adv-x="1921" 
d="M133 0v1229h123v-1116h625v1116h123v-1116h624v1116h123v-1116h109v-369h-95l-26 256h-1606z" />
    <glyph glyph-name="afii10044" unicode="&#x42a;" horiz-adv-x="1388" 
d="M31 1229h391v-398h455q223 0 340 -139q90 -111 90 -276q0 -182 -125 -301q-121 -115 -310 -115h-573v1116l-268 10v103zM1184 416q0 127 -66 205q-82 98 -248 98h-448v-606h459q144 0 229 94q74 80 74 209z" />
    <glyph glyph-name="afii10045" unicode="&#x42b;" horiz-adv-x="1533" 
d="M133 0v1229h123v-398h455q230 0 346 -147q84 -111 84 -268q0 -174 -111 -291q-119 -125 -323 -125h-574zM1018 416q0 114 -53 188q-79 115 -260 115h-449v-606h459q144 0 227 86q76 79 76 217zM1278 0v1229h123v-1229h-123z" />
    <glyph glyph-name="afii10046" unicode="&#x42c;" horiz-adv-x="1222" 
d="M133 0v1229h123v-398h455q230 0 346 -147q84 -111 84 -268q0 -174 -111 -291q-119 -125 -323 -125h-574zM1018 416q0 114 -53 188q-79 115 -260 115h-449v-606h459q144 0 227 86q76 79 76 217z" />
    <glyph glyph-name="afii10047" unicode="&#x42d;" horiz-adv-x="1267" 
d="M373 598v113h682q-20 174 -142 290q-148 138 -432 138q-205 0 -364 -68l-45 96q79 38 188.5 61t220.5 23q332 0 516 -164q189 -168 189 -473q0 -318 -203 -487q-183 -150 -502 -150q-111 0 -220.5 23t-188.5 61l45 97q159 -68 364 -68q281 0 428 133q143 130 154 375
h-690z" />
    <glyph glyph-name="afii10048" unicode="&#x42e;" horiz-adv-x="1771" 
d="M1690 614q0 -266 -119 -426q-78 -105 -199 -158t-272 -53q-295 0 -449 179q-129 148 -141 413h-254v-569h-123v1229h123v-547h256q14 248 150 397q156 172 438 172q266 0 420 -151q170 -167 170 -486zM1100 90q249 0 370 166q97 134 97 358q0 271 -133 404
q-121 121 -334 121q-227 0 -346 -133q-121 -134 -121 -392q0 -257 121 -391q121 -133 346 -133z" />
    <glyph glyph-name="afii10049" unicode="&#x42f;" horiz-adv-x="1304" 
d="M502 1229h669v-1229h-122v397h-555l-246 -397h-142l265 416q-118 35 -195 121q-104 117 -104 276q0 186 106 295q118 121 324 121zM195 813q0 -127 71 -207q83 -96 232 -96h551v606h-541q-170 0 -252 -102q-61 -76 -61 -201z" />
    <glyph glyph-name="afii10065" unicode="&#x430;" 
d="M1085 719v-434q0 -159 50 -271l-72 -24q-66 63 -86 137q-165 -145 -406 -145q-130 0 -218 21.5t-154 72.5q-117 89 -117 262q0 168 137 264q133 92 334 92q213 0 410 -55v84q0 100 -93 156q-84 51 -241 51q-124 0 -208.5 -15t-201.5 -57l-29 90q213 94 435 94
q111 0 201.5 -25t146.5 -67q56 -44 84 -105t28 -126zM549 582q-163 0 -258 -68q-86 -63 -86 -176q0 -115 92 -180q98 -66 274 -66q117 0 203.5 29.5t188.5 95.5v332q-125 19 -208.5 26t-205.5 7z" />
    <glyph glyph-name="afii10066" unicode="&#x431;" horiz-adv-x="1224" 
d="M633 987q244 0 381 -143q129 -132 129 -361q0 -236 -148 -372q-138 -129 -387 -129q-230 0 -366 143q-164 170 -164 537q0 366 160 534q72 77 172.5 125.5t220.5 48.5h135q100 0 156.5 8t109.5 37l51 -82q-76 -47 -148 -61.5t-222 -14.5h-82q-85 0 -165 -38.5
t-140 -104.5q-44 -49 -70 -106.5t-39 -149.5q149 129 416 129zM608 94q182 0 293 94q119 103 119 295q0 191 -102 293q-98 98 -285 98q-135 0 -234 -27.5t-196 -94.5q-2 -23 -2 -86q0 -302 125 -447q106 -125 282 -125z" />
    <glyph glyph-name="afii10067" unicode="&#x432;" horiz-adv-x="1144" 
d="M133 1024h488q204 0 290 -66q84 -64 84 -196q0 -75 -41 -125q-35 -44 -94 -66v-8q91 -28 144 -84q59 -65 59 -176q0 -153 -111 -227q-115 -76 -364 -76h-455v1024zM256 111h346q206 0 281 57q57 45 57 135q0 114 -78 156q-74 39 -244 39h-362v-387zM872 762q0 83 -51 119
q-23 16 -62.5 24t-67.5 9t-89 1h-346v-307h377q94 0 128 7.5t70 37.5q41 35 41 109z" />
    <glyph glyph-name="afii10068" unicode="&#x433;" horiz-adv-x="1044" 
d="M133 1024h825v-113h-702v-911h-123v1024z" />
    <glyph glyph-name="afii10069" unicode="&#x434;" horiz-adv-x="1280" 
d="M371 1024h737v-911h111v-338h-93l-24 225h-924l-24 -225h-93v331q84 4 123.5 45t53.5 121zM344 213q-10 -56 -43 -100h684v798h-516z" />
    <glyph glyph-name="afii10070" unicode="&#x435;" horiz-adv-x="1224" 
d="M614 1042q264 0 398 -137q137 -137 137 -393v-66h-944q14 -151 108 -241q111 -111 346 -111q180 0 330 58l37 -101q-153 -69 -367 -69q-131 0 -240 34.5t-181 100.5q-158 142 -158 395q0 235 143 381q146 149 391 149zM614 930q-204 0 -315 -123q-84 -97 -96 -248h821
q-9 174 -100 268q-100 103 -310 103z" />
    <glyph glyph-name="afii10072" unicode="&#x436;" horiz-adv-x="1603" 
d="M741 1024h123v-414h180l152 258q50 85 127 127q63 35 150 35q31 0 69 -6l-8 -104h-31q-38 0 -58.5 -5.5t-51.5 -19.5q-49 -23 -88 -86l-140 -231l367 -578h-148l-315 498h-205v-498h-123v498h-206l-316 -498h-145l366 578l-139 231q-38 63 -96 90q-46 21 -101 21h-32
l-11 104q37 6 70 6q80 0 139 -29q85 -44 138 -133l149 -258h184v414z" />
    <glyph glyph-name="afii10073" unicode="&#x437;" horiz-adv-x="1099" 
d="M150 872l-39 97q184 73 415 73q218 0 324 -71q100 -68 100 -203q0 -67 -43 -123q-30 -40 -84 -65v-9q102 -37 148 -100q47 -68 47 -168q0 -145 -121 -229q-136 -92 -387 -92q-246 0 -449 88l41 96q109 -40 202.5 -57t213.5 -17q204 0 299 66q76 51 76 145q0 96 -53 141
q-73 62 -207 62h-348v110h327q54 0 96 11.5t80 46.5q37 34 37 94q0 77 -61 117q-74 49 -258 49q-179 0 -356 -62z" />
    <glyph glyph-name="afii10074" unicode="&#x438;" horiz-adv-x="1230" 
d="M256 0h-123v1024h123v-850l719 850h123v-1024h-123v850z" />
    <glyph glyph-name="afii10075" unicode="&#x439;" horiz-adv-x="1230" 
d="M256 0h-123v1024h123v-850l719 850h123v-1024h-123v850zM385 1337l104 15q7 -66 37 -90q34 -27 90 -27q68 0 97 33q22 24 28 84l105 -15q-6 -90 -64 -145q-60 -57 -166 -57q-105 0 -165 57q-57 54 -66 145z" />
    <glyph glyph-name="afii10076" unicode="&#x43a;" horiz-adv-x="1179" 
d="M133 1024h123v-414h367l149 258q59 102 146 138q58 24 131 24q31 0 69 -6l-8 -104h-16q-77 0 -133 -29q-41 -21 -80 -82l-142 -234l369 -575h-145l-318 498h-389v-498h-123v1024z" />
    <glyph glyph-name="afii10077" unicode="&#x43b;" horiz-adv-x="1325" 
d="M432 1024h760v-1024h-123v911h-541l-127 -723q-20 -110 -114 -159q-63 -35 -158 -35q-47 0 -94 12l8 98h29q92 0 139 19q36 15 54.5 44.5t27.5 80.5z" />
    <glyph glyph-name="afii10078" unicode="&#x43c;" horiz-adv-x="1527" 
d="M795 0h-70l-465 846h-8v-846h-119v1024h164l469 -850l473 850h156v-1024h-123v844h-8z" />
    <glyph glyph-name="afii10079" unicode="&#x43d;" horiz-adv-x="1212" 
d="M956 0v479h-700v-479h-123v1024h123v-432h700v432h123v-1024h-123z" />
    <glyph glyph-name="afii10080" unicode="&#x43e;" 
d="M614 1042q219 0 369 -131q166 -144 166 -399t-166 -399q-150 -131 -369 -131q-218 0 -368 131q-166 144 -166 399t166 399q150 131 368 131zM614 930q-185 0 -299 -111q-112 -109 -112 -307t112 -307q114 -111 299 -111t299 111q113 110 113 307t-113 307
q-114 111 -299 111z" />
    <glyph glyph-name="afii10081" unicode="&#x43f;" horiz-adv-x="1208" 
d="M133 1024h942v-1024h-123v911h-696v-911h-123v1024z" />
    <glyph glyph-name="afii10082" unicode="&#x440;" horiz-adv-x="1280" 
d="M133 1024h82l37 -125q156 143 432 143q242 0 375 -139q139 -145 139 -391q0 -243 -151 -391q-145 -139 -383 -139q-244 0 -408 141v-430h-123v1331zM684 930q-135 0 -231 -30t-197 -103v-553q170 -150 408 -150q174 0 282 94q129 113 129 324q0 203 -104 313
q-97 105 -287 105z" />
    <glyph glyph-name="afii10083" unicode="&#x441;" horiz-adv-x="1071" 
d="M993 981l-35 -100q-54 21 -144 35t-165 14q-213 0 -332 -119q-112 -109 -112 -299q0 -222 135 -330q113 -88 309 -88q77 0 170 14.5t146 36.5l34 -100q-64 -29 -160 -46t-190 -17q-268 0 -413 133q-154 139 -154 397q0 249 166 393q156 137 401 137q209 0 344 -61z" />
    <glyph glyph-name="afii10084" unicode="&#x442;" horiz-adv-x="1110" 
d="M494 911h-422v113h966v-113h-422v-911h-122v911z" />
    <glyph glyph-name="afii10085" unicode="&#x443;" horiz-adv-x="1265" 
d="M549 0l-488 1024h138l428 -911h55l387 911h135l-508 -1171q-41 -96 -108 -132q-50 -28 -154 -28q-27 0 -65 10l14 100q32 -4 41 -4q55 0 96 21q50 26 76 90l39 90h-86z" />
    <glyph glyph-name="afii10086" unicode="&#x444;" horiz-adv-x="1966" 
d="M926 1331h116v-424q76 71 158 103t191 32q235 0 368 -149q131 -147 131 -381q0 -241 -141 -389q-138 -141 -371 -141q-189 0 -336 137v-426h-116v426q-147 -137 -336 -137q-233 0 -371 141q-141 148 -141 389q0 234 131 381q133 149 369 149q109 0 190.5 -32t157.5 -103
v424zM926 225v572q-103 78 -173 105.5t-175 27.5q-171 0 -271 -103q-106 -112 -106 -315q0 -174 92 -287q109 -131 297 -131q104 0 182 32t154 99zM1042 797v-572q76 -67 154 -99t182 -32q188 0 297 131q92 113 92 287q0 203 -106 315q-100 103 -270 103q-106 0 -176 -27.5
t-173 -105.5z" />
    <glyph glyph-name="afii10087" unicode="&#x445;" horiz-adv-x="1193" 
d="M207 0h-146l371 547l-336 477h148l291 -426h127l288 426h146l-334 -477l371 -547h-146l-317 485h-144z" />
    <glyph glyph-name="afii10088" unicode="&#x446;" 
d="M133 1024h123v-911h678v911h123v-911h110v-338h-92l-24 225h-918v1024z" />
    <glyph glyph-name="afii10089" unicode="&#x447;" horiz-adv-x="1153" 
d="M1020 0h-123v381q-156 -135 -371 -135q-220 0 -331 114q-103 106 -103 308v356h123v-344q0 -158 68 -238q75 -84 243 -84q221 0 371 129v537h123v-1024z" />
    <glyph glyph-name="afii10090" unicode="&#x448;" horiz-adv-x="1708" 
d="M133 0v1024h123v-911h537v911h122v-911h537v911h123v-1024h-1442z" />
    <glyph glyph-name="afii10091" unicode="&#x449;" horiz-adv-x="1746" 
d="M133 0v1024h123v-911h537v911h122v-911h537v911h123v-911h111v-338h-93l-24 225h-1436z" />
    <glyph glyph-name="afii10092" unicode="&#x44a;" horiz-adv-x="1294" 
d="M82 922v102h362v-299h355q198 0 311 -102q102 -95 102 -261t-122 -262q-127 -100 -357 -100h-411v911zM444 111h304q169 0 260 71q82 65 82 180q0 117 -66 177q-81 75 -256 75h-324v-503z" />
    <glyph glyph-name="afii10093" unicode="&#x44b;" horiz-adv-x="1409" 
d="M133 0v1024h123v-299h354q185 0 297 -88q117 -95 117 -275q0 -154 -102 -245q-126 -117 -377 -117h-412zM256 111h303q194 0 281 90q61 61 61 161q0 119 -72 183q-82 69 -249 69h-324v-503zM1153 1024h123v-1024h-123v1024z" />
    <glyph glyph-name="afii10094" unicode="&#x44c;" horiz-adv-x="1105" 
d="M133 0v1024h123v-299h354q185 0 297 -88q117 -95 117 -275q0 -154 -102 -245q-126 -117 -377 -117h-412zM256 111h303q194 0 281 90q61 61 61 161q0 119 -72 183q-82 69 -249 69h-324v-503z" />
    <glyph glyph-name="afii10095" unicode="&#x44d;" horiz-adv-x="1103" 
d="M289 481v113h604q-20 165 -137 252q-112 84 -305 84q-168 0 -320 -49l-35 100q165 61 355 61q241 0 389 -114q182 -138 182 -416q0 -246 -150 -387q-152 -143 -421 -143q-212 0 -375 63l35 100q158 -51 340 -51q231 0 348 123q89 95 98 264h-608z" />
    <glyph glyph-name="afii10096" unicode="&#x44e;" horiz-adv-x="1570" 
d="M133 1024h123v-430h215q14 175 125 295q144 153 383 153q225 0 356 -122q154 -141 154 -408q0 -264 -154 -406q-133 -124 -356 -124q-235 0 -371 139q-127 130 -139 360h-213v-481h-123v1024zM1366 512q0 210 -115 322q-99 96 -272 96q-194 0 -293 -117
q-94 -108 -94 -301q0 -204 108 -315q103 -103 279 -103q190 0 291 113q96 110 96 305z" />
    <glyph glyph-name="afii10097" unicode="&#x44f;" horiz-adv-x="1116" 
d="M983 1024v-1024h-123v301h-336q-51 0 -80 4l-192 -305h-146l220 332q-105 39 -162 110q-74 93 -74 220q0 172 111 266q113 96 331 96h451zM215 662q0 -95 47 -160q69 -92 232 -92h366v505h-342q-161 0 -237 -73q-66 -66 -66 -180z" />
    <glyph glyph-name="afii10071" unicode="&#x451;" horiz-adv-x="1224" 
d="M614 1042q264 0 398 -137q137 -137 137 -393v-66h-944q14 -151 108 -241q111 -111 346 -111q180 0 330 58l37 -101q-153 -69 -367 -69q-131 0 -240 34.5t-181 100.5q-158 142 -158 395q0 235 143 381q146 149 391 149zM614 930q-204 0 -315 -123q-84 -97 -96 -248h821
q-9 174 -100 268q-100 103 -310 103zM819 1350q48 0 75 -27t27 -70q0 -41 -27 -67.5t-75 -26.5q-46 0 -73.5 26.5t-27.5 67.5q0 42 27.5 69.5t73.5 27.5zM401 1350q48 0 75 -27t27 -70q0 -41 -27 -67.5t-75 -26.5q-46 0 -73 26.5t-27 67.5q0 42 27 69.5t73 27.5z" />
    <glyph glyph-name="afii10099" unicode="&#x452;" horiz-adv-x="1294" 
d="M168 1331h123v-102h379v-96l-379 -19v-207q167 135 395 135q239 0 352 -110q123 -120 123 -383v-438q0 -147 -39 -240t-143 -178l-66 59q71 78 98 155.5t27 196.5v445q0 207 -88 295q-86 86 -264 86q-220 0 -395 -139v-791h-123v1114h-137v94l137 15v108z" />
    <glyph glyph-name="afii10100" unicode="&#x453;" horiz-adv-x="1044" 
d="M133 1024h825v-113h-702v-911h-123v1024zM471 1167l119 297l123 -59l-160 -277z" />
    <glyph glyph-name="afii10101" unicode="&#x454;" horiz-adv-x="1103" 
d="M815 594v-113h-608q9 -169 98 -264q117 -123 348 -123q172 0 330 51l35 -100q-163 -63 -365 -63q-270 0 -422 143q-149 140 -149 387q0 278 182 416q148 114 389 114q200 0 365 -61l-35 -100q-152 49 -330 49q-193 0 -305 -84q-117 -87 -137 -252h604z" />
    <glyph glyph-name="afii10102" unicode="&#x455;" horiz-adv-x="1138" 
d="M981 981l-35 -100q-55 22 -156.5 35.5t-205.5 13.5q-226 0 -320 -58q-59 -37 -59 -98q0 -71 63 -108q51 -30 158 -41l254 -31q193 -22 287 -100q90 -74 90 -193q0 -147 -115 -225q-137 -94 -450 -94q-222 0 -410 67l35 105q188 -60 375 -60q221 0 323 43q119 48 119 162
q0 82 -70 123q-35 21 -77 31.5t-125 21.5l-283 37q-156 21 -229 84q-68 59 -68 170q0 126 106 195q126 81 396 81q231 0 397 -61z" />
    <glyph glyph-name="afii10103" unicode="&#x456;" horiz-adv-x="436" 
d="M51 934v90h252v-1024h-123v924zM242 1384q48 0 75 -26.5t27 -69.5q0 -41 -27 -67.5t-75 -26.5q-46 0 -73.5 26.5t-27.5 67.5q0 42 27.5 69t73.5 27z" />
    <glyph glyph-name="afii10104" unicode="&#x457;" horiz-adv-x="436" 
d="M360 1350q48 0 75.5 -27t27.5 -70q0 -41 -27.5 -67.5t-75.5 -26.5q-46 0 -73 26.5t-27 67.5q0 42 27 69.5t73 27.5zM84 1350q48 0 75 -27t27 -70q0 -41 -27 -67.5t-75 -26.5q-46 0 -73 26.5t-27 67.5q0 42 27 69.5t73 27.5zM51 934v90h252v-1024h-123v924z" />
    <glyph glyph-name="afii10105" unicode="&#x458;" horiz-adv-x="436" 
d="M51 934v90h252v-1044q0 -161 -90 -254q-97 -105 -281 -105q-170 0 -313 90l47 88q68 -36 126 -50.5t134 -14.5q129 0 195 69q59 62 59 177v944zM242 1384q48 0 74 -26.5t26 -69.5q0 -41 -26 -67.5t-74 -26.5t-74.5 26.5t-26.5 67.5q0 43 26.5 69.5t74.5 26.5z" />
    <glyph glyph-name="afii10106" unicode="&#x459;" horiz-adv-x="1959" 
d="M432 1024h698v-299h334q185 0 297 -88q117 -94 117 -275q0 -154 -102 -245q-126 -117 -377 -117h-391v911h-480l-127 -723q-20 -110 -114 -159q-63 -35 -158 -35q-47 0 -94 12l8 98h43q76 0 125 19q36 15 54.5 44.5t27.5 80.5zM1130 111h283q194 0 281 90q61 61 61 161
q0 119 -72 183q-82 69 -249 69h-304v-503z" />
    <glyph glyph-name="afii10107" unicode="&#x45a;" horiz-adv-x="1867" 
d="M915 0v479h-659v-479h-123v1024h123v-432h659v432h123v-299h334q185 0 297 -88q117 -94 117 -275q0 -153 -103 -245q-126 -117 -376 -117h-392zM1038 111h283q194 0 281 90q61 61 61 161q0 119 -72 183q-82 69 -250 69h-303v-503z" />
    <glyph glyph-name="afii10108" unicode="&#x45b;" horiz-adv-x="1294" 
d="M1161 549v-549h-123v549q0 207 -88 295q-86 86 -264 86q-220 0 -395 -139v-791h-123v1114h-137v94l137 15v108h123v-102h379v-96l-379 -19v-207q167 135 395 135q239 0 352 -110q123 -120 123 -383z" />
    <glyph glyph-name="afii10109" unicode="&#x45c;" horiz-adv-x="1179" 
d="M133 1024h123v-414h367l149 258q59 102 146 138q58 24 131 24q31 0 69 -6l-8 -104h-16q-77 0 -133 -29q-41 -21 -80 -82l-142 -234l369 -575h-145l-318 498h-389v-498h-123v1024zM471 1167l119 297l123 -59l-160 -277z" />
    <glyph glyph-name="afii10110" unicode="&#x45e;" horiz-adv-x="1265" 
d="M549 0l-488 1024h138l428 -911h55l387 911h135l-508 -1171q-41 -96 -108 -132q-50 -28 -154 -28q-27 0 -65 10l14 100q32 -4 41 -4q55 0 96 21q50 26 76 90l39 90h-86zM420 1337l105 15q7 -67 36 -90q34 -27 91 -27q67 0 96 33q22 24 28 84l105 -15q-6 -90 -64 -145
q-60 -57 -165 -57q-106 0 -166 57q-57 54 -66 145z" />
    <glyph glyph-name="afii10193" unicode="&#x45f;" horiz-adv-x="1208" 
d="M1077 0h-409l-21 -240h-88l-20 240h-404v1024h123v-911h696v911h123v-1024z" />
    <glyph glyph-name="afii10050" unicode="&#x490;" horiz-adv-x="1144" 
d="M133 0v1229h803l14 184h103v-297h-797v-1116h-123z" />
    <glyph glyph-name="afii10098" unicode="&#x491;" horiz-adv-x="1044" 
d="M133 1024h705l14 178h106v-291h-702v-911h-123v1024z" />
    <glyph glyph-name="endash" unicode="&#x2013;" horiz-adv-x="925" 
d="M72 592h782v-109h-782v109z" />
    <glyph glyph-name="emdash" unicode="&#x2014;" horiz-adv-x="1085" 
d="M72 592h942v-109h-942v109z" />
    <glyph glyph-name="quoteleft" unicode="&#x2018;" horiz-adv-x="411" 
d="M145 956q-49 0 -76.5 27.5t-27.5 69.5q0 29 10 49l80 198l74 -20l-25 -133q68 -18 68 -94q0 -41 -27.5 -69t-75.5 -28z" />
    <glyph glyph-name="quoteright" unicode="&#x2019;" horiz-adv-x="411" 
d="M205 1229q49 0 76.5 -27t27.5 -69q0 -30 -10 -50l-80 -198l-74 20l25 133q-68 18 -68 95q0 41 27.5 68.5t75.5 27.5z" />
    <glyph glyph-name="quotesinglbase" unicode="&#x201a;" horiz-adv-x="411" 
d="M205 180q49 0 76.5 -27t27.5 -69q0 -29 -10 -49l-80 -199l-74 21l25 133q-68 18 -68 94q0 41 27.5 68.5t75.5 27.5z" />
    <glyph glyph-name="quotedblleft" unicode="&#x201c;" horiz-adv-x="655" 
d="M145 956q-49 0 -76.5 27.5t-27.5 69.5q0 29 10 49l80 198l74 -20l-25 -133q68 -18 68 -94q0 -41 -27.5 -69t-75.5 -28zM389 956q-49 0 -76.5 27.5t-27.5 69.5q0 29 10 49l80 198l74 -20l-25 -133q68 -18 68 -94q0 -41 -27.5 -69t-75.5 -28z" />
    <glyph glyph-name="quotedblright" unicode="&#x201d;" horiz-adv-x="655" 
d="M205 1229q49 0 76.5 -27t27.5 -69q0 -30 -10 -50l-80 -198l-74 20l25 133q-68 18 -68 95q0 41 27.5 68.5t75.5 27.5zM449 1229q49 0 76.5 -27t27.5 -69q0 -30 -10 -50l-80 -198l-74 20l25 133q-68 18 -68 95q0 41 27.5 68.5t75.5 27.5z" />
    <glyph glyph-name="quotedblbase" unicode="&#x201e;" horiz-adv-x="655" 
d="M205 180q49 0 76.5 -27t27.5 -69q0 -29 -10 -49l-80 -199l-74 21l25 133q-68 18 -68 94q0 41 27.5 68.5t75.5 27.5zM449 180q49 0 76.5 -27t27.5 -69q0 -29 -10 -49l-80 -199l-74 21l25 133q-68 18 -68 94q0 41 27.5 68.5t75.5 27.5z" />
    <glyph glyph-name="dagger" unicode="&#x2020;" horiz-adv-x="667" 
d="M174 696h-106l-7 54l7 53h106l113 -10l-11 106v119l58 6l57 -6v-119l-10 -106l111 10h108l6 -53l-6 -54h-108l-111 11l10 -109v-393l-20 -205h-95v598l11 109z" />
    <glyph glyph-name="daggerdbl" unicode="&#x2021;" horiz-adv-x="667" 
d="M174 696h-106l-7 54l7 53h106l113 -10l-11 106v119l58 6l57 -6v-119l-10 -106l111 10h108l6 -53l-6 -54h-108l-111 11l10 -109l-10 -109l111 11h108l6 -54l-6 -53h-108l-111 10l10 -108v-90l-20 -205h-95v295l11 108l-113 -10h-106l-7 53l7 54h106l113 -11l-11 109
l11 109z" />
    <glyph glyph-name="bullet" unicode="&#x2022;" horiz-adv-x="456" 
d="M227 715q59 0 93 -33.5t34 -85.5q0 -54 -33.5 -86.5t-93.5 -32.5q-59 0 -92 32.5t-33 86.5q0 51 33.5 85t91.5 34z" />
    <glyph glyph-name="onedotenleader" unicode="&#x2024;" horiz-adv-x="421" 
d="M211 193q51 0 79.5 -29t28.5 -74q0 -46 -28.5 -74t-79.5 -28t-80 28.5t-29 73.5q0 44 29 73.5t80 29.5z" />
    <glyph glyph-name="twodotenleader" unicode="&#x2025;" horiz-adv-x="782" 
d="M211 193q51 0 79.5 -29t28.5 -74q0 -46 -28.5 -74t-79.5 -28t-80 28.5t-29 73.5q0 44 29 73.5t80 29.5zM571 193q51 0 80 -29.5t29 -73.5q0 -45 -29 -73.5t-80 -28.5t-79.5 28t-28.5 74q0 45 28.5 74t79.5 29z" />
    <glyph glyph-name="ellipsis" unicode="&#x2026;" horiz-adv-x="1073" 
d="M211 193q51 0 79.5 -29t28.5 -74q0 -46 -28.5 -74t-79.5 -28t-80 28.5t-29 73.5q0 44 29 73.5t80 29.5zM537 193q51 0 79.5 -29t28.5 -74q0 -46 -28.5 -74t-79.5 -28t-80 28.5t-29 73.5q0 44 29 73.5t80 29.5zM862 193q51 0 80 -29.5t29 -73.5q0 -45 -29 -73.5t-80 -28.5
t-79.5 28t-28.5 74q0 45 28.5 74t79.5 29z" />
    <glyph glyph-name="perthousand" unicode="&#x2030;" horiz-adv-x="1984" 
d="M279 31l694 1011l90 -57l-696 -1012zM344 477q-125 0 -205 80q-78 78 -78 203q0 126 80 203q79 79 203 79q139 0 217 -94q68 -81 68 -188q0 -103 -64 -180q-83 -103 -221 -103zM528 760q0 80 -45 131q-53 59 -139 59q-78 0 -129 -51q-55 -55 -55 -139q0 -76 43 -125
q54 -64 141 -64q82 0 135 56q49 52 49 133zM993 -23q-125 0 -205 80q-77 77 -77 203t80 203q80 80 202 80q139 0 217 -94q68 -81 68 -189q0 -103 -64 -180q-83 -103 -221 -103zM1178 260q0 80 -45 131q-54 60 -140 60q-77 0 -129 -52q-55 -55 -55 -139q0 -76 43 -125
q53 -63 141 -63q83 0 135 55q50 53 50 133zM1618 -23q-125 0 -205 80q-78 78 -78 203q0 126 80 203q80 80 203 80q139 0 217 -94q68 -81 68 -189q0 -103 -64 -180q-83 -103 -221 -103zM1802 260q0 80 -45 131q-54 60 -139 60q-77 0 -129 -52q-55 -55 -55 -139q0 -76 43 -125
q53 -63 141 -63q83 0 135 55q49 52 49 133z" />
    <glyph glyph-name="guilsinglleft" unicode="&#x2039;" horiz-adv-x="647" 
d="M506 932l49 -74l-332 -242l332 -241l-49 -74l-434 287v57z" />
    <glyph glyph-name="guilsinglright" unicode="&#x203a;" horiz-adv-x="647" 
d="M141 301l-49 74l332 241l-332 242l49 74l434 -287v-57z" />
    <glyph glyph-name="exclamdbl" unicode="&#x203c;" horiz-adv-x="694" 
d="M211 193q51 0 79.5 -29t28.5 -74q0 -46 -28.5 -74t-79.5 -28t-80 28.5t-29 73.5q0 44 29 73.5t80 29.5zM150 1331h122v-289l-10 -747h-102l-10 747v289zM483 193q51 0 80 -29.5t29 -73.5q0 -45 -29 -73.5t-80 -28.5t-79.5 28t-28.5 74q0 45 28.5 74t79.5 29zM422 1331
h123v-289l-10 -747h-103l-10 747v289z" />
    <glyph glyph-name="fraction" unicode="&#x2044;" horiz-adv-x="624" 
d="M-51 -14l629 1294l98 -39l-633 -1296z" />
    <glyph glyph-name="zerosuperior" unicode="&#x2070;" horiz-adv-x="610" 
d="M147 985q0 -125 64 -170q36 -24 94 -24t94 24q64 45 64 170q0 123 -64 168q-37 25 -94 25t-94 -25q-64 -45 -64 -168zM549 985q0 -172 -105 -240q-55 -36 -139 -36t-139 36q-105 68 -105 240q0 170 105 238q56 37 139 37t139 -37q105 -68 105 -238z" />
    <glyph glyph-name="foursuperior" unicode="&#x2074;" horiz-adv-x="602" 
d="M395 811h-334v59l279 381h57l25 -30l-238 -328h211v168l49 18h37v-186h49v-82h-49v-92h-86v92z" />
    <glyph glyph-name="fivesuperior" unicode="&#x2075;" horiz-adv-x="579" 
d="M184 1167v-94q63 19 107 19q100 0 162 -56q55 -49 55 -133q0 -83 -51 -131q-63 -63 -178 -63q-128 0 -218 79l48 62q73 -59 170 -59q78 0 114 36q29 33 29 76q0 46 -31 74q-36 33 -110 33q-78 0 -134 -39l-45 24v256h365v-84h-283z" />
    <glyph glyph-name="sixsuperior" unicode="&#x2076;" horiz-adv-x="583" 
d="M150 979q0 -94 30 -137q31 -51 109 -51q64 0 102 32q35 27 35 82q0 48 -29 74q-32 29 -102 29q-88 0 -145 -29zM156 1065q67 25 139 25q121 0 178 -66q39 -45 39 -119q0 -84 -59 -137q-62 -59 -164 -59q-116 0 -176 79q-52 72 -52 195q0 75 26 137.5t75 98.5
q53 41 137 41q105 0 180 -56l-35 -65q-63 39 -143 39q-52 0 -88 -25q-45 -28 -57 -88z" />
    <glyph glyph-name="sevensuperior" unicode="&#x2077;" horiz-adv-x="546" 
d="M365 1169h-220l-8 -82h-76v164h424v-71q-79 -85 -141 -199q-36 -61 -72 -160l-36 -102h-91l43 127q11 35 45 110q30 64 60 113q46 71 72 100z" />
    <glyph glyph-name="eightsuperior" unicode="&#x2078;" horiz-adv-x="589" 
d="M231 983q-47 -16 -65 -39q-19 -19 -19 -57q0 -37 25 -62q34 -34 123 -34q68 0 106 22q41 23 41 74q0 38 -22 57q-33 35 -125 35q-44 0 -64 4zM352 1057q22 6 34.5 22.5t12.5 38.5t-12 37q-26 23 -92 23q-67 0 -90 -23q-15 -15 -15 -37q0 -38 33 -49q20 -8 72 -8
q21 0 57 -4zM449 1028q79 -42 79 -139q0 -71 -43 -117q-60 -63 -190 -63q-125 0 -189 61q-45 45 -45 119q0 47 27 86q17 28 53 47q-37 40 -37 96q0 54 33 90q49 52 158 52q110 0 158 -50q32 -35 32 -92q0 -54 -36 -90z" />
    <glyph glyph-name="ninesuperior" unicode="&#x2079;" horiz-adv-x="573" 
d="M424 989q0 115 -43 156q-33 33 -96 33q-93 0 -125 -58q-13 -26 -13 -55q0 -48 27 -72q32 -32 105 -32q90 0 145 28zM416 901q-59 -22 -137 -22q-105 0 -164 51q-54 48 -54 135q0 62 33 109q61 86 191 86q114 0 170 -72q57 -68 57 -203q0 -144 -78 -217q-62 -59 -162 -59
q-101 0 -186 55l35 67q70 -40 149 -40q68 0 105 34q31 27 41 76z" />
    <glyph glyph-name="parenleftsuperior" unicode="&#x207d;" horiz-adv-x="272" 
d="M221 1276q-36 -53 -56 -136.5t-20 -164.5q0 -177 76 -287l-69 -41q-91 137 -91 328q0 97 24 186t67 152z" />
    <glyph glyph-name="parenrightsuperior" unicode="&#x207e;" horiz-adv-x="272" 
d="M51 1276l70 37q90 -133 90 -338q0 -192 -90 -328l-70 41q76 110 76 287q0 81 -20 164.5t-56 136.5z" />
    <glyph glyph-name="zeroinferior" unicode="&#x2080;" horiz-adv-x="610" 
d="M147 244q0 -125 64 -170q37 -25 94 -25t94 25q64 45 64 170q0 123 -64 168q-36 24 -94 24t-94 -24q-64 -45 -64 -168zM549 244q0 -172 -105 -240q-56 -37 -139 -37t-139 37q-105 68 -105 240q0 169 105 237q56 37 139 37t139 -37q105 -68 105 -237z" />
    <glyph glyph-name="oneinferior" unicode="&#x2081;" horiz-adv-x="411" 
d="M186 55v346l-82 -39l-32 72l161 84l39 -8v-455l68 -4v-74h-244v74z" />
    <glyph glyph-name="twoinferior" unicode="&#x2082;" horiz-adv-x="571" 
d="M219 57h281v-80h-422v82l252 174q40 28 61 58q19 25 19 57q0 39 -23 62q-30 26 -104 26q-102 0 -179 -57l-43 65q100 74 222 74q113 0 163 -45q50 -44 50 -127q0 -53 -31 -98q-25 -36 -88 -82z" />
    <glyph glyph-name="threeinferior" unicode="&#x2083;" horiz-adv-x="591" 
d="M459 289q36 -20 55 -60q16 -37 16 -77q0 -85 -67 -136q-67 -49 -170 -49q-140 0 -232 80l48 62q83 -60 184 -60q75 0 117 31q34 27 34 72q0 34 -20 57q-24 27 -70 27h-180v77h164q30 0 53 19q19 16 19 43q0 28 -27 45q-30 18 -92 18q-90 0 -170 -47l-39 62q87 65 215 65
q103 0 154 -43q45 -38 45 -100q0 -49 -37 -86z" />
    <glyph glyph-name="fourinferior" unicode="&#x2084;" horiz-adv-x="602" 
d="M395 70h-334v59l279 381h57l25 -31l-238 -327h211v167l49 19h37v-186h49v-82h-49v-93h-86v93z" />
    <glyph glyph-name="fiveinferior" unicode="&#x2085;" horiz-adv-x="579" 
d="M184 426v-94q42 18 107 18q90 0 151 -49q66 -52 66 -139q0 -92 -64 -146q-61 -49 -165 -49q-126 0 -218 80l48 62q75 -60 170 -60q72 0 108 31q35 27 35 82q0 46 -31 74q-35 32 -110 32q-78 0 -134 -39l-45 25v256h365v-84h-283z" />
    <glyph glyph-name="sixinferior" unicode="&#x2086;" horiz-adv-x="583" 
d="M150 238q0 -102 34 -146q37 -43 105 -43q66 0 106 37q31 31 31 78q0 54 -35 78q-33 24 -96 24q-90 0 -145 -28zM156 324q64 24 139 24q104 0 164 -51q53 -50 53 -133q0 -89 -61 -141q-62 -56 -162 -56q-105 0 -164 68q-64 76 -64 207q0 146 84 221q58 55 154 55
q106 0 180 -55l-35 -66q-63 39 -143 39q-55 0 -94 -28t-51 -84z" />
    <glyph glyph-name="seveninferior" unicode="&#x2087;" horiz-adv-x="546" 
d="M365 428h-220l-8 -82h-76v164h424v-72q-81 -86 -141 -198q-36 -61 -72 -160l-36 -103h-91l43 127q12 38 45 111q30 64 60 113q46 71 72 100z" />
    <glyph glyph-name="eightinferior" unicode="&#x2088;" horiz-adv-x="589" 
d="M231 242q-47 -16 -65 -39q-19 -19 -19 -58q0 -36 25 -61q35 -35 123 -35q66 0 106 23q41 23 41 73q0 39 -22 58q-33 35 -125 35q-44 0 -64 4zM352 315q22 6 34.5 23t12.5 39q0 28 -20 41q-26 18 -84 18q-68 0 -92 -24q-13 -13 -13 -35q0 -38 33 -49q22 -9 72 -9
q21 0 57 -4zM449 287q79 -42 79 -140q0 -70 -43 -116q-61 -64 -190 -64q-124 0 -189 62q-45 45 -45 118q0 47 27 86q18 30 53 48q-37 40 -37 96q0 54 33 90q49 51 158 51q111 0 158 -49q32 -35 32 -92q0 -54 -36 -90z" />
    <glyph glyph-name="nineinferior" unicode="&#x2089;" horiz-adv-x="573" 
d="M424 248q0 114 -43 155q-33 33 -96 33q-93 0 -125 -57q-13 -26 -13 -55q0 -48 27 -72q33 -33 105 -33q88 0 145 29zM416 160q-62 -23 -137 -23q-105 0 -164 51q-54 48 -54 136q0 61 33 108q61 86 191 86q114 0 170 -72q57 -68 57 -202q0 -144 -78 -217q-63 -60 -162 -60
q-100 0 -186 56l35 67q71 -41 149 -41q67 0 105 35q31 27 41 76z" />
    <glyph glyph-name="parenleftinferior" unicode="&#x208d;" horiz-adv-x="272" 
d="M221 549q-36 -53 -56 -136.5t-20 -164.5q0 -177 76 -287l-69 -41q-91 137 -91 328q0 97 24 186t67 152z" />
    <glyph glyph-name="parenrightinferior" unicode="&#x208e;" horiz-adv-x="272" 
d="M51 549l70 37q90 -133 90 -338q0 -192 -90 -328l-70 41q76 110 76 287q0 81 -20 164.5t-56 136.5z" />
    <glyph glyph-name="Euro" unicode="&#x20ac;" horiz-adv-x="1347" 
d="M76 575h911l4 -90l-334 -18h-348q32 -135 115 -215q162 -162 432 -162q206 0 365 68l45 -97q-77 -38 -187.5 -61t-222.5 -23q-326 0 -516 181q-123 114 -158 309h-106v108zM76 674v98l110 6q44 213 197 330q188 143 473 143q112 0 222.5 -23t187.5 -61l-45 -96
q-159 68 -365 68q-244 0 -397 -125q-103 -80 -144 -232h326l338 -18l4 -90h-907z" />
    <glyph glyph-name="afii61352" unicode="&#x2116;" horiz-adv-x="1949" 
d="M1362 358h485v-102h-485v102zM1118 1229h119v-1229h-131l-854 1051v-1051h-119v1229h131l854 -1051v1051zM1604 428q-108 0 -179 64q-73 70 -73 188q0 113 69 182q67 70 183 70q120 0 190 -76q64 -67 64 -176q0 -108 -60 -174q-72 -78 -194 -78zM1757 682q0 70 -37 113
q-40 43 -114 43q-72 0 -109 -37q-45 -45 -45 -119q0 -72 39 -111q46 -43 115 -43q71 0 114 43q37 43 37 111z" />
    <glyph glyph-name="trademark" unicode="&#x2122;" horiz-adv-x="1347" 
d="M365 1147v-426h-86v426h-197v82h481v-82h-198zM680 1077v-356h-84v508h96l215 -383l215 383h92v-508h-86v356l-200 -356h-51z" />
    <glyph glyph-name="minus" unicode="&#x2212;" horiz-adv-x="731" 
d="M72 715h587v-109h-587v109z" />
    <glyph glyph-name="approxequal" unicode="&#x2248;" horiz-adv-x="843" 
d="M125 690l-53 76q95 82 200 82q50 0 148 -30t155 -30q81 0 144 52l53 -76q-95 -82 -201 -82q-51 0 -149 29.5t-156 29.5q-82 0 -141 -51zM125 475l-53 76q95 82 200 82q50 0 148 -30t155 -30q81 0 144 52l53 -76q-95 -82 -201 -82q-51 0 -149 29.5t-156 29.5
q-82 0 -141 -51z" />
    <glyph glyph-name="notequal" unicode="&#x2260;" horiz-adv-x="794" 
d="M72 840h307l33 121l104 -29l-24 -92h231v-109h-260l-37 -141h297v-109h-326l-32 -131l-105 29l27 102h-215v109h243l37 141h-280v109z" />
    <glyph glyph-name="lessequal" unicode="&#x2264;" horiz-adv-x="647" 
d="M555 487l-49 -73l-434 286v58l434 286l49 -73l-332 -242zM72 573l14 13l371 -244l-49 -72l-336 211v92z" />
    <glyph glyph-name="greaterequal" unicode="&#x2265;" horiz-adv-x="647" 
d="M561 586l14 -13v-92l-335 -211l-50 72zM141 414l-49 73l332 242l-332 242l49 73l434 -286v-58z" />
    <glyph glyph-name="percent" horiz-adv-x="1339" 
d="M279 31l694 1011l90 -57l-696 -1012zM344 477q-125 0 -205 80q-78 78 -78 203q0 126 80 203q79 79 203 79q139 0 217 -94q68 -81 68 -188q0 -103 -64 -180q-83 -103 -221 -103zM528 760q0 80 -45 131q-53 59 -139 59q-78 0 -129 -51q-55 -55 -55 -139q0 -76 43 -125
q54 -64 141 -64q82 0 135 56q49 52 49 133zM993 -23q-125 0 -205 80q-77 77 -77 203t80 203q80 80 202 80q139 0 217 -94q68 -81 68 -189q0 -103 -64 -180q-83 -103 -221 -103zM1178 260q0 80 -45 131q-54 60 -140 60q-77 0 -129 -52q-55 -55 -55 -139q0 -76 43 -125
q53 -63 141 -63q83 0 135 55q50 53 50 133z" />
    <glyph glyph-name="percent.oldstyle" horiz-adv-x="1339" 
d="M279 31l694 1011l90 -57l-696 -1012zM344 477q-125 0 -205 80q-78 78 -78 203q0 126 80 203q79 79 203 79q139 0 217 -94q68 -81 68 -188q0 -103 -64 -180q-83 -103 -221 -103zM528 760q0 80 -45 131q-53 59 -139 59q-78 0 -129 -51q-55 -55 -55 -139q0 -76 43 -125
q54 -64 141 -64q82 0 135 56q49 52 49 133zM993 -23q-125 0 -205 80q-77 77 -77 203t80 203q80 80 202 80q139 0 217 -94q68 -81 68 -189q0 -103 -64 -180q-83 -103 -221 -103zM1178 260q0 80 -45 131q-54 60 -140 60q-77 0 -129 -52q-55 -55 -55 -139q0 -76 43 -125
q53 -63 141 -63q83 0 135 55q50 53 50 133z" />
    <glyph glyph-name="perthousand.oldstyle" horiz-adv-x="1984" 
d="M279 31l694 1011l90 -57l-696 -1012zM344 477q-125 0 -205 80q-78 78 -78 203q0 126 80 203q79 79 203 79q139 0 217 -94q68 -81 68 -188q0 -103 -64 -180q-83 -103 -221 -103zM528 760q0 80 -45 131q-53 59 -139 59q-78 0 -129 -51q-55 -55 -55 -139q0 -76 43 -125
q54 -64 141 -64q82 0 135 56q49 52 49 133zM993 -23q-125 0 -205 80q-77 77 -77 203t80 203q80 80 202 80q139 0 217 -94q68 -81 68 -189q0 -103 -64 -180q-83 -103 -221 -103zM1178 260q0 80 -45 131q-54 60 -140 60q-77 0 -129 -52q-55 -55 -55 -139q0 -76 43 -125
q53 -63 141 -63q83 0 135 55q50 53 50 133zM1618 -23q-125 0 -205 80q-78 78 -78 203q0 126 80 203q80 80 203 80q139 0 217 -94q68 -81 68 -189q0 -103 -64 -180q-83 -103 -221 -103zM1802 260q0 80 -45 131q-54 60 -139 60q-77 0 -129 -52q-55 -55 -55 -139q0 -76 43 -125
q53 -63 141 -63q83 0 135 55q49 52 49 133z" />
    <glyph glyph-name="Breve" horiz-adv-x="815" 
d="M133 1542l103 17q15 -74 59 -109q47 -35 115 -35q74 0 114 37q36 33 54 107l104 -17q-21 -114 -84 -168q-67 -61 -188 -61q-129 0 -199 67q-60 54 -78 162z" />
    <glyph glyph-name="Dieresis" horiz-adv-x="901" 
d="M657 1544q53 0 82 -29.5t29 -76.5q0 -45 -29.5 -74t-81.5 -29q-51 0 -80.5 29.5t-29.5 73.5q0 47 29.5 76.5t80.5 29.5zM244 1544q53 0 82.5 -29.5t29.5 -76.5q0 -44 -30 -73.5t-82 -29.5q-51 0 -81 29.5t-30 73.5q0 47 30 76.5t81 29.5z" />
    <glyph glyph-name="commaaccent" horiz-adv-x="462" 
d="M229 172q46 0 73.5 -26.5t27.5 -65.5q0 -23 -8 -47l-76 -189l-72 19l25 127q-32 7 -49 31.5t-17 58.5q0 39 26.5 65.5t69.5 26.5z" />
    <glyph glyph-name="dblgrave" horiz-adv-x="720" 
d="M504 1464l84 -297l-86 -34l-125 278zM254 1462l133 -295l-84 -37l-170 275z" />
    <glyph glyph-name="Acute" horiz-adv-x="514" 
d="M133 1360l127 303l121 -59l-160 -283z" />
    <glyph glyph-name="Grave" horiz-adv-x="514" 
d="M254 1663l127 -303l-88 -39l-160 283z" />
    <glyph glyph-name="Caron" horiz-adv-x="839" 
d="M133 1569l57 59l230 -188l229 188l58 -59l-258 -254h-58z" />
    <glyph glyph-name="Circumflex" horiz-adv-x="839" 
d="M190 1321l-57 59l258 254h58l258 -254l-58 -59l-229 188z" />
    <glyph glyph-name="commaaccent.cap" horiz-adv-x="462" 
d="M229 172q46 0 73.5 -26.5t27.5 -65.5q0 -23 -8 -47l-76 -189l-72 19l25 127q-32 7 -49 31.5t-17 58.5q0 39 26.5 65.5t69.5 26.5z" />
    <glyph glyph-name="Dotaccent" horiz-adv-x="473" 
d="M238 182q48 0 75 -27.5t27 -70.5t-27 -69.5t-75 -26.5q-50 0 -77.5 26.5t-27.5 69.5t28 70.5t77 27.5z" />
    <glyph glyph-name="Hungarumlaut" horiz-adv-x="737" 
d="M133 1372l92 311l129 -53l-133 -293zM338 1372l143 309l123 -57l-180 -289z" />
    <glyph glyph-name="dblGrave" horiz-adv-x="737" 
d="M512 1683l92 -311l-88 -35l-133 293zM256 1681l143 -309l-86 -37l-180 289z" />
    <glyph glyph-name="Macron" horiz-adv-x="919" 
d="M133 1464h653v-106h-653v106z" />
    <glyph glyph-name="Ring" horiz-adv-x="684" 
d="M342 1286q-95 0 -152 57t-57 152q0 93 60 150q57 57 149 57q97 0 152 -55q57 -60 57 -152q0 -94 -51 -145q-61 -64 -158 -64zM457 1495q0 50 -29 82q-33 33 -86 33q-55 0 -86 -31q-31 -28 -31 -84q0 -53 31 -84q33 -33 86 -33t86 33q29 32 29 84z" />
    <glyph glyph-name="Tilde" horiz-adv-x="954" 
d="M471 1368q-75 37 -152 37q-73 0 -135 -49l-51 69q98 91 199 91q72 0 153 -37q78 -37 150 -37q42 0 72.5 10.5t64.5 38.5l49 -74q-94 -84 -198 -84q-78 0 -152 35z" />
    <glyph glyph-name="zero.fitted" 
d="M180 614q0 -273 121 -407q108 -117 313 -117q214 0 324 127q111 129 111 397q0 266 -107 394q-108 131 -328 131q-204 0 -311 -113q-123 -129 -123 -412zM1171 614q0 -311 -143 -473q-145 -164 -414 -164q-244 0 -387 140q-170 167 -170 497t164 494q143 143 393 143
q273 0 418 -170q139 -161 139 -467z" />
    <glyph glyph-name="one.fitted" 
d="M377 973l-43 92l346 176l49 -12v-1123l166 -6v-100h-512v96l223 10v973z" />
    <glyph glyph-name="two.fitted" 
d="M172 0v113l582 422q125 89 168 147q63 82 63 197q0 134 -123 204q-101 56 -239 56q-124 0 -219.5 -33t-198.5 -105l-62 97q120 86 224.5 119.5t255.5 33.5q193 0 323 -82q162 -105 162 -299q0 -141 -90 -256q-62 -77 -201 -174l-455 -327h736v-113h-926z" />
    <glyph glyph-name="three.fitted" 
d="M598 90q209 0 322 107q79 76 79 192q0 109 -59 174q-32 37 -87.5 57.5t-121.5 20.5h-377v109h348q98 0 160 59q49 46 49 133q0 95 -88 148q-86 53 -252 53q-193 0 -356 -109l-59 88q162 129 430 129q197 0 321 -80q127 -81 127 -229q0 -79 -45 -143q-32 -50 -82 -80v-8
q102 -37 156 -115q59 -86 59 -207q0 -172 -125 -283q-146 -129 -399 -129q-166 0 -282.5 38.5t-209.5 119.5l70 90q111 -78 198.5 -106.5t223.5 -28.5z" />
    <glyph glyph-name="four.fitted" 
d="M80 229v86l665 914h99l26 -31l-622 -856h657v432l86 31h37v-463h121v-113h-121v-229h-123v229h-825z" />
    <glyph glyph-name="five.fitted" 
d="M590 90q220 0 323 109q76 82 76 215q0 148 -92 225q-100 84 -301 84q-97 0 -169 -22t-161 -68l-65 35v561h813v-113h-703v-344q131 59 310 59q219 0 348 -104q143 -113 143 -313q0 -180 -117 -297q-140 -140 -405 -140q-291 0 -473 158l71 90q91 -73 179.5 -104
t222.5 -31z" />
    <glyph glyph-name="six.fitted" 
d="M631 829q249 0 375 -112q120 -104 120 -301q0 -184 -120 -301q-67 -66 -167 -102t-221 -36q-288 0 -417 205q-99 155 -99 430q0 327 156 496q137 143 375 143q225 0 399 -106l-51 -98q-93 50 -172 71t-174 21q-188 0 -289 -107q-95 -102 -115 -293q71 42 178 66t222 24z
M618 90q202 0 302 103q84 87 84 223q0 134 -80 211q-93 90 -293 90q-129 0 -222 -21t-184 -67v-17q0 -249 82 -374q97 -148 311 -148z" />
    <glyph glyph-name="seven.fitted" 
d="M135 918v311h959v-113q-196 -211 -318 -432q-109 -191 -203 -457l-79 -227h-125l88 258q82 245 211 475q121 214 268 383h-680l-18 -198h-103z" />
    <glyph glyph-name="eight.fitted" 
d="M614 -23q-279 0 -413 113q-119 101 -119 287q0 138 86 227q49 51 151 94q-64 48 -96 103q-35 62 -35 143q0 166 129 242q108 65 297 65q227 0 334 -90q92 -77 92 -217q0 -86 -51 -153q-39 -55 -88 -74q116 -43 178 -123q68 -86 68 -217q0 -181 -117 -283
q-135 -117 -416 -117zM311 948q0 -84 41 -125q65 -65 262 -65q56 0 146 -8q75 18 119 77q39 55 39 121q0 94 -66 139q-75 52 -238 52q-164 0 -235 -49q-68 -45 -68 -142zM614 645q-90 0 -161 12q-137 -45 -189 -104q-59 -69 -59 -180q0 -123 74 -191q100 -92 335 -92
q238 0 338 92q72 66 72 191q0 130 -86 198q-99 74 -324 74z" />
    <glyph glyph-name="nine.fitted" 
d="M598 399q-256 0 -385 123q-111 105 -111 291q0 169 107 285q67 73 169.5 113t231.5 40q263 0 394 -166q122 -157 122 -469q0 -341 -178 -507q-138 -132 -370 -132q-224 0 -400 107l51 98q91 -49 171 -70.5t175 -21.5q189 0 293 98q106 98 129 301q-72 -43 -177.5 -66.5
t-221.5 -23.5zM610 1139q-201 0 -303 -105q-82 -82 -82 -221q0 -134 78 -209q92 -92 295 -92q132 0 224.5 20.5t181.5 65.5v18q0 268 -93 394q-96 129 -301 129z" />
    <glyph glyph-name="zerooldstyle" 
d="M618 1042q134 0 240 -46t176 -128q125 -147 125 -356t-125 -356q-70 -82 -176 -128t-240 -46q-267 0 -415 174q-125 147 -125 356t125 356q148 174 415 174zM618 930q-201 0 -311 -123q-106 -118 -106 -295t106 -295q110 -123 311 -123q202 0 312 123q106 118 106 295
t-106 295q-110 123 -312 123z" />
    <glyph glyph-name="oneoldstyle" horiz-adv-x="679" 
d="M123 782l-47 101l319 147l54 -6v-918l135 -6v-100h-482v96l224 10v771z" />
    <glyph glyph-name="twooldstyle" horiz-adv-x="1052" 
d="M82 0v113l582 368q104 68 141 125q33 53 33 131q0 86 -66 135q-78 58 -250 58q-205 0 -389 -90l-41 98q193 104 430 104q217 0 332 -86q107 -79 107 -227q0 -112 -58 -192q-55 -77 -176 -152l-440 -272h661v-113h-866z" />
    <glyph glyph-name="threeoldstyle" horiz-adv-x="1087" 
d="M154 872l-39 97q182 73 397 73q197 0 307 -81q96 -72 96 -199q0 -72 -30 -133q-34 -63 -92 -90v-9q89 -29 147 -106q66 -89 66 -211q0 -72 -29.5 -146t-91.5 -133q-73 -68 -171 -103.5t-265 -35.5q-231 0 -388 80l43 100q65 -30 161 -49.5t175 -19.5q247 0 361 106
q82 76 82 201q0 106 -62 168q-80 80 -248 80h-284v110h239q149 0 213 58q52 46 52 133q0 77 -70 123q-74 49 -231 49q-92 0 -167 -14.5t-171 -47.5z" />
    <glyph glyph-name="fouroldstyle" horiz-adv-x="1148" 
d="M72 43v88l624 893h135l7 -12l-600 -856h593v385l35 16h88v-401h123v-97l-123 -16v-229h-123v229h-759z" />
    <glyph glyph-name="fiveoldstyle" horiz-adv-x="1101" 
d="M190 473l-36 25v526h782v-113h-672v-317q129 24 279 24q245 0 370 -122q107 -104 107 -281q0 -164 -105 -278q-128 -142 -389 -142q-143 0 -248.5 25.5t-216.5 83.5l45 96q108 -50 208 -72t221 -22q188 0 282 94q80 80 80 215q0 122 -76 201q-89 92 -266 92
q-157 0 -365 -35z" />
    <glyph glyph-name="sixoldstyle" horiz-adv-x="1187" 
d="M610 829q249 0 375 -112q121 -105 121 -301q0 -183 -121 -301q-141 -138 -387 -138q-289 0 -418 205q-98 154 -98 430q0 327 156 496q137 143 374 143q226 0 400 -106l-51 -98q-92 50 -172 71t-175 21q-187 0 -288 -107q-95 -102 -115 -293q71 42 177.5 66t221.5 24z
M598 90q201 0 301 103q84 87 84 223q0 134 -80 211q-93 90 -293 90q-129 0 -221.5 -21t-183.5 -67v-17q0 -249 82 -374q97 -148 311 -148z" />
    <glyph glyph-name="sevenoldstyle" horiz-adv-x="1091" 
d="M72 713v311h958v-113q-181 -178 -309 -407q-119 -212 -193 -465l-67 -225h-123l82 274q71 239 190 453q114 204 260 370h-677l-19 -198h-102z" />
    <glyph glyph-name="eightoldstyle" horiz-adv-x="1206" 
d="M604 -18q-274 0 -403 100q-129 99 -129 291q0 127 80 217q58 65 155 115q-129 70 -129 235q0 133 82 203q103 86 344 86q229 0 330 -76q96 -71 96 -213q0 -159 -139 -217q110 -39 166 -107q78 -90 78 -243q0 -186 -123 -285q-133 -106 -408 -106zM301 940q0 -98 76 -139
q70 -39 227 -39q87 0 144 -8q71 17 115 67.5t44 118.5q0 83 -53 123q-69 53 -250 53q-186 0 -254 -55q-49 -39 -49 -121zM604 649q-86 0 -162 13q-131 -58 -188 -123q-59 -69 -59 -166q0 -128 77 -193q100 -86 332 -86q225 0 326 84q82 67 82 195q0 111 -62 176
q-93 100 -346 100z" />
    <glyph glyph-name="nineoldstyle" horiz-adv-x="1187" 
d="M578 190q-256 0 -385 123q-111 105 -111 291q0 170 106 285q67 73 170 113t232 40q263 0 393 -165q123 -158 123 -469q0 -318 -178 -484q-137 -131 -371 -131q-223 0 -399 107l51 98q91 -49 171 -70.5t175 -21.5q184 0 291 96q104 93 131 279q-72 -43 -178 -67t-221 -24z
M590 930q-201 0 -303 -105q-82 -82 -82 -221q0 -134 78 -209q92 -92 295 -92q132 0 224 20t181 66v19q0 269 -92 393q-96 129 -301 129z" />
    <glyph glyph-name="one.taboldstyle" 
d="M408 782l-48 101l320 147l53 -6v-918l135 -6v-100h-481v96l223 10v771z" />
    <glyph glyph-name="two.taboldstyle" 
d="M176 0v113l582 368q104 68 141 125q33 53 33 131q0 86 -66 135q-78 58 -250 58q-205 0 -389 -90l-41 98q193 104 430 104q217 0 332 -86q107 -79 107 -227q0 -112 -58 -192q-55 -77 -176 -152l-440 -272h661v-113h-866z" />
    <glyph glyph-name="zero.taboldstyle" 
d="M618 1042q134 0 240 -46t176 -128q125 -147 125 -356t-125 -356q-70 -82 -176 -128t-240 -46q-267 0 -415 174q-125 147 -125 356t125 356q148 174 415 174zM618 930q-201 0 -311 -123q-106 -118 -106 -295t106 -295q110 -123 311 -123q202 0 312 123q106 118 106 295
t-106 295q-110 123 -312 123z" />
    <glyph glyph-name="three.taboldstyle" 
d="M236 872l-39 97q182 73 397 73q197 0 307 -81q96 -72 96 -199q0 -72 -30 -133q-34 -62 -93 -90v-9q90 -30 148 -106q65 -87 65 -211q0 -164 -120 -279q-73 -68 -171.5 -103.5t-265.5 -35.5q-230 0 -387 80l43 100q65 -30 161 -49.5t175 -19.5q247 0 361 106q82 76 82 201
q0 106 -62 168q-80 80 -248 80h-284v110h239q149 0 213 58q51 45 51 133q0 78 -69 123q-74 49 -232 49q-92 0 -166.5 -14t-170.5 -48z" />
    <glyph glyph-name="four.taboldstyle" 
d="M113 43v88l624 893h135l7 -12l-600 -856h593v385l35 16h88v-401h123v-97l-123 -16v-229h-123v229h-759z" />
    <glyph glyph-name="five.taboldstyle" 
d="M264 473l-37 25v526h783v-113h-672v-317q129 24 278 24q246 0 371 -122q107 -104 107 -281q0 -164 -105 -278q-128 -142 -389 -142q-143 0 -248.5 25.5t-216.5 83.5l45 96q108 -50 207.5 -72t220.5 -22q189 0 283 94q80 80 80 215q0 122 -76 201q-89 92 -266 92
q-157 0 -365 -35z" />
    <glyph glyph-name="six.taboldstyle" 
d="M633 829q249 0 375 -112q120 -104 120 -301q0 -184 -120 -301q-141 -138 -387 -138q-289 0 -418 205q-99 155 -99 430q0 327 156 496q137 143 375 143q225 0 399 -106l-51 -98q-93 50 -172 71t-174 21q-188 0 -289 -107q-95 -102 -115 -293q71 42 178 66t222 24zM621 90
q201 0 301 103q84 87 84 223q0 134 -80 211q-93 90 -293 90q-129 0 -222 -21t-184 -67v-17q0 -249 82 -374q97 -148 312 -148z" />
    <glyph glyph-name="seven.taboldstyle" 
d="M135 713v311h959v-113q-183 -180 -310 -407q-117 -208 -192 -465l-68 -225h-123l82 274q70 236 191 453q114 204 260 370h-678l-18 -198h-103z" />
    <glyph glyph-name="eight.taboldstyle" 
d="M616 -18q-274 0 -403 100q-129 99 -129 291q0 127 80 217q58 65 155 115q-129 70 -129 235q0 133 82 203q103 86 344 86q229 0 330 -76q96 -71 96 -213q0 -159 -139 -217q110 -39 166 -107q78 -90 78 -243q0 -186 -123 -285q-133 -106 -408 -106zM313 940q0 -98 76 -139
q70 -39 227 -39q87 0 144 -8q72 18 116 68t44 118q0 82 -54 123q-69 53 -250 53q-186 0 -254 -55q-49 -39 -49 -121zM616 649q-85 0 -161 13q-132 -59 -189 -123q-59 -69 -59 -166q0 -127 78 -193q100 -86 331 -86q225 0 326 84q82 67 82 195q0 112 -61 176
q-93 100 -347 100z" />
    <glyph glyph-name="nine.taboldstyle" 
d="M592 190q-256 0 -385 123q-111 105 -111 291q0 169 107 285q67 73 169.5 113t231.5 40q263 0 393 -165q123 -158 123 -469q0 -318 -178 -484q-137 -131 -371 -131q-223 0 -399 107l51 98q91 -49 171 -70.5t175 -21.5q184 0 291 96q104 93 131 279q-72 -43 -178 -67
t-221 -24zM604 930q-201 0 -303 -105q-82 -82 -82 -221q0 -134 78 -209q92 -92 295 -92q132 0 224 20t181 66v19q0 269 -92 393q-96 129 -301 129z" />
    <glyph glyph-name="currency.taboldstyle" 
d="M348 936l84 -82q77 49 182 49q106 0 183 -49l84 82l80 -78l-84 -84q51 -76 51 -182t-51 -182l84 -84l-80 -80l-84 84q-73 -49 -183 -49q-109 0 -182 49l-84 -84l-78 80l82 84q-49 73 -49 182t49 182l-82 84zM831 592q0 100 -58 159.5t-159 59.5q-100 0 -157.5 -59
t-57.5 -160q0 -102 57 -161.5t158 -59.5t159 59.5t58 161.5z" />
    <glyph glyph-name="centoldstyle" horiz-adv-x="1071" 
d="M586 1174h94l6 -132q186 -7 307 -61l-35 -100q-54 21 -144 35t-165 14q-219 0 -330 -105q-114 -108 -114 -313t117 -313q114 -105 327 -105q76 0 165.5 14t143.5 37l35 -100q-121 -54 -307 -61l-6 -156h-94l-8 158q-215 15 -340 131q-156 140 -156 395q0 256 154 395
q124 115 342 133z" />
    <glyph glyph-name="dollaroldstyle" horiz-adv-x="1138" 
d="M82 766q0 136 117 205q102 57 297 69l10 138h94l6 -136q236 -4 375 -61l-35 -100q-52 20 -166.5 34.5t-195.5 14.5q-222 0 -310 -49q-69 -38 -69 -107q0 -65 31 -90q22 -21 66 -33.5t124 -23.5l254 -33q223 -28 305 -107q72 -66 72 -194q0 -156 -125 -230
q-107 -65 -326 -77l-6 -158h-94l-8 154q-107 0 -215.5 15.5t-180.5 47.5l35 100q52 -22 163 -36.5t192 -14.5q150 0 245.5 17t145.5 63q51 48 51 127q0 60 -39 96q-32 31 -87 46t-146 28l-283 41q-160 24 -229 84q-68 59 -68 170z" />
    <glyph glyph-name="cent.taboldstyle" 
d="M664 1174h94l6 -132q186 -7 307 -61l-35 -100q-54 21 -144 35t-165 14q-219 0 -330 -105q-114 -108 -114 -313q0 -206 116 -313q114 -105 328 -105q76 0 165.5 14t143.5 37l35 -100q-121 -54 -307 -61l-6 -156h-94l-9 158q-215 15 -340 131q-155 139 -155 395
q0 257 153 395q124 115 342 133z" />
    <glyph glyph-name="dollar.taboldstyle" 
d="M127 766q0 136 117 205q102 57 297 69l10 138h94l6 -136q236 -4 375 -61l-35 -100q-52 20 -166.5 34.5t-195.5 14.5q-222 0 -310 -49q-69 -38 -69 -107q0 -65 31 -90q22 -21 66 -33.5t124 -23.5l254 -33q223 -28 305 -107q72 -66 72 -194q0 -156 -125 -230
q-107 -65 -326 -77l-6 -158h-94l-8 154q-107 0 -215.5 15.5t-180.5 47.5l35 100q52 -22 163 -36.5t192 -14.5q150 0 245.5 17t145.5 63q51 48 51 127q0 60 -39 96q-32 31 -87 46t-146 28l-283 41q-160 24 -229 84q-68 59 -68 170z" />
    <glyph glyph-name="Euro.taboldstyle" 
d="M92 465h727v-98h-506q29 -102 101 -168q114 -105 327 -105q76 0 166 14.5t144 36.5l34 -100q-64 -29 -157.5 -46t-186.5 -17q-264 0 -411 135q-107 94 -142 250h-96v98zM92 659h96q36 158 140 248q147 135 413 135q209 0 344 -61l-34 -100q-54 21 -144 35t-166 14
q-218 0 -329 -105q-74 -70 -99 -166h506v-98h-727v98z" />
    <glyph glyph-name="yen.taboldstyle" 
d="M287 264l184 10l-426 750h143l420 -750h15l424 750h137l-428 -750l182 -10v-92h-651v92zM287 100h651v-90l-262 -10v-186h-123v186l-266 10v90z" />
    <glyph glyph-name="numbersign.taboldstyle" 
d="M389 119l19 213h-203v96h213l14 154h-227v96h235l21 221l96 -8l-20 -213h178l20 221l96 -8l-20 -213h215v-96h-225l-15 -154h240v-96h-248l-20 -221l-94 8l18 213h-176l-21 -221zM528 582l-14 -154h178l15 154h-179z" />
    <glyph glyph-name="dollarinferior" horiz-adv-x="565" 
d="M61 340q0 64 60 100q50 27 115 33l4 62h69l4 -60q90 -4 162 -33l-24 -69q-26 10 -76.5 17t-85.5 7q-77 0 -113 -14q-33 -13 -33 -39q0 -19 13 -29q22 -16 65 -22l113 -14q60 -6 110 -35q60 -34 60 -111q0 -73 -64 -113q-53 -31 -127 -36l-4 -68h-69l-7 68q-97 4 -165 36
l20 66q81 -25 170 -25q83 0 123 17q41 16 41 59t-103 60l-122 18q-61 9 -99 39q-37 32 -37 86z" />
    <glyph glyph-name="hyphensuperior" horiz-adv-x="397" 
d="M61 1047h275v-82h-275v82z" />
    <glyph glyph-name="commasuperior" horiz-adv-x="247" 
d="M125 825q28 0 44.5 -16.5t16.5 -42.5q0 -17 -6 -29l-47 -121l-51 13l10 82q-31 12 -31 55q0 26 17 42.5t47 16.5z" />
    <glyph glyph-name="periodsuperior" horiz-adv-x="247" 
d="M123 825q30 0 46.5 -17t16.5 -44q0 -26 -16.5 -42.5t-46.5 -16.5q-29 0 -45.5 16.5t-16.5 42.5q0 27 16.5 44t45.5 17z" />
    <glyph glyph-name="centsuperior" horiz-adv-x="483" 
d="M242 1165h59l6 -47q57 -6 115 -31l-23 -61q-48 18 -120 18q-67 0 -97 -30q-32 -32 -32 -101q0 -68 32 -96q38 -33 97 -33q62 0 120 25l23 -64q-47 -28 -115 -34l-6 -47h-59l-6 47q-68 12 -115 53q-60 60 -60 149q0 97 60 154q41 38 115 51z" />
    <glyph glyph-name="dollarsuperior" horiz-adv-x="565" 
d="M61 1067q0 64 60 100q50 27 115 33l4 62h69l4 -60q90 -4 162 -33l-24 -69q-26 10 -76.5 17t-85.5 7q-77 0 -113 -14q-33 -13 -33 -39q0 -19 13 -29q22 -16 65 -22l113 -14q60 -6 110 -35q60 -34 60 -111q0 -72 -64 -112q-55 -32 -127 -37l-4 -68h-69l-7 68q-94 4 -165 37
l20 65q81 -25 170 -25q83 0 123 17q41 16 41 59t-103 60l-122 18q-61 9 -99 39q-37 32 -37 86z" />
    <glyph glyph-name="hypheninferior" horiz-adv-x="397" 
d="M61 319h275v-81h-275v81z" />
    <glyph glyph-name="commainferior" horiz-adv-x="247" 
d="M125 98q28 0 44.5 -16.5t16.5 -42.5q0 -17 -6 -29l-47 -121l-51 13l10 82q-31 12 -31 55q0 26 17 42.5t47 16.5z" />
    <glyph glyph-name="periodinferior" horiz-adv-x="247" 
d="M123 98q30 0 46.5 -17t16.5 -44q0 -26 -16.5 -43t-46.5 -17q-28 0 -45 17t-17 43q0 27 16.5 44t45.5 17z" />
    <glyph glyph-name="centinferior" horiz-adv-x="483" 
d="M242 438h59l6 -47q57 -6 115 -31l-23 -61q-48 18 -120 18q-67 0 -97 -30q-32 -32 -32 -101q0 -68 32 -96q38 -33 97 -33q62 0 120 25l23 -64q-47 -28 -115 -34l-6 -47h-59l-6 47q-68 12 -115 53q-60 60 -60 149q0 97 60 154q41 38 115 51z" />
    <glyph glyph-name="zero.denominator" horiz-adv-x="890" 
d="M166 422q0 -219 113 -295q63 -45 165 -45q105 0 168 45q113 76 113 295q0 216 -113 295q-67 45 -168 45q-98 0 -165 -45q-113 -79 -113 -295zM829 422q0 -274 -163 -379q-87 -57 -222 -57q-132 0 -219 57q-164 106 -164 379q0 271 164 379q87 57 219 57q135 0 222 -57
q163 -108 163 -379z" />
    <glyph glyph-name="one.denominator" horiz-adv-x="555" 
d="M266 92v623l-147 -68l-37 80l244 125l45 -10v-748l112 -6v-88h-364v86z" />
    <glyph glyph-name="two.denominator" horiz-adv-x="837" 
d="M254 98h494v-98h-666v92l420 285q72 51 104 90q45 54 45 119q0 76 -51 121q-61 55 -178 55q-139 0 -285 -96l-53 82q86 57 164 83.5t174 26.5q174 0 260 -86q74 -71 74 -192q0 -82 -56 -156q-48 -65 -143 -129z" />
    <glyph glyph-name="three.denominator" horiz-adv-x="864" 
d="M657 492q59 -26 95 -78q41 -59 41 -144q0 -134 -105 -209q-102 -75 -268 -75q-232 0 -359 114l60 76q71 -51 141 -72.5t158 -21.5q141 0 215 63q55 48 55 125q0 67 -37 107q-48 51 -133 51h-289v94h263q69 0 110 47q27 30 27 72q0 61 -53 90q-54 33 -162 33
q-156 0 -271 -78l-51 78q130 94 330 94q141 0 221 -51q90 -56 90 -166q0 -88 -78 -149z" />
    <glyph glyph-name="four.denominator" horiz-adv-x="858" 
d="M612 154h-551v71l449 619h78l26 -33l-407 -561h405v287l66 22h39v-309h80v-96h-80v-154h-105v154z" />
    <glyph glyph-name="five.denominator" horiz-adv-x="823" 
d="M686 745h-471v-200q88 35 197 35q145 0 239 -76q101 -81 101 -217q0 -150 -105 -228q-94 -73 -256 -73q-202 0 -330 114l60 78q63 -51 126 -73.5t144 -22.5q130 0 195 57q61 52 61 148q0 99 -69 149q-63 47 -183 47q-57 0 -125 -20q-40 -12 -96 -41l-55 29v393h567v-99z
" />
    <glyph glyph-name="six.denominator" horiz-adv-x="849" 
d="M176 426q0 -168 64 -258q63 -86 188 -86q109 0 176 55q70 57 70 152q0 98 -68 147q-60 43 -170 43q-154 0 -260 -53zM184 526q117 52 252 52q160 0 250 -72q92 -76 92 -217q0 -127 -88 -209q-102 -94 -262 -94q-169 0 -260 108q-96 113 -96 326q0 219 110 338
q94 100 254 100q153 0 283 -78l-45 -84q-122 66 -236 66q-112 0 -178 -66q-61 -61 -76 -170z" />
    <glyph glyph-name="seven.denominator" horiz-adv-x="784" 
d="M584 745h-422l-12 -133h-89v232h662v-92q-122 -131 -213 -291q-79 -139 -135 -301l-58 -160h-110l63 186q50 149 146 318q75 132 168 241z" />
    <glyph glyph-name="eight.denominator" horiz-adv-x="856" 
d="M322 438q-88 -27 -123 -69q-33 -45 -33 -109q0 -88 65 -133q66 -45 197 -45q137 0 201 49q61 45 61 129q0 78 -55 123q-61 49 -207 49q-71 0 -106 6zM524 522q49 13 72 47q25 31 25 76q0 48 -31 76q-46 41 -162 41q-105 0 -152 -35q-38 -30 -38 -82q0 -43 18 -70
q15 -21 45 -30q47 -17 127 -17q46 0 96 -6zM209 481q-76 61 -76 160q0 103 70 160q73 57 225 57q165 0 240 -70q57 -51 57 -147q0 -43 -21.5 -83.5t-58.5 -65.5q72 -31 109 -82q41 -55 41 -148q0 -120 -78 -188q-98 -88 -289 -88q-179 0 -274 75q-93 73 -93 201q0 88 48 148
q34 42 100 71z" />
    <glyph glyph-name="nine.denominator" horiz-adv-x="847" 
d="M672 418q0 93 -15 164.5t-63 119.5q-63 60 -172 60q-165 0 -221 -105q-25 -46 -25 -102q0 -84 49 -133q60 -57 189 -57q155 0 258 53zM666 317q-105 -51 -252 -51q-168 0 -260 80q-82 76 -82 209q0 96 51 170q48 68 127 100.5t172 32.5q144 0 233 -76q121 -105 121 -358
q0 -233 -121 -346q-95 -92 -256 -92q-152 0 -280 77l43 84q124 -65 235 -65q118 0 185 61q65 57 84 174z" />
    <glyph glyph-name="period.denominator" horiz-adv-x="303" 
d="M150 152q43 0 67.5 -23.5t24.5 -58.5q0 -36 -24.5 -59t-67.5 -23q-41 0 -65 23t-24 59q0 35 24.5 58.5t64.5 23.5z" />
    <glyph glyph-name="comma.denominator" horiz-adv-x="303" 
d="M150 152q43 0 67.5 -23.5t24.5 -60.5q0 -18 -9 -41l-69 -174l-68 18l19 117q-54 14 -54 80q0 36 24.5 60t64.5 24z" />
    <glyph glyph-name="dollar.denominator" horiz-adv-x="835" 
d="M61 594q0 111 91 164q80 45 210 53l9 104h84l4 -102q154 -3 260 -51l-29 -86q-43 18 -117.5 28.5t-136.5 10.5q-146 0 -219 -37q-51 -30 -51 -78q0 -46 22 -63q33 -29 127 -41l195 -27q79 -10 124 -29t83 -53q57 -57 57 -154q0 -120 -96 -182q-47 -28 -94 -42t-125 -17
l-8 -121h-84l-7 117q-176 0 -284 51l28 88q41 -17 121.5 -29t141.5 -12q109 0 168.5 12.5t97.5 48.5q37 33 37 93q0 38 -27 69q-29 24 -60.5 36.5t-86.5 19.5l-217 28q-99 14 -164 66q-54 51 -54 135z" />
    <glyph glyph-name="cent.denominator" horiz-adv-x="755" 
d="M393 795h82l4 -86q112 -6 205 -45l-29 -82q-88 32 -211 32q-137 0 -211 -65q-71 -71 -71 -201q0 -126 74 -194q76 -70 208 -70q123 0 211 35l29 -82q-72 -38 -205 -45l-6 -103h-80l-4 105q-136 13 -221 88q-50 46 -78.5 115.5t-28.5 150.5q0 171 107 270q83 73 221 89z
" />
    <glyph glyph-name="parenleft.denominator" horiz-adv-x="337" 
d="M287 932q-58 -86 -91.5 -226.5t-33.5 -271.5q0 -128 33.5 -260t91.5 -219l-80 -43q-146 213 -146 522q0 156 38 298t108 243z" />
    <glyph glyph-name="parenright.denominator" horiz-adv-x="337" 
d="M51 932l80 43q70 -100 107.5 -242t37.5 -299q0 -311 -145 -522l-80 43q58 87 91.5 219t33.5 260q0 131 -33.5 271.5t-91.5 226.5z" />
    <glyph glyph-name="hyphen.denominator" horiz-adv-x="548" 
d="M61 508h426v-98h-426v98z" />
    <glyph glyph-name="zero.numerator" horiz-adv-x="890" 
d="M166 815q0 -219 113 -295q63 -45 165 -45q105 0 168 45q113 76 113 295q0 216 -113 295q-67 45 -168 45q-98 0 -165 -45q-113 -79 -113 -295zM829 815q0 -274 -163 -379q-87 -57 -222 -57q-132 0 -219 57q-164 106 -164 379q0 271 164 379q87 57 219 57q135 0 222 -57
q163 -108 163 -379z" />
    <glyph glyph-name="one.numerator" horiz-adv-x="555" 
d="M266 485v623l-147 -68l-37 80l244 125l45 -10v-748l112 -6v-88h-364v86z" />
    <glyph glyph-name="two.numerator" horiz-adv-x="837" 
d="M254 492h494v-99h-666v92l420 285q72 51 104 90q45 54 45 119q0 76 -51 121q-61 55 -178 55q-139 0 -285 -96l-53 82q86 57 164 83.5t174 26.5q174 0 260 -86q74 -71 74 -192q0 -82 -56 -156q-48 -65 -143 -129z" />
    <glyph glyph-name="three.numerator" horiz-adv-x="864" 
d="M657 885q59 -26 95 -78q41 -59 41 -143q0 -134 -105 -209q-103 -76 -268 -76q-231 0 -359 115l60 75q71 -51 141 -72.5t158 -21.5q140 0 215 64q55 48 55 125q0 66 -37 106q-48 51 -133 51h-289v94h263q68 0 110 48q27 30 27 71q0 61 -53 90q-54 33 -162 33
q-156 0 -271 -78l-51 78q130 94 330 94q141 0 221 -51q90 -56 90 -166q0 -88 -78 -149z" />
    <glyph glyph-name="four.numerator" horiz-adv-x="858" 
d="M612 547h-551v71l449 619h78l26 -33l-407 -561h405v287l66 22h39v-309h80v-96h-80v-154h-105v154z" />
    <glyph glyph-name="five.numerator" horiz-adv-x="823" 
d="M686 1139h-471v-201q88 35 197 35q145 0 239 -76q101 -81 101 -217q0 -149 -105 -227q-95 -74 -256 -74q-201 0 -330 115l60 77q63 -51 126 -73.5t144 -22.5q130 0 195 57q61 52 61 148q0 99 -69 149q-64 48 -183 48q-53 0 -125 -21q-40 -12 -96 -41l-55 29v393h567v-98z
" />
    <glyph glyph-name="six.numerator" horiz-adv-x="849" 
d="M176 819q0 -168 64 -258q63 -86 188 -86q109 0 176 55q70 57 70 152q0 98 -68 147q-60 43 -170 43q-154 0 -260 -53zM184 920q114 51 252 51q160 0 250 -72q92 -76 92 -217q0 -127 -88 -209q-102 -94 -262 -94q-169 0 -260 108q-96 113 -96 326q0 219 110 338
q94 100 254 100q155 0 283 -77l-45 -84q-120 65 -236 65q-113 0 -178 -65q-61 -61 -76 -170z" />
    <glyph glyph-name="seven.numerator" horiz-adv-x="784" 
d="M584 1139h-422l-12 -133h-89v231h662v-92q-122 -131 -213 -291q-79 -139 -135 -301l-58 -160h-110l63 187q49 147 146 317q77 135 168 242z" />
    <glyph glyph-name="eight.numerator" horiz-adv-x="856" 
d="M322 831q-88 -27 -123 -69q-33 -45 -33 -109q0 -88 65 -133q66 -45 197 -45q137 0 201 49q61 45 61 129q0 78 -55 123q-61 49 -207 49q-71 0 -106 6zM524 915q48 13 72 48q25 31 25 75q0 48 -31 76q-46 41 -162 41q-105 0 -152 -35q-38 -30 -38 -82q0 -42 18 -69
q16 -22 45 -31q45 -16 127 -16q38 0 96 -7zM209 874q-76 61 -76 160q0 103 70 160q73 57 225 57q166 0 240 -69q57 -51 57 -148q0 -43 -21.5 -83.5t-58.5 -65.5q72 -31 109 -82q41 -55 41 -148q0 -120 -78 -188q-98 -88 -289 -88q-177 0 -274 76q-93 73 -93 200q0 88 48 148
q34 42 100 71z" />
    <glyph glyph-name="nine.numerator" horiz-adv-x="847" 
d="M672 811q0 93 -15 165t-63 120q-62 59 -172 59q-165 0 -221 -104q-25 -46 -25 -103q0 -84 49 -133q60 -57 189 -57q155 0 258 53zM666 711q-107 -52 -252 -52q-168 0 -260 80q-82 76 -82 209q0 96 51 170q48 68 127 100.5t172 32.5q145 0 233 -75q121 -105 121 -359
q0 -233 -121 -346q-95 -92 -256 -92q-150 0 -280 78l43 84q126 -66 235 -66q117 0 185 62q65 57 84 174z" />
    <glyph glyph-name="parenleft.numerator" horiz-adv-x="337" 
d="M287 1329q-58 -86 -91.5 -226.5t-33.5 -271.5q0 -128 33.5 -260t91.5 -219l-80 -43q-146 213 -146 522q0 156 38 298t108 243z" />
    <glyph glyph-name="parenright.numerator" horiz-adv-x="337" 
d="M51 1329l80 43q70 -100 107.5 -242t37.5 -299q0 -311 -145 -522l-80 43q58 87 91.5 219t33.5 260q0 131 -33.5 271.5t-91.5 226.5z" />
    <glyph glyph-name="cent.numerator" horiz-adv-x="755" 
d="M393 1192h82l4 -86q112 -6 205 -45l-29 -82q-90 33 -211 33q-136 0 -211 -66q-71 -71 -71 -201q0 -126 74 -194q76 -70 208 -70q123 0 211 35l29 -82q-72 -38 -205 -45l-6 -102h-80l-4 104q-136 13 -221 88q-50 46 -78.5 115.5t-28.5 150.5q0 172 107 271q81 72 221 88z
" />
    <glyph glyph-name="dollar.numerator" horiz-adv-x="835" 
d="M61 991q0 111 91 164q80 45 210 53l9 105h84l4 -103q154 -3 260 -51l-29 -86q-43 18 -117.5 28.5t-136.5 10.5q-146 0 -219 -37q-51 -30 -51 -78q0 -46 22 -63q33 -29 127 -41l195 -27q79 -10 124 -29t83 -53q57 -57 57 -153q0 -120 -96 -182q-48 -29 -94.5 -43
t-124.5 -17l-8 -121h-84l-7 117q-176 0 -284 51l28 88q41 -17 121.5 -29t141.5 -12q108 0 168 13t98 49q37 33 37 92q0 39 -27 70q-28 24 -59.5 36t-87.5 19l-217 29q-100 14 -164 65q-54 51 -54 135z" />
    <glyph glyph-name="hyphen.numerator" horiz-adv-x="548" 
d="M61 905h426v-98h-426v98z" />
    <glyph glyph-name="comma.numerator" horiz-adv-x="303" 
d="M150 549q43 0 67.5 -23.5t24.5 -60.5q0 -18 -9 -41l-69 -174l-68 18l19 117q-54 14 -54 80q0 36 24.5 60t64.5 24z" />
    <glyph glyph-name="period.numerator" horiz-adv-x="303" 
d="M150 549q43 0 67.5 -23.5t24.5 -58.5q0 -36 -24.5 -59t-67.5 -23q-41 0 -65 23t-24 59q0 35 24.5 58.5t64.5 23.5z" />
    <glyph glyph-name="Cedilla" horiz-adv-x="555" 
d="M186 31h105l-4 -109q55 0 94 -31t39 -98q0 -83 -66 -139q-71 -60 -188 -88l-33 78q79 23 121 53q55 38 55 94q0 28 -18 37q-16 8 -39 8h-43l-23 21v174z" />
    <glyph glyph-name="Ogonek" horiz-adv-x="499" 
d="M236 37l53 -35q-24 -18 -37 -41q-16 -29 -16 -63q0 -54 32 -97q37 -46 99 -73l-35 -68q-101 27 -152 84q-47 53 -47 135q0 59 29 98q22 35 74 60z" />
    <glyph glyph-name="Imacron" horiz-adv-x="389" 
d="M133 1229h123v-1229h-123v1229zM-131 1487h653v-107h-653v107z" />
    <glyph glyph-name="a.sc" horiz-adv-x="1308" 
d="M573 1106h179l495 -1106h-135l-106 229h-707l-104 -229h-134zM647 995l-297 -655h611l-289 655h-25z" />
    <glyph glyph-name="afii10055" horiz-adv-x="389" 
d="M133 1229h123v-1229h-123v1229z" />
    <glyph glyph-name="b.sc" horiz-adv-x="1181" 
d="M133 1106h561q182 0 267 -94q69 -79 69 -187q0 -68 -37 -129q-31 -49 -75 -75v-9q84 -40 126 -102q56 -78 56 -180q0 -136 -99 -232q-106 -98 -268 -98h-600v1106zM256 545v-432h494q102 0 165 63q58 58 58 154q0 81 -43 137q-68 78 -172 78h-502zM256 995v-340h485
q76 0 123 54q41 50 41 120q0 68 -49 117q-52 49 -145 49h-455z" />
    <glyph glyph-name="c.sc" horiz-adv-x="1167" 
d="M1075 1059l-39 -109q-135 60 -334 60q-238 0 -356 -109q-129 -123 -129 -348q0 -223 129 -340q119 -113 356 -113q93 0 183.5 16t150.5 42l39 -109q-69 -31 -170.5 -49t-202.5 -18q-284 0 -442 143q-168 148 -168 428t166 426q160 145 444 145q103 0 204 -17.5t169 -47.5
z" />
    <glyph glyph-name="d.sc" horiz-adv-x="1216" 
d="M133 1106h408q266 0 420 -127q172 -143 172 -422q0 -263 -156 -412q-78 -74 -182.5 -109.5t-253.5 -35.5h-408v1106zM258 995v-884h287q212 0 329 102q136 120 136 344q0 216 -125 332q-115 106 -344 106h-283z" />
    <glyph glyph-name="e.sc" horiz-adv-x="1126" 
d="M133 1106h875v-107h-750v-356h672v-108h-672v-426h776v-109h-901v1106z" />
    <glyph glyph-name="f.sc" horiz-adv-x="1069" 
d="M133 1106h856v-109h-731v-395h600v-108h-600v-494h-125v1106z" />
    <glyph glyph-name="g.sc" horiz-adv-x="1261" 
d="M729 535v104h410v-637h-82l-31 70q-157 -90 -375 -90q-285 0 -438 176q-131 152 -131 395q0 268 174 416q87 74 203 114.5t250 40.5q215 0 376 -77l-45 -103q-155 66 -331 66q-236 0 -367 -121q-135 -123 -135 -336q0 -194 108 -320q117 -137 336 -137q188 0 363 88v340z
" />
    <glyph glyph-name="h.sc" horiz-adv-x="1253" 
d="M133 1106h125v-455h737v455h125v-1106h-125v541h-737v-541h-125v1106z" />
    <glyph glyph-name="i.sc" horiz-adv-x="391" 
d="M133 1106h123v-1106h-123v1106z" />
    <glyph glyph-name="j.sc" horiz-adv-x="944" 
d="M696 1106h125v-660q0 -216 -116 -335q-66 -68 -152 -98.5t-213 -30.5q-179 0 -277 49l33 104q118 -43 244 -43q96 0 160.5 21.5t111.5 70.5q84 84 84 262v660z" />
    <glyph glyph-name="k.sc" horiz-adv-x="1200" 
d="M133 1106h125v-461h340l365 461h153l-416 -516l420 -590h-157l-369 535h-336v-535h-125v1106z" />
    <glyph glyph-name="l.sc" horiz-adv-x="1060" 
d="M133 1106h125v-995h711v-111h-836v1106z" />
    <glyph glyph-name="m.sc" horiz-adv-x="1472" 
d="M133 1106h184l420 -983l426 983h176v-1106h-122v944h-11l-403 -944h-141l-400 944h-8v-944h-121v1106z" />
    <glyph glyph-name="n.sc" horiz-adv-x="1261" 
d="M133 1106h131l744 -936v936h120v-1106h-129l-749 944v-944h-117v1106z" />
    <glyph glyph-name="o.sc" horiz-adv-x="1323" 
d="M662 1124q128 0 238 -42.5t181 -116.5q70 -72 110 -178.5t40 -233.5t-40 -233.5t-110 -178.5q-71 -74 -181 -116.5t-238 -42.5t-238.5 42.5t-181.5 116.5q-70 72 -110 178.5t-40 233.5t40 233.5t110 178.5q71 74 181.5 116.5t238.5 42.5zM219 553q0 -223 119 -342
t324 -119q204 0 323 119t119 342t-119 342t-323 119q-205 0 -324 -119t-119 -342z" />
    <glyph glyph-name="p.sc" horiz-adv-x="1150" 
d="M133 1106h535q199 0 303 -129q92 -110 92 -264q0 -169 -113 -279q-117 -108 -301 -108h-391v-326h-125v1106zM258 995v-559h391q126 0 207 68q82 73 82 213q0 117 -59 186q-73 92 -217 92h-404z" />
    <glyph glyph-name="q.sc" horiz-adv-x="1323" 
d="M1126 -53l17 -103q-33 -8 -64 -8q-89 0 -159 55q-38 31 -95 109q-92 -18 -163 -18q-128 0 -238.5 42.5t-181.5 116.5q-70 72 -110 178.5t-40 233.5t40 233.5t110 178.5q71 74 181.5 116.5t238.5 42.5t238 -42.5t181 -116.5q70 -72 110 -178.5t40 -233.5q0 -166 -72 -301
q-77 -142 -215 -209q23 -45 64 -72q44 -28 82 -28q20 0 36 4zM219 553q0 -223 119 -342t324 -119q204 0 323 119t119 342t-119 342t-323 119q-205 0 -324 -119t-119 -342z" />
    <glyph glyph-name="r.sc" horiz-adv-x="1138" 
d="M133 1106h514q93 0 173.5 -31t129.5 -86q97 -105 97 -260q0 -121 -68 -221q-71 -100 -191 -139l234 -369h-143l-217 360h-404v-360h-125v1106zM258 995v-524h401q119 0 193 74q68 68 68 184q0 96 -48 166q-33 46 -91.5 73t-131.5 27h-391z" />
    <glyph glyph-name="s.sc" horiz-adv-x="1206" 
d="M1028 1047l-43 -105q-185 70 -383 70q-232 0 -328 -68q-57 -41 -57 -110q0 -62 47 -97q55 -39 180 -57l271 -41q128 -21 202.5 -46t122.5 -71q74 -71 74 -203q0 -146 -115 -229q-144 -108 -467 -108q-249 0 -436 79l39 107q197 -74 397 -74q257 0 371 76q84 54 84 158
q0 92 -78 135q-55 30 -209 53l-301 45q-144 21 -221 78q-86 66 -86 184q0 129 94 205q121 96 416 96q237 0 426 -77z" />
    <glyph glyph-name="t.sc" horiz-adv-x="1202" 
d="M72 1106h1058v-111h-466v-995h-125v995h-467v111z" />
    <glyph glyph-name="u.sc" horiz-adv-x="1243" 
d="M133 1106h125v-631q0 -198 96 -285q46 -46 117 -72t152 -26q161 0 266 94q94 88 94 289v631h127v-631q0 -237 -129 -366q-127 -127 -358 -127q-221 0 -351 118q-139 130 -139 375v631z" />
    <glyph glyph-name="v.sc" horiz-adv-x="1280" 
d="M61 1106h138l430 -993h20l434 993h136l-492 -1106h-176z" />
    <glyph glyph-name="w.sc" horiz-adv-x="1789" 
d="M61 1106h129l322 -997h10l289 997h166l293 -997h8l319 997h132l-367 -1106h-178l-287 956h-8l-285 -956h-180z" />
    <glyph glyph-name="x.sc" horiz-adv-x="1169" 
d="M86 1106h154l348 -465l332 465h149l-397 -533l436 -573h-154l-376 504l-367 -504h-150l435 578z" />
    <glyph glyph-name="y.sc" horiz-adv-x="1239" 
d="M61 1106h146l411 -721h9l409 721h142l-496 -844v-262h-121v258z" />
    <glyph glyph-name="z.sc" horiz-adv-x="1091" 
d="M1020 113v-113h-948v74l770 925l-307 -4h-416v111h899v-74l-772 -926l305 7h469z" />
    <glyph glyph-name="idotaccent.sc" horiz-adv-x="391" 
d="M133 1106h123v-1106h-123v1106zM195 1415q46 0 72 -26t26 -66q0 -41 -26 -66.5t-72 -25.5q-45 0 -71 25.5t-26 66.5q0 39 26 65.5t71 26.5z" />
    <glyph glyph-name="afii10065.sc" horiz-adv-x="1308" 
d="M573 1106h179l495 -1106h-135l-106 229h-707l-104 -229h-134zM647 995l-297 -655h611l-289 655h-25z" />
    <glyph glyph-name="afii10066.sc" horiz-adv-x="1148" 
d="M133 1106h797v-113h-672v-248h410q209 0 307 -118q86 -99 86 -250q0 -72 -28 -140t-77 -120q-110 -117 -290 -117h-533v1106zM258 635v-524h401q133 0 213 86q62 68 62 180q0 122 -64 186q-69 72 -192 72h-420z" />
    <glyph glyph-name="afii10067.sc" horiz-adv-x="1181" 
d="M133 1106h561q182 0 267 -94q69 -79 69 -187q0 -68 -37 -129q-31 -49 -75 -75v-9q84 -40 126 -102q56 -78 56 -180q0 -136 -99 -232q-106 -98 -268 -98h-600v1106zM256 545v-432h494q102 0 165 63q58 58 58 154q0 81 -43 137q-68 78 -172 78h-502zM256 995v-340h485
q76 0 123 54q41 50 41 120q0 68 -49 117q-52 49 -145 49h-455z" />
    <glyph glyph-name="afii10068.sc" horiz-adv-x="1056" 
d="M133 1106h832v-111h-707v-995h-125v1106z" />
    <glyph glyph-name="afii10069.sc" horiz-adv-x="1288" 
d="M358 1106h760v-995h109v-334h-101l-24 223h-918l-22 -223h-101v334h41q54 0 84 30q41 38 52 123zM459 995l-109 -786q-9 -64 -35 -98h678v884h-534z" />
    <glyph glyph-name="afii10070.sc" horiz-adv-x="1126" 
d="M133 1106h875v-107h-750v-356h672v-108h-672v-426h776v-109h-901v1106z" />
    <glyph glyph-name="afii10071.sc" horiz-adv-x="1126" 
d="M133 1106h875v-107h-750v-356h672v-108h-672v-426h776v-109h-901v1106zM780 1415q53 0 82 -29.5t29 -76.5q0 -45 -29.5 -74t-81.5 -29q-51 0 -80.5 29.5t-29.5 73.5q0 47 29.5 76.5t80.5 29.5zM367 1415q53 0 82.5 -29.5t29.5 -76.5q0 -44 -30 -73.5t-82 -29.5
q-51 0 -81 29.5t-30 73.5q0 47 30 76.5t81 29.5z" />
    <glyph glyph-name="afii10072.sc" horiz-adv-x="1683" 
d="M782 1106h123v-463h234l186 332q35 65 80 96q53 41 129 41q44 0 84 -4v-111h-14q-70 0 -101 -14q-45 -19 -73 -70l-179 -315l369 -598h-145l-320 532h-250v-532h-123v532h-254l-317 -532h-148l371 596l-178 317q-25 45 -57 62q-44 24 -119 24h-17v109q37 6 87 6
q71 0 122 -37q51 -36 88 -102l185 -332h237v463z" />
    <glyph glyph-name="afii10073.sc" horiz-adv-x="1165" 
d="M313 678h398q86 0 135 55q39 49 39 98q0 86 -70 130q-84 53 -280 53q-179 0 -363 -72l-39 98q186 84 414 84q278 0 385 -104q76 -73 76 -189q0 -55 -31 -112q-24 -44 -66 -74v-8q83 -45 125 -105q47 -67 47 -180q0 -161 -125 -262q-137 -108 -401 -108q-275 0 -485 98
l47 106q118 -46 219.5 -68t218.5 -22q198 0 311 78q45 32 70 79.5t25 100.5q0 92 -50 148q-62 65 -180 65h-420v111z" />
    <glyph glyph-name="afii10074.sc" horiz-adv-x="1263" 
d="M133 1106h123v-924l754 924h120v-1106h-122v924l-754 -924h-121v1106z" />
    <glyph glyph-name="afii10075.sc" horiz-adv-x="1263" 
d="M133 1106h123v-924l754 924h120v-1106h-122v924l-754 -924h-121v1106zM356 1399l103 16q15 -72 59 -108q47 -35 115 -35q75 0 115 37q35 32 53 106l104 -16q-21 -114 -84 -168q-68 -62 -188 -62q-128 0 -199 68q-60 54 -78 162z" />
    <glyph glyph-name="afii10076.sc" horiz-adv-x="1177" 
d="M133 1106h125v-461h313l209 334q51 82 113 111q56 26 137 26q30 0 76 -6l-10 -109h-23q-67 0 -108 -16q-43 -18 -78 -67l-213 -322l424 -596h-154l-371 535h-315v-535h-125v1106z" />
    <glyph glyph-name="afii10077.sc" horiz-adv-x="1314" 
d="M422 1106h760v-1106h-125v995h-529l-102 -755q-19 -132 -82 -189q-64 -59 -172 -59q-73 0 -137 20l24 107q55 -15 86 -15q74 0 107 33q42 39 53 131z" />
    <glyph glyph-name="afii10078.sc" horiz-adv-x="1472" 
d="M133 1106h184l420 -983l426 983h176v-1106h-122v944h-11l-403 -944h-141l-400 944h-8v-944h-121v1106z" />
    <glyph glyph-name="afii10079.sc" horiz-adv-x="1253" 
d="M133 1106h125v-455h737v455h125v-1106h-125v541h-737v-541h-125v1106z" />
    <glyph glyph-name="afii10080.sc" horiz-adv-x="1323" 
d="M662 1124q128 0 238 -42.5t181 -116.5q70 -72 110 -178.5t40 -233.5t-40 -233.5t-110 -178.5q-71 -74 -181 -116.5t-238 -42.5t-238.5 42.5t-181.5 116.5q-70 72 -110 178.5t-40 233.5t40 233.5t110 178.5q71 74 181.5 116.5t238.5 42.5zM219 553q0 -223 119 -342
t324 -119q204 0 323 119t119 342t-119 342t-323 119q-205 0 -324 -119t-119 -342z" />
    <glyph glyph-name="afii10081.sc" horiz-adv-x="1243" 
d="M133 1106h977v-1106h-125v995h-727v-995h-125v1106z" />
    <glyph glyph-name="afii10082.sc" horiz-adv-x="1150" 
d="M133 1106h535q199 0 303 -129q92 -110 92 -264q0 -169 -113 -279q-117 -108 -301 -108h-391v-326h-125v1106zM258 995v-559h391q126 0 207 68q82 73 82 213q0 117 -59 186q-73 92 -217 92h-404z" />
    <glyph glyph-name="afii10083.sc" horiz-adv-x="1167" 
d="M1075 1059l-39 -109q-135 60 -334 60q-238 0 -356 -109q-129 -123 -129 -348q0 -223 129 -340q119 -113 356 -113q93 0 183.5 16t150.5 42l39 -109q-69 -31 -170.5 -49t-202.5 -18q-284 0 -442 143q-168 148 -168 428t166 426q160 145 444 145q103 0 204 -17.5t169 -47.5
z" />
    <glyph glyph-name="afii10084.sc" horiz-adv-x="1202" 
d="M72 1106h1058v-111h-466v-995h-125v995h-467v111z" />
    <glyph glyph-name="afii10085.sc" horiz-adv-x="1247" 
d="M61 1106h144l430 -750h8l397 750h140l-523 -950q-56 -101 -110 -136q-43 -30 -121 -30q-41 0 -86 10v106h29q71 0 104 17q45 22 92 121z" />
    <glyph glyph-name="afii10086.sc" horiz-adv-x="1583" 
d="M729 989v135h125v-135h195q103 0 190.5 -33.5t144.5 -95.5q107 -113 107 -301t-107 -301q-57 -62 -144.5 -95.5t-190.5 -33.5h-195v-129h-125v129h-194q-103 0 -191 34t-145 95q-107 113 -107 301t107 301q57 61 145 95t191 34h194zM854 879v-637h186q176 0 260 100
q68 81 68 217t-68 217q-86 103 -260 103h-186zM729 879h-186q-174 0 -260 -103q-68 -81 -68 -217t68 -217q84 -100 260 -100h186v637z" />
    <glyph glyph-name="afii10087.sc" horiz-adv-x="1169" 
d="M86 1106h154l348 -465l332 465h149l-397 -533l436 -573h-154l-376 504l-367 -504h-150l435 578z" />
    <glyph glyph-name="afii10088.sc" horiz-adv-x="1239" 
d="M133 1106h125v-995h690v995h125v-995h94v-332h-100l-23 221h-911v1106z" />
    <glyph glyph-name="afii10089.sc" horiz-adv-x="1200" 
d="M92 1106h125v-356q0 -191 96 -283q93 -90 271 -90q211 0 358 115v614h125v-1106h-125v379q-156 -113 -358 -113q-228 0 -348 105q-144 125 -144 360v375z" />
    <glyph glyph-name="afii10090.sc" horiz-adv-x="1695" 
d="M133 1106h123v-995h530v995h123v-995h531v995h123v-1106h-1430v1106z" />
    <glyph glyph-name="afii10091.sc" horiz-adv-x="1728" 
d="M133 1106h123v-995h530v995h123v-995h531v995h123v-995h94v-332h-101l-22 221h-1401v1106z" />
    <glyph glyph-name="afii10092.sc" horiz-adv-x="1273" 
d="M72 1106h336v-352h360q126 0 209 -34.5t139 -103.5q76 -95 76 -239q0 -156 -100 -262q-109 -115 -314 -115h-495v995l-211 13v98zM408 643v-532h378q138 0 215 77q66 69 66 189q0 131 -76 201q-71 65 -215 65h-368z" />
    <glyph glyph-name="afii10093.sc" horiz-adv-x="1425" 
d="M133 1106h123v-352h360q126 0 209.5 -34.5t139.5 -103.5q75 -93 75 -239q0 -156 -100 -262q-109 -115 -313 -115h-494v1106zM256 643v-532h379q138 0 215 77q65 68 65 189q0 132 -75 201q-71 65 -215 65h-369zM1169 1106h123v-1106h-123v1106z" />
    <glyph glyph-name="afii10094.sc" horiz-adv-x="1124" 
d="M133 1106h125v-352h360q126 0 209.5 -34.5t139.5 -103.5q75 -93 75 -239q0 -156 -100 -262q-109 -115 -313 -115h-496v1106zM258 643v-532h379q138 0 215 77q66 69 66 189q0 131 -76 201q-71 65 -215 65h-369z" />
    <glyph glyph-name="afii10095.sc" horiz-adv-x="1167" 
d="M285 535v110h659q-23 160 -123 256q-118 109 -356 109q-199 0 -334 -60l-39 109q68 30 169 47.5t204 17.5q284 0 444 -145q166 -146 166 -426t-168 -428q-158 -143 -442 -143q-101 0 -202.5 18t-170.5 49l39 109q60 -26 150.5 -42t183.5 -16q236 0 356 111
q123 114 129 324h-665z" />
    <glyph glyph-name="afii10096.sc" horiz-adv-x="1617" 
d="M133 1106h123v-485h211q15 211 139 348q140 155 389 155q237 0 377 -137q154 -151 154 -430q0 -238 -107 -383q-71 -95 -180.5 -143.5t-243.5 -48.5q-266 0 -399 161q-116 139 -131 367h-209v-510h-123v1106zM995 1014q-189 0 -297 -121q-106 -121 -106 -340
q0 -196 88 -315q109 -146 315 -146q213 0 322 148q82 111 82 317q0 231 -115 346q-108 111 -289 111z" />
    <glyph glyph-name="afii10097.sc" horiz-adv-x="1202" 
d="M1069 1106v-1106h-125v360h-463l-221 -360h-145l237 369q-96 29 -168 108q-92 103 -92 252q0 166 101 262q49 54 129.5 84.5t171.5 30.5h575zM944 995h-455q-69 0 -127 -26.5t-94 -71.5q-49 -58 -49 -168q0 -106 60 -176q70 -82 198 -82h467v524z" />
    <glyph glyph-name="afii10098.sc" horiz-adv-x="1054" 
d="M133 1106h725l10 151h103v-262h-713v-995h-125v1106z" />
    <glyph glyph-name="afii10099.sc" horiz-adv-x="1396" 
d="M68 1106h888v-111h-385v-239q144 108 324 108q191 0 303 -104q117 -111 117 -342v-312q0 -123 -38.5 -211t-133.5 -169l-68 63q59 68 86 141.5t27 169.5v318q0 171 -78 252q-82 82 -217 82q-95 0 -168.5 -28t-153.5 -91v-633h-125v995h-378v111z" />
    <glyph glyph-name="afii10100.sc" horiz-adv-x="1056" 
d="M133 1106h832v-111h-707v-995h-125v1106zM518 1266l127 303l121 -60l-160 -282z" />
    <glyph glyph-name="afii10101.sc" horiz-adv-x="1167" 
d="M883 645v-110h-666q6 -210 129 -324q120 -111 356 -111q93 0 183.5 16t150.5 42l39 -109q-69 -31 -170.5 -49t-202.5 -18q-284 0 -442 143q-168 148 -168 428t166 426q160 145 444 145q103 0 204 -17.5t169 -47.5l-39 -109q-135 60 -334 60q-238 0 -356 -109
q-100 -96 -123 -256h660z" />
    <glyph glyph-name="afii10102.sc" horiz-adv-x="1206" 
d="M1028 1047l-43 -105q-185 70 -383 70q-232 0 -328 -68q-57 -41 -57 -110q0 -62 47 -97q55 -39 180 -57l271 -41q128 -21 202.5 -46t122.5 -71q74 -71 74 -203q0 -146 -115 -229q-144 -108 -467 -108q-249 0 -436 79l39 107q197 -74 397 -74q257 0 371 76q84 54 84 158
q0 92 -78 135q-55 30 -209 53l-301 45q-144 21 -221 78q-86 66 -86 184q0 129 94 205q121 96 416 96q237 0 426 -77z" />
    <glyph glyph-name="afii10103.sc" horiz-adv-x="391" 
d="M133 1106h123v-1106h-123v1106z" />
    <glyph glyph-name="afii10104.sc" horiz-adv-x="391" 
d="M133 1106h123v-1106h-123v1106zM401 1407q52 0 81.5 -30t29.5 -77q0 -44 -29.5 -73t-81.5 -29q-51 0 -80.5 29t-29.5 73q0 47 29.5 77t80.5 30zM-12 1407q53 0 82.5 -30t29.5 -77q0 -44 -30 -73t-82 -29q-51 0 -81 29t-30 73q0 47 30 77t81 30z" />
    <glyph glyph-name="afii10105.sc" horiz-adv-x="944" 
d="M696 1106h125v-660q0 -216 -116 -335q-66 -68 -152 -98.5t-213 -30.5q-179 0 -277 49l33 104q118 -43 244 -43q96 0 160.5 21.5t111.5 70.5q84 84 84 262v660z" />
    </font>
</defs>
</svg>
